<svg width="24" height="24" viewBox="0 0 24 24" fill="none" xmlns="http://www.w3.org/2000/svg">
<path fill-rule="evenodd" clip-rule="evenodd" d="M0.75 5C0.75 3.20507 2.20507 1.75 4 1.75H20C21.7949 1.75 23.25 3.20507 23.25 5V19C23.25 20.7949 21.7949 22.25 20 22.25H4C2.20508 22.25 0.75 20.7949 0.75 19V5ZM20.75 5C20.75 4.58579 20.4142 4.25 20 4.25H19.25V19.75H20C20.4142 19.75 20.75 19.4142 20.75 19V5ZM3.25 5C3.25 4.58579 3.58579 4.25 4 4.25H4.75V19.75H4C3.58579 19.75 3.25 19.4142 3.25 19V5ZM16.75 4.25V19.75H15.25V4.25H16.75ZM11.25 4.25H12.75V19.75H11.25V4.25ZM8.75 4.25V19.75H7.25V4.25H8.75Z" fill="black"/>
</svg>
