<svg width="24" height="24" viewBox="0 0 24 24" fill="none" xmlns="http://www.w3.org/2000/svg">
<path fill-rule="evenodd" clip-rule="evenodd" d="M8.55184 3.58039C8.98684 2.71039 10.1704 2.87559 10.4726 3.68149L10.478 3.69592L15.1111 17.3129L17.846 10.9988H22C22.5523 10.9988 23 11.4465 23 11.9988C23 12.5511 22.5523 12.9988 22 12.9988H19.1592L15.9588 20.3876L15.9465 20.4122C15.7462 20.8128 15.3518 20.995 15.0027 20.995C14.6506 20.995 14.2021 20.7996 14.0208 20.3161L14.0153 20.3017L9.3274 6.52327L6.12166 13.0038H2C1.44772 13.0038 1 12.5561 1 12.0038C1 11.4515 1.44772 11.0038 2 11.0038H4.87968L8.55184 3.58039Z" fill="black"/>
</svg>
