<svg width="24" height="24" viewBox="0 0 24 24" fill="none" xmlns="http://www.w3.org/2000/svg">
<path fill-rule="evenodd" clip-rule="evenodd" d="M2 7C2 4.23858 4.23858 2 7 2H17C19.7614 2 22 4.23858 22 7V17C22 19.7614 19.7614 22 17 22H7C4.23858 22 2 19.7614 2 17V7ZM9.5962 7.00466C10.008 7.04446 10.3528 7.33375 10.4635 7.73238L12.3404 14.4891L14.1425 11.4855C14.3232 11.1843 14.6487 11 15 11H18C18.5523 11 19 11.4477 19 12C19 12.5523 18.5523 13 18 13H15.5662L12.8575 17.5145C12.6518 17.8573 12.2618 18.0447 11.8657 17.991C11.4696 17.9373 11.1435 17.6528 11.0365 17.2677L9.2321 10.7719L8.39443 12.4472C8.22504 12.786 7.87877 13 7.5 13H6C5.44772 13 5 12.5523 5 12C5 11.4477 5.44772 11 6 11H6.88197L8.60557 7.55281C8.7906 7.18276 9.18439 6.96486 9.5962 7.00466Z" fill="black"/>
</svg>
