<svg width="24" height="24" viewBox="0 0 24 24" fill="none" xmlns="http://www.w3.org/2000/svg">
<path d="M10.4635 7.73238C10.3528 7.33375 10.008 7.04446 9.5962 7.00466C9.18439 6.96486 8.7906 7.18276 8.60557 7.55281L6.88197 11H6C5.44772 11 5 11.4477 5 12C5 12.5523 5.44772 13 6 13H7.5C7.87877 13 8.22504 12.786 8.39443 12.4472L9.2321 10.7719L11.0365 17.2677C11.1435 17.6528 11.4696 17.9373 11.8657 17.991C12.2618 18.0447 12.6518 17.8573 12.8575 17.5145L15.5662 13H18C18.5523 13 19 12.5523 19 12C19 11.4477 18.5523 11 18 11H15C14.6487 11 14.3232 11.1843 14.1425 11.4855L12.3404 14.4891L10.4635 7.73238Z" fill="black"/>
<path fill-rule="evenodd" clip-rule="evenodd" d="M7 2C4.23858 2 2 4.23858 2 7V17C2 19.7614 4.23858 22 7 22H17C19.7614 22 22 19.7614 22 17V7C22 4.23858 19.7614 2 17 2H7ZM4 7C4 5.34315 5.34315 4 7 4H17C18.6569 4 20 5.34315 20 7V17C20 18.6569 18.6569 20 17 20H7C5.34315 20 4 18.6569 4 17V7Z" fill="black"/>
</svg>
