<svg width="24" height="24" viewBox="0 0 24 24" fill="none" xmlns="http://www.w3.org/2000/svg">
<path fill-rule="evenodd" clip-rule="evenodd" d="M7 2C4.23858 2 2 4.23858 2 7V17C2 19.7614 4.23858 22 7 22H17C19.7614 22 22 19.7614 22 17V7C22 4.23858 19.7614 2 17 2H7ZM16 13C16.5523 13 17 12.5523 17 12C17 11.4477 16.5523 11 16 11H13V8C13 7.44771 12.5523 7 12 7C11.4477 7 11 7.44771 11 8V11H8C7.44771 11 7 11.4477 7 12C7 12.5523 7.44771 13 8 13H11V16C11 16.5523 11.4477 17 12 17C12.5523 17 13 16.5523 13 16V13H16Z" fill="black"/>
</svg>
