<svg width="24" height="24" viewBox="0 0 24 24" fill="none" xmlns="http://www.w3.org/2000/svg">
<path fill-rule="evenodd" clip-rule="evenodd" d="M2 17.5C2 16.8096 2.55964 16.25 3.25 16.25H5.01001C5.70037 16.25 6.26001 16.8096 6.26001 17.5C6.26001 18.1904 5.70037 18.75 5.01001 18.75H3.25C2.55964 18.75 2 18.1904 2 17.5Z" fill="black"/>
<path fill-rule="evenodd" clip-rule="evenodd" d="M11.25 17.5C11.25 16.8096 11.8096 16.25 12.5 16.25H20.75C21.4404 16.25 22 16.8096 22 17.5C22 18.1904 21.4404 18.75 20.75 18.75H12.5C11.8096 18.75 11.25 18.1904 11.25 17.5Z" fill="black"/>
<path fill-rule="evenodd" clip-rule="evenodd" d="M9 15.25C7.75736 15.25 6.75 16.2574 6.75 17.5C6.75 18.7426 7.75736 19.75 9 19.75C10.2426 19.75 11.25 18.7426 11.25 17.5C11.25 16.2574 10.2426 15.25 9 15.25ZM4.25 17.5C4.25 14.8766 6.37665 12.75 9 12.75C11.6234 12.75 13.75 14.8766 13.75 17.5C13.75 20.1234 11.6234 22.25 9 22.25C6.37665 22.25 4.25 20.1234 4.25 17.5Z" fill="black"/>
<path fill-rule="evenodd" clip-rule="evenodd" d="M17.7402 6.5C17.7402 5.80964 18.2999 5.25 18.9902 5.25H20.7502C21.4406 5.25 22.0002 5.80964 22.0002 6.5C22.0002 7.19036 21.4406 7.75 20.7502 7.75H18.9902C18.2999 7.75 17.7402 7.19036 17.7402 6.5Z" fill="black"/>
<path fill-rule="evenodd" clip-rule="evenodd" d="M2 6.5C2 5.80964 2.55964 5.25 3.25 5.25H11.5C12.1904 5.25 12.75 5.80964 12.75 6.5C12.75 7.19036 12.1904 7.75 11.5 7.75H3.25C2.55964 7.75 2 7.19036 2 6.5Z" fill="black"/>
<path fill-rule="evenodd" clip-rule="evenodd" d="M15 4.25C13.7574 4.25 12.75 5.25736 12.75 6.5C12.75 7.74264 13.7574 8.75 15 8.75C16.2426 8.75 17.25 7.74264 17.25 6.5C17.25 5.25736 16.2426 4.25 15 4.25ZM10.25 6.5C10.25 3.87665 12.3766 1.75 15 1.75C17.6234 1.75 19.75 3.87665 19.75 6.5C19.75 9.12335 17.6234 11.25 15 11.25C12.3766 11.25 10.25 9.12335 10.25 6.5Z" fill="black"/>
</svg>
