<svg width="24" height="24" viewBox="0 0 24 24" fill="none" xmlns="http://www.w3.org/2000/svg">
<path fill-rule="evenodd" clip-rule="evenodd" d="M0.75 12C0.75 11.3096 1.30964 10.75 2 10.75H2.75V9.25H2C1.30964 9.25 0.75 8.69036 0.75 8C0.75 7.30964 1.30964 6.75 2 6.75H2.75585C2.88634 3.96659 5.18431 1.75 8 1.75H16C18.8995 1.75 21.25 4.10051 21.25 7V17C21.25 19.8995 18.8995 22.25 16 22.25H8C5.18431 22.25 2.88634 20.0334 2.75585 17.25H2C1.30964 17.25 0.75 16.6904 0.75 16C0.75 15.3096 1.30964 14.75 2 14.75H2.75V13.25H2C1.30964 13.25 0.75 12.6904 0.75 12ZM6.25 8C6.25 8.60474 5.82056 9.10918 5.25 9.225V10.775C5.82056 10.8908 6.25 11.3953 6.25 12C6.25 12.6047 5.82056 13.1092 5.25 13.225V14.775C5.82056 14.8908 6.25 15.3953 6.25 16C6.25 16.6016 5.82503 17.1039 5.25892 17.2231C5.3725 18.6376 6.55634 19.75 8 19.75H16C17.5188 19.75 18.75 18.5188 18.75 17V7C18.75 5.48122 17.5188 4.25 16 4.25H8C6.55634 4.25 5.3725 5.36243 5.25892 6.77685C5.82503 6.89609 6.25 7.39842 6.25 8Z" fill="black"/>
</svg>
