<svg width="24" height="24" viewBox="0 0 24 24" fill="none" xmlns="http://www.w3.org/2000/svg">
<path fill-rule="evenodd" clip-rule="evenodd" d="M12 2C6.47715 2 2 6.47715 2 12C2 17.5228 6.47715 22 12 22C17.5228 22 22 17.5228 22 12C22 6.47715 17.5228 2 12 2ZM13 7C13 6.44772 12.5523 6 12 6C11.4477 6 11 6.44772 11 7V12C11 12.3344 11.1671 12.6466 11.4453 12.8321L14.4453 14.8321C14.9048 15.1384 15.5257 15.0142 15.8321 14.5547C16.1384 14.0952 16.0142 13.4743 15.5547 13.1679L13 11.4648V7Z" fill="black"/>
<path fill-rule="evenodd" clip-rule="evenodd" d="M18.2929 1.29289C18.6834 0.902369 19.3166 0.902369 19.7071 1.29289L22.7071 4.29289C23.0976 4.68342 23.0976 5.31658 22.7071 5.70711C22.3166 6.09763 21.6834 6.09763 21.2929 5.70711L18.2929 2.70711C17.9024 2.31658 17.9024 1.68342 18.2929 1.29289Z" fill="black"/>
<path fill-rule="evenodd" clip-rule="evenodd" d="M5.70711 1.29289C5.31658 0.902369 4.68342 0.902369 4.29289 1.29289L1.29289 4.29289C0.902369 4.68342 0.902369 5.31658 1.29289 5.70711C1.68342 6.09763 2.31658 6.09763 2.70711 5.70711L5.70711 2.70711C6.09763 2.31658 6.09763 1.68342 5.70711 1.29289Z" fill="black"/>
</svg>
