<svg width="24" height="24" viewBox="0 0 24 24" fill="none" xmlns="http://www.w3.org/2000/svg">
<path d="M5.89212 5.87847C7.21694 4.55583 8.79407 3.56238 10.498 2.91217L12.0749 4.4891L15.0857 7.49987L13.4999 9.08566L12.707 8.29276C12.3165 7.90224 11.6833 7.90224 11.2928 8.29276C10.9022 8.68329 10.9022 9.31645 11.2928 9.70698L12.0857 10.4999L10.4999 12.0857L9.70698 11.2928C9.31645 10.9022 8.68329 10.9022 8.29277 11.2928C7.90224 11.6833 7.90224 12.3165 8.29277 12.707L9.08566 13.4999L7.49987 15.0857L4.48865 12.0744L2.91176 10.4975C3.56431 8.78778 4.56262 7.20578 5.89212 5.87847Z" fill="black"/>
<path d="M12.692 2.27775L14.4569 4.04266L19.9595 9.5453L21.7253 11.3111C22.0638 9.63633 22.0914 7.89522 21.7961 6.1938L21.7941 6.18328C21.6125 5.19914 21.1285 4.28732 20.4171 3.57312L20.4142 3.57023C19.6998 2.85896 18.7877 2.37524 17.8035 2.19366L17.7949 2.19208L17.7863 2.19065C16.0915 1.90842 14.3594 1.94125 12.692 2.27775Z" fill="black"/>
<path d="M21.0883 13.5025L19.513 11.9272L16.4999 8.91408L14.9141 10.4999L15.707 11.2928C16.0975 11.6833 16.0975 12.3165 15.707 12.707C15.3165 13.0975 14.6833 13.0975 14.2928 12.707L13.4999 11.9141L11.9141 13.4999L12.707 14.2928C13.0975 14.6833 13.0975 15.3165 12.707 15.707C12.3165 16.0975 11.6833 16.0975 11.2928 15.707L10.4999 14.9141L8.91409 16.4999L11.9239 19.5097L13.4969 21.0827C15.2104 20.4193 16.7906 19.408 18.0978 18.0886C19.4324 16.775 20.4341 15.2034 21.0883 13.5025Z" fill="black"/>
<path d="M9.54686 19.9611L4.0424 14.4566L2.27733 12.6915C1.94239 14.3518 1.90872 16.0762 2.18786 17.7641L2.18938 17.7733L2.19108 17.7825C2.37273 18.7666 2.85667 19.6784 3.56816 20.3926L3.57106 20.3955C4.28469 21.106 5.1955 21.5894 6.17853 21.7715C7.87917 22.0959 9.62793 22.0696 11.3107 21.7249L9.54686 19.9611Z" fill="black"/>
</svg>
