<svg width="24" height="24" viewBox="0 0 24 24" fill="none" xmlns="http://www.w3.org/2000/svg">
<path d="M17.5 12.0001C17.5 12.8285 16.8284 13.5001 16 13.5001C15.1716 13.5001 14.4999 12.8285 14.4999 12.0001C14.4999 11.1717 15.1715 10.5001 15.9999 10.5001C16.8283 10.5001 17.5 11.1717 17.5 12.0001Z" fill="black"/>
<path d="M8 13.5001C8.82843 13.5001 9.5 12.8285 9.5 12.0001C9.5 11.1717 8.82833 10.5001 7.9999 10.5001C7.17147 10.5001 6.4999 11.1717 6.4999 12.0001C6.4999 12.8285 7.17157 13.5001 8 13.5001Z" fill="black"/>
<path fill-rule="evenodd" clip-rule="evenodd" d="M4.44541 4.16806C4.90493 3.8617 5.5258 3.98588 5.83216 4.44541L7.50631 6.95664C8.87802 6.342 10.3987 6.00012 11.9995 6.00012C13.6006 6.00012 15.1216 6.34212 16.4935 6.95696L18.1678 4.44541C18.4742 3.98588 19.0951 3.8617 19.5546 4.16806C20.0141 4.47441 20.1383 5.09528 19.8319 5.55481L18.241 7.94115C20.2498 9.32795 21.7745 11.3656 22.5109 13.749C22.8706 14.9131 22.5279 16.0139 21.8214 16.7893C21.1307 17.5474 20.0969 18.0001 18.9995 18.0001H4.99953C3.90218 18.0001 2.86836 17.5474 2.17763 16.7893C1.4712 16.0139 1.1285 14.9131 1.48818 13.749C2.22466 11.3654 3.74956 9.32751 5.75866 7.94071L4.16806 5.55481C3.8617 5.09528 3.98588 4.47441 4.44541 4.16806ZM3.39904 14.3394C4.53384 10.6667 7.95659 8.00012 11.9995 8.00012C16.0425 8.00012 19.4652 10.6667 20.6 14.3394C20.7295 14.7583 20.6226 15.1354 20.343 15.4423C20.0477 15.7664 19.559 16.0001 18.9995 16.0001H4.99953C4.44003 16.0001 3.95133 15.7664 3.65603 15.4423C3.37644 15.1354 3.26961 14.7583 3.39904 14.3394Z" fill="black"/>
</svg>
