<svg width="24" height="24" viewBox="0 0 24 24" fill="none" xmlns="http://www.w3.org/2000/svg">
<path fill-rule="evenodd" clip-rule="evenodd" d="M2 12C2 6.47715 6.47715 2 12 2C17.5228 2 22 6.47715 22 12C22 17.5228 17.5228 22 12 22C6.47715 22 2 17.5228 2 12ZM7.84637 10.0412C7.63008 10.3012 7.5 10.6354 7.5 11C7.5 11.8284 8.17167 12.5 9.0001 12.5C9.82853 12.5 10.5001 11.8284 10.5001 11C10.5001 10.956 10.4982 10.9124 10.4945 10.8693C10.6611 10.7748 10.8023 10.6314 10.8944 10.4472C11.1414 9.95324 10.9412 9.35256 10.4472 9.10557L8.44721 8.10557C7.95324 7.85858 7.35256 8.05881 7.10557 8.55279C6.85858 9.04677 7.05881 9.64744 7.55279 9.89443L7.84637 10.0412ZM13.5056 10.8694C13.5019 10.9124 13.5 10.956 13.5 11C13.5 11.8284 14.1717 12.5 15.0001 12.5C15.8285 12.5 16.5001 11.8284 16.5001 11C16.5001 10.6354 16.37 10.3012 16.1537 10.0412L16.4472 9.89443C16.9412 9.64744 17.1414 9.04676 16.8944 8.55279C16.6474 8.05881 16.0468 7.85858 15.5528 8.10557L13.5528 9.10557C13.0588 9.35256 12.8586 9.95323 13.1056 10.4472C13.1977 10.6314 13.339 10.7748 13.5056 10.8694ZM15.9193 15.6064C16.1367 16.1141 15.9013 16.7019 15.3936 16.9193C14.8859 17.1367 14.2981 16.9013 14.0807 16.3936C13.7257 15.5644 12.9195 15 12 15C11.0821 15 10.2772 15.5632 9.91835 16.3958C9.69978 16.903 9.11143 17.1369 8.60424 16.9184C8.09704 16.6998 7.86307 16.1114 8.08165 15.6042C8.737 14.0835 10.2353 13 12 13C13.7632 13 15.2667 14.0822 15.9193 15.6064Z" fill="black"/>
<path fill-rule="evenodd" clip-rule="evenodd" d="M2 12C2 6.47715 6.47715 2 12 2C17.5228 2 22 6.47715 22 12C22 17.5228 17.5228 22 12 22C6.47715 22 2 17.5228 2 12ZM7.84637 10.0412C7.63008 10.3012 7.5 10.6354 7.5 11C7.5 11.8284 8.17167 12.5 9.0001 12.5C9.82853 12.5 10.5001 11.8284 10.5001 11C10.5001 10.956 10.4982 10.9124 10.4945 10.8693C10.6611 10.7748 10.8023 10.6314 10.8944 10.4472C11.1414 9.95324 10.9412 9.35256 10.4472 9.10557L8.44721 8.10557C7.95324 7.85858 7.35256 8.05881 7.10557 8.55279C6.85858 9.04677 7.05881 9.64744 7.55279 9.89443L7.84637 10.0412ZM13.5056 10.8694C13.5019 10.9124 13.5 10.956 13.5 11C13.5 11.8284 14.1717 12.5 15.0001 12.5C15.8285 12.5 16.5001 11.8284 16.5001 11C16.5001 10.6354 16.37 10.3012 16.1537 10.0412L16.4472 9.89443C16.9412 9.64744 17.1414 9.04676 16.8944 8.55279C16.6474 8.05881 16.0468 7.85858 15.5528 8.10557L13.5528 9.10557C13.0588 9.35256 12.8586 9.95323 13.1056 10.4472C13.1977 10.6314 13.339 10.7748 13.5056 10.8694ZM15.9193 15.6064C16.1367 16.1141 15.9013 16.7019 15.3936 16.9193C14.8859 17.1367 14.2981 16.9013 14.0807 16.3936C13.7257 15.5644 12.9195 15 12 15C11.0821 15 10.2772 15.5632 9.91835 16.3958C9.69978 16.903 9.11143 17.1369 8.60424 16.9184C8.09704 16.6998 7.86307 16.1114 8.08165 15.6042C8.737 14.0835 10.2353 13 12 13C13.7632 13 15.2667 14.0822 15.9193 15.6064Z" fill="black"/>
</svg>
