<svg width="24" height="24" viewBox="0 0 24 24" fill="none" xmlns="http://www.w3.org/2000/svg">
<path fill-rule="evenodd" clip-rule="evenodd" d="M12 4C7.58172 4 4 7.58172 4 12C4 16.4183 7.58172 20 12 20C16.4183 20 20 16.4183 20 12C20 7.58172 16.4183 4 12 4ZM2 12C2 6.47715 6.47715 2 12 2C17.5228 2 22 6.47715 22 12C22 17.5228 17.5228 22 12 22C6.47715 22 2 17.5228 2 12Z" fill="black"/>
<path fill-rule="evenodd" clip-rule="evenodd" d="M7.5 11C7.5 10.1716 8.17157 9.5 9 9.5C9.82843 9.5 10.5001 10.1716 10.5001 11C10.5001 11.8284 9.82853 12.5 9.0001 12.5C8.17167 12.5 7.5 11.8284 7.5 11Z" fill="black"/>
<path fill-rule="evenodd" clip-rule="evenodd" d="M7.5 11C7.5 10.1716 8.17157 9.5 9 9.5C9.82843 9.5 10.5001 10.1716 10.5001 11C10.5001 11.8284 9.82853 12.5 9.0001 12.5C8.17167 12.5 7.5 11.8284 7.5 11Z" fill="black"/>
<path fill-rule="evenodd" clip-rule="evenodd" d="M13.5 11C13.5 10.1716 14.1716 9.5 15 9.5C15.8284 9.5 16.5001 10.1716 16.5001 11C16.5001 11.8284 15.8285 12.5 15.0001 12.5C14.1717 12.5 13.5 11.8284 13.5 11Z" fill="black"/>
<path fill-rule="evenodd" clip-rule="evenodd" d="M13.5 11C13.5 10.1716 14.1716 9.5 15 9.5C15.8284 9.5 16.5001 10.1716 16.5001 11C16.5001 11.8284 15.8285 12.5 15.0001 12.5C14.1717 12.5 13.5 11.8284 13.5 11Z" fill="black"/>
<path fill-rule="evenodd" clip-rule="evenodd" d="M15.3936 16.9193C15.9013 16.7019 16.1367 16.1141 15.9193 15.6064C15.2667 14.0822 13.7632 13 12 13C10.2353 13 8.737 14.0835 8.08165 15.6042C7.86307 16.1114 8.09704 16.6998 8.60424 16.9184C9.11143 17.1369 9.69978 16.903 9.91835 16.3958C10.2772 15.5632 11.0821 15 12 15C12.9195 15 13.7257 15.5644 14.0807 16.3936C14.2981 16.9013 14.8859 17.1367 15.3936 16.9193Z" fill="black"/>
<path fill-rule="evenodd" clip-rule="evenodd" d="M10.8944 10.4472C11.1414 9.95324 10.9412 9.35256 10.4472 9.10557L8.44721 8.10557C7.95324 7.85858 7.35256 8.05881 7.10557 8.55279C6.85858 9.04677 7.05881 9.64744 7.55279 9.89443L9.55279 10.8944C10.0468 11.1414 10.6474 10.9412 10.8944 10.4472Z" fill="black"/>
<path fill-rule="evenodd" clip-rule="evenodd" d="M10.8944 10.4472C11.1414 9.95324 10.9412 9.35256 10.4472 9.10557L8.44721 8.10557C7.95324 7.85858 7.35256 8.05881 7.10557 8.55279C6.85858 9.04677 7.05881 9.64744 7.55279 9.89443L9.55279 10.8944C10.0468 11.1414 10.6474 10.9412 10.8944 10.4472Z" fill="black"/>
<path fill-rule="evenodd" clip-rule="evenodd" d="M13.1056 10.4472C13.3526 10.9412 13.9532 11.1414 14.4472 10.8944L16.4472 9.89443C16.9412 9.64744 17.1414 9.04676 16.8944 8.55279C16.6474 8.05881 16.0468 7.85858 15.5528 8.10557L13.5528 9.10557C13.0588 9.35256 12.8586 9.95323 13.1056 10.4472Z" fill="black"/>
<path fill-rule="evenodd" clip-rule="evenodd" d="M13.1056 10.4472C13.3526 10.9412 13.9532 11.1414 14.4472 10.8944L16.4472 9.89443C16.9412 9.64744 17.1414 9.04676 16.8944 8.55279C16.6474 8.05881 16.0468 7.85858 15.5528 8.10557L13.5528 9.10557C13.0588 9.35256 12.8586 9.95323 13.1056 10.4472Z" fill="black"/>
</svg>
