<svg width="24" height="24" viewBox="0 0 24 24" fill="none" xmlns="http://www.w3.org/2000/svg">
<path fill-rule="evenodd" clip-rule="evenodd" d="M2 7C2 4.23858 4.23858 2 7 2H17C19.7614 2 22 4.23858 22 7V14H16C15.4477 14 15 14.4477 15 15V22H7C4.23858 22 2 19.7614 2 17V7ZM7 7C7 6.44772 7.44772 6 8 6H16C16.5523 6 17 6.44772 17 7C17 7.55228 16.5523 8 16 8H8C7.44772 8 7 7.55228 7 7ZM7 11C7 10.4477 7.44772 10 8 10H16C16.5523 10 17 10.4477 17 11C17 11.5523 16.5523 12 16 12H8C7.44772 12 7 11.5523 7 11ZM7 15C7 14.4477 7.44772 14 8 14H12C12.5523 14 13 14.4477 13 15C13 15.5523 12.5523 16 12 16H8C7.44772 16 7 15.5523 7 15Z" fill="black"/>
<path d="M20.9043 17.7204C21.3149 17.2072 21.6172 16.6221 21.7991 16H17V21.6156C17.7661 21.2965 18.4505 20.7877 18.9818 20.1235L20.9043 17.7204Z" fill="black"/>
</svg>
