<svg width="24" height="24" viewBox="0 0 24 24" fill="none" xmlns="http://www.w3.org/2000/svg">
<path d="M2 8C2 5.23858 4.23858 3 7 3H13.3895C13.0005 3.59657 12.7242 4.2733 12.5907 5C12.5311 5.32428 12.5 5.6585 12.5 6C12.5 9.03757 14.9624 11.5 18 11.5C18.3415 11.5 18.6757 11.4689 19 11.4093C19.7267 11.2758 20.4034 10.9995 21 10.6105V17C21 19.7614 18.7614 22 16 22H7C4.23858 22 2 19.7614 2 17V8Z" fill="black"/>
<path d="M21 8.64582C21.6224 7.94069 22 7.01445 22 6C22 3.79086 20.2091 2 18 2C16.9856 2 16.0593 2.37764 15.3542 3C14.7638 3.5211 14.3284 4.21378 14.126 5C14.0438 5.31962 14 5.6547 14 6C14 8.20914 15.7909 10 18 10C18.3453 10 18.6804 9.95625 19 9.87398C19.7862 9.67162 20.4789 9.23623 21 8.64582Z" fill="black"/>
</svg>
