<svg width="24" height="24" viewBox="0 0 24 24" fill="none" xmlns="http://www.w3.org/2000/svg">
<path fill-rule="evenodd" clip-rule="evenodd" d="M12.0378 5.96225C11.8939 6.95185 11.8952 6.95203 11.8952 6.95203L11.8966 6.95223L11.9 6.95272L11.9092 6.95399L11.9365 6.95755C11.9586 6.96032 11.9883 6.96382 12.025 6.96763C12.0982 6.97522 12.1996 6.98408 12.3231 6.99061C12.5684 7.00357 12.9096 7.00783 13.2943 6.97184C14.027 6.90329 15.0964 6.67248 15.8845 5.88445C16.6725 5.09643 16.9033 4.02702 16.9718 3.29431C17.0078 2.90961 17.0036 2.56841 16.9906 2.32314C16.9841 2.19964 16.9752 2.09818 16.9676 2.02498C16.9638 1.98832 16.9603 1.95857 16.9575 1.93651L16.954 1.90922L16.9527 1.90004L16.9522 1.89659L16.9519 1.89451C16.8883 1.45648 16.5441 1.11182 16.1061 1.04815L15.9622 2.03776C16.1061 1.04815 16.1048 1.04797 16.1048 1.04797L16.1034 1.04777L16.1 1.04728L16.0908 1.04601L16.0635 1.04246C16.0414 1.03969 16.0117 1.03618 15.975 1.03237C15.9018 1.02478 15.8004 1.01592 15.6769 1.00939C15.4316 0.996429 15.0904 0.992166 14.7057 1.02816C13.973 1.09671 12.9036 1.32752 12.1155 2.11555C11.3275 2.90357 11.0967 3.97299 11.0282 4.70569C10.9922 5.09039 10.9964 5.43159 11.0094 5.67686C11.0159 5.80036 11.0248 5.90182 11.0324 5.97503C11.0362 6.01168 11.0397 6.04143 11.0425 6.06349L11.046 6.09078L11.0473 6.09996L11.0478 6.10341L11.0481 6.10549C11.1117 6.54352 11.4559 6.88818 11.8939 6.95185L12.0378 5.96225ZM13.5298 3.52976C13.8255 3.23407 14.3258 3.07243 14.892 3.01946C14.9245 3.01642 14.9567 3.01379 14.9885 3.01153C14.9862 3.04327 14.9836 3.07546 14.9805 3.10801C14.9276 3.67417 14.7659 4.17455 14.4702 4.47024C14.1745 4.76593 13.6742 4.92757 13.108 4.98054C13.0755 4.98358 13.0433 4.98621 13.0115 4.98847C13.0138 4.95673 13.0164 4.92455 13.0195 4.892C13.0724 4.32584 13.2341 3.82545 13.5298 3.52976ZM16.9519 1.89451C16.9519 1.89451 16.9518 1.89392 15.9622 2.03776L16.9519 1.89451ZM12.0378 5.96225L11.0481 6.10549C11.0481 6.10549 11.0482 6.10608 12.0378 5.96225Z" fill="black"/>
<path fill-rule="evenodd" clip-rule="evenodd" d="M8.64044 7C7.05925 7 5.6149 7.67328 4.58506 8.93251C3.56559 10.1791 3 11.9358 3 14.0593C3 15.9056 3.61156 17.8374 4.50705 19.4099C5.38554 20.9526 6.64485 22.3333 8.0815 22.8482C9.36066 23.3067 10.5398 22.6352 11.2304 22.1402C11.4534 21.9804 11.6777 21.8406 11.8812 21.7441C12.0984 21.6412 12.2172 21.6236 12.2497 21.6236C12.2821 21.6236 12.4009 21.6412 12.6181 21.7441C12.8216 21.8406 13.0459 21.9804 13.2689 22.1402C13.9595 22.6352 15.1387 23.3067 16.4178 22.8482C17.4522 22.4775 18.3812 21.6622 19.1303 20.7027C19.8906 19.7288 20.528 18.5277 20.9488 17.2631C21.0349 17.0045 21.0117 16.722 20.8845 16.4809C20.7574 16.2398 20.5374 16.061 20.2753 15.986C19.1816 15.6727 18.4057 14.6912 18.4057 13.5544C18.4057 12.5125 19.056 11.6023 20.0085 11.215C20.2746 11.1068 20.4813 10.8894 20.5759 10.6182C20.6706 10.347 20.6441 10.0483 20.5032 9.79799C19.4918 8.0018 17.7905 7 15.8589 7C14.7891 7 13.8592 7.42799 13.1728 7.87474C12.5514 8.27918 11.9479 8.27918 11.3265 7.87474C10.6401 7.42799 9.71022 7 8.64044 7ZM5 14.0593C5 12.2786 5.47321 11.0057 6.13324 10.1987C6.78292 9.40427 7.65878 9 8.64044 9C9.17923 9 9.72769 9.22044 10.2355 9.55097C11.5202 10.3871 12.9791 10.3871 14.2638 9.55097C14.7716 9.22044 15.3201 9 15.8589 9C16.7359 9 17.5426 9.324 18.1751 9.98279C17.1025 10.8094 16.4057 12.0972 16.4057 13.5544C16.4057 15.2465 17.3441 16.7091 18.7216 17.4882C18.3993 18.2242 17.9972 18.9041 17.5539 19.4719C16.9316 20.269 16.2879 20.7702 15.743 20.9655C15.4812 21.0594 15.0676 20.9687 14.434 20.5146C14.1546 20.3144 13.8237 20.1023 13.4747 19.9369C13.1394 19.7779 12.7084 19.6236 12.2497 19.6236C11.7909 19.6236 11.3599 19.7779 11.0246 19.9369C10.6756 20.1023 10.3447 20.3144 10.0653 20.5146C9.43175 20.9687 9.01813 21.0594 8.75628 20.9655C7.9705 20.6839 7.02036 19.7817 6.24501 18.4202C5.48666 17.0885 5 15.4948 5 14.0593Z" fill="black"/>
</svg>
