<svg width="24" height="24" viewBox="0 0 24 24" fill="none" xmlns="http://www.w3.org/2000/svg">
<path fill-rule="evenodd" clip-rule="evenodd" d="M20.9942 16.6712C20.5293 17.711 20.3093 18.1758 19.7095 19.0955C18.8747 20.3802 17.7 21.9798 16.2404 21.9948C14.9457 22.0098 14.6108 21.1401 12.8563 21.1551C11.0967 21.1651 10.7318 22.0148 9.43717 21.9998C7.97755 21.9848 6.86784 20.5452 6.03306 19.2605C3.69867 15.6715 3.45372 11.4575 4.89334 9.21309C5.91808 7.6235 7.53266 6.68872 9.04726 6.68872C10.5619 6.68872 11.5616 7.5436 12.8413 7.5436C14.121 7.5436 14.8358 6.68384 16.6203 6.68384C17.97 6.68384 19.4046 7.42855 20.4243 8.71322C17.0852 10.5627 17.625 15.3866 20.9992 16.6762L20.9942 16.6712ZM15.2656 5.24415C15.9155 4.40437 16.4053 3.21468 16.2304 2C15.1707 2.07498 13.931 2.75482 13.2062 3.64459C12.5464 4.44938 12.0065 5.64911 12.2164 6.80881C13.3761 6.8438 14.5708 6.14892 15.2656 5.24415Z" fill="black"/>
</svg>
