<svg width="24" height="24" viewBox="0 0 24 24" fill="none" xmlns="http://www.w3.org/2000/svg">
<path d="M9 6C8.44772 6 8 6.44772 8 7C8 7.55228 8.44772 8 9 8H15C15.5523 8 16 7.55228 16 7C16 6.44772 15.5523 6 15 6H9Z" fill="black"/>
<path d="M9 10C8.44772 10 8 10.4477 8 11C8 11.5523 8.44772 12 9 12H13C13.5523 12 14 11.5523 14 11C14 10.4477 13.5523 10 13 10H9Z" fill="black"/>
<path fill-rule="evenodd" clip-rule="evenodd" d="M4 3C4 2.44772 4.44772 2 5 2H19C19.5523 2 20 2.44772 20 3V13H21C21.5523 13 22 13.4477 22 14V19C22 20.6569 20.6569 22 19 22H5C3.34315 22 2 20.6569 2 19V14C2 13.4477 2.44772 13 3 13H4V3ZM15 14C15 13.4477 15.4477 13 16 13H18V4H6V13H8C8.55228 13 9 13.4477 9 14V15H15V14ZM16 17C16.5523 17 17 16.5523 17 16V15H20V19C20 19.5523 19.5523 20 19 20H5C4.44772 20 4 19.5523 4 19V15H7V16C7 16.5523 7.44772 17 8 17H16Z" fill="black"/>
</svg>
