<svg width="24" height="24" viewBox="0 0 24 24" fill="none" xmlns="http://www.w3.org/2000/svg">
<path fill-rule="evenodd" clip-rule="evenodd" d="M7.29289 9.70711C7.68342 10.0976 8.31658 10.0976 8.70711 9.70711L12 6.41421L15.2929 9.70711C15.6834 10.0976 16.3166 10.0976 16.7071 9.70711C17.0976 9.31658 17.0976 8.68342 16.7071 8.29289L12.7071 4.29289C12.5196 4.10536 12.2652 4 12 4C11.7348 4 11.4804 4.10536 11.2929 4.29289L7.29289 8.2929C6.90237 8.68342 6.90237 9.31659 7.29289 9.70711Z" fill="black"/>
<path fill-rule="evenodd" clip-rule="evenodd" d="M12 4C11.4477 4 11 4.44772 11 5L11 19C11 19.5523 11.4477 20 12 20C12.5523 20 13 19.5523 13 19L13 5C13 4.44772 12.5523 4 12 4Z" fill="black"/>
</svg>
