<svg width="24" height="24" viewBox="0 0 24 24" fill="none" xmlns="http://www.w3.org/2000/svg">
<path d="M21 12C21 12.3086 20.8575 12.5999 20.6139 12.7894L11.6139 19.7894C11.3124 20.0238 10.9037 20.0661 10.5606 19.8983C10.2175 19.7305 9.99992 19.3819 9.99992 19L9.99992 16L5 16C3.89543 16 3 15.1045 3 14L3 9.99997C3 8.8954 3.89543 7.99997 5 7.99997L9.99992 7.99997L9.99992 5.00001C9.99992 4.61808 10.2175 4.2695 10.5606 4.10169C10.9037 3.93389 11.3124 3.97617 11.6139 4.21065L20.6139 11.2107C20.8575 11.4001 21 11.6914 21 12Z" fill="black"/>
</svg>
