<svg width="24" height="24" viewBox="0 0 24 24" fill="none" xmlns="http://www.w3.org/2000/svg">
<path d="M12 3C12.3086 3 12.5999 3.14247 12.7894 3.38606L19.7894 12.3861C20.0238 12.6876 20.0661 13.0963 19.8983 13.4394C19.7305 13.7825 19.3819 14.0001 19 14.0001H16V19C16 20.1046 15.1045 21 14 21H9.99997C8.8954 21 7.99997 20.1046 7.99997 19V14.0001H5.00001C4.61807 14.0001 4.2695 13.7825 4.10169 13.4394C3.93389 13.0963 3.97617 12.6876 4.21065 12.3861L11.2107 3.38606C11.4001 3.14247 11.6914 3 12 3Z" fill="black"/>
</svg>
