<svg width="24" height="24" viewBox="0 0 24 24" fill="none" xmlns="http://www.w3.org/2000/svg">
<path fill-rule="evenodd" clip-rule="evenodd" d="M12.2816 6.30562C11.8981 6.70306 11.9094 7.33612 12.3069 7.71961L17.7792 13L12.3069 18.2804C11.9094 18.6639 11.8981 19.2969 12.2816 19.6944C12.6651 20.0918 13.2982 20.1031 13.6956 19.7196L19.5387 14.0814C20.1538 13.4929 20.1538 12.5071 19.5387 11.9186L13.6956 6.28039C13.2982 5.89689 12.6651 5.90819 12.2816 6.30562Z" fill="black"/>
<path fill-rule="evenodd" clip-rule="evenodd" d="M5.00122 4C4.44894 4 4.00122 4.44772 4.00122 5V9C4.00122 11.7614 6.2398 14 9.00122 14H18.0012C18.5535 14 19.0012 13.5523 19.0012 13C19.0012 12.4477 18.5535 12 18.0012 12H9.00122C7.34437 12 6.00122 10.6569 6.00122 9V5C6.00122 4.44772 5.55351 4 5.00122 4Z" fill="black"/>
</svg>
