<svg width="24" height="24" viewBox="0 0 24 24" fill="none" xmlns="http://www.w3.org/2000/svg">
<path fill-rule="evenodd" clip-rule="evenodd" d="M12.7894 20.6139C12.5999 20.8575 12.3086 21 12 21C11.6914 21 11.4001 20.8575 11.2107 20.6139L4.21065 11.6139C3.97617 11.3124 3.93389 10.9037 4.10169 10.5606C4.2695 10.2175 4.61807 9.99992 5.00001 9.99992H7.99997V5C7.99997 3.89543 8.8954 3 9.99997 3H14C15.1045 3 16 3.89543 16 5V9.99992H19C19.3819 9.99992 19.7305 10.2175 19.8983 10.5606C20.0661 10.9037 20.0238 11.3124 19.7894 11.6139L12.7894 20.6139ZM9.99997 9.99992C9.99997 11.1045 9.10454 11.9999 7.99997 11.9999H7.04464L12 18.3712L16.9554 11.9999H15C14.4477 11.9999 14 11.5522 14 10.9999V5H9.99997V9.99992Z" fill="black"/>
</svg>
