<svg width="24" height="24" viewBox="0 0 24 24" fill="none" xmlns="http://www.w3.org/2000/svg">
<path fill-rule="evenodd" clip-rule="evenodd" d="M9.70711 7.29289C10.0976 7.68342 10.0976 8.31658 9.70711 8.70711L6.41421 12L9.70711 15.2929C10.0976 15.6834 10.0976 16.3166 9.70711 16.7071C9.31658 17.0976 8.68342 17.0976 8.29289 16.7071L4.29289 12.7071C4.10536 12.5196 4 12.2652 4 12C4 11.7348 4.10536 11.4804 4.29289 11.2929L8.2929 7.29289C8.68342 6.90237 9.31659 6.90237 9.70711 7.29289Z" fill="black"/>
<path fill-rule="evenodd" clip-rule="evenodd" d="M4 12C4 11.4477 4.44772 11 5 11L19 11C19.5523 11 20 11.4477 20 12C20 12.5523 19.5523 13 19 13L5 13C4.44772 13 4 12.5523 4 12Z" fill="black"/>
</svg>
