<svg width="24" height="24" viewBox="0 0 24 24" fill="none" xmlns="http://www.w3.org/2000/svg">
<path fill-rule="evenodd" clip-rule="evenodd" d="M7.29289 14.2929C7.68342 13.9024 8.31658 13.9024 8.70711 14.2929L12 17.5858L15.2929 14.2929C15.6834 13.9024 16.3166 13.9024 16.7071 14.2929C17.0976 14.6834 17.0976 15.3166 16.7071 15.7071L12.7071 19.7071C12.5196 19.8946 12.2652 20 12 20C11.7348 20 11.4804 19.8946 11.2929 19.7071L7.29289 15.7071C6.90237 15.3166 6.90237 14.6834 7.29289 14.2929Z" fill="black"/>
<path fill-rule="evenodd" clip-rule="evenodd" d="M12 20C11.4477 20 11 19.5523 11 19L11 5C11 4.44771 11.4477 4 12 4C12.5523 4 13 4.44771 13 5L13 19C13 19.5523 12.5523 20 12 20Z" fill="black"/>
</svg>
