<svg width="24" height="24" viewBox="0 0 24 24" fill="none" xmlns="http://www.w3.org/2000/svg">
<path fill-rule="evenodd" clip-rule="evenodd" d="M3 8C3 6.34315 4.34315 5 6 5C7.65685 5 9 6.34315 9 8C9 9.65685 7.65685 11 6 11C4.34315 11 3 9.65685 3 8ZM6 7C5.44772 7 5 7.44772 5 8C5 8.55228 5.44772 9 6 9C6.55228 9 7 8.55228 7 8C7 7.44772 6.55228 7 6 7Z" fill="black"/>
<path d="M11 6C11 5.44772 11.4477 5 12 5H20C20.5523 5 21 5.44772 21 6C21 6.55228 20.5523 7 20 7H12C11.4477 7 11 6.55228 11 6Z" fill="black"/>
<path d="M12 9C11.4477 9 11 9.44772 11 10C11 10.5523 11.4477 11 12 11H20C20.5523 11 21 10.5523 21 10C21 9.44772 20.5523 9 20 9H12Z" fill="black"/>
<path d="M3 14C3 13.4477 3.44772 13 4 13H20C20.5523 13 21 13.4477 21 14C21 14.5523 20.5523 15 20 15H4C3.44772 15 3 14.5523 3 14Z" fill="black"/>
<path d="M4 17C3.44772 17 3 17.4477 3 18C3 18.5523 3.44772 19 4 19H20C20.5523 19 21 18.5523 21 18C21 17.4477 20.5523 17 20 17H4Z" fill="black"/>
</svg>
