<svg width="24" height="24" viewBox="0 0 24 24" fill="none" xmlns="http://www.w3.org/2000/svg">
<path fill-rule="evenodd" clip-rule="evenodd" d="M4 12C4 7.58172 7.58172 4 12 4C16.4183 4 20 7.58172 20 12C20 12.7308 19.9023 13.4372 19.7197 14.1076C19.5866 14.5964 19.0599 15 18.3181 15C17.314 15 16.5 14.186 16.5 13.1819V8C16.5 7.44772 16.0523 7 15.5 7C14.9477 7 14.5 7.44772 14.5 8V8.26871C13.7209 7.48866 12.684 7 11.5 7C8.89347 7 7 9.36818 7 12C7 14.6318 8.89347 17 11.5 17C12.9729 17 14.2181 16.2438 15.0226 15.1112C15.6856 16.2413 16.9132 17 18.3181 17C19.716 17 21.2204 16.2089 21.6495 14.6331C21.8782 13.793 22 12.91 22 12C22 6.47715 17.5228 2 12 2C6.47715 2 2 6.47715 2 12C2 17.5228 6.47715 22 12 22C12.5523 22 13 21.5523 13 21C13 20.4477 12.5523 20 12 20C7.58172 20 4 16.4183 4 12ZM9 12C9 10.2135 10.2405 9 11.5 9C12.7595 9 14 10.2135 14 12C14 13.7865 12.7595 15 11.5 15C10.2405 15 9 13.7865 9 12Z" fill="black"/>
</svg>
