<svg width="24" height="24" viewBox="0 0 24 24" fill="none" xmlns="http://www.w3.org/2000/svg">
<path d="M12 2.75C12.6904 2.75 13.25 3.30964 13.25 4V20C13.25 20.6904 12.6904 21.25 12 21.25C11.3096 21.25 10.75 20.6904 10.75 20V4C10.75 3.30964 11.3096 2.75 12 2.75Z" fill="black"/>
<path d="M16 6.25C16.6904 6.25 17.25 6.80964 17.25 7.5V16.5C17.25 17.1904 16.6904 17.75 16 17.75C15.3096 17.75 14.75 17.1904 14.75 16.5V7.5C14.75 6.80964 15.3096 6.25 16 6.25Z" fill="black"/>
<path d="M21.25 10C21.25 9.30964 20.6904 8.75 20 8.75C19.3096 8.75 18.75 9.30964 18.75 10V14C18.75 14.6904 19.3096 15.25 20 15.25C20.6904 15.25 21.25 14.6904 21.25 14V10Z" fill="black"/>
<path d="M8 6.25C8.69036 6.25 9.25 6.80964 9.25 7.5V16.5C9.25 17.1904 8.69036 17.75 8 17.75C7.30964 17.75 6.75 17.1904 6.75 16.5V7.5C6.75 6.80964 7.30964 6.25 8 6.25Z" fill="black"/>
<path d="M5.25 10C5.25 9.30964 4.69036 8.75 4 8.75C3.30964 8.75 2.75 9.30964 2.75 10V14C2.75 14.6904 3.30964 15.25 4 15.25C4.69036 15.25 5.25 14.6904 5.25 14V10Z" fill="black"/>
</svg>
