<svg width="24" height="24" viewBox="0 0 24 24" fill="none" xmlns="http://www.w3.org/2000/svg">
<path d="M2.2522 4.80783C3.00923 5.58142 3.38669 6.4712 3.5 7C3.74967 6.06374 4.2164 5.34662 4.74442 4.81097C4.76656 4.7885 4.78881 4.76636 4.81116 4.74453C5.58398 3.98968 6.47196 3.61315 7 3.5C6.47196 3.38685 5.58398 3.01032 4.81116 2.25547C4.78881 2.23364 4.76656 2.2115 4.74442 2.18903C4.2164 1.65338 3.74967 0.936263 3.5 0C3.38669 0.528797 3.00924 1.41858 2.25221 2.19218C2.23251 2.2123 2.21256 2.23235 2.19235 2.2523C1.65634 2.78167 0.938197 3.24981 0 3.5C0.938197 3.75019 1.65634 4.21833 2.19235 4.7477C2.21256 4.76765 2.23251 4.7877 2.2522 4.80783Z" fill="black"/>
<path fill-rule="evenodd" clip-rule="evenodd" d="M18.9684 1C18.3748 1 17.8119 1.26365 17.4319 1.71963L16.4312 2.92055C15.8612 3.60453 15.0168 4 14.1265 4H12C11.4477 4 11 4.44772 11 5C11 5.55228 11.4477 6 12 6H14.1265C15.6104 6 17.0176 5.34089 17.9676 4.20092L18.9684 3H20V17H18.9684L17.9676 15.7991C17.0176 14.6591 15.6104 14 14.1265 14H5.41421C4.77392 14 4.15986 13.7456 3.70711 13.2929C3.31658 12.9024 2.68342 12.9024 2.29289 13.2929C1.90237 13.6834 1.90237 14.3166 2.29289 14.7071C3.06781 15.482 4.10117 15.9391 5.19038 15.9943L6.35282 21.4191C6.55042 22.3412 7.36535 23 8.30842 23H11.263C12.5363 23 13.4854 21.826 13.2186 20.5809L12.237 16H14.1265C15.0168 16 15.8612 16.3955 16.4312 17.0794L17.4319 18.2804C17.8119 18.7364 18.3748 19 18.9684 19H20C21.1046 19 22 18.1046 22 17V12C23.1046 12 24 11.1046 24 10C24 8.89543 23.1046 8 22 8V3C22 1.89543 21.1046 1 20 1H18.9684ZM11.263 21L10.1916 16H7.237L8.30842 21H11.263Z" fill="black"/>
<path d="M2.5 12C2.43804 11.7108 2.26551 11.2706 1.94541 10.8321C1.74645 10.5596 1.49049 10.2878 1.16862 10.0533C0.847578 9.81952 0.460976 9.62293 0 9.5C0.460976 9.37707 0.847578 9.18048 1.16862 8.94666C1.49049 8.71224 1.74646 8.44041 1.94541 8.16788C2.26551 7.72942 2.43804 7.28915 2.5 7C2.62346 7.46297 2.82122 7.85092 3.05638 8.17279C3.28891 8.49106 3.55801 8.74471 3.82797 8.94238C4.2678 9.26442 4.70993 9.43784 5 9.5C4.70993 9.56216 4.2678 9.73558 3.82797 10.0576C3.55801 10.2553 3.28891 10.5089 3.05638 10.8272C2.82122 11.1491 2.62346 11.537 2.5 12Z" fill="black"/>
<path d="M7.2522 9.80783C8.00924 10.5814 8.38669 11.4712 8.5 12C8.74967 11.0637 9.2164 10.3466 9.74442 9.81097C9.76656 9.7885 9.78881 9.76636 9.81116 9.74453C10.584 8.98968 11.472 8.61315 12 8.5C11.472 8.38685 10.584 8.01032 9.81116 7.25547C9.78881 7.23364 9.76656 7.2115 9.74442 7.18903C9.2164 6.65338 8.74967 5.93626 8.5 5C8.38669 5.5288 8.00924 6.41858 7.2522 7.19218C7.23251 7.2123 7.21256 7.23235 7.19235 7.25231C6.65634 7.78167 5.9382 8.24981 5 8.5C5.9382 8.75019 6.65634 9.21833 7.19235 9.7477C7.21256 9.76766 7.23251 9.7877 7.2522 9.80783Z" fill="black"/>
</svg>
