<svg width="24" height="24" viewBox="0 0 24 24" fill="none" xmlns="http://www.w3.org/2000/svg">
<g clip-path="url(#clip0_30_22852)">
<path d="M2.52393 5.10893C2.43939 5.00733 2.34889 4.90663 2.2522 4.80783C2.23251 4.78771 2.21256 4.76766 2.19235 4.7477C1.65634 4.21833 0.938197 3.75019 0 3.5C0.938197 3.24982 1.65634 2.78167 2.19235 2.25231C2.21256 2.23235 2.23251 2.2123 2.25221 2.19218C3.00924 1.41858 3.38669 0.5288 3.5 3.93391e-06C3.74967 0.936267 4.2164 1.65338 4.74442 2.18904C4.76656 2.2115 4.78881 2.23364 4.81116 2.25547C5.58398 3.01032 6.47196 3.38685 7 3.5C6.68653 3.56717 6.24622 3.72716 5.77845 4.00402C5.45826 4.19353 5.1252 4.4378 4.81116 4.74454C4.78881 4.76637 4.76656 4.78851 4.74442 4.81097C4.24652 5.31607 3.80312 5.98252 3.54482 6.84191C3.52919 6.8939 3.51424 6.9466 3.5 7C3.49293 6.96702 3.48484 6.93264 3.47569 6.89697C3.35687 6.43372 3.06006 5.75321 2.52393 5.10893Z" fill="black"/>
<path d="M24 10C24 11.1046 23.1046 12 22 12V17C22 18.1046 21.1046 19 20 19H18.9684C18.3748 19 17.8119 18.7364 17.4319 18.2804L15.5316 16H12.237H10.1916H7.23699H6C5.72172 16 5.44787 15.9811 5.17967 15.9444C2.53035 15.5822 0.431734 13.4905 0.0589792 10.8446C0.198352 10.9088 0.322231 10.9833 0.432719 11.0638C0.637625 11.213 0.804002 11.3886 0.935825 11.5692C1.15632 11.8712 1.25389 12.1506 1.27775 12.2619C1.39882 12.8269 1.89139 13.2353 2.46906 13.2496C2.78309 13.2574 3.07776 13.1476 3.30524 12.9561C3.49622 12.7953 3.63984 12.5769 3.70779 12.3221C3.76073 12.1236 3.83307 11.9495 3.91776 11.7964C3.9638 11.7131 4.01349 11.6361 4.0657 11.5646C4.21375 11.362 4.38759 11.1971 4.56642 11.0662C4.86938 10.8444 5.1501 10.7462 5.26191 10.7223C5.5355 10.6636 5.77201 10.5181 5.94498 10.3182C6.06242 10.4066 6.17099 10.4996 6.27136 10.5956L6.35881 10.6821C6.94147 11.2775 7.21117 11.9512 7.27775 12.2619C7.31664 12.4434 7.39385 12.6087 7.4999 12.75C7.72402 13.0486 8.07693 13.2399 8.46906 13.2496C8.88283 13.2599 9.263 13.066 9.50013 12.75C9.59406 12.6248 9.66555 12.4805 9.70779 12.3221C9.89606 11.6161 10.2431 11.0857 10.6346 10.6885C10.6512 10.6717 10.6679 10.6551 10.6846 10.6388C11.2795 10.0577 11.9518 9.78872 12.2619 9.72226C12.8383 9.59876 13.25 9.08943 13.25 8.5C13.25 7.91058 12.8383 7.40125 12.2619 7.27775C12.2294 7.27078 12.1928 7.26157 12.1528 7.25C11.8115 7.15139 11.217 6.88132 10.6846 6.36125C10.6678 6.3449 10.6512 6.32832 10.6346 6.31152C10.5401 6.21564 10.4482 6.112 10.3605 6C10.0848 5.64802 9.85061 5.21351 9.70779 4.67793C9.63344 4.39909 9.46848 4.16386 9.25 4H14.1265C15.0168 4 15.8612 3.60454 16.4312 2.92056L17.4319 1.71964C17.8119 1.26365 18.3748 1 18.9684 1H20C21.1046 1 22 1.89543 22 3V8C23.1046 8 24 8.89543 24 10Z" fill="black"/>
<path d="M1.94541 10.8321C2.03701 10.9576 2.11652 11.0832 2.18482 11.2054C2.32585 11.4577 2.41905 11.6953 2.47206 11.8868C2.48309 11.9266 2.49238 11.9644 2.5 12L2.51137 11.9583C2.63542 11.5137 2.82831 11.1394 3.05638 10.8272C3.28891 10.5089 3.55801 10.2553 3.82797 10.0576C4.2678 9.73559 4.70993 9.56216 5 9.5C4.70993 9.43785 4.2678 9.26442 3.82797 8.94238C3.55801 8.74472 3.28891 8.49106 3.05638 8.17279C2.94449 8.01965 2.84107 7.85154 2.75009 7.66752C2.64985 7.46477 2.56472 7.24269 2.5 7C2.43804 7.28916 2.26551 7.72942 1.94542 8.16788C1.74646 8.44041 1.49049 8.71225 1.16862 8.94666C0.852467 9.17692 0.472737 9.37108 0.0210103 9.49434L0 9.5L0.0200943 9.50542C0.472224 9.62866 0.852254 9.82293 1.16862 10.0533C1.49049 10.2878 1.74645 10.5596 1.94541 10.8321Z" fill="black"/>
<path d="M7.2522 9.80783C8.00924 10.5814 8.38669 11.4712 8.5 12C8.74967 11.0637 9.2164 10.3466 9.74442 9.81097C9.76656 9.78851 9.78881 9.76637 9.81116 9.74454C10.584 8.98969 11.472 8.61315 12 8.5C11.472 8.38685 10.584 8.01032 9.81116 7.25547C9.78881 7.23364 9.76656 7.2115 9.74442 7.18904C9.42286 6.86283 9.12403 6.46932 8.88312 6C8.72843 5.69867 8.59762 5.36609 8.5 5C8.44355 5.26342 8.32156 5.61642 8.11976 6C8.07534 6.08442 8.02707 6.17032 7.97477 6.25707C7.78767 6.56745 7.54913 6.88875 7.2522 7.19218C7.23327 7.21153 7.21409 7.23081 7.19468 7.25L7.19235 7.25231C6.65634 7.78167 5.9382 8.24982 5 8.5C5.9382 8.75019 6.65634 9.21833 7.19235 9.7477C7.21256 9.76766 7.23251 9.78771 7.2522 9.80783Z" fill="black"/>
<path d="M5.45512 17.2298C5.635 17.2432 5.8167 17.25 6 17.25H7.50484H10.4594H12.5048L13.2186 20.5809C13.4854 21.826 12.5363 23 11.263 23H8.30842C7.36534 23 6.55041 22.3412 6.35281 21.4191L5.45512 17.2298Z" fill="black"/>
</g>
<defs>
<clipPath id="clip0_30_22852">
<rect width="24" height="24" fill="white"/>
</clipPath>
</defs>
</svg>
