<svg width="24" height="24" viewBox="0 0 24 24" fill="none" xmlns="http://www.w3.org/2000/svg">
<path d="M16.7071 8.29289C17.0976 8.68342 17.0976 9.31658 16.7071 9.70711L14.4142 12L16.7071 14.2929C17.0976 14.6834 17.0976 15.3166 16.7071 15.7071C16.3166 16.0976 15.6834 16.0976 15.2929 15.7071L13 13.4142L10.7071 15.7071C10.3166 16.0976 9.68342 16.0976 9.29289 15.7071C8.90237 15.3166 8.90237 14.6834 9.29289 14.2929L11.5858 12L9.29289 9.70711C8.90237 9.31658 8.90237 8.68342 9.29289 8.29289C9.68342 7.90237 10.3166 7.90237 10.7071 8.29289L13 10.5858L15.2929 8.29289C15.6834 7.90237 16.3166 7.90237 16.7071 8.29289Z" fill="black"/>
<path fill-rule="evenodd" clip-rule="evenodd" d="M8.02924 4C7.06038 4 6.15117 4.4679 5.58804 5.25629L1.18627 11.4188C0.937911 11.7665 0.937911 12.2335 1.18627 12.5812L5.58804 18.7437C6.15117 19.5321 7.06038 20 8.02924 20H19C20.6569 20 22 18.6569 22 17V7C22 5.34315 20.6569 4 19 4H8.02924ZM7.2155 6.41876C7.40321 6.15597 7.70628 6 8.02924 6H19C19.5523 6 20 6.44772 20 7V17C20 17.5523 19.5523 18 19 18H8.02924C7.70628 18 7.40321 17.844 7.2155 17.5812L3.2289 12L7.2155 6.41876Z" fill="black"/>
</svg>
