<svg width="24" height="24" viewBox="0 0 24 24" fill="none" xmlns="http://www.w3.org/2000/svg">
<path fill-rule="evenodd" clip-rule="evenodd" d="M5.58804 5.25629C6.15117 4.4679 7.06038 4 8.02924 4H19C20.6569 4 22 5.34315 22 7V17C22 18.6569 20.6569 20 19 20H8.02924C7.06038 20 6.15117 19.5321 5.58804 18.7437L1.18627 12.5812C0.937911 12.2335 0.937911 11.7665 1.18627 11.4188L5.58804 5.25629ZM16.7071 9.70711C17.0976 9.31658 17.0976 8.68342 16.7071 8.29289C16.3166 7.90237 15.6834 7.90237 15.2929 8.29289L13 10.5858L10.7071 8.29289C10.3166 7.90237 9.68342 7.90237 9.29289 8.29289C8.90237 8.68342 8.90237 9.31658 9.29289 9.70711L11.5858 12L9.29289 14.2929C8.90237 14.6834 8.90237 15.3166 9.29289 15.7071C9.68342 16.0976 10.3166 16.0976 10.7071 15.7071L13 13.4142L15.2929 15.7071C15.6834 16.0976 16.3166 16.0976 16.7071 15.7071C17.0976 15.3166 17.0976 14.6834 16.7071 14.2929L14.4142 12L16.7071 9.70711Z" fill="black"/>
</svg>
