<svg width="24" height="24" viewBox="0 0 24 24" fill="none" xmlns="http://www.w3.org/2000/svg">
<path d="M12 9C12.5523 9 13 9.44772 13 10C13 10.5523 12.5523 11.0001 12 11.0001C11.4477 11.0001 11 10.5524 11 10.0001C11 9.44782 11.4477 9 12 9Z" fill="black"/>
<path d="M13 14C13 13.4477 12.5523 13 12 13C11.4477 13 11 13.4478 11 14.0001C11 14.5524 11.4477 15.0001 12 15.0001C12.5523 15.0001 13 14.5523 13 14Z" fill="black"/>
<path d="M14 11C14.5523 11 15 11.4477 15 12C15 12.5523 14.5523 13.0001 14 13.0001C13.4477 13.0001 13 12.5524 13 12.0001C13 11.4478 13.4477 11 14 11Z" fill="black"/>
<path d="M11 12C11 11.4477 10.5523 11 10 11C9.44772 11 9 11.4478 9 12.0001C9 12.5524 9.44772 13.0001 10 13.0001C10.5523 13.0001 11 12.5523 11 12Z" fill="black"/>
<path fill-rule="evenodd" clip-rule="evenodd" d="M6 17C6 20.3137 8.68629 23 12 23C15.3137 23 18 20.3137 18 17V7C18 3.68629 15.3137 1 12 1C8.68629 1 6 3.68629 6 7V17ZM15.874 6C15.4299 4.27477 13.8638 3 12 3C10.1362 3 8.57006 4.27477 8.12602 6H15.874ZM8 8L8 16H16V8H8ZM8.12602 18C8.57006 19.7252 10.1362 21 12 21C13.8638 21 15.4299 19.7252 15.874 18H8.12602Z" fill="black"/>
</svg>
