<svg width="24" height="24" viewBox="0 0 24 24" fill="none" xmlns="http://www.w3.org/2000/svg">
<path fill-rule="evenodd" clip-rule="evenodd" d="M12.4857 1.12584C12.1837 0.958052 11.8165 0.958052 11.5144 1.12584L2.51445 6.12584C2.11612 6.34714 1.91776 6.80974 2.03206 7.25084C2.14637 7.69195 2.54442 8 3.00009 8H21.0001C21.4558 8 21.8538 7.69195 21.9681 7.25084C22.0824 6.80974 21.8841 6.34714 21.4857 6.12584L12.4857 1.12584ZM12.0001 3.14396L17.141 6H12.0143C12.56 5.99235 13 5.54751 13 5C13 4.44772 12.5523 4 12 4C11.4477 4 11 4.44782 11 5.0001C11 5.54761 11.44 5.99235 11.9857 6H6.85922L12.0001 3.14396Z" fill="black"/>
<path d="M4 20C3.44772 20 3 20.4477 3 21C3 21.5523 3.44772 22 4 22H20C20.5523 22 21 21.5523 21 21C21 20.4477 20.5523 20 20 20H4Z" fill="black"/>
<path d="M6 9C6.55228 9 7 9.44771 7 10V18C7 18.5523 6.55228 19 6 19C5.44772 19 5 18.5523 5 18V10C5 9.44771 5.44772 9 6 9Z" fill="black"/>
<path d="M19 10C19 9.44771 18.5523 9 18 9C17.4477 9 17 9.44771 17 10V18C17 18.5523 17.4477 19 18 19C18.5523 19 19 18.5523 19 18V10Z" fill="black"/>
<path d="M12 9C12.5523 9 13 9.44771 13 10V18C13 18.5523 12.5523 19 12 19C11.4477 19 11 18.5523 11 18V10C11 9.44771 11.4477 9 12 9Z" fill="black"/>
</svg>
