<svg width="24" height="24" viewBox="0 0 24 24" fill="none" xmlns="http://www.w3.org/2000/svg">
<g clip-path="url(#clip0_30_22734)">
<path fill-rule="evenodd" clip-rule="evenodd" d="M3 0C2.44772 0 2 0.447715 2 1V6.38997C0.767702 7.1011 0 8.41929 0 9.8541V10V12V19C0 20.6569 1.34315 22 3 22H8C9.65685 22 11 20.6569 11 19V9.8541C11 8.41929 10.2323 7.1011 9 6.38997V1C9 0.447715 8.55228 0 8 0H3ZM9 10H2V11V12V13V14V15V16H9V15V14V13V12V11V10ZM4 3H7V5H4V3Z" fill="black"/>
<path d="M13 8C12.7203 8 12.4535 8.1171 12.2641 8.32289C12.0748 8.52868 11.9802 8.80436 12.0035 9.08305L12.8506 19.2491C12.9802 20.804 14.28 22 15.8403 22H20.1597C21.72 22 23.0198 20.804 23.1494 19.2491L23.9965 9.08305C24.0198 8.80436 23.9252 8.52868 23.7359 8.32289C23.5465 8.1171 23.2797 8 23 8H13Z" fill="black"/>
</g>
<defs>
<clipPath id="clip0_30_22734">
<rect width="24" height="24" fill="white"/>
</clipPath>
</defs>
</svg>
