<svg width="24" height="24" viewBox="0 0 24 24" fill="none" xmlns="http://www.w3.org/2000/svg">
<g clip-path="url(#clip0_30_23032)">
<path fill-rule="evenodd" clip-rule="evenodd" d="M2 1C2 0.447715 2.44772 0 3 0H8C8.55228 0 9 0.447715 9 1V6.38997C10.2323 7.1011 11 8.41929 11 9.8541V19C11 20.6569 9.65685 22 8 22H3C1.34315 22 0 20.6569 0 19V9.8541C0 8.41929 0.767702 7.1011 2 6.38997V1ZM7.89443 8.06525C8.572 8.40403 9 9.09656 9 9.8541V10H2V9.8541C2 9.09656 2.428 8.40403 3.10557 8.06525L3.44721 7.89443C3.786 7.72504 4 7.37877 4 7V5H7V7C7 7.37877 7.214 7.72504 7.55279 7.89443L7.89443 8.06525ZM3 20C2.44772 20 2 19.5523 2 19V16H9V19C9 19.5523 8.55228 20 8 20H3ZM7 3H4V2H7V3Z" fill="black"/>
<path fill-rule="evenodd" clip-rule="evenodd" d="M13 8C12.7204 8 12.4535 8.1171 12.2641 8.32289C12.0748 8.52868 11.9802 8.80436 12.0035 9.08305L12.8506 19.2491C12.9802 20.804 14.28 22 15.8403 22H20.1597C21.72 22 23.0198 20.804 23.1494 19.2491L23.9965 9.08305C24.0198 8.80436 23.9252 8.52868 23.7359 8.32289C23.5465 8.1171 23.2797 8 23 8H13ZM14.8437 19.083L14.0868 10H21.9132L21.1563 19.083C21.1131 19.6013 20.6798 20 20.1597 20H15.8403C15.3202 20 14.8869 19.6013 14.8437 19.083Z" fill="black"/>
</g>
<defs>
<clipPath id="clip0_30_23032">
<rect width="24" height="24" fill="white"/>
</clipPath>
</defs>
</svg>
