<svg width="24" height="24" viewBox="0 0 24 24" fill="none" xmlns="http://www.w3.org/2000/svg">
<path fill-rule="evenodd" clip-rule="evenodd" d="M5 5C2.79086 5 1 6.79086 1 9V15C1 17.2091 2.79086 19 5 19H16C18.2091 19 20 17.2091 20 15V9C20 6.79086 18.2091 5 16 5H5ZM6 8C6.55228 8 7 8.44772 7 9V15C7 15.5523 6.55228 16 6 16C5.44772 16 5 15.5523 5 15V9C5 8.44772 5.44772 8 6 8ZM10 9C10 8.44772 9.55229 8 9 8C8.44772 8 8 8.44772 8 9V15C8 15.5523 8.44772 16 9 16C9.55229 16 10 15.5523 10 15V9Z" fill="black"/>
<path d="M23 10C23 9.44772 22.5523 9 22 9C21.4477 9 21 9.44772 21 10V14C21 14.5523 21.4477 15 22 15C22.5523 15 23 14.5523 23 14V10Z" fill="black"/>
</svg>
