<svg width="24" height="24" viewBox="0 0 24 24" fill="none" xmlns="http://www.w3.org/2000/svg">
<path fill-rule="evenodd" clip-rule="evenodd" d="M0.75 9C0.75 6.65279 2.65279 4.75 5 4.75H16C18.3472 4.75 20.25 6.65279 20.25 9V15C20.25 17.3472 18.3472 19.25 16 19.25H5C2.65279 19.25 0.75 17.3472 0.75 15V9ZM5 7.25C4.0335 7.25 3.25 8.0335 3.25 9V15C3.25 15.9665 4.0335 16.75 5 16.75H16C16.9665 16.75 17.75 15.9665 17.75 15V9C17.75 8.0335 16.9665 7.25 16 7.25H5Z" fill="black"/>
<path d="M22 8.75C22.6904 8.75 23.25 9.30964 23.25 10V14C23.25 14.6904 22.6904 15.25 22 15.25C21.3096 15.25 20.75 14.6904 20.75 14V10C20.75 9.30964 21.3096 8.75 22 8.75Z" fill="black"/>
</svg>
