<svg width="24" height="24" viewBox="0 0 24 24" fill="none" xmlns="http://www.w3.org/2000/svg">
<path d="M7 9C7 8.44772 6.55228 8 6 8C5.44772 8 5 8.44772 5 9V15C5 15.5523 5.44772 16 6 16C6.55228 16 7 15.5523 7 15V9Z" fill="black"/>
<path d="M9 8C9.55229 8 10 8.44772 10 9V15C10 15.5523 9.55229 16 9 16C8.44772 16 8 15.5523 8 15V9C8 8.44772 8.44772 8 9 8Z" fill="black"/>
<path fill-rule="evenodd" clip-rule="evenodd" d="M5 5C2.79086 5 1 6.79086 1 9V15C1 17.2091 2.79086 19 5 19H16C18.2091 19 20 17.2091 20 15V9C20 6.79086 18.2091 5 16 5H5ZM3 9C3 7.89543 3.89543 7 5 7H16C17.1046 7 18 7.89543 18 9V15C18 16.1046 17.1046 17 16 17H5C3.89543 17 3 16.1046 3 15V9Z" fill="black"/>
<path d="M23 10C23 9.44772 22.5523 9 22 9C21.4477 9 21 9.44772 21 10V14C21 14.5523 21.4477 15 22 15C22.5523 15 23 14.5523 23 14V10Z" fill="black"/>
</svg>
