<svg width="24" height="24" viewBox="0 0 24 24" fill="none" xmlns="http://www.w3.org/2000/svg">
<path fill-rule="evenodd" clip-rule="evenodd" d="M7.78912 5.4035C8.32952 5.39346 8.86916 5.44887 9.39625 5.5685C9.84003 5.66539 10.2614 5.84569 10.6379 6.09981C10.9856 6.3525 11.2608 6.69223 11.4357 7.08488C11.6367 7.5677 11.7337 8.08749 11.7203 8.61033C11.7431 9.18441 11.5965 9.75252 11.2987 10.2439C10.9854 10.7079 10.5524 11.0785 10.0455 11.3164C10.7334 11.5018 11.3325 11.9266 11.7352 12.5143C12.1217 13.137 12.316 13.8599 12.2937 14.5925C12.3064 15.1766 12.1857 15.7559 11.9406 16.2863C11.714 16.7489 11.3823 17.1521 10.972 17.4635C10.5496 17.7716 10.0742 17.9995 9.5695 18.1359C9.04611 18.2807 8.50542 18.3534 7.96237 18.3521H2V5.4035H7.78912ZM7.44509 10.6407C7.86969 10.6582 8.28766 10.5311 8.63063 10.2802C8.79489 10.1339 8.92266 9.95131 9.00374 9.74689C9.08482 9.54247 9.11696 9.32192 9.09759 9.10286C9.10858 8.84701 9.05764 8.59229 8.94909 8.36035C8.85701 8.17568 8.71383 8.02133 8.53658 7.91566C8.35705 7.79935 8.15535 7.72153 7.94422 7.68714C7.71514 7.64276 7.48203 7.62257 7.24874 7.62691H4.70109V10.6522H7.44509V10.6407ZM7.59359 16.1534C7.85037 16.1569 8.10662 16.1292 8.35673 16.0709C8.58529 16.0204 8.80205 15.9266 8.99529 15.7945C9.1846 15.6625 9.33754 15.4849 9.43997 15.2781C9.55874 15.0144 9.61331 14.7263 9.5992 14.4374C9.62495 14.1741 9.59008 13.9085 9.49727 13.6608C9.40446 13.4131 9.25617 13.19 9.06377 13.0085C8.65596 12.7081 8.1562 12.5593 7.65052 12.5877H4.70109V16.1534H7.59359Z" fill="black"/>
<path fill-rule="evenodd" clip-rule="evenodd" d="M16.1407 16.1056C16.3527 16.3021 16.6025 16.4534 16.8748 16.5504C17.1471 16.6474 17.4363 16.6881 17.7248 16.6699C18.1821 16.6814 18.6306 16.5423 19.0011 16.2739C19.3025 16.0779 19.5307 15.7879 19.6503 15.4489H21.8045C21.5749 16.414 21.0145 17.2682 20.2204 17.8629C19.4587 18.3684 18.5585 18.6245 17.6447 18.5955C16.9926 18.604 16.3453 18.4814 15.7414 18.2349C15.1952 18.0071 14.7053 17.6628 14.3059 17.2259C13.9081 16.7682 13.6024 16.2379 13.4058 15.6642C13.1851 15.0229 13.0771 14.3483 13.0865 13.6701C13.0825 13.0034 13.1942 12.341 13.4165 11.7124C13.7153 10.8281 14.2865 10.0611 15.0482 9.52158C15.8099 8.98206 16.7229 8.69771 17.6563 8.70933C18.3454 8.69492 19.0268 8.85619 19.6363 9.17793C20.1873 9.48005 20.6626 9.90317 21.0265 10.4155C21.3987 10.953 21.6655 11.5563 21.8127 12.1934C21.9741 12.8774 22.0317 13.5819 21.9835 14.2831H15.5674C15.5154 14.9419 15.7209 15.5952 16.1407 16.1056ZM18.9557 11.1811C18.7761 11.0015 18.5602 10.8625 18.3224 10.7734C18.0846 10.6843 17.8304 10.6472 17.5771 10.6646C17.241 10.6518 16.9073 10.7263 16.6085 10.8808C16.3717 11.0112 16.1626 11.1866 15.9931 11.3972C15.8428 11.5947 15.7309 11.8186 15.6631 12.0572C15.6019 12.2563 15.5637 12.4617 15.5492 12.6694H19.5233C19.4887 12.1279 19.2914 11.6095 18.9573 11.1819L18.9557 11.1811Z" fill="black"/>
<path d="M15.0369 6.26809H20.0166V7.54109H15.0369V6.26809Z" fill="black"/>
</svg>
