<svg width="24" height="24" viewBox="0 0 24 24" fill="none" xmlns="http://www.w3.org/2000/svg">
<path fill-rule="evenodd" clip-rule="evenodd" d="M14 0C14.5523 0 15 0.447715 15 1C15 1.55228 14.5523 2 14 2H19C19.5523 2 20 2.44772 20 3C20 3.55228 19.5523 4 19 4H18.926L18.0149 15.8447L19.3799 19.2572C19.9054 20.5709 18.9379 22 17.523 22H7.47703C6.0621 22 5.09459 20.5709 5.62008 19.2572L6.9851 15.8447L6.76539 12.9884C5.23586 12.877 3.86636 11.9688 3.17356 10.5832C2.40179 9.03966 2 7.33763 2 5.6119V3C2 2.44772 2.44772 2 3 2H11C10.4477 2 10 1.55228 10 1C10 0.447715 10.4477 0 11 0H14ZM8.67703 17L7.47703 20H17.523L16.323 17H8.67703ZM6.60874 10.952L6.07397 4H4V5.6119C4 7.02714 4.3295 8.42294 4.96242 9.68876C5.29196 10.3478 5.9037 10.8078 6.60874 10.952ZM13.5 7C13.5 7.55228 13.9477 8 14.5 8H16.6124L16.7663 6H14.5C13.9477 6 13.5 6.44772 13.5 7ZM16.5355 9.00062C16.5237 9.00021 16.5119 9 16.5 9H14.5C13.9477 9 13.5 9.44772 13.5 10C13.5 10.5523 13.9477 11 14.5 11H16.3817L16.5355 9.00062ZM13.5 13C13.5 13.5523 13.9477 14 14.5 14H16.1509L16.3047 12H14.5C13.9477 12 13.5 12.4477 13.5 13Z" fill="black"/>
</svg>
