<svg width="24" height="24" viewBox="0 0 24 24" fill="none" xmlns="http://www.w3.org/2000/svg">
<path fill-rule="evenodd" clip-rule="evenodd" d="M12 1.75C6.33908 1.75 1.75 6.33908 1.75 12C1.75 17.6609 6.33908 22.25 12 22.25C17.6609 22.25 22.25 17.6609 22.25 12C22.25 6.33908 17.6609 1.75 12 1.75ZM4.25 12C4.25 7.71979 7.71979 4.25 12 4.25C13.6885 4.25 15.2508 4.78997 16.5238 5.70664L5.70664 16.5238C4.78997 15.2508 4.25 13.6885 4.25 12ZM7.47412 18.2919C8.74748 19.2095 10.3106 19.75 12 19.75C16.2802 19.75 19.75 16.2802 19.75 12C19.75 10.3106 19.2095 8.74748 18.2919 7.47412L7.47412 18.2919Z" fill="black"/>
</svg>
