<svg width="24" height="24" viewBox="0 0 24 24" fill="none" xmlns="http://www.w3.org/2000/svg">
<path fill-rule="evenodd" clip-rule="evenodd" d="M11.4962 2.13176C11.1867 1.9549 10.8064 1.95617 10.4981 2.13509C10.1898 2.31401 10 2.64353 10 3V9.03163L6.64021 6.23178C6.21593 5.87821 5.58537 5.93554 5.2318 6.35982C4.87824 6.78409 4.93556 7.41466 5.35984 7.76822L10 11.635V12.365L5.35984 16.2318C4.93556 16.5853 4.87824 17.2159 5.2318 17.6402C5.58537 18.0645 6.21593 18.1218 6.64021 17.7682L10 14.9684V21C10 21.3565 10.1898 21.686 10.4981 21.8649C10.8064 22.0438 11.1867 22.0451 11.4962 21.8682L18.4962 17.8682C18.7806 17.7057 18.9674 17.4141 18.9962 17.0877C19.0249 16.7613 18.8919 16.4415 18.6402 16.2318L13.5621 12L18.6402 7.76822C18.8919 7.55846 19.0249 7.23871 18.9962 6.91232C18.9674 6.58593 18.7806 6.29432 18.4962 6.13176L11.4962 2.13176ZM16.2535 16.8463L12 19.2768V13.3017L16.2535 16.8463ZM16.2535 7.15373L12 10.6983V4.72318L16.2535 7.15373Z" fill="black"/>
</svg>
