<svg width="24" height="24" viewBox="0 0 24 24" fill="none" xmlns="http://www.w3.org/2000/svg">
<path fill-rule="evenodd" clip-rule="evenodd" d="M11.6202 1.9147C11.2333 1.69362 10.758 1.69521 10.3726 1.91886C9.98723 2.14251 9.75003 2.55441 9.75003 3V8.49786L6.80026 6.03972C6.26992 5.59777 5.48171 5.66942 5.03975 6.19977C4.5978 6.73012 4.66945 7.51832 5.1998 7.96028L9.75003 11.7521V12.2479L5.1998 16.0397C4.66945 16.4817 4.5978 17.2699 5.03975 17.8002C5.48171 18.3306 6.26992 18.4022 6.80026 17.9603L9.75003 15.5021V21C9.75003 21.4456 9.98723 21.8575 10.3726 22.0811C10.758 22.3048 11.2333 22.3064 11.6202 22.0853L18.6202 18.0853C18.9758 17.8821 19.2093 17.5176 19.2452 17.1096C19.2811 16.7016 19.1149 16.3019 18.8003 16.0397L13.9526 12L18.8003 7.96028C19.1149 7.69808 19.2811 7.29838 19.2452 6.8904C19.2093 6.48241 18.9758 6.1179 18.6202 5.9147L11.6202 1.9147ZM15.8169 16.8078L12.25 13.8355V18.846L15.8169 16.8078ZM15.8169 7.19217L12.25 5.15397V10.1645L15.8169 7.19217Z" fill="black"/>
</svg>
