<svg width="24" height="24" viewBox="0 0 24 24" fill="none" xmlns="http://www.w3.org/2000/svg">
<path fill-rule="evenodd" clip-rule="evenodd" d="M8 3.75C7.30964 3.75 6.75 4.30964 6.75 5V19C6.75 19.6904 7.30964 20.25 8 20.25H13.5C16.1234 20.25 18.25 18.1234 18.25 15.5C18.25 13.8539 17.4127 12.4033 16.1407 11.5511C16.8331 10.7258 17.25 9.66157 17.25 8.5C17.25 5.87665 15.1234 3.75 12.5 3.75H8ZM12.5 10.75C13.7426 10.75 14.75 9.74264 14.75 8.5C14.75 7.25736 13.7426 6.25 12.5 6.25H9.25V10.75H12.5ZM15.75 15.5C15.75 14.2574 14.7426 13.25 13.5 13.25H9.25V17.75H13.5C14.7426 17.75 15.75 16.7426 15.75 15.5Z" fill="black"/>
</svg>
