<svg width="24" height="24" viewBox="0 0 24 24" fill="none" xmlns="http://www.w3.org/2000/svg">
<path fill-rule="evenodd" clip-rule="evenodd" d="M3 2C1.34315 2 0 3.34379 0 5.00144V17.0072C0 18.6648 1.34315 20.0086 3 20.0086H6.67453C7.99343 20.0086 9.30943 20.7774 10.4068 21.5093C11.3877 22.1636 12.6655 22.1636 13.6464 21.5093C14.7438 20.7774 16.0066 20.0086 17.3255 20.0086H21C22.6569 20.0086 24 18.6648 24 17.0072V5.00144C24 3.34379 22.6569 2 21 2H17.313C15.6074 2 13.9399 2.5051 12.5208 3.45164L12.482 3.47754C12.196 3.6683 11.8227 3.66569 11.5394 3.47094C10.1456 2.51287 8.49434 2 6.8033 2H3ZM16 6.00191C15.4477 6.00191 15 6.44984 15 7.00239C15 7.55494 15.4477 8.00287 16 8.00287H18C18.5523 8.00287 19 7.55494 19 7.00239C19 6.44984 18.5523 6.00191 18 6.00191H16ZM16 10.0038C15.4477 10.0038 15 10.4518 15 11.0043C15 11.5569 15.4477 12.0048 16 12.0048H19C19.5523 12.0048 20 11.5569 20 11.0043C20 10.4518 19.5523 10.0038 19 10.0038H16ZM16 14.0057C15.4477 14.0057 15 14.4537 15 15.0062C15 15.5588 15.4477 16.0067 16 16.0067H19C19.5523 16.0067 20 15.5588 20 15.0062C20 14.4537 19.5523 14.0057 19 14.0057H16ZM8 6.00191C8.55229 6.00191 9 6.44984 9 7.00239C9 7.55494 8.55229 8.00287 8 8.00287H6C5.44772 8.00287 5 7.55494 5 7.00239C5 6.44984 5.44772 6.00191 6 6.00191H8ZM8 10.0038C8.55229 10.0038 9 10.4518 9 11.0043C9 11.5569 8.55229 12.0048 8 12.0048H5C4.44772 12.0048 4 11.5569 4 11.0043C4 10.4518 4.44772 10.0038 5 10.0038H8ZM8 14.0057C8.55229 14.0057 9 14.4537 9 15.0062C9 15.5588 8.55229 16.0067 8 16.0067H5C4.44772 16.0067 4 15.5588 4 15.0062C4 14.4537 4.44772 14.0057 5 14.0057H8Z" fill="black"/>
</svg>
