<svg width="24" height="24" viewBox="0 0 24 24" fill="none" xmlns="http://www.w3.org/2000/svg">
<path fill-rule="evenodd" clip-rule="evenodd" d="M4 5C4 3.34315 5.34315 2 7 2H17C18.6569 2 20 3.34315 20 5V17H18V5C18 4.44772 17.5523 4 17 4H7C6.44772 4 6 4.44772 6 5V19H4V5Z" fill="black"/>
<path fill-rule="evenodd" clip-rule="evenodd" d="M4 19C4 20.6569 5.34315 22 7 22H19C19.3466 22 19.6684 21.8205 19.8507 21.5257C20.0329 21.2309 20.0494 20.8628 19.8944 20.5528L19.7889 20.3416C19.3666 19.4971 19.3666 18.5029 19.7889 17.6584L19.8944 17.4472C20.0494 17.1372 20.0329 16.7691 19.8507 16.4743C19.6684 16.1795 19.3466 16 19 16H7C5.34315 16 4 17.3431 4 19ZM7 20C6.44772 20 6 19.5523 6 19C6 18.4477 6.44772 18 7 18H17.5731C17.4385 18.6597 17.4385 19.3403 17.5731 20H7Z" fill="black"/>
<path fill-rule="evenodd" clip-rule="evenodd" d="M8 8C8 7.44772 8.44772 7 9 7H15C15.5523 7 16 7.44772 16 8C16 8.55228 15.5523 9 15 9H9C8.44772 9 8 8.55228 8 8Z" fill="black"/>
<path fill-rule="evenodd" clip-rule="evenodd" d="M8 12C8 11.4477 8.44772 11 9 11H13C13.5523 11 14 11.4477 14 12C14 12.5523 13.5523 13 13 13H9C8.44772 13 8 12.5523 8 12Z" fill="black"/>
</svg>
