<svg width="24" height="24" viewBox="0 0 24 24" fill="none" xmlns="http://www.w3.org/2000/svg">
<path d="M9 7.00239C9 6.44984 8.55229 6.00191 8 6.00191H6C5.44772 6.00191 5 6.44984 5 7.00239C5 7.55494 5.44772 8.00287 6 8.00287H8C8.55229 8.00287 9 7.55494 9 7.00239Z" fill="black"/>
<path d="M9 11.0043C9 10.4518 8.55229 10.0038 8 10.0038H5C4.44772 10.0038 4 10.4518 4 11.0043C4 11.5569 4.44772 12.0048 5 12.0048H8C8.55229 12.0048 9 11.5569 9 11.0043Z" fill="black"/>
<path d="M9 15.0062C9 14.4537 8.55229 14.0057 8 14.0057H5C4.44772 14.0057 4 14.4537 4 15.0062C4 15.5588 4.44772 16.0067 5 16.0067H8C8.55229 16.0067 9 15.5588 9 15.0062Z" fill="black"/>
<path d="M16 6.00191C15.4477 6.00191 15 6.44984 15 7.00239C15 7.55494 15.4477 8.00287 16 8.00287H18C18.5523 8.00287 19 7.55494 19 7.00239C19 6.44984 18.5523 6.00191 18 6.00191H16Z" fill="black"/>
<path d="M16 10.0038C15.4477 10.0038 15 10.4518 15 11.0043C15 11.5569 15.4477 12.0048 16 12.0048H19C19.5523 12.0048 20 11.5569 20 11.0043C20 10.4518 19.5523 10.0038 19 10.0038H16Z" fill="black"/>
<path d="M16 14.0057C15.4477 14.0057 15 14.4537 15 15.0062C15 15.5588 15.4477 16.0067 16 16.0067H19C19.5523 16.0067 20 15.5588 20 15.0062C20 14.4537 19.5523 14.0057 19 14.0057H16Z" fill="black"/>
<path fill-rule="evenodd" clip-rule="evenodd" d="M3 2C1.34315 2 0 3.34379 0 5.00144V17.0072C0 18.6648 1.34315 20.0086 3 20.0086H6.67453C7.99343 20.0086 9.30943 20.7774 10.4068 21.5093C11.3877 22.1636 12.6655 22.1636 13.6464 21.5093C14.7438 20.7774 16.0066 20.0086 17.3255 20.0086H21C22.6569 20.0086 24 18.6648 24 17.0072V5.00144C24 3.34379 22.6569 2 21 2H17.313C15.6074 2 13.9399 2.5051 12.5208 3.45164L12.482 3.47754C12.196 3.6683 11.8227 3.66569 11.5394 3.47094C10.1456 2.51287 8.49434 2 6.8033 2H3ZM2 5.00144C2 4.44889 2.44772 4.00096 3 4.00096H6.8033C8.08994 4.00096 9.34636 4.39118 10.4068 5.12014C10.5914 5.24704 10.7873 5.34979 10.9902 5.42836V19.157C9.67946 18.4056 8.19203 18.0077 6.67453 18.0077H3C2.44772 18.0077 2 17.5597 2 17.0072V5.00144ZM12.9902 19.1683C14.3058 18.4096 15.8004 18.0077 17.3255 18.0077H21C21.5523 18.0077 22 17.5597 22 17.0072V5.00144C22 4.44889 21.5523 4.00096 21 4.00096H17.313C16.0022 4.00096 14.7208 4.38912 13.6302 5.11654L13.5914 5.14244C13.4009 5.26947 13.199 5.37112 12.9902 5.44742V19.1683Z" fill="black"/>
</svg>
