<svg width="24" height="24" viewBox="0 0 24 24" fill="none" xmlns="http://www.w3.org/2000/svg">
<path d="M16.4955 11C15.9432 11 15.4955 11.4477 15.4955 12C15.4955 12.5523 15.9432 13 16.4955 13H16.5045C17.0568 13 17.5045 12.5523 17.5045 12C17.5045 11.4477 17.0568 11 16.5045 11H16.4955Z" fill="black"/>
<path d="M15 13C14.4477 13 14 13.4477 14 14C14 14.5523 14.4477 15 15 15H15.009C15.5612 15 16.009 14.5523 16.009 14C16.009 13.4477 15.5612 13 15.009 13H15Z" fill="black"/>
<path d="M17.991 13C17.4388 13 16.991 13.4477 16.991 14C16.991 14.5523 17.4388 15 17.991 15H18C18.5523 15 19 14.5523 19 14C19 13.4477 18.5523 13 18 13H17.991Z" fill="black"/>
<path fill-rule="evenodd" clip-rule="evenodd" d="M4.46247 3.65462C4.06118 1.72097 5.59739 0 7.52695 0C9.45652 0 10.9927 1.72097 10.5914 3.65462L10.1537 5.76381C9.8246 7.34966 10.0437 8.43161 10.5431 9.60168C11.7531 8.60192 13.3065 8 14.9996 8C18.8656 8 21.9996 11.134 21.9996 15C21.9996 18.866 18.8656 22 14.9996 22C13.8634 22 12.7884 21.7286 11.8379 21.2468C11.8095 21.2713 11.7804 21.2957 11.7507 21.3201C10.9181 22.0026 10.1019 22.0014 9.231 22.0001L5.93316 22L5.81404 22.0001C4.941 22.0015 4.12332 22.0028 3.2968 21.3388C2.94463 21.0558 2.67998 20.7613 2.49559 20.3872C2.33864 20.0687 2.26496 19.7332 2.20633 19.4661L2.19628 19.4204C1.68938 17.1236 2.23182 14.3079 3.05278 12.5724C3.30264 12.0442 3.54378 11.5717 3.76693 11.1344C4.7351 9.2372 5.3649 8.00307 4.90019 5.76382L4.46247 3.65462ZM7.52695 2C6.7725 2 6.29566 2.64547 6.42075 3.24822L6.85847 5.35742C6.98012 5.94363 7.03966 6.48829 7.04908 7H8.00462C8.01416 6.48831 8.07378 5.94365 8.19544 5.35742L8.63316 3.24822C8.75825 2.64546 8.28141 2 7.52695 2ZM9.57848 12.2086C9.04522 11.1775 8.52032 10.1626 8.23135 9H6.82165C6.5324 10.1617 6.00755 11.1759 5.47457 12.2057C5.26669 12.6074 5.05757 13.0115 4.86071 13.4276C4.18986 14.8458 3.7561 17.2078 4.14929 18.9894C4.22326 19.3246 4.2512 19.4252 4.28954 19.503C4.30952 19.5436 4.35283 19.6217 4.54939 19.7796C4.68865 19.8915 4.79087 19.9334 4.94241 19.9601C5.14934 19.9967 5.41546 20 5.93316 20H9.11754C9.63096 20 9.89009 19.9964 10.0916 19.9596C10.2364 19.9332 10.3385 19.8916 10.4827 19.7734C10.6848 19.6077 10.7265 19.5287 10.7438 19.4924C10.7785 19.4202 10.8032 19.3269 10.8696 18.9951C11.0523 18.0816 11.0314 16.9895 10.8788 15.9448C10.7258 14.8978 10.4528 13.9818 10.1906 13.4276C9.99423 13.0124 9.78572 12.6093 9.57848 12.2086ZM11.9986 12.5724C11.8117 12.1773 11.6297 11.8134 11.4565 11.472C12.363 10.5616 13.6151 10 14.9996 10C17.761 10 19.9996 12.2386 19.9996 15C19.9996 17.7614 17.761 20 14.9996 20C14.2125 20 13.4698 19.8188 12.809 19.4961L12.8307 19.3874C13.0725 18.179 13.0312 16.8426 12.8577 15.6556C12.6846 14.4711 12.3675 13.3524 11.9986 12.5724Z" fill="black"/>
</svg>
