<svg width="24" height="24" viewBox="0 0 24 24" fill="none" xmlns="http://www.w3.org/2000/svg">
<path d="M6.50599 11.3662C6.02894 11.088 5.41662 11.2491 5.13834 11.7262C4.86006 12.2032 5.02119 12.8155 5.49824 13.0938L8.49908 14.8443C8.97613 15.1226 9.58845 14.9614 9.86673 14.4844C10.145 14.0073 9.98387 13.395 9.50682 13.1167L6.50599 11.3662Z" fill="black"/>
<path fill-rule="evenodd" clip-rule="evenodd" d="M2.55449 6.65496L2.52786 6.7082C2.18073 7.40248 2 8.16805 2 8.94427V15.4337C2 16.7018 2.50376 17.918 3.40045 18.8147C3.7295 19.1437 4.10483 19.423 4.51456 19.6436L9.63797 22.4024C10.3665 22.7946 11.181 23 12.0085 23H12.0557C12.832 23 13.5975 22.8193 14.2918 22.4721L19.6938 19.7711C20.3432 19.4465 20.8966 18.9579 21.2993 18.3538C21.7562 17.6685 22 16.8633 22 16.0396V8.94427C22 8.16805 21.8193 7.40248 21.4721 6.7082L21.436 6.63603C20.9946 5.75312 20.3017 5.02063 19.4446 4.53088L14.3644 1.6279C13.6443 1.21643 12.8293 1 12 1C11.1707 1 10.3557 1.21643 9.63562 1.6279L4.55539 4.53088C3.78419 4.97157 3.1459 5.60878 2.70412 6.37529C2.68086 6.40595 2.65912 6.43827 2.63908 6.47222C2.60419 6.53131 2.57607 6.59252 2.55449 6.65496ZM10.6279 3.36438C11.0458 3.1256 11.5187 3 12 3C12.4813 3 12.9542 3.1256 13.3721 3.36438L14.2906 3.88923L7.47013 8.15201L7.46063 8.15803L4.97627 6.69101C5.14837 6.52847 5.33999 6.38604 5.54767 6.26737L10.6279 3.36438ZM4.03928 8.46038L11.0003 12.5709L11.0019 20.8261C10.8593 20.7753 10.7203 20.7136 10.5862 20.6414L5.46276 17.8827C5.22441 17.7543 5.00608 17.5919 4.81466 17.4005C4.29304 16.8788 4 16.1714 4 15.4337V8.94427C4 8.78168 4.01322 8.61986 4.03928 8.46038ZM13.0019 20.8469C13.1371 20.802 13.2692 20.7473 13.3974 20.6833L18.7993 17.9823C19.1374 17.8133 19.4255 17.5589 19.6352 17.2444C19.8731 16.8876 20 16.4684 20 16.0396V8.94427C20 8.69841 19.9698 8.45434 19.9106 8.2174L13.0003 12.553L13.0019 20.8469ZM18.8379 6.52939C18.7169 6.43259 18.588 6.34491 18.4523 6.26737L16.2619 5.01568L9.40091 9.30377L11.9844 10.8293L18.8379 6.52939Z" fill="black"/>
</svg>
