<svg width="24" height="24" viewBox="0 0 24 24" fill="none" xmlns="http://www.w3.org/2000/svg">
<path fill-rule="evenodd" clip-rule="evenodd" d="M17 12C17 12.5523 16.5523 13 16 13L8 13C7.44771 13 7 12.5523 7 12C7 11.4477 7.44771 11 8 11L16 11C16.5523 11 17 11.4477 17 12Z" fill="black"/>
<path fill-rule="evenodd" clip-rule="evenodd" d="M14 8C14 8.55228 13.5523 9 13 9L8 9C7.44772 9 7 8.55228 7 8C7 7.44771 7.44772 7 8 7L13 7C13.5523 7 14 7.44771 14 8Z" fill="black"/>
<path fill-rule="evenodd" clip-rule="evenodd" d="M17 2C19.7614 2 22 4.23858 22 7L22 17C22 19.7614 19.7614 22 17 22L7 22C4.23858 22 2 19.7614 2 17L2 7C2 4.23858 4.23858 2 7 2L17 2ZM20 7C20 5.34315 18.6569 4 17 4L7 4C5.34315 4 4 5.34315 4 7L4 17C4 18.6569 5.34314 20 7 20L17 20C18.6569 20 20 18.6569 20 17L20 7Z" fill="black"/>
<path fill-rule="evenodd" clip-rule="evenodd" d="M12 16C12 16.5523 11.5523 17 11 17L8 17C7.44772 17 7 16.5523 7 16C7 15.4477 7.44772 15 8 15L11 15C11.5523 15 12 15.4477 12 16Z" fill="black"/>
</svg>
