<svg width="24" height="24" viewBox="0 0 24 24" fill="none" xmlns="http://www.w3.org/2000/svg">
<path fill-rule="evenodd" clip-rule="evenodd" d="M22 7C22 4.23858 19.7614 2 17 2L7 2C4.23858 2 2 4.23858 2 7L2 17C2 19.7614 4.23858 22 7 22L17 22C19.7614 22 22 19.7614 22 17L22 7ZM16 13C16.5523 13 17 12.5523 17 12C17 11.4477 16.5523 11 16 11L8 11C7.44771 11 7 11.4477 7 12C7 12.5523 7.44771 13 8 13L16 13ZM13 9C13.5523 9 14 8.55228 14 8C14 7.44771 13.5523 7 13 7L8 7C7.44772 7 7 7.44771 7 8C7 8.55228 7.44772 9 8 9L13 9ZM11 17C11.5523 17 12 16.5523 12 16C12 15.4477 11.5523 15 11 15L8 15C7.44772 15 7 15.4477 7 16C7 16.5523 7.44772 17 8 17L11 17Z" fill="black"/>
</svg>
