<svg width="24" height="24" viewBox="0 0 24 24" fill="none" xmlns="http://www.w3.org/2000/svg">
<path fill-rule="evenodd" clip-rule="evenodd" d="M16 2C18.2091 2 20 3.79086 20 6V13.3428C20 14.6689 19.4728 15.9412 18.5352 16.8789L17 18.4141V21C17 21.5523 16.5523 22 16 22H9C8.44772 22 8 21.5523 8 21V18.499L6 17C4.74097 16.0557 4 14.5738 4 13V11C4 10.1124 4.38731 9.31685 5 8.76758V6C5 3.79086 6.79086 2 9 2H16ZM10 20H15V19H10V20ZM9 4C7.89543 4 7 4.89543 7 6V8C8.30585 8 9.41406 8.83532 9.82617 10H13C13.5523 10 14 10.4477 14 11C14 11.5523 13.5523 12 13 12H10V13C10 13.5523 9.55228 14 9 14C8.44772 14 8 13.5523 8 13V11C8 10.4477 7.55228 10 7 10C6.44772 10 6 10.4477 6 11V13C6 13.9443 6.44478 14.8338 7.2002 15.4004L9.33301 17H15.5859L17.1211 15.4648C17.6837 14.9022 18 14.1384 18 13.3428V6C18 4.89543 17.1046 4 16 4H9Z" fill="black"/>
</svg>
