<svg width="24" height="24" viewBox="0 0 24 24" fill="none" xmlns="http://www.w3.org/2000/svg">
<path fill-rule="evenodd" clip-rule="evenodd" d="M16 2C18.2091 2 20 3.79086 20 6V13.3428C20 14.6689 19.4728 15.9412 18.5352 16.8789L17 18.4141V21C17 21.5523 16.5523 22 16 22H9C8.44772 22 8 21.5523 8 21V18.499L6 17C4.74097 16.0557 4 14.5738 4 13V11C4 10.3641 4.19909 9.7757 4.53711 9.29102C4.93048 8.95404 5.44141 8.75 6 8.75C7.24264 8.75 8.25 9.75736 8.25 11V13.25C8.25 13.6642 8.58579 14 9 14C9.41421 14 9.75 13.6642 9.75 13.25V12H13C13.5523 12 14 11.5523 14 11C14 10.4477 13.5523 10 13 10H9.61523C9.49458 9.56285 9.29651 9.15735 9.03711 8.7998C8.54454 8.12105 7.82995 7.61383 7 7.38477C6.68164 7.2969 6.3463 7.25 6 7.25C5.6537 7.25 5.31836 7.2969 5 7.38477V6C5 3.79086 6.79086 2 9 2H16ZM10 20H15V19H10V20Z" fill="black"/>
</svg>
