<svg width="24" height="24" viewBox="0 0 24 24" fill="none" xmlns="http://www.w3.org/2000/svg">
<path fill-rule="evenodd" clip-rule="evenodd" d="M3 10C3.55228 10 4 10.4477 4 11V12V17C4 18.6569 5.34315 20 7 20H17C18.6569 20 20 18.6569 20 17V12V11C20 10.4477 20.4477 10 21 10C21.5523 10 22 10.4477 22 11V17C22 19.7614 19.7614 22 17 22H7C4.23858 22 2 19.7614 2 17V11C2 10.4477 2.44772 10 3 10Z" fill="black"/>
<path fill-rule="evenodd" clip-rule="evenodd" d="M1 6C1 4.34315 2.34315 3 4 3H20C21.6569 3 23 4.34315 23 6V11C23 11.5523 22.5523 12 22 12H20H17C16.9435 12 16.8881 11.9953 16.8341 11.9863C16.3608 11.9073 16 11.4958 16 11C16 10.5042 16.3608 10.0927 16.8341 10.0137C16.8881 10.0047 16.9435 10 17 10H21V6C21 5.44772 20.5523 5 20 5H4C3.44772 5 3 5.44772 3 6V10H7C7.05652 10 7.11194 10.0047 7.1659 10.0137C7.63923 10.0927 8 10.5042 8 11C8 11.4958 7.63923 11.9073 7.1659 11.9863C7.11194 11.9953 7.05652 12 7 12H4H2C1.44772 12 1 11.5523 1 11V6Z" fill="black"/>
<path fill-rule="evenodd" clip-rule="evenodd" d="M7 4C7 4.55228 7.44772 5 8 5H16C16.5523 5 17 4.55228 17 4V3C17 1.34315 15.6569 0 14 0H10C8.34315 0 7 1.34315 7 3V4ZM9 3C9 2.44772 9.44772 2 10 2H14C14.5523 2 15 2.44772 15 3H9Z" fill="black"/>
<path fill-rule="evenodd" clip-rule="evenodd" d="M7 11C7 11.3455 7.05841 11.6774 7.1659 11.9863C7.57385 13.1586 8.68867 14 10 14H14C15.3113 14 16.4262 13.1586 16.8341 11.9863C16.9416 11.6774 17 11.3455 17 11C17 10.6545 16.9416 10.3226 16.8341 10.0137C16.4262 8.84135 15.3113 8 14 8H10C8.68867 8 7.57385 8.84135 7.1659 10.0137C7.05841 10.3226 7 10.6545 7 11ZM10 12C9.44772 12 9 11.5523 9 11C9 10.4477 9.44772 10 10 10H14C14.5523 10 15 10.4477 15 11C15 11.5523 14.5523 12 14 12H10Z" fill="black"/>
<path d="M16.8341 10.0137C16.8881 10.0047 16.9435 10 17 10H21V6C21 5.44772 20.5523 5 20 5H16H8H4C3.44772 5 3 5.44772 3 6V10H7C7.05652 10 7.11194 10.0047 7.1659 10.0137C7.57385 8.84135 8.68867 8 10 8H14C15.3113 8 16.4262 8.84135 16.8341 10.0137Z" fill="black"/>
</svg>
