<svg width="24" height="24" viewBox="0 0 24 24" fill="none" xmlns="http://www.w3.org/2000/svg">
<path fill-rule="evenodd" clip-rule="evenodd" d="M3 10C3.55228 10 4 10.4477 4 11V17C4 18.6569 5.34315 20 7 20H17C18.6569 20 20 18.6569 20 17V11C20 10.4477 20.4477 10 21 10C21.5523 10 22 10.4477 22 11V17C22 19.7614 19.7614 22 17 22H7C4.23858 22 2 19.7614 2 17V11C2 10.4477 2.44772 10 3 10Z" fill="black"/>
<path fill-rule="evenodd" clip-rule="evenodd" d="M1 6C1 4.34315 2.34315 3 4 3H20C21.6569 3 23 4.34315 23 6V11C23 11.5523 22.5523 12 22 12H17C16.4477 12 16 11.5523 16 11C16 10.4477 16.4477 10 17 10H21V6C21 5.44772 20.5523 5 20 5H4C3.44772 5 3 5.44772 3 6V10H7C7.55228 10 8 10.4477 8 11C8 11.5523 7.55228 12 7 12H2C1.44772 12 1 11.5523 1 11V6Z" fill="black"/>
<path fill-rule="evenodd" clip-rule="evenodd" d="M7 4C7 4.55228 7.44772 5 8 5H16C16.5523 5 17 4.55228 17 4V3C17 1.34315 15.6569 0 14 0H10C8.34315 0 7 1.34315 7 3V4ZM9 3C9 2.44772 9.44772 2 10 2H14C14.5523 2 15 2.44772 15 3H9Z" fill="black"/>
<path fill-rule="evenodd" clip-rule="evenodd" d="M7 11C7 12.6569 8.34315 14 10 14H14C15.6569 14 17 12.6569 17 11C17 9.34315 15.6569 8 14 8H10C8.34315 8 7 9.34315 7 11ZM10 12C9.44772 12 9 11.5523 9 11C9 10.4477 9.44772 10 10 10H14C14.5523 10 15 10.4477 15 11C15 11.5523 14.5523 12 14 12H10Z" fill="black"/>
</svg>
