<svg width="24" height="24" viewBox="0 0 24 24" fill="none" xmlns="http://www.w3.org/2000/svg">
<path fill-rule="evenodd" clip-rule="evenodd" d="M10 2C8.34315 2 7 3.34315 7 5V6C4.23858 6 2 8.23858 2 11V17C2 19.7614 4.23858 22 7 22H17C19.7614 22 22 19.7614 22 17V11C22 8.23858 19.7614 6 17 6V5C17 3.34315 15.6569 2 14 2H10ZM10 4C9.44772 4 9 4.44772 9 5V6H15V5C15 4.44772 14.5523 4 14 4H10ZM8 10C8.55228 10 9 9.55228 9 9V8H7V9C7 9.55228 7.44772 10 8 10ZM16 10C16.5523 10 17 9.55228 17 9V8H15V9C15 9.55228 15.4477 10 16 10Z" fill="black"/>
</svg>
