<svg width="24" height="24" viewBox="0 0 24 24" fill="none" xmlns="http://www.w3.org/2000/svg">
<path fill-rule="evenodd" clip-rule="evenodd" d="M6.11472 4.72534C8.77788 2.06218 12.6521 1.35218 15.9599 2.58936C17.0533 2.99828 17.201 4.33789 16.4782 5.0607L12.5749 8.96393C12.1761 9.36272 12.1761 10.0093 12.5749 10.4081L13.5919 11.4251C13.9907 11.8239 14.6373 11.8239 15.0361 11.4251L18.9393 7.52183C19.6621 6.79902 21.0017 6.94672 21.4106 8.04006C22.6478 11.3479 21.9378 15.2221 19.2747 17.8853C16.6115 20.5484 12.7374 21.2584 9.42959 20.0213C9.39583 20.0087 9.36601 20.0082 9.3476 20.0116C9.33954 20.0131 9.33534 20.0149 9.33359 20.0158L7.94758 21.4018C7.15001 22.1994 5.85689 22.1994 5.05931 21.4018L2.59818 18.9407C1.80061 18.1431 1.80061 16.85 2.59818 16.0524L3.98419 14.6664C3.98513 14.6647 3.98689 14.6605 3.98837 14.6524C3.99177 14.634 3.99131 14.6042 3.97869 14.5704C2.74158 11.2626 3.45161 7.38846 6.11472 4.72534ZM3.98351 14.6674C3.98348 14.6674 3.98372 14.667 3.98419 14.6664L3.98351 14.6674ZM9.33258 20.0165C9.33252 20.0165 9.33289 20.0162 9.33359 20.0158L9.33258 20.0165ZM14.4054 4.2452C12.0256 3.67102 9.41447 4.31386 7.55886 6.16948C5.4822 8.24614 4.92446 11.269 5.8916 13.855C6.16509 14.5863 6.05298 15.4859 5.42892 16.1099L4.04231 17.4966L6.50345 19.9577L7.89005 18.5711C8.51411 17.947 9.41373 17.8349 10.145 18.1084C12.731 19.0755 15.7539 18.5178 17.8305 16.4411C19.6861 14.5855 20.329 11.9744 19.7548 9.5946L16.4802 12.8692C15.2838 14.0656 13.3442 14.0656 12.1478 12.8692L11.1308 11.8522C9.93444 10.6558 9.93444 8.71616 11.1308 7.5198L14.4054 4.2452Z" fill="black"/>
</svg>
