<svg width="24" height="24" viewBox="0 0 24 24" fill="none" xmlns="http://www.w3.org/2000/svg">
<path fill-rule="evenodd" clip-rule="evenodd" d="M5 1C4.44772 1 4 1.44772 4 2V20C3.44772 20 3 20.4477 3 21C3 21.5523 3.44772 22 4 22H20C20.5523 22 21 21.5523 21 21C21 20.4477 20.5523 20 20 20V2C20 1.44772 19.5523 1 19 1H5ZM11 17C10.4477 17 10 17.4477 10 18V20H14V18C14 17.4477 13.5523 17 13 17H11ZM13 14C13 13.4477 13.4477 13 14 13H15C15.5523 13 16 13.4477 16 14V15C16 15.5523 15.5523 16 15 16H14C13.4477 16 13 15.5523 13 15V14ZM13 10C13 9.44771 13.4477 9 14 9H15C15.5523 9 16 9.44771 16 10V11C16 11.5523 15.5523 12 15 12H14C13.4477 12 13 11.5523 13 11V10ZM13 6C13 5.44772 13.4477 5 14 5H15C15.5523 5 16 5.44772 16 6V7C16 7.55228 15.5523 8 15 8H14C13.4477 8 13 7.55228 13 7V6ZM8 14C8 13.4477 8.44772 13 9 13H10C10.5523 13 11 13.4477 11 14V15C11 15.5523 10.5523 16 10 16H9C8.44772 16 8 15.5523 8 15V14ZM8 10C8 9.44771 8.44772 9 9 9H10C10.5523 9 11 9.44771 11 10V11C11 11.5523 10.5523 12 10 12H9C8.44772 12 8 11.5523 8 11V10ZM8 6C8 5.44772 8.44772 5 9 5H10C10.5523 5 11 5.44772 11 6V7C11 7.55228 10.5523 8 10 8H9C8.44772 8 8 7.55228 8 7V6Z" fill="black"/>
</svg>
