<svg width="24" height="24" viewBox="0 0 24 24" fill="none" xmlns="http://www.w3.org/2000/svg">
<path d="M13 14C13 13.4477 13.4477 13 14 13H15C15.5523 13 16 13.4477 16 14V15C16 15.5523 15.5523 16 15 16H14C13.4477 16 13 15.5523 13 15V14Z" fill="black"/>
<path d="M14 9C13.4477 9 13 9.44771 13 10V11C13 11.5523 13.4477 12 14 12H15C15.5523 12 16 11.5523 16 11V10C16 9.44771 15.5523 9 15 9H14Z" fill="black"/>
<path d="M13 6C13 5.44772 13.4477 5 14 5H15C15.5523 5 16 5.44772 16 6V7C16 7.55228 15.5523 8 15 8H14C13.4477 8 13 7.55228 13 7V6Z" fill="black"/>
<path d="M9 13C8.44772 13 8 13.4477 8 14V15C8 15.5523 8.44772 16 9 16H10C10.5523 16 11 15.5523 11 15V14C11 13.4477 10.5523 13 10 13H9Z" fill="black"/>
<path d="M8 10C8 9.44771 8.44772 9 9 9H10C10.5523 9 11 9.44771 11 10V11C11 11.5523 10.5523 12 10 12H9C8.44772 12 8 11.5523 8 11V10Z" fill="black"/>
<path d="M9 5C8.44772 5 8 5.44772 8 6V7C8 7.55228 8.44772 8 9 8H10C10.5523 8 11 7.55228 11 7V6C11 5.44772 10.5523 5 10 5H9Z" fill="black"/>
<path fill-rule="evenodd" clip-rule="evenodd" d="M4 2C4 1.44772 4.44772 1 5 1H19C19.5523 1 20 1.44772 20 2V20C20.5523 20 21 20.4477 21 21C21 21.5523 20.5523 22 20 22H4C3.44772 22 3 21.5523 3 21C3 20.4477 3.44772 20 4 20V2ZM11 17C10.4477 17 10 17.4477 10 18V20H6V3H18V20H14V18C14 17.4477 13.5523 17 13 17H11Z" fill="black"/>
</svg>
