<svg width="24" height="24" viewBox="0 0 24 24" fill="none" xmlns="http://www.w3.org/2000/svg">
<path fill-rule="evenodd" clip-rule="evenodd" d="M6.75 7C6.75 6.30964 7.30964 5.75 8 5.75H21C21.6904 5.75 22.25 6.30964 22.25 7C22.25 7.69036 21.6904 8.25 21 8.25H8C7.30964 8.25 6.75 7.69036 6.75 7Z" fill="black"/>
<path fill-rule="evenodd" clip-rule="evenodd" d="M1.75 7C1.75 6.30964 2.30964 5.75 3 5.75H4C4.69036 5.75 5.25 6.30964 5.25 7C5.25 7.69036 4.69036 8.25 4 8.25H3C2.30964 8.25 1.75 7.69036 1.75 7Z" fill="black"/>
<path fill-rule="evenodd" clip-rule="evenodd" d="M6.75 12C6.75 11.3096 7.30964 10.75 8 10.75H21C21.6904 10.75 22.25 11.3096 22.25 12C22.25 12.6904 21.6904 13.25 21 13.25H8C7.30964 13.25 6.75 12.6904 6.75 12Z" fill="black"/>
<path fill-rule="evenodd" clip-rule="evenodd" d="M1.75 12C1.75 11.3096 2.30964 10.75 3 10.75H4C4.69036 10.75 5.25 11.3096 5.25 12C5.25 12.6904 4.69036 13.25 4 13.25H3C2.30964 13.25 1.75 12.6904 1.75 12Z" fill="black"/>
<path fill-rule="evenodd" clip-rule="evenodd" d="M6.75 17C6.75 16.3096 7.30964 15.75 8 15.75H21C21.6904 15.75 22.25 16.3096 22.25 17C22.25 17.6904 21.6904 18.25 21 18.25H8C7.30964 18.25 6.75 17.6904 6.75 17Z" fill="black"/>
<path fill-rule="evenodd" clip-rule="evenodd" d="M1.75 17C1.75 16.3096 2.30964 15.75 3 15.75H4C4.69036 15.75 5.25 16.3096 5.25 17C5.25 17.6904 4.69036 18.25 4 18.25H3C2.30964 18.25 1.75 17.6904 1.75 17Z" fill="black"/>
</svg>
