<svg width="24" height="24" viewBox="0 0 24 24" fill="none" xmlns="http://www.w3.org/2000/svg">
<path fill-rule="evenodd" clip-rule="evenodd" d="M7 0C7.55228 0 8 0.447715 8 1V5C8 5.55228 7.55228 6 7 6C6.44772 6 6 5.55228 6 5V1C6 0.447715 6.44772 0 7 0Z" fill="black"/>
<path fill-rule="evenodd" clip-rule="evenodd" d="M17 0C17.5523 0 18 0.447715 18 1V5C18 5.55228 17.5523 6 17 6C16.4477 6 16 5.55228 16 5V1C16 0.447715 16.4477 0 17 0Z" fill="black"/>
<path fill-rule="evenodd" clip-rule="evenodd" d="M2 8H22V10H2V8Z" fill="black"/>
<path fill-rule="evenodd" clip-rule="evenodd" d="M2 7C2 4.23858 4.23858 2 7 2H17C19.7614 2 22 4.23858 22 7V17C22 19.7614 19.7614 22 17 22H7C4.23858 22 2 19.7614 2 17V7ZM7 4C5.34315 4 4 5.34315 4 7V17C4 18.6569 5.34315 20 7 20H17C18.6569 20 20 18.6569 20 17V7C20 5.34315 18.6569 4 17 4H7Z" fill="black"/>
<path fill-rule="evenodd" clip-rule="evenodd" d="M13.6156 11.2118C13.8584 11.4013 14.0002 11.6921 14.0002 12V17C14.0002 17.5523 13.5525 18 13.0002 18C12.448 18 12.0002 17.5523 12.0002 17V13.2808L11.2428 13.4702C10.707 13.6041 10.164 13.2783 10.0301 12.7425C9.89615 12.2067 10.2219 11.6638 10.7577 11.5299L12.7577 11.0299C13.0564 10.9552 13.3729 11.0223 13.6156 11.2118Z" fill="black"/>
</svg>
