<svg width="24" height="24" viewBox="0 0 24 24" fill="none" xmlns="http://www.w3.org/2000/svg">
<path fill-rule="evenodd" clip-rule="evenodd" d="M8 1C8 0.447715 7.55228 0 7 0C6.44772 0 6 0.447715 6 1V2.10002C3.71776 2.56329 2 4.58104 2 7V17C2 19.7614 4.23858 22 7 22H17C19.7614 22 22 19.7614 22 17V7C22 4.58104 20.2822 2.56329 18 2.10002V1C18 0.447715 17.5523 0 17 0C16.4477 0 16 0.447715 16 1V2H8V1ZM17 20C18.6569 20 20 18.6569 20 17V10H4V17C4 18.6569 5.34315 20 7 20H17Z" fill="black"/>
<path d="M12 11L13.2361 13.3043L16 13.6738L14 15.4674L14.4721 18L12 16.8043L9.52786 18L10 15.4674L8 13.6738L10.7639 13.3043L12 11Z" fill="black"/>
</svg>
