<svg width="24" height="24" viewBox="0 0 24 24" fill="none" xmlns="http://www.w3.org/2000/svg">
<path fill-rule="evenodd" clip-rule="evenodd" d="M2 12C2 6.47715 6.47715 2 12 2C17.5228 2 22 6.47715 22 12C22 17.5228 17.5228 22 12 22C6.47715 22 2 17.5228 2 12ZM9.76443 14.1925C11.7543 16.3503 14.3689 16.9496 16.0257 16.9996C16.5842 17.0164 17 16.5425 17 15.9853V14.5509C17 14.0209 16.6247 13.5646 16.1035 13.4609L14.9327 13.2281C14.5181 13.1457 14.1034 13.3696 13.9459 13.7609C13.7826 14.1668 13.3452 14.3799 12.9554 14.1793C12.275 13.8291 11.2078 13.0962 10.2342 11.6462C9.95252 11.2268 10.1081 10.668 10.5425 10.4089C10.9053 10.1926 11.0791 9.76167 10.9676 9.35503L10.5459 7.81811C10.4134 7.33501 9.97319 7 9.47098 7H8.01896C7.43438 7 6.94965 7.45183 7.0042 8.0323C7.1526 9.61142 7.82318 12.0874 9.76443 14.1925Z" fill="black"/>
</svg>
