<svg width="24" height="24" viewBox="0 0 24 24" fill="none" xmlns="http://www.w3.org/2000/svg">
<path d="M16.0257 16.9996C14.3689 16.9496 11.7543 16.3503 9.76443 14.1925C7.82318 12.0874 7.1526 9.61142 7.0042 8.0323C6.94965 7.45183 7.43438 7 8.01896 7H9.47098C9.97319 7 10.4134 7.33501 10.5459 7.81811L10.9676 9.35503C11.0791 9.76167 10.9053 10.1926 10.5425 10.4089C10.1081 10.668 9.95252 11.2268 10.2342 11.6462C11.2078 13.0962 12.275 13.8291 12.9554 14.1793C13.3452 14.3799 13.7826 14.1668 13.9459 13.7609C14.1034 13.3696 14.5181 13.1457 14.9327 13.2281L16.1035 13.4609C16.6247 13.5646 17 14.0209 17 14.5509V15.9853C17 16.5425 16.5842 17.0164 16.0257 16.9996Z" fill="black"/>
<path fill-rule="evenodd" clip-rule="evenodd" d="M12 2C6.47715 2 2 6.47715 2 12C2 17.5228 6.47715 22 12 22C17.5228 22 22 17.5228 22 12C22 6.47715 17.5228 2 12 2ZM4 12C4 7.58172 7.58172 4 12 4C16.4183 4 20 7.58172 20 12C20 16.4183 16.4183 20 12 20C7.58172 20 4 16.4183 4 12Z" fill="black"/>
</svg>
