<svg width="24" height="24" viewBox="0 0 24 24" fill="none" xmlns="http://www.w3.org/2000/svg">
<g clip-path="url(#clip0_30_22424)">
<path d="M7.12132 3.46447C8.059 2.52678 9.33077 2 10.6569 2H13.3431C14.6692 2 15.941 2.52679 16.8787 3.46447L17.8787 4.46447C18.2216 4.80736 18.6866 5 19.1716 5C21.286 5 23 6.71405 23 8.82843V17C23 19.7614 20.7614 22 18 22H6C3.23858 22 1 19.7614 1 17V10.5H1.5V11C1.5 12.0252 2.11705 12.9062 3 13.292L3.02689 13.3035C3.32598 13.43 3.65482 13.5 4 13.5C5.38071 13.5 6.5 12.3807 6.5 11V10.5H7C7.25908 10.5 7.50896 10.4606 7.74397 10.3874C7.27525 11.1488 7.00488 12.0453 7.00488 13.005C7.00488 15.7664 9.24346 18.005 12.0049 18.005C14.7663 18.005 17.0049 15.7664 17.0049 13.005C17.0049 10.2436 14.7663 8.005 12.0049 8.005C11.0452 8.005 10.1488 8.27535 9.38741 8.74403C9.46058 8.50901 9.5 8.25911 9.5 8C9.5 6.89448 8.78242 5.95655 7.78762 5.6266C7.53999 5.54446 7.27519 5.5 7 5.5H6.5V5C6.5 4.72481 6.45554 4.46001 6.3734 4.21238L7.12132 3.46447Z" fill="black"/>
<path d="M3 9L1 9C0.447715 9 0 8.55228 0 8C0 7.44772 0.447715 7 1 7H1.46401H3V5.46401V5C3 4.44772 3.44772 4 4 4C4.5496 4 4.99564 4.44337 4.99997 4.99194L5 5V6.99616V7H7C7.55229 7 8 7.44772 8 8C8 8.55228 7.55229 9 7 9H5V11C5 11.5523 4.55228 12 4 12C3.44772 12 3 11.5523 3 11V9Z" fill="black"/>
<path d="M9.00488 13.005C9.00488 11.3482 10.348 10.005 12.0049 10.005C13.6617 10.005 15.0049 11.3482 15.0049 13.005C15.0049 14.6619 13.6617 16.005 12.0049 16.005C10.348 16.005 9.00488 14.6619 9.00488 13.005Z" fill="black"/>
</g>
<defs>
<clipPath id="clip0_30_22424">
<rect width="24" height="24" fill="white"/>
</clipPath>
</defs>
</svg>
