<svg width="24" height="24" viewBox="0 0 24 24" fill="none" xmlns="http://www.w3.org/2000/svg">
<path fill-rule="evenodd" clip-rule="evenodd" d="M12.0049 10.005C10.348 10.005 9.00488 11.3482 9.00488 13.005C9.00488 14.6619 10.348 16.005 12.0049 16.005C13.6617 16.005 15.0049 14.6619 15.0049 13.005C15.0049 11.3482 13.6617 10.005 12.0049 10.005ZM7.00488 13.005C7.00488 10.2436 9.24346 8.005 12.0049 8.005C14.7663 8.005 17.0049 10.2436 17.0049 13.005C17.0049 15.7664 14.7663 18.005 12.0049 18.005C9.24346 18.005 7.00488 15.7664 7.00488 13.005Z" fill="black"/>
<path fill-rule="evenodd" clip-rule="evenodd" d="M7.29289 3.29289C8.12072 2.46507 9.24349 2 10.4142 2H13.3431C14.6692 2 15.941 2.52679 16.8787 3.46447L17.8787 4.46447C18.2216 4.80736 18.6866 5 19.1716 5C21.286 5 23 6.71405 23 8.82843V17C23 19.7614 20.7614 22 18 22H6C3.23858 22 1 19.7614 1 17V14C1 13.4477 1.44772 13 2 13C2.55228 13 3 13.4477 3 14V17C3 18.6569 4.34315 20 6 20H18C19.6569 20 21 18.6569 21 17V8.82843C21 7.81861 20.1814 7 19.1716 7C18.1562 7 17.1824 6.59665 16.4645 5.87868L15.4645 4.87868C14.9019 4.31607 14.1388 4 13.3431 4H10.4142C9.77392 4 9.15986 4.25435 8.70711 4.70711C8.31658 5.09763 7.68342 5.09763 7.29289 4.70711C6.90237 4.31658 6.90237 3.68342 7.29289 3.29289Z" fill="black"/>
<path fill-rule="evenodd" clip-rule="evenodd" d="M4 4C4.55228 4 5 4.44772 5 5V11C5 11.5523 4.55228 12 4 12C3.44772 12 3 11.5523 3 11V5C3 4.44772 3.44772 4 4 4Z" fill="black"/>
<path fill-rule="evenodd" clip-rule="evenodd" d="M8 8C8 8.55228 7.55228 9 7 9L1 9C0.447715 9 -2.01176e-08 8.55228 0 8C2.01176e-08 7.44771 0.447715 7 1 7L7 7C7.55228 7 8 7.44772 8 8Z" fill="black"/>
</svg>
