<svg width="24" height="24" viewBox="0 0 24 24" fill="none" xmlns="http://www.w3.org/2000/svg">
<g clip-path="url(#clip0_30_21997)">
<path fill-rule="evenodd" clip-rule="evenodd" d="M19.3162 9.01563C20.868 9.14473 22.5039 8.55424 23.7071 7.35104C23.9288 7.12938 24.0337 6.8166 23.9904 6.50611C23.9472 6.19562 23.7609 5.92336 23.4872 5.77064L22.0182 4.95111L22.0182 3.06104C22.0182 2.58436 21.6817 2.17395 21.2143 2.08046L19.111 1.65981L18.1877 0.431385C18.0136 0.199803 17.7477 0.0550929 17.4587 0.034708C17.1697 0.0143237 16.8861 0.120269 16.6812 0.325122C15.4757 1.53068 14.8852 3.17069 15.0174 4.72518C14.0751 4.33326 13.0416 4.11688 11.9574 4.11688C7.55403 4.11688 3.98438 7.68654 3.98438 12.0899C3.98438 13.1117 4.17658 14.0886 4.5268 14.9864C3.04218 14.9283 1.50345 15.5184 0.357357 16.6645C0.135693 16.8862 0.0308011 17.199 0.0740059 17.5095C0.117211 17.8199 0.303512 18.0922 0.577272 18.2449L2.04629 19.0645V20.9545C2.04629 21.4312 2.38275 21.8416 2.85018 21.9351L4.95341 22.3557L5.87676 23.5842C6.05083 23.8158 6.31678 23.9605 6.60576 23.9809C6.89475 24.0012 7.17838 23.8953 7.38323 23.6904C8.5294 22.5443 9.11959 21.0054 9.06139 19.5207C9.95908 19.8709 10.9358 20.063 11.9574 20.063C16.3608 20.063 19.9305 16.4933 19.9305 12.0899C19.9305 11.0003 19.7119 9.96171 19.3162 9.01563ZM11.9574 6.11688C8.6586 6.11688 5.98438 8.79111 5.98438 12.0899C5.98438 13.1574 6.26439 14.1595 6.75499 15.0267C6.81254 14.7144 6.89907 14.4016 7.02063 14.0945C7.66996 12.4544 9.21487 11.2288 11.9174 11.0036C14.0609 10.825 14.8352 10.015 15.1326 9.32797C15.4484 8.59827 15.3626 7.7021 15.1299 7.02808C14.2107 6.45075 13.123 6.11688 11.9574 6.11688Z" fill="black"/>
</g>
<defs>
<clipPath id="clip0_30_21997">
<rect width="24" height="24" fill="white"/>
</clipPath>
</defs>
</svg>
