<svg width="24" height="24" viewBox="0 0 24 24" fill="none" xmlns="http://www.w3.org/2000/svg">
<path fill-rule="evenodd" clip-rule="evenodd" d="M20.7439 9.06904C22.5976 9.41767 24 11.0451 24 13V15C24 16.9736 22.5707 18.6133 20.6907 18.9406C20.1416 20.155 18.9195 21 17.5 21C16.1038 21 14.8985 20.1825 14.3368 19H9.66318C9.10145 20.1825 7.8962 21 6.5 21C5.08053 21 3.85843 20.155 3.30927 18.9406C1.42931 18.6133 0 16.9736 0 15V13C0 10.9813 1.49541 9.31187 3.43889 9.03905L6.57432 4.3359C7.13072 3.5013 8.06741 3 9.07047 3H16.5586C17.8499 3 18.9963 3.82629 19.4046 5.05132L20.7439 9.06904ZM8.23842 5.4453L5.86862 9H13V5H9.07047C8.73612 5 8.42389 5.1671 8.23842 5.4453ZM3.98755 11C3.9963 11.0001 4.00504 11.0001 4.01378 11H19.9768C19.9908 11.0003 20.0049 11.0004 20.019 11.0001C21.1148 11.0103 22 11.9018 22 13V15C22 15.771 21.5637 16.4401 20.9246 16.7739C20.5903 15.1894 19.184 14 17.5 14C15.7368 14 14.2781 15.3039 14.0354 17H9.96456C9.72194 15.3039 8.26324 14 6.5 14C4.81596 14 3.40971 15.1894 3.07541 16.7739C2.43627 16.4401 2 15.771 2 15V13C2 11.8996 2.88871 11.0067 3.98755 11ZM18.6127 9L17.5073 5.68377C17.3712 5.27543 16.989 5 16.5586 5H15V9H18.6127ZM6.5 16C5.67157 16 5 16.6716 5 17.5C5 18.3284 5.67157 19 6.5 19C7.32843 19 8 18.3284 8 17.5C8 16.6716 7.32843 16 6.5 16ZM16 17.5C16 16.6716 16.6716 16 17.5 16C18.3284 16 19 16.6716 19 17.5C19 18.3284 18.3284 19 17.5 19C16.6716 19 16 18.3284 16 17.5Z" fill="black"/>
</svg>
