<svg width="24" height="24" viewBox="0 0 24 24" fill="none" xmlns="http://www.w3.org/2000/svg">
<path fill-rule="evenodd" clip-rule="evenodd" d="M12 1C12 0.447715 12.4477 0 13 0H17C17.5523 0 18 0.447715 18 1C18 1.55228 17.5523 2 17 2H16V3H18.1479C19.7155 3 21.0189 4.20692 21.1391 5.76991L21.8683 15.25H2.13166L2.8609 5.76991C2.98113 4.20692 4.28446 3 5.85207 3H14V2H13C12.4477 2 12 1.55228 12 1ZM21.9837 16.75H2.01628L2.00381 16.9121C2.00129 16.9411 2 16.9704 2 17V19C2 20.6569 3.34315 22 5 22H19C20.6569 22 22 20.6569 22 19V17.0032L22 16.993L21.9998 16.978C21.9993 16.956 21.9981 16.9342 21.9962 16.9126L21.9837 16.75ZM12 18C11.4477 18 11 18.4477 11 19C11 19.5523 11.4478 20 12.0001 20C12.5524 20 13.0001 19.5523 13.0001 19C13.0001 18.4477 12.5523 18 12 18ZM10 7C10 6.44772 10.4477 6 11 6H17C17.5523 6 18 6.44772 18 7C18 7.55228 17.5523 8 17 8H11C10.4477 8 10 7.55228 10 7ZM9 7.5C9 6.67157 8.32843 6 7.5 6C6.67157 6 6 6.67157 6 7.5V9.5C6 10.3284 6.67157 11 7.5 11C8.32843 11 9 10.3284 9 9.5V7.5ZM10 13C10 12.4477 10.4477 12 11 12C11.5523 12 12.0001 12.4477 12.0001 13C12.0001 13.5523 11.5524 14 11.0001 14C10.4478 14 10 13.5523 10 13ZM11 9C10.4477 9 10 9.44771 10 10C10 10.5523 10.4478 11 11.0001 11C11.5524 11 12.0001 10.5523 12.0001 10C12.0001 9.44771 11.5523 9 11 9ZM13 13C13 12.4477 13.4477 12 14 12C14.5523 12 15.0001 12.4477 15.0001 13C15.0001 13.5523 14.5524 14 14.0001 14C13.4478 14 13 13.5523 13 13ZM14 9C13.4477 9 13 9.44771 13 10C13 10.5523 13.4478 11 14.0001 11C14.5524 11 15.0001 10.5523 15.0001 10C15.0001 9.44771 14.5523 9 14 9ZM16 13C16 12.4477 16.4477 12 17 12C17.5523 12 18.0001 12.4477 18.0001 13C18.0001 13.5523 17.5524 14 17.0001 14C16.4478 14 16 13.5523 16 13ZM17 9C16.4477 9 16 9.44771 16 10C16 10.5523 16.4478 11 17.0001 11C17.5524 11 18.0001 10.5523 18.0001 10C18.0001 9.44771 17.5523 9 17 9Z" fill="black"/>
</svg>
