<svg width="24" height="24" viewBox="0 0 24 24" fill="none" xmlns="http://www.w3.org/2000/svg">
<path fill-rule="evenodd" clip-rule="evenodd" d="M2 12C2 6.47715 6.47715 2 12 2C17.5228 2 22 6.47715 22 12C22 17.5228 17.5228 22 12 22C6.47715 22 2 17.5228 2 12ZM10 12C10 10.8954 10.8954 10 12 10C13.1046 10 14 10.8954 14 12C14 13.1046 13.1046 14 12 14C10.8954 14 10 13.1046 10 12ZM16.6305 6.75027C16.2164 6.38481 15.5845 6.42421 15.219 6.83828C14.8536 7.25235 14.893 7.88429 15.307 8.24975C15.94 8.80841 16.4297 9.52375 16.7158 10.3333C16.8998 10.854 17.4712 11.1269 17.9919 10.9429C18.5126 10.7588 18.7855 10.1875 18.6015 9.66679C18.1998 8.53029 17.5139 7.52999 16.6305 6.75027ZM7.36951 17.2497C7.78358 17.6152 8.41552 17.5758 8.78098 17.1617C9.14644 16.7476 9.10704 16.1157 8.69297 15.7502C8.06 15.1916 7.57033 14.4763 7.2842 13.6667C7.10016 13.146 6.52883 12.8731 6.00812 13.0571C5.4874 13.2412 5.21448 13.8125 5.39852 14.3332C5.80022 15.4697 6.48608 16.47 7.36951 17.2497Z" fill="black"/>
</svg>
