<svg width="24" height="24" viewBox="0 0 24 24" fill="none" xmlns="http://www.w3.org/2000/svg">
<path fill-rule="evenodd" clip-rule="evenodd" d="M5 4C3.34315 4 2 5.34315 2 7V17C2 18.6569 3.34315 20 5 20H16V24L19 22.2L22 24V19.0004C23.2144 18.0882 24 16.6358 24 15C24 12.9497 22.7659 11.1876 21 10.416V7C21 5.34315 19.6569 4 18 4H5ZM22 15C22 16.6569 20.6569 18 19 18C17.3431 18 16 16.6569 16 15C16 14.2495 16.2756 13.5634 16.731 13.0373C16.7439 13.0235 16.7564 13.0093 16.7686 12.9948C17.3177 12.3841 18.114 12 19 12C20.6569 12 22 13.3431 22 15ZM15 11.9995C15.5156 11.3132 16.2037 10.7639 17 10.416V10C17 8.89543 16.1046 8 15 8H8C6.89543 8 6 8.89543 6 10V14C6 15.1046 6.89543 16 8 16H14.1C14.0344 15.6769 14 15.3425 14 15C14 14.6575 14.0344 14.3231 14.1 14H8V10H15V11.9995Z" fill="black"/>
</svg>
