<svg width="24" height="24" viewBox="0 0 24 24" fill="none" xmlns="http://www.w3.org/2000/svg">
<path fill-rule="evenodd" clip-rule="evenodd" d="M20.4136 6.59302C21.4175 8.15195 22 10.008 22 12C22 17.5228 17.5228 22 12 22C6.47715 22 2 17.5228 2 12C2 6.47715 6.47715 2 12 2C15.4096 2 18.4206 3.70637 20.2257 6.31171C20.2642 6.35246 20.2999 6.39703 20.3321 6.4453C20.3638 6.49298 20.391 6.5424 20.4136 6.59302ZM18.0496 6.76508L13 10.1315V4.06189C15.0099 4.31253 16.7883 5.30876 18.0496 6.76508ZM11.2462 12.6573L16.3642 18.7058C15.1092 19.5243 13.6101 20 12 20C7.58172 20 4 16.4183 4 12C4 7.92038 7.05369 4.55399 11 4.06189V11.9863C10.9972 12.1769 11.0488 12.3701 11.1594 12.5417C11.1648 12.55 11.1702 12.5581 11.1757 12.5662C11.1977 12.5983 11.2213 12.6286 11.2462 12.6573ZM13.4877 12.2101L19.1604 8.42827C19.6977 9.50336 20 10.7164 20 12C20 14.0878 19.2003 15.9887 17.8904 17.4133L13.4877 12.2101Z" fill="black"/>
</svg>
