<svg width="24" height="24" viewBox="0 0 24 24" fill="none" xmlns="http://www.w3.org/2000/svg">
<path d="M8 9C7.44772 9 7 9.44772 7 10C7 10.5523 7.44772 11 8 11H16C16.5523 11 17 10.5523 17 10C17 9.44772 16.5523 9 16 9H8Z" fill="black"/>
<path d="M8 13C7.44772 13 7 13.4477 7 14C7 14.5523 7.44772 15 8 15H12C12.5523 15 13 14.5523 13 14C13 13.4477 12.5523 13 12 13H8Z" fill="black"/>
<path fill-rule="evenodd" clip-rule="evenodd" d="M12 2C8.76349 2 6.23105 3.0947 4.51443 4.95859C2.81021 6.80901 2 9.31919 2 12V19C2 20.6569 3.34315 22 5 22H12.9C18.0223 22 22 17.4211 22 12C22 9.31919 21.1898 6.80901 19.4856 4.95859C17.7689 3.0947 15.2365 2 12 2ZM4 12C4 9.71025 4.68979 7.72043 5.98557 6.31349C7.26895 4.92002 9.23651 4 12 4C14.7635 4 16.7311 4.92002 18.0144 6.31349C19.3102 7.72043 20 9.71025 20 12C20 16.52 16.7247 20 12.9 20H5C4.44772 20 4 19.5523 4 19V12Z" fill="black"/>
</svg>
