<svg width="24" height="24" viewBox="0 0 24 24" fill="none" xmlns="http://www.w3.org/2000/svg">
<path fill-rule="evenodd" clip-rule="evenodd" d="M12.0003 2C6.06436 2 1 6.18618 1 11.6452C1 13.4325 1.56178 15.089 2.50632 16.5071C2.50968 16.5385 2.51299 16.5741 2.51592 16.6136C2.53105 16.8178 2.53596 17.1244 2.48801 17.5016C2.39288 18.2501 2.08887 19.2881 1.21913 20.3753C0.950222 20.7114 0.926599 21.182 1.16049 21.5433C1.39438 21.9047 1.83329 22.0759 2.25008 21.9682L7.76662 20.5434C9.0693 21.0203 10.5006 21.2905 12.0003 21.2905C17.9362 21.2905 23.0005 17.1042 23.0005 11.6452C23.0005 6.18618 17.9362 2 12.0003 2ZM8 13C7.44772 13 7 13.4477 7 14C7 14.5523 7.44772 15 8 15H16C16.5523 15 17 14.5523 17 14C17 13.4477 16.5523 13 16 13H8ZM8 9C7.44772 9 7 9.44772 7 10C7 10.5523 7.44772 11 8 11H13C13.5523 11 14 10.5523 14 10C14 9.44772 13.5523 9 13 9H8Z" fill="black"/>
</svg>
