<svg width="24" height="24" viewBox="0 0 24 24" fill="none" xmlns="http://www.w3.org/2000/svg">
<path fill-rule="evenodd" clip-rule="evenodd" d="M12.0003 2C6.06436 2 1 6.18618 1 11.6452C1 13.4325 1.56178 15.089 2.50632 16.5071C2.50968 16.5385 2.51299 16.5741 2.51592 16.6136C2.53105 16.8178 2.53596 17.1244 2.48801 17.5016C2.39288 18.2501 2.08887 19.2881 1.21913 20.3753C0.950222 20.7114 0.926599 21.182 1.16049 21.5433C1.39438 21.9047 1.83329 22.0759 2.25008 21.9682L7.76662 20.5434C9.0693 21.0203 10.5006 21.2905 12.0003 21.2905C17.9362 21.2905 23.0005 17.1042 23.0005 11.6452C23.0005 6.18618 17.9362 2 12.0003 2ZM12 15C11.4477 15 11 15.4477 11 16C11 16.5523 11.4478 17 12.0001 17C12.5524 17 13.0001 16.5523 13.0001 16C13.0001 15.4477 12.5523 15 12 15ZM12.1104 9.01567C11.6374 8.93024 11.1306 9.20859 10.9474 9.75077C10.7707 10.274 10.2032 10.5549 9.67997 10.3782C9.15674 10.2014 8.87585 9.63396 9.05259 9.11072C9.53478 7.68323 10.9618 6.77672 12.4642 7.04721C13.9582 7.31256 15 8.64831 15 10.1446C15 11.3583 14.1553 12.1542 13.5786 12.5651C13.3748 12.7104 13.1738 12.8301 12.9966 12.9252V13C12.9966 13.5523 12.5489 14 11.9966 14C11.4443 14 10.9966 13.5523 10.9966 13V12.2861C10.9966 11.8645 11.261 11.4884 11.6573 11.3455L11.6638 11.343C11.6716 11.3401 11.6858 11.3346 11.7055 11.3265C11.7451 11.3104 11.8058 11.2845 11.8805 11.2491C12.0325 11.1768 12.2285 11.0714 12.4179 10.9364C12.843 10.6335 13 10.3586 13 10.1446C13 9.55701 12.5949 9.10144 12.1139 9.01629L12.1104 9.01567Z" fill="black"/>
</svg>
