<svg width="24" height="24" viewBox="0 0 24 24" fill="none" xmlns="http://www.w3.org/2000/svg">
<path fill-rule="evenodd" clip-rule="evenodd" d="M1 11.6452C1 6.18618 6.06436 2 12.0003 2C17.9362 2 23.0005 6.18618 23.0005 11.6452C23.0005 17.1042 17.9362 21.2905 12.0003 21.2905C10.5006 21.2905 9.0693 21.0203 7.76662 20.5434L2.25008 21.9682C1.83329 22.0759 1.39438 21.9047 1.16049 21.5433C0.926599 21.182 0.950222 20.7114 1.21913 20.3753C2.08887 19.2881 2.39288 18.2501 2.48801 17.5016C2.53596 17.1244 2.53105 16.8178 2.51592 16.6136C2.51299 16.5741 2.50968 16.5385 2.50632 16.5071C1.56178 15.089 1 13.4325 1 11.6452ZM3.46006 16.1304C4.43507 15.9082 4.4353 15.9092 4.4353 15.9092L4.43554 15.9103L4.43606 15.9126L4.43723 15.9178L4.44008 15.9311C4.44218 15.9411 4.4447 15.9535 4.44753 15.9681C4.45319 15.9974 4.46009 16.0359 4.46743 16.0831C4.48211 16.1773 4.49863 16.3064 4.51044 16.4657C4.53404 16.784 4.53913 17.226 4.47205 17.7538C4.40868 18.2524 4.28104 18.8251 4.04631 19.4386L7.57509 18.5272C7.78052 18.4741 7.99751 18.4878 8.19467 18.5662C9.35028 19.0257 10.6401 19.2905 12.0003 19.2905C17.1147 19.2905 21.0005 15.7364 21.0005 11.6452C21.0005 7.554 17.1147 4 12.0003 4C6.88588 4 3 7.554 3 11.6452C3 13.0643 3.46437 14.3965 4.27841 15.5556C4.35302 15.6619 4.40623 15.7816 4.43507 15.9082L3.46006 16.1304Z" fill="black"/>
<path d="M8 9C8 8.44772 8.44772 8 9 8C9.55229 8 10.0001 8.44772 10.0001 9C10.0001 9.55228 9.55239 10 9.0001 10C8.44782 10 8 9.55228 8 9Z" fill="black"/>
<path d="M16.1436 11.0104C16.6901 11.0896 17.069 11.5969 16.9898 12.1435C16.839 13.1832 16.3815 14.1556 15.5979 14.8719C14.8067 15.5951 13.745 16 12.5001 16C11.3588 16 10.2905 15.662 9.43433 15.0746C8.97894 14.7621 8.86307 14.1396 9.17553 13.6842C9.48799 13.2288 10.1105 13.113 10.5659 13.4254C11.0797 13.778 11.7514 14 12.5001 14C13.2952 14 13.861 13.7499 14.2485 13.3957C14.6437 13.0345 14.9162 12.5068 15.0104 11.8565C15.0897 11.31 15.597 10.9311 16.1436 11.0104Z" fill="black"/>
<path d="M15 8C14.4477 8 14 8.44772 14 9C14 9.55228 14.4478 10 15.0001 10C15.5524 10 16.0001 9.55228 16.0001 9C16.0001 8.44772 15.5523 8 15 8Z" fill="black"/>
</svg>
