<svg width="24" height="24" viewBox="0 0 24 24" fill="none" xmlns="http://www.w3.org/2000/svg">
<path fill-rule="evenodd" clip-rule="evenodd" d="M4.51443 4.95859C6.23105 3.0947 8.76349 2 12 2C15.2365 2 17.7689 3.0947 19.4856 4.95859C21.1898 6.80901 22 9.31919 22 12C22 17.4211 18.0223 22 12.9 22H5C3.34315 22 2 20.6569 2 19V12C2 9.31919 2.81021 6.80901 4.51443 4.95859ZM7 10C7 9.44772 7.44772 9 8 9H16C16.5523 9 17 9.44772 17 10C17 10.5523 16.5523 11 16 11H8C7.44772 11 7 10.5523 7 10ZM7 14C7 13.4477 7.44772 13 8 13H12C12.5523 13 13 13.4477 13 14C13 14.5523 12.5523 15 12 15H8C7.44772 15 7 14.5523 7 14Z" fill="black"/>
</svg>
