<svg width="24" height="24" viewBox="0 0 24 24" fill="none" xmlns="http://www.w3.org/2000/svg">
<path fill-rule="evenodd" clip-rule="evenodd" d="M12.0003 2C6.06436 2 1 6.18618 1 11.6452C1 13.4325 1.56178 15.089 2.50632 16.5071C2.50968 16.5385 2.51299 16.5741 2.51592 16.6136C2.53105 16.8178 2.53596 17.1244 2.48801 17.5016C2.39288 18.2501 2.08887 19.2881 1.21913 20.3753C0.950222 20.7114 0.926599 21.182 1.16049 21.5433C1.39438 21.9047 1.83329 22.0759 2.25008 21.9682L7.76662 20.5434C9.0693 21.0203 10.5006 21.2905 12.0003 21.2905C17.9362 21.2905 23.0005 17.1042 23.0005 11.6452C23.0005 6.18618 17.9362 2 12.0003 2ZM8 11C7.44772 11 7 11.4477 7 12C7 12.5523 7.44782 13 8.0001 13C8.55239 13 9.0001 12.5523 9.0001 12C9.0001 11.4477 8.55229 11 8 11ZM16 11C15.4477 11 15 11.4477 15 12C15 12.5523 15.4478 13 16.0001 13C16.5524 13 17.0001 12.5523 17.0001 12C17.0001 11.4477 16.5523 11 16 11ZM12 11C11.4477 11 11 11.4477 11 12C11 12.5523 11.4478 13 12.0001 13C12.5524 13 13.0001 12.5523 13.0001 12C13.0001 11.4477 12.5523 11 12 11Z" fill="black"/>
</svg>
