<svg width="24" height="24" viewBox="0 0 24 24" fill="none" xmlns="http://www.w3.org/2000/svg">
<path fill-rule="evenodd" clip-rule="evenodd" d="M1 11.6452C1 6.18618 6.06436 2 12.0003 2C17.9362 2 23.0005 6.18618 23.0005 11.6452C23.0005 17.1042 17.9362 21.2905 12.0003 21.2905C10.5006 21.2905 9.0693 21.0203 7.76662 20.5434L2.25008 21.9682C1.83329 22.0759 1.39438 21.9047 1.16049 21.5433C0.926599 21.182 0.950222 20.7114 1.21913 20.3753C2.08887 19.2881 2.39288 18.2501 2.48801 17.5016C2.53596 17.1244 2.53105 16.8178 2.51592 16.6136C2.51299 16.5741 2.50968 16.5385 2.50632 16.5071C1.56178 15.089 1 13.4325 1 11.6452ZM16.1436 11.0104C16.6901 11.0896 17.069 11.5969 16.9897 12.1435C16.839 13.1832 16.3815 14.1556 15.5979 14.8719C14.8067 15.5951 13.745 16 12.5001 16C11.3588 16 10.2905 15.662 9.43433 15.0746C8.97894 14.7621 8.86306 14.1396 9.17553 13.6842C9.48799 13.2288 10.1105 13.113 10.5659 13.4254C11.0797 13.778 11.7514 14 12.5001 14C13.2952 14 13.861 13.7499 14.2485 13.3957C14.6437 13.0345 14.9162 12.5068 15.0104 11.8565C15.0897 11.31 15.597 10.9311 16.1436 11.0104ZM9 8C8.44772 8 8 8.44772 8 9C8 9.55228 8.44782 10 9.0001 10C9.55239 10 10.0001 9.55228 10.0001 9C10.0001 8.44772 9.55228 8 9 8ZM15 8C14.4477 8 14 8.44772 14 9C14 9.55228 14.4478 10 15.0001 10C15.5524 10 16.0001 9.55228 16.0001 9C16.0001 8.44772 15.5523 8 15 8Z" fill="black"/>
</svg>
