<svg width="24" height="24" viewBox="0 0 24 24" fill="none" xmlns="http://www.w3.org/2000/svg">
<path fill-rule="evenodd" clip-rule="evenodd" d="M17.669 6.25671C18.0795 6.62617 18.1128 7.25846 17.7433 7.66897L8.74329 17.669C8.55977 17.8729 8.30053 17.9925 8.02629 17.9997C7.75204 18.0069 7.48688 17.9011 7.29289 17.7071L2.29289 12.7071C1.90237 12.3166 1.90237 11.6834 2.29289 11.2929C2.68342 10.9024 3.31658 10.9024 3.70711 11.2929L7.96181 15.5476L16.2567 6.33104C16.6262 5.92053 17.2585 5.88726 17.669 6.25671Z" fill="black"/>
<path fill-rule="evenodd" clip-rule="evenodd" d="M22.669 6.25671C23.0795 6.62617 23.1128 7.25846 22.7433 7.66897L13.7433 17.669C13.5598 17.8729 13.3005 17.9925 13.0263 17.9997C12.752 18.0069 12.4869 17.9011 12.2929 17.7071L10.2929 15.7071C9.90237 15.3166 9.90237 14.6834 10.2929 14.2929C10.6834 13.9024 11.3166 13.9024 11.7071 14.2929L12.9618 15.5476L21.2567 6.33104C21.6262 5.92053 22.2585 5.88726 22.669 6.25671Z" fill="black"/>
</svg>
