<svg width="24" height="24" viewBox="0 0 24 24" fill="none" xmlns="http://www.w3.org/2000/svg">
<path fill-rule="evenodd" clip-rule="evenodd" d="M12 4C7.58172 4 4 7.58172 4 12C4 16.4183 7.58172 20 12 20C16.4183 20 20 16.4183 20 12C20 7.58172 16.4183 4 12 4ZM2 12C2 6.47715 6.47715 2 12 2C17.5228 2 22 6.47715 22 12C22 17.5228 17.5228 22 12 22C6.47715 22 2 17.5228 2 12Z" fill="black"/>
<path fill-rule="evenodd" clip-rule="evenodd" d="M17.1805 8.26721C17.5852 8.64301 17.6086 9.27574 17.2328 9.68045L10.7328 16.6805C10.548 16.8795 10.2901 16.9948 10.0185 16.9998C9.74692 17.0049 9.48497 16.8992 9.29289 16.7071L6.29289 13.7071C5.90237 13.3166 5.90237 12.6834 6.29289 12.2929C6.68342 11.9024 7.31658 11.9024 7.70711 12.2929L9.97333 14.5591L15.7672 8.31955C16.143 7.91484 16.7757 7.8914 17.1805 8.26721Z" fill="black"/>
</svg>
