<svg width="24" height="24" viewBox="0 0 24 24" fill="none" xmlns="http://www.w3.org/2000/svg">
<path fill-rule="evenodd" clip-rule="evenodd" d="M17.8362 6.07089C18.3493 6.53272 18.3909 7.32308 17.9291 7.83622L8.92912 17.8362C8.69971 18.0911 8.37567 18.2406 8.03286 18.2496C7.69006 18.2586 7.3586 18.1264 7.11612 17.8839L2.11612 12.8839C1.62796 12.3957 1.62796 11.6043 2.11612 11.1161C2.60427 10.628 3.39573 10.628 3.88388 11.1161L7.95226 15.1845L16.0709 6.1638C16.5327 5.65067 17.3231 5.60907 17.8362 6.07089Z" fill="black"/>
<path fill-rule="evenodd" clip-rule="evenodd" d="M22.8362 6.07089C23.3493 6.53272 23.3909 7.32308 22.9291 7.83622L13.9291 17.8362C13.6997 18.0911 13.3757 18.2406 13.0329 18.2496C12.6901 18.2586 12.3586 18.1264 12.1161 17.8839L10.1161 15.8839C9.62796 15.3957 9.62796 14.6043 10.1161 14.1161C10.6043 13.628 11.3957 13.628 11.8839 14.1161L12.9523 15.1845L21.0709 6.1638C21.5327 5.65067 22.3231 5.60907 22.8362 6.07089Z" fill="black"/>
</svg>
