<svg width="24" height="24" viewBox="0 0 24 24" fill="none" xmlns="http://www.w3.org/2000/svg">
<path d="M7 2C5.34315 2 4 3.34315 4 5C4 6.65685 5.34315 8 7 8C8.65685 8 10 6.65685 10 5C10 3.34315 8.65685 2 7 2Z" fill="black"/>
<path fill-rule="evenodd" clip-rule="evenodd" d="M2.26667 15.0377L3.59547 11.0513C4.00381 9.82629 5.15023 9 6.44152 9H7.55848C8.84977 9 9.99619 9.82629 10.4045 11.0513L11.7208 15H13V10C13 8.89772 13.8977 8 15 8H20C21.1023 8 22 8.89772 22 10V15.0965C23.1528 15.4124 24 16.4676 24 17.7208C24 18.0132 23.9529 18.3037 23.8604 18.5811L23.7649 18.8675C23.1414 20.7382 21.3907 22 19.4189 22H4.58114C2.60928 22 0.858646 20.7382 0.235089 18.8675L0.13962 18.5811C0.0471451 18.3037 0 18.0132 0 17.7208C0 16.3728 0.980189 15.2539 2.26667 15.0377ZM16 12C16 11.4477 16.4477 11 17 11H18C18.5523 11 19 11.4477 19 12C19 12.5523 18.5523 13 18 13H17C16.4477 13 16 12.5523 16 12Z" fill="black"/>
</svg>
