<svg width="24" height="24" viewBox="0 0 24 24" fill="none" xmlns="http://www.w3.org/2000/svg">
<path fill-rule="evenodd" clip-rule="evenodd" d="M4 5C4 3.34315 5.34315 2 7 2C8.65685 2 10 3.34315 10 5C10 6.65685 8.65685 8 7 8C5.34315 8 4 6.65685 4 5ZM7 4C6.44772 4 6 4.44772 6 5C6 5.55228 6.44772 6 7 6C7.55229 6 8 5.55228 8 5C8 4.44772 7.55229 4 7 4Z" fill="black"/>
<path d="M16 12C16 11.4477 16.4477 11 17 11H18C18.5523 11 19 11.4477 19 12C19 12.5523 18.5523 13 18 13H17C16.4477 13 16 12.5523 16 12Z" fill="black"/>
<path fill-rule="evenodd" clip-rule="evenodd" d="M11.7202 15L10.404 11.0513C9.99566 9.82629 8.84924 9 7.55795 9H6.44098C5.14969 9 4.00327 9.82629 3.59493 11.0513L2.2661 15.0378C0.9799 15.2542 0 16.373 0 17.7208C0 18.0132 0.0471451 18.3037 0.13962 18.5811L0.235089 18.8675C0.858646 20.7382 2.60928 22 4.58114 22H19.4189C21.3907 22 23.1414 20.7382 23.7649 18.8675L23.8604 18.5811C23.9529 18.3037 24 18.0132 24 17.7208C24 16.4676 23.1528 15.4124 22 15.0965V10C22 8.89772 21.1023 8 20 8H15C13.8977 8 13 8.89772 13 10V15H11.7202ZM6.44098 11C6.01055 11 5.62841 11.2754 5.4923 11.6838L4.38689 15H9.61204L8.50663 11.6838C8.37052 11.2754 7.98838 11 7.55795 11H6.44098ZM22 17.7208C22 17.3227 21.6773 17 21.2792 17H2.72076C2.3227 17 2 17.3227 2 17.7208C2 17.7982 2.01249 17.8752 2.03699 17.9487L2.13246 18.2351C2.48378 19.2891 3.47014 20 4.58114 20H19.4189C20.5299 20 21.5162 19.2891 21.8675 18.2351L21.963 17.9487C21.9875 17.8752 22 17.7982 22 17.7208ZM15 15H20V10H15V15Z" fill="black"/>
</svg>
