<svg width="24" height="24" viewBox="0 0 24 24" fill="none" xmlns="http://www.w3.org/2000/svg">
<path fill-rule="evenodd" clip-rule="evenodd" d="M22.0001 7.5C22.0001 9.46125 20.7487 11.1274 19 11.7445V21C19 21.5523 18.5523 22 18 22H6C5.44772 22 5 21.5523 5 21V11.7444C3.25134 11.1274 2 9.4612 2 7.5C2 5.01272 4.01272 3 6.5 3C6.91539 3 7.31864 3.05545 7.70211 3.16118C8.2714 1.32875 9.97905 0 12 0C14.021 0 15.7286 1.32876 16.2979 3.16121C16.6814 3.05545 17.0847 3 17.5001 3C19.9874 3 22.0001 5.01272 22.0001 7.5ZM14 13C14.5523 13 15 13.4477 15 14V16V17C15 17.5523 14.5523 18 14 18C13.4477 18 13 17.5523 13 17V16V14C13 13.4477 13.4477 13 14 13ZM10 18C9.44772 18 9 17.5523 9 17V16V14C9 13.4477 9.44772 13 10 13C10.5523 13 11 13.4477 11 14V16V17C11 17.5523 10.5523 18 10 18Z" fill="black"/>
</svg>
