<svg width="24" height="24" viewBox="0 0 24 24" fill="none" xmlns="http://www.w3.org/2000/svg">
<path fill-rule="evenodd" clip-rule="evenodd" d="M5 11.7444C3.25134 11.1274 2 9.4612 2 7.5C2 5.01272 4.01272 3 6.5 3C6.9154 3 7.31866 3.05545 7.70213 3.16119C8.27142 1.32875 9.97907 0 12 0C14.021 0 15.7286 1.32877 16.2979 3.16122C16.6814 3.05546 17.0847 3 17.5002 3C19.9875 3 22.0002 5.01272 22.0002 7.5C22.0002 9.46128 20.7488 11.1275 19 11.7445V21C19 21.5523 18.5523 22 18 22H6C5.44772 22 5 21.5523 5 21V11.7444ZM9.50925 4.59566C9.50792 4.56097 9.50482 4.52673 9.50003 4.49304C9.50377 3.11354 10.6196 2 12 2C13.3827 2 14.5 3.11728 14.5 4.5L14.5 4.52677L14.4998 4.53712C14.4687 4.85266 14.5881 5.14918 14.8003 5.35436C14.8281 5.38127 14.8575 5.4066 14.8884 5.43021C14.8951 5.43533 14.9019 5.44037 14.9087 5.44533C15.0443 5.54357 15.2063 5.60909 15.3846 5.62889C15.4802 5.63952 15.5742 5.63629 15.6645 5.62081C15.8091 5.59608 15.9505 5.539 16.0778 5.44777C16.4725 5.16484 16.9587 5 17.5002 5C18.8829 5 20.0002 6.11728 20.0002 7.5C20.0002 8.88272 18.8829 10 17.5002 10C16.9479 10 16.5002 10.4477 16.5002 11C16.5002 11.3701 16.7012 11.6932 17 11.8661V16H15V14C15 13.4477 14.5523 13 14 13C13.4477 13 13 13.4477 13 14V16H11V14C11 13.4477 10.5523 13 10 13C9.44772 13 9 13.4477 9 14V16H7V11.8662C7.2989 11.6933 7.5 11.3701 7.5 11C7.5 10.4477 7.05228 10 6.5 10C5.11728 10 4 8.88272 4 7.5C4 6.11728 5.11728 5 6.5 5C7.03962 5 7.52426 5.16367 7.91821 5.44477C8.0837 5.5648 8.28688 5.63501 8.505 5.63501H8.51001C9.06229 5.63501 9.51001 5.18729 9.51001 4.63501C9.51001 4.62183 9.50976 4.60871 9.50925 4.59566ZM7 18V20H17V18H7Z" fill="black"/>
</svg>
