<svg width="24" height="24" viewBox="0 0 24 24" fill="none" xmlns="http://www.w3.org/2000/svg">
<path fill-rule="evenodd" clip-rule="evenodd" d="M13 1C12.4477 1 12 1.44772 12 2C12 2.43249 12.2746 2.80086 12.6589 2.94031C11.4464 3.62827 10.3992 4.61252 9.57194 5.61264C8.7964 6.55024 8.16673 7.55653 7.72678 8.47379C7.68097 8.56931 7.63656 8.6652 7.5938 8.76119C7.39744 9.20188 7.23565 9.64455 7.13081 10.0625C4.22901 10.4836 2 12.9815 2 16C2 19.3137 4.68629 22 8 22C9.53776 22 10.9404 21.4215 12.0022 20.4703C12.5013 20.0231 12.9251 19.4935 13.2522 18.903C13.7287 18.0428 14 17.0531 14 16C14 14.9469 13.7287 13.9573 13.2522 13.097C12.9251 12.5065 12.5013 11.9769 12.0022 11.5297C11.2246 10.8331 10.2642 10.3364 9.20187 10.1204C9.2828 9.89142 9.39068 9.62937 9.53009 9.33871C9.59011 9.21356 9.65468 9.08582 9.72362 8.95613C10.079 8.28766 10.5503 7.56776 11.1131 6.88736C12.2301 5.53685 13.5874 4.47953 15 4.1267V10.0834C14.2963 10.202 13.6339 10.4436 13.0361 10.7846C13.5239 11.2557 13.9458 11.7947 14.2866 12.3862C14.8994 13.4501 15.25 14.6841 15.25 16C15.25 17.3159 14.8994 18.5499 14.2866 19.6138C13.9458 20.2053 13.5239 20.7443 13.0361 21.2154C13.9102 21.714 14.9223 22 16 22C19.3123 22 22 19.3123 22 16C22 13.0284 19.8367 10.5595 17 10.0831V3H19C19.5523 3 20 2.55228 20 2C20 1.44772 19.5523 1 19 1H13ZM9 15.0001C9.51628 15.0001 9.94117 14.6088 9.99438 14.1066C9.9981 14.0716 10 14.036 10 14C10 13.4477 9.55229 13 9 13C8.73665 13 8.49707 13.1018 8.31848 13.2682C8.12254 13.4508 8 13.7112 8 14.0001C8 14.5524 8.44772 15.0001 9 15.0001Z" fill="black"/>
</svg>
