<svg width="24" height="24" viewBox="0 0 24 24" fill="none" xmlns="http://www.w3.org/2000/svg">
<path d="M9 13C9.55228 13 10 13.4477 10 14C10 14.5523 9.55228 15.0001 9 15.0001C8.44772 15.0001 8 14.5524 8 14.0001C8 13.4478 8.44772 13 9 13Z" fill="black"/>
<path fill-rule="evenodd" clip-rule="evenodd" d="M13 1C12.4477 1 12 1.44772 12 2C12 2.43249 12.2746 2.80086 12.6589 2.94031C11.4464 3.62827 10.3992 4.61252 9.57194 5.61264C8.79641 6.55024 8.16673 7.55653 7.72678 8.47379C7.47062 9.00787 7.25849 9.55352 7.13081 10.0625C4.22901 10.4836 2 12.9815 2 16C2 19.3137 4.68629 22 8 22C9.53777 22 10.9404 21.4215 12.0022 20.4702C13.062 21.4193 14.4644 22 16.0001 22C19.3123 22 22.0001 19.3123 22.0001 16C22.0001 13.0284 19.8368 10.5595 17 10.083V3H19C19.5523 3 20 2.55228 20 2C20 1.44772 19.5523 1 19 1H13ZM11.1131 6.88736C12.2301 5.53685 13.5874 4.47953 15 4.1267V10.0834C13.8591 10.2758 12.8269 10.7912 12.0022 11.5298C11.2246 10.8331 10.2643 10.3364 9.20188 10.1204C9.2828 9.89142 9.39068 9.62937 9.53009 9.33871C9.89952 8.56847 10.4411 7.69976 11.1131 6.88736ZM4 16C4 13.7909 5.79086 12 8 12C9.28326 12 10.4254 12.6043 11.1573 13.5438C11.1837 13.5851 11.2134 13.6248 11.2462 13.6623C11.7205 14.3199 12 15.1273 12 16C12 16.8727 11.7205 17.6801 11.2462 18.3377C11.2134 18.3752 11.1837 18.4149 11.1573 18.4562C10.4254 19.3957 9.28326 20 8 20C5.79086 20 4 18.2091 4 16ZM13.2522 13.097C13.7287 13.9573 14 14.947 14 16C14 17.053 13.7287 18.0427 13.2522 18.903C13.9694 19.583 14.9377 20 16.0001 20C18.2078 20 20.0001 18.2077 20.0001 16C20.0001 13.7923 18.2078 12 16.0001 12C14.9377 12 13.9694 12.417 13.2522 13.097Z" fill="black"/>
</svg>
