<svg width="24" height="24" viewBox="0 0 24 24" fill="none" xmlns="http://www.w3.org/2000/svg">
<path fill-rule="evenodd" clip-rule="evenodd" d="M9 6C9.55228 6 10 6.44772 10 7V9C10 9.55228 9.55228 10 9 10C8.44772 10 8 9.55228 8 9V7C8 6.44772 8.44772 6 9 6Z" fill="black"/>
<path fill-rule="evenodd" clip-rule="evenodd" d="M13 6C13.5523 6 14 6.44772 14 7V9C14 9.55228 13.5523 10 13 10C12.4477 10 12 9.55228 12 9V7C12 6.44772 12.4477 6 13 6Z" fill="black"/>
<path fill-rule="evenodd" clip-rule="evenodd" d="M4 3C4 2.44772 4.44772 2 5 2H14.3333C14.6419 2 14.9332 2.14247 15.1227 2.38606L19.7894 8.38606C19.9259 8.56159 20 8.77762 20 9V21C20 21.5523 19.5523 22 19 22H5C4.44772 22 4 21.5523 4 21V3ZM6 4V20H18V9.34311L13.8442 4H6Z" fill="black"/>
</svg>
