<svg width="24" height="24" viewBox="0 0 24 24" fill="none" xmlns="http://www.w3.org/2000/svg">
<path d="M3 1C1.34315 1 0 2.34315 0 4C0 5.65685 1.34315 7 3 7C4.65685 7 6 5.65685 6 4C6 2.34315 4.65685 1 3 1Z" fill="black"/>
<path fill-rule="evenodd" clip-rule="evenodd" d="M12.9487 1.68377C12.8126 1.27543 12.4304 1 12 1C11.5696 1 11.1874 1.27543 11.0513 1.68377L10.2792 4H10C9.44772 4 9 4.44772 9 5V5.88197L7.55279 6.60557C7.214 6.77496 7 7.12123 7 7.5V11C6.44772 11 6 11.4477 6 12V13H2C1.44772 13 1 13.4477 1 14V23C1 23.5523 1.44772 24 2 24H22C22.5523 24 23 23.5523 23 23V9C23 8.44772 22.5523 8 22 8H17V7.5C17 7.12123 16.786 6.77496 16.4472 6.60557L15 5.88197V5C15 4.44772 14.5523 4 14 4H13.7208L12.9487 1.68377ZM17 11C17.5523 11 18 11.4477 18 12V22H21V10H17V11ZM14 21C14 21.5523 13.5523 22 13 22H11C10.4477 22 10 21.5523 10 21C10 20.4477 10.4477 20 11 20H13C13.5523 20 14 20.4477 14 21ZM10 15C10 14.4477 10.4477 14 11 14H13C13.5523 14 14 14.4477 14 15C14 15.5523 13.5523 16 13 16H11C10.4477 16 10 15.5523 10 15ZM10 18C10 17.4477 10.4477 17 11 17H13C13.5523 17 14 17.4477 14 18C14 18.5523 13.5523 19 13 19H11C10.4477 19 10 18.5523 10 18ZM10 12C10 11.4477 10.4477 11 11 11H13C13.5523 11 14 11.4477 14 12C14 12.5523 13.5523 13 13 13H11C10.4477 13 10 12.5523 10 12ZM3 15H6V22H3V15Z" fill="black"/>
</svg>
