<svg width="24" height="24" viewBox="0 0 24 24" fill="none" xmlns="http://www.w3.org/2000/svg">
<path fill-rule="evenodd" clip-rule="evenodd" d="M7 4C5.89543 4 5 4.89543 5 6V18C5 19.1046 5.89543 20 7 20H17C18.1046 20 19 19.1046 19 18V6C19 4.89543 18.1046 4 17 4H16V2H17C19.2091 2 21 3.79086 21 6V18C21 20.2091 19.2091 22 17 22H7C4.79086 22 3 20.2091 3 18V6C3 3.79086 4.79086 2 7 2H8V4H7Z" fill="black"/>
<path fill-rule="evenodd" clip-rule="evenodd" d="M7 3C7 1.34315 8.34315 0 10 0H14C15.6569 0 17 1.34315 17 3C17 4.65685 15.6569 6 14 6H10C8.34315 6 7 4.65685 7 3ZM10 2C9.44772 2 9 2.44772 9 3C9 3.55228 9.44772 4 10 4H14C14.5523 4 15 3.55228 15 3C15 2.44772 14.5523 2 14 2H10Z" fill="black"/>
</svg>
