<svg width="24" height="24" viewBox="0 0 24 24" fill="none" xmlns="http://www.w3.org/2000/svg">
<path d="M18 6C20.685 4.66 19.04 1 19.04 1C19.04 1 23 3.055 23 6.5C23 8.435 21.435 10 19.5 10C17.565 10 16 8.435 16 6.5C16 6.02 16.06 5.57002 16.16 5.15002C16.535 5.91502 17.26 6.37 18 6Z" fill="black"/>
<path d="M12 4C7.58228 4 4 7.58228 4 12C4 16.4177 7.58228 20 12 20C16.1152 20 19.5112 16.8885 19.951 12.8907C20.0114 12.3417 20.5054 11.9456 21.0543 12.006C21.6033 12.0664 21.9994 12.5604 21.939 13.1093C21.3888 18.1115 17.1448 22 12 22C6.47772 22 2 17.5223 2 12C2 6.47772 6.47772 2 12 2C12.569 2 13.1231 2.05023 13.6611 2.13807C14.2062 2.22706 14.5759 2.74106 14.4869 3.28613C14.3979 3.8312 13.8839 4.20092 13.3389 4.11193C12.8969 4.03977 12.451 4 12 4Z" fill="black"/>
<path d="M12 6C12.5523 6 13 6.44772 13 7V11.4648L15.5547 13.1679C16.0142 13.4743 16.1384 14.0952 15.8321 14.5547C15.5257 15.0142 14.9048 15.1384 14.4453 14.8321L11.4453 12.8321C11.1671 12.6466 11 12.3344 11 12V7C11 6.44772 11.4477 6 12 6Z" fill="black"/>
</svg>
