<svg width="24" height="24" viewBox="0 0 24 24" fill="none" xmlns="http://www.w3.org/2000/svg">
<path fill-rule="evenodd" clip-rule="evenodd" d="M7.18585 5.07017C8.35206 3.24378 10.3041 2 12.565 2C15.8449 2 18.4428 4.58427 19.0031 7.83178C21.371 8.63886 23 11.0432 23 13.768C23 17.1113 20.537 20 17.28 20H5.61002C2.96831 20 1 17.6609 1 15C1 13.2932 1.84587 11.5358 3.38567 10.6237C3.10894 9.44249 3.32571 8.17023 3.87938 7.16335C4.51309 6.01092 5.67333 5.07754 7.18585 5.07017ZM17.0864 8.56841C16.821 5.91594 14.8218 4 12.565 4C10.9231 4 9.43418 4.99885 8.62474 6.57648C8.42327 6.96916 7.9882 7.18332 7.55414 7.10349C6.73243 6.95237 6.05631 7.35521 5.63189 8.12705C5.18937 8.93179 5.141 9.95648 5.52571 10.6904C5.66366 10.9535 5.67743 11.2644 5.5633 11.5388C5.44917 11.8131 5.21895 12.0225 4.93504 12.1101C3.78688 12.4647 3 13.6665 3 15C3 16.7551 4.26172 18 5.61002 18H17.28C19.243 18 21 16.2061 21 13.768C21 11.6028 19.5913 9.92432 17.899 9.60386C17.4053 9.51037 17.0598 9.06603 17.0864 8.56841Z" fill="black"/>
</svg>
