<svg width="24" height="24" viewBox="0 0 24 24" fill="none" xmlns="http://www.w3.org/2000/svg">
<path d="M18.7045 8.32613L18.6966 8.32459L18.6935 8.32399H18.7045L18.7013 8.28369C18.6989 8.25375 18.6963 8.22386 18.6935 8.19404C18.6341 7.55408 18.4979 6.93992 18.2954 6.36373C17.3974 3.80851 15.197 2 12.6215 2C10.3445 2 8.35902 3.41599 7.30852 5.50999C4.79041 5.03636 3.1953 7.71652 3.53865 10.017C3.59891 10.4207 3.71887 10.8127 3.90402 11.174C3.49468 11.3033 3.12202 11.4983 2.79036 11.7448C1.6548 12.5886 1 14.0342 1 15.5C1 17.984 2.77652 20 4.97102 20H17.808C20.679 20 23 17.366 23 14.114C23 12.0029 22.0176 10.1519 20.5409 9.11629C19.9893 8.72946 19.3686 8.45641 18.7045 8.32613Z" fill="black"/>
</svg>
