<svg width="24" height="24" viewBox="0 0 24 24" fill="none" xmlns="http://www.w3.org/2000/svg">
<path fill-rule="evenodd" clip-rule="evenodd" d="M18 0C15.581 0 13.5633 1.71776 13.1 4H11.618L9.89443 0.552786C9.72504 0.214002 9.37877 0 9 0H6C5.44772 0 5 0.447715 5 1C5 1.55228 5.44772 2 6 2H8.38197L9.38197 4H3.00002C2.60623 4 2.2491 4.23111 2.08778 4.59034C1.92646 4.94958 1.99099 5.37004 2.25261 5.66436L10 14.3802V20H8C7.44772 20 7 20.4477 7 21C7 21.5523 7.44772 22 8 22H14C14.5523 22 15 21.5523 15 21C15 20.4477 14.5523 20 14 20H12V14.3802L16.1927 9.66339C16.7532 9.88077 17.3627 10 18 10C20.7614 10 23 7.76142 23 5C23 2.23858 20.7614 0 18 0ZM18 2C16.6938 2 15.5825 2.83481 15.1707 4H19C19.3938 4 19.7509 4.23111 19.9123 4.59034C20.0736 4.94958 20.009 5.37004 19.7474 5.66436L17.6858 7.98374C17.789 7.99449 17.8939 8 18 8C19.6569 8 21 6.65685 21 5C21 3.34315 19.6569 2 18 2ZM11.0138 6.00013C11.0025 6.00028 10.9912 6.00024 10.9799 6H5.22686L11 12.4948L14.4936 8.56447C13.7979 7.88005 13.3017 6.99351 13.1 6H11.0217C11.0191 6.00005 11.0164 6.0001 11.0138 6.00013ZM15.1707 6C15.3127 6.40163 15.5377 6.764 15.8252 7.06647L16.7732 6H15.1707Z" fill="black"/>
</svg>
