<svg width="24" height="24" viewBox="0 0 24 24" fill="none" xmlns="http://www.w3.org/2000/svg">
<path fill-rule="evenodd" clip-rule="evenodd" d="M2 7C2 4.23858 4.23858 2 7 2H17C19.7614 2 22 4.23858 22 7V17C22 19.7614 19.7614 22 17 22H7C4.23858 22 2 19.7614 2 17V7ZM10.7071 9.70711C11.0976 9.31658 11.0976 8.68342 10.7071 8.29289C10.3166 7.90237 9.68342 7.90237 9.29289 8.29289L6.29289 11.2929C5.90237 11.6834 5.90237 12.3166 6.29289 12.7071L9.29289 15.7071C9.68342 16.0976 10.3166 16.0976 10.7071 15.7071C11.0976 15.3166 11.0976 14.6834 10.7071 14.2929L8.41421 12L10.7071 9.70711ZM14.7071 8.29289C14.3166 7.90237 13.6834 7.90237 13.2929 8.29289C12.9024 8.68342 12.9024 9.31658 13.2929 9.70711L15.5858 12L13.2929 14.2929C12.9024 14.6834 12.9024 15.3166 13.2929 15.7071C13.6834 16.0976 14.3166 16.0976 14.7071 15.7071L17.7071 12.7071C18.0976 12.3166 18.0976 11.6834 17.7071 11.2929L14.7071 8.29289Z" fill="black"/>
</svg>
