<svg width="24" height="24" viewBox="0 0 24 24" fill="none" xmlns="http://www.w3.org/2000/svg">
<path fill-rule="evenodd" clip-rule="evenodd" d="M8 1C7.66565 1 7.35342 1.1671 7.16795 1.4453L5.40477 4.09007C4.59089 4.34344 4 5.10272 4 6V8C4 8.76494 4.42943 9.42957 5.06037 9.76597L5.85063 19.2491C5.9802 20.804 7.28 22 8.84027 22H15.1597C16.72 22 18.0198 20.804 18.1494 19.2491L18.9396 9.76597C19.5706 9.42957 20 8.76493 20 8V6C20 5.10272 19.4091 4.34344 18.5952 4.09007L16.8321 1.4453C16.6466 1.1671 16.3344 1 16 1H8ZM16.4965 15L16.4132 16H7.5868L7.50347 15L7.42013 14L7.3368 13L7.25347 12H16.7465L16.6632 13L16.5799 14L16.4965 15ZM17.9863 6L18 6.00011V7.99995L17.9884 8H6.01165L6 7.99995V6.00011L6.01368 6H17.9863Z" fill="black"/>
</svg>
