<svg width="24" height="24" viewBox="0 0 24 24" fill="none" xmlns="http://www.w3.org/2000/svg">
<path fill-rule="evenodd" clip-rule="evenodd" d="M7.16806 1.4453C7.35352 1.1671 7.66575 1 8.00011 1H16.0001C16.3345 1 16.6467 1.1671 16.8322 1.4453L18.5954 4.09011C19.4092 4.34353 20 5.10277 20 6V8C20 8.76491 19.5706 9.42953 18.9397 9.76594L18.1494 19.2491C18.0199 20.804 16.7201 22 15.1598 22H8.84032C7.28006 22 5.98026 20.804 5.85068 19.2491L5.06042 9.76601C4.42946 9.42961 4 8.76496 4 8V6C4 5.10267 4.59095 4.34336 5.4049 4.09003L7.16806 1.4453ZM16.7466 12L16.9133 10H7.08686L7.25352 12H16.7466ZM7.84378 19.083L7.58686 16H16.4133L16.1563 19.083C16.1131 19.6013 15.6799 20 15.1598 20H8.84032C8.32023 20 7.88697 19.6013 7.84378 19.083ZM18 6.00011L17.9864 6H6.01378L6 6.00011V7.99994L6.01223 8H17.9879L18 7.99994V6.00011ZM15.4649 3L16.1316 4H7.86862L8.53529 3H15.4649Z" fill="black"/>
</svg>
