<svg width="24" height="24" viewBox="0 0 24 24" fill="none" xmlns="http://www.w3.org/2000/svg">
<path d="M13 2C13 1.44772 12.5523 1 12 1C11.4477 1 11 1.44772 11 2V5C11 5.55228 11.4477 6 12 6C12.5523 6 13 5.55228 13 5V2Z" fill="black"/>
<path d="M9 3C9 2.44772 8.55228 2 8 2C7.44772 2 7 2.44772 7 3V5C7 5.55228 7.44772 6 8 6C8.55228 6 9 5.55228 9 5V3Z" fill="black"/>
<path fill-rule="evenodd" clip-rule="evenodd" d="M4 10C4 8.34315 5.34315 7 7 7H17C18.6569 7 20 8.34315 20 10C22.2091 10 24 11.7909 24 14C24 16.2091 22.2091 18 20 18H19.9C19.75 18.7389 19.4371 19.4186 19.0004 20H20C20.5523 20 21 20.4477 21 21C21 21.5523 20.5523 22 20 22H4C3.44772 22 3 21.5523 3 21C3 20.4477 3.44772 20 4 20H4.99963C4.37194 19.1643 4 18.1256 4 17V10ZM20 16C21.1046 16 22 15.1046 22 14C22 12.8954 21.1046 12 20 12V16Z" fill="black"/>
<path d="M16 2C16.5523 2 17 2.44772 17 3V5C17 5.55228 16.5523 6 16 6C15.4477 6 15 5.55228 15 5V3C15 2.44772 15.4477 2 16 2Z" fill="black"/>
</svg>
