<svg width="24" height="24" viewBox="0 0 24 24" fill="none" xmlns="http://www.w3.org/2000/svg">
<path d="M12 1.75C9.94265 1.75 8.02336 2.35744 6.41629 3.40313C5.83764 3.77964 5.67378 4.55394 6.05029 5.13259C6.4268 5.71124 7.2011 5.8751 7.77975 5.49859C8.99341 4.70889 10.4412 4.25 12 4.25C13.5588 4.25 15.0066 4.70889 16.2203 5.49859C16.7989 5.8751 17.5732 5.71124 17.9497 5.13259C18.3262 4.55394 18.1624 3.77964 17.5837 3.40313C15.9766 2.35744 14.0574 1.75 12 1.75Z" fill="black"/>
<path d="M5.49859 7.77975C5.8751 7.2011 5.71124 6.4268 5.13259 6.05029C4.55394 5.67378 3.77964 5.83764 3.40313 6.41629C2.35744 8.02336 1.75 9.94265 1.75 12C1.75 14.0574 2.35744 15.9766 3.40313 17.5837C3.77964 18.1624 4.55394 18.3262 5.13259 17.9497C5.71124 17.5732 5.8751 16.7989 5.49859 16.2203C4.70889 15.0066 4.25 13.5588 4.25 12C4.25 10.4412 4.70889 8.99341 5.49859 7.77975Z" fill="black"/>
<path d="M20.5969 6.41629C20.2204 5.83764 19.4461 5.67378 18.8674 6.05029C18.2888 6.4268 18.1249 7.2011 18.5014 7.77975C19.2911 8.99341 19.75 10.4412 19.75 12C19.75 13.5588 19.2911 15.0066 18.5014 16.2203C18.1249 16.7989 18.2888 17.5732 18.8674 17.9497C19.4461 18.3262 20.2204 18.1624 20.5969 17.5837C21.6426 15.9766 22.25 14.0574 22.25 12C22.25 9.94265 21.6426 8.02336 20.5969 6.41629Z" fill="black"/>
<path d="M7.77975 18.5014C7.2011 18.1249 6.4268 18.2888 6.05029 18.8674C5.67378 19.4461 5.83764 20.2204 6.41629 20.5969C8.02336 21.6426 9.94265 22.25 12 22.25C14.0574 22.25 15.9766 21.6426 17.5837 20.5969C18.1624 20.2204 18.3262 19.4461 17.9497 18.8674C17.5732 18.2888 16.7989 18.1249 16.2203 18.5014C15.0066 19.2911 13.5588 19.75 12 19.75C10.4412 19.75 8.99341 19.2911 7.77975 18.5014Z" fill="black"/>
<path d="M13.25 7C13.25 6.30964 12.6904 5.75 12 5.75C11.3096 5.75 10.75 6.30964 10.75 7V7.24205C9.60321 7.70291 8.75 8.78134 8.75 10.125C8.75 11.9257 10.2823 13.25 12 13.25C12.4914 13.25 12.75 13.6046 12.75 13.875C12.75 14.1454 12.4914 14.5 12 14.5C11.6254 14.5 11.3661 14.2783 11.2834 14.059C11.0399 13.4131 10.3188 13.0868 9.67284 13.3304C9.02686 13.5739 8.70063 14.295 8.94417 14.941C9.26107 15.7815 9.92692 16.4304 10.75 16.76V17C10.75 17.6904 11.3096 18.25 12 18.25C12.6904 18.25 13.25 17.6904 13.25 17V16.7579C14.3968 16.2971 15.25 15.2187 15.25 13.875C15.25 12.0743 13.7177 10.75 12 10.75C11.5086 10.75 11.25 10.3954 11.25 10.125C11.25 9.85459 11.5086 9.5 12 9.5C12.3746 9.5 12.6339 9.72165 12.7166 9.94097C12.9601 10.5869 13.6812 10.9132 14.3272 10.6696C14.9731 10.4261 15.2994 9.705 15.0558 9.05903C14.7389 8.21848 14.0731 7.56964 13.25 7.24001V7Z" fill="black"/>
</svg>
