<svg width="24" height="24" viewBox="0 0 24 24" fill="none" xmlns="http://www.w3.org/2000/svg">
<path d="M14 6C14.5523 6 15 6.44772 15 7V7.41402C15.8331 7.69616 16.5113 8.32335 16.8219 9.14723C17.0167 9.664 16.7557 10.2409 16.239 10.4357C15.7222 10.6305 15.1453 10.3696 14.9505 9.85277C14.8294 9.53167 14.4739 9.25 14 9.25C13.3859 9.25 13 9.70156 13 10.125C13 10.5484 13.3859 11 14 11C15.5951 11 17 12.2274 17 13.875C17 15.1648 16.1391 16.197 15 16.5846V17C15 17.5523 14.5523 18 14 18C13.4477 18 13 17.5523 13 17V16.586C12.1669 16.3038 11.4887 15.6767 11.1781 14.8528C10.9833 14.336 11.2443 13.7591 11.761 13.5643C12.2778 13.3695 12.8547 13.6304 13.0495 14.1472C13.1706 14.4683 13.5261 14.75 14 14.75C14.6141 14.75 15 14.2984 15 13.875C15 13.4516 14.6141 13 14 13C12.4049 13 11 11.7726 11 10.125C11 8.83524 11.8609 7.803 13 7.41544V7C13 6.44772 13.4477 6 14 6Z" fill="black"/>
<path fill-rule="evenodd" clip-rule="evenodd" d="M11.9995 21.7999C11.3527 21.9312 10.6839 22 10 22C4.47715 22 0 17.5228 0 12C0 6.47715 4.47715 2 10 2C10.6839 2 11.3527 2.0688 11.9995 2.20014C12.6459 2.06889 13.3149 2 14 2C19.5228 2 24 6.47715 24 12C24 17.5228 19.5228 22 14 22C13.3149 22 12.6459 21.9311 11.9995 21.7999ZM7.50386 4.39711C4.30793 5.44575 2 8.45335 2 12C2 15.5466 4.30793 18.5543 7.50387 19.6029C5.35931 17.7688 4 15.0431 4 12C4 8.95687 5.3593 6.23122 7.50386 4.39711ZM14 4C9.58172 4 6 7.58172 6 12C6 16.4183 9.58172 20 14 20C18.4183 20 22 16.4183 22 12C22 7.58172 18.4183 4 14 4Z" fill="black"/>
</svg>
