<svg width="24" height="24" viewBox="0 0 24 24" fill="none" xmlns="http://www.w3.org/2000/svg">
<path fill-rule="evenodd" clip-rule="evenodd" d="M10 22C10.6839 22 11.3527 21.9312 11.9995 21.7999C12.6459 21.9311 13.3149 22 14 22C19.5228 22 24 17.5228 24 12C24 6.47715 19.5228 2 14 2C13.3149 2 12.6459 2.06889 11.9995 2.20014C11.3527 2.0688 10.6839 2 10 2C4.47715 2 0 6.47715 0 12C0 17.5228 4.47715 22 10 22ZM2 12C2 8.45335 4.30793 5.44575 7.50386 4.39711C5.3593 6.23122 4 8.95687 4 12C4 15.0431 5.35931 17.7688 7.50387 19.6029C4.30793 18.5543 2 15.5466 2 12ZM15 7C15 6.44772 14.5523 6 14 6C13.4477 6 13 6.44772 13 7V7.41544C11.8609 7.803 11 8.83524 11 10.125C11 11.7726 12.4049 13 14 13C14.6141 13 15 13.4516 15 13.875C15 14.2984 14.6141 14.75 14 14.75C13.5261 14.75 13.1706 14.4683 13.0495 14.1472C12.8547 13.6304 12.2778 13.3695 11.761 13.5643C11.2443 13.7591 10.9833 14.336 11.1781 14.8528C11.4887 15.6767 12.1669 16.3038 13 16.586V17C13 17.5523 13.4477 18 14 18C14.5523 18 15 17.5523 15 17V16.5846C16.1391 16.197 17 15.1648 17 13.875C17 12.2274 15.5951 11 14 11C13.3859 11 13 10.5484 13 10.125C13 9.70156 13.3859 9.25 14 9.25C14.4739 9.25 14.8294 9.53167 14.9505 9.85277C15.1453 10.3696 15.7222 10.6305 16.239 10.4357C16.7557 10.2409 17.0167 9.664 16.8219 9.14723C16.5113 8.32335 15.8331 7.69616 15 7.41402V7Z" fill="black"/>
</svg>
