<svg width="24" height="24" viewBox="0 0 24 24" fill="none" xmlns="http://www.w3.org/2000/svg">
<path d="M7 2C6.44772 2 6 2.44772 6 3C6 3.55228 6.44772 4 7 4H17C17.5523 4 18 3.55228 18 3C18 2.44772 17.5523 2 17 2H7Z" fill="black"/>
<path d="M4 6C4 5.44772 4.44772 5 5 5H19C19.5523 5 20 5.44772 20 6C20 6.55228 19.5523 7 19 7H5C4.44772 7 4 6.55228 4 6Z" fill="black"/>
<path fill-rule="evenodd" clip-rule="evenodd" d="M5 8C3.34315 8 2 9.34315 2 11V19C2 20.6569 3.34315 22 5 22H19C20.6569 22 22 20.6569 22 19V11C22 9.34315 20.6569 8 19 8H5ZM4 11C4 10.4477 4.44772 10 5 10H19C19.5523 10 20 10.4477 20 11V19C20 19.5523 19.5523 20 19 20H5C4.44772 20 4 19.5523 4 19V11Z" fill="black"/>
</svg>
