<svg width="24" height="24" viewBox="0 0 24 24" fill="none" xmlns="http://www.w3.org/2000/svg">
<path d="M12 1C9.51472 1 7.5 3.01472 7.5 5.5C7.5 7.98528 9.51472 10 12 10C14.4853 10 16.5 7.98528 16.5 5.5C16.5 3.01472 14.4853 1 12 1Z" fill="black"/>
<path fill-rule="evenodd" clip-rule="evenodd" d="M4 18C4 14.134 7.13401 11 11 11H13C16.866 11 20 14.134 20 18V19C20 20.6569 18.6569 22 17 22H7C5.34315 22 4 20.6569 4 19V18ZM12 17.3074L13.7033 13.0491C13.4735 13.0167 13.2387 13 13 13H11C10.7613 13 10.5265 13.0167 10.2967 13.0491L12 17.3074Z" fill="black"/>
</svg>
