<svg width="24" height="24" viewBox="0 0 24 24" fill="none" xmlns="http://www.w3.org/2000/svg">
<path fill-rule="evenodd" clip-rule="evenodd" d="M2 7C2 4.23858 4.23858 2 7 2H17C19.7614 2 22 4.23858 22 7V13C22 15.7614 19.7614 18 17 18H13.3028L7.5547 21.8321C7.24784 22.0366 6.8533 22.0557 6.52814 21.8817C6.20298 21.7077 6 21.3688 6 21V17.9C3.71776 17.4367 2 15.419 2 13V7ZM7 7C6.44772 7 6 7.44772 6 8C6 8.55228 6.44772 9 7 9H17C17.5523 9 18 8.55228 18 8C18 7.44772 17.5523 7 17 7H7ZM6 12C6 11.4477 6.44772 11 7 11H13C13.5523 11 14 11.4477 14 12C14 12.5523 13.5523 13 13 13H7C6.44772 13 6 12.5523 6 12Z" fill="black"/>
</svg>
