<svg width="24" height="24" viewBox="0 0 24 24" fill="none" xmlns="http://www.w3.org/2000/svg">
<path d="M12 14C15 14 16 11.105 16 10H8C8 11.105 9 14 12 14Z" fill="black"/>
<path d="M9 7C9 6.44772 9.44772 6 10 6C10.5523 6 11.0001 6.44772 11.0001 7C11.0001 7.55228 10.5524 8 10.0001 8C9.44782 8 9 7.55228 9 7Z" fill="black"/>
<path d="M14 6C13.4477 6 13 6.44772 13 7C13 7.55228 13.4478 8 14.0001 8C14.5524 8 15.0001 7.55228 15.0001 7C15.0001 6.44772 14.5523 6 14 6Z" fill="black"/>
<path fill-rule="evenodd" clip-rule="evenodd" d="M7 2C4.23858 2 2 4.23858 2 7V14C2 16.2091 3.79086 18 6 18V21C6 21.3688 6.20298 21.7077 6.52814 21.8817C6.8533 22.0557 7.24784 22.0366 7.5547 21.8321L13.3028 18H17C19.7614 18 22 15.7614 22 13V7C22 4.23858 19.7614 2 17 2H7ZM4 7C4 5.34315 5.34315 4 7 4H17C18.6569 4 20 5.34315 20 7V13C20 14.6569 18.6569 16 17 16H13C12.8026 16 12.6096 16.0584 12.4453 16.1679L8 19.1315V17C8 16.4477 7.55228 16 7 16H6C4.89543 16 4 15.1046 4 14V7Z" fill="black"/>
</svg>
