<svg width="24" height="24" viewBox="0 0 24 24" fill="none" xmlns="http://www.w3.org/2000/svg">
<path fill-rule="evenodd" clip-rule="evenodd" d="M7 2C4.23858 2 2 4.23858 2 7V14C2 16.2091 3.79086 18 6 18V21C6 21.3688 6.20298 21.7077 6.52814 21.8817C6.8533 22.0557 7.24784 22.0366 7.5547 21.8321L13.3028 18H17C19.7614 18 22 15.7614 22 13V7C22 4.23858 19.7614 2 17 2H7ZM8 9C7.44772 9 7 9.44772 7 10C7 10.5523 7.44782 11 8.0001 11C8.55238 11 9.0001 10.5523 9.0001 10C9.0001 9.44772 8.55228 9 8 9ZM16 9C15.4477 9 15 9.44772 15 10C15 10.5523 15.4478 11 16.0001 11C16.5524 11 17.0001 10.5523 17.0001 10C17.0001 9.44772 16.5523 9 16 9ZM12 9C11.4477 9 11 9.44772 11 10C11 10.5523 11.4478 11 12.0001 11C12.5524 11 13.0001 10.5523 13.0001 10C13.0001 9.44772 12.5523 9 12 9Z" fill="black"/>
</svg>
