<svg width="24" height="24" viewBox="0 0 24 24" fill="none" xmlns="http://www.w3.org/2000/svg">
<path fill-rule="evenodd" clip-rule="evenodd" d="M7 10C7 9.44772 7.44772 9 8 9C8.55228 9 9.0001 9.44772 9.0001 10C9.0001 10.5523 8.55238 11 8.0001 11C7.44782 11 7 10.5523 7 10Z" fill="black"/>
<path fill-rule="evenodd" clip-rule="evenodd" d="M15 10C15 9.44772 15.4477 9 16 9C16.5523 9 17.0001 9.44772 17.0001 10C17.0001 10.5523 16.5524 11 16.0001 11C15.4478 11 15 10.5523 15 10Z" fill="black"/>
<path fill-rule="evenodd" clip-rule="evenodd" d="M11 10C11 9.44772 11.4477 9 12 9C12.5523 9 13.0001 9.44772 13.0001 10C13.0001 10.5523 12.5524 11 12.0001 11C11.4478 11 11 10.5523 11 10Z" fill="black"/>
<path fill-rule="evenodd" clip-rule="evenodd" d="M2 7C2 4.23858 4.23858 2 7 2H17C19.7614 2 22 4.23858 22 7V13C22 15.7614 19.7614 18 17 18H13.3028L7.5547 21.8321C7.24784 22.0366 6.8533 22.0557 6.52814 21.8817C6.20298 21.7077 6 21.3688 6 21V18C3.79086 18 2 16.2091 2 14V7ZM7 4C5.34315 4 4 5.34315 4 7V14C4 15.1046 4.89543 16 6 16H7C7.55228 16 8 16.4477 8 17V19.1315L12.4453 16.1679C12.6096 16.0584 12.8026 16 13 16H17C18.6569 16 20 14.6569 20 13V7C20 5.34315 18.6569 4 17 4H7Z" fill="black"/>
</svg>
