<svg width="24" height="24" viewBox="0 0 24 24" fill="none" xmlns="http://www.w3.org/2000/svg">
<path fill-rule="evenodd" clip-rule="evenodd" d="M0.75 5C0.75 3.20507 2.20508 1.75 4 1.75H20C21.7949 1.75 23.25 3.20507 23.25 5V15C23.25 16.7949 21.7949 18.25 20 18.25H15V19.75H16C16.6904 19.75 17.25 20.3096 17.25 21C17.25 21.6904 16.6904 22.25 16 22.25H8C7.30964 22.25 6.75 21.6904 6.75 21C6.75 20.3096 7.30964 19.75 8 19.75H9V18.25H4C2.20507 18.25 0.75 16.7949 0.75 15V5ZM4 4.25C3.58579 4.25 3.25 4.58579 3.25 5V15C3.25 15.4142 3.58579 15.75 4 15.75H20C20.4142 15.75 20.75 15.4142 20.75 15V5C20.75 4.58579 20.4142 4.25 20 4.25H4Z" fill="black"/>
</svg>
