<svg width="24" height="24" viewBox="0 0 24 24" fill="none" xmlns="http://www.w3.org/2000/svg">
<path fill-rule="evenodd" clip-rule="evenodd" d="M10.0007 9.99998L7.49312 15.8511C7.31532 16.2659 7.73479 16.6854 8.14965 16.5076L14.0007 14L16.5083 8.14892C16.6861 7.73405 16.2666 7.31459 15.8518 7.49238L10.0007 9.99998ZM12.0007 11C11.4484 11 11.0007 11.4477 11.0007 12C11.0007 12.5523 11.4485 13 12.0008 13C12.5531 13 13.0008 12.5523 13.0008 12C13.0008 11.4477 12.553 11 12.0007 11Z" fill="black"/>
<path fill-rule="evenodd" clip-rule="evenodd" d="M12 2C6.47715 2 2 6.47715 2 12C2 17.5228 6.47715 22 12 22C17.5228 22 22 17.5228 22 12C22 6.47715 17.5228 2 12 2ZM4 12C4 7.58172 7.58172 4 12 4C16.4183 4 20 7.58172 20 12C20 16.4183 16.4183 20 12 20C7.58172 20 4 16.4183 4 12Z" fill="black"/>
</svg>
