<svg width="24" height="24" viewBox="0 0 24 24" fill="none" xmlns="http://www.w3.org/2000/svg">
<path d="M12 1C12.3704 1 12.7105 1.20475 12.8838 1.53211L21.8838 18.5321C21.9601 18.6763 22 18.8369 22 19C22 19.8519 21.4806 20.5041 20.9115 20.9525C20.3309 21.4099 19.5527 21.7783 18.6801 22.0693C16.9245 22.6547 14.5627 23 12 23C9.43727 23 7.07553 22.6547 5.31991 22.0693C4.44733 21.7783 3.66912 21.4099 3.0885 20.9525C2.51936 20.5041 2 19.8519 2 19C2 18.8369 2.0399 18.6763 2.11621 18.5321L11.1162 1.53211C11.2895 1.20475 11.6296 1 12 1Z" fill="black"/>
</svg>
