<svg width="24" height="24" viewBox="0 0 24 24" fill="none" xmlns="http://www.w3.org/2000/svg">
<path fill-rule="evenodd" clip-rule="evenodd" d="M14.9968 3.37219C17.8425 4.24447 20 6.5704 20 9.5C20 10.4254 19.7759 11.2339 19.3089 11.9022C18.9121 12.47 18.3806 12.8784 17.7881 13.1726L13.404 22.4281C13.2385 22.7773 12.8867 23 12.5002 23C12.1138 23 11.7619 22.7773 11.5965 22.4281L7.21248 13.1729C6.61974 12.8787 6.08804 12.4702 5.69111 11.9022C5.22406 11.2339 5 10.4254 5 9.5C5 6.5704 7.15749 4.24447 10.0032 3.37219C10.0697 2.05087 11.1622 1 12.5 1C13.8378 1 14.9303 2.05087 14.9968 3.37219ZM14.2937 5.24148C13.8394 5.70932 13.2036 6 12.5 6C11.7964 6 11.1606 5.70932 10.7063 5.24148C8.47462 5.86806 7 7.62797 7 9.5C7 10.0946 7.13969 10.4836 7.33045 10.7565C7.52469 11.0345 7.82916 11.2737 8.29163 11.4683C9.26242 11.8768 10.702 12 12.5 12C14.298 12 15.7376 11.8768 16.7084 11.4683C17.1708 11.2737 17.4753 11.0345 17.6696 10.7565C17.8603 10.4836 18 10.0946 18 9.5C18 7.62797 16.5254 5.86806 14.2937 5.24148ZM12.5 14C13.4323 14 14.3695 13.9711 15.2488 13.8615L12.5002 19.664L9.75169 13.8615C10.6308 13.9711 11.5679 14 12.5 14ZM12 3.5C12 3.22386 12.2239 3 12.5 3C12.7761 3 13 3.22386 13 3.5C13 3.77614 12.7761 4 12.5 4C12.2239 4 12 3.77614 12 3.5Z" fill="black"/>
</svg>
