<svg width="24" height="24" viewBox="0 0 24 24" fill="none" xmlns="http://www.w3.org/2000/svg">
<path fill-rule="evenodd" clip-rule="evenodd" d="M12.8838 1.53211C12.7105 1.20475 12.3704 1 12 1C11.6296 1 11.2895 1.20475 11.1162 1.53211L2.11621 18.5321C2.0399 18.6763 2 18.8369 2 19C2 19.8519 2.51936 20.5041 3.0885 20.9525C3.66912 21.4099 4.44733 21.7783 5.31991 22.0693C7.07553 22.6547 9.43727 23 12 23C14.5627 23 16.9245 22.6547 18.6801 22.0693C19.5527 21.7783 20.3309 21.4099 20.9115 20.9525C21.4806 20.5041 22 19.8519 22 19C22 18.8369 21.9601 18.6763 21.8838 18.5321L12.8838 1.53211ZM4.32619 19.3814C4.19576 19.2787 4.11423 19.1914 4.06522 19.1252L12 4.13727L19.9348 19.1252C19.8858 19.1914 19.8042 19.2787 19.6738 19.3814C19.3435 19.6417 18.8036 19.9198 18.0474 20.172C16.5455 20.6728 14.4073 21 12 21C9.59273 21 7.45447 20.6728 5.95259 20.172C5.19642 19.9198 4.65651 19.6417 4.32619 19.3814Z" fill="black"/>
</svg>
