<svg width="24" height="24" viewBox="0 0 24 24" fill="none" xmlns="http://www.w3.org/2000/svg">
<path fill-rule="evenodd" clip-rule="evenodd" d="M4.29289 4.29289C4.68342 3.90237 5.31658 3.90237 5.70711 4.29289L10.7071 9.29289C11.0976 9.68342 11.0976 10.3166 10.7071 10.7071C10.3166 11.0976 9.68342 11.0976 9.29289 10.7071L4.29289 5.70711C3.90237 5.31658 3.90237 4.68342 4.29289 4.29289Z" fill="black"/>
<path fill-rule="evenodd" clip-rule="evenodd" d="M6 10H10V6C10 5.44772 10.4477 5 11 5C11.5523 5 12 5.44772 12 6V10C12 11.1046 11.1046 12 10 12H6C5.44772 12 5 11.5523 5 11C5 10.4477 5.44772 10 6 10Z" fill="black"/>
<path fill-rule="evenodd" clip-rule="evenodd" d="M13.2929 13.2929C13.6834 12.9024 14.3166 12.9024 14.7071 13.2929L19.7071 18.2929C20.0976 18.6834 20.0976 19.3166 19.7071 19.7071C19.3166 20.0976 18.6834 20.0976 18.2929 19.7071L13.2929 14.7071C12.9024 14.3166 12.9024 13.6834 13.2929 13.2929Z" fill="black"/>
<path fill-rule="evenodd" clip-rule="evenodd" d="M13 19C12.4477 19 12 18.5523 12 18V14C12 12.8954 12.8954 12 14 12L18 12C18.5523 12 19 12.4477 19 13C19 13.5523 18.5523 14 18 14H14V18C14 18.5523 13.5523 19 13 19Z" fill="black"/>
</svg>
