<svg width="24" height="24" viewBox="0 0 24 24" fill="none" xmlns="http://www.w3.org/2000/svg">
<path d="M4 4.75C3.30964 4.75 2.75 5.30964 2.75 6C2.75 6.69036 3.30964 7.25 4 7.25H20C20.6904 7.25 21.25 6.69036 21.25 6C21.25 5.30964 20.6904 4.75 20 4.75H4Z" fill="black"/>
<path d="M8.75 10C8.75 9.30964 9.30964 8.75 10 8.75H20C20.6904 8.75 21.25 9.30964 21.25 10C21.25 10.6904 20.6904 11.25 20 11.25H10C9.30964 11.25 8.75 10.6904 8.75 10Z" fill="black"/>
<path d="M8.75 14C8.75 13.3096 9.30964 12.75 10 12.75H20C20.6904 12.75 21.25 13.3096 21.25 14C21.25 14.6904 20.6904 15.25 20 15.25H10C9.30964 15.25 8.75 14.6904 8.75 14Z" fill="black"/>
<path d="M21.25 18C21.25 18.6904 20.6904 19.25 20 19.25H4C3.30964 19.25 2.75 18.6904 2.75 18C2.75 17.3096 3.30964 16.75 4 16.75H20C20.6904 16.75 21.25 17.3096 21.25 18Z" fill="black"/>
<path d="M6.88388 10.8839C7.37204 10.3957 7.37204 9.60427 6.88388 9.11612C6.39573 8.62796 5.60427 8.62796 5.11612 9.11612L3.11612 11.1161C2.62796 11.6043 2.62796 12.3957 3.11612 12.8839L5.11612 14.8839C5.60427 15.372 6.39573 15.372 6.88388 14.8839C7.37204 14.3957 7.37204 13.6043 6.88388 13.1161L5.76777 12L6.88388 10.8839Z" fill="black"/>
</svg>
