<svg width="24" height="24" viewBox="0 0 24 24" fill="none" xmlns="http://www.w3.org/2000/svg">
<path d="M4 5C3.44772 5 3 5.44772 3 6C3 6.55228 3.44772 7 4 7H20C20.5523 7 21 6.55228 21 6C21 5.44772 20.5523 5 20 5H4Z" fill="black"/>
<path d="M9 10C9 9.44772 9.44772 9 10 9H20C20.5523 9 21 9.44772 21 10C21 10.5523 20.5523 11 20 11H10C9.44772 11 9 10.5523 9 10Z" fill="black"/>
<path d="M9 14C9 13.4477 9.44772 13 10 13H20C20.5523 13 21 13.4477 21 14C21 14.5523 20.5523 15 20 15H10C9.44772 15 9 14.5523 9 14Z" fill="black"/>
<path d="M21 18C21 18.5523 20.5523 19 20 19H4C3.44772 19 3 18.5523 3 18C3 17.4477 3.44772 17 4 17H20C20.5523 17 21 17.4477 21 18Z" fill="black"/>
<path d="M6.70711 10.7071C7.09763 10.3166 7.09763 9.68342 6.70711 9.29289C6.31658 8.90237 5.68342 8.90237 5.29289 9.29289L3.29289 11.2929C2.90237 11.6834 2.90237 12.3166 3.29289 12.7071L5.29289 14.7071C5.68342 15.0976 6.31658 15.0976 6.70711 14.7071C7.09763 14.3166 7.09763 13.6834 6.70711 13.2929L5.41421 12L6.70711 10.7071Z" fill="black"/>
</svg>
