<svg width="24" height="24" viewBox="0 0 24 24" fill="none" xmlns="http://www.w3.org/2000/svg">
<path fill-rule="evenodd" clip-rule="evenodd" d="M5 3C2.79086 3 1 4.79086 1 7V9C1 9.52447 1.4051 9.95946 1.92752 9.99737L1.93638 9.99818C1.94748 9.99927 1.96806 10.0015 1.99674 10.0053C2.0544 10.013 2.14298 10.027 2.25182 10.0512C2.47378 10.1005 2.75695 10.187 3.02941 10.3324C3.53692 10.603 4 11.0551 4 12C4 12.9449 3.53692 13.397 3.02941 13.6676C2.75695 13.813 2.47378 13.8995 2.25182 13.9488C2.14298 13.973 2.0544 13.987 1.99674 13.9947C1.96806 13.9985 1.94748 14.0007 1.93638 14.0018L1.92757 14.0026C1.40512 14.0405 1 14.4755 1 15V17C1 19.2091 2.79086 21 5 21H19C21.2091 21 23 19.2091 23 17V15C23 14.4755 22.5941 14.0405 22.0717 14.0026L22.0636 14.0018C22.0525 14.0007 22.0319 13.9985 22.0033 13.9947C21.9456 13.987 21.857 13.973 21.7482 13.9488C21.5262 13.8995 21.2431 13.813 20.9706 13.6676C20.4631 13.397 20 12.9449 20 12C20 11.0551 20.4631 10.603 20.9706 10.3324C21.2431 10.187 21.5262 10.1005 21.7482 10.0512C21.857 10.027 21.9456 10.013 22.0033 10.0053C22.0319 10.0015 22.0525 9.99927 22.0636 9.99818L22.0725 9.99737C22.5949 9.95946 23 9.52447 23 9V7C23 4.79086 21.2091 3 19 3H5ZM10 11.5C10 10.9477 9.55229 10.5 9 10.5C8.44772 10.5 8 10.9477 8 11.5V12.5C8 13.0523 8.44772 13.5 9 13.5C9.55229 13.5 10 13.0523 10 12.5V11.5ZM10 7C10 6.44772 9.55229 6 9 6C8.44772 6 8 6.44772 8 7V8C8 8.55228 8.44772 9 9 9C9.55229 9 10 8.55228 10 8V7ZM10 16C10 15.4477 9.55229 15 9 15C8.44772 15 8 15.4477 8 16V17C8 17.5523 8.44772 18 9 18C9.55229 18 10 17.5523 10 17V16Z" fill="black"/>
</svg>
