<svg width="24" height="24" viewBox="0 0 24 24" fill="none" xmlns="http://www.w3.org/2000/svg">
<path fill-rule="evenodd" clip-rule="evenodd" d="M4 3C2.34315 3 1 4.34315 1 6V9C1 9.52447 1.4051 9.95946 1.92752 9.99737L1.93638 9.99818C1.94748 9.99927 1.96806 10.0015 1.99674 10.0053C2.0544 10.013 2.14298 10.027 2.25182 10.0512C2.47378 10.1005 2.75695 10.187 3.02941 10.3324C3.53692 10.603 4 11.0551 4 12C4 12.9449 3.53692 13.397 3.02941 13.6676C2.75695 13.813 2.47378 13.8995 2.25182 13.9488C2.14298 13.973 2.0544 13.987 1.99674 13.9947C1.96806 13.9985 1.94748 14.0007 1.93638 14.0018L1.92757 14.0026C1.40512 14.0405 1 14.4755 1 15V18C1 19.6569 2.34315 21 4 21H20C21.6569 21 23 19.6569 23 18V6C23 4.34315 21.6569 3 20 3H4ZM10 7.5C9.17157 7.5 8.5 8.17157 8.5 9C8.5 9.82843 9.17167 10.5 10.0001 10.5C10.8285 10.5 11.5001 9.82843 11.5001 9C11.5001 8.17157 10.8284 7.5 10 7.5ZM16 13.5C15.1716 13.5 14.5 14.1716 14.5 15C14.5 15.8284 15.1717 16.5 16.0001 16.5C16.8285 16.5 17.5001 15.8284 17.5001 15C17.5001 14.1716 16.8284 13.5 16 13.5ZM16.7071 9.70711C17.0976 9.31658 17.0976 8.68342 16.7071 8.29289C16.3166 7.90237 15.6834 7.90237 15.2929 8.29289L9.29289 14.2929C8.90237 14.6834 8.90237 15.3166 9.29289 15.7071C9.68342 16.0976 10.3166 16.0976 10.7071 15.7071L16.7071 9.70711Z" fill="black"/>
</svg>
