<svg width="24" height="24" viewBox="0 0 24 24" fill="none" xmlns="http://www.w3.org/2000/svg">
<path d="M20 3C20.5523 3 21 3.44772 21 4V6H23C23.5523 6 24 6.44772 24 7C24 7.55228 23.5523 8 23 8H21V10C21 10.5523 20.5523 11 20 11C19.4477 11 19 10.5523 19 10V8H17C16.4477 8 16 7.55228 16 7C16 6.44772 16.4477 6 17 6H19V4C19 3.44772 19.4477 3 20 3Z" fill="black"/>
<path d="M4 20C2.34315 20 1 18.6569 1 17V7C1 5.34315 2.34315 4 4 4H13.7C14.2523 4 14.7 4.44772 14.7 5C14.7 5.55228 14.2523 6 13.7 6H4C3.44772 6 3 6.44772 3 7V9H14C14.5523 9 15 9.44772 15 10C15 10.5523 14.5523 11 14 11H3V17C3 17.5523 3.44772 18 4 18H18C18.5523 18 19 17.5523 19 17V13.875C19 13.3227 19.4477 12.875 20 12.875C20.5523 12.875 21 13.3227 21 13.875V17C21 18.6569 19.6569 20 18 20H4Z" fill="black"/>
</svg>
