<svg width="24" height="24" viewBox="0 0 24 24" fill="none" xmlns="http://www.w3.org/2000/svg">
<path fill-rule="evenodd" clip-rule="evenodd" d="M14 16C14 15.4477 14.4477 15 15 15H18C18.5523 15 19 15.4477 19 16C19 16.5523 18.5523 17 18 17H15C14.4477 17 14 16.5523 14 16Z" fill="black"/>
<path fill-rule="evenodd" clip-rule="evenodd" d="M1 9H23V11H1V9Z" fill="black"/>
<path fill-rule="evenodd" clip-rule="evenodd" d="M5 16C5 15.4477 5.44772 15 6 15H7C7.55228 15 8 15.4477 8 16C8 16.5523 7.55228 17 7 17H6C5.44772 17 5 16.5523 5 16Z" fill="black"/>
<path fill-rule="evenodd" clip-rule="evenodd" d="M1 6C1 4.34315 2.34315 3 4 3H20C21.6569 3 23 4.34315 23 6V18C23 19.6569 21.6569 21 20 21H4C2.34315 21 1 19.6569 1 18V6ZM4 5C3.44772 5 3 5.44772 3 6V18C3 18.5523 3.44772 19 4 19H20C20.5523 19 21 18.5523 21 18V6C21 5.44772 20.5523 5 20 5H4Z" fill="black"/>
</svg>
