<svg width="24" height="24" viewBox="0 0 24 24" fill="none" xmlns="http://www.w3.org/2000/svg">
<path d="M1 6C1 4.34315 2.34315 3 4 3H20C21.6569 3 23 4.34315 23 6V9H21H3H1V6Z" fill="black"/>
<path fill-rule="evenodd" clip-rule="evenodd" d="M20 21C21.6569 21 23 19.6569 23 18V11H21H3H1V18C1 19.6569 2.34315 21 4 21H20ZM14 16C14 15.4477 14.4477 15 15 15H18C18.5523 15 19 15.4477 19 16C19 16.5523 18.5523 17 18 17H15C14.4477 17 14 16.5523 14 16ZM5 16C5 15.4477 5.44772 15 6 15H7C7.55228 15 8 15.4477 8 16C8 16.5523 7.55228 17 7 17H6C5.44772 17 5 16.5523 5 16Z" fill="black"/>
</svg>
