<svg width="24" height="24" viewBox="0 0 24 24" fill="none" xmlns="http://www.w3.org/2000/svg">
<g clip-path="url(#clip0_30_21960)">
<path d="M21 4C21 3.44772 20.5523 3 20 3C19.4477 3 19 3.44772 19 4V4.17071V6H17C16.4477 6 16 6.44772 16 7C16 7.55228 16.4477 8 17 8H19V9V10C19 10.5523 19.4477 11 20 11C20.5523 11 21 10.5523 21 10V8H23C23.5523 8 24 7.55228 24 7C24 6.44772 23.5523 6 23 6H21V4Z" fill="black"/>
<path d="M4 6C3.44772 6 3 6.44772 3 7V9H15.9682C15.2446 8.62594 14.75 7.87073 14.75 7C14.75 6.64079 14.8342 6.30124 14.9839 6H4Z" fill="black"/>
<path d="M3 17C3 17.5523 3.44772 18 4 18H18C18.5523 18 19 17.5523 19 17V12.0161C18.5604 11.7976 18.2024 11.4396 17.9839 11H3V17Z" fill="black"/>
<path fill-rule="evenodd" clip-rule="evenodd" d="M17.75 4H4C2.34315 4 1 5.34315 1 7V9H3V7C3 6.44772 3.44772 6 4 6H14.9839C15.3521 5.25914 16.1166 4.75 17 4.75H17.75V4ZM16 7C16 6.44772 16.4477 6 17 6H18H19V4.17071V4C19 3.44772 19.4477 3 20 3C20.5523 3 21 3.44772 21 4V6H23C23.5523 6 24 6.44772 24 7C24 7.55228 23.5523 8 23 8H21V10C21 10.5523 20.5523 11 20 11C19.4477 11 19 10.5523 19 10V9V8H17C16.4477 8 16 7.55228 16 7ZM1 17V11H3V17C3 17.5523 3.44772 18 4 18H18C18.5523 18 19 17.5523 19 17V12.0161C19.3012 12.1658 19.6408 12.25 20 12.25C20.3592 12.25 20.6988 12.1658 21 12.0161V17C21 18.6569 19.6569 20 18 20H4C2.34315 20 1 18.6569 1 17Z" fill="black"/>
</g>
<defs>
<clipPath id="clip0_30_21960">
<rect width="24" height="24" fill="white"/>
</clipPath>
</defs>
</svg>
