<svg width="24" height="24" viewBox="0 0 24 24" fill="none" xmlns="http://www.w3.org/2000/svg">
<path fill-rule="evenodd" clip-rule="evenodd" d="M1.75 6C1.75 5.30965 2.30964 4.75 3 4.75H16C17.7949 4.75 19.25 6.20508 19.25 8V21C19.25 21.6904 18.6904 22.25 18 22.25C17.3096 22.25 16.75 21.6904 16.75 21V8C16.75 7.58579 16.4142 7.25 16 7.25H3C2.30964 7.25 1.75 6.69036 1.75 6Z" fill="black"/>
<path fill-rule="evenodd" clip-rule="evenodd" d="M22.25 18C22.25 18.6904 21.6904 19.25 21 19.25L8 19.25C6.20507 19.25 4.75 17.7949 4.75 16L4.75 3C4.75 2.30964 5.30965 1.75 6 1.75C6.69036 1.75 7.25 2.30964 7.25 3L7.25 16C7.25 16.4142 7.58579 16.75 8 16.75L21 16.75C21.6904 16.75 22.25 17.3096 22.25 18Z" fill="black"/>
</svg>
