<svg width="24" height="24" viewBox="0 0 24 24" fill="none" xmlns="http://www.w3.org/2000/svg">
<path d="M12 1C12.3788 1 12.7251 1.214 12.8945 1.55279L16.4115 8.58691L20.4855 6.14251C20.8222 5.9405 21.246 5.95421 21.5689 6.17756C21.8918 6.40092 22.0541 6.79258 21.9839 7.17889L20.2825 16.5367C20.0231 17.9631 18.7807 19 17.3309 19H6.66919C5.21933 19 3.97694 17.9631 3.71758 16.5367L2.01617 7.17889C1.94593 6.79258 2.10826 6.40092 2.43118 6.17756C2.7541 5.95421 3.17785 5.9405 3.51453 6.14251L7.58854 8.58691L11.1056 1.55279C11.275 1.214 11.6213 1 12 1Z" fill="black"/>
<path d="M4.00004 21.0007C3.99964 20.4484 4.44704 20.0004 4.99932 20L19.0032 19.99C19.5555 19.9896 20.0036 20.437 20.0039 20.9893C20.0043 21.5416 19.5569 21.9896 19.0047 21.99L5.00075 22C4.44847 22.0004 4.00043 21.553 4.00004 21.0007Z" fill="black"/>
</svg>
