<svg width="24" height="24" viewBox="0 0 24 24" fill="none" xmlns="http://www.w3.org/2000/svg">
<path fill-rule="evenodd" clip-rule="evenodd" d="M12 4C7.58172 4 4 7.58172 4 12C4 16.4183 7.58172 20 12 20C16.4183 20 20 16.4183 20 12C20 7.58172 16.4183 4 12 4ZM2 12C2 6.47715 6.47715 2 12 2C17.5228 2 22 6.47715 22 12C22 17.5228 17.5228 22 12 22C6.47715 22 2 17.5228 2 12Z" fill="black"/>
<path fill-rule="evenodd" clip-rule="evenodd" d="M9.89443 8.55279C10.1414 9.04677 9.94119 9.64744 9.44721 9.89443L7.44721 10.8944C6.95324 11.1414 6.35256 10.9412 6.10557 10.4472C5.85858 9.95324 6.05881 9.35256 6.55279 9.10557L8.55279 8.10557C9.04677 7.85858 9.64744 8.05881 9.89443 8.55279Z" fill="black"/>
<path fill-rule="evenodd" clip-rule="evenodd" d="M9.89443 8.55279C10.1414 9.04677 9.94119 9.64744 9.44721 9.89443L7.44721 10.8944C6.95324 11.1414 6.35256 10.9412 6.10557 10.4472C5.85858 9.95324 6.05881 9.35256 6.55279 9.10557L8.55279 8.10557C9.04677 7.85858 9.64744 8.05881 9.89443 8.55279Z" fill="black"/>
<path fill-rule="evenodd" clip-rule="evenodd" d="M14.1056 8.55279C14.3526 8.05881 14.9532 7.85858 15.4472 8.10557L17.4472 9.10557C17.9412 9.35256 18.1414 9.95323 17.8944 10.4472C17.6474 10.9412 17.0468 11.1414 16.5528 10.8944L14.5528 9.89443C14.0588 9.64744 13.8586 9.04676 14.1056 8.55279Z" fill="black"/>
<path fill-rule="evenodd" clip-rule="evenodd" d="M14.1056 8.55279C14.3526 8.05881 14.9532 7.85858 15.4472 8.10557L17.4472 9.10557C17.9412 9.35256 18.1414 9.95323 17.8944 10.4472C17.6474 10.9412 17.0468 11.1414 16.5528 10.8944L14.5528 9.89443C14.0588 9.64744 13.8586 9.04676 14.1056 8.55279Z" fill="black"/>
<path fill-rule="evenodd" clip-rule="evenodd" d="M11 14C11 13.4477 11.4477 13 12 13C12.5523 13 13.0001 13.4477 13.0001 14C13.0001 14.5523 12.5524 15 12.0001 15C11.4478 15 11 14.5523 11 14Z" fill="black"/>
<path fill-rule="evenodd" clip-rule="evenodd" d="M11 14C11 13.4477 11.4477 13 12 13C12.5523 13 13.0001 13.4477 13.0001 14C13.0001 14.5523 12.5524 15 12.0001 15C11.4478 15 11 14.5523 11 14Z" fill="black"/>
<path fill-rule="evenodd" clip-rule="evenodd" d="M8 9C8.55228 9 9 9.44772 9 10V20C9 20.5523 8.55228 21 8 21C7.44772 21 7 20.5523 7 20V10C7 9.44772 7.44772 9 8 9ZM16 9C16.5523 9 17 9.44772 17 10V19.5C17 20.0523 16.5523 20.5 16 20.5C15.4477 20.5 15 20.0523 15 19.5V10C15 9.44772 15.4477 9 16 9Z" fill="black"/>
</svg>
