<svg width="24" height="24" viewBox="0 0 24 24" fill="none" xmlns="http://www.w3.org/2000/svg">
<path fill-rule="evenodd" clip-rule="evenodd" d="M13.6246 1.34691C12.5903 0.884361 11.4097 0.884362 10.3754 1.34692L4.37545 4.0303C2.93093 4.67633 2 6.11779 2 7.70846V15.9561C2 17.4807 2.85601 18.8744 4.21114 19.5563L10.2111 22.5751C11.3373 23.1416 12.6627 23.1416 13.7889 22.5751L19.7889 19.5563C21.144 18.8744 22 17.4807 22 15.9561V7.70846C22 6.11779 21.0691 4.67633 19.6246 4.0303L13.6246 1.34691ZM13 10.4456L19.9936 7.5478C19.9979 7.60094 20 7.65453 20 7.70846V15.9561C20 16.7184 19.572 17.4153 18.8944 17.7562L13 20.7219V10.4456ZM4.00636 7.5478L11 10.4456V20.7219L5.10557 17.7562C4.428 17.4153 4 16.7184 4 15.9561V7.70846C4 7.65453 4.00214 7.60094 4.00636 7.5478Z" fill="black"/>
</svg>
