<svg width="24" height="24" viewBox="0 0 24 24" fill="none" xmlns="http://www.w3.org/2000/svg">
<path fill-rule="evenodd" clip-rule="evenodd" d="M4.06166 8.00187C4.55293 4.05465 7.91974 1 12 1C16.0796 1 19.446 4.05369 19.9381 8H21C22.6569 8 24 9.34315 24 11V14C24 15.6569 22.6569 17 21 17C20.6494 17 20.3128 16.9398 20 16.8293V17C20 19.2091 18.2091 21 16 21H14.7324C14.3866 21.5978 13.7403 22 13 22C11.8954 22 11 21.1046 11 20C11 18.8954 11.8954 18 13 18C13.7403 18 14.3866 18.4022 14.7324 19H16C17.1046 19 18 18.1046 18 17V9C18 5.68629 15.3137 3 12 3C8.68629 3 6 5.68629 6 9V14C6 15.6569 4.65685 17 3 17C1.34315 17 0 15.6569 0 14V11C0 9.34315 1.34315 8 3 8H4C4.02071 8 4.04127 8.00063 4.06166 8.00187ZM21 15C20.4477 15 20 14.5523 20 14V10H21C21.5523 10 22 10.4477 22 11V14C22 14.5523 21.5523 15 21 15ZM3 15C3.55228 15 4 14.5523 4 14V10H3C2.44772 10 2 10.4477 2 11V14C2 14.5523 2.44772 15 3 15Z" fill="black"/>
</svg>
