<svg width="24" height="24" viewBox="0 0 24 24" fill="none" xmlns="http://www.w3.org/2000/svg">
<path d="M13.4212 5.06153L13.4142 5.05447C12.6332 4.27196 11.3668 4.27196 10.5858 5.05447L7.08579 8.56105C6.30474 9.34356 6.30474 10.6123 7.08579 11.3948L7.09271 11.4017C7.14868 11.5227 7.22981 11.6344 7.33564 11.7286L11 14.9919V18.9948C11 19.5481 11.4477 19.9967 12 19.9967C12.5523 19.9967 13 19.5481 13 18.9948V14.542C13 14.2559 12.8779 13.9833 12.6644 13.7932L9.94102 11.3679L13.2823 8.02038L13.5594 8.39131L13.5608 8.39318C14.7702 10.0043 16.5697 10.9798 18.515 10.9798H19C19.5523 10.9798 20 10.5312 20 9.97792C20 9.4246 19.5523 8.97604 19 8.97604H18.515C17.2607 8.97604 16.0304 8.34889 15.1599 7.18972L15.1592 7.18881L13.8006 5.37009C13.6979 5.23255 13.5666 5.12901 13.4212 5.06153Z" fill="black"/>
<path fill-rule="evenodd" clip-rule="evenodd" d="M0 16.9911C0 14.2245 2.23858 11.9817 5 11.9817C7.76142 11.9817 10 14.2245 10 16.9911C10 19.7577 7.76142 22.0005 5 22.0005C2.23858 22.0005 0 19.7577 0 16.9911ZM5 13.9854C3.34315 13.9854 2 15.3311 2 16.9911C2 18.651 3.34315 19.9967 5 19.9967C6.65685 19.9967 8 18.651 8 16.9911C8 15.3311 6.65685 13.9854 5 13.9854Z" fill="black"/>
<path fill-rule="evenodd" clip-rule="evenodd" d="M19 11.9817C16.2386 11.9817 14 14.2245 14 16.9911C14 19.7577 16.2386 22.0005 19 22.0005C21.7614 22.0005 24 19.7577 24 16.9911C24 14.2245 21.7614 11.9817 19 11.9817ZM16 16.9911C16 15.3311 17.3431 13.9854 19 13.9854C20.6569 13.9854 22 15.3311 22 16.9911C22 18.651 20.6569 19.9967 19 19.9967C17.3431 19.9967 16 18.651 16 16.9911Z" fill="black"/>
<path d="M16 1.96289C14.8954 1.96289 14 2.86 14 3.96665C14 5.07329 14.8955 5.9704 16.0001 5.9704C17.1047 5.9704 18.0001 5.07329 18.0001 3.96665C18.0001 2.86 17.1046 1.96289 16 1.96289Z" fill="black"/>
</svg>
