<svg width="24" height="24" viewBox="0 0 24 24" fill="none" xmlns="http://www.w3.org/2000/svg">
<path fill-rule="evenodd" clip-rule="evenodd" d="M12 1C10.0012 1 8.15442 1.23029 6.77553 1.62426C6.09289 1.8193 5.46776 2.07035 4.99033 2.39285C4.54781 2.69178 4 3.21636 4 4V20C4 20.7838 4.54789 21.3084 4.99053 21.6074C5.46805 21.9299 6.09328 22.1809 6.77597 22.3759C8.15496 22.7698 10.0017 23 12 23C13.9983 23 15.845 22.7698 17.224 22.3759C17.9067 22.1809 18.532 21.9299 19.0095 21.6074C19.4521 21.3084 20 20.7838 20 20V4C20 3.21636 19.4522 2.69178 19.0097 2.39285C18.5322 2.07035 17.9071 1.8193 17.2245 1.62426C15.8456 1.23029 13.9988 1 12 1ZM7.32497 3.54731C6.80251 3.69658 6.42735 3.85628 6.18867 4C6.42735 4.14372 6.80251 4.30342 7.32497 4.45269C8.47958 4.78258 10.1328 5 12 5C13.8672 5 15.5204 4.78258 16.675 4.45269C17.1975 4.30342 17.5726 4.14372 17.8113 4C17.5726 3.85628 17.1975 3.69658 16.675 3.54731C15.5204 3.21742 13.8672 3 12 3C10.1328 3 8.47958 3.21742 7.32497 3.54731ZM18 6.1178C17.7541 6.21313 17.4938 6.29879 17.2245 6.37574C15.8456 6.76971 13.9988 7 12 7C10.0012 7 8.15442 6.76971 6.77553 6.37574C6.50622 6.29879 6.24587 6.21313 6 6.1178V19.8672C6.02403 19.8881 6.05935 19.9158 6.10994 19.95C6.34102 20.1061 6.7411 20.286 7.32528 20.4528C8.48004 20.7827 10.1333 21 12 21C13.8667 21 15.52 20.7827 16.6747 20.4528C17.2589 20.286 17.659 20.1061 17.8901 19.95C17.9406 19.9158 17.976 19.8881 18 19.8672V6.1178Z" fill="black"/>
</svg>
