<svg width="24" height="24" viewBox="0 0 24 24" fill="none" xmlns="http://www.w3.org/2000/svg">
<path fill-rule="evenodd" clip-rule="evenodd" d="M20 14C20 9.58172 16.4183 6 12 6C7.58172 6 4 9.58172 4 14C4 14.5523 3.55228 15 3 15C2.44772 15 2 14.5523 2 14C2 8.47715 6.47715 4 12 4C17.5228 4 22 8.47715 22 14C22 14.5523 21.5523 15 21 15C20.4477 15 20 14.5523 20 14Z" fill="black"/>
<path fill-rule="evenodd" clip-rule="evenodd" d="M12 13C12.5523 13 13 12.5523 13 12V9C13 8.44771 12.5523 8 12 8C11.4477 8 11 8.44771 11 9V12C11 12.5523 11.4477 13 12 13Z" fill="black"/>
<path fill-rule="evenodd" clip-rule="evenodd" d="M12 16C11.4477 16 11 15.5523 11 15C11 14.4477 11.4477 14 12 14C12.5523 14 13 14.4477 13 15C13 15.5523 12.5523 16 12 16ZM9 15C9 16.6569 10.3431 18 12 18C13.6569 18 15 16.6569 15 15C15 13.3431 13.6569 12 12 12C10.3431 12 9 13.3431 9 15Z" fill="black"/>
</svg>
