<svg width="24" height="24" viewBox="0 0 24 24" fill="none" xmlns="http://www.w3.org/2000/svg">
<path d="M16.8817 10.4719C16.7077 10.797 16.3688 11 16 11H8C7.44771 11 7 10.5523 7 10C7 9.44772 7.44771 9 8 9H14.1315L13.1679 7.5547C12.8616 7.09517 12.9858 6.4743 13.4453 6.16795C13.9048 5.8616 14.5257 5.98577 14.832 6.4453L16.832 9.4453C17.0366 9.75216 17.0557 10.1467 16.8817 10.4719Z" fill="black"/>
<path d="M7.11833 13.5281C7.29235 13.203 7.63121 13 8 13H16C16.5523 13 17 13.4477 17 14C17 14.5523 16.5523 15 16 15H9.86852L10.8321 16.4453C11.1384 16.9048 11.0142 17.5257 10.5547 17.8321C10.0952 18.1384 9.4743 18.0142 9.16795 17.5547L7.16795 14.5547C6.96338 14.2478 6.94431 13.8533 7.11833 13.5281Z" fill="black"/>
<path fill-rule="evenodd" clip-rule="evenodd" d="M19.0711 4.92893C15.1658 1.02369 8.83417 1.02369 4.92893 4.92893C1.02369 8.83418 1.02369 15.1658 4.92893 19.0711C8.83418 22.9763 15.1658 22.9763 19.0711 19.0711C22.9763 15.1658 22.9763 8.83418 19.0711 4.92893ZM6.34315 6.34315C9.46734 3.21895 14.5327 3.21895 17.6569 6.34315C20.781 9.46734 20.781 14.5327 17.6569 17.6569C14.5327 20.781 9.46734 20.781 6.34315 17.6569C3.21895 14.5327 3.21895 9.46734 6.34315 6.34315Z" fill="black"/>
</svg>
