<svg width="24" height="24" viewBox="0 0 24 24" fill="none" xmlns="http://www.w3.org/2000/svg">
<path d="M19.1617 19.8702C19.64 19.3855 20 18.7524 20 18V13.0295C17.9072 14.9636 14.891 15.875 12.0002 15.875C11.3359 15.875 10.6649 15.8269 10 15.7292V15.8833V17C10 17.5523 9.55229 18 9 18C8.44772 18 8 17.5523 8 17V15.502V15.2752C6.509 14.8089 5.1218 14.0659 4 13.029V17.9999C4 18.7523 4.36003 19.3855 4.83835 19.8702C5.31243 20.3505 5.94885 20.7373 6.65634 21.0405C8.07486 21.6484 9.96482 22 12 22C14.0352 22 15.9251 21.6484 17.3437 21.0405C18.0512 20.7373 18.6876 20.3505 19.1617 19.8702Z" fill="black"/>
<path fill-rule="evenodd" clip-rule="evenodd" d="M4.83835 4.12983C4.36003 4.61449 4 5.24762 4 6V9.7709C5.33724 12.4171 8.55559 13.875 12.0002 13.875C15.4445 13.875 18.6625 12.4175 20 9.77185V6C20 5.24762 19.64 4.61449 19.1617 4.12983C18.6876 3.64947 18.0512 3.26274 17.3437 2.95953C15.9251 2.3516 14.0352 2 12 2C9.96482 2 8.07486 2.3516 6.65634 2.95953C5.94885 3.26274 5.31243 3.64947 4.83835 4.12983ZM6.26184 5.5347C6.03173 5.76787 6 5.92395 6 6C6 6.07605 6.03173 6.23213 6.26184 6.4653C6.4962 6.70277 6.88491 6.96249 7.44417 7.20218C8.55915 7.68002 10.1692 8 12 8C13.8308 8 15.4409 7.68002 16.5558 7.20218C17.1151 6.96249 17.5038 6.70277 17.7382 6.4653C17.9683 6.23213 18 6.07605 18 6C18 5.92395 17.9683 5.76787 17.7382 5.5347C17.5038 5.29723 17.1151 5.03751 16.5558 4.79782C15.4409 4.31998 13.8308 4 12 4C10.1692 4 8.55915 4.31998 7.44417 4.79782C6.88491 5.03751 6.4962 5.29723 6.26184 5.5347ZM8 11C8 11.5523 8.44772 12 9 12C9.55229 12 10 11.5523 10 11V9.88333C9.29227 9.7989 8.61998 9.67014 8 9.50198V11Z" fill="black"/>
</svg>
