<svg width="24" height="24" viewBox="0 0 24 24" fill="none" xmlns="http://www.w3.org/2000/svg">
<path fill-rule="evenodd" clip-rule="evenodd" d="M19.0711 4.92893C22.9763 8.83417 22.9763 15.1658 19.0711 19.0711C15.1658 22.9763 8.83417 22.9763 4.92893 19.0711C1.02369 15.1658 1.02369 8.83417 4.92893 4.92893C8.83417 1.02369 15.1658 1.02369 19.0711 4.92893ZM13 16C13 16.3688 13.203 16.7077 13.5281 16.8817C13.8533 17.0557 14.2478 17.0366 14.5547 16.832L17.5547 14.832C18.0142 14.5257 18.1384 13.9048 17.832 13.4453C17.5257 12.9858 16.9048 12.8616 16.4453 13.1679L15 14.1315L15 8C15 7.44771 14.5523 7 14 7C13.4477 7 13 7.44771 13 8L13 16ZM11 8C11 7.63121 10.797 7.29235 10.4719 7.11833C10.1467 6.94431 9.75216 6.96338 9.4453 7.16795L6.4453 9.16795C5.98577 9.4743 5.8616 10.0952 6.16795 10.5547C6.4743 11.0142 7.09517 11.1384 7.5547 10.8321L9 9.86852L9 16C9 16.5523 9.44771 17 10 17C10.5523 17 11 16.5523 11 16L11 8Z" fill="black"/>
</svg>
