<svg width="24" height="24" viewBox="0 0 24 24" fill="none" xmlns="http://www.w3.org/2000/svg">
<path fill-rule="evenodd" clip-rule="evenodd" d="M2.5362 18.7524C2.08711 18.5055 1.73986 18.09 1.5855 17.582C0.767715 15.3649 0.948226 12.9964 1.25148 11.3288C1.41147 10.4491 1.61866 9.69564 1.78648 9.15951C1.87076 8.89029 1.94607 8.67278 2.00215 8.51803C2.03021 8.44058 2.05354 8.37861 2.07086 8.3335L2.09222 8.27858L2.09924 8.26086L2.10179 8.25449L2.10327 8.25082C2.10327 8.25082 2.10348 8.2503 2.77951 8.52315L2.10368 8.2498C2.3592 7.61752 2.91437 7.1679 3.56627 7.03781C5.44228 4.02506 8.57127 2 12.1817 2C15.3389 2 17.957 3.2851 19.6955 5.41715C21.4249 7.53802 22.2306 10.4283 21.9263 13.5704L21.9261 13.5722C21.7762 15.0915 20.7423 16.3412 19.363 16.8921L19.3618 16.8926L7.23842 21.7699L7.23667 21.7707C5.79356 22.3557 4.1261 21.7886 3.34445 20.4487C3.02842 19.9115 2.7596 19.3437 2.5362 18.7524ZM3.91546 9.1098C3.9425 9.03749 3.95799 8.99917 3.95799 8.99917H4.76366H11.6322C12.3869 8.99917 12.9961 9.66917 12.9961 10.4992V10.6192C12.9961 12.3392 11.9959 13.8692 10.5138 14.4142L4.02616 16.8048L3.50279 16.9977L3.49881 16.9875C3.45727 16.8802 3.41872 16.7721 3.383 16.6632C3.20895 16.1326 3.10216 15.5836 3.04604 15.0345C2.7725 12.3584 3.70246 9.67943 3.91546 9.1098ZM15.9992 11C15.9992 10.4477 16.4469 10 16.9992 10C17.5515 10 17.9993 10.4477 17.9993 11C17.9993 11.5523 17.5516 12 16.9993 12C16.447 12 15.9992 11.5523 15.9992 11Z" fill="black"/>
</svg>
