<svg width="24" height="24" viewBox="0 0 24 24" fill="none" xmlns="http://www.w3.org/2000/svg">
<path d="M17 10C16.4477 10 16 10.4477 16 11C16 11.5523 16.4478 12 17.0001 12C17.5524 12 18.0001 11.5523 18.0001 11C18.0001 10.4477 17.5523 10 17 10Z" fill="black"/>
<path fill-rule="evenodd" clip-rule="evenodd" d="M12.1825 2C8.19984 2 4.80301 4.46413 3.02763 7.99997C2.64445 8.01146 2.30036 8.24145 2.14395 8.59337L2.14268 8.59623L2.1407 8.60075L2.13461 8.61469L2.11447 8.6618C2.09767 8.70158 2.07433 8.75793 2.0458 8.8295C1.9888 8.97256 1.91091 9.17694 1.82319 9.43175C1.6482 9.94005 1.4317 10.6559 1.26475 11.4907C0.94196 13.1046 0.776899 15.2973 1.59744 17.2945C1.69673 17.6161 1.95116 17.8634 2.2679 17.9575C2.53259 18.8372 2.88992 19.6747 3.34524 20.4487C4.12688 21.7886 5.79435 22.3557 7.23745 21.7707L7.2392 21.7699L19.3625 16.8926L19.3641 16.892C20.7433 16.341 21.777 15.0914 21.9269 13.5722L21.9271 13.5704C22.2313 10.4283 21.4257 7.53802 19.6963 5.41714C17.9578 3.2851 15.3397 2 12.1825 2ZM12.1825 4C9.40361 4 6.88897 5.54325 5.3237 7.99951H11.497C12.8792 7.99951 13.9969 9.11717 13.9969 10.4994V10.6194C13.9969 12.7682 12.6231 14.6805 10.5849 15.3623L4.21815 17.4955C4.4365 18.1923 4.72089 18.843 5.07003 19.4363L5.07234 19.4402C5.35076 19.9183 5.96108 20.1304 6.4867 19.9169L6.48971 19.9157L18.6187 15.0361L18.6213 15.0351C19.3709 14.7359 19.8662 14.0864 19.9365 13.3765C20.1969 10.6847 19.4977 8.33835 18.1463 6.68105C16.8038 5.03469 14.7648 4 12.1825 4ZM3.74324 9.99951C3.73375 10.0265 3.72409 10.0542 3.71426 10.0828C3.56115 10.5275 3.37144 11.1553 3.22591 11.8829C2.9858 13.0834 2.8844 14.4653 3.18923 15.7309L9.94946 13.4659C11.1706 13.0576 11.9969 11.91 11.9969 10.6194V10.4994C11.9969 10.2217 11.7747 9.99951 11.497 9.99951H3.74324Z" fill="black"/>
</svg>
