<svg width="24" height="24" viewBox="0 0 24 24" fill="none" xmlns="http://www.w3.org/2000/svg">
<path d="M3 2C2.73478 2 2.48043 2.10536 2.29289 2.29289C2.10536 2.48043 2 2.73478 2 3V7H4H8H10V3C10 2.44772 9.55228 2 9 2H3Z" fill="black"/>
<path d="M9.64018 19.2682C9.86818 19.0782 10 18.7968 10 18.5V9H8H4H2V18.5C2 18.7968 2.13182 19.0782 2.35982 19.2682L5.35982 21.7682C5.73066 22.0773 6.26934 22.0773 6.64018 21.7682L9.64018 19.2682Z" fill="black"/>
<path fill-rule="evenodd" clip-rule="evenodd" d="M13 2C12.4477 2 12 2.44772 12 3V21C12 21.5523 12.4477 22 13 22H21C21.5523 22 22 21.5523 22 21V3C22 2.44772 21.5523 2 21 2H13ZM17 16C17 15.4477 16.5523 15 16 15H14V17H16C16.5523 17 17 16.5523 17 16ZM17 12C17 12.5523 16.5523 13 16 13H14V11H16C16.5523 11 17 11.4477 17 12ZM17 8C17 7.44772 16.5523 7 16 7H14V9H16C16.5523 9 17 8.55228 17 8Z" fill="black"/>
</svg>
