<svg width="24" height="24" viewBox="0 0 24 24" fill="none" xmlns="http://www.w3.org/2000/svg">
<path fill-rule="evenodd" clip-rule="evenodd" d="M7 9C7 8.44772 7.44772 8 8 8H16C16.5523 8 17 8.44772 17 9C17 9.55228 16.5523 10 16 10H8C7.44772 10 7 9.55228 7 9Z" fill="black"/>
<path fill-rule="evenodd" clip-rule="evenodd" d="M3.25564 3.75712C3.7817 2.68024 4.85703 2 6.03331 2H17.9667C19.143 2 20.2183 2.68024 20.7444 3.75712L22.6721 7.70341C23.2239 8.83295 23.07 10.1897 22.2802 11.1599L14.3857 20.8563C13.1442 22.3812 10.8558 22.3812 9.61427 20.8563L1.71983 11.1599C0.929958 10.1897 0.776113 8.83296 1.32789 7.70341L3.25564 3.75712ZM6.03331 4.1191C5.64122 4.1191 5.28277 4.34585 5.10742 4.70481L3.17967 8.6511C2.99575 9.02762 3.04703 9.47986 3.31032 9.80325L11.2048 19.4997C11.6186 20.008 12.3814 20.008 12.7952 19.4996L20.6897 9.80325C20.953 9.47986 21.0043 9.02762 20.8203 8.6511L18.8926 4.70481C18.7172 4.34585 18.3588 4.1191 17.9667 4.1191H6.03331Z" fill="black"/>
</svg>
