<svg width="24" height="24" viewBox="0 0 24 24" fill="none" xmlns="http://www.w3.org/2000/svg">
<path d="M13 12C13 10.8954 13.8954 10 15 10C16.1046 10 17 10.8954 17 12C17 13.1046 16.1046 14 15 14C13.8954 14 13 13.1046 13 12Z" fill="black"/>
<path fill-rule="evenodd" clip-rule="evenodd" d="M14 2C12.8954 2 12 2.89543 12 4H5C2.79086 4 1 5.79086 1 8V16C1 18.2091 2.79086 20 5 20H19C21.2091 20 23 18.2091 23 16V8C23 6.13478 21.7233 4.56774 19.9962 4.12503C19.9987 4.08368 20 4.04199 20 4C20 2.89543 19.1046 2 18 2H14ZM15 8C12.7909 8 11 9.79086 11 12C11 14.2091 12.7909 16 15 16C17.2091 16 19 14.2091 19 12C19 9.79086 17.2091 8 15 8ZM5 9C5 8.44772 5.44772 8 6 8H9C9.55228 8 10 8.44772 10 9C10 9.55228 9.55228 10 9 10H6C5.44772 10 5 9.55228 5 9Z" fill="black"/>
</svg>
