<svg width="24" height="24" viewBox="0 0 24 24" fill="none" xmlns="http://www.w3.org/2000/svg">
<path fill-rule="evenodd" clip-rule="evenodd" d="M5.29289 11.7071C5.68342 12.0976 6.31658 12.0976 6.70711 11.7071L12 6.41421L17.2929 11.7071C17.6834 12.0976 18.3166 12.0976 18.7071 11.7071C19.0976 11.3166 19.0976 10.6834 18.7071 10.2929L12.7071 4.29289C12.5196 4.10536 12.2652 4 12 4C11.7348 4 11.4804 4.10536 11.2929 4.29289L5.29289 10.2929C4.90237 10.6834 4.90237 11.3166 5.29289 11.7071Z" fill="black"/>
<path fill-rule="evenodd" clip-rule="evenodd" d="M12 4C11.4477 4 11 4.44772 11 5V19C11 19.5523 11.4477 20 12 20C12.5523 20 13 19.5523 13 19V5C13 4.44772 12.5523 4 12 4Z" fill="black"/>
</svg>
