<svg width="24" height="24" viewBox="0 0 24 24" fill="none" xmlns="http://www.w3.org/2000/svg">
<path fill-rule="evenodd" clip-rule="evenodd" d="M11.8839 5.11612C12.372 5.60427 12.372 6.39573 11.8839 6.88388L6.76777 12L11.8839 17.1161C12.372 17.6043 12.372 18.3957 11.8839 18.8839C11.3957 19.372 10.6043 19.372 10.1161 18.8839L4.11612 12.8839C3.8817 12.6495 3.75 12.3315 3.75 12C3.75 11.6685 3.8817 11.3505 4.11612 11.1161L10.1161 5.11612C10.6043 4.62796 11.3957 4.62796 11.8839 5.11612Z" fill="black"/>
<path fill-rule="evenodd" clip-rule="evenodd" d="M3.75 12C3.75 11.3096 4.30964 10.75 5 10.75L19 10.75C19.6904 10.75 20.25 11.3096 20.25 12C20.25 12.6904 19.6904 13.25 19 13.25L5 13.25C4.30964 13.25 3.75 12.6904 3.75 12Z" fill="black"/>
</svg>
