<svg width="24" height="24" viewBox="0 0 24 24" fill="none" xmlns="http://www.w3.org/2000/svg">
<path d="M6.00002 7.00704C5.99823 6.75026 6.09472 6.49292 6.2895 6.2963L6.29067 6.29512L6.29628 6.28952C6.47886 6.10864 6.7138 6.01251 6.95203 6.00114C6.96801 6.00038 6.984 6 7 6H15C15.5523 6 16 6.44771 16 7C16 7.55228 15.5523 8 15 8H9.41421L17.7071 16.2929C18.0976 16.6834 18.0976 17.3166 17.7071 17.7071C17.3166 18.0976 16.6834 18.0976 16.2929 17.7071L8.01529 9.42951L8.05027 14.9937C8.05375 15.546 7.60885 15.9965 7.05658 16C6.50431 16.0035 6.05378 15.5586 6.05031 15.0063L6.00002 7.00704Z" fill="black"/>
</svg>
