<svg width="24" height="24" viewBox="0 0 24 24" fill="none" xmlns="http://www.w3.org/2000/svg">
<path d="M18 7.00704C18.0018 6.75026 17.9053 6.49292 17.7105 6.2963L17.7093 6.29512L17.7037 6.28952C17.5211 6.10864 17.2862 6.01251 17.048 6.00114C17.032 6.00038 17.016 6 17 6H9C8.44771 6 8 6.44771 8 7C8 7.55228 8.44771 8 9 8H14.5858L6.29289 16.2929C5.90237 16.6834 5.90237 17.3166 6.29289 17.7071C6.68342 18.0976 7.31658 18.0976 7.70711 17.7071L15.9847 9.42951L15.9497 14.9937C15.9463 15.546 16.3911 15.9965 16.9434 16C17.4957 16.0035 17.9462 15.5586 17.9497 15.0063L18 7.00704Z" fill="black"/>
</svg>
