<svg width="24" height="24" viewBox="0 0 24 24" fill="none" xmlns="http://www.w3.org/2000/svg">
<path fill-rule="evenodd" clip-rule="evenodd" d="M16.9418 16.25C16.2515 16.2456 15.6954 15.6825 15.6997 14.9921L15.7421 8.25H9C8.30964 8.25 7.75 7.69035 7.75 7C7.75 6.30964 8.30964 5.75 9 5.75H17C17.3329 5.75 17.652 5.88278 17.8867 6.1189C18.1213 6.35502 18.2521 6.67498 18.25 7.00786L18.1997 15.0079C18.1953 15.6982 17.6322 16.2543 16.9418 16.25Z" fill="black"/>
<path fill-rule="evenodd" clip-rule="evenodd" d="M17.8839 6.11612C18.372 6.60427 18.372 7.39573 17.8839 7.88388L7.88388 17.8839C7.39573 18.372 6.60427 18.372 6.11612 17.8839C5.62796 17.3957 5.62796 16.6043 6.11612 16.1161L16.1161 6.11612C16.6043 5.62796 17.3957 5.62796 17.8839 6.11612Z" fill="black"/>
</svg>
