<svg width="24" height="24" viewBox="0 0 24 24" fill="none" xmlns="http://www.w3.org/2000/svg">
<path fill-rule="evenodd" clip-rule="evenodd" d="M12.1161 5.11612C11.628 5.60427 11.628 6.39573 12.1161 6.88388L17.2322 12L12.1161 17.1161C11.628 17.6043 11.628 18.3957 12.1161 18.8839C12.6043 19.372 13.3957 19.372 13.8839 18.8839L19.8839 12.8839C20.1183 12.6495 20.25 12.3315 20.25 12C20.25 11.6685 20.1183 11.3505 19.8839 11.1161L13.8839 5.11612C13.3957 4.62796 12.6043 4.62796 12.1161 5.11612Z" fill="black"/>
<path fill-rule="evenodd" clip-rule="evenodd" d="M20.25 12C20.25 11.3096 19.6904 10.75 19 10.75L5 10.75C4.30964 10.75 3.75 11.3096 3.75 12C3.75 12.6904 4.30964 13.25 5 13.25L19 13.25C19.6904 13.25 20.25 12.6904 20.25 12Z" fill="black"/>
</svg>
