<svg width="24" height="24" viewBox="0 0 24 24" fill="none" xmlns="http://www.w3.org/2000/svg">
<path fill-rule="evenodd" clip-rule="evenodd" d="M5.11612 11.8839C5.60427 12.372 6.39573 12.372 6.88388 11.8839L12 6.76777L17.1161 11.8839C17.6043 12.372 18.3957 12.372 18.8839 11.8839C19.372 11.3957 19.372 10.6043 18.8839 10.1161L12.8839 4.11612C12.6495 3.8817 12.3315 3.75 12 3.75C11.6685 3.75 11.3505 3.8817 11.1161 4.11612L5.11612 10.1161C4.62796 10.6043 4.62796 11.3957 5.11612 11.8839Z" fill="black"/>
<path fill-rule="evenodd" clip-rule="evenodd" d="M12 3.75C11.3096 3.75 10.75 4.30964 10.75 5V19C10.75 19.6904 11.3096 20.25 12 20.25C12.6904 20.25 13.25 19.6904 13.25 19V5C13.25 4.30964 12.6904 3.75 12 3.75Z" fill="black"/>
</svg>
