<svg width="24" height="24" viewBox="0 0 24 24" fill="none" xmlns="http://www.w3.org/2000/svg">
<path fill-rule="evenodd" clip-rule="evenodd" d="M7 2C4.23858 2 2 4.23858 2 7V17C2 19.7614 4.23858 22 7 22H17C19.7614 22 22 19.7614 22 17V8C22 7.77293 21.9227 7.55262 21.7809 7.37531L17.7809 2.3753C17.5911 2.13809 17.3038 2 17 2H7ZM16.5194 4L17 4.60078V9C17 9.55228 16.5523 10 16 10H8C7.44772 10 7 9.55228 7 9V4H9V8H15V4H16.5194ZM7 13C7 12.4477 7.44772 12 8 12H16C16.5523 12 17 12.4477 17 13C17 13.5523 16.5523 14 16 14H8C7.44772 14 7 13.5523 7 13ZM7 17C7 16.4477 7.44772 16 8 16H16C16.5523 16 17 16.4477 17 17C17 17.5523 16.5523 18 16 18H8C7.44772 18 7 17.5523 7 17Z" fill="black"/>
</svg>
