<svg width="24" height="24" viewBox="0 0 24 24" fill="none" xmlns="http://www.w3.org/2000/svg">
<path fill-rule="evenodd" clip-rule="evenodd" d="M2 7C2 4.23858 4.23858 2 7 2H17C19.7614 2 22 4.23858 22 7V17C22 19.7614 19.7614 22 17 22H7C4.23858 22 2 19.7614 2 17V7ZM12 8C12.5523 8 13 8.44772 13 9C13 9.55228 12.5523 10.0001 12 10.0001C11.4477 10.0001 11 9.55238 11 9.0001C11 8.44782 11.4477 8 12 8ZM12 14C12.5523 14 13 14.4477 13 15C13 15.5523 12.5523 16.0001 12 16.0001C11.4477 16.0001 11 15.5524 11 15.0001C11 14.4478 11.4477 14 12 14ZM9 11C8.44772 11 8 11.4477 8 12C8 12.5523 8.44772 13 9 13H15C15.5523 13 16 12.5523 16 12C16 11.4477 15.5523 11 15 11H9Z" fill="black"/>
</svg>
