<svg width="24" height="24" viewBox="0 0 24 24" fill="none" xmlns="http://www.w3.org/2000/svg">
<path fill-rule="evenodd" clip-rule="evenodd" d="M12 4C7.58172 4 4 7.58172 4 12C4 16.4183 7.58172 20 12 20C16.4183 20 20 16.4183 20 12C20 7.58172 16.4183 4 12 4ZM2 12C2 6.47715 6.47715 2 12 2C17.5228 2 22 6.47715 22 12C22 17.5228 17.5228 22 12 22C6.47715 22 2 17.5228 2 12Z" fill="black"/>
<path fill-rule="evenodd" clip-rule="evenodd" d="M12 5C12.5523 5 13 5.44772 13 6V8C13 8.55228 12.5523 9 12 9C11.4477 9 11 8.55228 11 8V6C11 5.44772 11.4477 5 12 5Z" fill="black"/>
<path fill-rule="evenodd" clip-rule="evenodd" d="M12 15C12.5523 15 13 15.4477 13 16V18C13 18.5523 12.5523 19 12 19C11.4477 19 11 18.5523 11 18V16C11 15.4477 11.4477 15 12 15Z" fill="black"/>
<path fill-rule="evenodd" clip-rule="evenodd" d="M8.82925 7.83101C9.25688 7.36986 9.87879 7 10.5 7H13.5C14.2882 7 14.9276 7.22288 15.3794 7.64124C15.8163 8.04572 16 8.56508 16 9C16 9.55228 15.5523 10 15 10C14.4803 10 14.0532 9.60353 14.0046 9.09653C13.989 9.08617 13.9612 9.07075 13.9154 9.05501C13.8396 9.02894 13.7081 9 13.5 9H10.5504C10.5422 9.00342 10.5312 9.00844 10.5173 9.01565C10.4576 9.04683 10.3766 9.10375 10.2957 9.19093C10.1409 9.35792 10 9.61976 10 10C10 10.3517 10.0909 10.6461 10.2071 10.8203C10.3034 10.9648 10.3879 11 10.5 11H13.5C14.2026 11 14.9496 11.2233 15.5354 11.7385C16.1417 12.2717 16.5 13.0529 16.5 14C16.5 14.9471 16.1417 15.7283 15.5354 16.2615C14.9496 16.7767 14.2026 17 13.5 17H10.5C10.4897 17 10.4787 17 10.4669 17.0001C10.2298 17.0006 9.68725 17.0019 9.19111 16.8035C8.90792 16.6902 8.59324 16.4957 8.35338 16.1636C8.109 15.8252 8 15.4238 8 15C8 14.4477 8.44772 14 9 14C9.54091 14 9.98151 14.4295 9.99943 14.966C10.0368 14.9746 10.0862 14.9829 10.1495 14.9889C10.2599 14.9994 10.3715 15 10.5 15H13.5C13.7974 15 14.0504 14.9041 14.2146 14.7597C14.3583 14.6333 14.5 14.4145 14.5 14C14.5 13.5855 14.3583 13.3667 14.2146 13.2403C14.0504 13.0959 13.7974 13 13.5 13H10.5C9.61209 13 8.9466 12.5352 8.54295 11.9297C8.15906 11.3539 8 10.6483 8 10C8 9.07616 8.35911 8.338 8.82925 7.83101ZM10.5681 8.99357L10.5663 8.99407L10.5681 8.99357ZM14.0236 9.11199L14.0225 9.11066L14.0236 9.11199Z" fill="black"/>
</svg>
