<svg width="24" height="24" viewBox="0 0 24 24" fill="none" xmlns="http://www.w3.org/2000/svg">
<path d="M11 8C11 7.44772 10.5523 7 10 7C9.44772 7 9 7.44782 9 8.0001C9 8.55238 9.44772 9.0001 10 9.0001C10.5523 9.0001 11 8.55228 11 8Z" fill="black"/>
<path d="M15 7C15 6.44772 14.5523 6 14 6C13.4477 6 13 6.44782 13 7.0001C13 7.55238 13.4477 8.0001 14 8.0001C14.5523 8.0001 15 7.55228 15 7Z" fill="black"/>
<path d="M12 15C12.5523 15 13 15.4477 13 16C13 16.5523 12.5523 17.0001 12 17.0001C11.4477 17.0001 11 16.5524 11 16.0001C11 15.4478 11.4477 15 12 15Z" fill="black"/>
<path fill-rule="evenodd" clip-rule="evenodd" d="M5 5C5 3.34315 6.34315 2 8 2H16C17.6569 2 19 3.34315 19 5V19C19 20.6569 17.6569 22 16 22H8C6.34315 22 5 20.6569 5 19V5ZM8 4C7.44772 4 7 4.44772 7 5V11H17V5C17 4.44772 16.5523 4 16 4H8ZM8 20C7.44772 20 7 19.5523 7 19V13H17V19C17 19.5523 16.5523 20 16 20H8Z" fill="black"/>
</svg>
