<svg width="24" height="24" viewBox="0 0 24 24" fill="none" xmlns="http://www.w3.org/2000/svg">
<path fill-rule="evenodd" clip-rule="evenodd" d="M8 17C8 16.4477 8.44772 16 9 16H15C15.5523 16 16 16.4477 16 17C16 17.5523 15.5523 18 15 18H9C8.44772 18 8 17.5523 8 17Z" fill="black"/>
<path fill-rule="evenodd" clip-rule="evenodd" d="M12 14C11.4477 14 11 13.5523 11 13V7C11 6.44772 11.4477 6 12 6C12.5523 6 13 6.44772 13 7V13C13 13.5523 12.5523 14 12 14Z" fill="black"/>
<path d="M11.2796 14.6864C11.6342 15.1045 12.3658 15.1045 12.7204 14.6864L14.8304 12.1984C15.2544 11.6984 14.8346 11 14.1101 11H9.88994C9.16538 11 8.74556 11.6984 9.16958 12.1984L11.2796 14.6864Z" fill="black"/>
<path fill-rule="evenodd" clip-rule="evenodd" d="M12 4C7.58172 4 4 7.58172 4 12C4 16.4183 7.58172 20 12 20C16.4183 20 20 16.4183 20 12C20 7.58172 16.4183 4 12 4ZM2 12C2 6.47715 6.47715 2 12 2C17.5228 2 22 6.47715 22 12C22 17.5228 17.5228 22 12 22C6.47715 22 2 17.5228 2 12Z" fill="black"/>
</svg>
