<svg width="24" height="24" viewBox="0 0 24 24" fill="none" xmlns="http://www.w3.org/2000/svg">
<path fill-rule="evenodd" clip-rule="evenodd" d="M12 2C6.47715 2 2 6.47715 2 12C2 17.5228 6.47715 22 12 22C17.5228 22 22 17.5228 22 12C22 6.47715 17.5228 2 12 2ZM9 16C8.44772 16 8 16.4477 8 17C8 17.5523 8.44772 18 9 18H15C15.5523 18 16 17.5523 16 17C16 16.4477 15.5523 16 15 16H9ZM12 6C11.4477 6 11 6.44772 11 7V11H9.88994C9.16538 11 8.74556 11.6984 9.16958 12.1984L11.2796 14.6864C11.6342 15.1045 12.3658 15.1045 12.7204 14.6864L14.8304 12.1984C15.2544 11.6984 14.8346 11 14.1101 11H13V7C13 6.44772 12.5523 6 12 6Z" fill="black"/>
</svg>
