<svg width="24" height="24" viewBox="0 0 24 24" fill="none" xmlns="http://www.w3.org/2000/svg">
<path d="M9 4.25C8.0335 4.25 7.25 5.0335 7.25 6C7.25 6.9665 8.0336 7.75 9.0001 7.75C9.9666 7.75 10.7501 6.9665 10.7501 6C10.7501 5.0335 9.9665 4.25 9 4.25Z" fill="black"/>
<path d="M9 10.25C8.0335 10.25 7.25 11.0335 7.25 12C7.25 12.9665 8.0336 13.75 9.0001 13.75C9.9666 13.75 10.7501 12.9665 10.7501 12C10.7501 11.0335 9.9665 10.25 9 10.25Z" fill="black"/>
<path d="M7.25 18C7.25 17.0335 8.0335 16.25 9 16.25C9.9665 16.25 10.7501 17.0335 10.7501 18C10.7501 18.9665 9.9666 19.75 9.0001 19.75C8.0336 19.75 7.25 18.9665 7.25 18Z" fill="black"/>
<path d="M15 4.25C14.0335 4.25 13.25 5.0335 13.25 6C13.25 6.9665 14.0336 7.75 15.0001 7.75C15.9666 7.75 16.7501 6.9665 16.7501 6C16.7501 5.0335 15.9665 4.25 15 4.25Z" fill="black"/>
<path d="M13.25 12C13.25 11.0335 14.0335 10.25 15 10.25C15.9665 10.25 16.7501 11.0335 16.7501 12C16.7501 12.9665 15.9666 13.75 15.0001 13.75C14.0336 13.75 13.25 12.9665 13.25 12Z" fill="black"/>
<path d="M15 16.25C14.0335 16.25 13.25 17.0335 13.25 18C13.25 18.9665 14.0336 19.75 15.0001 19.75C15.9666 19.75 16.7501 18.9665 16.7501 18C16.7501 17.0335 15.9665 16.25 15 16.25Z" fill="black"/>
</svg>
