<svg width="24" height="24" viewBox="0 0 24 24" fill="none" xmlns="http://www.w3.org/2000/svg">
<path d="M9 4.5C8.17157 4.5 7.5 5.17157 7.5 6C7.5 6.82843 8.17167 7.5 9.0001 7.5C9.82853 7.5 10.5001 6.82843 10.5001 6C10.5001 5.17157 9.82843 4.5 9 4.5Z" fill="black"/>
<path d="M9 10.5C8.17157 10.5 7.5 11.1716 7.5 12C7.5 12.8284 8.17167 13.5 9.0001 13.5C9.82853 13.5 10.5001 12.8284 10.5001 12C10.5001 11.1716 9.82843 10.5 9 10.5Z" fill="black"/>
<path d="M7.5 18C7.5 17.1716 8.17157 16.5 9 16.5C9.82843 16.5 10.5001 17.1716 10.5001 18C10.5001 18.8284 9.82853 19.5 9.0001 19.5C8.17167 19.5 7.5 18.8284 7.5 18Z" fill="black"/>
<path d="M15 4.5C14.1716 4.5 13.5 5.17157 13.5 6C13.5 6.82843 14.1717 7.5 15.0001 7.5C15.8285 7.5 16.5001 6.82843 16.5001 6C16.5001 5.17157 15.8284 4.5 15 4.5Z" fill="black"/>
<path d="M13.5 12C13.5 11.1716 14.1716 10.5 15 10.5C15.8284 10.5 16.5001 11.1716 16.5001 12C16.5001 12.8284 15.8285 13.5 15.0001 13.5C14.1717 13.5 13.5 12.8284 13.5 12Z" fill="black"/>
<path d="M15 16.5C14.1716 16.5 13.5 17.1716 13.5 18C13.5 18.8284 14.1717 19.5 15.0001 19.5C15.8285 19.5 16.5001 18.8284 16.5001 18C16.5001 17.1716 15.8284 16.5 15 16.5Z" fill="black"/>
</svg>
