<svg width="24" height="24" viewBox="0 0 24 24" fill="none" xmlns="http://www.w3.org/2000/svg">
<path d="M12 10.1717C11.4477 10.1717 11 9.72394 11 9.17165V4.10061L9.1716 5.92904C8.78107 6.31957 8.14791 6.31957 7.75738 5.92904C7.36686 5.53852 7.36686 4.90535 7.75738 4.51483L10.5858 1.6864C10.9736 1.29858 11.4811 1.10332 11.9894 1.10064L12 1.10059L12.0106 1.10064C12.5189 1.10332 13.0264 1.29858 13.4142 1.6864L16.2427 4.51483C16.6332 4.90535 16.6332 5.53852 16.2427 5.92904C15.8521 6.31957 15.219 6.31957 14.8285 5.92904L13 4.10061V9.17165C13 9.72394 12.5523 10.1717 12 10.1717Z" fill="black"/>
<path d="M19.8996 11.0001L18.0712 9.17167C17.6807 8.78114 17.6807 8.14798 18.0712 7.75745C18.4617 7.36693 19.0949 7.36693 19.4854 7.75745L22.3138 10.5859C23.0949 11.3669 23.0949 12.6333 22.3138 13.4143L19.4854 16.2427C19.0949 16.6333 18.4617 16.6333 18.0712 16.2427C17.6807 15.8522 17.6807 15.219 18.0712 14.8285L19.8996 13.0001H14.8285C14.2762 13.0001 13.8285 12.5524 13.8285 12.0001C13.8285 11.4478 14.2762 11.0001 14.8285 11.0001H19.8996Z" fill="black"/>
<path d="M12 13.8285C12.5523 13.8285 13 14.2762 13 14.8285V19.8997L14.8285 18.0712C15.219 17.6807 15.8521 17.6807 16.2427 18.0712C16.6332 18.4617 16.6332 19.0949 16.2427 19.4854L13.4142 22.3139C12.6332 23.0949 11.3669 23.0949 10.5858 22.3139L7.75738 19.4854C7.36686 19.0949 7.36686 18.4617 7.75738 18.0712C8.14791 17.6807 8.78107 17.6807 9.1716 18.0712L11 19.8997V14.8285C11 14.2762 11.4477 13.8285 12 13.8285Z" fill="black"/>
<path d="M9.17175 13.0001C9.72403 13.0001 10.1717 12.5524 10.1717 12.0001C10.1717 11.4478 9.72403 11.0001 9.17175 11.0001H4.10059L5.92901 9.17167C6.31954 8.78114 6.31954 8.14798 5.92901 7.75745C5.53849 7.36693 4.90532 7.36693 4.5148 7.75745L1.68637 10.5859C0.905324 11.3669 0.905324 12.6333 1.68637 13.4143L4.5148 16.2427C4.90532 16.6333 5.53849 16.6333 5.92901 16.2427C6.31954 15.8522 6.31954 15.219 5.92901 14.8285L4.10059 13.0001H9.17175Z" fill="black"/>
</svg>
