<svg width="24" height="24" viewBox="0 0 24 24" fill="none" xmlns="http://www.w3.org/2000/svg">
<path fill-rule="evenodd" clip-rule="evenodd" d="M3.5 16C3.72217 16 3.93756 15.971 4.14262 15.9166C4.53 17.1252 5.66283 18 7 18C8.65685 18 10 16.6569 10 15V13H14V15C14 16.6569 15.3431 18 17 18C18.3372 18 19.47 17.1252 19.8574 15.9166C20.0624 15.971 20.2778 16 20.5 16C21.8807 16 23 14.8807 23 13.5V13C23.5523 13 24 12.5523 24 12C24 11.4477 23.5523 11 23 11V10.5C23 9.11929 21.8807 8 20.5 8C20.2778 8 20.0624 8.02898 19.8574 8.08337C19.47 6.87483 18.3372 6 17 6C15.3431 6 14 7.34315 14 9V11H10V9C10 7.34315 8.65685 6 7 6C5.66284 6 4.53 6.87483 4.14262 8.08336C3.93756 8.02898 3.72217 8 3.5 8C2.11929 8 1 9.11929 1 10.5V11C0.447715 11 0 11.4477 0 12C0 12.5523 0.447715 13 1 13V13.5C1 14.8807 2.11929 16 3.5 16ZM3.5 10C3.77614 10 4 10.2239 4 10.5V13.5C4 13.7761 3.77614 14 3.5 14C3.22386 14 3 13.7761 3 13.5V10.5C3 10.2239 3.22386 10 3.5 10ZM20 13.5C20 13.7761 20.2239 14 20.5 14C20.7761 14 21 13.7761 21 13.5V10.5C21 10.2239 20.7761 10 20.5 10C20.2239 10 20 10.2239 20 10.5V13.5ZM17 16C17.5523 16 18 15.5523 18 15V9C18 8.44772 17.5523 8 17 8C16.4477 8 16 8.44772 16 9V15C16 15.5523 16.4477 16 17 16ZM7 16C6.44772 16 6 15.5523 6 15V9C6 8.44772 6.44772 8 7 8C7.55228 8 8 8.44772 8 9V15C8 15.5523 7.55228 16 7 16Z" fill="black"/>
</svg>
