<svg width="24" height="24" viewBox="0 0 24 24" fill="none" xmlns="http://www.w3.org/2000/svg">
<path fill-rule="evenodd" clip-rule="evenodd" d="M4 14C4.55228 14 5 14.4477 5 15V21C5 21.5523 4.55228 22 4 22C3.44772 22 3 21.5523 3 21V15C3 14.4477 3.44772 14 4 14Z" fill="black"/>
<path fill-rule="evenodd" clip-rule="evenodd" d="M0 18C0 17.4477 0.447715 17 1 17H7C7.55228 17 8 17.4477 8 18C8 18.5523 7.55228 19 7 19H1C0.447715 19 0 18.5523 0 18Z" fill="black"/>
<path fill-rule="evenodd" clip-rule="evenodd" d="M3 10C3 7.79086 4.79086 6 7 6H15C17.2091 6 19 7.79086 19 10V18C19 20.2091 17.2091 22 15 22H9C8.44772 22 8 21.5523 8 21C8 20.4477 8.44772 20 9 20H15C16.1046 20 17 19.1046 17 18V10C17 8.89543 16.1046 8 15 8H7C5.89543 8 5 8.89543 5 10V11C5 11.5523 4.55228 12 4 12C3.44772 12 3 11.5523 3 11V10Z" fill="black"/>
<path fill-rule="evenodd" clip-rule="evenodd" d="M7 6C7 3.79086 8.79086 2 11 2H19C21.2091 2 23 3.79086 23 6V14C23 16.2091 21.2091 18 19 18H18.5C17.9477 18 17.5 17.5523 17.5 17C17.5 16.4477 17.9477 16 18.5 16H19C20.1046 16 21 15.1046 21 14V6C21 4.89543 20.1046 4 19 4H11C9.89543 4 9 4.89543 9 6V7C9 7.55228 8.55229 8 8 8C7.44772 8 7 7.55228 7 7V6Z" fill="black"/>
</svg>
