<svg width="24" height="24" viewBox="0 0 24 24" fill="none" xmlns="http://www.w3.org/2000/svg">
<path d="M14 7C14.5523 7 15 6.55228 15 6V4.58152V2.75V2.4578C14.053 2.16035 13.0452 2 12 2C10.6522 2 9.36677 2.26662 8.19342 2.75C7.69036 2.95725 7.20791 3.20434 6.75 3.48734C6.61345 3.57174 6.47908 3.65932 6.347 3.75C5.44768 4.36741 4.65438 5.12805 4 5.99902V10H4.25203H6V14H9V16C9 16.5523 9.44772 17 10 17H11V19.9381V21.6435V21.9506C11.3289 21.9833 11.6625 22 12 22C13.3478 22 14.6332 21.7334 15.8066 21.25C16.5931 20.926 17.3293 20.5045 18 20.0007V17.2916V15H14V12H9V10H10C10.5523 10 11 9.55228 11 9V7H14Z" fill="black"/>
<path d="M22 12C22 14.6692 20.9542 17.0942 19.25 18.8875V15.3864V13.75H15.25V10.75H11.4143C11.9241 10.3375 12.25 9.70682 12.25 9V8.25H14C15.2426 8.25 16.25 7.24264 16.25 6V5.22103V2.94545C19.6477 4.54304 22 7.99682 22 12Z" fill="black"/>
<path d="M7.75 16C7.75 17.1581 8.62501 18.1119 9.75 18.2363V19.6792V21.7459C5.31065 20.7251 2 16.7492 2 12C2 10.6522 2.26662 9.36677 2.75 8.19342V11.25H4.03469H4.75V15.25H7.75V16Z" fill="black"/>
<path d="M3.75 6.347C3.70465 6.41306 3.66007 6.4797 3.61628 6.54688L3.75 6.347Z" fill="black"/>
<path d="M3.61628 6.54688C3.57251 6.61403 3.52953 6.68175 3.48734 6.75L3.61628 6.54688Z" fill="black"/>
</svg>
