<svg width="24" height="24" viewBox="0 0 24 24" fill="none" xmlns="http://www.w3.org/2000/svg">
<path d="M13.9464 3.35388C15.1643 2.20756 17.0642 2.20756 18.2822 3.35388C19.6092 4.6028 19.6092 6.71174 18.2822 7.96066L8.19983 17.4499C8.13029 17.5154 8.04347 17.5596 7.94964 17.5772L4.56765 18.2138C3.51534 18.4119 2.60036 17.4753 2.82293 16.4279L3.48235 13.3248C3.50352 13.2252 3.55459 13.1344 3.62875 13.0646L13.9464 3.35388Z" fill="black"/>
<path d="M2 21.0001C2 20.4478 2.44772 20.0001 3 20.0001H19C19.5523 20.0001 20 20.4478 20 21.0001C20 21.5524 19.5523 22.0001 19 22.0001H3C2.44772 22.0001 2 21.5524 2 21.0001Z" fill="black"/>
</svg>
