<svg width="24" height="24" viewBox="0 0 24 24" fill="none" xmlns="http://www.w3.org/2000/svg">
<path d="M5.5 2C3.567 2 2 3.567 2 5.5C2 7.433 3.567 9 5.5 9C7.433 9 9 7.433 9 5.5C9 3.567 7.433 2 5.5 2Z" fill="black"/>
<path fill-rule="evenodd" clip-rule="evenodd" d="M11.9125 7.00383C12.2705 6.972 12.6063 7.13482 12.8077 7.40984L22.7926 20.3903C23.0249 20.6923 23.0654 21.1 22.8971 21.4418C22.7289 21.7835 22.381 22 22 22H14.0168C14.0078 22.0002 13.9989 22.0002 13.9899 22.0001L13.9855 22.0001L13.981 22H2.00001C1.61904 22 1.27116 21.7835 1.10287 21.4418C0.934576 21.1 0.975102 20.6923 1.20738 20.3903L11.2074 7.39029C11.2452 7.34112 11.2872 7.29602 11.3326 7.25532C11.4519 7.14816 11.5981 7.06863 11.7625 7.02861C11.8115 7.01661 11.8617 7.00829 11.9125 7.00383ZM13.5803 11.6945L14.8581 20H19.9691L13.5803 11.6945Z" fill="black"/>
</svg>
