<svg width="24" height="24" viewBox="0 0 24 24" fill="none" xmlns="http://www.w3.org/2000/svg">
<path fill-rule="evenodd" clip-rule="evenodd" d="M2 5.5C2 3.567 3.567 2 5.5 2C7.433 2 9 3.567 9 5.5C9 7.433 7.433 9 5.5 9C3.567 9 2 7.433 2 5.5ZM5.5 4C4.67157 4 4 4.67157 4 5.5C4 6.32843 4.67157 7 5.5 7C6.32843 7 7 6.32843 7 5.5C7 4.67157 6.32843 4 5.5 4Z" fill="black"/>
<path fill-rule="evenodd" clip-rule="evenodd" d="M12.8077 7.40984C12.6063 7.13482 12.2705 6.972 11.9125 7.00383C11.8617 7.00829 11.8115 7.01661 11.7625 7.02861C11.5981 7.06863 11.4519 7.14816 11.3326 7.25532C11.2872 7.29602 11.2452 7.34112 11.2074 7.39029L1.20738 20.3903C0.975102 20.6923 0.934576 21.1 1.10287 21.4418C1.27116 21.7835 1.61904 22 2.00001 22H13.981C13.9929 22.0002 14.0048 22.0002 14.0168 22H22C22.381 22 22.7289 21.7835 22.8971 21.4418C23.0654 21.1 23.0249 20.6923 22.7926 20.3903L12.8077 7.40984ZM11.3673 10.4627L4.03087 20H12.8345L11.3673 10.4627ZM14.8581 20L13.5803 11.6945L19.9691 20H14.8581Z" fill="black"/>
</svg>
