<svg width="24" height="24" viewBox="0 0 24 24" fill="none" xmlns="http://www.w3.org/2000/svg">
<path fill-rule="evenodd" clip-rule="evenodd" d="M2 7C2 4.23858 4.23858 2 7 2H17C19.7614 2 22 4.23858 22 7V17C22 19.7614 19.7614 22 17 22H7C4.23858 22 2 19.7614 2 17V7ZM8.95994 10.3066C8.70423 10.6902 8.68038 11.1834 8.89791 11.5898C9.11543 11.9963 9.53901 12.25 10 12.25H14C14.461 12.25 14.8846 11.9963 15.1021 11.5898C15.3196 11.1834 15.2958 10.6902 15.0401 10.3066L13.0401 7.30662C12.8082 6.95888 12.4179 6.75 12 6.75C11.5821 6.75 11.1918 6.95888 10.9599 7.30662L8.95994 10.3066ZM10 14C9.44772 14 9 14.4477 9 15C9 15.5523 9.44772 16 10 16H14C14.5523 16 15 15.5523 15 15C15 14.4477 14.5523 14 14 14H10Z" fill="black"/>
</svg>
