<svg width="24" height="24" viewBox="0 0 24 24" fill="none" xmlns="http://www.w3.org/2000/svg">
<path d="M12 1.75C11.8205 1.75 11.6419 1.75463 11.4645 1.76378C10.775 1.79934 10.245 2.38706 10.2805 3.0765C10.3161 3.76594 10.9038 4.29602 11.5932 4.26046C11.7278 4.25352 11.8635 4.25 12 4.25C12.1365 4.25 12.2722 4.25352 12.4068 4.26046C13.0962 4.29602 13.6839 3.76594 13.7195 3.0765C13.755 2.38706 13.225 1.79934 12.5355 1.76378C12.3581 1.75463 12.1795 1.75 12 1.75Z" fill="black"/>
<path d="M16.6552 2.86595C16.0403 2.55203 15.2874 2.796 14.9735 3.41085C14.6596 4.02571 14.9036 4.77863 15.5184 5.09254C15.76 5.21586 15.9943 5.35153 16.2205 5.49875C16.7991 5.87528 17.5734 5.71144 17.95 5.13281C18.3265 4.55418 18.1627 3.77986 17.584 3.40333C17.2849 3.2087 16.975 3.0292 16.6552 2.86595Z" fill="black"/>
<path d="M8.48159 5.09254C9.09644 4.77863 9.34041 4.02571 9.02649 3.41086C8.71258 2.796 7.95966 2.55203 7.3448 2.86595C7.02504 3.0292 6.71506 3.2087 6.41597 3.40333C5.83734 3.77987 5.6735 4.55418 6.05003 5.13281C6.42656 5.71144 7.20088 5.87528 7.77951 5.49875C8.00574 5.35153 8.24004 5.21586 8.48159 5.09254Z" fill="black"/>
<path d="M20.5967 6.41597C20.2201 5.83734 19.4458 5.6735 18.8672 6.05003C18.2886 6.42656 18.1247 7.20088 18.5013 7.77951C18.6485 8.00574 18.7841 8.24004 18.9075 8.48159C19.2214 9.09644 19.9743 9.34041 20.5891 9.02649C21.204 8.71258 21.448 7.95966 21.1341 7.3448C20.9708 7.02504 20.7913 6.71506 20.5967 6.41597Z" fill="black"/>
<path d="M5.49875 7.77951C5.87528 7.20088 5.71144 6.42656 5.13281 6.05003C4.55418 5.6735 3.77986 5.83734 3.40333 6.41597C3.2087 6.71507 3.0292 7.02504 2.86595 7.34481C2.55203 7.95966 2.796 8.71258 3.41085 9.02649C4.02571 9.34041 4.77863 9.09644 5.09254 8.48159C5.21586 8.24004 5.35153 8.00574 5.49875 7.77951Z" fill="black"/>
<path d="M4.26046 11.5932C4.29602 10.9038 3.76594 10.3161 3.0765 10.2805C2.38706 10.245 1.79934 10.775 1.76378 11.4645C1.75463 11.6419 1.75 11.8205 1.75 12C1.75 12.1795 1.75463 12.3581 1.76378 12.5355C1.79934 13.225 2.38706 13.755 3.0765 13.7195C3.76594 13.6839 4.29602 13.0962 4.26046 12.4068C4.25352 12.2722 4.25 12.1365 4.25 12C4.25 11.8635 4.25352 11.7278 4.26046 11.5932Z" fill="black"/>
<path d="M22.2362 11.4645C22.2007 10.775 21.6129 10.245 20.9235 10.2805C20.2341 10.3161 19.704 10.9038 19.7395 11.5932C19.7465 11.7278 19.75 11.8635 19.75 12C19.75 12.1365 19.7465 12.2722 19.7395 12.4068C19.704 13.0962 20.2341 13.6839 20.9235 13.7195C21.6129 13.755 22.2007 13.225 22.2362 12.5355C22.2454 12.3581 22.25 12.1795 22.25 12C22.25 11.8205 22.2454 11.6419 22.2362 11.4645Z" fill="black"/>
<path d="M5.09254 15.5184C4.77863 14.9036 4.02571 14.6596 3.41086 14.9735C2.796 15.2874 2.55203 16.0403 2.86595 16.6552C3.0292 16.975 3.2087 17.2849 3.40333 17.584C3.77987 18.1627 4.55418 18.3265 5.13281 17.95C5.71144 17.5734 5.87528 16.7991 5.49875 16.2205C5.35153 15.9943 5.21586 15.76 5.09254 15.5184Z" fill="black"/>
<path d="M21.1341 16.6552C21.448 16.0403 21.204 15.2874 20.5891 14.9735C19.9743 14.6596 19.2214 14.9036 18.9075 15.5184C18.7841 15.76 18.6485 15.9943 18.5013 16.2205C18.1247 16.7991 18.2886 17.5734 18.8672 17.95C19.4458 18.3265 20.2201 18.1627 20.5967 17.584C20.7913 17.2849 20.9708 16.975 21.1341 16.6552Z" fill="black"/>
<path d="M17.584 20.5967C18.1627 20.2201 18.3265 19.4458 17.95 18.8672C17.5734 18.2886 16.7991 18.1247 16.2205 18.5013C15.9943 18.6485 15.76 18.7841 15.5184 18.9075C14.9036 19.2214 14.6596 19.9743 14.9735 20.5891C15.2874 21.204 16.0403 21.448 16.6552 21.1341C16.975 20.9708 17.2849 20.7913 17.584 20.5967Z" fill="black"/>
<path d="M7.77951 18.5013C7.20088 18.1247 6.42656 18.2886 6.05003 18.8672C5.6735 19.4458 5.83734 20.2201 6.41597 20.5967C6.71507 20.7913 7.02504 20.9708 7.34481 21.1341C7.95966 21.448 8.71258 21.204 9.02649 20.5891C9.34041 19.9743 9.09644 19.2214 8.48159 18.9075C8.24004 18.7841 8.00574 18.6485 7.77951 18.5013Z" fill="black"/>
<path d="M11.5932 19.7395C10.9038 19.704 10.3161 20.2341 10.2805 20.9235C10.245 21.6129 10.775 22.2007 11.4645 22.2362C11.6419 22.2454 11.8205 22.25 12 22.25C12.1795 22.25 12.3581 22.2454 12.5355 22.2362C13.225 22.2007 13.755 21.6129 13.7195 20.9235C13.6839 20.2341 13.0962 19.704 12.4068 19.7395C12.2722 19.7465 12.1365 19.75 12 19.75C11.8635 19.75 11.7278 19.7465 11.5932 19.7395Z" fill="black"/>
</svg>
