<svg width="24" height="24" viewBox="0 0 24 24" fill="none" xmlns="http://www.w3.org/2000/svg">
<path fill-rule="evenodd" clip-rule="evenodd" d="M12 1C9.51472 1 7.5 3.01472 7.5 5.5C7.5 7.98528 9.51472 10 12 10C14.4853 10 16.5 7.98528 16.5 5.5C16.5 3.01472 14.4853 1 12 1ZM9.5 5.5C9.5 4.11929 10.6193 3 12 3C13.3807 3 14.5 4.11929 14.5 5.5C14.5 6.88071 13.3807 8 12 8C10.6193 8 9.5 6.88071 9.5 5.5Z" fill="black"/>
<path d="M12 17C12 16.4477 12.4477 16 13 16H15C15.5523 16 16 16.4477 16 17C16 17.5523 15.5523 18 15 18H13C12.4477 18 12 17.5523 12 17Z" fill="black"/>
<path fill-rule="evenodd" clip-rule="evenodd" d="M11 11C7.13401 11 4 14.134 4 18V19C4 20.6569 5.34315 22 7 22H17C18.6569 22 20 20.6569 20 19V18C20 14.134 16.866 11 13 11H11ZM9.36577 13.2732C7.40686 13.9503 6 15.8109 6 18V19C6 19.5523 6.44772 20 7 20H17C17.5523 20 18 19.5523 18 19V18C18 15.8109 16.5932 13.9504 14.6343 13.2732C14.6231 13.2824 14.6117 13.2913 14.6001 13.3001L12.6001 14.8001C12.2445 15.0667 11.7556 15.0667 11.4001 14.8001L9.40006 13.3001C9.38838 13.2913 9.37695 13.2823 9.36577 13.2732Z" fill="black"/>
</svg>
