<svg width="24" height="24" viewBox="0 0 24 24" fill="none" xmlns="http://www.w3.org/2000/svg">
<path d="M15.999 10.0001C16.5513 10.0001 16.999 10.4478 16.999 11.0001V13C16.999 13.5523 16.5513 14 15.999 14C15.4467 14 14.999 13.5523 14.999 13V11.0001C14.999 10.4478 15.4467 10.0001 15.999 10.0001Z" fill="black"/>
<path fill-rule="evenodd" clip-rule="evenodd" d="M14.8691 2C13.2845 2 12 3.28454 12 4.86911V19.1309C12 20.7155 13.2845 22 14.8691 22C15.0489 22 15.2277 21.9749 15.4006 21.9256L20.8242 20.376C22.1121 20.008 23 18.8308 23 17.4914V6.5086C23 5.16916 22.1121 3.992 20.8242 3.62403L15.4006 2.07443C15.2277 2.02505 15.0489 2 14.8691 2ZM14 4.86911C14 4.39212 14.3843 4.00488 14.8601 4.00005L20.2747 5.54708C20.704 5.66974 21 6.06212 21 6.5086V17.4914C21 17.9379 20.704 18.3303 20.2747 18.4529L14.8601 20C14.3843 19.9951 14 19.6079 14 19.1309V4.86911Z" fill="black"/>
<path d="M6 5C5.44772 5 5 5.44772 5 6V8C5 8.55228 4.55228 9 4 9C3.44772 9 3 8.55228 3 8V6C3 4.34315 4.34315 3 6 3H9C9.55228 3 10 3.44772 10 4C10 4.55228 9.55228 5 9 5H6Z" fill="black"/>
<path d="M7.70662 9.29314C7.31609 8.90261 6.68293 8.90261 6.29241 9.29314C5.90188 9.68366 5.90188 10.3168 6.29241 10.7074L6.58505 11H3C2.44772 11 2 11.4477 2 12C2 12.5523 2.44772 13 3 13H6.58523L6.29241 13.2928C5.90188 13.6834 5.90188 14.3165 6.29241 14.707C6.68293 15.0976 7.31609 15.0976 7.70662 14.707L9.69857 12.7151C9.88427 12.5335 9.99954 12.2802 9.99954 12C9.99954 11.7168 9.8818 11.4611 9.6926 11.2791L7.70662 9.29314Z" fill="black"/>
<path d="M5 16C5 15.4477 4.55228 15 4 15C3.44772 15 3 15.4477 3 16V18C3 19.6569 4.34315 21 6 21H9C9.55228 21 10 20.5523 10 20C10 19.4477 9.55228 19 9 19H6C5.44772 19 5 18.5523 5 18V16Z" fill="black"/>
</svg>
