<svg width="24" height="24" viewBox="0 0 24 24" fill="none" xmlns="http://www.w3.org/2000/svg">
<path fill-rule="evenodd" clip-rule="evenodd" d="M2 8C2 5.23858 4.23858 3 7 3H17C19.7614 3 22 5.23858 22 8V16C22 18.7614 19.7614 21 17 21H7C4.23858 21 2 18.7614 2 16V8ZM5.2318 7.35984C5.58537 6.93556 6.21593 6.87824 6.64021 7.2318L12 11.6983L17.3598 7.2318C17.7841 6.87824 18.4147 6.93556 18.7682 7.35984C19.1218 7.78412 19.0645 8.41468 18.6402 8.76825L12.6402 13.7682C12.2694 14.0773 11.7307 14.0773 11.3598 13.7682L5.35984 8.76825C4.93556 8.41468 4.87824 7.78412 5.2318 7.35984Z" fill="black"/>
</svg>
