<svg width="24" height="24" viewBox="0 0 24 24" fill="none" xmlns="http://www.w3.org/2000/svg">
<path fill-rule="evenodd" clip-rule="evenodd" d="M16.7236 3.14799C15.1934 1.61734 12.7106 1.61734 11.1803 3.14799L3.14756 11.183C1.61748 12.7135 1.61748 15.1915 3.14756 16.722L7.2764 20.852C8.1179 21.6937 9.24745 22.0726 10.3483 21.9886C10.3977 21.9961 10.4484 22 10.5 22H19C19.5523 22 20 21.5523 20 21C20 20.4477 19.5523 20 19 20H13.6714L20.8524 12.817C22.3825 11.2865 22.3825 8.80849 20.8524 7.27799L16.7236 3.14799ZM7.87193 9.28614L14.7141 16.1283L11.4053 19.438C10.6561 20.1873 9.43995 20.1873 8.69081 19.438L4.56197 15.308C3.81268 14.5585 3.81268 13.3465 4.56197 12.597L7.87193 9.28614Z" fill="black"/>
</svg>
