<svg width="24" height="24" viewBox="0 0 24 24" fill="none" xmlns="http://www.w3.org/2000/svg">
<path fill-rule="evenodd" clip-rule="evenodd" d="M11.1803 3.14799C12.7106 1.61734 15.1934 1.61734 16.7236 3.14799L20.8524 7.27799C22.3825 8.80849 22.3825 11.2865 20.8524 12.817L13.6714 20H19C19.5523 20 20 20.4477 20 21C20 21.5523 19.5523 22 19 22H10.5C10.4484 22 10.3977 21.9961 10.3483 21.9886C9.24745 22.0726 8.1179 21.6937 7.2764 20.852L3.14756 16.722C1.61748 15.1915 1.61748 12.7135 3.14756 11.183L11.1803 3.14799ZM15.3092 4.56201C14.5601 3.81266 13.3439 3.81266 12.5947 4.56201L9.28594 7.87173L16.1281 14.7139L19.438 11.403C20.1873 10.6535 20.1873 9.4415 19.438 8.692L15.3092 4.56201ZM14.7141 16.1283L7.87193 9.28614L4.56197 12.597C3.81268 13.3465 3.81268 14.5585 4.56197 15.308L8.69081 19.438C9.43995 20.1873 10.6561 20.1873 11.4053 19.438L14.7141 16.1283Z" fill="black"/>
</svg>
