<svg width="24" height="24" viewBox="0 0 24 24" fill="none" xmlns="http://www.w3.org/2000/svg">
<path d="M14 9C12.693 9 11.582 9.83443 11.1705 11H13C13.5523 11 14 11.4477 14 12C14 12.5523 13.5523 13 13 13H11.1705C11.582 14.1656 12.693 15 14 15C14.5523 15 15 15.4477 15 16C15 16.5523 14.5523 17 14 17C11.5802 17 9.56296 15.2828 9.09993 13H9C8.44772 13 8 12.5523 8 12C8 11.4477 8.44772 11 9 11H9.09993C9.56296 8.71722 11.5802 7 14 7C14.5523 7 15 7.44772 15 8C15 8.55228 14.5523 9 14 9Z" fill="black"/>
<path fill-rule="evenodd" clip-rule="evenodd" d="M7 2C4.23858 2 2 4.23858 2 7V17C2 19.7614 4.23858 22 7 22H17C19.7614 22 22 19.7614 22 17V7C22 4.23858 19.7614 2 17 2H7ZM4 7C4 5.34315 5.34315 4 7 4H17C18.6569 4 20 5.34315 20 7V17C20 18.6569 18.6569 20 17 20H7C5.34315 20 4 18.6569 4 17V7Z" fill="black"/>
</svg>
