<svg width="24" height="24" viewBox="0 0 24 24" fill="none" xmlns="http://www.w3.org/2000/svg">
<path fill-rule="evenodd" clip-rule="evenodd" d="M12 2C6.47715 2 2 6.47715 2 12C2 17.5228 6.47715 22 12 22C17.5228 22 22 17.5228 22 12C22 6.47715 17.5228 2 12 2ZM13 17C10.5802 17 8.56296 15.2828 8.09993 13H8C7.44772 13 7 12.5523 7 12C7 11.4477 7.44772 11 8 11H8.09993C8.56296 8.71722 10.5802 7 13 7C13.5523 7 14 7.44772 14 8C14 8.55228 13.5523 9 13 9C11.693 9 10.582 9.83443 10.1705 11H12C12.5523 11 13 11.4477 13 12C13 12.5523 12.5523 13 12 13H10.1705C10.582 14.1656 11.693 15 13 15C13.5523 15 14 15.4477 14 16C14 16.5523 13.5523 17 13 17Z" fill="black"/>
</svg>
