<svg width="24" height="24" viewBox="0 0 24 24" fill="none" xmlns="http://www.w3.org/2000/svg">
<path fill-rule="evenodd" clip-rule="evenodd" d="M2 7C2 4.23858 4.23858 2 7 2H17C19.7614 2 22 4.23858 22 7V17C22 19.7614 19.7614 22 17 22H7C4.23858 22 2 19.7614 2 17V7ZM11.1705 11C11.582 9.83443 12.693 9 14 9C14.5523 9 15 8.55228 15 8C15 7.44772 14.5523 7 14 7C11.5802 7 9.56296 8.71722 9.09993 11H9C8.44772 11 8 11.4477 8 12C8 12.5523 8.44772 13 9 13H9.09993C9.56296 15.2828 11.5802 17 14 17C14.5523 17 15 16.5523 15 16C15 15.4477 14.5523 15 14 15C12.693 15 11.582 14.1656 11.1705 13H13C13.5523 13 14 12.5523 14 12C14 11.4477 13.5523 11 13 11H11.1705Z" fill="black"/>
</svg>
