<svg width="24" height="24" viewBox="0 0 24 24" fill="none" xmlns="http://www.w3.org/2000/svg">
<path d="M5.88317 4C4.84312 4 4 4.84312 4 5.88317V8.30175C4 9.81171 5.8256 10.5679 6.89329 9.50019L7.48964 8.90385L10.2929 11.7071C10.6834 12.0976 11.3166 12.0976 11.7071 11.7071C12.0976 11.3166 12.0976 10.6834 11.7071 10.2929L8.90385 7.48964L9.50019 6.89329C10.5679 5.8256 9.8117 4 8.30175 4H5.88317Z" fill="black"/>
<path d="M18.1168 20C19.1569 20 20 19.1569 20 18.1168V15.6982C20 14.1883 18.1744 13.4321 17.1067 14.4998L16.5104 15.0962L13.7071 12.2929C13.3166 11.9024 12.6834 11.9024 12.2929 12.2929C11.9024 12.6834 11.9024 13.3166 12.2929 13.7071L15.0962 16.5104L14.4998 17.1067C13.4321 18.1744 14.1883 20 15.6982 20H18.1168Z" fill="black"/>
</svg>
