<svg width="24" height="24" viewBox="0 0 24 24" fill="none" xmlns="http://www.w3.org/2000/svg">
<path d="M3 5C3 3.89543 3.89543 3 5 3H9C9.55229 3 10 3.44772 10 4C10 4.55228 9.55229 5 9 5H6.41422L10.7071 9.29289C11.0976 9.68342 11.0976 10.3166 10.7071 10.7071C10.3166 11.0976 9.68342 11.0976 9.29289 10.7071L5 6.41421V9C5 9.55229 4.55229 10 4 10C3.44772 10 3 9.55229 3 9V5Z" fill="black"/>
<path d="M14.7071 13.2929C14.3166 12.9024 13.6834 12.9024 13.2929 13.2929C12.9024 13.6834 12.9024 14.3166 13.2929 14.7071L17.5858 19H15C14.4477 19 14 19.4477 14 20C14 20.5523 14.4477 21 15 21H19C20.1046 21 21 20.1046 21 19V15C21 14.4477 20.5523 14 20 14C19.4477 14 19 14.4477 19 15V17.5858L14.7071 13.2929Z" fill="black"/>
<path d="M21 5C21 3.89543 20.1046 3 19 3H15C14.4477 3 14 3.44772 14 4C14 4.55228 14.4477 5 15 5H17.5858L13.2929 9.29289C12.9024 9.68342 12.9024 10.3166 13.2929 10.7071C13.6834 11.0976 14.3166 11.0976 14.7071 10.7071L19 6.41421V9C19 9.55228 19.4477 10 20 10C20.5523 10 21 9.55229 21 9V5Z" fill="black"/>
<path d="M10.7071 14.7071C11.0976 14.3166 11.0976 13.6834 10.7071 13.2929C10.3166 12.9024 9.68342 12.9024 9.29289 13.2929L5 17.5858L5 15C5 14.4477 4.55228 14 4 14C3.44772 14 3 14.4477 3 15V19C3 20.1046 3.89543 21 5 21H9C9.55229 21 10 20.5523 10 20C10 19.4477 9.55229 19 9 19H6.41421L10.7071 14.7071Z" fill="black"/>
</svg>
