<svg width="24" height="24" viewBox="0 0 24 24" fill="none" xmlns="http://www.w3.org/2000/svg">
<path d="M13.25 10.0178L13.25 19C13.25 19.6904 12.6904 20.25 12 20.25C11.3096 20.25 10.75 19.6904 10.75 19L10.75 10.0178L8.88388 11.8839C8.39573 12.372 7.60427 12.372 7.11612 11.8839C6.62796 11.3957 6.62796 10.6043 7.11612 10.1161L11.1161 6.11612C11.3505 5.8817 11.6685 5.75 12 5.75C12.3315 5.75 12.6495 5.8817 12.8839 6.11612L16.8839 10.1161C17.372 10.6043 17.372 11.3957 16.8839 11.8839C16.3957 12.372 15.6043 12.372 15.1161 11.8839L13.25 10.0178Z" fill="black"/>
<path d="M5 13.75C4.58579 13.75 4.25 13.4142 4.25 13V7C4.25 5.48122 5.48122 4.25 7 4.25H17C18.5188 4.25 19.75 5.48122 19.75 7V13C19.75 13.4142 19.4142 13.75 19 13.75C18.3096 13.75 17.75 14.3096 17.75 15C17.75 15.6904 18.3096 16.25 19 16.25C20.7949 16.25 22.25 14.7949 22.25 13V7C22.25 4.10051 19.8995 1.75 17 1.75H7C4.10051 1.75 1.75 4.10051 1.75 7V13C1.75 14.7949 3.20507 16.25 5 16.25C5.69036 16.25 6.25 15.6904 6.25 15C6.25 14.3096 5.69036 13.75 5 13.75Z" fill="black"/>
</svg>
