<svg width="24" height="24" viewBox="0 0 24 24" fill="none" xmlns="http://www.w3.org/2000/svg">
<path fill-rule="evenodd" clip-rule="evenodd" d="M12 2C17.5228 2 22 6.47715 22 12C22 17.5228 17.5228 22 12 22C6.47715 22 2 17.5228 2 12C2 6.47715 6.47715 2 12 2ZM12 4C7.58172 4 4 7.58172 4 12C4 15.8835 6.76732 19.1199 10.4375 19.8467V14.9697H7.89844V12.0596H10.4375V9.84375C10.4376 7.32257 11.9302 5.92969 14.2148 5.92969C15.3081 5.92974 16.4531 6.12598 16.4531 6.12598V8.60156H15.1914C13.9495 8.60156 13.5626 9.37788 13.5625 10.1738V12.0605H16.3359L15.8926 14.9688H13.5625V19.8467C17.2327 19.1199 20 15.8835 20 12C20 7.58172 16.4183 4 12 4Z" fill="black"/>
</svg>
