<svg width="24" height="24" viewBox="0 0 24 24" fill="none" xmlns="http://www.w3.org/2000/svg">
<path d="M15.4274 9.00288C15.7833 8.79838 16.2212 8.79905 16.5764 9.00463C16.9316 9.21021 17.1504 9.58954 17.1504 9.99998V14C17.1504 14.4159 16.9258 14.7994 16.5631 15.0029C16.2004 15.2064 15.7561 15.1982 15.4011 14.9815L12.0261 12.9209C11.7823 12.772 11.6064 12.5405 11.5254 12.2748V14C11.5254 14.4159 11.3008 14.7994 10.9381 15.0029C10.5754 15.2064 10.1311 15.1982 9.77612 14.9815L6.40112 12.9209C6.0544 12.7092 5.84509 12.3303 5.85049 11.9241C5.85589 11.5179 6.0752 11.1447 6.42742 10.9423L9.80242 9.00288C10.1583 8.79838 10.5962 8.79905 10.9514 9.00463C11.3066 9.21021 11.5254 9.58954 11.5254 9.99998V11.6039C11.6095 11.3282 11.7956 11.0898 12.0524 10.9423L15.4274 9.00288Z" fill="black"/>
<path fill-rule="evenodd" clip-rule="evenodd" d="M12 2C17.5228 2 22 6.47715 22 12C22 17.5228 17.5228 22 12 22C6.47715 22 2 17.5228 2 12C2 6.47715 6.47715 2 12 2ZM20 12C20 7.58172 16.4183 4 12 4C7.58172 4 4 7.58172 4 12C4 16.4183 7.58172 20 12 20C16.4183 20 20 16.4183 20 12Z" fill="black"/>
</svg>
