<svg width="24" height="24" viewBox="0 0 24 24" fill="none" xmlns="http://www.w3.org/2000/svg">
<path fill-rule="evenodd" clip-rule="evenodd" d="M22 12C22 6.47715 17.5228 2 12 2C6.47715 2 2 6.47715 2 12C2 17.5228 6.47715 22 12 22C17.5228 22 22 17.5228 22 12ZM16.5764 9.00463C16.2212 8.79905 15.7833 8.79838 15.4274 9.00288L12.0524 10.9423C11.7956 11.0898 11.6095 11.3282 11.5254 11.6039V9.99998C11.5254 9.58954 11.3066 9.21021 10.9514 9.00463C10.5962 8.79905 10.1583 8.79838 9.80242 9.00288L6.42742 10.9423C6.0752 11.1447 5.85589 11.5179 5.85049 11.9241C5.84509 12.3303 6.0544 12.7092 6.40112 12.9209L9.77612 14.9815C10.1311 15.1982 10.5754 15.2064 10.9381 15.0029C11.3008 14.7994 11.5254 14.4159 11.5254 14V12.2748C11.6064 12.5405 11.7823 12.772 12.0261 12.9209L15.4011 14.9815C15.7561 15.1982 16.2004 15.2064 16.5631 15.0029C16.9258 14.7994 17.1504 14.4159 17.1504 14V9.99998C17.1504 9.58954 16.9316 9.21021 16.5764 9.00463Z" fill="black"/>
</svg>
