<svg width="24" height="24" viewBox="0 0 24 24" fill="none" xmlns="http://www.w3.org/2000/svg">
<path d="M19.4719 7.11833C19.1467 6.94431 18.7522 6.96338 18.4453 7.16795L12.4453 11.168C12.1671 11.3534 12 11.6656 12 12C12 12.3344 12.1671 12.6466 12.4453 12.8321L18.4453 16.8321C18.7522 17.0366 19.1467 17.0557 19.4719 16.8817C19.797 16.7077 20 16.3688 20 16V8C20 7.63121 19.797 7.29235 19.4719 7.11833Z" fill="black"/>
<path d="M10.4719 7.11833C10.1467 6.94431 9.75216 6.96338 9.4453 7.16795L3.4453 11.168C3.1671 11.3534 3 11.6656 3 12C3 12.3344 3.1671 12.6466 3.4453 12.8321L9.4453 16.8321C9.75216 17.0366 10.1467 17.0557 10.4719 16.8817C10.797 16.7077 11 16.3688 11 16V8C11 7.63121 10.797 7.29235 10.4719 7.11833Z" fill="black"/>
</svg>
