<svg width="24" height="24" viewBox="0 0 24 24" fill="none" xmlns="http://www.w3.org/2000/svg">
<path fill-rule="evenodd" clip-rule="evenodd" d="M2 12C2 6.47715 6.47715 2 12 2C17.5228 2 22 6.47715 22 12C22 17.5228 17.5228 22 12 22C6.47715 22 2 17.5228 2 12ZM7.42359 9.00463C7.77883 8.79905 8.21671 8.79838 8.57258 9.00288L11.9476 10.9423C12.2044 11.0898 12.3905 11.3282 12.4746 11.6039V9.99998C12.4746 9.58954 12.6934 9.21021 13.0486 9.00463C13.4038 8.79905 13.8417 8.79838 14.1976 9.00288L17.5726 10.9423C17.9248 11.1447 18.1441 11.5179 18.1495 11.9241C18.1549 12.3303 17.9456 12.7092 17.5989 12.9209L14.2239 14.9815C13.8689 15.1982 13.4246 15.2064 13.0619 15.0029C12.6992 14.7994 12.4746 14.4159 12.4746 14V12.2748C12.3936 12.5405 12.2177 12.772 11.9739 12.9209L8.59888 14.9815C8.24391 15.1982 7.79958 15.2064 7.43687 15.0029C7.07417 14.7994 6.84961 14.4159 6.84961 14V9.99998C6.84961 9.58954 7.06836 9.21021 7.42359 9.00463Z" fill="black"/>
</svg>
