<svg width="24" height="24" viewBox="0 0 24 24" fill="none" xmlns="http://www.w3.org/2000/svg">
<path d="M12 19C12 18.4477 12.4477 18 13 18H17C17.5523 18 18 18.4477 18 19C18 19.5523 17.5523 20 17 20H13C12.4477 20 12 19.5523 12 19Z" fill="black"/>
<path d="M11 5V6C11 7.10457 11.8954 8 13 8H17C18.1046 8 19 7.10457 19 6V5C19 3.89543 18.1046 3 17 3H13C11.8954 3 11 3.89543 11 5Z" fill="black"/>
<path fill-rule="evenodd" clip-rule="evenodd" d="M6 0C6.55228 0 7 0.447715 7 1V3.17071C7.47979 3.34029 7.90357 3.62846 8.23611 4H10.1707C10.0602 4.31278 10 4.64936 10 5V6C10 7.65685 11.3431 9 13 9H17C18.6569 9 20 7.65685 20 6V5C20 4.64936 19.9398 4.31278 19.8293 4H20C21.6569 4 23 5.34315 23 7V18C23 19.6569 21.6569 21 20 21H19.2361C19.7111 20.4692 20 19.7684 20 19C20 17.3431 18.6569 16 17 16H13C11.3431 16 10 17.3431 10 19C10 19.7684 10.2889 20.4692 10.7639 21H8.23611C7.68679 21.6137 6.8885 22 6 22H4C2.34315 22 1 20.6569 1 19V6C1 4.34315 2.34315 3 4 3H5V1C5 0.447715 5.44772 0 6 0ZM6 5C6.55228 5 7 5.44772 7 6V19C7 19.5523 6.55228 20 6 20H4C3.44772 20 3 19.5523 3 19V6C3 5.44772 3.44772 5 4 5H6ZM12 5C12 4.44772 12.4477 4 13 4H17C17.5523 4 18 4.44772 18 5V6C18 6.55228 17.5523 7 17 7H13C12.4477 7 12 6.55228 12 6V5ZM13 18C12.4477 18 12 18.4477 12 19C12 19.5523 12.4477 20 13 20H17C17.5523 20 18 19.5523 18 19C18 18.4477 17.5523 18 17 18H13ZM12 11C11.4477 11 11 11.4477 11 12C11 12.5523 11.4478 13 12.0001 13C12.5524 13 13.0001 12.5523 13.0001 12C13.0001 11.4477 12.5523 11 12 11ZM14 12C14 11.4477 14.4477 11 15 11C15.5523 11 16.0001 11.4477 16.0001 12C16.0001 12.5523 15.5524 13 15.0001 13C14.4478 13 14 12.5523 14 12ZM17 12C17 11.4477 17.4477 11 18 11C18.5523 11 19.0001 11.4477 19.0001 12C19.0001 12.5523 18.5524 13 18.0001 13C17.4478 13 17 12.5523 17 12ZM13 17H17C18.1046 17 19 17.8954 19 19C19 20.1046 18.1046 21 17 21H13C11.8954 21 11 20.1046 11 19C11 17.8954 11.8954 17 13 17ZM11 6V5C11 3.89543 11.8954 3 13 3H17C18.1046 3 19 3.89543 19 5V6C19 7.10457 18.1046 8 17 8H13C11.8954 8 11 7.10457 11 6Z" fill="black"/>
</svg>
