<svg width="24" height="24" viewBox="0 0 24 24" fill="none" xmlns="http://www.w3.org/2000/svg">
<path d="M3 2C2.44772 2 2 2.44772 2 3C2 3.55228 2.44782 4 3.0001 4C3.55238 4 4.0001 3.55228 4.0001 3C4.0001 2.44772 3.55228 2 3 2Z" fill="black"/>
<path d="M3 5C2.44772 5 2 5.44772 2 6C2 6.55228 2.44782 7 3.0001 7C3.55238 7 4.0001 6.55228 4.0001 6C4.0001 5.44772 3.55228 5 3 5Z" fill="black"/>
<path d="M2 9C2 8.44772 2.44772 8 3 8C3.55228 8 4.0001 8.44772 4.0001 9C4.0001 9.55228 3.55238 10 3.0001 10C2.44782 10 2 9.55228 2 9Z" fill="black"/>
<path d="M3 11C2.44772 11 2 11.4477 2 12C2 12.5523 2.44782 13 3.0001 13C3.55238 13 4.0001 12.5523 4.0001 12C4.0001 11.4477 3.55228 11 3 11Z" fill="black"/>
<path d="M2 15C2 14.4477 2.44772 14 3 14C3.55228 14 4.0001 14.4477 4.0001 15C4.0001 15.5523 3.55238 16 3.0001 16C2.44782 16 2 15.5523 2 15Z" fill="black"/>
<path d="M3 17C2.44772 17 2 17.4477 2 18C2 18.5523 2.44782 19 3.0001 19C3.55238 19 4.0001 18.5523 4.0001 18C4.0001 17.4477 3.55228 17 3 17Z" fill="black"/>
<path d="M5 18C5 17.4477 5.44772 17 6 17C6.55228 17 7.0001 17.4477 7.0001 18C7.0001 18.5523 6.55238 19 6.0001 19C5.44782 19 5 18.5523 5 18Z" fill="black"/>
<path d="M9 17C8.44772 17 8 17.4477 8 18C8 18.5523 8.44782 19 9.0001 19C9.55238 19 10.0001 18.5523 10.0001 18C10.0001 17.4477 9.55228 17 9 17Z" fill="black"/>
<path d="M11 18C11 17.4477 11.4477 17 12 17C12.5523 17 13.0001 17.4477 13.0001 18C13.0001 18.5523 12.5524 19 12.0001 19C11.4478 19 11 18.5523 11 18Z" fill="black"/>
<path d="M6 8C5.44772 8 5 8.44772 5 9C5 9.55228 5.44782 10 6.0001 10C6.55238 10 7.0001 9.55228 7.0001 9C7.0001 8.44772 6.55228 8 6 8Z" fill="black"/>
<path d="M8 9C8 8.44772 8.44772 8 9 8C9.55228 8 10.0001 8.44772 10.0001 9C10.0001 9.55228 9.55238 10 9.0001 10C8.44782 10 8 9.55228 8 9Z" fill="black"/>
<path d="M12 8C11.4477 8 11 8.44772 11 9C11 9.55228 11.4478 10 12.0001 10C12.5524 10 13.0001 9.55228 13.0001 9C13.0001 8.44772 12.5523 8 12 8Z" fill="black"/>
<path fill-rule="evenodd" clip-rule="evenodd" d="M14 17C14 15.3431 15.3431 14 17 14H19C20.6569 14 22 15.3431 22 17V19C22 20.6569 20.6569 22 19 22H17C15.3431 22 14 20.6569 14 19V17ZM17 16C16.4477 16 16 16.4477 16 17V19C16 19.5523 16.4477 20 17 20H19C19.5523 20 20 19.5523 20 19V17C20 16.4477 19.5523 16 19 16H17Z" fill="black"/>
<path fill-rule="evenodd" clip-rule="evenodd" d="M17 5C15.3431 5 14 6.34315 14 8V10C14 11.6569 15.3431 13 17 13H19C20.6569 13 22 11.6569 22 10V8C22 6.34315 20.6569 5 19 5H17ZM16 8C16 7.44772 16.4477 7 17 7H19C19.5523 7 20 7.44772 20 8V10C20 10.5523 19.5523 11 19 11H17C16.4477 11 16 10.5523 16 10V8Z" fill="black"/>
</svg>
