<svg width="24" height="24" viewBox="0 0 24 24" fill="none" xmlns="http://www.w3.org/2000/svg">
<path fill-rule="evenodd" clip-rule="evenodd" d="M3 6C3 3.79086 4.79086 2 7 2H13.8202C14.6318 2 15.4088 2.32888 15.9739 2.91156L20.1537 7.22202C20.6965 7.78175 21 8.53079 21 9.31046V18C21 20.2091 19.2091 22 17 22H7C4.79086 22 3 20.2091 3 18V6ZM7 4C5.89543 4 5 4.89543 5 6V18C5 19.1046 5.89543 20 7 20H17C18.1046 20 19 19.1046 19 18V9.31046C19 9.05057 18.8988 8.80089 18.7179 8.61432L14.5381 4.30385C14.3497 4.10963 14.0907 4 13.8202 4H7Z" fill="black"/>
<path fill-rule="evenodd" clip-rule="evenodd" d="M13 3C13.5523 3 14 3.44772 14 4V8H19C19.5523 8 20 8.44772 20 9C20 9.55228 19.5523 10 19 10H14C12.8954 10 12 9.10457 12 8V4C12 3.44772 12.4477 3 13 3Z" fill="black"/>
</svg>
