<svg width="24" height="24" viewBox="0 0 24 24" fill="none" xmlns="http://www.w3.org/2000/svg">
<g clip-path="url(#clip0_30_22523)">
<path fill-rule="evenodd" clip-rule="evenodd" d="M16 21.25C15.1166 21.25 14.3521 20.7409 13.9839 20C13.8342 19.6988 13.75 19.3592 13.75 19C13.75 17.7574 14.7574 16.75 16 16.75H16.75V16C16.75 15.1166 17.2591 14.3521 18 13.9839C18.3012 13.8342 18.6408 13.75 19 13.75C19.3592 13.75 19.6988 13.8503 20 14C20.429 14.2132 20.7803 14.5538 21 14.9744V8.70156C21 8.02035 20.7682 7.35942 20.3426 6.82748L17.3814 3.12591C16.812 2.41427 15.9501 2 15.0388 2H6C4.34315 2 3 3.34315 3 5V19C3 20.6569 4.34315 22 6 22H16.75V21.25H16ZM16 8C15.4477 8 15 7.55228 15 7V4H15.0388C15.3425 4 15.6298 4.13809 15.8196 4.3753L18.7194 8H16Z" fill="black"/>
<path d="M20 16C20 15.4477 19.5523 15 19 15C18.4477 15 18 15.4477 18 16V18H16C15.4477 18 15 18.4477 15 19C15 19.5523 15.4477 20 16 20H18V21.8293V22C18 22.5523 18.4477 23 19 23C19.5523 23 20 22.5523 20 22V20H22C22.5523 20 23 19.5523 23 19C23 18.4477 22.5523 18 22 18H20V16Z" fill="black"/>
</g>
<defs>
<clipPath id="clip0_30_22523">
<rect width="24" height="24" fill="white"/>
</clipPath>
</defs>
</svg>
