<svg width="24" height="24" viewBox="0 0 24 24" fill="none" xmlns="http://www.w3.org/2000/svg">
<path d="M11 14C10.4477 14 10 13.5523 10 13V8C10 7.44772 10.4477 7 11 7C11.5523 7 12 7.44772 12 8V13C12 13.5523 11.5523 14 11 14Z" fill="black"/>
<path d="M12 16C12 16.5523 11.5523 17 11 17C10.4477 17 10 16.5522 10 15.9999C10 15.4476 10.4477 14.9999 11 14.9999C11.5523 14.9999 12 15.4477 12 16Z" fill="black"/>
<path fill-rule="evenodd" clip-rule="evenodd" d="M19.2141 5.75217C19.7196 6.30512 20 7.02724 20 7.77648V18C20 19.6569 18.6569 21 17 21H5C3.34315 21 2 19.6569 2 18V4C2 2.34315 3.34315 1 5 1H13.5472C14.3895 1 15.193 1.35407 15.7613 1.97569L19.2141 5.75217ZM4 4C4 3.44772 4.44772 3 5 3H12V6C12 7.65685 13.3431 9 15 9H18V18C18 18.5523 17.5523 19 17 19H5C4.44772 19 4 18.5523 4 18V4ZM14.2853 3.32523L17.645 7H15C14.4477 7 14 6.55228 14 6V3.10838C14.1063 3.16233 14.2031 3.2354 14.2853 3.32523Z" fill="black"/>
</svg>
