<svg width="24" height="24" viewBox="0 0 24 24" fill="none" xmlns="http://www.w3.org/2000/svg">
<path fill-rule="evenodd" clip-rule="evenodd" d="M5 5C5 4.44772 5.44772 4 6 4H13V7C13 8.65685 14.3431 10 16 10H19V11C19 11.5523 19.4477 12 20 12C20.5523 12 21 11.5523 21 11V8.77648C21 8.02724 20.7196 7.30512 20.2141 6.75217L16.7613 2.97569C16.193 2.35407 15.3895 2 14.5472 2H6C4.34315 2 3 3.34315 3 5V19C3 20.6569 4.34315 22 6 22H11C11.5523 22 12 21.5523 12 21C12 20.4477 11.5523 20 11 20H6C5.44772 20 5 19.5523 5 19V5ZM15.2853 4.32523C15.2031 4.2354 15.1063 4.16233 15 4.10838V7C15 7.55228 15.4477 8 16 8H18.645L15.2853 4.32523Z" fill="black"/>
<path fill-rule="evenodd" clip-rule="evenodd" d="M18 13C15.2386 13 13 15.2386 13 18C13 20.7614 15.2386 23 18 23C20.7614 23 23 20.7614 23 18C23 15.2386 20.7614 13 18 13ZM15 18C15 16.3431 16.3431 15 18 15C18.2544 15 18.5015 15.0317 18.7374 15.0913L15.599 19.7989C15.2228 19.2977 15 18.6749 15 18ZM17.2628 20.9087L20.4011 16.2012C20.7772 16.7024 21 17.3252 21 18C21 19.6569 19.6569 21 18 21C17.7456 21 17.4986 20.9683 17.2628 20.9087Z" fill="black"/>
</svg>
