<svg width="24" height="24" viewBox="0 0 24 24" fill="none" xmlns="http://www.w3.org/2000/svg">
<path d="M2 3C2 2.44772 2.44772 2 3 2C3.55228 2 4.0001 2.44772 4.0001 3C4.0001 3.55228 3.55238 4 3.0001 4C2.44782 4 2 3.55228 2 3Z" fill="black"/>
<path d="M2 6C2 5.44772 2.44772 5 3 5C3.55228 5 4.0001 5.44772 4.0001 6C4.0001 6.55228 3.55238 7 3.0001 7C2.44782 7 2 6.55228 2 6Z" fill="black"/>
<path d="M2 9C2 8.44772 2.44772 8 3 8C3.55228 8 4.0001 8.44772 4.0001 9C4.0001 9.55228 3.55238 10 3.0001 10C2.44782 10 2 9.55228 2 9Z" fill="black"/>
<path d="M2 12C2 11.4477 2.44772 11 3 11C3.55228 11 4.0001 11.4477 4.0001 12C4.0001 12.5523 3.55238 13 3.0001 13C2.44782 13 2 12.5523 2 12Z" fill="black"/>
<path d="M2 15C2 14.4477 2.44772 14 3 14C3.55228 14 4.0001 14.4477 4.0001 15C4.0001 15.5523 3.55238 16 3.0001 16C2.44782 16 2 15.5523 2 15Z" fill="black"/>
<path d="M2 18C2 17.4477 2.44772 17 3 17C3.55228 17 4.0001 17.4477 4.0001 18C4.0001 18.5523 3.55238 19 3.0001 19C2.44782 19 2 18.5523 2 18Z" fill="black"/>
<path d="M5 18C5 17.4477 5.44772 17 6 17C6.55228 17 7.0001 17.4477 7.0001 18C7.0001 18.5523 6.55238 19 6.0001 19C5.44782 19 5 18.5523 5 18Z" fill="black"/>
<path d="M8 18C8 17.4477 8.44772 17 9 17C9.55228 17 10.0001 17.4477 10.0001 18C10.0001 18.5523 9.55238 19 9.0001 19C8.44782 19 8 18.5523 8 18Z" fill="black"/>
<path d="M11 18C11 17.4477 11.4477 17 12 17C12.5523 17 13.0001 17.4477 13.0001 18C13.0001 18.5523 12.5524 19 12.0001 19C11.4478 19 11 18.5523 11 18Z" fill="black"/>
<path d="M5 9C5 8.44772 5.44772 8 6 8C6.55228 8 7.0001 8.44772 7.0001 9C7.0001 9.55228 6.55238 10 6.0001 10C5.44782 10 5 9.55228 5 9Z" fill="black"/>
<path d="M8 9C8 8.44772 8.44772 8 9 8C9.55228 8 10.0001 8.44772 10.0001 9C10.0001 9.55228 9.55238 10 9.0001 10C8.44782 10 8 9.55228 8 9Z" fill="black"/>
<path d="M11 9C11 8.44772 11.4477 8 12 8C12.5523 8 13.0001 8.44772 13.0001 9C13.0001 9.55228 12.5524 10 12.0001 10C11.4478 10 11 9.55228 11 9Z" fill="black"/>
<path d="M14 17C14 15.3431 15.3431 14 17 14H19C20.6569 14 22 15.3431 22 17V19C22 20.6569 20.6569 22 19 22H17C15.3431 22 14 20.6569 14 19V17Z" fill="black"/>
<path d="M14 8C14 6.34315 15.3431 5 17 5H19C20.6569 5 22 6.34315 22 8V10C22 11.6569 20.6569 13 19 13H17C15.3431 13 14 11.6569 14 10V8Z" fill="black"/>
</svg>
