<svg width="24" height="24" viewBox="0 0 24 24" fill="none" xmlns="http://www.w3.org/2000/svg">
<g clip-path="url(#clip0_30_22161)">
<path fill-rule="evenodd" clip-rule="evenodd" d="M14.818 20L16.409 21.591C16.5752 21.7572 16.7645 21.8945 16.9692 22H6C4.34315 22 3 20.6569 3 19V5C3 3.34315 4.34315 2 6 2H14.5472C15.3895 2 16.193 2.35407 16.7613 2.97569L20.2141 6.75217C20.7196 7.30512 21 8.02724 21 8.77648V12.8854L19 15.2854L17.8488 16.6668L16.591 15.409C15.7123 14.5304 14.2877 14.5304 13.409 15.409C12.5303 16.2877 12.5303 17.7123 13.409 18.591L14.818 20ZM18.645 8L15.2853 4.32523C15.2031 4.2354 15.1063 4.16233 15 4.10838V7C15 7.55228 15.4477 8 16 8H18.645Z" fill="black"/>
<path d="M17.9328 18.5186L19 17.238L21 14.838L22.2318 13.3598C22.5853 12.9356 23.2159 12.8782 23.6402 13.2318C24.0645 13.5854 24.1218 14.2159 23.7682 14.6402L21 17.9621L18.7682 20.6402C18.5884 20.856 18.326 20.9863 18.0453 20.999C17.7646 21.0117 17.4916 20.9058 17.2929 20.7071L16.5858 20L14.2929 17.7071C13.9024 17.3166 13.9024 16.6834 14.2929 16.2929C14.6834 15.9024 15.3166 15.9024 15.7071 16.2929L17.9328 18.5186Z" fill="black"/>
</g>
<defs>
<clipPath id="clip0_30_22161">
<rect width="24" height="24" fill="white"/>
</clipPath>
</defs>
</svg>
