<svg width="24" height="24" viewBox="0 0 24 24" fill="none" xmlns="http://www.w3.org/2000/svg">
<path d="M10.4102 10.8979C10.8166 10.6804 11.3098 10.7042 11.6934 10.9599L14.6934 12.9599C15.0411 13.1918 15.25 13.5821 15.25 14C15.25 14.4179 15.0411 14.8082 14.6934 15.0401L11.6934 17.0401C11.3098 17.2958 10.8166 17.3196 10.4102 17.1021C10.0037 16.8846 9.75 16.461 9.75 16V12C9.75 11.539 10.0037 11.1154 10.4102 10.8979Z" fill="black"/>
<path fill-rule="evenodd" clip-rule="evenodd" d="M7 2C4.23858 2 2 4.23858 2 7V17C2 19.7614 4.23858 22 7 22H17C19.7614 22 22 19.7614 22 17V7C22 4.23858 19.7614 2 17 2H7ZM17.8217 4.11393L16.539 7H20C20 5.62807 19.0791 4.47124 17.8217 4.11393ZM14.9772 9C14.9922 9.00034 15.0072 9.00034 15.0222 9H20V17C20 18.6569 18.6569 20 17 20H7C5.34315 20 4 18.6569 4 17V9H6.97719L6.98282 9.00011C6.99597 9.00033 7.0091 9.0003 7.02221 9H10.9772C10.9922 9.00034 11.0072 9.00034 11.0222 9H14.9772ZM14.3504 7L15.6837 4H13.8723L12.539 7H14.3504ZM10.3504 7L11.6837 4H9.87235L8.53901 7H10.3504ZM6.35038 7L7.68371 4H7C5.34315 4 4 5.34315 4 7H6.35038Z" fill="black"/>
</svg>
