<svg width="24" height="24" viewBox="0 0 24 24" fill="none" xmlns="http://www.w3.org/2000/svg">
<path fill-rule="evenodd" clip-rule="evenodd" d="M1 6C1 4.34315 2.34315 3 4 3H20C21.6569 3 23 4.34315 23 6V18C23 19.6569 21.6569 21 20 21H4C2.34315 21 1 19.6569 1 18V6ZM4 5C3.44772 5 3 5.44772 3 6V18C3 18.5523 3.44772 19 4 19H5H19H20C20.5523 19 21 18.5523 21 18V6C21 5.44772 20.5523 5 20 5H19H5H4Z" fill="black"/>
<path fill-rule="evenodd" clip-rule="evenodd" d="M6 3C6.55228 3 7 3.44772 7 4V20C7 20.5523 6.55228 21 6 21C5.44772 21 5 20.5523 5 20V19V17V15V13V11V9V7V5V4C5 3.44772 5.44772 3 6 3Z" fill="black"/>
<path fill-rule="evenodd" clip-rule="evenodd" d="M18 3C18.5523 3 19 3.44772 19 4V5V7V9V11V13V15V17V19V20C19 20.5523 18.5523 21 18 21C17.4477 21 17 20.5523 17 20V4C17 3.44772 17.4477 3 18 3Z" fill="black"/>
<path fill-rule="evenodd" clip-rule="evenodd" d="M2 12C2 11.4477 2.44772 11 3 11H5H19H21C21.5523 11 22 11.4477 22 12C22 12.5523 21.5523 13 21 13H19H5H3C2.44772 13 2 12.5523 2 12Z" fill="black"/>
<path d="M4 5C3.44772 5 3 5.44772 3 6V7H5V5H4Z" fill="black"/>
<path fill-rule="evenodd" clip-rule="evenodd" d="M3 7C2.44772 7 2 7.44772 2 8C2 8.55228 2.44772 9 3 9V7ZM5 9H6C6.55228 9 7 8.55228 7 8C7 7.44772 6.55228 7 6 7H5V9Z" fill="black"/>
<path d="M3 9V11H5V9H3Z" fill="black"/>
<path d="M3 13V15H5V13H3Z" fill="black"/>
<path fill-rule="evenodd" clip-rule="evenodd" d="M3 15C2.44772 15 2 15.4477 2 16C2 16.5523 2.44772 17 3 17V15ZM5 17H6C6.55228 17 7 16.5523 7 16C7 15.4477 6.55228 15 6 15H5V17Z" fill="black"/>
<path d="M3 17V18C3 18.5523 3.44772 19 4 19H5V17H3Z" fill="black"/>
<path d="M20 19C20.5523 19 21 18.5523 21 18V17H19V19H20Z" fill="black"/>
<path fill-rule="evenodd" clip-rule="evenodd" d="M18 15C17.4477 15 17 15.4477 17 16C17 16.5523 17.4477 17 18 17H19V15H18ZM21 17C21.5523 17 22 16.5523 22 16C22 15.4477 21.5523 15 21 15V17Z" fill="black"/>
<path d="M21 15V13H19V15H21Z" fill="black"/>
<path d="M21 7V6C21 5.44772 20.5523 5 20 5H19V7H21Z" fill="black"/>
<path fill-rule="evenodd" clip-rule="evenodd" d="M18 7C17.4477 7 17 7.44772 17 8C17 8.55228 17.4477 9 18 9H19V7H18ZM21 9C21.5523 9 22 8.55228 22 8C22 7.44772 21.5523 7 21 7V9Z" fill="black"/>
<path d="M21 11V9H19V11H21Z" fill="black"/>
</svg>
