<svg width="24" height="24" viewBox="0 0 24 24" fill="none" xmlns="http://www.w3.org/2000/svg">
<path fill-rule="evenodd" clip-rule="evenodd" d="M4 21C4 21.3214 4.15452 21.6233 4.41529 21.8112C4.67606 21.9992 5.01128 22.0503 5.31623 21.9487L7.92327 21.0797L9.55279 21.8944C9.83431 22.0352 10.1657 22.0352 10.4472 21.8944L12 21.118L13.5528 21.8944C13.8343 22.0352 14.1657 22.0352 14.4472 21.8944L16.0767 21.0797L18.6838 21.9487C18.9887 22.0503 19.3239 21.9992 19.5847 21.8112C19.8455 21.6233 20 21.3214 20 21V6C20 3.79086 18.2091 2 16 2H3C1.34315 2 0 3.34315 0 5V10C0 10.5523 0.447715 11 1 11H4V21ZM3 4C2.44772 4 2 4.44772 2 5V9H4V5C4 4.44772 3.55228 4 3 4ZM9 6C8.44771 6 8 6.44772 8 7C8 7.55228 8.44771 8 9 8H15C15.5523 8 16 7.55228 16 7C16 6.44772 15.5523 6 15 6H9ZM8 11C8 10.4477 8.44771 10 9 10H15C15.5523 10 16 10.4477 16 11C16 11.5523 15.5523 12 15 12H9C8.44771 12 8 11.5523 8 11ZM9 14C8.44771 14 8 14.4477 8 15C8 15.5523 8.44771 16 9 16H13C13.5523 16 14 15.5523 14 15C14 14.4477 13.5523 14 13 14H9Z" fill="black"/>
</svg>
