<svg width="24" height="24" viewBox="0 0 24 24" fill="none" xmlns="http://www.w3.org/2000/svg">
<path d="M8 7C8 6.44772 8.44771 6 9 6H15C15.5523 6 16 6.44772 16 7C16 7.55228 15.5523 8 15 8H9C8.44771 8 8 7.55228 8 7Z" fill="black"/>
<path d="M9 10C8.44771 10 8 10.4477 8 11C8 11.5523 8.44771 12 9 12H15C15.5523 12 16 11.5523 16 11C16 10.4477 15.5523 10 15 10H9Z" fill="black"/>
<path d="M8 15C8 14.4477 8.44771 14 9 14H13C13.5523 14 14 14.4477 14 15C14 15.5523 13.5523 16 13 16H9C8.44771 16 8 15.5523 8 15Z" fill="black"/>
<path fill-rule="evenodd" clip-rule="evenodd" d="M4.41529 21.8112C4.15452 21.6233 4 21.3214 4 21V11H1C0.447715 11 0 10.5523 0 10V5C0 3.34315 1.34315 2 3 2H16C18.2091 2 20 3.79086 20 6V21C20 21.3214 19.8455 21.6233 19.5847 21.8112C19.3239 21.9992 18.9887 22.0503 18.6838 21.9487L16.0767 21.0797L14.4472 21.8944C14.1657 22.0352 13.8343 22.0352 13.5528 21.8944L12 21.118L10.4472 21.8944C10.1657 22.0352 9.83431 22.0352 9.55279 21.8944L7.92327 21.0797L5.31623 21.9487C5.01128 22.0503 4.67606 21.9992 4.41529 21.8112ZM2 5C2 4.44772 2.44772 4 3 4C3.55228 4 4 4.44772 4 5V9H2V5ZM5.82929 4C5.93985 4.31278 6 4.64936 6 5V19.6126L7.68377 19.0513C7.93538 18.9674 8.21 18.987 8.44721 19.1056L10 19.882L11.5528 19.1056C11.8343 18.9648 12.1657 18.9648 12.4472 19.1056L14 19.882L15.5528 19.1056C15.79 18.987 16.0646 18.9674 16.3162 19.0513L18 19.6126V6C18 4.89543 17.1046 4 16 4H5.82929Z" fill="black"/>
</svg>
