<svg width="24" height="24" viewBox="0 0 24 24" fill="none" xmlns="http://www.w3.org/2000/svg">
<g clip-path="url(#clip0_30_22092)">
<path d="M19.01 8.14211C19.0034 8.09569 19 8.04825 19 8V5.41421L18.7071 5.70711C18.3166 6.09763 17.6834 6.09763 17.2929 5.70711C16.9024 5.31658 16.9024 4.68342 17.2929 4.29289L17.7608 3.82503L19.2929 2.29289C19.6834 1.90237 20.3166 1.90237 20.7071 2.29289L22.7071 4.29289C23.0976 4.68342 23.0976 5.31658 22.7071 5.70711C22.3166 6.09763 21.6834 6.09763 21.2929 5.70711L21 5.41421V7.63588V8C21 8.55228 20.5523 9 20 9C19.724 9 19.4741 8.88817 19.2931 8.70735C19.1437 8.55798 19.0412 8.36151 19.01 8.14211Z" fill="black"/>
<path d="M4.98998 15.8579C4.99658 15.9043 5 15.9518 5 16V18.5858L5.29289 18.2929C5.68342 17.9024 6.31658 17.9024 6.70711 18.2929C7.09763 18.6834 7.09763 19.3166 6.70711 19.7071L6.23924 20.175L4.70711 21.7071C4.31658 22.0976 3.68342 22.0976 3.29289 21.7071L1.29289 19.7071C0.902369 19.3166 0.902369 18.6834 1.29289 18.2929C1.68342 17.9024 2.31658 17.9024 2.70711 18.2929L3 18.5858V16.3641V16C3 15.4477 3.44772 15 4 15C4.27601 15 4.52591 15.1118 4.70685 15.2926C4.85634 15.442 4.95877 15.6385 4.98998 15.8579Z" fill="black"/>
<path fill-rule="evenodd" clip-rule="evenodd" d="M16.409 6.59099C15.9524 6.13438 15.7331 5.53034 15.751 4.93209C15.7676 4.37911 15.9869 3.83108 16.409 3.40901L16.6653 3.15269C15.2725 2.41671 13.6849 2 12 2C6.47715 2 2 6.47715 2 12C2 12.8657 2.11001 13.7057 2.31681 14.5069C2.72898 14.0426 3.33032 13.75 4 13.75C4.0653 13.75 4.12994 13.7528 4.19383 13.7582C5.34573 13.8565 6.25 14.8227 6.25 16V16.7639C6.7399 16.8183 7.21534 17.0334 7.59099 17.409C8.0476 17.8656 8.26693 18.4697 8.24898 19.0679C8.23239 19.6209 8.01306 20.1689 7.59099 20.591L7.33467 20.8473C8.72749 21.5833 10.3151 22 12 22C17.5228 22 22 17.5228 22 12C22 11.1343 21.89 10.2943 21.6832 9.49315C21.271 9.95743 20.6697 10.25 20 10.25C19.9347 10.25 19.8701 10.2472 19.8062 10.2418C18.6543 10.1435 17.75 9.17735 17.75 8V7.23615C17.2601 7.1817 16.7847 6.96664 16.409 6.59099ZM12 18C11.4477 18 11 17.5523 11 17V16.586C10.1669 16.3038 9.48871 15.6767 9.17809 14.8528C8.98326 14.336 9.24425 13.7591 9.76103 13.5643C10.2778 13.3695 10.8547 13.6304 11.0495 14.1472C11.1706 14.4683 11.5261 14.75 12 14.75C12.6141 14.75 13 14.2984 13 13.875C13 13.4516 12.6141 13 12 13C10.4049 13 9 11.7726 9 10.125C9 8.83523 9.8609 7.803 11 7.41544V7C11 6.44771 11.4477 6 12 6C12.5523 6 13 6.44771 13 7V7.41402C13.8331 7.69616 14.5113 8.32335 14.8219 9.14723C15.0167 9.664 14.7557 10.2409 14.239 10.4357C13.7222 10.6305 13.1453 10.3696 12.9505 9.85277C12.8294 9.53167 12.4739 9.25 12 9.25C11.3859 9.25 11 9.70156 11 10.125C11 10.5484 11.3859 11 12 11C13.5951 11 15 12.2274 15 13.875C15 15.1648 14.1391 16.197 13 16.5846V17C13 17.5523 12.5523 18 12 18Z" fill="black"/>
</g>
<defs>
<clipPath id="clip0_30_22092">
<rect width="24" height="24" fill="white"/>
</clipPath>
</defs>
</svg>
