<svg width="24" height="24" viewBox="0 0 24 24" fill="none" xmlns="http://www.w3.org/2000/svg">
<path d="M8.5852 3.7681C7.11078 4.18193 5.59431 4.881 4.55056 6.00929C4.26927 6.31335 3.79476 6.33182 3.4907 6.05054C3.18664 5.76926 3.16817 5.29474 3.44945 4.99068C4.75908 3.57499 6.57594 2.77408 8.17985 2.32391C9.79098 1.87171 11.2714 1.75 12 1.75C12.7287 1.75 14.209 1.87171 15.8202 2.32391C17.4241 2.77408 19.2409 3.57499 20.5506 4.99068C20.8318 5.29474 20.8134 5.76926 20.5093 6.05054C20.2052 6.33182 19.7307 6.31335 19.4495 6.00929C18.4057 4.881 16.8892 4.18193 15.4148 3.7681C13.9476 3.3563 12.6047 3.25 12 3.25C11.3953 3.25 10.0524 3.3563 8.5852 3.7681Z" fill="black"/>
<path d="M12.0001 5.75C8.33816 5.75 5.19605 7.6466 3.65262 10.3698C3.44838 10.7302 2.99068 10.8567 2.63032 10.6525C2.26996 10.4482 2.1434 9.99055 2.34764 9.63019C4.17072 6.41357 7.82551 4.25 12.0001 4.25C16.1748 4.25 19.8295 6.41357 21.6526 9.63019C21.8569 9.99055 21.7303 10.4482 21.3699 10.6525C21.0096 10.8567 20.5519 10.7302 20.3476 10.3698C18.8042 7.6466 15.6621 5.75 12.0001 5.75Z" fill="black"/>
<path d="M5.25 15.5C5.25 11.4306 8.05741 8.25 11.999 8.25C14.0656 8.25 15.7468 8.85265 16.9025 9.89909C18.0489 10.9372 18.749 12.4752 18.749 14.5L18.7493 14.5472C18.754 15.0887 18.5679 15.5034 18.2869 15.7823C18.0047 16.0623 17.5815 16.25 17.0329 16.25C16.2572 16.25 15.6055 15.6667 15.5199 14.8958L15.4864 14.5945C15.3065 12.9751 13.9376 11.75 12.3083 11.75C10.3919 11.75 8.40012 13.1654 8.66046 15.3835C8.81813 16.727 9.26872 18.2066 10.2425 19.4751C11.2262 20.7563 12.7097 21.7765 14.8419 22.2334C15.2469 22.3201 15.6456 22.0622 15.7324 21.6571C15.8192 21.2521 15.5612 20.8534 15.1562 20.7666C13.356 20.3809 12.1892 19.5475 11.4323 18.5617C10.6657 17.563 10.2856 16.3621 10.1502 15.2087C10.0298 14.1822 10.9577 13.25 12.3083 13.25C13.1733 13.25 13.9 13.9004 13.9956 14.7602L14.029 15.0614C14.1991 16.592 15.4929 17.75 17.0329 17.75C17.9359 17.75 18.7522 17.4338 19.3434 16.847C19.9359 16.2591 20.2571 15.4442 20.2492 14.5341L20.249 14.5C20.249 12.1065 19.4083 10.1445 17.9093 8.7872C16.4195 7.43821 14.3508 6.75 11.999 6.75C7.10413 6.75 3.75 10.7328 3.75 15.5C3.75 17.1195 4.12122 18.1143 4.8508 19.3755C5.0582 19.7341 5.517 19.8566 5.87554 19.6492C6.23409 19.4418 6.35661 18.983 6.1492 18.6245C5.51742 17.5323 5.25 16.7948 5.25 15.5Z" fill="black"/>
<path d="M12 13.75C12.4142 13.75 12.75 14.0858 12.75 14.5C12.75 15.3074 13.1754 16.6147 14.0928 17.5322C14.9561 18.3954 16.2845 18.9479 18.2628 18.2885C18.6558 18.1575 19.0805 18.3699 19.2115 18.7628C19.3425 19.1558 19.1301 19.5805 18.7372 19.7115C16.2155 20.5521 14.2939 19.8546 13.0322 18.5928C11.8246 17.3853 11.25 15.6926 11.25 14.5C11.25 14.0858 11.5858 13.75 12 13.75Z" fill="black"/>
<path d="M7.75 15C7.75 12.6528 9.65279 10.75 12 10.75C14.3472 10.75 16.25 12.6528 16.25 15C16.25 15.4142 16.5858 15.75 17 15.75C17.4142 15.75 17.75 15.4142 17.75 15C17.75 11.8244 15.1756 9.25 12 9.25C8.82436 9.25 6.25 11.8244 6.25 15C6.25 15.7577 6.41661 16.9519 6.90294 18.1768C7.39078 19.4054 8.22125 20.7156 9.58397 21.624C9.92862 21.8538 10.3943 21.7607 10.624 21.416C10.8538 21.0714 10.7607 20.6057 10.416 20.376C9.37875 19.6844 8.70922 18.6613 8.29706 17.6232C7.88339 16.5814 7.75 15.5756 7.75 15Z" fill="black"/>
</svg>
