<svg width="24" height="24" viewBox="0 0 24 24" fill="none" xmlns="http://www.w3.org/2000/svg">
<path d="M8.51764 3.5274C7.02164 3.94728 5.45511 4.66334 4.36704 5.83952C4.17952 6.04223 3.86317 6.05454 3.66047 5.86702C3.45776 5.6795 3.44545 5.36316 3.63297 5.16045C4.89828 3.79266 6.66508 3.00872 8.24741 2.5646C9.83455 2.11914 11.292 2 12 2C12.708 2 14.1655 2.11914 15.7526 2.5646C17.3349 3.00872 19.1017 3.79266 20.367 5.16045C20.5546 5.36316 20.5422 5.6795 20.3395 5.86702C20.1368 6.05454 19.8205 6.04223 19.633 5.83952C18.5449 4.66334 16.9784 3.94728 15.4824 3.5274C13.9912 3.10887 12.6253 3 12 3C11.3747 3 10.0088 3.10887 8.51764 3.5274Z" fill="black"/>
<path d="M12.0001 5.5C8.25267 5.5 5.02512 7.4411 3.43508 10.2465C3.29892 10.4868 2.99379 10.5712 2.75355 10.435C2.51331 10.2988 2.42893 9.9937 2.5651 9.75346C4.34157 6.61908 7.91091 4.5 12.0001 4.5C16.0893 4.5 19.6586 6.61908 21.4351 9.75346C21.5712 9.9937 21.4869 10.2988 21.2466 10.435C21.0064 10.5712 20.7013 10.4868 20.5651 10.2465C18.9751 7.4411 15.7475 5.5 12.0001 5.5Z" fill="black"/>
<path d="M5 15.5C5 11.3143 7.89853 8 11.999 8C14.1131 8 15.8589 8.61691 17.0703 9.71378C18.2755 10.8051 18.999 12.4138 18.999 14.5L18.9992 14.545C19.0045 15.1479 18.7959 15.6294 18.4629 15.9597C18.1293 16.2909 17.6405 16.5 17.0329 16.5C16.1298 16.5 15.3711 15.821 15.2714 14.9234L15.2379 14.6221C15.072 13.1294 13.8103 12 12.3083 12C10.4862 12 8.67172 13.3348 8.90875 15.3544C9.06271 16.6661 9.50154 18.0994 10.4408 19.3229C11.3867 20.5549 12.8174 21.5439 14.8943 21.9889C15.1643 22.0468 15.4301 21.8748 15.4879 21.6048C15.5458 21.3348 15.3738 21.069 15.1038 21.0111C13.2483 20.6135 12.0287 19.749 11.234 18.7139C10.4329 17.6703 10.041 16.4229 9.90193 15.2378C9.75815 14.0127 10.8634 13 12.3083 13C13.3007 13 14.1344 13.7462 14.244 14.7326L14.2775 15.0338C14.4335 16.4378 15.6202 17.5 17.0329 17.5C17.8768 17.5 18.6276 17.2052 19.1673 16.6696C19.7079 16.1331 20.0066 15.3849 19.9992 14.5363L19.999 14.5C19.999 12.168 19.1818 10.2767 17.7415 8.97251C16.3074 7.67395 14.3033 7 11.999 7C7.26301 7 4 10.8491 4 15.5C4 17.0654 4.35392 18.0173 5.0672 19.2504C5.20547 19.4894 5.51133 19.5711 5.75036 19.4328C5.98939 19.2945 6.07107 18.9887 5.9328 18.7496C5.28472 17.6293 5 16.8489 5 15.5Z" fill="black"/>
<path d="M12 14C12.2761 14 12.5 14.2239 12.5 14.5C12.5 15.3716 12.9503 16.7432 13.9161 17.7089C14.8457 18.6386 16.273 19.2153 18.3419 18.5257C18.6039 18.4383 18.887 18.5799 18.9743 18.8419C19.0617 19.1039 18.9201 19.387 18.6581 19.4743C16.227 20.2847 14.4043 19.6114 13.2089 18.4161C12.0497 17.2568 11.5 15.6284 11.5 14.5C11.5 14.2239 11.7239 14 12 14Z" fill="black"/>
<path d="M7.5 15C7.5 12.5147 9.51472 10.5 12 10.5C14.4853 10.5 16.5 12.5147 16.5 15C16.5 15.2761 16.7239 15.5 17 15.5C17.2761 15.5 17.5 15.2761 17.5 15C17.5 11.9624 15.0376 9.5 12 9.5C8.96243 9.5 6.5 11.9624 6.5 15C6.5 15.7274 6.66107 16.8902 7.13529 18.0845C7.61052 19.2814 8.41416 20.5437 9.72265 21.416C9.95241 21.5692 10.2628 21.5071 10.416 21.2774C10.5692 21.0476 10.5071 20.7372 10.2773 20.584C9.18584 19.8563 8.48948 18.7853 8.06471 17.7155C7.63893 16.6431 7.5 15.606 7.5 15Z" fill="black"/>
</svg>
