<svg width="24" height="24" viewBox="0 0 24 24" fill="none" xmlns="http://www.w3.org/2000/svg">
<g clip-path="url(#clip0_30_22680)">
<path d="M19 12C19 11.4477 18.5523 11 18 11C17.4477 11 17 11.4478 17 12.0001C17 12.5524 17.4477 13.0001 18 13.0001C18.5523 13.0001 19 12.5523 19 12Z" fill="black"/>
<path fill-rule="evenodd" clip-rule="evenodd" d="M1 6C3.01462 6 5.00497 6.63696 6.17567 8.17449C8.25862 5.92008 11.1449 5 14.1101 5C16.1388 5 18.0834 5.61193 19.7541 6.70919C21.4211 7.80404 22.8198 9.3712 23.7721 11.3028L23.773 11.3048L23.898 11.5598C24.0341 11.8375 24.0341 12.1625 23.898 12.4402L23.773 12.6952L23.7716 12.6982C21.8704 16.544 18.1832 19 14.1101 19C11.1456 19 8.25845 18.0839 6.17499 15.8264C5.0042 17.3633 3.01423 18 1 18C0.665449 18 0.353057 17.8327 0.167638 17.5542C-0.0177815 17.2758 -0.0516609 16.923 0.0773661 16.6143L2.00618 12L0.0773661 7.38567C-0.0516609 7.07699 -0.0177815 6.72425 0.167638 6.44577C0.353057 6.1673 0.665449 6 1 6ZM2.57595 8.17726C3.81887 8.48592 4.66774 9.18866 5.01823 10.2145C5.06784 10.4715 5.21765 10.7088 5.45425 10.8629C5.917 11.1644 6.53652 11.0336 6.83799 10.5709C8.4668 8.07075 11.1128 7 14.1101 7C15.7314 7 17.2969 7.48816 18.6562 8.38089C19.9661 9.24122 21.0897 10.4688 21.8834 11.9998C20.2614 15.1215 17.2838 17 14.1101 17C11.1118 17 8.46679 15.9336 6.83843 13.4298C6.53732 12.9668 5.91791 12.8356 5.45492 13.1367C5.21796 13.2908 5.0679 13.5283 5.01823 13.7855C4.66774 14.8113 3.81887 15.5141 2.57595 15.8227L4.01267 12.3857C4.11582 12.1389 4.11582 11.8611 4.01267 11.6143L2.57595 8.17726Z" fill="black"/>
</g>
<defs>
<clipPath id="clip0_30_22680">
<rect width="24" height="24" fill="white"/>
</clipPath>
</defs>
</svg>
