<svg width="24" height="24" viewBox="0 0 24 24" fill="none" xmlns="http://www.w3.org/2000/svg">
<path fill-rule="evenodd" clip-rule="evenodd" d="M18.9976 2.72022L21.9547 12.4195C22.264 13.4338 20.9118 14.3519 20.2457 14.7717C19.1564 15.4583 17.5277 15.9704 15.3374 15.4902C13.135 15.0065 12.2492 14.9197 11.4354 15.1377C11.0205 15.2488 10.5774 15.4537 9.95772 15.8183C9.4867 16.0954 8.95404 16.4398 8.28145 16.8746L7.96287 17.0804L8.98045 20.7328C9.12862 21.2647 8.81632 21.8156 8.28291 21.9633C7.7495 22.111 7.19697 21.7996 7.0488 21.2678L2.03682 3.27837C1.88865 2.74654 2.20095 2.19565 2.73436 2.04793C3.26778 1.9002 3.82031 2.21157 3.96847 2.74339L4.36504 4.16678C4.60194 3.95663 4.87367 3.73636 5.1794 3.5195C6.72247 2.42497 8.85002 1.69355 10.7535 2.12641C12.6182 2.55044 14.3811 2.53135 15.6855 2.40237C16.3815 2.33355 17.0848 2.23318 17.7613 2.05043C18.2825 1.90731 18.8391 2.20005 18.9976 2.72022ZM5.19292 6.15294C5.16495 6.18289 5.13848 6.21174 5.11353 6.23935L7.6041 14.9304C8.102 14.6097 8.54231 14.3301 8.93886 14.0968C9.62219 13.6948 10.2456 13.3866 10.9153 13.2073C12.2703 12.8443 13.6252 13.0674 15.7679 13.538C17.2274 13.8579 18.83 13.6176 19.8841 12.5007L17.3492 4.18603C15.0138 4.57614 12.6272 4.60264 10.3077 4.0752C10.2618 4.06748 7.56391 3.61491 5.19292 6.15294Z" fill="black"/>
</svg>
