<svg width="24" height="24" viewBox="0 0 24 24" fill="none" xmlns="http://www.w3.org/2000/svg">
<path d="M13 4C13 3.44772 12.5523 3 12 3C11.4477 3 11 3.44782 11 4.0001C11 4.55238 11.4477 5.0001 12 5.0001C12.5523 5.0001 13 4.55228 13 4Z" fill="black"/>
<path d="M0 8.17427C0 6.46557 2.00424 5.54375 3.30158 6.65576L7.76499 10.4815C8.69622 11.2797 8.69621 12.7204 7.76499 13.5186L3.30158 17.3443C2.00424 18.4564 0 17.5345 0 15.8258V8.17427Z" fill="black"/>
<path d="M20.6984 6.65576C21.9958 5.54375 24 6.46557 24 8.17427V15.8258C24 17.5345 21.9958 18.4564 20.6984 17.3443L16.235 13.5186C15.3038 12.7204 15.3038 11.2797 16.235 10.4815L20.6984 6.65576Z" fill="black"/>
<path d="M12 7C12.5523 7 13 7.44772 13 8C13 8.55228 12.5523 9.0001 12 9.0001C11.4477 9.0001 11 8.55238 11 8.0001C11 7.44782 11.4477 7 12 7Z" fill="black"/>
<path d="M12 11C12.5523 11 13 11.4477 13 12C13 12.5523 12.5523 13.0001 12 13.0001C11.4477 13.0001 11 12.5524 11 12.0001C11 11.4478 11.4477 11 12 11Z" fill="black"/>
<path d="M12 15C12.5523 15 13 15.4477 13 16C13 16.5523 12.5523 17.0001 12 17.0001C11.4477 17.0001 11 16.5524 11 16.0001C11 15.4478 11.4477 15 12 15Z" fill="black"/>
<path d="M12 19C12.5523 19 13 19.4477 13 20C13 20.5523 12.5523 21.0001 12 21.0001C11.4477 21.0001 11 20.5524 11 20.0001C11 19.4478 11.4477 19 12 19Z" fill="black"/>
</svg>
