<svg width="24" height="24" viewBox="0 0 24 24" fill="none" xmlns="http://www.w3.org/2000/svg">
<path d="M9 5C9 3.34315 10.3431 2 12 2C13.6569 2 15 3.34315 15 5C15 6.31133 14.1586 7.42616 12.9863 7.8341C12.9953 7.88806 13 7.94348 13 8V10H15C17.7614 10 20 12.2386 20 15V16.1707C21.1652 16.5825 22 17.6938 22 19C22 20.6569 20.6569 22 19 22C17.3431 22 16 20.6569 16 19C16 17.6938 16.8348 16.5825 18 16.1707V15C18 13.3431 16.6569 12 15 12H13V16C13 16.0565 12.9953 16.1119 12.9863 16.1659C14.1586 16.5738 15 17.6887 15 19C15 20.6569 13.6569 22 12 22C10.3431 22 9 20.6569 9 19C9 17.6887 9.84136 16.5738 11.0137 16.1659C11.0047 16.1119 11 16.0565 11 16V12H9C7.34315 12 6 13.3431 6 15V16.1707C7.16519 16.5825 8 17.6938 8 19C8 20.6569 6.65685 22 5 22C3.34315 22 2 20.6569 2 19C2 17.6938 2.83481 16.5825 4 16.1707V15C4 12.2386 6.23858 10 9 10H11V8C11 7.94348 11.0047 7.88806 11.0137 7.8341C9.84136 7.42616 9 6.31133 9 5Z" fill="black"/>
</svg>
