<svg width="24" height="24" viewBox="0 0 24 24" fill="none" xmlns="http://www.w3.org/2000/svg">
<path fill-rule="evenodd" clip-rule="evenodd" d="M9 5C9 3.34315 10.3431 2 12 2C13.6569 2 15 3.34315 15 5C15 6.31133 14.1586 7.42616 12.9863 7.8341C12.9953 7.88806 13 7.94348 13 8V10C15.7614 10 18 12.2386 18 15V16.1707C19.1652 16.5825 20 17.6938 20 19C20 20.6569 18.6569 22 17 22C15.3431 22 14 20.6569 14 19C14 17.6938 14.8348 16.5825 16 16.1707V15C16 13.3431 14.6569 12 13 12H11C9.34315 12 8 13.3431 8 15V16.1707C9.16519 16.5825 10 17.6938 10 19C10 20.6569 8.65685 22 7 22C5.34315 22 4 20.6569 4 19C4 17.6938 4.83481 16.5825 6 16.1707V15C6 12.2386 8.23858 10 11 10V8C11 7.94348 11.0047 7.88806 11.0137 7.8341C9.84136 7.42615 9 6.31133 9 5ZM12 4C11.4477 4 11 4.44772 11 5C11 5.55228 11.4477 6 12 6C12.5523 6 13 5.55228 13 5C13 4.44772 12.5523 4 12 4ZM7 18C6.44772 18 6 18.4477 6 19C6 19.5523 6.44772 20 7 20C7.55228 20 8 19.5523 8 19C8 18.4477 7.55228 18 7 18ZM17 18C16.4477 18 16 18.4477 16 19C16 19.5523 16.4477 20 17 20C17.5523 20 18 19.5523 18 19C18 18.4477 17.5523 18 17 18Z" fill="black"/>
</svg>
