<svg width="24" height="24" viewBox="0 0 24 24" fill="none" xmlns="http://www.w3.org/2000/svg">
<path fill-rule="evenodd" clip-rule="evenodd" d="M12 2C10.3431 2 9 3.34315 9 5C9 6.31133 9.84136 7.42616 11.0137 7.8341C11.0047 7.88806 11 7.94348 11 8V10H9C6.23858 10 4 12.2386 4 15V16.1707C2.83481 16.5825 2 17.6938 2 19C2 20.6569 3.34315 22 5 22C6.65685 22 8 20.6569 8 19C8 17.6938 7.16519 16.5825 6 16.1707V15C6 13.3431 7.34315 12 9 12H11V16C11 16.0565 11.0047 16.1119 11.0137 16.1659C9.84136 16.5738 9 17.6887 9 19C9 20.6569 10.3431 22 12 22C13.6569 22 15 20.6569 15 19C15 17.6887 14.1586 16.5738 12.9863 16.1659C12.9953 16.1119 13 16.0565 13 16V12H15C16.6569 12 18 13.3431 18 15V16.1707C16.8348 16.5825 16 17.6938 16 19C16 20.6569 17.3431 22 19 22C20.6569 22 22 20.6569 22 19C22 17.6938 21.1652 16.5825 20 16.1707V15C20 12.2386 17.7614 10 15 10H13V8C13 7.94348 12.9953 7.88806 12.9863 7.8341C14.1586 7.42616 15 6.31133 15 5C15 3.34315 13.6569 2 12 2ZM11 5C11 4.44772 11.4477 4 12 4C12.5523 4 13 4.44772 13 5C13 5.55228 12.5523 6 12 6C11.4477 6 11 5.55228 11 5ZM19 18C18.4477 18 18 18.4477 18 19C18 19.5523 18.4477 20 19 20C19.5523 20 20 19.5523 20 19C20 18.4477 19.5523 18 19 18ZM5 18C4.44772 18 4 18.4477 4 19C4 19.5523 4.44772 20 5 20C5.55228 20 6 19.5523 6 19C6 18.4477 5.55228 18 5 18ZM11 19C11 18.4477 11.4477 18 12 18C12.5523 18 13 18.4477 13 19C13 19.5523 12.5523 20 12 20C11.4477 20 11 19.5523 11 19Z" fill="black"/>
</svg>
