<svg width="24" height="24" viewBox="0 0 24 24" fill="none" xmlns="http://www.w3.org/2000/svg">
<path fill-rule="evenodd" clip-rule="evenodd" d="M12 4C10.8039 4 9.5016 5.24338 9.40526 7.27716L9.34175 8.61791L8.07522 8.17342C7.75624 8.06147 7.41155 8 7.05 8C5.35378 8 4 9.35482 4 11C4 12.2947 4.83652 13.4091 6.02377 13.8262L7.32152 14.2822L6.48749 15.376C6.34053 15.5688 6.21214 15.7788 6.10616 16.0046C5.35912 17.596 6.03315 19.2517 7.45795 19.8063C8.72504 20.2995 10.2926 19.8234 11.2065 18.6318L12 17.5973L12.7935 18.6318C13.7074 19.8234 15.275 20.2995 16.5421 19.8063C17.9668 19.2517 18.6409 17.596 17.8938 16.0046C17.7879 15.7788 17.6595 15.5688 17.5125 15.376L16.6785 14.2822L17.9762 13.8262C19.1635 13.4091 20 12.2947 20 11C20 9.35482 18.6462 8 16.95 8C16.5884 8 16.2438 8.06147 15.9248 8.17342L14.6583 8.61792L14.5947 7.27716C14.4984 5.24338 13.1961 4 12 4ZM7.56918 6.02618C8.08595 3.82164 9.74929 2 12 2C14.2507 2 15.9141 3.82164 16.4308 6.02618C16.6017 6.00886 16.7749 6 16.95 6C19.7273 6 22 8.2269 22 11C22 12.755 21.0885 14.2916 19.7173 15.1827C20.888 17.7141 19.8638 20.6595 17.2675 21.6701C15.4501 22.3775 13.4303 21.906 12 20.6846C10.5697 21.906 8.54994 22.3775 6.73249 21.6701C4.13622 20.6595 3.11201 17.7141 4.28266 15.1827C2.91152 14.2916 2 12.755 2 11C2 8.2269 4.27271 6 7.05 6C7.22511 6 7.39832 6.00886 7.56918 6.02618Z" fill="black"/>
<path fill-rule="evenodd" clip-rule="evenodd" d="M9 13C9 11.3431 10.3431 10 12 10C13.6569 10 15.0001 11.3431 15.0001 13C15.0001 14.6569 13.657 16 12.0001 16C10.3432 16 9 14.6569 9 13Z" fill="black"/>
</svg>
