<svg width="24" height="24" viewBox="0 0 24 24" fill="none" xmlns="http://www.w3.org/2000/svg">
<path d="M12 2C10.3431 2 9 3.34315 9 5C9 6.31133 9.84136 7.42615 11.0137 7.8341C11.0047 7.88806 11 7.94348 11 8V10C8.23858 10 6 12.2386 6 15V16.1707C4.83481 16.5825 4 17.6938 4 19C4 20.6569 5.34315 22 7 22C8.65685 22 10 20.6569 10 19C10 17.6938 9.16519 16.5825 8 16.1707V15C8 13.3431 9.34315 12 11 12H13C14.6569 12 16 13.3431 16 15V16.1707C14.8348 16.5825 14 17.6938 14 19C14 20.6569 15.3431 22 17 22C18.6569 22 20 20.6569 20 19C20 17.6938 19.1652 16.5825 18 16.1707V15C18 12.2386 15.7614 10 13 10V8C13 7.94348 12.9953 7.88806 12.9863 7.8341C14.1586 7.42616 15 6.31133 15 5C15 3.34315 13.6569 2 12 2Z" fill="black"/>
</svg>
