<svg width="24" height="24" viewBox="0 0 24 24" fill="none" xmlns="http://www.w3.org/2000/svg">
<path fill-rule="evenodd" clip-rule="evenodd" d="M5 15C3.34315 15 2 13.6569 2 12C2 10.3431 3.34315 9 5 9C6.31133 9 7.42616 9.84136 7.8341 11.0137C7.88806 11.0047 7.94348 11 8 11L10 11C10 8.23858 12.2386 6 15 6L16.1707 6C16.5825 4.83481 17.6938 4 19 4C20.6569 4 22 5.34314 22 7C22 8.65685 20.6569 10 19 10C17.6938 10 16.5825 9.16519 16.1707 8L15 8C13.3431 8 12 9.34314 12 11L12 13C12 14.6569 13.3431 16 15 16L16.1707 16C16.5825 14.8348 17.6938 14 19 14C20.6569 14 22 15.3431 22 17C22 18.6569 20.6569 20 19 20C17.6938 20 16.5825 19.1652 16.1707 18L15 18C12.2386 18 10 15.7614 10 13L8 13C7.94348 13 7.88806 12.9953 7.8341 12.9863C7.42615 14.1586 6.31133 15 5 15ZM4 12C4 12.5523 4.44771 13 5 13C5.55228 13 6 12.5523 6 12C6 11.4477 5.55228 11 5 11C4.44771 11 4 11.4477 4 12ZM18 17C18 17.5523 18.4477 18 19 18C19.5523 18 20 17.5523 20 17C20 16.4477 19.5523 16 19 16C18.4477 16 18 16.4477 18 17ZM18 7C18 7.55228 18.4477 8 19 8C19.5523 8 20 7.55228 20 7C20 6.44771 19.5523 6 19 6C18.4477 6 18 6.44772 18 7Z" fill="black"/>
</svg>
