<svg width="24" height="24" viewBox="0 0 24 24" fill="none" xmlns="http://www.w3.org/2000/svg">
<path d="M5 15C3.34315 15 2 13.6569 2 12C2 10.3431 3.34315 9 5 9C6.31133 9 7.42616 9.84136 7.8341 11.0137C7.88806 11.0047 7.94348 11 8 11L10 11L10 9C10 6.23858 12.2386 4 15 4L16.1707 4C16.5825 2.83481 17.6938 2 19 2C20.6569 2 22 3.34314 22 5C22 6.65685 20.6569 8 19 8C17.6938 8 16.5825 7.16519 16.1707 6L15 6C13.3431 6 12 7.34314 12 9L12 11L16 11C16.0565 11 16.1119 11.0047 16.1659 11.0137C16.5738 9.84136 17.6887 9 19 9C20.6569 9 22 10.3431 22 12C22 13.6569 20.6569 15 19 15C17.6887 15 16.5738 14.1586 16.1659 12.9863C16.1119 12.9953 16.0565 13 16 13L12 13L12 15C12 16.6569 13.3431 18 15 18L16.1707 18C16.5825 16.8348 17.6938 16 19 16C20.6569 16 22 17.3431 22 19C22 20.6569 20.6569 22 19 22C17.6938 22 16.5825 21.1652 16.1707 20L15 20C12.2386 20 10 17.7614 10 15L10 13L8 13C7.94348 13 7.88806 12.9953 7.8341 12.9863C7.42616 14.1586 6.31133 15 5 15Z" fill="black"/>
</svg>
