<svg width="24" height="24" viewBox="0 0 24 24" fill="none" xmlns="http://www.w3.org/2000/svg">
<path d="M2 12C2 13.6569 3.34315 15 5 15C6.31133 15 7.42615 14.1586 7.8341 12.9863C7.88806 12.9953 7.94348 13 8 13L10 13C10 15.7614 12.2386 18 15 18L16.1707 18C16.5825 19.1652 17.6938 20 19 20C20.6569 20 22 18.6569 22 17C22 15.3431 20.6569 14 19 14C17.6938 14 16.5825 14.8348 16.1707 16L15 16C13.3431 16 12 14.6569 12 13L12 11C12 9.34314 13.3431 8 15 8L16.1707 8C16.5825 9.16519 17.6938 10 19 10C20.6569 10 22 8.65685 22 7C22 5.34314 20.6569 4 19 4C17.6938 4 16.5825 4.83481 16.1707 6L15 6C12.2386 6 10 8.23858 10 11L8 11C7.94348 11 7.88806 11.0047 7.8341 11.0137C7.42616 9.84136 6.31133 9 5 9C3.34315 9 2 10.3431 2 12Z" fill="black"/>
</svg>
