<svg width="24" height="24" viewBox="0 0 24 24" fill="none" xmlns="http://www.w3.org/2000/svg">
<path fill-rule="evenodd" clip-rule="evenodd" d="M1 4H14C14.5523 4 15 4.44772 15 5C15 5.55228 14.5523 6 14 6H3V17C3 17.5523 3.44772 18 4 18H20C20.5523 18 21 17.5523 21 17V11C21 10.4477 21.4477 10 22 10C22.5523 10 23 10.4477 23 11V17C23 18.6569 21.6569 20 20 20H4C2.34315 20 1 18.6569 1 17V4Z" fill="black"/>
<path fill-rule="evenodd" clip-rule="evenodd" d="M20 1C20.5523 1 21 1.44772 21 2V8C21 8.55229 20.5523 9 20 9C19.4477 9 19 8.55229 19 8V2C19 1.44772 19.4477 1 20 1Z" fill="black"/>
<path fill-rule="evenodd" clip-rule="evenodd" d="M24 5C24 5.55228 23.5523 6 23 6L17 6C16.4477 6 16 5.55228 16 5C16 4.44772 16.4477 4 17 4L23 4C23.5523 4 24 4.44772 24 5Z" fill="black"/>
<path d="M4 1C2.34315 1 1 2.34315 1 4H10C10 2.34315 8.65685 1 7 1H4Z" fill="black"/>
</svg>
