<svg width="24" height="24" viewBox="0 0 24 24" fill="none" xmlns="http://www.w3.org/2000/svg">
<path d="M1 4C1 2.34315 2.34315 1 4 1H7C8.65685 1 10 2.34315 10 4H14.708C14.5742 4.30623 14.5 4.64445 14.5 5C14.5 5.35555 14.5742 5.69377 14.708 6C15.0938 6.88295 15.9748 7.5 17 7.5H17.5V8C17.5 9.38071 18.6193 10.5 20 10.5C20.3556 10.5 20.6938 10.4258 21 10.292C21.883 9.9062 22.5 9.02516 22.5 8V7.5H23V17C23 18.6569 21.6569 20 20 20H4C2.34315 20 1 18.6569 1 17V4Z" fill="black"/>
<path d="M20 1C20.5523 1 21 1.44772 21 2V4H23C23.5523 4 24 4.44772 24 5C24 5.55228 23.5523 6 23 6H22.8293H21V8C21 8.55229 20.5523 9 20 9C19.4477 9 19 8.55229 19 8V6H17C16.4477 6 16 5.55228 16 5C16 4.44772 16.4477 4 17 4H19V2C19 1.44772 19.4477 1 20 1Z" fill="black"/>
</svg>
