<svg width="24" height="24" viewBox="0 0 24 24" fill="none" xmlns="http://www.w3.org/2000/svg">
<path d="M18.7075 2.70711C19.0981 2.31658 19.0981 1.68342 18.7075 1.29289C18.317 0.902369 17.6838 0.902369 17.2933 1.29289L13.4649 5.12132C13.4254 5.16078 13.3867 5.20082 13.3487 5.24144C13.3298 5.25776 13.3113 5.2749 13.2933 5.29286C13.2457 5.34048 13.2039 5.39171 13.1679 5.44566C12.4167 6.34211 12.0004 7.47802 12.0004 8.65685V9.55763L2.37419 18.3088C1.38202 19.2107 1.34518 20.759 2.29333 21.7071C3.24147 22.6553 4.7897 22.6184 5.69168 21.6262L14.4428 12H15.3436C16.5225 12 17.6586 11.5836 18.5551 10.8323C18.6089 10.7963 18.66 10.7546 18.7075 10.7071C18.7254 10.6892 18.7425 10.6708 18.7587 10.652C18.7994 10.6139 18.8396 10.5751 18.8791 10.5355L22.7075 6.70711C23.0981 6.31658 23.0981 5.68342 22.7075 5.29289C22.317 4.90237 21.6838 4.90237 21.2933 5.29289L18.0004 8.58577L17.4147 7.99998L20.7075 4.70711C21.0981 4.31658 21.0981 3.68342 20.7075 3.29289C20.317 2.90237 19.6838 2.90237 19.2933 3.29289L16.0004 6.58577L15.4147 5.99998L18.7075 2.70711Z" fill="black"/>
</svg>
