<svg width="24" height="24" viewBox="0 0 24 24" fill="none" xmlns="http://www.w3.org/2000/svg">
<path fill-rule="evenodd" clip-rule="evenodd" d="M18.7073 2.70711C19.0978 2.31658 19.0978 1.68342 18.7073 1.29289C18.3167 0.902369 17.6836 0.902369 17.293 1.29289L13.4646 5.12132C13.4252 5.16078 13.3864 5.20082 13.3484 5.24144C13.3295 5.25776 13.311 5.2749 13.293 5.29286C13.2454 5.34048 13.2036 5.39171 13.1676 5.44566C12.4317 6.32395 12.0172 7.4321 12.0007 8.58527L2.29304 18.2929C1.35024 19.2357 1.35023 20.7643 2.29304 21.7071C3.23585 22.6499 4.76445 22.6499 5.70726 21.7071L15.4149 11.9995C16.5682 11.983 17.6764 11.5684 18.5548 10.8323C18.6086 10.7963 18.6597 10.7546 18.7073 10.7071C18.7251 10.6892 18.7422 10.6708 18.7584 10.652C18.7991 10.6139 18.8393 10.5751 18.8788 10.5355L22.7073 6.70711C23.0978 6.31658 23.0978 5.68342 22.7073 5.29289C22.3167 4.90237 21.6836 4.90237 21.293 5.29289L18.0002 8.58577L17.4144 7.99998L20.7073 4.70711C21.0978 4.31658 21.0978 3.68342 20.7073 3.29289C20.3167 2.90237 19.6836 2.90237 19.293 3.29289L16.0002 6.58577L15.4144 5.99998L18.7073 2.70711ZM14.1907 7.60473C14.0659 7.93805 14.0002 8.29407 14.0002 8.65685V9C14.0002 9.26522 13.8948 9.51957 13.7073 9.70711L3.70726 19.7071C3.5455 19.8689 3.5455 20.1311 3.70726 20.2929C3.86902 20.4547 4.13128 20.4547 4.29305 20.2929L14.293 10.2929C14.4806 10.1054 14.7349 10 15.0002 10H15.3433C15.7061 10 16.0621 9.93429 16.3954 9.80945L15.2977 8.71173L15.293 8.70711L15.2884 8.70245L14.1907 7.60473Z" fill="black"/>
</svg>
