<svg width="24" height="24" viewBox="0 0 24 24" fill="none" xmlns="http://www.w3.org/2000/svg">
<path fill-rule="evenodd" clip-rule="evenodd" d="M12 4.00002C12 3.60623 12.2311 3.2491 12.5903 3.08778C12.9496 2.92646 13.37 2.99099 13.6644 3.25261L22.6644 11.2526C22.8779 11.4424 23 11.7144 23 12C23 12.2857 22.8779 12.5577 22.6644 12.7474L13.6644 20.7474C13.37 21.009 12.9496 21.0736 12.5903 20.9123C12.2311 20.7509 12 20.3938 12 20V15.8685C8.28852 15.4432 6.07959 16.5436 4.78757 17.6865C4.07648 18.3156 3.61145 18.986 3.32563 19.4964C3.18311 19.7509 3.08669 19.9629 3.02766 20.1057C2.98347 20.2126 2.96028 20.2807 2.95501 20.2966L2.95465 20.2978L2.95428 20.2989C2.80704 20.7691 2.33899 21.0622 1.8513 20.9889C1.36195 20.9153 1 20.4949 1 20C1 16.8435 1.72511 14.4591 2.87918 12.6755C4.03296 10.8924 5.5712 9.77829 7.0862 9.08965C8.5935 8.40451 10.0862 8.13578 11.1907 8.03537C11.4888 8.00827 11.7609 7.99324 12 7.98579V4.00002ZM14 17.7732V15C14 14.5112 13.6466 14.094 13.1644 14.0136C8.40543 13.2205 5.35287 14.5283 3.4868 16.167C3.75915 15.2163 4.13 14.424 4.55832 13.762C5.46704 12.3576 6.6788 11.4717 7.9138 10.9104C9.1565 10.3455 10.4138 10.1143 11.3718 10.0272C11.8806 9.9809 12.3995 9.95664 12.9101 9.99597C13.1895 10.0211 13.4671 9.92769 13.6743 9.73844C13.8818 9.54898 14 9.28098 14 9.00002V6.22686L20.4948 12L14 17.7732Z" fill="black"/>
</svg>
