<svg width="24" height="24" viewBox="0 0 24 24" fill="none" xmlns="http://www.w3.org/2000/svg">
<path d="M12.5903 3.08778C12.2311 3.2491 12 3.60623 12 4.00002V7.98579C11.7609 7.99324 11.4888 8.00827 11.1907 8.03537C10.0862 8.13578 8.5935 8.40451 7.0862 9.08965C5.5712 9.77829 4.03296 10.8924 2.87918 12.6755C1.72511 14.4591 1 16.8435 1 20C1 20.4949 1.36195 20.9153 1.8513 20.9889C2.33899 21.0622 2.80704 20.7691 2.95428 20.2989L2.95465 20.2978L2.95501 20.2966C2.96028 20.2807 2.98347 20.2126 3.02766 20.1057C3.08669 19.9629 3.18311 19.7509 3.32563 19.4964C3.61145 18.986 4.07648 18.3156 4.78757 17.6865C6.07959 16.5436 8.28852 15.4432 12 15.8685V20C12 20.3938 12.2311 20.7509 12.5903 20.9123C12.9496 21.0736 13.37 21.009 13.6644 20.7474L22.6644 12.7474C22.8779 12.5577 23 12.2857 23 12C23 11.7144 22.8779 11.4424 22.6644 11.2526L13.6644 3.25261C13.37 2.99099 12.9496 2.92646 12.5903 3.08778Z" fill="black"/>
</svg>
