<svg width="24" height="24" viewBox="0 0 24 24" fill="none" xmlns="http://www.w3.org/2000/svg">
<path d="M14.7628 12.2321L17.9317 17.3061C18.1227 17.6144 17.8908 17.9998 17.5134 17.9998H8.48848C8.11111 17.9998 7.8747 17.6144 8.0702 17.3061L9.89792 14.3773C10.0889 14.0733 10.5481 14.0733 10.739 14.3773L11.662 15.8503L13.9262 12.2278C14.1171 11.9238 14.5764 11.9238 14.7673 12.2278L14.7628 12.2321Z" fill="black"/>
<path d="M10 7.99979C9.17157 7.99979 8.5 8.67136 8.5 9.49979C8.5 10.3282 9.17167 10.9998 10.0001 10.9998C10.8285 10.9998 11.5001 10.3282 11.5001 9.49979C11.5001 8.67136 10.8284 7.99979 10 7.99979Z" fill="black"/>
<path fill-rule="evenodd" clip-rule="evenodd" d="M0.173565 8.38902C-0.541144 5.72169 1.04177 2.98 3.7091 2.2653L11.5083 0.175518C14.1756 -0.539191 16.9173 1.04372 17.632 3.71105L17.7233 4.05171C20.142 4.40216 22 6.48399 22 8.99979V16.9998C22 19.7612 19.7614 21.9998 17 21.9998H9C7.5859 21.9998 6.30892 21.4128 5.39945 20.4691C4.1409 20.2104 3.08745 19.2638 2.73821 17.9604L0.173565 8.38902ZM12.0259 2.10737C13.5484 1.69941 15.1113 2.53913 15.629 3.99979H9C6.23858 3.99979 4 6.23836 4 8.99979V14.9421L2.10542 7.87138C1.67659 6.27098 2.62634 4.62597 4.22674 4.19715L12.0259 2.10737ZM6 8.99979C6 7.34293 7.34315 5.99979 9 5.99979H17C18.6569 5.99979 20 7.34293 20 8.99979V16.9998C20 18.6566 18.6569 19.9998 17 19.9998H9C7.34315 19.9998 6 18.6566 6 16.9998V8.99979Z" fill="black"/>
</svg>
