<svg width="24" height="24" viewBox="0 0 24 24" fill="none" xmlns="http://www.w3.org/2000/svg">
<path fill-rule="evenodd" clip-rule="evenodd" d="M9 13C9.55228 13 10 13.4477 10 14V18C10 18.5523 9.55228 19 9 19C8.44772 19 8 18.5523 8 18V14C8 13.4477 8.44772 13 9 13Z" fill="black"/>
<path fill-rule="evenodd" clip-rule="evenodd" d="M6 16C6 15.4477 6.44772 15 7 15H11C11.5523 15 12 15.4477 12 16C12 16.5523 11.5523 17 11 17H7C6.44772 17 6 16.5523 6 16Z" fill="black"/>
<path fill-rule="evenodd" clip-rule="evenodd" d="M14.5 14C14.5 13.1716 15.1716 12.5 16 12.5C16.8284 12.5 17.5001 13.1716 17.5001 14C17.5001 14.8284 16.8285 15.5 16.0001 15.5C15.1717 15.5 14.5 14.8284 14.5 14Z" fill="black"/>
<path fill-rule="evenodd" clip-rule="evenodd" d="M13.5 18C13.5 17.1716 14.1716 16.5 15 16.5C15.8284 16.5 16.5001 17.1716 16.5001 18C16.5001 18.8284 15.8285 19.5 15.0001 19.5C14.1717 19.5 13.5 18.8284 13.5 18Z" fill="black"/>
<path fill-rule="evenodd" clip-rule="evenodd" d="M6 3C5.44772 3 5 3.44772 5 4V20C5 20.5523 5.44772 21 6 21H16.3944C16.5919 21 16.7849 20.9416 16.9491 20.8321L18.5547 19.7617C18.8329 19.5762 19 19.264 19 18.9296V4C19 3.44772 18.5523 3 18 3H6ZM3 4C3 2.34315 4.34315 1 6 1H18C19.6569 1 21 2.34315 21 4V18.9296C21 19.9327 20.4987 20.8694 19.6641 21.4258L18.0585 22.4962C17.5657 22.8247 16.9867 23 16.3944 23H6C4.34315 23 3 21.6569 3 20V4Z" fill="black"/>
<path d="M7 7C7 5.89543 7.89543 5 9 5H15C16.1046 5 17 5.89543 17 7V9C17 10.1046 16.1046 11 15 11H9C7.89543 11 7 10.1046 7 9V7Z" fill="black"/>
</svg>
