<svg width="24" height="24" viewBox="0 0 24 24" fill="none" xmlns="http://www.w3.org/2000/svg">
<path fill-rule="evenodd" clip-rule="evenodd" d="M9.57178 2.2049C11.0819 1.36595 12.9181 1.36595 14.4282 2.2049L19.4282 4.98267C21.0155 5.86452 22 7.53762 22 9.35346V14.6462C22 16.4621 21.0155 18.1352 19.4282 19.017L14.4282 21.7948C12.9181 22.6337 11.0819 22.6337 9.57179 21.7948L4.57179 19.017C2.98446 18.1352 2 16.4621 2 14.6462V9.35346C2 7.53763 2.98446 5.86452 4.57179 4.98267L9.57178 2.2049ZM11.9989 5.99988C12.4089 5.99942 12.7777 6.24933 12.9292 6.63035C13.733 8.65146 15.353 10.2706 17.37 11.0738C17.7505 11.2253 18.0002 11.5936 18 12.0032C17.9998 12.4129 17.7498 12.781 17.3691 12.9322C15.3463 13.7356 13.7273 15.3546 12.9297 17.3682C12.7788 17.7492 12.4106 17.9996 12.0007 17.9999C11.5908 18.0002 11.2222 17.7503 11.0708 17.3694C10.267 15.3481 8.64716 13.7299 6.6321 12.9327C6.25082 12.7818 6.00027 12.4135 6 12.0035C5.99973 11.5934 6.24978 11.2248 6.63085 11.0734C8.65344 10.2701 10.2723 8.65139 11.07 6.63241C11.2206 6.25106 11.5888 6.00033 11.9989 5.99988Z" fill="black"/>
</svg>
