<svg width="24" height="24" viewBox="0 0 24 24" fill="none" xmlns="http://www.w3.org/2000/svg">
<path fill-rule="evenodd" clip-rule="evenodd" d="M5.1273 3.78339C4.56552 1.8823 5.92086 0 8.05568 0C10.2121 0 11.3056 1.83456 11.8168 3.13383C11.8843 3.30514 11.9452 3.47576 12.0003 3.64318C12.0554 3.47576 12.1164 3.30514 12.1838 3.13383C12.6951 1.83456 13.7886 0 15.945 0C18.0798 0 19.4352 1.8823 18.8734 3.78339C18.8222 3.95676 18.7571 4.12538 18.6784 4.28868C20.6143 4.97837 22 6.82736 22 9V17C22 19.7614 19.7614 22 17 22H7C4.23858 22 2 19.7614 2 17V9C2 6.82714 3.38602 4.97801 5.32217 4.28847C5.24352 4.12524 5.17851 3.95669 5.1273 3.78339ZM4 17C4 18.6569 5.34315 20 7 20H11V16H4V17ZM11 7.65533L11 14H4V9C4 7.34748 5.33612 6.00704 6.98699 6.00003C7.57087 6.33793 8.27851 6.60134 9.10457 6.77279L7.25589 8.83196C6.88694 9.24292 6.92099 9.87517 7.33196 10.2441C7.74292 10.6131 8.37517 10.579 8.74412 10.1681L11 7.65533ZM17 20C18.6569 20 20 18.6569 20 17V16H13V20H17ZM17.0137 6.00003C18.6642 6.0074 20 7.34771 20 9V14H13L13 7.60569L15.2484 10.1606C15.6132 10.5752 16.2451 10.6156 16.6597 10.2507C17.0743 9.88587 17.1146 9.25399 16.7498 8.83938L14.9257 6.76659C15.7391 6.59501 16.4368 6.33388 17.0137 6.00003ZM10.2925 4.93989C10.21 4.60477 10.1001 4.23292 9.95575 3.86617C9.48327 2.66544 8.85423 2 8.05568 2C7.23549 2 6.86833 2.6177 7.04531 3.21661C7.20106 3.74368 7.96851 4.6928 10.2925 4.93989ZM13.7082 4.93989C13.7906 4.60477 13.9006 4.23292 14.0449 3.86617C14.5174 2.66544 15.1465 2 15.945 2C16.7652 2 17.1324 2.6177 16.9554 3.21661C16.7996 3.74368 16.0322 4.6928 13.7082 4.93989Z" fill="black"/>
</svg>
