<svg width="24" height="24" viewBox="0 0 24 24" fill="none" xmlns="http://www.w3.org/2000/svg">
<path fill-rule="evenodd" clip-rule="evenodd" d="M8.05473 0C5.91991 0 4.56457 1.8823 5.12635 3.78339C5.38956 4.6741 6.01754 5.43953 6.98599 6C7.83703 6.49252 8.95098 6.82677 10.3114 6.9487L10.3397 6.95121L10.3586 6.95284C10.4215 6.95823 10.4827 6.96229 10.5422 6.96504C10.3278 7.23434 10.0807 7.57623 9.79815 8L8.16795 10.4453C7.8616 10.9048 7.98577 11.5257 8.4453 11.8321C8.90483 12.1384 9.5257 12.0142 9.83205 11.5547L12 8.30278L14.1679 11.5547C14.4743 12.0142 15.0952 12.1384 15.5547 11.8321C16.0142 11.5257 16.1384 10.9048 15.8321 10.4453L14.2019 8L13.5107 6.96331L13.5249 6.96224C13.5291 6.96192 13.5333 6.9616 13.5375 6.96127C13.5669 6.95901 13.5961 6.95664 13.6253 6.95419L13.6774 6.94968C13.9458 6.92587 14.2046 6.89381 14.4537 6.85391C14.6922 6.81571 14.9218 6.77033 15.1424 6.71812L15.1477 6.71686C15.8668 6.54624 16.49 6.30309 17.0137 6C17.9822 5.43953 18.6102 4.6741 18.8734 3.78339C19.4352 1.8823 18.0798 0 15.945 0C13.9564 0 12.8717 1.56017 12.314 2.82193C12.3028 2.84724 12.2918 2.87243 12.2811 2.89748C12.2792 2.90185 12.2773 2.90622 12.2754 2.91059C12.2673 2.9295 12.2594 2.94833 12.2515 2.96708C12.2295 3.01976 12.2083 3.07176 12.1881 3.12294L12.1838 3.13383C12.12 3.29614 12.0575 3.45969 11.9984 3.623C11.9415 3.46081 11.8803 3.29736 11.8159 3.13383C11.3046 1.83456 10.2112 0 8.05473 0ZM9.95481 3.86617C10.0991 4.23292 10.2091 4.60477 10.2915 4.93989C7.96757 4.6928 7.20011 3.74368 7.04436 3.21661C6.86738 2.6177 7.23454 2 8.05473 2C8.85328 2 9.48232 2.66544 9.95481 3.86617ZM13.7082 4.93989C13.7906 4.60477 13.9006 4.23292 14.0449 3.86617C14.5174 2.66544 15.1465 2 15.945 2C16.7652 2 17.1324 2.6177 16.9554 3.21661C16.7996 3.74368 16.0322 4.6928 13.7082 4.93989Z" fill="black"/>
<path d="M19 20C20.6569 20 22 18.6569 22 17V16H2V17C2 18.6569 3.34315 20 5 20H19Z" fill="black"/>
<path d="M7.97522 8.03022C7.94174 8.02031 7.90839 8.01023 7.87518 8C6.54618 7.59057 5.43876 6.92986 4.66555 6.01843C3.1661 6.18476 2 7.4562 2 9V14H22V9C22 7.45612 20.8338 6.18462 19.3342 6.01841C18.561 6.92984 17.4536 7.59057 16.1246 8C16.0914 8.01021 16.0581 8.02026 16.0247 8.03016L17.0801 9.61325C17.846 10.7621 17.5356 12.3142 16.3868 13.0801C15.2379 13.846 13.6858 13.5356 12.9199 12.3868L12 11.0069L11.0801 12.3868C10.3142 13.5356 8.76207 13.846 7.61325 13.0801C6.46443 12.3142 6.15399 10.7621 6.91987 9.61325L7.97522 8.03022Z" fill="black"/>
</svg>
