<svg width="24" height="24" viewBox="0 0 24 24" fill="none" xmlns="http://www.w3.org/2000/svg">
<path fill-rule="evenodd" clip-rule="evenodd" d="M8.05567 0C5.92086 0 4.56552 1.8823 5.1273 3.78339C5.3905 4.6741 6.01848 5.43953 6.98694 6H5C3.34315 6 2 7.34315 2 9V17C2 18.6569 3.34315 20 5 20H19C20.6569 20 22 18.6569 22 17V9C22 7.34315 20.6569 6 19 6H17.0137C17.9822 5.43953 18.6102 4.6741 18.8734 3.78339C19.4352 1.8823 18.0798 0 15.945 0C13.7886 0 12.6951 1.83456 12.1838 3.13383C12.1164 3.30514 12.0555 3.47576 12.0003 3.64318C11.9452 3.47576 11.8843 3.30514 11.8169 3.13383C11.3056 1.83456 10.2121 0 8.05567 0ZM9.79825 8L8.16806 10.4453C7.8617 10.9048 7.98588 11.5257 8.44541 11.832C8.90493 12.1384 9.5258 12.0142 9.83216 11.5547L12.0001 8.30276L14.1681 11.5547C14.4744 12.0142 15.0953 12.1384 15.5548 11.832C16.0143 11.5257 16.1385 10.9048 15.8322 10.4453L14.202 8H19C19.5523 8 20 8.44772 20 9V14H4V9C4 8.44771 4.44772 8 5 8H9.79825ZM19 18C19.5523 18 20 17.5523 20 17V16H4V17C4 17.5523 4.44772 18 5 18H19ZM9.95576 3.86617C10.1001 4.23292 10.21 4.60477 10.2925 4.93989C7.96851 4.6928 7.20106 3.74368 7.04531 3.21661C6.86833 2.6177 7.23549 2 8.05567 2C8.85423 2 9.48327 2.66544 9.95576 3.86617ZM13.7082 4.93989C13.7906 4.60477 13.9006 4.23292 14.0449 3.86617C14.5174 2.66544 15.1465 2 15.945 2C16.7652 2 17.1324 2.6177 16.9554 3.21661C16.7996 3.74368 16.0322 4.6928 13.7082 4.93989Z" fill="black"/>
</svg>
