<svg width="24" height="24" viewBox="0 0 24 24" fill="none" xmlns="http://www.w3.org/2000/svg">
<path fill-rule="evenodd" clip-rule="evenodd" d="M5.12635 4.78339C4.56457 2.8823 5.91991 1 8.05473 1C10.2112 1 11.3046 2.83456 11.8159 4.13383C11.8835 4.30563 11.9446 4.47674 11.9999 4.64461C12.0551 4.47674 12.1162 4.30563 12.1838 4.13383C12.6951 2.83456 13.7886 1 15.945 1C18.0798 1 19.4352 2.8823 18.8734 4.78339C18.8518 4.85645 18.8278 4.92867 18.8013 5C18.6685 5.35745 18.4745 5.69263 18.2209 6H20C21.6569 6 23 7.34315 23 9V10C23 10.8885 22.6137 11.6868 22 12.2361C21.4692 12.7111 20.7684 13 20 13H16V11V10V9V8H14V9V11V12V13V14.1315L12.5547 13.1679C12.2188 12.944 11.7812 12.944 11.4453 13.1679L10 14.1315V13V12V11V9V8H8V9V10V11V13H4C3.23165 13 2.53076 12.7111 2 12.2361C1.38625 11.6868 1 10.8885 1 10V9C1 7.34315 2.34315 6 4 6H5.77882C5.5252 5.69263 5.33119 5.35745 5.19847 5C5.17198 4.92867 5.14794 4.85645 5.12635 4.78339ZM16.9554 4.21661C16.8915 4.43264 16.7249 4.71957 16.3905 5C15.909 5.40377 15.0797 5.79407 13.7082 5.93989C13.7806 5.64548 13.8743 5.32274 13.9938 5C14.0104 4.95537 14.0274 4.91073 14.0449 4.86617C14.5174 3.66544 15.1465 3 15.945 3C16.7652 3 17.1324 3.6177 16.9554 4.21661ZM9.95481 4.86617C9.97234 4.91073 9.98937 4.95537 10.0059 5C10.1254 5.32274 10.2191 5.64548 10.2915 5.93989C8.92008 5.79407 8.0907 5.40377 7.60921 5C7.27479 4.71957 7.1082 4.43264 7.04436 4.21661C6.86738 3.6177 7.23454 3 8.05473 3C8.85328 3 9.48232 3.66544 9.95481 4.86617Z" fill="black"/>
<path d="M2 13.4649C2.58835 13.8052 3.27143 14 4 14H8V16C8 16.3688 8.20298 16.7077 8.52814 16.8817C8.8533 17.0557 9.24784 17.0366 9.5547 16.8321L12 15.2019L14.4453 16.8321C14.7522 17.0366 15.1467 17.0557 15.4719 16.8817C15.797 16.7077 16 16.3688 16 16V14H20C20.7286 14 21.4117 13.8052 22 13.4649V18C22 20.2091 20.2091 22 18 22H6C3.79086 22 2 20.2091 2 18V13.4649Z" fill="black"/>
</svg>
