<svg width="24" height="24" viewBox="0 0 24 24" fill="none" xmlns="http://www.w3.org/2000/svg">
<path fill-rule="evenodd" clip-rule="evenodd" d="M5.12635 3.78339C4.56458 1.8823 5.91992 0 8.05473 0C10.2112 0 11.3046 1.83456 11.8159 3.13383C12.091 3.83295 12.2589 4.52058 12.3582 5.02594C12.4083 5.28071 12.4419 5.49423 12.4632 5.6463C12.4739 5.72245 12.4815 5.78349 12.4866 5.82695C12.4892 5.84869 12.4911 5.86606 12.4925 5.87874L12.4941 5.89422L12.4946 5.89926L12.4948 5.9011C12.4948 5.9011 12.495 5.90247 11.4997 6L12.495 5.90247C12.5225 6.18331 12.4301 6.4627 12.2405 6.67174C12.1701 6.74936 12.0888 6.8146 11.9999 6.86595C11.8756 6.93769 11.7366 6.98232 11.5922 6.99572C11.5616 6.99856 11.5307 7 11.4997 7C11.33 7 11.1634 6.99707 11 6.9913C10.3119 6.967 9.67949 6.89225 9.10441 6.77295C8.27801 6.6015 7.57011 6.33804 6.98605 6.00003C6.01756 5.43955 5.38956 4.67412 5.12635 3.78339ZM10.2915 4.93989C10.2091 4.60477 10.0991 4.23292 9.95481 3.86617C9.48232 2.66544 8.85328 2 8.05473 2C7.23454 2 6.86738 2.6177 7.04436 3.21661C7.20011 3.74368 7.96756 4.6928 10.2915 4.93989Z" fill="black"/>
<path fill-rule="evenodd" clip-rule="evenodd" d="M12.5 6L11.5048 5.90247C11.4772 6.18331 11.5697 6.4627 11.7592 6.67174C11.8296 6.74936 11.911 6.8146 11.9999 6.86595C12.1409 6.9474 12.301 6.9939 12.4665 6.99944C12.4776 6.99981 12.4888 7 12.5 7C12.6698 7 12.8365 6.99707 13 6.99129C13.7001 6.96655 14.3426 6.88958 14.9257 6.76659C15.7391 6.59502 16.4368 6.33388 17.0137 6.00003C17.9822 5.43955 18.6102 4.67412 18.8734 3.78339C19.4352 1.8823 18.0798 0 15.945 0C13.7886 0 12.6951 1.83456 12.1838 3.13383C11.9087 3.83295 11.7408 4.52058 11.6415 5.02594C11.5914 5.28071 11.5578 5.49423 11.5365 5.6463C11.5258 5.72245 11.5182 5.78349 11.5131 5.82695C11.5105 5.84869 11.5086 5.86606 11.5072 5.87874L11.5056 5.89422L11.5051 5.89926L11.5049 5.9011C11.5049 5.9011 11.5048 5.90247 12.5 6ZM14.0449 3.86617C13.9006 4.23292 13.7906 4.60477 13.7082 4.93989C16.0322 4.6928 16.7996 3.74368 16.9554 3.21661C17.1323 2.6177 16.7652 2 15.945 2C15.1464 2 14.5174 2.66544 14.0449 3.86617Z" fill="black"/>
<path d="M20 14V9C20 7.34771 18.6642 6.0074 17.0137 6.00003C16.4368 6.33388 15.7391 6.59502 14.9257 6.76659L16.7498 8.83937C17.1146 9.25398 17.0743 9.88586 16.6597 10.2507C16.2451 10.6156 15.6132 10.5752 15.2483 10.1606L13 7.60569V14H20Z" fill="black"/>
<path d="M6.98605 6.00003C5.33561 6.00755 4 7.3478 4 9V14H11V7.65531L8.74412 10.1681C8.37516 10.579 7.74291 10.6131 7.33195 10.2441C6.92099 9.87516 6.88693 9.24291 7.25588 8.83195L9.10441 6.77295C8.27801 6.6015 7.57011 6.33804 6.98605 6.00003Z" fill="black"/>
<path d="M4 17C4 18.6569 5.34315 20 7 20H11L11 16H4V17Z" fill="black"/>
<path d="M17 20C18.6569 20 20 18.6569 20 17V16H13L13 20H17Z" fill="black"/>
<path fill-rule="evenodd" clip-rule="evenodd" d="M11.3784 4.24929C11.5692 4.08142 11.8059 3.99933 12.0415 3.99999C12.2791 4.00027 12.5174 4.0847 12.7081 4.25588C12.7481 4.29185 12.7846 4.33031 12.8175 4.37083L14.9257 6.76659C14.3426 6.88958 13.7001 6.96655 13 6.99129C12.8365 6.99707 12.6698 7 12.5 7C12.4888 7 12.4776 6.99981 12.4665 6.99944C12.301 6.9939 12.1409 6.9474 11.9999 6.86595C11.8756 6.93769 11.7366 6.98232 11.5922 6.99572C11.5616 6.99856 11.5307 7 11.4997 7C11.33 7 11.1634 6.99707 11 6.9913C10.3119 6.967 9.67949 6.89225 9.10441 6.77295L11.268 4.36301C11.3012 4.32287 11.3381 4.28481 11.3784 4.24929ZM11 20H7C5.34315 20 4 18.6569 4 17V16H2V17C2 19.7614 4.23858 22 7 22H11V20ZM17 22H13V20H17C18.6569 20 20 18.6569 20 17V16H22V17C22 19.7614 19.7614 22 17 22ZM22 14V9C22 6.23858 19.7614 4 17 4V6L17.0137 6.00003C18.6642 6.0074 20 7.34771 20 9V14H22ZM7 6L6.98605 6.00003C5.33561 6.00755 4 7.3478 4 9V14H2V9C2 6.23858 4.23858 4 7 4V6Z" fill="black"/>
<path d="M16.6597 10.2507C17.0743 9.88586 17.1146 9.25398 16.7498 8.83937L14.9257 6.76659C14.3426 6.88958 13.7001 6.96655 13 6.99129V7.60569L15.2483 10.1606C15.6132 10.5752 16.2451 10.6156 16.6597 10.2507Z" fill="black"/>
<path d="M7.33195 10.2441C7.74291 10.6131 8.37516 10.579 8.74412 10.1681L11 7.65531V6.9913C10.3119 6.967 9.67949 6.89225 9.10441 6.77295L7.25588 8.83195C6.88693 9.24291 6.92099 9.87516 7.33195 10.2441Z" fill="black"/>
</svg>
