<svg width="24" height="24" viewBox="0 0 24 24" fill="none" xmlns="http://www.w3.org/2000/svg">
<path fill-rule="evenodd" clip-rule="evenodd" d="M4 2C2.34315 2 1 3.34315 1 5V19C1 20.6569 2.34315 22 4 22H20C21.6569 22 23 20.6569 23 19V5C23 3.34315 21.6569 2 20 2H4ZM7.13015 16.3865C8.35753 16.2256 9.29776 15.6551 10 14.9843V20H4C3.44772 20 3 19.5523 3 19V13H9.09537C8.57124 13.6955 7.85103 14.2749 6.87008 14.4035C6.32248 14.4753 5.93679 14.9775 6.0086 15.5251C6.08042 16.0727 6.58255 16.4583 7.13015 16.3865ZM4 4C3.44772 4 3 4.44772 3 5V11H5.83738C5.54613 10.6371 5.32892 10.2396 5.18709 9.82063C4.89692 8.96339 4.94698 8.03812 5.36948 7.28967C5.80761 6.51352 6.61276 6 7.61617 6C8.61485 6 9.39091 6.50088 9.94854 7.09984C9.96585 7.11843 9.983 7.13716 10 7.15605V4H4ZM21 5C21 4.44772 20.5523 4 20 4H12V7.1569C12.0173 7.13773 12.0347 7.11871 12.0522 7.09984C12.6099 6.50088 13.3859 6 14.3846 6C15.388 6 16.1932 6.51352 16.6313 7.28967C17.0538 8.03812 17.1038 8.96339 16.8137 9.82063C16.6718 10.2396 16.4546 10.6371 16.1634 11H21V5ZM20 20C20.5523 20 21 19.5523 21 19V13H12.905C13.4291 13.6955 14.1493 14.2749 15.1303 14.4035C15.6779 14.4753 16.0636 14.9775 15.9918 15.5251C15.9199 16.0727 15.4178 16.4583 14.8702 16.3865C13.6426 16.2255 12.7023 15.6549 12 14.984V20H20ZM12.2978 10.9002C12.3947 10.5817 12.515 10.2338 12.6606 9.88958C12.903 9.31639 13.192 8.81066 13.516 8.46266C13.8312 8.12412 14.1133 8 14.3846 8C14.6512 8 14.7985 8.11148 14.8896 8.27283C14.9963 8.46188 15.0522 8.78661 14.9193 9.17937C14.7211 9.76484 14.0213 10.6125 12.2978 10.9002ZM9.70294 10.9002C9.60604 10.5817 9.48578 10.2338 9.34018 9.88958C9.09772 9.31639 8.80872 8.81066 8.48473 8.46266C8.16955 8.12412 7.88749 8 7.61617 8C7.34957 8 7.20222 8.11148 7.11114 8.27283C7.00442 8.46188 6.94855 8.78661 7.0815 9.17937C7.27968 9.76484 7.97943 10.6125 9.70294 10.9002Z" fill="black"/>
</svg>
