<svg width="24" height="24" viewBox="0 0 24 24" fill="none" xmlns="http://www.w3.org/2000/svg">
<path fill-rule="evenodd" clip-rule="evenodd" d="M10.8465 9.97796C10.0546 8.08222 8.18288 6.75 6 6.75C3.43813 6.75 1.30485 8.58497 0.842768 11.0123C0.365182 11.0877 0 11.5012 0 12C0 12.4988 0.365182 12.9123 0.842768 12.9877C1.30485 15.415 3.43813 17.25 6 17.25C8.69243 17.25 10.9115 15.2232 11.2147 12.6121C11.2477 12.5883 11.2823 12.5641 11.3184 12.5401C11.6311 12.3316 11.8757 12.25 12 12.25C12.1243 12.25 12.3689 12.3316 12.6816 12.5401C12.7177 12.5641 12.7523 12.5883 12.7853 12.6121C13.0885 15.2232 15.3076 17.25 18 17.25C20.5619 17.25 22.6952 15.415 23.1572 12.9877C23.6348 12.9123 24 12.4988 24 12C24 11.5012 23.6348 11.0877 23.1572 11.0123C22.6952 8.58497 20.5619 6.75 18 6.75C15.8171 6.75 13.9454 8.08222 13.1535 9.97796C12.8111 9.84595 12.4193 9.75 12 9.75C11.5807 9.75 11.1889 9.84595 10.8465 9.97796ZM6 9.25C4.48122 9.25 3.25 10.4812 3.25 12C3.25 13.5188 4.48122 14.75 6 14.75C7.35623 14.75 8.48316 13.7682 8.70885 12.4766C8.7359 12.3218 8.75 12.1626 8.75 12C8.75 11.8374 8.7359 11.6782 8.70885 11.5234C8.48316 10.2318 7.35623 9.25 6 9.25ZM15.2912 11.5234C15.2641 11.6782 15.25 11.8374 15.25 12C15.25 12.1626 15.2641 12.3218 15.2912 12.4766C15.5168 13.7682 16.6438 14.75 18 14.75C19.5188 14.75 20.75 13.5188 20.75 12C20.75 10.4812 19.5188 9.25 18 9.25C16.6438 9.25 15.5168 10.2318 15.2912 11.5234Z" fill="black"/>
</svg>
