<svg width="24" height="24" viewBox="0 0 24 24" fill="none" xmlns="http://www.w3.org/2000/svg">
<path d="M11 2.75C10.3096 2.75 9.75 3.30964 9.75 4V6C9.75 6.69036 10.3096 7.25 11 7.25H13C13.6904 7.25 14.25 6.69036 14.25 6V4C14.25 3.30964 13.6904 2.75 13 2.75H11Z" fill="black"/>
<path d="M11 16.75C10.3096 16.75 9.75 17.3096 9.75 18V20C9.75 20.6904 10.3096 21.25 11 21.25H13C13.6904 21.25 14.25 20.6904 14.25 20V18C14.25 17.3096 13.6904 16.75 13 16.75H11Z" fill="black"/>
<path d="M16.75 18C16.75 17.3096 17.3096 16.75 18 16.75H20C20.6904 16.75 21.25 17.3096 21.25 18V20C21.25 20.6904 20.6904 21.25 20 21.25H18C17.3096 21.25 16.75 20.6904 16.75 20V18Z" fill="black"/>
<path d="M4 16.75C3.30964 16.75 2.75 17.3096 2.75 18V20C2.75 20.6904 3.30964 21.25 4 21.25H6C6.69036 21.25 7.25 20.6904 7.25 20V18C7.25 17.3096 6.69036 16.75 6 16.75H4Z" fill="black"/>
<path d="M9.75 11C9.75 10.3096 10.3096 9.75 11 9.75H13C13.6904 9.75 14.25 10.3096 14.25 11V13C14.25 13.6904 13.6904 14.25 13 14.25H11C10.3096 14.25 9.75 13.6904 9.75 13V11Z" fill="black"/>
<path d="M18 9.75C17.3096 9.75 16.75 10.3096 16.75 11V13C16.75 13.6904 17.3096 14.25 18 14.25H20C20.6904 14.25 21.25 13.6904 21.25 13V11C21.25 10.3096 20.6904 9.75 20 9.75H18Z" fill="black"/>
<path d="M2.75 11C2.75 10.3096 3.30964 9.75 4 9.75H6C6.69036 9.75 7.25 10.3096 7.25 11V13C7.25 13.6904 6.69036 14.25 6 14.25H4C3.30964 14.25 2.75 13.6904 2.75 13V11Z" fill="black"/>
<path d="M16.75 4C16.75 3.30964 17.3096 2.75 18 2.75H20C20.6904 2.75 21.25 3.30964 21.25 4V6C21.25 6.69036 20.6904 7.25 20 7.25H18C17.3096 7.25 16.75 6.69036 16.75 6V4Z" fill="black"/>
<path d="M4 2.75C3.30964 2.75 2.75 3.30964 2.75 4V6C2.75 6.69036 3.30964 7.25 4 7.25H6C6.69036 7.25 7.25 6.69036 7.25 6V4C7.25 3.30964 6.69036 2.75 6 2.75H4Z" fill="black"/>
</svg>
