<svg width="24" height="24" viewBox="0 0 24 24" fill="none" xmlns="http://www.w3.org/2000/svg">
<path fill-rule="evenodd" clip-rule="evenodd" d="M7 3C7.55228 3 8 3.44772 8 4V6H11V4C11 3.44772 11.4477 3 12 3C12.5523 3 13 3.44772 13 4V6H16V4C16 3.44772 16.4477 3 17 3C17.5523 3 18 3.44772 18 4V6H20C20.5523 6 21 6.44772 21 7C21 7.55228 20.5523 8 20 8H18V11H20C20.5523 11 21 11.4477 21 12C21 12.5523 20.5523 13 20 13H18V16H20C20.5523 16 21 16.4477 21 17C21 17.5523 20.5523 18 20 18H18V20C18 20.5523 17.5523 21 17 21C16.4477 21 16 20.5523 16 20V18H13V20C13 20.5523 12.5523 21 12 21C11.4477 21 11 20.5523 11 20V18H8V20C8 20.5523 7.55228 21 7 21C6.44772 21 6 20.5523 6 20V18H4C3.44772 18 3 17.5523 3 17C3 16.4477 3.44772 16 4 16H6V13H4C3.44772 13 3 12.5523 3 12C3 11.4477 3.44772 11 4 11H6V8H4C3.44772 8 3 7.55228 3 7C3 6.44772 3.44772 6 4 6H6V4C6 3.44772 6.44772 3 7 3ZM8 16H11V13H8V16ZM13 16H16V13H13V16ZM16 8V11H13V8H16ZM11 8V11H8V8H11Z" fill="black"/>
</svg>
