<svg width="24" height="24" viewBox="0 0 24 24" fill="none" xmlns="http://www.w3.org/2000/svg">
<path d="M5 2.5C3.61929 2.5 2.5 3.61929 2.5 5C2.5 6.38071 3.61929 7.5 5 7.5C6.38071 7.5 7.5 6.38071 7.5 5C7.5 3.61929 6.38071 2.5 5 2.5Z" fill="black"/>
<path d="M12 2.5C10.6193 2.5 9.5 3.61929 9.5 5C9.5 6.38071 10.6193 7.5 12 7.5C13.3807 7.5 14.5 6.38071 14.5 5C14.5 3.61929 13.3807 2.5 12 2.5Z" fill="black"/>
<path d="M19 2.5C17.6193 2.5 16.5 3.61929 16.5 5C16.5 6.38071 17.6193 7.5 19 7.5C20.3807 7.5 21.5 6.38071 21.5 5C21.5 3.61929 20.3807 2.5 19 2.5Z" fill="black"/>
<path d="M5 9.5C3.61929 9.5 2.5 10.6193 2.5 12C2.5 13.3807 3.61929 14.5 5 14.5C6.38071 14.5 7.5 13.3807 7.5 12C7.5 10.6193 6.38071 9.5 5 9.5Z" fill="black"/>
<path d="M12 9.5C10.6193 9.5 9.5 10.6193 9.5 12C9.5 13.3807 10.6193 14.5 12 14.5C13.3807 14.5 14.5 13.3807 14.5 12C14.5 10.6193 13.3807 9.5 12 9.5Z" fill="black"/>
<path d="M19 9.5C17.6193 9.5 16.5 10.6193 16.5 12C16.5 13.3807 17.6193 14.5 19 14.5C20.3807 14.5 21.5 13.3807 21.5 12C21.5 10.6193 20.3807 9.5 19 9.5Z" fill="black"/>
<path d="M5 16.5C3.61929 16.5 2.5 17.6193 2.5 19C2.5 20.3807 3.61929 21.5 5 21.5C6.38071 21.5 7.5 20.3807 7.5 19C7.5 17.6193 6.38071 16.5 5 16.5Z" fill="black"/>
<path d="M12 16.5C10.6193 16.5 9.5 17.6193 9.5 19C9.5 20.3807 10.6193 21.5 12 21.5C13.3807 21.5 14.5 20.3807 14.5 19C14.5 17.6193 13.3807 16.5 12 16.5Z" fill="black"/>
<path d="M19 16.5C17.6193 16.5 16.5 17.6193 16.5 19C16.5 20.3807 17.6193 21.5 19 21.5C20.3807 21.5 21.5 20.3807 21.5 19C21.5 17.6193 20.3807 16.5 19 16.5Z" fill="black"/>
</svg>
