<svg width="24" height="24" viewBox="0 0 24 24" fill="none" xmlns="http://www.w3.org/2000/svg">
<path fill-rule="evenodd" clip-rule="evenodd" d="M12 5C10.8954 5 10 5.89543 10 7C10 8.10457 10.8954 9 12 9C13.1046 9 14 8.10457 14 7C14 5.89543 13.1046 5 12 5ZM8 7C8 4.79086 9.79086 3 12 3C14.2091 3 16 4.79086 16 7C16 9.20914 14.2091 11 12 11C9.79086 11 8 9.20914 8 7Z" fill="black"/>
<path fill-rule="evenodd" clip-rule="evenodd" d="M4 9C3.44772 9 3 9.44772 3 10C3 10.5523 3.44772 11 4 11C4.55229 11 5 10.5523 5 10C5 9.44772 4.55229 9 4 9ZM1 10C1 8.34315 2.34315 7 4 7C5.65685 7 7 8.34315 7 10C7 11.6569 5.65685 13 4 13C2.34315 13 1 11.6569 1 10Z" fill="black"/>
<path fill-rule="evenodd" clip-rule="evenodd" d="M20 9C20.5523 9 21 9.44772 21 10C21 10.5523 20.5523 11 20 11C19.4477 11 19 10.5523 19 10C19 9.44772 19.4477 9 20 9ZM23 10C23 8.34315 21.6569 7 20 7C18.3431 7 17 8.34315 17 10C17 11.6569 18.3431 13 20 13C21.6569 13 23 11.6569 23 10Z" fill="black"/>
<path fill-rule="evenodd" clip-rule="evenodd" d="M6 18C6 15.2386 8.23858 13 11 13H13C15.7614 13 18 15.2386 18 18V20C18 20.5523 17.5523 21 17 21C16.4477 21 16 20.5523 16 20V18C16 16.3431 14.6569 15 13 15H11C9.34315 15 8 16.3431 8 18V20C8 20.5523 7.55228 21 7 21C6.44772 21 6 20.5523 6 20V18Z" fill="black"/>
<path fill-rule="evenodd" clip-rule="evenodd" d="M4 16C2.89543 16 2 16.8954 2 18V20C2 20.5523 1.55228 21 1 21C0.447715 21 0 20.5523 0 20V18C0 15.7909 1.79086 14 4 14H5C5.55228 14 6 14.4477 6 15C6 15.5523 5.55228 16 5 16H4Z" fill="black"/>
<path fill-rule="evenodd" clip-rule="evenodd" d="M20 16C21.1046 16 22 16.8954 22 18V20C22 20.5523 22.4477 21 23 21C23.5523 21 24 20.5523 24 20V18C24 15.7909 22.2091 14 20 14H19C18.4477 14 18 14.4477 18 15C18 15.5523 18.4477 16 19 16H20Z" fill="black"/>
</svg>
