<svg width="24" height="24" viewBox="0 0 24 24" fill="none" xmlns="http://www.w3.org/2000/svg">
<path fill-rule="evenodd" clip-rule="evenodd" d="M16 4C14.3431 4 13 5.34315 13 7C13 8.65685 14.3431 10 16 10C17.6569 10 19 8.65685 19 7C19 5.34315 17.6569 4 16 4ZM11 7C11 4.23858 13.2386 2 16 2C18.7614 2 21 4.23858 21 7C21 9.76142 18.7614 12 16 12C13.2386 12 11 9.76142 11 7Z" fill="black"/>
<path fill-rule="evenodd" clip-rule="evenodd" d="M6 7C4.89543 7 4 7.89543 4 9C4 10.1046 4.89543 11 6 11C7.10457 11 8 10.1046 8 9C8 7.89543 7.10457 7 6 7ZM2 9C2 6.79086 3.79086 5 6 5C8.20914 5 10 6.79086 10 9C10 11.2091 8.20914 13 6 13C3.79086 13 2 11.2091 2 9Z" fill="black"/>
<path fill-rule="evenodd" clip-rule="evenodd" d="M8 19C8 16.2386 10.2386 14 13 14H19C21.7614 14 24 16.2386 24 19V21C24 21.5523 23.5523 22 23 22C22.4477 22 22 21.5523 22 21V19C22 17.3431 20.6569 16 19 16H13C11.3431 16 10 17.3431 10 19V21C10 21.5523 9.55229 22 9 22C8.44771 22 8 21.5523 8 21V19Z" fill="black"/>
<path fill-rule="evenodd" clip-rule="evenodd" d="M5 16C3.34315 16 2 17.3431 2 19V20C2 20.5523 1.55228 21 1 21C0.447715 21 0 20.5523 0 20V19C0 16.2386 2.23858 14 5 14H7C7.55228 14 8 14.4477 8 15C8 15.5523 7.55228 16 7 16H5Z" fill="black"/>
</svg>
