<svg width="24" height="24" viewBox="0 0 24 24" fill="none" xmlns="http://www.w3.org/2000/svg">
<path d="M16 2C13.2386 2 11 4.23858 11 7C11 9.76142 13.2386 12 16 12C18.7614 12 21 9.76142 21 7C21 4.23858 18.7614 2 16 2Z" fill="black"/>
<path d="M6 5C3.79086 5 2 6.79086 2 9C2 11.2091 3.79086 13 6 13C8.20914 13 10 11.2091 10 9C10 6.79086 8.20914 5 6 5Z" fill="black"/>
<path d="M8 19C8 18.1313 8.22154 17.3143 8.61119 16.6025C8.91827 16.0416 9.32977 15.5459 9.81954 15.1418C9.84808 15.1182 9.87688 15.095 9.90595 15.072C10.7571 14.4006 11.8318 14 13 14H19C21.7614 14 24 16.2386 24 19V20C24 21.1046 23.1046 22 22 22H10C9.25972 22 8.61337 21.5978 8.26756 21C8.09739 20.7058 8 20.3643 8 20V19Z" fill="black"/>
<path d="M7.71583 16.1554C7.25918 17.002 7 17.9707 7 19V20C7 20.3506 7.06015 20.6872 7.17071 21H2C0.895431 21 0 20.1046 0 19C0 16.2386 2.23858 14 5 14H6.71429C7.5357 14 8.31334 14.1874 9.00682 14.5217C8.48734 14.9852 8.04902 15.5378 7.71583 16.1554Z" fill="black"/>
</svg>
