<svg width="24" height="24" viewBox="0 0 24 24" fill="none" xmlns="http://www.w3.org/2000/svg">
<path fill-rule="evenodd" clip-rule="evenodd" d="M10.499 6.50127C10.499 5.6972 11.2523 5.06525 12.1229 5.30181C12.6434 5.44627 13.0095 5.9248 12.9989 6.53449C12.9861 7.26609 12.6591 7.59352 12.3242 7.70338L12.3185 7.70527C11.4377 7.99888 10.7488 8.81754 10.7488 9.84601V10.501C10.7488 10.5227 10.7494 10.5443 10.7505 10.5658C10.2467 10.6892 9.75707 10.8883 9.2989 11.1632L2.28685 15.3704C1.33339 15.9425 0.75 16.9729 0.75 18.0848C0.75 19.833 2.16723 21.2503 3.91548 21.2503H20.0845C21.8328 21.2503 23.25 19.833 23.25 18.0848C23.25 16.9729 22.6666 15.9425 21.7131 15.3704L14.7011 11.1632C14.2422 10.8879 13.7518 10.6886 13.2472 10.5652C13.2483 10.5439 13.2488 10.5225 13.2488 10.501V10.0277C14.7091 9.47795 15.4721 8.08708 15.4985 6.57815C15.5278 4.89865 14.4748 3.3575 12.7864 2.89146L12.783 2.89054C10.2846 2.20847 7.99902 4.0861 7.99902 6.50127C7.99902 7.19163 8.55867 7.75127 9.24902 7.75127C9.93938 7.75127 10.499 7.19163 10.499 6.50127ZM10.5851 13.3069C11.456 12.7844 12.544 12.7844 13.4149 13.3069L20.4269 17.5142C20.6274 17.6344 20.75 17.851 20.75 18.0848C20.75 18.4523 20.4521 18.7503 20.0845 18.7503H3.91548C3.54794 18.7503 3.25 18.4523 3.25 18.0848C3.25 17.851 3.37265 17.6344 3.57309 17.5142L10.5851 13.3069Z" fill="black"/>
</svg>
