<svg width="24" height="24" viewBox="0 0 24 24" fill="none" xmlns="http://www.w3.org/2000/svg">
<path fill-rule="evenodd" clip-rule="evenodd" d="M10.249 6.50102C10.249 5.53579 11.1556 4.77923 12.1891 5.06047C12.8264 5.23704 13.2614 5.82184 13.2488 6.5386C13.2346 7.35286 12.859 7.79079 12.4021 7.94067L12.3976 7.94218C11.6089 8.20507 10.9988 8.93499 10.9988 9.84576V10.5007C10.9988 10.5901 11.0106 10.6767 11.0326 10.7592C10.4745 10.8692 9.93108 11.0752 9.42752 11.3773L2.41548 15.5846C1.53732 16.1115 1 17.0605 1 18.0846C1 19.6947 2.3053 21 3.91548 21H20.0845C21.6947 21 23 19.6947 23 18.0846C23 17.0605 22.4627 16.1115 21.5845 15.5846L14.5725 11.3773C14.0683 11.0748 13.524 10.8686 12.9652 10.7587C12.9872 10.6764 12.9988 10.59 12.9988 10.5007V9.85676C13.0036 9.8523 13.0131 9.84533 13.0291 9.83987C14.4597 9.36877 15.2228 8.04788 15.2485 6.57353C15.276 5.00094 14.2916 3.56602 12.7199 3.13219L12.7172 3.13145C10.3814 2.49381 8.24902 4.2469 8.24902 6.50102C8.24902 7.0533 8.69674 7.50102 9.24902 7.50102C9.80131 7.50102 10.249 7.0533 10.249 6.50102ZM10.4565 13.0923C11.4066 12.5223 12.5934 12.5223 13.5435 13.0923L20.5555 17.2995C20.8313 17.465 21 17.763 21 18.0846C21 18.5902 20.5901 19 20.0845 19H3.91548C3.40987 19 3 18.5902 3 18.0846C3 17.763 3.16872 17.465 3.44447 17.2995L10.4565 13.0923Z" fill="black"/>
</svg>
