<svg width="24" height="24" viewBox="0 0 24 24" fill="none" xmlns="http://www.w3.org/2000/svg">
<path fill-rule="evenodd" clip-rule="evenodd" d="M12 4C7.58172 4 4 7.58172 4 12C4 16.4183 7.58172 20 12 20C16.4183 20 20 16.4183 20 12C20 7.58172 16.4183 4 12 4ZM2 12C2 6.47715 6.47715 2 12 2C17.5228 2 22 6.47715 22 12C22 17.5228 17.5228 22 12 22C6.47715 22 2 17.5228 2 12Z" fill="black"/>
<path fill-rule="evenodd" clip-rule="evenodd" d="M16.984 13.0834C17.4902 13.3043 17.7215 13.8937 17.5007 14.3999C16.5771 16.5169 14.4602 18 11.9991 18C9.53644 18 7.42651 16.5156 6.49844 14.402C6.2764 13.8964 6.50634 13.3064 7.01202 13.0844C7.5177 12.8623 8.10764 13.0923 8.32968 13.598C8.95161 15.0143 10.3617 16 11.9991 16C13.638 16 15.0511 15.0131 15.6675 13.6001C15.8884 13.0939 16.4778 12.8626 16.984 13.0834Z" fill="black"/>
<path fill-rule="evenodd" clip-rule="evenodd" d="M6.5 10C6.5 9.17157 7.17157 8.5 8 8.5C8.82843 8.5 9.5001 9.17157 9.5001 10C9.5001 10.8284 8.82853 11.5 8.0001 11.5C7.17167 11.5 6.5 10.8284 6.5 10Z" fill="black"/>
<path fill-rule="evenodd" clip-rule="evenodd" d="M6.5 10C6.5 9.17157 7.17157 8.5 8 8.5C8.82843 8.5 9.5001 9.17157 9.5001 10C9.5001 10.8284 8.82853 11.5 8.0001 11.5C7.17167 11.5 6.5 10.8284 6.5 10Z" fill="black"/>
<path fill-rule="evenodd" clip-rule="evenodd" d="M14.5 10C14.5 9.17157 15.1716 8.5 16 8.5C16.8284 8.5 17.5001 9.17157 17.5001 10C17.5001 10.8284 16.8285 11.5 16.0001 11.5C15.1717 11.5 14.5 10.8284 14.5 10Z" fill="black"/>
<path fill-rule="evenodd" clip-rule="evenodd" d="M14.5 10C14.5 9.17157 15.1716 8.5 16 8.5C16.8284 8.5 17.5001 9.17157 17.5001 10C17.5001 10.8284 16.8285 11.5 16.0001 11.5C15.1717 11.5 14.5 10.8284 14.5 10Z" fill="black"/>
</svg>
