<svg width="24" height="24" viewBox="0 0 24 24" fill="none" xmlns="http://www.w3.org/2000/svg">
<path d="M8.95034 7.47443C9.54278 5.75954 11.2535 4.74966 12.9796 5.05453L12.983 5.05512C14.7126 5.35449 16.0052 6.89763 16.0052 8.71838C16.0052 9.73421 15.1726 10.6691 13.9626 11.4455C13.3958 11.8092 12.8217 12.0881 12.3852 12.2769C12.1683 12.3707 11.9889 12.4407 11.8659 12.4866C11.8045 12.5095 11.7573 12.5262 11.7269 12.5368L11.6942 12.5481L11.6885 12.55L11.6874 12.5504C11.2773 12.6854 11 13.0684 11 13.5003V16.0003C11 16.5525 11.4477 17.0003 12 17.0003C12.5523 17.0003 13 16.5525 13 16.0003V14.1886C13.057 14.1649 13.1168 14.1396 13.179 14.1126C13.6809 13.8956 14.3581 13.568 15.0426 13.1288C16.3351 12.2995 18.0052 10.8435 18.0052 8.71838C18.0052 5.95391 16.0412 3.55555 13.3257 3.08471C10.6065 2.60532 7.96477 4.20232 7.05997 6.82137C6.87963 7.34339 7.15661 7.91275 7.67862 8.09309C8.20064 8.27343 8.77 7.99645 8.95034 7.47443Z" fill="black"/>
<path d="M12.0051 18.0002C11.4528 18.0002 11.0051 18.448 11.0051 19.0002C11.0051 19.5525 11.4529 20.0002 12.0052 20.0002C12.5575 20.0002 13.0052 19.5525 13.0052 19.0002C13.0052 18.448 12.5574 18.0002 12.0051 18.0002Z" fill="black"/>
</svg>
