<svg width="24" height="24" viewBox="0 0 24 24" fill="none" xmlns="http://www.w3.org/2000/svg">
<path fill-rule="evenodd" clip-rule="evenodd" d="M3 2.75C3.69036 2.75 4.25 3.30964 4.25 4V7.75H7C7.69036 7.75 8.25 8.30964 8.25 9C8.25 9.69036 7.69036 10.25 7 10.25H3C2.30964 10.25 1.75 9.69036 1.75 9V4C1.75 3.30964 2.30964 2.75 3 2.75Z" fill="black"/>
<path fill-rule="evenodd" clip-rule="evenodd" d="M11.9996 4.25C8.79038 4.25 6.0339 6.20095 4.85699 8.98649C4.58831 9.62242 3.85498 9.92013 3.21906 9.65144C2.58313 9.38276 2.28542 8.64943 2.5541 8.01351C4.10822 4.33517 7.75059 1.75 11.9996 1.75C17.6606 1.75 22.2496 6.33908 22.2496 12C22.2496 17.6609 17.6606 22.25 11.9996 22.25C7.12 22.25 3.03946 18.8414 2.00365 14.2766C1.85088 13.6034 2.27281 12.9338 2.94605 12.781C3.61929 12.6282 4.2889 13.0502 4.44167 13.7234C5.22477 17.1745 8.31293 19.75 11.9996 19.75C16.2798 19.75 19.7496 16.2802 19.7496 12C19.7496 7.71979 16.2798 4.25 11.9996 4.25Z" fill="black"/>
<path fill-rule="evenodd" clip-rule="evenodd" d="M12 5.75C12.6904 5.75 13.25 6.30964 13.25 7V11.331L15.6934 12.9599C16.2678 13.3429 16.423 14.119 16.0401 14.6934C15.6571 15.2678 14.881 15.423 14.3066 15.0401L11.3066 13.0401C10.9589 12.8082 10.75 12.4179 10.75 12V7C10.75 6.30964 11.3096 5.75 12 5.75Z" fill="black"/>
</svg>
