<svg width="24" height="24" viewBox="0 0 24 24" fill="none" xmlns="http://www.w3.org/2000/svg">
<path d="M11.331 1.25671C11.7113 0.914431 12.2887 0.914431 12.669 1.25671L22.669 10.2567C23.0795 10.6262 23.1128 11.2585 22.7433 11.669C22.3738 12.0795 21.7416 12.1128 21.331 11.7433L21 11.4454V18C21 20.2091 19.2091 22 17 22H16C14.8954 22 14 21.1046 14 20V17C14 16.4477 13.5523 16 13 16H11C10.4477 16 10 16.4477 10 17V20C10 21.1046 9.10457 22 8 22H7C4.79086 22 3 20.2091 3 18V11.4454L2.66897 11.7433C2.25846 12.1128 1.62617 12.0795 1.25671 11.669C0.887255 11.2585 0.920534 10.6262 1.33104 10.2567L11.331 1.25671Z" fill="black"/>
</svg>
