<svg width="24" height="24" viewBox="0 0 24 24" fill="none" xmlns="http://www.w3.org/2000/svg">
<path fill-rule="evenodd" clip-rule="evenodd" d="M12.669 1.25671C12.2887 0.914431 11.7113 0.914431 11.331 1.25671L1.33104 10.2567C0.920534 10.6262 0.887255 11.2585 1.25671 11.669C1.62617 12.0795 2.25846 12.1128 2.66897 11.7433L3 11.4454V18C3 20.2091 4.79086 22 7 22H8C9.10457 22 10 21.1046 10 20V17C10 16.4477 10.4477 16 11 16H13C13.5523 16 14 16.4477 14 17V20C14 21.1046 14.8954 22 16 22H17C19.2091 22 21 20.2091 21 18V11.4454L21.331 11.7433C21.7416 12.1128 22.3738 12.0795 22.7433 11.669C23.1128 11.2585 23.0795 10.6262 22.669 10.2567L12.669 1.25671ZM19.0491 9.68956L12 3.34536L4.95088 9.68958C4.98276 9.7873 5 9.89163 5 10V18C5 19.1046 5.89543 20 7 20H8V17C8 15.3431 9.34315 14 11 14H13C14.6569 14 16 15.3431 16 17V20H17C18.1046 20 19 19.1046 19 18V10C19 9.89163 19.0172 9.78729 19.0491 9.68956Z" fill="black"/>
</svg>
