<svg width="24" height="24" viewBox="0 0 24 24" fill="none" xmlns="http://www.w3.org/2000/svg">
<path fill-rule="evenodd" clip-rule="evenodd" d="M15 20C15 21.6569 13.6569 23 12 23C10.3431 23 9 21.6569 9 20V19H6C5.44772 19 5 18.5523 5 18V7C5 3.13401 8.13401 0 12 0C15.866 0 19 3.13401 19 7V18C19 18.5523 18.5523 19 18 19H15V20ZM13 20C13 20.5523 12.5523 21 12 21C11.4477 21 11 20.5523 11 20V19H13V20ZM10 8C10.5523 8 11 8.44771 11 9V13C11 13.5523 10.5523 14 10 14C9.44772 14 9 13.5523 9 13V9C9 8.44771 9.44772 8 10 8ZM14 8C14.5523 8 15 8.44771 15 9V13C15 13.5523 14.5523 14 14 14C13.4477 14 13 13.5523 13 13V9C13 8.44771 13.4477 8 14 8Z" fill="black"/>
</svg>
