<svg width="24" height="24" viewBox="0 0 24 24" fill="none" xmlns="http://www.w3.org/2000/svg">
<path d="M2.29289 1.29289C2.68342 0.902369 3.31658 0.902369 3.70711 1.29289L4.20711 1.79289C4.59763 2.18342 4.59763 2.81658 4.20711 3.20711C3.81658 3.59763 3.18342 3.59763 2.79289 3.20711L2.29289 2.70711C1.90237 2.31658 1.90237 1.68342 2.29289 1.29289Z" fill="black"/>
<path d="M0 10C0 9.44771 0.447715 9 1 9H2C2.55228 9 3 9.44771 3 10C3 10.5523 2.55228 11 2 11H1C0.447715 11 0 10.5523 0 10Z" fill="black"/>
<path d="M9 22C9 21.4477 9.44771 21 10 21H14C14.5523 21 15 21.4477 15 22C15 22.5523 14.5523 23 14 23H10C9.44771 23 9 22.5523 9 22Z" fill="black"/>
<path d="M23 9C23.5523 9 24 9.44771 24 10C24 10.5523 23.5523 11 23 11H22C21.4477 11 21 10.5523 21 10C21 9.44771 21.4477 9 22 9H23Z" fill="black"/>
<path d="M20.2929 1.29289C20.6834 0.902369 21.3166 0.902369 21.7071 1.29289C22.0976 1.68342 22.0976 2.31658 21.7071 2.70711L21.2071 3.20711C20.8166 3.59763 20.1834 3.59763 19.7929 3.20711C19.4024 2.81658 19.4024 2.18342 19.7929 1.79289L20.2929 1.29289Z" fill="black"/>
<path d="M3.70711 18.2071L4.20711 17.7071C4.59763 17.3166 4.59763 16.6834 4.20711 16.2929C3.81658 15.9024 3.18342 15.9024 2.79289 16.2929L2.29289 16.7929C1.90237 17.1834 1.90237 17.8166 2.29289 18.2071C2.68342 18.5976 3.31658 18.5976 3.70711 18.2071Z" fill="black"/>
<path d="M19.7929 18.2071C20.1834 18.5976 20.8166 18.5976 21.2071 18.2071C21.5976 17.8166 21.5976 17.1834 21.2071 16.7929L20.7071 16.2929C20.3166 15.9024 19.6834 15.9024 19.2929 16.2929C18.9024 16.6834 18.9024 17.3166 19.2929 17.7071L19.7929 18.2071Z" fill="black"/>
<path d="M4 10C4 5.58172 7.58172 2 12 2C16.4183 2 20 5.58172 20 10C20 12.9626 18.3896 15.5473 16 16.9295V17C16 18.6569 14.6569 20 13 20H11C9.34315 20 8 18.6569 8 17V16.9295C5.61038 15.5473 4 12.9626 4 10Z" fill="black"/>
</svg>
