<svg width="24" height="24" viewBox="0 0 24 24" fill="none" xmlns="http://www.w3.org/2000/svg">
<path d="M3.70711 1.29289C3.31658 0.902369 2.68342 0.902369 2.29289 1.29289C1.90237 1.68342 1.90237 2.31658 2.29289 2.70711L2.79289 3.20711C3.18342 3.59763 3.81658 3.59763 4.20711 3.20711C4.59763 2.81658 4.59763 2.18342 4.20711 1.79289L3.70711 1.29289Z" fill="black"/>
<path d="M1 9C0.447715 9 0 9.44771 0 10C0 10.5523 0.447715 11 1 11H2C2.55228 11 3 10.5523 3 10C3 9.44771 2.55228 9 2 9H1Z" fill="black"/>
<path d="M10 21C9.44771 21 9 21.4477 9 22C9 22.5523 9.44771 23 10 23H14C14.5523 23 15 22.5523 15 22C15 21.4477 14.5523 21 14 21H10Z" fill="black"/>
<path d="M24 10C24 9.44771 23.5523 9 23 9H22C21.4477 9 21 9.44771 21 10C21 10.5523 21.4477 11 22 11H23C23.5523 11 24 10.5523 24 10Z" fill="black"/>
<path d="M21.7071 1.29289C21.3166 0.902369 20.6834 0.902369 20.2929 1.29289L19.7929 1.79289C19.4024 2.18342 19.4024 2.81658 19.7929 3.20711C20.1834 3.59763 20.8166 3.59763 21.2071 3.20711L21.7071 2.70711C22.0976 2.31658 22.0976 1.68342 21.7071 1.29289Z" fill="black"/>
<path d="M4.20711 17.7071L3.70711 18.2071C3.31658 18.5976 2.68342 18.5976 2.29289 18.2071C1.90237 17.8166 1.90237 17.1834 2.29289 16.7929L2.79289 16.2929C3.18342 15.9024 3.81658 15.9024 4.20711 16.2929C4.59763 16.6834 4.59763 17.3166 4.20711 17.7071Z" fill="black"/>
<path d="M21.2071 18.2071C20.8166 18.5976 20.1834 18.5976 19.7929 18.2071L19.2929 17.7071C18.9024 17.3166 18.9024 16.6834 19.2929 16.2929C19.6834 15.9024 20.3166 15.9024 20.7071 16.2929L21.2071 16.7929C21.5976 17.1834 21.5976 17.8166 21.2071 18.2071Z" fill="black"/>
<path fill-rule="evenodd" clip-rule="evenodd" d="M12 2C7.58172 2 4 5.58172 4 10C4 12.9626 5.61038 15.5473 8 16.9295V17C8 18.6569 9.34315 20 11 20H13C14.6569 20 16 18.6569 16 17V16.9295C18.3896 15.5473 20 12.9626 20 10C20 5.58172 16.4183 2 12 2ZM6 10C6 6.68629 8.68629 4 12 4C15.3137 4 18 6.68629 18 10C18 12.392 16.6003 14.459 14.5709 15.4231C14.2222 15.5888 14 15.9403 14 16.3264V17C14 17.5523 13.5523 18 13 18H11C10.4477 18 10 17.5523 10 17V16.3264C10 15.9403 9.77779 15.5888 9.42909 15.4231C7.39967 14.459 6 12.392 6 10Z" fill="black"/>
</svg>
