<svg width="24" height="24" viewBox="0 0 24 24" fill="none" xmlns="http://www.w3.org/2000/svg">
<path fill-rule="evenodd" clip-rule="evenodd" d="M0 8C0 5.23858 2.23858 3 5 3H19C21.7614 3 24 5.23858 24 8V16C24 18.7614 21.7614 21 19 21H5C2.23858 21 0 18.7614 0 16V8ZM14 10C14 8.89543 14.8954 8 16 8H18C19.1046 8 20 8.89543 20 10V14C20 15.1046 19.1046 16 18 16H16C14.8954 16 14 15.1046 14 14V10ZM4 10C4 9.44772 4.44772 9 5 9H11C11.5523 9 12 9.44772 12 10C12 10.5523 11.5523 11 11 11H5C4.44772 11 4 10.5523 4 10ZM5 13C4.44772 13 4 13.4477 4 14C4 14.5523 4.44772 15 5 15H9C9.55228 15 10 14.5523 10 14C10 13.4477 9.55228 13 9 13H5Z" fill="black"/>
</svg>
