<svg width="24" height="24" viewBox="0 0 24 24" fill="none" xmlns="http://www.w3.org/2000/svg">
<path fill-rule="evenodd" clip-rule="evenodd" d="M7 2C4.23858 2 2 4.23858 2 7V17C2 19.7614 4.23858 22 7 22H17C19.7614 22 22 19.7614 22 17V7C22 4.23858 19.7614 2 17 2H7ZM13.9411 10.265L17.4261 16.19C17.6361 16.55 17.3811 17 16.9661 17H7.0411C6.6261 17 6.36611 16.55 6.58111 16.19L8.5911 12.77C8.8011 12.415 9.3061 12.415 9.5161 12.77L10.5311 14.49L13.0211 10.26C13.2311 9.90502 13.7361 9.90502 13.9461 10.26L13.9411 10.265ZM9 7C8.17157 7 7.5 7.67157 7.5 8.5C7.5 9.32843 8.17167 10 9.0001 10C9.82853 10 10.5001 9.32843 10.5001 8.5C10.5001 7.67157 9.82843 7 9 7Z" fill="black"/>
</svg>
