<svg width="24" height="24" viewBox="0 0 24 24" fill="none" xmlns="http://www.w3.org/2000/svg">
<path fill-rule="evenodd" clip-rule="evenodd" d="M3.98007 5.51931C4.87029 3.96143 6.52701 3 8.32129 3H15.6787C17.473 3 19.1297 3.96143 20.0199 5.51931L22.3412 9.58156C22.7729 10.3371 23 11.1921 23 12.0623V16C23 18.7614 20.7614 21 18 21H6C3.23858 21 1 18.7614 1 16V12.0623C1 11.1921 1.22708 10.3371 1.65878 9.58156L3.98007 5.51931ZM8.32129 5C7.24472 5 6.25069 5.57686 5.71656 6.51158L3.72318 10H7C8.10457 10 9 10.8954 9 12V13C9 13.5523 9.44772 14 10 14H14C14.5523 14 15 13.5523 15 13V12C15 10.8954 15.8954 10 17 10H20.2768L18.2834 6.51158C17.7493 5.57686 16.7553 5 15.6787 5H8.32129Z" fill="black"/>
</svg>
