<svg width="24" height="24" viewBox="0 0 24 24" fill="none" xmlns="http://www.w3.org/2000/svg">
<path d="M12 2C12.5523 2 13 2.44772 13 3V7.58579L14.2929 6.29289C14.6834 5.90237 15.3166 5.90237 15.7071 6.29289C16.0976 6.68342 16.0976 7.31658 15.7071 7.70711L12.7071 10.7071C12.3166 11.0976 11.6834 11.0976 11.2929 10.7071L8.29289 7.70711C7.90237 7.31658 7.90237 6.68342 8.29289 6.29289C8.68342 5.90237 9.31658 5.90237 9.70711 6.29289L11 7.58579V3C11 2.44772 11.4477 2 12 2Z" fill="black"/>
<path d="M5.71656 6.51158C6.25069 5.57686 7.24472 5 8.32129 5H9C9.55228 5 10 4.55228 10 4C10 3.44772 9.55228 3 9 3H8.32129C6.52701 3 4.87029 3.96143 3.98007 5.51931L1.65878 9.58156C1.22708 10.3371 1 11.1921 1 12.0623V16C1 18.7614 3.23858 21 6 21H18C20.7614 21 23 18.7614 23 16V12.0623C23 11.1921 22.7729 10.3371 22.3412 9.58156L20.0199 5.51931C19.1297 3.96143 17.473 3 15.6787 3H15C14.4477 3 14 3.44772 14 4C14 4.55228 14.4477 5 15 5H15.6787C16.7553 5 17.7493 5.57686 18.2834 6.51158L20.2768 10H17C15.8954 10 15 10.8954 15 12V13C15 13.5523 14.5523 14 14 14H10C9.44772 14 9 13.5523 9 13V12C9 10.8954 8.10457 10 7 10H3.72318L5.71656 6.51158Z" fill="black"/>
</svg>
