<svg width="24" height="24" viewBox="0 0 24 24" fill="none" xmlns="http://www.w3.org/2000/svg">
<path d="M12.999 21C12.999 21.5523 12.5513 22 11.999 22C6.47674 22 1.99902 17.5223 1.99902 12C1.99902 6.47772 6.47674 2 11.999 2C17.5213 2 21.999 6.47772 21.999 12C21.999 12.5523 21.5513 13 20.999 13C20.4467 13 19.999 12.5523 19.999 12C19.999 7.58228 16.4167 4 11.999 4C7.58131 4 3.99902 7.58228 3.99902 12C3.99902 16.4177 7.58131 20 11.999 20C12.5513 20 12.999 20.4477 12.999 21Z" fill="black"/>
<path d="M11.999 18C11.4467 18 10.999 17.5523 10.999 17V16.586C10.1659 16.3038 9.48773 15.6767 9.17712 14.8528C8.98229 14.336 9.24328 13.7591 9.76005 13.5643C10.2768 13.3695 10.8537 13.6304 11.0485 14.1472C11.1696 14.4683 11.5252 14.75 11.999 14.75C12.6131 14.75 12.999 14.2984 12.999 13.875C12.999 13.4516 12.6131 13 11.999 13C10.4039 13 8.99902 11.7726 8.99902 10.125C8.99902 8.83523 9.85992 7.803 10.999 7.41544V7C10.999 6.44771 11.4467 6 11.999 6C12.5513 6 12.999 6.44771 12.999 7V7.41402C13.8322 7.69616 14.5103 8.32335 14.8209 9.14723C15.0158 9.664 14.7548 10.2409 14.238 10.4357C13.7212 10.6305 13.1443 10.3696 12.9495 9.85277C12.8285 9.53167 12.4729 9.25 11.999 9.25C11.385 9.25 10.999 9.70157 10.999 10.125C10.999 10.5484 11.385 11 11.999 11C13.5941 11 14.999 12.2274 14.999 13.875C14.999 15.1648 14.1381 16.197 12.999 16.5846V17C12.999 17.5523 12.5513 18 11.999 18Z" fill="black"/>
<path d="M20 15C20 14.4477 19.5523 14 19 14C18.4477 14 18 14.4477 18 15V19.5858L16.7071 18.2929C16.3166 17.9024 15.6834 17.9024 15.2929 18.2929C14.9024 18.6834 14.9024 19.3166 15.2929 19.7071L18.2929 22.7071C18.6834 23.0976 19.3166 23.0976 19.7071 22.7071L22.7071 19.7071C23.0976 19.3166 23.0976 18.6834 22.7071 18.2929C22.3166 17.9024 21.6834 17.9024 21.2929 18.2929L20 19.5858V15Z" fill="black"/>
</svg>
