<svg width="24" height="24" viewBox="0 0 24 24" fill="none" xmlns="http://www.w3.org/2000/svg">
<path fill-rule="evenodd" clip-rule="evenodd" d="M12 22C6.47715 22 2 17.5228 2 12C2 6.47715 6.47715 2 12 2C17.5228 2 22 6.47715 22 12C22 17.5228 17.5228 22 12 22ZM13 17C13 17.5523 12.5523 18 12 18C11.4477 18 11 17.5523 11 17V11C11 10.4477 11.4477 10 12 10C12.5523 10 13 10.4477 13 11V17ZM12 8.5C11.4477 8.5 11 8.05229 11 7.5C11 6.94771 11.4478 6.5 12.0001 6.5C12.5524 6.5 13.0001 6.94771 13.0001 7.5C13.0001 8.05229 12.5523 8.5 12 8.5Z" fill="black"/>
</svg>
