<svg width="24" height="24" viewBox="0 0 24 24" fill="none" xmlns="http://www.w3.org/2000/svg">
<path fill-rule="evenodd" clip-rule="evenodd" d="M17.0351 1.29289C17.4256 0.902369 18.0588 0.902369 18.4493 1.29289L22.7043 5.5479C23.0948 5.93842 23.0948 6.57159 22.7043 6.96211C22.3138 7.35264 21.6806 7.35264 21.2901 6.96211L19.8557 5.52772C19.8187 5.58409 19.7755 5.63754 19.7259 5.68709L17.8839 7.52907L21.0077 10.6529C21.3982 11.0434 21.3982 11.6766 21.0077 12.0671C20.6172 12.4576 19.984 12.4576 19.5935 12.0671L18.9705 11.4441L11.2075 19.2071C9.67914 20.7355 7.33142 20.945 5.57836 19.8359L2.70711 22.7071C2.31658 23.0976 1.68342 23.0976 1.29289 22.7071C0.902369 22.3166 0.902369 21.6834 1.29289 21.2929L4.16423 18.4216C3.05538 16.6685 3.26506 14.3211 4.79327 12.7929L6.27658 11.3096L6.29289 11.2929L6.30959 11.2766L12.5563 5.02985L11.9335 4.40706C11.543 4.01653 11.543 3.38336 11.9335 2.99284C12.324 2.60232 12.9572 2.60232 13.3477 2.99285L16.4697 6.11485L18.3117 4.27287C18.3612 4.22333 18.4147 4.18006 18.4711 4.14309L17.0351 2.70711C16.6446 2.31658 16.6446 1.68342 17.0351 1.29289ZM13.9705 6.44407L11.9144 8.50019L13.2071 9.79289C13.5976 10.1834 13.5976 10.8166 13.2071 11.2071C12.8166 11.5976 12.1834 11.5976 11.7929 11.2071L10.5002 9.9144L8.4144 12.0002L9.70711 13.2929C10.0976 13.6834 10.0976 14.3166 9.70711 14.7071C9.31658 15.0976 8.68342 15.0976 8.29289 14.7071L7.00019 13.4144L6.20749 14.2071C5.2173 15.1973 5.2173 16.8027 6.20748 17.7929C7.19767 18.7831 8.80308 18.7831 9.79327 17.7929L17.5563 10.0299L15.7998 8.27337C15.7982 8.27191 15.7966 8.27044 15.795 8.26897C15.7837 8.25866 15.7726 8.24805 15.7616 8.23714C15.7492 8.22466 15.7371 8.21193 15.7254 8.19898L13.9705 6.44407Z" fill="black"/>
</svg>
