<svg width="24" height="24" viewBox="0 0 24 24" fill="none" xmlns="http://www.w3.org/2000/svg">
<path fill-rule="evenodd" clip-rule="evenodd" d="M18.4493 1.29289C18.0588 0.902369 17.4256 0.902369 17.0351 1.29289C16.6446 1.68342 16.6446 2.31658 17.0351 2.70711L18.4711 4.14309C18.4147 4.18006 18.3612 4.22333 18.3117 4.27287L16.4697 6.11485L13.3477 2.99285C12.9572 2.60232 12.324 2.60232 11.9335 2.99284C11.543 3.38336 11.543 4.01653 11.9335 4.40706L12.5561 5.02967L4.79289 12.7929C3.26462 14.3212 3.05498 16.6687 4.16399 18.4218L1.29289 21.2929C0.902369 21.6834 0.902369 22.3166 1.29289 22.7071C1.68342 23.0976 2.31658 23.0976 2.70711 22.7071L5.57821 19.836C7.33125 20.945 9.67883 20.7354 11.2071 19.2071L18.9703 11.4439L19.5935 12.0671C19.984 12.4576 20.6172 12.4576 21.0077 12.0671C21.3982 11.6766 21.3982 11.0434 21.0077 10.6529L17.8839 7.52907L19.7259 5.68709C19.7755 5.63754 19.8187 5.58409 19.8557 5.52772L21.2901 6.96211C21.6806 7.35264 22.3138 7.35264 22.7043 6.96211C23.0948 6.57159 23.0948 5.93842 22.7043 5.5479L18.4493 1.29289ZM7 13.4142L8.41421 12L9.70711 13.2929C10.0976 13.6834 10.0976 14.3166 9.70711 14.7071C9.31658 15.0976 8.68342 15.0976 8.29289 14.7071L7 13.4142ZM10.5 9.91421L11.7929 11.2071C12.1834 11.5976 12.8166 11.5976 13.2071 11.2071C13.5976 10.8166 13.5976 10.1834 13.2071 9.79289L11.9142 8.5L10.5 9.91421Z" fill="black"/>
</svg>
