<svg width="24" height="24" viewBox="0 0 24 24" fill="none" xmlns="http://www.w3.org/2000/svg">
<path fill-rule="evenodd" clip-rule="evenodd" d="M12 7C14.7614 7 17 9.23858 17 12C17 14.7614 14.7614 17 12 17C9.23858 17 7 14.7614 7 12C7 9.23858 9.23858 7 12 7ZM12 9C10.3431 9 9 10.3431 9 12C9 13.6569 10.3431 15 12 15C13.6569 15 15 13.6569 15 12C15 10.3431 13.6569 9 12 9Z" fill="black"/>
<path d="M17 6C17.5523 6 18 6.44772 18 7C18 7.55229 17.5523 8 17 8C16.4477 8 16 7.55229 16 7C16 6.44772 16.4477 6 17 6Z" fill="black"/>
<path fill-rule="evenodd" clip-rule="evenodd" d="M12 2C14.0931 2 15.7638 1.99804 17.0713 2.17383C18.4074 2.35351 19.513 2.73562 20.3887 3.61133C21.2644 4.48703 21.6465 5.59256 21.8262 6.92871C22.002 8.23625 22 9.90695 22 12C22 14.0931 22.002 15.7638 21.8262 17.0713C21.6465 18.4074 21.2644 19.513 20.3887 20.3887C19.513 21.2644 18.4074 21.6465 17.0713 21.8262C15.7638 22.002 14.0931 22 12 22C9.90695 22 8.23625 22.002 6.92871 21.8262C5.59256 21.6465 4.48703 21.2644 3.61133 20.3887C2.73562 19.513 2.35351 18.4074 2.17383 17.0713C1.99804 15.7638 2 14.0931 2 12C2 9.90695 1.99804 8.23625 2.17383 6.92871C2.35351 5.59256 2.73562 4.48703 3.61133 3.61133C4.48703 2.73562 5.59256 2.35351 6.92871 2.17383C8.23625 1.99804 9.90695 2 12 2ZM12 4C9.85041 4 8.3386 4.00254 7.19531 4.15625C6.08096 4.3061 5.4676 4.58319 5.02539 5.02539C4.58319 5.4676 4.3061 6.08096 4.15625 7.19531C4.00254 8.3386 4 9.85041 4 12C4 14.1496 4.00254 15.6614 4.15625 16.8047C4.3061 17.919 4.58319 18.5324 5.02539 18.9746C5.4676 19.4168 6.08096 19.6939 7.19531 19.8438C8.3386 19.9975 9.85041 20 12 20C14.1496 20 15.6614 19.9975 16.8047 19.8438C17.919 19.6939 18.5324 19.4168 18.9746 18.9746C19.4168 18.5324 19.6939 17.919 19.8438 16.8047C19.9975 15.6614 20 14.1496 20 12C20 9.85041 19.9975 8.3386 19.8438 7.19531C19.6939 6.08096 19.4168 5.4676 18.9746 5.02539C18.5324 4.58319 17.919 4.3061 16.8047 4.15625C15.6614 4.00254 14.1496 4 12 4Z" fill="black"/>
</svg>
