<svg width="24" height="24" viewBox="0 0 24 24" fill="none" xmlns="http://www.w3.org/2000/svg">
<path d="M12 9C13.6569 9 15 10.3431 15 12C15 13.6569 13.6569 15 12 15C10.3431 15 9 13.6569 9 12C9 10.3431 10.3431 9 12 9Z" fill="black"/>
<path fill-rule="evenodd" clip-rule="evenodd" d="M12 2C14.0931 2 15.7638 1.99804 17.0713 2.17383C18.4074 2.35351 19.513 2.73562 20.3887 3.61133C21.2644 4.48703 21.6465 5.59256 21.8262 6.92871C22.002 8.23625 22 9.90695 22 12C22 14.0931 22.002 15.7638 21.8262 17.0713C21.6465 18.4074 21.2644 19.513 20.3887 20.3887C19.513 21.2644 18.4074 21.6465 17.0713 21.8262C15.7638 22.002 14.0931 22 12 22C9.90695 22 8.23625 22.002 6.92871 21.8262C5.59256 21.6465 4.48703 21.2644 3.61133 20.3887C2.73562 19.513 2.35351 18.4074 2.17383 17.0713C1.99804 15.7638 2 14.0931 2 12C2 9.90695 1.99804 8.23625 2.17383 6.92871C2.35351 5.59256 2.73562 4.48703 3.61133 3.61133C4.48703 2.73562 5.59256 2.35351 6.92871 2.17383C8.23625 1.99804 9.90695 2 12 2ZM12 7C9.23858 7 7 9.23858 7 12C7 14.7614 9.23858 17 12 17C14.7614 17 17 14.7614 17 12C17 9.23858 14.7614 7 12 7ZM17 6C16.4477 6 16 6.44772 16 7C16 7.55229 16.4477 8 17 8C17.5523 8 18 7.55229 18 7C18 6.44772 17.5523 6 17 6Z" fill="black"/>
</svg>
