<svg width="24" height="24" viewBox="0 0 24 24" fill="none" xmlns="http://www.w3.org/2000/svg">
<path d="M16 2C13.7909 2 12 3.79086 12 6C12 6.75452 12.2089 7.46024 12.572 8.06249L7.63364 14.3477C7.13485 14.1243 6.58194 14 6 14C3.79086 14 2 15.7909 2 18C2 20.2091 3.79086 22 6 22C8.20914 22 10 20.2091 10 18C10 17.2496 9.79335 16.5474 9.43386 15.9473C9.88593 15.7836 10.434 15.6309 11.0387 15.5385C11.9775 15.395 13.0086 15.4031 14.0108 15.7034C14.0037 15.8013 14 15.9002 14 16C14 18.2091 15.7909 20 18 20C20.2091 20 22 18.2091 22 16C22 13.7909 20.2091 12 18 12C16.6 12 15.368 12.7192 14.6533 13.8083C13.3038 13.39 11.9597 13.3825 10.8027 13.5516L14.0094 9.47029C14.5956 9.80728 15.2753 10 16 10C18.2091 10 20 8.20914 20 6C20 3.79086 18.2091 2 16 2Z" fill="black"/>
</svg>
