<svg width="24" height="24" viewBox="0 0 24 24" fill="none" xmlns="http://www.w3.org/2000/svg">
<path fill-rule="evenodd" clip-rule="evenodd" d="M5 2C3.34315 2 2 3.34315 2 5V10C2 10.7684 2.28885 11.4692 2.7639 12C2.28885 12.5308 2 13.2316 2 14V19C2 20.6569 3.34315 22 5 22H10C10.7684 22 11.4692 21.7111 12 21.2361C12.5308 21.7111 13.2316 22 14 22H19C20.6569 22 22 20.6569 22 19V14C22 13.2316 21.7111 12.5308 21.2361 12C21.7111 11.4692 22 10.7684 22 10V5C22 3.34315 20.6569 2 19 2H14C13.2316 2 12.5308 2.28885 12 2.7639C11.4692 2.28885 10.7684 2 10 2H5ZM13 5C13 4.44772 13.4477 4 14 4H15V4.5C15 5.32843 15.6716 6 16.5 6C17.3284 6 18 5.32843 18 4.5V4H19C19.5523 4 20 4.44772 20 5V10C20 10.5523 19.5523 11 19 11H14C13.4477 11 13 10.5523 13 10V5ZM7.5 6C6.67157 6 6 5.32843 6 4.5V4H5C4.44772 4 4 4.44772 4 5V10C4 10.5523 4.44772 11 5 11H10C10.5523 11 11 10.5523 11 10V5C11 4.44772 10.5523 4 10 4H9V4.5C9 5.32843 8.32843 6 7.5 6ZM7.5 15C6.67157 15 6 14.3284 6 13.5V13H5C4.44772 13 4 13.4477 4 14V19C4 19.5523 4.44772 20 5 20H10C10.5523 20 11 19.5523 11 19V14C11 13.4477 10.5523 13 10 13H9V13.5C9 14.3284 8.32843 15 7.5 15ZM16.5 15C15.6716 15 15 14.3284 15 13.5V13H14C13.4477 13 13 13.4477 13 14V19C13 19.5523 13.4477 20 14 20H19C19.5523 20 20 19.5523 20 19V14C20 13.4477 19.5523 13 19 13H18V13.5C18 14.3284 17.3284 15 16.5 15Z" fill="black"/>
</svg>
