<svg width="24" height="24" viewBox="0 0 24 24" fill="none" xmlns="http://www.w3.org/2000/svg">
<path d="M9 5.00021C9 4.44792 9.44772 4.00021 10 4.00021H13.4787C13.4922 3.99993 13.5057 3.99993 13.5193 4.00021H17C17.5523 4.00021 18 4.44792 18 5.00021C18 5.55249 17.5523 6.00021 17 6.00021H14.3084L11.737 18.0002H14C14.5523 18.0002 15 18.4479 15 19.0002C15 19.5525 14.5523 20.0002 14 20.0002H10.5213C10.5078 20.0005 10.4943 20.0005 10.4807 20.0002H7C6.44772 20.0002 6 19.5525 6 19.0002C6 18.4479 6.44772 18.0002 7 18.0002H9.69158L12.263 6.00021H10C9.44772 6.00021 9 5.55249 9 5.00021Z" fill="black"/>
</svg>
