<svg width="24" height="24" viewBox="0 0 24 24" fill="none" xmlns="http://www.w3.org/2000/svg">
<path fill-rule="evenodd" clip-rule="evenodd" d="M10 9C8.89543 9 8 9.89543 8 11V12C8 13.1046 8.89543 14 10 14H14C15.1046 14 16 13.1046 16 12V11C16 9.89543 15.1046 9 14 9H10ZM10 11H14V12H10V11Z" fill="black"/>
<path fill-rule="evenodd" clip-rule="evenodd" d="M6 3C6 1.89543 6.89543 1 8 1H16C17.1046 1 18 1.89543 18 3V4C18 4.3082 17.9303 4.60012 17.8058 4.86085C19.13 5.76026 20 7.27854 20 9V19C20 20.6569 18.6569 22 17 22H7C5.34315 22 4 20.6569 4 19V9C4 7.27854 4.86997 5.76026 6.19423 4.86085C6.06971 4.60012 6 4.3082 6 4V3ZM6 9C6 7.34315 7.34315 6 9 6H15C16.6569 6 18 7.34315 18 9V19C18 19.5523 17.5523 20 17 20H7C6.44772 20 6 19.5523 6 19V9ZM16 4H8V3H16V4Z" fill="black"/>
</svg>
