<svg width="24" height="24" viewBox="0 0 24 24" fill="none" xmlns="http://www.w3.org/2000/svg">
<path fill-rule="evenodd" clip-rule="evenodd" d="M14.7656 2C14.2612 2 13.8358 2.37554 13.7733 2.87597L13.7519 3.04666C16.3812 3.3754 18.4817 5.40537 18.917 8H19C19.5523 8 20 8.44771 20 9C20 9.55229 19.5523 10 19 10H18.9201L18.1494 19.2491C18.0198 20.804 16.72 22 15.1597 22H8.84027C7.28 22 5.9802 20.804 5.85063 19.2491L5.07987 10H5C4.44772 10 4 9.55229 4 9C4 8.44771 4.44772 8 5 8H5.08296C5.55904 5.16229 8.027 3 11 3H11.7422L11.7887 2.6279C11.9764 1.12661 13.2526 0 14.7656 0H17C17.5523 0 18 0.447715 18 1C18 1.55228 17.5523 2 17 2H14.7656ZM7.12602 8C7.57006 6.27477 9.13616 5 11 5H11.4922L11.1172 8H7.12602ZM13.5039 5.03143L13.1328 8H16.874C16.4706 6.43274 15.1412 5.23722 13.5039 5.03143ZM12 11C10.3431 11 9 12.3431 9 14C9 15.6569 10.3431 17 12 17C13.6569 17 15 15.6569 15 14C15 12.3431 13.6569 11 12 11Z" fill="black"/>
</svg>
