<svg width="24" height="24" viewBox="0 0 24 24" fill="none" xmlns="http://www.w3.org/2000/svg">
<path fill-rule="evenodd" clip-rule="evenodd" d="M12 11C10.3431 11 9 12.3431 9 14C9 15.6569 10.3431 17 12 17C13.6569 17 15 15.6569 15 14C15 12.3431 13.6569 11 12 11ZM11 14C11 13.4477 11.4477 13 12 13C12.5523 13 13 13.4477 13 14C13 14.5523 12.5523 15 12 15C11.4477 15 11 14.5523 11 14Z" fill="black"/>
<path fill-rule="evenodd" clip-rule="evenodd" d="M14.7657 2C14.2613 2 13.8359 2.37554 13.7734 2.87597L13.7521 3.04668C16.3812 3.37545 18.4818 5.4054 18.917 8H19C19.5523 8 20 8.44771 20 9C20 9.55229 19.5523 10 19 10H18.9202L18.1494 19.2491C18.0199 20.804 16.7201 22 15.1598 22H8.84032C7.28006 22 5.98026 20.804 5.85068 19.2491L5.07992 10H5C4.44772 10 4 9.55229 4 9C4 8.44771 4.44772 8 5 8H5.08296C5.55904 5.16229 8.027 3 11 3H11.7423L11.7888 2.6279C11.9765 1.12661 13.2527 0 14.7657 0H17.0001C17.5524 0 18.0001 0.447715 18.0001 1C18.0001 1.55228 17.5524 2 17.0001 2H14.7657ZM11.1173 8L11.4923 5H11C9.13616 5 7.57006 6.27477 7.12602 8H11.1173ZM13.504 5.03144L13.1329 8H16.874C16.4706 6.43277 15.1413 5.23727 13.504 5.03144ZM7.08686 10L7.84378 19.083C7.88697 19.6013 8.32023 20 8.84032 20H15.1598C15.6799 20 16.1131 19.6013 16.1563 19.083L16.9133 10H12.0159C12.0062 10.0001 11.9965 10.0001 11.9868 10H7.08686Z" fill="black"/>
</svg>
