<svg width="24" height="24" viewBox="0 0 24 24" fill="none" xmlns="http://www.w3.org/2000/svg">
<path fill-rule="evenodd" clip-rule="evenodd" d="M7 9.25C5.48122 9.25 4.25 10.4812 4.25 12C4.25 13.5188 5.48122 14.75 7 14.75C8.51878 14.75 9.75 13.5188 9.75 12C9.75 10.4812 8.51878 9.25 7 9.25ZM1.75 12C1.75 9.10051 4.10051 6.75 7 6.75C9.8995 6.75 12.25 9.10051 12.25 12C12.25 14.8995 9.8995 17.25 7 17.25C4.10051 17.25 1.75 14.8995 1.75 12Z" fill="black"/>
<path fill-rule="evenodd" clip-rule="evenodd" d="M9.75 12C9.75 11.3096 10.3096 10.75 11 10.75L21 10.75C21.6904 10.75 22.25 11.3096 22.25 12C22.25 12.6904 21.6904 13.25 21 13.25L11 13.25C10.3096 13.25 9.75 12.6904 9.75 12Z" fill="black"/>
<path fill-rule="evenodd" clip-rule="evenodd" d="M19 11.25C19.6904 11.25 20.25 11.8096 20.25 12.5V15C20.25 15.6904 19.6904 16.25 19 16.25C18.3096 16.25 17.75 15.6904 17.75 15V12.5C17.75 11.8096 18.3096 11.25 19 11.25Z" fill="black"/>
</svg>
