<svg width="24" height="24" viewBox="0 0 24 24" fill="none" xmlns="http://www.w3.org/2000/svg">
<path fill-rule="evenodd" clip-rule="evenodd" d="M7 9C5.34315 9 4 10.3431 4 12C4 13.6569 5.34315 15 7 15C8.65685 15 10 13.6569 10 12C10 10.3431 8.65685 9 7 9ZM2 12C2 9.23858 4.23858 7 7 7C9.76142 7 12 9.23858 12 12C12 14.7614 9.76142 17 7 17C4.23858 17 2 14.7614 2 12Z" fill="black"/>
<path fill-rule="evenodd" clip-rule="evenodd" d="M10 12C10 11.4477 10.4477 11 11 11L21 11C21.5523 11 22 11.4477 22 12C22 12.5523 21.5523 13 21 13L11 13C10.4477 13 10 12.5523 10 12Z" fill="black"/>
<path fill-rule="evenodd" clip-rule="evenodd" d="M19 11.5C19.5523 11.5 20 11.9477 20 12.5V15C20 15.5523 19.5523 16 19 16C18.4477 16 18 15.5523 18 15V12.5C18 11.9477 18.4477 11.5 19 11.5Z" fill="black"/>
</svg>
