<svg width="24" height="24" viewBox="0 0 24 24" fill="none" xmlns="http://www.w3.org/2000/svg">
<path d="M8 15C8 14.4477 8.44772 14 9 14H15C15.5523 14 16 14.4477 16 15C16 15.5523 15.5523 16 15 16H9C8.44772 16 8 15.5523 8 15Z" fill="black"/>
<path d="M6 8C5.44772 8 5 8.44771 5 9C5 9.55229 5.44782 10 6.0001 10C6.55238 10 7.0001 9.55229 7.0001 9C7.0001 8.44771 6.55228 8 6 8Z" fill="black"/>
<path d="M5 12C5 11.4477 5.44772 11 6 11C6.55228 11 7.0001 11.4477 7.0001 12C7.0001 12.5523 6.55238 13 6.0001 13C5.44782 13 5 12.5523 5 12Z" fill="black"/>
<path d="M9 8C8.44772 8 8 8.44771 8 9C8 9.55229 8.44782 10 9.0001 10C9.55239 10 10.0001 9.55229 10.0001 9C10.0001 8.44771 9.55228 8 9 8Z" fill="black"/>
<path d="M8 12C8 11.4477 8.44772 11 9 11C9.55228 11 10.0001 11.4477 10.0001 12C10.0001 12.5523 9.55239 13 9.0001 13C8.44782 13 8 12.5523 8 12Z" fill="black"/>
<path d="M12 8C11.4477 8 11 8.44771 11 9C11 9.55229 11.4478 10 12.0001 10C12.5524 10 13.0001 9.55229 13.0001 9C13.0001 8.44771 12.5523 8 12 8Z" fill="black"/>
<path d="M11 12C11 11.4477 11.4477 11 12 11C12.5523 11 13.0001 11.4477 13.0001 12C13.0001 12.5523 12.5524 13 12.0001 13C11.4478 13 11 12.5523 11 12Z" fill="black"/>
<path d="M15 8C14.4477 8 14 8.44771 14 9C14 9.55229 14.4478 10 15.0001 10C15.5524 10 16.0001 9.55229 16.0001 9C16.0001 8.44771 15.5523 8 15 8Z" fill="black"/>
<path d="M14 12C14 11.4477 14.4477 11 15 11C15.5523 11 16.0001 11.4477 16.0001 12C16.0001 12.5523 15.5524 13 15.0001 13C14.4478 13 14 12.5523 14 12Z" fill="black"/>
<path d="M18 8C17.4477 8 17 8.44771 17 9C17 9.55229 17.4478 10 18.0001 10C18.5524 10 19.0001 9.55229 19.0001 9C19.0001 8.44771 18.5523 8 18 8Z" fill="black"/>
<path d="M17 12C17 11.4477 17.4477 11 18 11C18.5523 11 19.0001 11.4477 19.0001 12C19.0001 12.5523 18.5524 13 18.0001 13C17.4478 13 17 12.5523 17 12Z" fill="black"/>
<path fill-rule="evenodd" clip-rule="evenodd" d="M16 1C16 0.447715 15.5523 0 15 0C14.4477 0 14 0.447715 14 1H12C11.4477 1 11 1.44772 11 2V4H6C3.23858 4 1 6.23858 1 9V15C1 17.7614 3.23858 20 6 20H18C20.7614 20 23 17.7614 23 15V9C23 6.23858 20.7614 4 18 4H13V3H15C15.5523 3 16 2.55228 16 2V1ZM21 9C21 7.34315 19.6569 6 18 6H6C4.34315 6 3 7.34315 3 9V15C3 16.6569 4.34315 18 6 18H18C19.6569 18 21 16.6569 21 15V9Z" fill="black"/>
</svg>
