<svg width="24" height="24" viewBox="0 0 24 24" fill="none" xmlns="http://www.w3.org/2000/svg">
<path fill-rule="evenodd" clip-rule="evenodd" d="M1 7C1 5.34315 2.34315 4 4 4H20C21.6569 4 23 5.34315 23 7V17C23 18.6569 21.6569 20 20 20H4C2.34315 20 1 18.6569 1 17V7ZM4 6C3.44772 6 3 6.44772 3 7V17C3 17.5523 3.44772 18 4 18H20C20.5523 18 21 17.5523 21 17V7C21 6.44772 20.5523 6 20 6H4Z" fill="black"/>
<path fill-rule="evenodd" clip-rule="evenodd" d="M8 15C8 14.4477 8.44772 14 9 14H15C15.5523 14 16 14.4477 16 15C16 15.5523 15.5523 16 15 16H9C8.44772 16 8 15.5523 8 15Z" fill="black"/>
<path fill-rule="evenodd" clip-rule="evenodd" d="M5 9C5 8.44772 5.44772 8 6 8C6.55228 8 7.0001 8.44772 7.0001 9C7.0001 9.55228 6.55238 10 6.0001 10C5.44782 10 5 9.55228 5 9Z" fill="black"/>
<path fill-rule="evenodd" clip-rule="evenodd" d="M5 12C5 11.4477 5.44772 11 6 11C6.55228 11 7.0001 11.4477 7.0001 12C7.0001 12.5523 6.55238 13 6.0001 13C5.44782 13 5 12.5523 5 12Z" fill="black"/>
<path fill-rule="evenodd" clip-rule="evenodd" d="M8 9C8 8.44772 8.44772 8 9 8C9.55228 8 10.0001 8.44772 10.0001 9C10.0001 9.55228 9.55239 10 9.0001 10C8.44782 10 8 9.55228 8 9Z" fill="black"/>
<path fill-rule="evenodd" clip-rule="evenodd" d="M8 12C8 11.4477 8.44772 11 9 11C9.55228 11 10.0001 11.4477 10.0001 12C10.0001 12.5523 9.55239 13 9.0001 13C8.44782 13 8 12.5523 8 12Z" fill="black"/>
<path fill-rule="evenodd" clip-rule="evenodd" d="M11 9C11 8.44772 11.4477 8 12 8C12.5523 8 13.0001 8.44772 13.0001 9C13.0001 9.55228 12.5524 10 12.0001 10C11.4478 10 11 9.55228 11 9Z" fill="black"/>
<path fill-rule="evenodd" clip-rule="evenodd" d="M11 12C11 11.4477 11.4477 11 12 11C12.5523 11 13.0001 11.4477 13.0001 12C13.0001 12.5523 12.5524 13 12.0001 13C11.4478 13 11 12.5523 11 12Z" fill="black"/>
<path fill-rule="evenodd" clip-rule="evenodd" d="M14 9C14 8.44772 14.4477 8 15 8C15.5523 8 16.0001 8.44772 16.0001 9C16.0001 9.55228 15.5524 10 15.0001 10C14.4478 10 14 9.55228 14 9Z" fill="black"/>
<path fill-rule="evenodd" clip-rule="evenodd" d="M14 12C14 11.4477 14.4477 11 15 11C15.5523 11 16.0001 11.4477 16.0001 12C16.0001 12.5523 15.5524 13 15.0001 13C14.4478 13 14 12.5523 14 12Z" fill="black"/>
<path fill-rule="evenodd" clip-rule="evenodd" d="M17 9C17 8.44772 17.4477 8 18 8C18.5523 8 19.0001 8.44772 19.0001 9C19.0001 9.55228 18.5524 10 18.0001 10C17.4478 10 17 9.55228 17 9Z" fill="black"/>
<path fill-rule="evenodd" clip-rule="evenodd" d="M17 12C17 11.4477 17.4477 11 18 11C18.5523 11 19.0001 11.4477 19.0001 12C19.0001 12.5523 18.5524 13 18.0001 13C17.4478 13 17 12.5523 17 12Z" fill="black"/>
</svg>
