<svg width="24" height="24" viewBox="0 0 24 24" fill="none" xmlns="http://www.w3.org/2000/svg">
<path fill-rule="evenodd" clip-rule="evenodd" d="M18.0268 16.0778C15.1824 18.2666 10.8016 18.8423 4.65563 18.3164C4.56433 18.5223 4.48352 18.7168 4.4124 18.8974C4.24787 19.315 4.13609 19.6557 4.06645 19.8877C4.03165 20.0036 4.00744 20.0921 3.99249 20.1492C3.98502 20.1778 3.97986 20.1985 3.97685 20.2108L3.97394 20.2229C3.85096 20.7609 3.31529 21.0976 2.77706 20.9751C2.23856 20.8524 1.90142 20.3165 2.02404 19.778C2.15091 19.3126 2.02428 19.777 2.02428 19.777L2.02457 19.7757L2.02529 19.7726L2.02735 19.7638L2.03397 19.7362C2.03952 19.7135 2.04737 19.6822 2.05769 19.6427C2.07835 19.5638 2.10894 19.4524 2.15091 19.3126C2.23482 19.0331 2.36448 18.6393 2.55157 18.1643C2.6713 17.8604 2.81495 17.5222 2.98567 17.1589C2.56702 16.5012 2.31462 15.7972 2.16709 15.1575C1.95617 14.243 1.94276 13.3889 2.00561 12.8414L2.00816 12.821C2.4808 9.33577 3.94498 6.95959 5.94646 5.42078C7.92058 3.90301 10.3232 3.27162 12.5729 3.07415C14.8277 2.87624 17.0041 3.10734 18.6029 3.38165C19.4058 3.5194 20.0713 3.66949 20.5387 3.78591C20.7725 3.84416 20.9573 3.8941 21.0854 3.93003C21.1494 3.948 21.1993 3.96248 21.2342 3.97275L21.275 3.98492L21.2868 3.98848L21.2904 3.9896L21.2917 3.98999C21.711 4.11926 21.998 4.50708 21.998 4.94589C21.998 10.0058 20.9907 13.7971 18.0268 16.0778ZM4.8406 16.3249C4.5399 15.9321 4.33031 15.473 4.192 14.9997C4.28018 14.8651 4.37165 14.7297 4.46649 14.5937C6.34423 11.9003 9.55561 8.96002 14.8226 8.01568C15.3662 7.91822 15.8859 8.27989 15.9834 8.82351C16.0809 9.36713 15.7192 9.88683 15.1756 9.98429C10.5432 10.8148 7.75454 13.3745 6.10713 15.7375C5.95395 15.9572 5.8107 16.1752 5.67687 16.3898C5.40322 16.3708 5.1245 16.3491 4.8406 16.3249Z" fill="black"/>
</svg>
