<svg width="24" height="24" viewBox="0 0 24 24" fill="none" xmlns="http://www.w3.org/2000/svg">
<path fill-rule="evenodd" clip-rule="evenodd" d="M21.6849 2.85427L21.6857 2.85762L21.6872 2.86427L21.6918 2.88493C21.6955 2.90195 21.7006 2.92542 21.7067 2.95511C21.719 3.01446 21.7355 3.09869 21.7546 3.20579C21.7928 3.41988 21.841 3.72593 21.8846 4.10777C21.9717 4.87032 22.0409 5.94165 21.9719 7.19061C21.8342 9.68141 21.1423 12.9384 18.8809 15.8409C16.5884 18.7833 13.8286 19.7473 11.6372 19.9524C10.5525 20.0539 9.61392 19.9698 8.94374 19.86C8.60778 19.8049 8.33651 19.7429 8.1447 19.6932C8.0487 19.6683 7.97234 19.6465 7.91744 19.6299C7.91529 19.6293 7.91318 19.6286 7.9111 19.628C7.90902 19.6274 7.90697 19.6268 7.90496 19.6261C7.89931 19.6244 7.89393 19.6228 7.88881 19.6212C7.87417 19.6167 7.86165 19.6127 7.8513 19.6094L7.83066 19.6027L7.82352 19.6003L7.81957 19.599C7.81957 19.599 8.26908 19.7243 7.81852 19.5987C7.71965 19.5651 7.62947 19.5176 7.54941 19.4591L5.77385 21.6282C5.42402 22.0556 4.79399 22.1185 4.36662 21.7686C3.93925 21.4188 3.87639 20.7888 4.22621 20.3614L5.99245 18.2036C5.95433 18.1557 5.90678 18.0944 5.85183 18.0204C5.71525 17.8367 5.53174 17.5733 5.33328 17.2424C4.93873 16.5844 4.4719 15.6373 4.2084 14.5009C3.94361 13.3588 3.88176 12.0127 4.31793 10.5862C4.75537 9.15568 5.67355 7.71091 7.26498 6.3463C10.3734 3.67866 13.7623 2.61547 16.36 2.21777C17.6595 2.01881 18.768 1.98514 19.5569 2.00176C19.9517 2.01007 20.2676 2.03102 20.4888 2.05045C20.5995 2.06017 20.6866 2.06952 20.7481 2.07674C20.7788 2.08036 20.8032 2.08344 20.821 2.08578L20.8426 2.08869L20.8497 2.08968L20.8523 2.09004L20.8533 2.09019C21.2609 2.14928 21.5916 2.45313 21.6849 2.85427ZM8.89448 17.8158C9.00158 17.8389 9.12647 17.8632 9.26717 17.8863C9.80801 17.9749 10.5715 18.0434 11.4508 17.9611C13.1874 17.7986 15.4037 17.0498 17.3032 14.6117C19.2339 12.1336 19.8513 9.31745 19.9749 7.08024C20.0366 5.96519 19.9745 5.00879 19.8975 4.33461C19.8843 4.21855 19.8706 4.11104 19.8571 4.01274C19.753 4.00794 19.6387 4.00392 19.5147 4.00131C18.8204 3.98668 17.8292 4.01614 16.6627 4.19473C14.3284 4.55211 11.3201 5.50159 8.56719 7.86427C7.22527 9.01493 6.54309 10.1489 6.23052 11.1711C5.91668 12.1974 5.95484 13.1784 6.15672 14.0491C6.35989 14.9254 6.7264 15.6766 7.04852 16.2138C7.13847 16.3638 7.22392 16.4954 7.29981 16.6065L13.2262 9.36638C13.576 8.93901 14.2061 8.87615 14.6334 9.22597C15.0608 9.57579 15.1237 10.2058 14.7738 10.6332L8.89448 17.8158Z" fill="black"/>
</svg>
