<svg width="24" height="24" viewBox="0 0 24 24" fill="none" xmlns="http://www.w3.org/2000/svg">
<path fill-rule="evenodd" clip-rule="evenodd" d="M2.16482 10.1822C2.91142 6.11672 6.11672 2.91142 10.1822 2.16482C10.4986 1.4773 11.1936 1 12 1C12.8064 1 13.5014 1.4773 13.8178 2.16482C17.8833 2.91142 21.0886 6.11672 21.8352 10.1822C21.581 10.0652 21.2981 10 21 10H19.748H16.584C16.8516 10.6125 17 11.2889 17 12C17 12.7111 16.8516 13.3875 16.584 14H19.748H21C21.2981 14 21.581 13.9348 21.8352 13.8178C21.0886 17.8833 17.8833 21.0886 13.8178 21.8352C13.9348 21.581 14 21.2981 14 21V19.748V16.584C13.3875 16.8516 12.7111 17 12 17C11.2889 17 10.6125 16.8516 10 16.584V19.748V21C10 21.2981 10.0652 21.581 10.1822 21.8352C6.11672 21.0886 2.91142 17.8833 2.16482 13.8178C2.41898 13.9348 2.70187 14 3 14H4.25203H7.41604C7.14845 13.3875 7 12.7111 7 12C7 11.2889 7.14845 10.6125 7.41604 10H4.25203H3C2.70187 10 2.41898 10.0652 2.16482 10.1822ZM10.1822 2.16482C10.7717 2.05656 11.3792 2 12 2C12.6208 2 13.2283 2.05656 13.8178 2.16482C13.9348 2.41898 14 2.70187 14 3V4.25203V7.41604C13.3875 7.14845 12.7111 7 12 7C11.2889 7 10.6125 7.14845 10 7.41604V4.25203V3C10 2.70187 10.0652 2.41898 10.1822 2.16482ZM12 9C10.3431 9 9 10.3431 9 12C9 13.6569 10.3431 15 12 15C13.6569 15 15 13.6569 15 12C15 10.3431 13.6569 9 12 9Z" fill="black"/>
<path d="M2.16482 10.1822C2.05656 10.7717 2 11.3792 2 12C2 12.6208 2.05656 13.2283 2.16482 13.8178C1.4773 13.5014 1 12.8064 1 12C1 11.1936 1.4773 10.4986 2.16482 10.1822Z" fill="black"/>
<path d="M10.1822 21.8352C10.7717 21.9434 11.3792 22 12 22C12.6208 22 13.2283 21.9434 13.8178 21.8352C13.5014 22.5227 12.8064 23 12 23C11.1936 23 10.4986 22.5227 10.1822 21.8352Z" fill="black"/>
<path d="M21.8352 13.8178C21.9434 13.2283 22 12.6208 22 12C22 11.3792 21.9434 10.7717 21.8352 10.1822C22.5227 10.4986 23 11.1936 23 12C23 12.8064 22.5227 13.5014 21.8352 13.8178Z" fill="black"/>
</svg>
