<svg width="24" height="24" viewBox="0 0 24 24" fill="none" xmlns="http://www.w3.org/2000/svg">
<path d="M12 4.25C8.82436 4.25 6.25 6.82436 6.25 10C6.25 11.2233 6.63062 12.354 7.27992 13.2849C7.67487 13.8511 7.53603 14.6303 6.96981 15.0252C6.40359 15.4202 5.62441 15.2813 5.22946 14.7151C4.29701 13.3783 3.75 11.7512 3.75 10C3.75 5.44365 7.44365 1.75 12 1.75C16.5563 1.75 20.25 5.44365 20.25 10C20.25 11.7512 19.703 13.3783 18.7705 14.7151C18.3756 15.2813 17.5964 15.4202 17.0302 15.0252C16.464 14.6303 16.3251 13.8511 16.7201 13.2849C17.3694 12.354 17.75 11.2233 17.75 10C17.75 6.82436 15.1756 4.25 12 4.25Z" fill="black"/>
<path d="M9.11612 10.1161C9.60427 9.62796 10.3957 9.62796 10.8839 10.1161L12 11.2322L13.1161 10.1161C13.6043 9.62796 14.3957 9.62796 14.8839 10.1161C15.372 10.6043 15.372 11.3957 14.8839 11.8839L13.25 13.5178V16H16C16.5523 16 17 16.4477 17 17C17 18.1046 16.1046 19 15 19H9C7.89543 19 7 18.1046 7 17C7 16.4477 7.44772 16 8 16H10.75V13.5178L9.11612 11.8839C8.62796 11.3957 8.62796 10.6043 9.11612 10.1161Z" fill="black"/>
<path d="M15 20C15 21.1046 14.1046 22 13 22H11C9.89543 22 9 21.1046 9 20H15Z" fill="black"/>
</svg>
