<svg width="24" height="24" viewBox="0 0 24 24" fill="none" xmlns="http://www.w3.org/2000/svg">
<path fill-rule="evenodd" clip-rule="evenodd" d="M12 2C6.47715 2 2 6.47715 2 12C2 17.5228 6.47715 22 12 22C17.5228 22 22 17.5228 22 12C22 6.47715 17.5228 2 12 2ZM10.2233 7.18318L7.02457 12.5349C6.93238 12.728 7.111 12.9409 7.37029 12.9409H11.0176L9.3953 17.6193C9.28583 17.9262 9.77559 18.1391 10.0349 17.8916L16.9132 11.4557C17.1149 11.2626 16.942 10.9704 16.6309 10.9704H12.5745L15.7605 7.47031C15.9334 7.27228 15.7605 7 15.4609 7H10.5747C10.4249 7 10.2866 7.07427 10.229 7.18814L10.2233 7.18318Z" fill="black"/>
</svg>
