<svg width="24" height="24" viewBox="0 0 24 24" fill="none" xmlns="http://www.w3.org/2000/svg">
<path d="M7 17C7 16.4477 7.44772 16 8 16H16C16.5523 16 17 16.4477 17 17C17 18.1046 16.1046 19 15 19H9C7.89543 19 7 18.1046 7 17Z" fill="black"/>
<path fill-rule="evenodd" clip-rule="evenodd" d="M12 4C8.68629 4 6 6.68629 6 10C6 11.2761 6.39726 12.4564 7.07487 13.4279C7.39084 13.8809 7.27976 14.5042 6.82679 14.8202C6.37381 15.1361 5.75046 15.0251 5.4345 14.5721C4.53037 13.2759 4 11.6984 4 10C4 5.58172 7.58172 2 12 2C16.4183 2 20 5.58172 20 10C20 11.6984 19.4696 13.2759 18.5655 14.5721C18.2495 15.0251 17.6262 15.1361 17.1732 14.8202C16.7202 14.5042 16.6092 13.8809 16.9251 13.4279C17.6027 12.4564 18 11.2761 18 10C18 6.68629 15.3137 4 12 4Z" fill="black"/>
<path fill-rule="evenodd" clip-rule="evenodd" d="M10.7071 10.2929C10.3166 9.90237 9.68342 9.90237 9.29289 10.2929C8.90237 10.6834 8.90237 11.3166 9.29289 11.7071L11 13.4142V16C11 16.5523 11.4477 17 12 17C12.5523 17 13 16.5523 13 16V13.4142L14.7071 11.7071C15.0976 11.3166 15.0976 10.6834 14.7071 10.2929C14.3166 9.90237 13.6834 9.90237 13.2929 10.2929L12 11.5858L10.7071 10.2929Z" fill="black"/>
<path d="M13 22C14.1046 22 15 21.1046 15 20H9C9 21.1046 9.89543 22 11 22H13Z" fill="black"/>
</svg>
