<svg width="24" height="24" viewBox="0 0 24 24" fill="none" xmlns="http://www.w3.org/2000/svg">
<path d="M10 2C9.62123 2 9.27497 2.214 9.10557 2.55279L4.10557 12.5528C3.95058 12.8628 3.96714 13.2309 4.14935 13.5257C4.33156 13.8205 4.65342 14 5 14H9.557L7.06367 20.6489C6.8984 21.0896 7.06286 21.5859 7.45862 21.8408C7.85437 22.0956 8.37427 22.0399 8.70711 21.7071L19.7071 10.7071C19.9931 10.4211 20.0787 9.99099 19.9239 9.61732C19.7691 9.24364 19.4045 9 19 9H13.1742L17.7593 3.65079C18.0134 3.35428 18.0717 2.93694 17.9085 2.58214C17.7453 2.22734 17.3905 2 17 2H10Z" fill="black"/>
</svg>
