<svg width="24" height="24" viewBox="0 0 24 24" fill="none" xmlns="http://www.w3.org/2000/svg">
<path fill-rule="evenodd" clip-rule="evenodd" d="M9.10557 2.55279C9.27497 2.214 9.62123 2 10 2H17C17.3905 2 17.7453 2.22734 17.9085 2.58214C18.0717 2.93694 18.0134 3.35428 17.7593 3.65079L13.1742 9H19C19.4045 9 19.7691 9.24364 19.9239 9.61732C20.0787 9.99099 19.9931 10.4211 19.7071 10.7071L8.70711 21.7071C8.37427 22.0399 7.85437 22.0956 7.45862 21.8408C7.06286 21.5859 6.8984 21.0896 7.06367 20.6489L9.557 14H5C4.65342 14 4.33156 13.8205 4.14935 13.5257C3.96714 13.2309 3.95058 12.8628 4.10557 12.5528L9.10557 2.55279ZM10.618 4L6.61803 12H11C11.328 12 11.6351 12.1608 11.8219 12.4304C12.0087 12.7 12.0515 13.044 11.9363 13.3511L10.5573 17.0285L16.5858 11H11C10.6095 11 10.2547 10.7727 10.0915 10.4179C9.9283 10.0631 9.98659 9.64572 10.2407 9.34921L14.8258 4H10.618Z" fill="black"/>
</svg>
