<svg width="24" height="24" viewBox="0 0 24 24" fill="none" xmlns="http://www.w3.org/2000/svg">
<path fill-rule="evenodd" clip-rule="evenodd" d="M7 8.25C5.48122 8.25 4.25 9.48122 4.25 11V13C4.25 14.5188 5.48122 15.75 7 15.75H9C9.69036 15.75 10.25 16.3096 10.25 17C10.25 17.6904 9.69036 18.25 9 18.25H7C4.1005 18.25 1.75 15.8995 1.75 13V11C1.75 8.1005 4.10051 5.75 7 5.75H9C9.69036 5.75 10.25 6.30964 10.25 7C10.25 7.69036 9.69036 8.25 9 8.25H7Z" fill="black"/>
<path fill-rule="evenodd" clip-rule="evenodd" d="M7.75 12C7.75 11.3096 8.30964 10.75 9 10.75H15C15.6904 10.75 16.25 11.3096 16.25 12C16.25 12.6904 15.6904 13.25 15 13.25H9C8.30964 13.25 7.75 12.6904 7.75 12Z" fill="black"/>
<path fill-rule="evenodd" clip-rule="evenodd" d="M17 8.25C18.5188 8.25 19.75 9.48122 19.75 11V13C19.75 14.5188 18.5188 15.75 17 15.75H15C14.3096 15.75 13.75 16.3096 13.75 17C13.75 17.6904 14.3096 18.25 15 18.25H17C19.8995 18.25 22.25 15.8995 22.25 13V11C22.25 8.1005 19.8995 5.75 17 5.75H15C14.3096 5.75 13.75 6.30964 13.75 7C13.75 7.69036 14.3096 8.25 15 8.25H17Z" fill="black"/>
</svg>
