<svg width="24" height="24" viewBox="0 0 24 24" fill="none" xmlns="http://www.w3.org/2000/svg">
<path fill-rule="evenodd" clip-rule="evenodd" d="M7 8C5.34315 8 4 9.34315 4 11V13C4 14.6569 5.34315 16 7 16H9C9.55228 16 10 16.4477 10 17C10 17.5523 9.55228 18 9 18H7C4.23858 18 2 15.7614 2 13V11C2 8.23858 4.23858 6 7 6H9C9.55228 6 10 6.44772 10 7C10 7.55228 9.55228 8 9 8H7Z" fill="black"/>
<path fill-rule="evenodd" clip-rule="evenodd" d="M8 12C8 11.4477 8.44772 11 9 11H15C15.5523 11 16 11.4477 16 12C16 12.5523 15.5523 13 15 13H9C8.44772 13 8 12.5523 8 12Z" fill="black"/>
<path fill-rule="evenodd" clip-rule="evenodd" d="M17 8C18.6569 8 20 9.34315 20 11V13C20 14.6569 18.6569 16 17 16H15C14.4477 16 14 16.4477 14 17C14 17.5523 14.4477 18 15 18H17C19.7614 18 22 15.7614 22 13V11C22 8.23858 19.7614 6 17 6H15C14.4477 6 14 6.44772 14 7C14 7.55228 14.4477 8 15 8H17Z" fill="black"/>
</svg>
