<svg width="24" height="24" viewBox="0 0 24 24" fill="none" xmlns="http://www.w3.org/2000/svg">
<path fill-rule="evenodd" clip-rule="evenodd" d="M2 7C2 6.30964 2.55964 5.75 3.25 5.75H20.75C21.4404 5.75 22 6.30964 22 7C22 7.69036 21.4404 8.25 20.75 8.25H3.25C2.55964 8.25 2 7.69036 2 7Z" fill="black"/>
<path fill-rule="evenodd" clip-rule="evenodd" d="M2 12C2 11.3096 2.55964 10.75 3.25 10.75H20.75C21.4404 10.75 22 11.3096 22 12C22 12.6904 21.4404 13.25 20.75 13.25H3.25C2.55964 13.25 2 12.6904 2 12Z" fill="black"/>
<path fill-rule="evenodd" clip-rule="evenodd" d="M2 17C2 16.3096 2.55964 15.75 3.25 15.75H20.75C21.4404 15.75 22 16.3096 22 17C22 17.6904 21.4404 18.25 20.75 18.25H3.25C2.55964 18.25 2 17.6904 2 17Z" fill="black"/>
</svg>
