<svg width="24" height="24" viewBox="0 0 24 24" fill="none" xmlns="http://www.w3.org/2000/svg">
<path fill-rule="evenodd" clip-rule="evenodd" d="M11.75 8C11.75 7.30964 12.3096 6.75 13 6.75H22C22.6904 6.75 23.25 7.30964 23.25 8C23.25 8.69036 22.6904 9.25 22 9.25H13C12.3096 9.25 11.75 8.69036 11.75 8Z" fill="black"/>
<path fill-rule="evenodd" clip-rule="evenodd" d="M11.75 12C11.75 11.3096 12.3096 10.75 13 10.75H18C18.6904 10.75 19.25 11.3096 19.25 12C19.25 12.6904 18.6904 13.25 18 13.25H13C12.3096 13.25 11.75 12.6904 11.75 12Z" fill="black"/>
<path fill-rule="evenodd" clip-rule="evenodd" d="M11.75 16C11.75 15.3096 12.3096 14.75 13 14.75H16C16.6904 14.75 17.25 15.3096 17.25 16C17.25 16.6904 16.6904 17.25 16 17.25H13C12.3096 17.25 11.75 16.6904 11.75 16Z" fill="black"/>
<path fill-rule="evenodd" clip-rule="evenodd" d="M6 3.75C6.69036 3.75 7.25 4.30964 7.25 5V17C7.25 17.6904 6.69036 18.25 6 18.25C5.30964 18.25 4.75 17.6904 4.75 17V5C4.75 4.30964 5.30964 3.75 6 3.75Z" fill="black"/>
<path fill-rule="evenodd" clip-rule="evenodd" d="M2.11612 15.1161C2.60427 14.628 3.39573 14.628 3.88388 15.1161L6 17.2322L8.11612 15.1161C8.60427 14.628 9.39573 14.628 9.88388 15.1161C10.372 15.6043 10.372 16.3957 9.88388 16.8839L6.88388 19.8839C6.39573 20.372 5.60427 20.372 5.11612 19.8839L2.11612 16.8839C1.62796 16.3957 1.62796 15.6043 2.11612 15.1161Z" fill="black"/>
</svg>
