<svg width="24" height="24" viewBox="0 0 24 24" fill="none" xmlns="http://www.w3.org/2000/svg">
<path fill-rule="evenodd" clip-rule="evenodd" d="M12 8C12 7.44772 12.4477 7 13 7H22C22.5523 7 23 7.44772 23 8C23 8.55228 22.5523 9 22 9H13C12.4477 9 12 8.55228 12 8Z" fill="black"/>
<path fill-rule="evenodd" clip-rule="evenodd" d="M12 12C12 11.4477 12.4477 11 13 11H18C18.5523 11 19 11.4477 19 12C19 12.5523 18.5523 13 18 13H13C12.4477 13 12 12.5523 12 12Z" fill="black"/>
<path fill-rule="evenodd" clip-rule="evenodd" d="M12 16C12 15.4477 12.4477 15 13 15H16C16.5523 15 17 15.4477 17 16C17 16.5523 16.5523 17 16 17H13C12.4477 17 12 16.5523 12 16Z" fill="black"/>
<path fill-rule="evenodd" clip-rule="evenodd" d="M6 4C6.55228 4 7 4.44772 7 5V17C7 17.5523 6.55228 18 6 18C5.44772 18 5 17.5523 5 17V5C5 4.44772 5.44772 4 6 4Z" fill="black"/>
<path fill-rule="evenodd" clip-rule="evenodd" d="M2.29289 15.2929C2.68342 14.9024 3.31658 14.9024 3.70711 15.2929L6 17.5858L8.29289 15.2929C8.68342 14.9024 9.31658 14.9024 9.70711 15.2929C10.0976 15.6834 10.0976 16.3166 9.70711 16.7071L6.70711 19.7071C6.31658 20.0976 5.68342 20.0976 5.29289 19.7071L2.29289 16.7071C1.90237 16.3166 1.90237 15.6834 2.29289 15.2929Z" fill="black"/>
</svg>
