<svg width="24" height="24" viewBox="0 0 24 24" fill="none" xmlns="http://www.w3.org/2000/svg">
<path fill-rule="evenodd" clip-rule="evenodd" d="M12 16C12 16.5523 12.4477 17 13 17H22C22.5523 17 23 16.5523 23 16C23 15.4477 22.5523 15 22 15H13C12.4477 15 12 15.4477 12 16Z" fill="black"/>
<path fill-rule="evenodd" clip-rule="evenodd" d="M12 12C12 12.5523 12.4477 13 13 13H18C18.5523 13 19 12.5523 19 12C19 11.4477 18.5523 11 18 11H13C12.4477 11 12 11.4477 12 12Z" fill="black"/>
<path fill-rule="evenodd" clip-rule="evenodd" d="M12 8C12 8.55229 12.4477 9 13 9H16C16.5523 9 17 8.55229 17 8C17 7.44771 16.5523 7 16 7H13C12.4477 7 12 7.44771 12 8Z" fill="black"/>
<path fill-rule="evenodd" clip-rule="evenodd" d="M6 20C6.55228 20 7 19.5523 7 19V7C7 6.44771 6.55228 6 6 6C5.44772 6 5 6.44771 5 7V19C5 19.5523 5.44772 20 6 20Z" fill="black"/>
<path fill-rule="evenodd" clip-rule="evenodd" d="M2.29289 8.70711C2.68342 9.09763 3.31658 9.09763 3.70711 8.70711L6 6.41421L8.29289 8.70711C8.68342 9.09763 9.31658 9.09763 9.70711 8.70711C10.0976 8.31658 10.0976 7.68342 9.70711 7.29289L6.70711 4.29289C6.31658 3.90237 5.68342 3.90237 5.29289 4.29289L2.29289 7.29289C1.90237 7.68342 1.90237 8.31658 2.29289 8.70711Z" fill="black"/>
</svg>
