<svg width="24" height="24" viewBox="0 0 24 24" fill="none" xmlns="http://www.w3.org/2000/svg">
<path fill-rule="evenodd" clip-rule="evenodd" d="M12 2C10.4922 2 8.51579 2.50851 6.89514 3.79078C5.2356 5.10383 4 7.19173 4 10.2C4 13.1953 5.29351 15.7698 6.83865 17.7365C8.38199 19.701 10.2319 21.1323 11.4992 21.8656C11.7937 22.036 12.1547 22.0449 12.4573 21.8893C13.7415 21.2289 15.6049 19.881 17.157 17.9332C18.7164 15.9765 20 13.3634 20 10.2C20 7.03031 18.7778 4.92621 17.0892 3.64367C15.4476 2.39676 13.4655 2 12 2ZM12 6C9.79086 6 8 7.79086 8 10C8 12.2091 9.79086 14 12 14C14.2091 14 16 12.2091 16 10C16 7.79086 14.2091 6 12 6Z" fill="black"/>
</svg>
