<svg width="24" height="24" viewBox="0 0 24 24" fill="none" xmlns="http://www.w3.org/2000/svg">
<path fill-rule="evenodd" clip-rule="evenodd" d="M8.13611 5.35922C6.9519 6.29617 6 7.80827 6 10.2C6 12.6047 7.03983 14.7552 8.41135 16.501C9.5943 18.0067 10.9826 19.1567 12.0261 19.8408C13.0542 19.225 14.4235 18.1542 15.593 16.6868C16.9503 14.9835 18 12.7966 18 10.2C18 7.60969 17.0347 6.11379 15.8795 5.23633C14.6774 4.32324 13.1595 4 12 4C10.8828 4 9.35921 4.39149 8.13611 5.35922ZM6.89514 3.79078C8.51579 2.50851 10.4922 2 12 2C13.4655 2 15.4476 2.39676 17.0892 3.64367C18.7778 4.92621 20 7.03031 20 10.2C20 13.3634 18.7164 15.9765 17.157 17.9332C15.6049 19.881 13.7415 21.2289 12.4573 21.8893C12.1547 22.0449 11.7937 22.036 11.4992 21.8656C10.2319 21.1323 8.38199 19.701 6.83865 17.7365C5.29351 15.7698 4 13.1953 4 10.2C4 7.19173 5.2356 5.10383 6.89514 3.79078Z" fill="black"/>
<path fill-rule="evenodd" clip-rule="evenodd" d="M12 8C10.8954 8 10 8.89543 10 10C10 11.1046 10.8954 12 12 12C13.1046 12 14 11.1046 14 10C14 8.89543 13.1046 8 12 8ZM8 10C8 7.79086 9.79086 6 12 6C14.2091 6 16 7.79086 16 10C16 12.2091 14.2091 14 12 14C9.79086 14 8 12.2091 8 10Z" fill="black"/>
</svg>
