<svg width="24" height="24" viewBox="0 0 24 24" fill="none" xmlns="http://www.w3.org/2000/svg">
<path fill-rule="evenodd" clip-rule="evenodd" d="M6.89514 3.79078C8.51579 2.50851 10.4922 2 12 2C13.4655 2 15.4476 2.39676 17.0892 3.64367C18.7778 4.92621 20 7.03031 20 10.2C20 13.3634 18.7164 15.9765 17.157 17.9332C16.1236 19.23 14.9523 20.2609 13.9058 21H16C16.5523 21 17 21.4477 17 22C17 22.5523 16.5523 23 16 23H8C7.44772 23 7 22.5523 7 22C7 21.4477 7.44772 21 8 21H10.1962C9.12735 20.2054 7.90925 19.0992 6.83865 17.7365C5.29351 15.7698 4 13.1953 4 10.2C4 7.19173 5.2356 5.10383 6.89514 3.79078ZM8 10C8 7.79086 9.79086 6 12 6C14.2091 6 16 7.79086 16 10C16 12.2091 14.2091 14 12 14C9.79086 14 8 12.2091 8 10Z" fill="black"/>
</svg>
