<svg width="24" height="24" viewBox="0 0 24 24" fill="none" xmlns="http://www.w3.org/2000/svg">
<path fill-rule="evenodd" clip-rule="evenodd" d="M9.29289 7.29289C9.68342 6.90237 10.3166 6.90237 10.7071 7.29289L14.7071 11.2929C15.0976 11.6834 15.0976 12.3166 14.7071 12.7071L10.7071 16.7071C10.3166 17.0976 9.68342 17.0976 9.29289 16.7071C8.90237 16.3166 8.90237 15.6834 9.29289 15.2929L12.5858 12L9.29289 8.70711C8.90237 8.31658 8.90237 7.68342 9.29289 7.29289Z" fill="black"/>
<path fill-rule="evenodd" clip-rule="evenodd" d="M4 12C4 11.4477 4.44772 11 5 11H13C13.5523 11 14 11.4477 14 12C14 12.5523 13.5523 13 13 13H5C4.44772 13 4 12.5523 4 12Z" fill="black"/>
<path fill-rule="evenodd" clip-rule="evenodd" d="M8 4C6.89543 4 6 4.89543 6 6C6 6.55228 5.55228 7 5 7C4.44772 7 4 6.55228 4 6C4 3.79086 5.79086 2 8 2H15C17.7614 2 20 4.23858 20 7V17C20 19.7614 17.7614 22 15 22H8C5.79086 22 4 20.2091 4 18C4 17.4477 4.44772 17 5 17C5.55228 17 6 17.4477 6 18C6 19.1046 6.89543 20 8 20H15C16.6569 20 18 18.6569 18 17V7C18 5.34315 16.6569 4 15 4H8Z" fill="black"/>
</svg>
