<svg width="24" height="24" viewBox="0 0 24 24" fill="none" xmlns="http://www.w3.org/2000/svg">
<path d="M15 1C14.4477 1 14 1.44772 14 2C14 2.55228 14.4478 3 15.0001 3C15.5524 3 16.0001 2.55228 16.0001 2C16.0001 1.44772 15.5523 1 15 1Z" fill="black"/>
<path d="M17.1591 5.86785C17.32 5.20787 16.637 4.66041 16.0278 4.96101L14.7369 5.59806C14.4919 5.71896 14.2021 5.70647 13.9684 5.56493L12.7322 4.81617C12.1722 4.47702 11.4642 4.91734 11.5207 5.56956L11.6627 7.2064C11.6842 7.45492 11.5886 7.69926 11.4041 7.86716L10.1905 8.97171C9.70162 9.41664 9.93267 10.2289 10.5825 10.3498L11.9773 10.6095C12.2491 10.6601 12.4755 10.8475 12.5761 11.105L13.091 12.4236C13.3367 13.0529 14.2037 13.1131 14.534 12.5237L15.305 11.1481C15.4303 10.9245 15.6552 10.7745 15.9098 10.7447L17.4847 10.5603C18.1254 10.4852 18.4184 9.72167 17.9924 9.23731L16.9721 8.07746C16.7996 7.88136 16.7337 7.6134 16.7955 7.35965L17.1591 5.86785Z" fill="black"/>
<path d="M11.2295 13.6839C11.6073 13.281 11.5869 12.6482 11.1839 12.2705C10.781 11.8927 10.1482 11.9131 9.77047 12.3161L2.27047 20.3161C1.89274 20.719 1.91315 21.3518 2.31606 21.7295C2.71897 22.1073 3.35181 22.0869 3.72954 21.6839L11.2295 13.6839Z" fill="black"/>
<path d="M7 7C7 6.44772 7.44772 6 8 6C8.55228 6 9.0001 6.44772 9.0001 7C9.0001 7.55228 8.55238 8 8.0001 8C7.44782 8 7 7.55228 7 7Z" fill="black"/>
<path d="M20 7C20 6.44772 20.4477 6 21 6C21.5523 6 22.0001 6.44772 22.0001 7C22.0001 7.55228 21.5524 8 21.0001 8C20.4478 8 20 7.55228 20 7Z" fill="black"/>
<path d="M19 12C18.4477 12 18 12.4477 18 13C18 13.5523 18.4478 14 19.0001 14C19.5524 14 20.0001 13.5523 20.0001 13C20.0001 12.4477 19.5523 12 19 12Z" fill="black"/>
</svg>
