<svg width="24" height="24" viewBox="0 0 24 24" fill="none" xmlns="http://www.w3.org/2000/svg">
<path d="M13.75 2C13.75 1.30964 14.3096 0.75 15 0.75C15.6904 0.75 16.2501 1.30964 16.2501 2C16.2501 2.69036 15.6905 3.25 15.0001 3.25C14.3097 3.25 13.75 2.69036 13.75 2Z" fill="black"/>
<path d="M8 5.75C7.30964 5.75 6.75 6.30964 6.75 7C6.75 7.69036 7.30974 8.25 8.0001 8.25C8.69046 8.25 9.2501 7.69036 9.2501 7C9.2501 6.30964 8.69036 5.75 8 5.75Z" fill="black"/>
<path d="M11.4119 13.8549C11.8841 13.3513 11.8586 12.5602 11.3549 12.0881C10.8513 11.6159 10.0602 11.6414 9.58808 12.1451L2.08808 20.1451C1.61592 20.6487 1.64144 21.4398 2.14508 21.9119C2.64872 22.3841 3.43976 22.3586 3.91193 21.8549L11.4119 13.8549Z" fill="black"/>
<path d="M21 5.75C20.3096 5.75 19.75 6.30964 19.75 7C19.75 7.69036 20.3097 8.25 21.0001 8.25C21.6905 8.25 22.2501 7.69036 22.2501 7C22.2501 6.30964 21.6904 5.75 21 5.75Z" fill="black"/>
<path d="M17.75 13C17.75 12.3096 18.3096 11.75 19 11.75C19.6904 11.75 20.2501 12.3096 20.2501 13C20.2501 13.6904 19.6905 14.25 19.0001 14.25C18.3097 14.25 17.75 13.6904 17.75 13Z" fill="black"/>
<path d="M14.1266 5.63872C14.1438 5.64453 14.1612 5.64973 14.1787 5.65433C14.2875 5.68297 14.4012 5.68833 14.5122 5.67009C14.5214 5.66858 14.5306 5.6669 14.5397 5.66506C14.6071 5.65155 14.6732 5.62925 14.7364 5.59809L16.0273 4.96104C16.6365 4.66044 17.3194 5.2079 17.1586 5.86788L16.795 7.35968C16.7738 7.44686 16.7676 7.53572 16.7757 7.62276C16.7759 7.62573 16.7762 7.62869 16.7765 7.63165C16.7772 7.63816 16.778 7.64466 16.7788 7.65115C16.7869 7.71455 16.8027 7.77677 16.8256 7.83644C16.8338 7.85765 16.8429 7.87855 16.8528 7.89905C16.8839 7.96286 16.9236 8.02295 16.9716 8.07749L17.9918 9.23734C18.4179 9.7217 18.1249 10.4853 17.4842 10.5603L15.9093 10.7447C15.8291 10.7541 15.7519 10.7754 15.6798 10.8072C15.6588 10.8164 15.6382 10.8266 15.6181 10.8376C15.5801 10.8584 15.5438 10.8823 15.5097 10.909C15.5012 10.9156 15.4929 10.9224 15.4847 10.9293C15.413 10.9902 15.3517 11.0639 15.3045 11.1481L14.5335 12.5237C14.2032 13.1131 13.3362 13.0529 13.0904 12.4236L12.5755 11.1051C12.5522 11.0454 12.5222 10.9895 12.4864 10.9382C12.4849 10.936 12.4834 10.9339 12.4819 10.9318C12.4774 10.9254 12.4727 10.9192 12.468 10.9129C12.3925 10.8133 12.2945 10.7326 12.1822 10.6776C12.1683 10.6708 12.1542 10.6644 12.1399 10.6584C12.088 10.6366 12.0334 10.6201 11.9768 10.6096L10.582 10.3499C9.93215 10.2289 9.7011 9.41667 10.19 8.97174L11.4036 7.86719C11.479 7.79858 11.5395 7.71722 11.5833 7.62802C11.5904 7.61349 11.5971 7.59874 11.6033 7.58382C11.6083 7.57203 11.6129 7.56012 11.6173 7.54811C11.6237 7.53039 11.6295 7.51245 11.6346 7.49431C11.6609 7.40196 11.6706 7.30452 11.6621 7.20643L11.5202 5.56959C11.4637 4.91737 12.1717 4.47705 12.7317 4.8162L13.9679 5.56496C14.0185 5.59561 14.0718 5.62022 14.1266 5.63872Z" fill="black"/>
</svg>
