<svg width="24" height="24" viewBox="0 0 24 24" fill="none" xmlns="http://www.w3.org/2000/svg">
<path fill-rule="evenodd" clip-rule="evenodd" d="M12 18C12.5523 18 13 18.4477 13 19V21C13 21.5523 12.5523 22 12 22C11.4477 22 11 21.5523 11 21V19C11 18.4477 11.4477 18 12 18Z" fill="black"/>
<path fill-rule="evenodd" clip-rule="evenodd" d="M11.3753 2.21913C11.7405 1.92696 12.2595 1.92696 12.6247 2.21913L22.6247 10.2191C23.056 10.5641 23.1259 11.1934 22.7809 11.6247C22.4359 12.056 21.8066 12.1259 21.3753 11.7809L12 4.28062L2.6247 11.7809C2.19344 12.1259 1.56415 12.056 1.21914 11.6247C0.874128 11.1934 0.944049 10.5641 1.37531 10.2191L11.3753 2.21913Z" fill="black"/>
<path fill-rule="evenodd" clip-rule="evenodd" d="M21 4C20.4477 4 20 4.44772 20 5V15C20 17.7614 17.7614 20 15 20H9.00001C6.23858 20 4.00001 17.7614 4.00001 15V9C4.00001 8.44772 4.44772 8 5.00001 8C5.55229 8 6.00001 8.44772 6.00001 9V15C6.00001 16.6569 7.34315 18 9.00001 18H15C16.6569 18 18 16.6569 18 15V5C18 3.34315 19.3432 2 21 2C21.5523 2 22 2.44772 22 3C22 3.55228 21.5523 4 21 4ZM9.00001 12C9.00001 11.4477 9.44772 11 10 11H14C14.5523 11 15 11.4477 15 12C15 12.5523 14.5523 13 14 13H10C9.44772 13 9.00001 12.5523 9.00001 12Z" fill="black"/>
</svg>
