<svg width="24" height="24" viewBox="0 0 24 24" fill="none" xmlns="http://www.w3.org/2000/svg">
<path fill-rule="evenodd" clip-rule="evenodd" d="M11.6286 0.0715233C11.867 -0.0238411 12.133 -0.0238411 12.3714 0.0715233L21.1142 3.56864C22.2531 4.02423 23 5.12735 23 6.35407V16C23 18.7614 20.7614 21 18 21H6C3.23858 21 1 18.7614 1 16V6.35407C1 5.12735 1.74685 4.02423 2.88583 3.56864L11.6286 0.0715233ZM12 2.07703L3.62861 5.42559C3.24895 5.57745 3 5.94516 3 6.35407V16C3 17.6569 4.34315 19 6 19H18C19.6569 19 21 17.6569 21 16V6.35407C21 5.94516 20.751 5.57745 20.3714 5.42559L12 2.07703Z" fill="black"/>
<path fill-rule="evenodd" clip-rule="evenodd" d="M2.70564 4.89255C3.04113 4.45384 3.66874 4.37016 4.10745 4.70564L12 10.7411L19.8925 4.70564C20.3313 4.37016 20.9589 4.45384 21.2944 4.89255C21.6298 5.33126 21.5462 5.95887 21.1075 6.29436L12.6075 12.7944C12.2489 13.0685 11.7511 13.0685 11.3926 12.7944L2.89255 6.29436C2.45384 5.95887 2.37016 5.33126 2.70564 4.89255Z" fill="black"/>
</svg>
