<svg width="24" height="24" viewBox="0 0 24 24" fill="none" xmlns="http://www.w3.org/2000/svg">
<path fill-rule="evenodd" clip-rule="evenodd" d="M5 12C5 11.4477 5.44772 11 6 11H9C9.55228 11 10 11.4477 10 12C10 12.5523 9.55228 13 9 13H6C5.44772 13 5 12.5523 5 12Z" fill="black"/>
<path fill-rule="evenodd" clip-rule="evenodd" d="M16 1H20C20.5523 1 21 1.44772 21 2C21 2.55228 20.5523 3 20 3H18V9C18 9.55228 17.5523 10 17 10C16.4477 10 16 9.55228 16 9V1Z" fill="black"/>
<path fill-rule="evenodd" clip-rule="evenodd" d="M15 18.5C15.5523 18.5 16 18.9477 16 19.5V21C16 21.5523 15.5523 22 15 22C14.4477 22 14 21.5523 14 21V19.5C14 18.9477 14.4477 18.5 15 18.5Z" fill="black"/>
<path fill-rule="evenodd" clip-rule="evenodd" d="M7 6C4.79086 6 3 7.79086 3 10V17C3 17.5523 3.44772 18 4 18H20C20.5523 18 21 17.5523 21 17V10C21 7.79086 19.2091 6 17 6H7ZM1 10C1 6.68629 3.68629 4 7 4H17C20.3137 4 23 6.68629 23 10V17C23 18.6569 21.6569 20 20 20H4C2.34315 20 1 18.6569 1 17V10Z" fill="black"/>
<path fill-rule="evenodd" clip-rule="evenodd" d="M6 5C6 4.44772 6.44772 4 7 4C9.72592 4 11.5261 5.1582 12.6115 6.6657C13.6602 8.1222 14 9.83998 14 11V19C14 19.5523 13.5523 20 13 20C12.4477 20 12 19.5523 12 19V11C12 10.16 11.7398 8.8778 10.9885 7.8343C10.2739 6.8418 9.07408 6 7 6C6.44772 6 6 5.55228 6 5Z" fill="black"/>
</svg>
