<svg width="24" height="24" viewBox="0 0 24 24" fill="none" xmlns="http://www.w3.org/2000/svg">
<path fill-rule="evenodd" clip-rule="evenodd" d="M7 2C7 1.44772 6.55228 1 6 1C5.44772 1 5 1.44772 5 2V3H3C2.44772 3 2 3.44772 2 4V14.5C2 15.0523 2.44772 15.5 3 15.5H5V21C5 21.5523 5.44772 22 6 22C6.55228 22 7 21.5523 7 21V19H17V21C17 21.5523 17.4477 22 18 22C18.5523 22 19 21.5523 19 21V15.5H21C21.5523 15.5 22 15.0523 22 14.5V4C22 3.44772 21.5523 3 21 3H19V2C19 1.44772 18.5523 1 18 1C17.4477 1 17 1.44772 17 2V3H7V2ZM10.9135 13.5L9.02461 5H13C13.0001 5.07154 13.0079 5.14418 13.024 5.2169L14.8647 13.5H10.9135ZM16.0246 5L17.9135 13.5H20V5H16.0246ZM6.02403 5.2169C6.00787 5.14418 6.00007 5.07154 6 5H4V13.5H7.86472L6.02403 5.2169ZM17 17V15.5H7V17H17Z" fill="black"/>
</svg>
