<svg width="24" height="24" viewBox="0 0 24 24" fill="none" xmlns="http://www.w3.org/2000/svg">
<path fill-rule="evenodd" clip-rule="evenodd" d="M12 1C10.3432 1 9 2.34314 9 4C9 5.65686 10.3432 7 12 7C9.23858 7 7 9.23858 7 12V16C7 16.5523 7.44771 17 8 17H9V22C9 22.5523 9.44772 23 10 23H14C14.5523 23 15 22.5523 15 22V17H16C16.5523 17 17 16.5523 17 16V12C17 9.23858 14.7614 7 12 7C13.6568 7 15 5.65686 15 4C15 2.34314 13.6568 1 12 1ZM11 4C11 3.44772 11.4477 3 12 3C12.5523 3 13 3.44772 13 4C13 4.55228 12.5523 5 12 5C11.4477 5 11 4.55228 11 4ZM9 12C9 10.3431 10.3431 9 12 9C13.6569 9 15 10.3431 15 12V15H14C13.4477 15 13 15.4477 13 16V21H11V16C11 15.4477 10.5523 15 10 15L9 15V12Z" fill="black"/>
</svg>
