<svg width="24" height="24" viewBox="0 0 24 24" fill="none" xmlns="http://www.w3.org/2000/svg">
<path d="M7.5 5.5C7.5 3.01472 9.51472 1 12 1C14.4853 1 16.5 3.01472 16.5 5.5C16.5 7.98528 14.4853 10 12 10C9.51472 10 7.5 7.98528 7.5 5.5Z" fill="black"/>
<path d="M10.523 20L11.0715 21.3714C11.2234 21.751 11.5911 22 12 22H7C5.34315 22 4 20.6569 4 19V18C4 14.134 7.13401 11 11 11H13C16.866 11 20 14.134 20 18V19C20 20.6569 18.6569 22 17 22H12C12.4089 22 12.7766 21.751 12.9285 21.3714L13.477 20L13.9285 18.8714C14.0032 18.6846 14.0198 18.4795 13.9762 18.2831L13.0953 14.3189L14.2071 13.2071C14.223 13.1912 14.2382 13.1749 14.2528 13.1583C13.8525 13.055 13.4326 13 13 13H11C10.5674 13 10.1475 13.055 9.74716 13.1583C9.76176 13.1749 9.777 13.1912 9.79289 13.2071L10.9047 14.3189L10.0238 18.2831C9.98016 18.4795 9.99679 18.6846 10.0715 18.8714L10.523 20Z" fill="black"/>
</svg>
