<svg width="24" height="24" viewBox="0 0 24 24" fill="none" xmlns="http://www.w3.org/2000/svg">
<path d="M9.84568 7.25202C10.1928 7.07848 10.6023 7 11 7C11.3977 7 11.8072 7.07848 12.1543 7.25202C12.4416 7.39565 13 7.7791 13 8.5C13 9.2209 12.4416 9.60435 12.1543 9.74798C11.8072 9.92152 11.3977 10 11 10C10.6023 10 10.1928 9.92152 9.84568 9.74798C9.55841 9.60435 9 9.2209 9 8.5C9 7.7791 9.55841 7.39565 9.84568 7.25202Z" fill="black"/>
<path fill-rule="evenodd" clip-rule="evenodd" d="M23 13C23 12.4477 22.5523 12 22 12H21V9C21 8.12233 20.5956 7.3615 20.0171 6.75363C19.4435 6.15092 18.6608 5.65364 17.7701 5.25776C15.9861 4.46489 13.5917 4 11 4C8.40829 4 6.01386 4.46489 4.2299 5.25776C3.33918 5.65364 2.55645 6.15092 1.98287 6.75363C1.40438 7.3615 1 8.12233 1 9V15.5C1 16.3142 1.38085 17.0112 1.90929 17.5581C2.43298 18.1001 3.14254 18.5422 3.94176 18.8918C5.54315 19.5923 7.68566 20 10 20H22C22.5523 20 23 19.5523 23 19V13ZM3 9C3 8.7731 3.0993 8.48164 3.43166 8.1324C3.76892 7.77801 4.30422 7.41337 5.04218 7.08538C6.51558 6.43054 8.62114 6 11 6C13.3789 6 15.4844 6.43054 16.9578 7.08538C17.6958 7.41337 18.2311 7.77801 18.5683 8.1324C18.9007 8.48164 19 8.7731 19 9C19 9.2269 18.9007 9.51836 18.5683 9.8676C18.2311 10.222 17.6958 10.5866 16.9578 10.9146C15.4844 11.5695 13.3789 12 11 12C8.62114 12 6.51558 11.5695 5.04218 10.9146C4.30422 10.5866 3.76892 10.222 3.43166 9.8676C3.0993 9.51836 3 9.2269 3 9ZM18 15C18.5523 15 19 15.4477 19 16V18H21V14H10C9.90516 14 9.81341 13.9868 9.72648 13.9621C7.62953 13.8365 5.71747 13.4034 4.2299 12.7422C3.78945 12.5465 3.37541 12.3259 3 12.0801V15.5C3 15.6533 3.06665 15.8776 3.34758 16.1683C3.63327 16.464 4.09496 16.7759 4.74324 17.0594C4.82651 17.0959 4.91213 17.1315 5 17.1663V17C5 16.4477 5.44772 16 6 16C6.55228 16 7 16.4477 7 17V17.7293C7.6207 17.8472 8.29192 17.9306 9 17.9714V16C9 15.4477 9.44771 15 10 15C10.5523 15 11 15.4477 11 16V18H13V17C13 16.4477 13.4477 16 14 16C14.5523 16 15 16.4477 15 17V18H17V16C17 15.4477 17.4477 15 18 15Z" fill="black"/>
</svg>
