<svg width="24" height="24" viewBox="0 0 24 24" fill="none" xmlns="http://www.w3.org/2000/svg">
<path d="M12.0003 6.82001C11.3486 6.82001 10.8203 7.3483 10.8203 8C10.8203 8.6517 11.3486 9.17999 12.0003 9.17999C12.652 9.17999 13.1803 8.6517 13.1803 8C13.1803 7.3483 12.652 6.82001 12.0003 6.82001Z" fill="black"/>
<path fill-rule="evenodd" clip-rule="evenodd" d="M12 1C8.13401 1 5 4.13401 5 8C5 9.90964 5.76469 11.6407 7.00455 12.9036L6.00612 21.8896C5.96414 22.2674 6.14 22.6363 6.45993 22.8416C6.77986 23.0469 7.18853 23.0531 7.5145 22.8575L12 20.1662L16.4855 22.8575C16.8115 23.0531 17.2201 23.0469 17.5401 22.8416C17.86 22.6363 18.0359 22.2674 17.9939 21.8896L16.9954 12.9036C18.2353 11.6407 19 9.90965 19 8C19 4.13401 15.866 1 12 1ZM15.134 14.261C14.1911 14.7338 13.1266 15 12 15C10.8734 15 9.8089 14.7338 8.86605 14.261L8.21685 20.1037L11.4855 18.1425C11.8022 17.9525 12.1978 17.9525 12.5145 18.1425L15.7831 20.1037L15.134 14.261ZM8.82031 8C8.82031 6.24373 10.244 4.82001 12.0003 4.82001C13.7566 4.82001 15.1803 6.24373 15.1803 8C15.1803 9.75627 13.7566 11.18 12.0003 11.18C10.244 11.18 8.82031 9.75627 8.82031 8Z" fill="black"/>
</svg>
