<svg width="24" height="24" viewBox="0 0 24 24" fill="none" xmlns="http://www.w3.org/2000/svg">
<path fill-rule="evenodd" clip-rule="evenodd" d="M8.82031 8C8.82031 6.24373 10.244 4.82001 12.0003 4.82001C13.7566 4.82001 15.1803 6.24373 15.1803 8C15.1803 9.75627 13.7566 11.18 12.0003 11.18C10.244 11.18 8.82031 9.75627 8.82031 8ZM12.0003 6.82001C11.3486 6.82001 10.8203 7.3483 10.8203 8C10.8203 8.6517 11.3486 9.17999 12.0003 9.17999C12.652 9.17999 13.1803 8.6517 13.1803 8C13.1803 7.3483 12.652 6.82001 12.0003 6.82001Z" fill="black"/>
<path fill-rule="evenodd" clip-rule="evenodd" d="M5 8C5 4.13401 8.13401 1 12 1C15.866 1 19 4.13401 19 8C19 9.90964 18.2353 11.6407 16.9955 12.9036L17.9939 21.8896C18.0359 22.2674 17.86 22.6363 17.5401 22.8416C17.2202 23.0469 16.8115 23.0531 16.4855 22.8575L12 20.1662L7.51451 22.8575C7.18855 23.0531 6.77988 23.0469 6.45995 22.8416C6.14002 22.6363 5.96416 22.2674 6.00613 21.8896L7.00457 12.9036C5.76469 11.6407 5 9.90965 5 8ZM12 3C9.23858 3 7 5.23858 7 8C7 10.7614 9.23858 13 12 13C14.7614 13 17 10.7614 17 8C17 5.23858 14.7614 3 12 3ZM8.86607 14.261L8.21687 20.1037L11.4855 18.1425C11.8022 17.9525 12.1978 17.9525 12.5145 18.1425L15.7832 20.1037L15.134 14.261C14.1911 14.7338 13.1266 15 12 15C10.8734 15 9.80892 14.7338 8.86607 14.261Z" fill="black"/>
</svg>
