<svg width="24" height="24" viewBox="0 0 24 24" fill="none" xmlns="http://www.w3.org/2000/svg">
<path d="M12 8C10.8954 8 10 8.89543 10 10C10 11.1046 10.8954 12 12 12C13.1046 12 14 11.1046 14 10C14 8.89543 13.1046 8 12 8Z" fill="black"/>
<path fill-rule="evenodd" clip-rule="evenodd" d="M4 10C4 5.58172 7.58172 2 12 2C16.4183 2 20 5.58172 20 10C20 11.7652 19.4283 13.3968 18.46 14.7199L22 18.3853L18.8997 18.9552L18.3194 22L14.3313 17.655C13.5937 17.8793 12.8109 18 12 18C11.1891 18 10.4063 17.8793 9.66875 17.655L5.68055 22L5.10035 18.9552L2 18.3853L5.54002 14.7199C4.57169 13.3968 4 11.7652 4 10ZM8 10C8 7.79086 9.79086 6 12 6C14.2091 6 16 7.79086 16 10C16 12.2091 14.2091 14 12 14C9.79086 14 8 12.2091 8 10Z" fill="black"/>
</svg>
