<svg width="24" height="24" viewBox="0 0 24 24" fill="none" xmlns="http://www.w3.org/2000/svg">
<path d="M12.0003 14.82C11.3486 14.82 10.8203 15.3483 10.8203 16C10.8203 16.6517 11.3486 17.18 12.0003 17.18C12.652 17.18 13.1803 16.6517 13.1803 16C13.1803 15.3483 12.652 14.82 12.0003 14.82Z" fill="black"/>
<path fill-rule="evenodd" clip-rule="evenodd" d="M5.00001 1C4.67856 1 4.37672 1.15452 4.18877 1.41529C4.00081 1.67606 3.94967 2.01128 4.05132 2.31623L6.98478 11.1166C5.75656 12.3778 5.00001 14.1005 5.00001 16C5.00001 19.866 8.13401 23 12 23C15.866 23 19 19.866 19 16C19 14.1005 18.2435 12.3778 17.0152 11.1166L19.9487 2.31623C20.0503 2.01128 19.9992 1.67606 19.8112 1.41529C19.6233 1.15452 19.3215 1 19 1H5.00001ZM15.3318 9.84226L17.6126 3H14.7778L13.4128 9.14263C14.0937 9.28218 14.7386 9.52061 15.3318 9.84226ZM10.5873 9.14263L9.22223 3H6.38743L8.66819 9.84226C9.2614 9.52061 9.90631 9.28218 10.5873 9.14263ZM8.82032 16C8.82032 14.2437 10.244 12.82 12.0003 12.82C13.7566 12.82 15.1803 14.2437 15.1803 16C15.1803 17.7563 13.7566 19.18 12.0003 19.18C10.244 19.18 8.82032 17.7563 8.82032 16Z" fill="black"/>
</svg>
