<svg width="24" height="24" viewBox="0 0 24 24" fill="none" xmlns="http://www.w3.org/2000/svg">
<path fill-rule="evenodd" clip-rule="evenodd" d="M6 6C6 5.30964 6.55964 4.75 7.25 4.75H20.75C21.4404 4.75 22 5.30964 22 6C22 6.69036 21.4404 7.25 20.75 7.25H7.25C6.55964 7.25 6 6.69036 6 6Z" fill="black"/>
<path fill-rule="evenodd" clip-rule="evenodd" d="M2 12C2 11.3096 2.55964 10.75 3.25 10.75H20.75C21.4404 10.75 22 11.3096 22 12C22 12.6904 21.4404 13.25 20.75 13.25H3.25C2.55964 13.25 2 12.6904 2 12Z" fill="black"/>
<path fill-rule="evenodd" clip-rule="evenodd" d="M10 18C10 17.3096 10.5596 16.75 11.25 16.75H20.75C21.4404 16.75 22 17.3096 22 18C22 18.6904 21.4404 19.25 20.75 19.25H11.25C10.5596 19.25 10 18.6904 10 18Z" fill="black"/>
</svg>
