<svg width="24" height="24" viewBox="0 0 24 24" fill="none" xmlns="http://www.w3.org/2000/svg">
<path d="M23 17C23 17.5523 22.5523 18 22 18H9.00003C8.44775 18 8.00003 17.5523 8.00003 17C8.00003 16.4477 8.44775 16 9.00003 16H22C22.5523 16 23 16.4477 23 17Z" fill="black"/>
<path d="M22 13C22.5523 13 23 12.5523 23 12C23 11.4477 22.5523 11 22 11H9.00003C8.44775 11 8.00003 11.4477 8.00003 12C8.00003 12.5523 8.44775 13 9.00003 13H22Z" fill="black"/>
<path d="M22 8C22.5523 8 23 7.55229 23 7C23 6.44771 22.5523 6 22 6H9.00003C8.44775 6 8.00003 6.44771 8.00003 7C8.00003 7.55229 8.44775 8 9.00003 8H22Z" fill="black"/>
<path d="M4.24076 16.1508C4.60018 16.5701 5.23148 16.6187 5.6508 16.2592C6.07013 15.8998 6.11869 15.2685 5.75927 14.8492L3.31709 12L5.75927 9.15077C6.11869 8.73145 6.07013 8.10015 5.6508 7.74072C5.23148 7.3813 4.60018 7.42986 4.24076 7.84919L1.24076 11.3492C0.919764 11.7237 0.919764 12.2763 1.24076 12.6508L4.24076 16.1508Z" fill="black"/>
</svg>
