<svg width="24" height="24" viewBox="0 0 24 24" fill="none" xmlns="http://www.w3.org/2000/svg">
<path d="M23.25 17C23.25 17.6904 22.6904 18.25 22 18.25H9.00003C8.30967 18.25 7.75003 17.6904 7.75003 17C7.75003 16.3096 8.30967 15.75 9.00003 15.75H22C22.6904 15.75 23.25 16.3096 23.25 17Z" fill="black"/>
<path d="M22 13.25C22.6904 13.25 23.25 12.6904 23.25 12C23.25 11.3096 22.6904 10.75 22 10.75H9.00003C8.30967 10.75 7.75003 11.3096 7.75003 12C7.75003 12.6904 8.30967 13.25 9.00003 13.25H22Z" fill="black"/>
<path d="M22 8.25C22.6904 8.25 23.25 7.69036 23.25 7C23.25 6.30964 22.6904 5.75 22 5.75H9.00003C8.30967 5.75 7.75003 6.30964 7.75003 7C7.75003 7.69036 8.30967 8.25 9.00003 8.25H22Z" fill="black"/>
<path d="M4.05094 16.3135C4.50022 16.8376 5.28934 16.8983 5.8135 16.449C6.33765 15.9998 6.39836 15.2106 5.94908 14.6865L3.64635 12L5.94908 9.31347C6.39836 8.78931 6.33765 8.00018 5.8135 7.55091C5.28934 7.10163 4.50022 7.16233 4.05094 7.68649L1.05094 11.1865C0.649698 11.6546 0.649698 12.3454 1.05094 12.8135L4.05094 16.3135Z" fill="black"/>
</svg>
