<svg width="24" height="24" viewBox="0 0 24 24" fill="none" xmlns="http://www.w3.org/2000/svg">
<path fill-rule="evenodd" clip-rule="evenodd" d="M4 6C4 5.30964 4.55964 4.75 5.25 4.75H18.75C19.4404 4.75 20 5.30964 20 6C20 6.69036 19.4404 7.25 18.75 7.25H5.25C4.55964 7.25 4 6.69036 4 6Z" fill="black"/>
<path fill-rule="evenodd" clip-rule="evenodd" d="M2 12C2 11.3096 2.55964 10.75 3.25 10.75H20.75C21.4404 10.75 22 11.3096 22 12C22 12.6904 21.4404 13.25 20.75 13.25H3.25C2.55964 13.25 2 12.6904 2 12Z" fill="black"/>
<path fill-rule="evenodd" clip-rule="evenodd" d="M6 18C6 17.3096 6.55964 16.75 7.25 16.75H16.75C17.4404 16.75 18 17.3096 18 18C18 18.6904 17.4404 19.25 16.75 19.25H7.25C6.55964 19.25 6 18.6904 6 18Z" fill="black"/>
</svg>
