<svg width="24" height="24" viewBox="0 0 24 24" fill="none" xmlns="http://www.w3.org/2000/svg">
<path d="M16.7832 9.14844C17.1621 8.86088 17.6574 9.31435 17.4043 9.7168L14.7598 13.9111C14.3392 14.5784 13.4386 14.7447 12.8076 14.2715L10.7051 12.6943C10.5122 12.5498 10.2467 12.5505 10.0547 12.6963L7.21484 14.8516C6.83587 15.1391 6.34123 14.6857 6.59473 14.2832L9.23828 10.0889C9.65877 9.42167 10.5594 9.25547 11.1904 9.72852L13.293 11.3057C13.4859 11.4504 13.7522 11.4495 13.9443 11.3037L16.7832 9.14844Z" fill="black"/>
<path fill-rule="evenodd" clip-rule="evenodd" d="M12 2C17.5858 2 22 6.12616 22 11.7305C21.9998 17.3345 17.5856 21.46 12 21.46C11.0371 21.46 10.108 21.3361 9.22852 21.1035L7.53125 21.8525C6.41505 22.3451 5.15567 21.5516 5.11816 20.332L5.07129 18.8496C3.16151 17.0973 2.00013 14.594 2 11.7305C2 6.12616 6.41422 2 12 2ZM12 4C7.44584 4 4 7.3023 4 11.7305C4.00012 13.9235 4.83887 15.8149 6.21191 17.1768L6.49316 17.4414C6.79364 17.7104 6.99675 18.0809 7.05273 18.4912L7.06738 18.6699L7.10352 19.8545L8.50977 19.2344C8.82691 19.0945 9.17838 19.0546 9.5166 19.1172L9.66016 19.1494L9.9375 19.2207C10.5901 19.3765 11.2805 19.46 12 19.46C16.554 19.46 19.9998 16.1584 20 11.7305C20 7.3023 16.5542 4 12 4Z" fill="black"/>
</svg>
