<svg width="24" height="24" viewBox="0 0 24 24" fill="none" xmlns="http://www.w3.org/2000/svg">
<path fill-rule="evenodd" clip-rule="evenodd" d="M4 8C4 7.44772 4.44772 7 5 7H15C15.5523 7 16 7.44772 16 8V15C16 15.5523 15.5523 16 15 16H5C4.44772 16 4 15.5523 4 15V8ZM6 9V14H14V9H6Z" fill="black"/>
<path d="M18 15C18 15.5523 18.4477 16 19 16C19.5523 16 20 15.5522 20 14.9999C20 14.4476 19.5523 13.9999 19 13.9999C18.4477 13.9999 18 14.4477 18 15Z" fill="black"/>
<path d="M19 13C18.4477 13 18 12.5523 18 12C18 11.4477 18.4477 10.9999 19 10.9999C19.5523 10.9999 20 11.4476 20 11.9999C20 12.5522 19.5523 13 19 13Z" fill="black"/>
<path d="M18 9C18 9.55228 18.4477 10 19 10C19.5523 10 20 9.55228 20 9V8C20 7.44772 19.5523 7 19 7C18.4477 7 18 7.44772 18 8V9Z" fill="black"/>
<path fill-rule="evenodd" clip-rule="evenodd" d="M0 7C0 4.79086 1.79086 3 4 3H20C22.2091 3 24 4.79086 24 7V16C24 17.8666 22.7215 19.4346 20.9924 19.8759C20.9974 19.9166 21 19.958 21 20C21 20.5523 20.5523 21 20 21H18C17.4477 21 17 20.5523 17 20H7C7 20.5523 6.55228 21 6 21H4C3.44772 21 3 20.5523 3 20C3 19.958 3.00259 19.9166 3.00763 19.8759C1.27853 19.4346 0 17.8666 0 16V7ZM4 5C2.89543 5 2 5.89543 2 7V16C2 17.1046 2.89543 18 4 18H20C21.1046 18 22 17.1046 22 16V7C22 5.89543 21.1046 5 20 5H4Z" fill="black"/>
</svg>
