<svg width="24" height="24" viewBox="0 0 24 24" fill="none" xmlns="http://www.w3.org/2000/svg">
<path fill-rule="evenodd" clip-rule="evenodd" d="M8.00026 3C8.00026 1.89543 8.89569 1 10.0003 1H14.0003C15.1048 1 16.0003 1.89543 16.0003 3V4C16.0003 4.58229 15.7514 5.10646 15.3543 5.47197L16.8391 8.44151C17.527 9.81275 17.9165 11.3165 17.9882 12.8442C18.0011 12.9254 18.0037 13.0064 17.9968 13.0858C17.9991 13.1771 18.0003 13.2685 18.0003 13.36V19C18.0003 20.6569 16.6571 22 15.0003 22H9.00026C7.34341 22 6.00026 20.6569 6.00026 19V16.0225C5.99991 16.0072 5.99991 15.992 6.00026 15.9768V13.36C6.00026 11.655 6.39626 9.97193 7.16083 8.4428L8.64625 5.47197C8.2491 5.10646 8.00026 4.58229 8.00026 4V3ZM8.00026 16.744L16.0003 14.344V13.36C16.0003 12.9968 15.9783 12.6346 15.9348 12.2756L8.00026 14.656V16.744ZM14.0003 4H10.0003V3H14.0003V4Z" fill="black"/>
</svg>
