<svg width="24" height="24" viewBox="0 0 24 24" fill="none" xmlns="http://www.w3.org/2000/svg">
<path fill-rule="evenodd" clip-rule="evenodd" d="M8 3C8 1.89543 8.89543 1 10 1H14C15.1046 1 16 1.89543 16 3V4C16 4.58229 15.7512 5.10646 15.354 5.47197L16.8388 8.44151C17.5264 9.81206 17.9158 11.315 17.9878 12.8419C18.0012 12.9246 18.0038 13.0073 17.9966 13.0881C17.9989 13.1787 18 13.2693 18 13.36V19C18 20.6569 16.6569 22 15 22H9C7.34315 22 6 20.6569 6 19V13.36C6 11.655 6.396 9.97193 7.16057 8.4428L8.64598 5.47197C8.24884 5.10646 8 4.58229 8 4V3ZM16 14.3441L8 16.7441V19C8 19.5523 8.44772 20 9 20H15C15.5523 20 16 19.5523 16 19V14.3441ZM15.9346 12.2757L8 14.6561V13.36C8 11.9649 8.32398 10.5881 8.94942 9.33723L10.618 6H13.382L15.0512 9.33852C15.5132 10.2592 15.8109 11.2548 15.9346 12.2757ZM14 4H10V3H14V4Z" fill="black"/>
</svg>
