<svg width="24" height="24" viewBox="0 0 24 24" fill="none" xmlns="http://www.w3.org/2000/svg">
<path d="M6 12C6 11.4477 5.55228 11 5 11C4.44772 11 4 11.4478 4 12.0001C4 12.5524 4.44772 13.0001 5 13.0001C5.55228 13.0001 6 12.5523 6 12Z" fill="black"/>
<path fill-rule="evenodd" clip-rule="evenodd" d="M23 8C23 6.34315 21.6569 5 20 5L4 5C2.34315 5 1 6.34315 1 8L1 16C0.999999 17.6569 2.34315 19 4 19L20 19C21.6569 19 23 17.6569 23 16L23 8ZM20 7C20.5523 7 21 7.44772 21 8L21 16C21 16.5523 20.5523 17 20 17L4 17C3.44772 17 3 16.5523 3 16L3 8C3 7.44771 3.44772 7 4 7L20 7Z" fill="black"/>
</svg>
