<svg width="24" height="24" viewBox="0 0 24 24" fill="none" xmlns="http://www.w3.org/2000/svg">
<path d="M5 2C3.34315 2 2 3.34315 2 5V8C2 9.65685 3.34315 11 5 11H8C9.65685 11 11 9.65685 11 8V5C11 3.34315 9.65685 2 8 2H5Z" fill="black"/>
<path d="M17.5 13C18.0523 13 18.5 13.4477 18.5 14V16.5H21C21.5523 16.5 22 16.9477 22 17.5C22 18.0523 21.5523 18.5 21 18.5H18.5V21C18.5 21.5523 18.0523 22 17.5 22C16.9477 22 16.5 21.5523 16.5 21V18.5H14C13.4477 18.5 13 18.0523 13 17.5C13 16.9477 13.4477 16.5 14 16.5H16.5V14C16.5 13.4477 16.9477 13 17.5 13Z" fill="black"/>
<path d="M5 13C3.34315 13 2 14.3431 2 16V19C2 20.6569 3.34315 22 5 22H8C9.65685 22 11 20.6569 11 19V16C11 14.3431 9.65685 13 8 13H5Z" fill="black"/>
<path d="M16 2C14.3431 2 13 3.34315 13 5V8C13 9.65685 14.3431 11 16 11H19C20.6569 11 22 9.65685 22 8V5C22 3.34315 20.6569 2 19 2H16Z" fill="black"/>
</svg>
