<svg width="24" height="24" viewBox="0 0 24 24" fill="none" xmlns="http://www.w3.org/2000/svg">
<path d="M10 6.34141C7.66962 7.16508 6 9.38756 6 12V19C6 20.6569 7.34315 22 9 22H15C16.6569 22 18 20.6569 18 19V12C18 9.38756 16.3304 7.16508 14 6.34141V4H16.0001C16.5524 4 17.0001 3.55228 17.0001 3C17.0001 2.44772 16.5524 2 16.0001 2H13.7324C13.3866 1.4022 12.7403 1 12 1C11.2597 1 10.6134 1.4022 10.2676 2H8.00011C7.80268 2 7.60967 2.05844 7.44541 2.16795L4.44541 4.16795C3.98588 4.4743 3.8617 5.09517 4.16806 5.5547C4.47441 6.01423 5.09528 6.1384 5.55481 5.83205L8.30288 4H10V6.34141Z" fill="black"/>
<path d="M3.5 7C3.16043 7 2.90824 7.14992 2.76046 7.27256C2.61564 7.39275 2.51815 7.52832 2.45649 7.62724C2.33265 7.82595 2.24878 8.04835 2.1925 8.22691C2.08148 8.57915 2 9.01677 2 9.33252C2 9.71153 2.1132 10.0941 2.3461 10.4048C2.57969 10.7164 2.97776 11 3.5 11C4.02519 11 4.42285 10.7129 4.65465 10.4029C4.88621 10.0932 5 9.71139 5 9.33252C5 9.01778 4.91842 8.58016 4.8076 8.22815C4.75138 8.04958 4.66761 7.82712 4.54399 7.62836C4.48246 7.52945 4.38512 7.39376 4.24042 7.2734C4.09285 7.15064 3.84037 7 3.5 7Z" fill="black"/>
</svg>
