<svg width="24" height="24" viewBox="0 0 24 24" fill="none" xmlns="http://www.w3.org/2000/svg">
<path fill-rule="evenodd" clip-rule="evenodd" d="M12 7.98465C9.79086 7.98465 8 9.77009 8 11.9725C8 14.175 9.79086 15.9604 12 15.9604C14.2091 15.9604 16 14.175 16 11.9725C16 9.77009 14.2091 7.98465 12 7.98465ZM10 11.9725C10 10.8713 10.8954 9.9786 12 9.9786C13.1046 9.9786 14 10.8713 14 11.9725C14 13.0738 13.1046 13.9665 12 13.9665C10.8954 13.9665 10 13.0738 10 11.9725Z" fill="black"/>
<path d="M17 11.9725C17 11.4219 17.4477 10.9756 18 10.9756C18.5523 10.9756 19.0001 11.4219 19.0001 11.9725C19.0001 12.5232 18.5524 12.9695 18.0001 12.9695C17.4478 12.9695 17 12.5232 17 11.9725Z" fill="black"/>
<path d="M6 10.9756C5.44772 10.9756 5 11.4219 5 11.9725C5 12.5232 5.44782 12.9695 6.0001 12.9695C6.55238 12.9695 7.0001 12.5232 7.0001 11.9725C7.0001 11.4219 6.55228 10.9756 6 10.9756Z" fill="black"/>
<path fill-rule="evenodd" clip-rule="evenodd" d="M19.7524 3.40586C17.2887 2.7918 14.7113 2.7918 12.2476 3.40586C10.7215 3.78622 9.138 3.88155 7.57713 3.68703L2.12403 3.00746C1.83942 2.97199 1.55323 3.06007 1.3382 3.24932C1.12317 3.43857 1 3.71077 1 3.99673V18.9514C1 19.4542 1.37554 19.8783 1.87597 19.9406L7.33472 20.6209C9.15581 20.8479 11.0047 20.6653 12.7458 20.0867C14.8581 19.3848 17.1419 19.3848 19.2542 20.0867L21.6838 20.8941C21.9887 20.9955 22.3239 20.9445 22.5847 20.7571C22.8455 20.5697 23 20.2688 23 19.9483V4.99371C23 4.53623 22.6877 4.13746 22.2425 4.0265L19.7524 3.40586ZM12.7326 5.34028C14.8779 4.80559 17.1221 4.80559 19.2674 5.34028L21 5.77212V18.5651L19.8866 18.1951C17.3638 17.3567 14.6362 17.3567 12.1134 18.1951C10.6556 18.6796 9.10754 18.8324 7.58279 18.6424L3 18.0712V5.12609L7.32906 5.66559C9.13495 5.89064 10.967 5.78034 12.7326 5.34028Z" fill="black"/>
</svg>
