<svg width="24" height="24" viewBox="0 0 24 24" fill="none" xmlns="http://www.w3.org/2000/svg">
<path d="M13 7C13 6.44772 12.5523 6 12 6C11.4477 6 11 6.44772 11 7V7.41544C9.8609 7.803 9 8.83524 9 10.125C9 11.7726 10.4049 13 12 13C12.6141 13 13 13.4516 13 13.875C13 14.2984 12.6141 14.75 12 14.75C11.5261 14.75 11.1706 14.4683 11.0495 14.1472C10.8547 13.6304 10.2778 13.3695 9.76103 13.5643C9.24425 13.7591 8.98326 14.336 9.1781 14.8528C9.48871 15.6767 10.1669 16.3038 11 16.586V17C11 17.5523 11.4477 18 12 18C12.5523 18 13 17.5523 13 17V16.5846C14.1391 16.197 15 15.1648 15 13.875C15 12.2274 13.5951 11 12 11C11.3859 11 11 10.5484 11 10.125C11 9.70156 11.3859 9.25 12 9.25C12.4739 9.25 12.8294 9.53167 12.9505 9.85277C13.1453 10.3696 13.7222 10.6305 14.239 10.4357C14.7557 10.2409 15.0167 9.664 14.8219 9.14723C14.5113 8.32335 13.8331 7.69616 13 7.41402V7Z" fill="black"/>
<path fill-rule="evenodd" clip-rule="evenodd" d="M9 2C5.13401 2 2 5.13401 2 9V15C2 18.866 5.13401 22 9 22H15C18.866 22 22 18.866 22 15V9C22 5.13401 18.866 2 15 2H9ZM4 9C4 6.23858 6.23858 4 9 4H15C17.7614 4 20 6.23858 20 9V15C20 17.7614 17.7614 20 15 20H9C6.23858 20 4 17.7614 4 15V9Z" fill="black"/>
</svg>
