<svg width="24" height="24" viewBox="0 0 24 24" fill="none" xmlns="http://www.w3.org/2000/svg">
<path d="M12 11C12 10.4477 12.4477 10 13 10C13.5523 10 14 10.4477 14 11C14 11.5523 13.5523 12 13 12C12.4477 12 12 11.5523 12 11Z" fill="black"/>
<path fill-rule="evenodd" clip-rule="evenodd" d="M2 4C2 2.34315 3.34315 1 5 1H19C20.6569 1 22 2.34315 22 4V18C22 19.6569 20.6569 21 19 21C19 21.5523 18.5523 22 18 22H17C16.4477 22 16 21.5523 16 21H8C8 21.5523 7.55228 22 7 22H6C5.44772 22 5 21.5523 5 21C3.34315 21 2 19.6569 2 18V4ZM5 9C5 9.55229 5.44772 10 6 10C6.55228 10 7 9.55229 7 9V7C7 6.44772 6.55228 6 6 6C5.44772 6 5 6.44772 5 7V9ZM13 8C11.3431 8 10 9.34315 10 11C10 12.6569 11.3431 14 13 14C14.6569 14 16 12.6569 16 11C16 9.34315 14.6569 8 13 8Z" fill="black"/>
</svg>
