<svg width="24" height="24" viewBox="0 0 24 24" fill="none" xmlns="http://www.w3.org/2000/svg">
<path d="M13 9C13 8.44772 12.5523 8 12 8C11.4477 8 11 8.44772 11 9V9.28192C9.90187 9.6321 9 10.5472 9 11.8125C9 13.4493 10.5091 14.5 12 14.5C12.7182 14.5 13 14.9603 13 15.1875C13 15.4147 12.7182 15.875 12 15.875C11.4637 15.875 11.1301 15.588 11.0361 15.3636C10.8228 14.8542 10.2368 14.6143 9.72743 14.8277C9.21804 15.041 8.97807 15.627 9.19146 16.1364C9.51714 16.9138 10.1976 17.4689 11 17.7217V18C11 18.5523 11.4477 19 12 19C12.5523 19 13 18.5523 13 18V17.7181C14.0981 17.3679 15 16.4528 15 15.1875C15 13.5507 13.4909 12.5 12 12.5C11.2818 12.5 11 12.0397 11 11.8125C11 11.5853 11.2818 11.125 12 11.125C12.5363 11.125 12.8699 11.412 12.9639 11.6364C13.1772 12.1458 13.7632 12.3857 14.2726 12.1723C14.782 11.959 15.0219 11.373 14.8085 10.8636C14.4829 10.0862 13.8024 9.53113 13 9.27827V9Z" fill="black"/>
<path fill-rule="evenodd" clip-rule="evenodd" d="M5 3C5.55228 3 6 3.44772 6 4V5H7V4C7 2.34315 8.34315 1 10 1H14C15.6569 1 17 2.34315 17 4V5H18V4C18 3.44772 18.4477 3 19 3C19.5523 3 20 3.44772 20 4V5C21.6569 5 23 6.34315 23 8V19C23 20.6569 21.6569 22 20 22H4C2.34315 22 1 20.6569 1 19V8C1 6.34315 2.34315 5 4 5V4C4 3.44772 4.44772 3 5 3ZM3 8C3 7.44772 3.44772 7 4 7H20C20.5523 7 21 7.44772 21 8V19C21 19.5523 20.5523 20 20 20H4C3.44772 20 3 19.5523 3 19V8ZM14 3C14.5523 3 15 3.44772 15 4V5H9V4C9 3.44772 9.44772 3 10 3H14Z" fill="black"/>
</svg>
