<svg width="24" height="24" viewBox="0 0 24 24" fill="none" xmlns="http://www.w3.org/2000/svg">
<path fill-rule="evenodd" clip-rule="evenodd" d="M2 12C2 6.47715 6.47715 2 12 2C17.5228 2 22 6.47715 22 12C22 17.5228 17.5228 22 12 22C6.47715 22 2 17.5228 2 12ZM12 9C12 7.89543 12.8954 7 14 7C15.1046 7 16 7.89543 16 9C16 10.1046 15.1046 11 14 11C12.8954 11 12 10.1046 12 9ZM10 8C10 7.44772 9.55228 7 9 7C8.44772 7 8 7.44782 8 8.0001C8 8.55238 8.44772 9.0001 9 9.0001C9.55228 9.0001 10 8.55228 10 8ZM15 15C15.5523 15 16 15.4477 16 16C16 16.5523 15.5523 17.0001 15 17.0001C14.4477 17.0001 14 16.5524 14 16.0001C14 15.4478 14.4477 15 15 15Z" fill="black"/>
</svg>
