<svg width="24" height="24" viewBox="0 0 24 24" fill="none" xmlns="http://www.w3.org/2000/svg">
<path fill-rule="evenodd" clip-rule="evenodd" d="M12 13C10.3431 13 9 14.3431 9 16V19V21C6.23858 21 4 18.7614 4 16C4 12.8576 6.07068 10.1987 8.92202 9.31359C8.73522 9.02103 8.58805 8.69825 8.48903 8.35167L7.81713 6H5C4.44772 6 4 5.55228 4 5C4 4.44772 4.44772 4 5 4H7.82161C8.22813 2.85739 9.31527 2 10.6515 2H13.3485C14.6847 2 15.7719 2.85739 16.1784 4H19C19.5523 4 20 4.44772 20 5C20 5.55228 19.5523 6 19 6H16.1829L15.511 8.35167C15.4119 8.69825 15.2648 9.02103 15.078 9.31359C17.9293 10.1987 20 12.8576 20 16C20 18.7614 17.7614 21 15 21V19V16C15 14.3431 13.6569 13 12 13ZM12 5C11.4477 5 11 5.44772 11 6C11 6.55228 11.4478 7 12.0001 7C12.5524 7 13.0001 6.55228 13.0001 6C13.0001 5.44772 12.5523 5 12 5Z" fill="black"/>
<path d="M12 14C13.1046 14 14 14.8954 14 16V19V21C14 22.1046 13.1046 23 12 23C10.8954 23 10 22.1046 10 21V19L10 16C10 14.8954 10.8954 14 12 14Z" fill="black"/>
</svg>
