<svg width="24" height="24" viewBox="0 0 24 24" fill="none" xmlns="http://www.w3.org/2000/svg">
<path fill-rule="evenodd" clip-rule="evenodd" d="M4.75 9C4.75 4.99593 7.99594 1.75 12 1.75C16.0041 1.75 19.25 4.99594 19.25 9V15C19.25 19.0041 16.0041 22.25 12 22.25C7.99594 22.25 4.75 19.0041 4.75 15V9ZM7.25647 8.75C7.36432 6.66996 8.81028 4.9439 10.75 4.41619V8.75H7.25647ZM12 19.75C14.6234 19.75 16.75 17.6234 16.75 15V11.25H7.25V15C7.25 17.6234 9.37665 19.75 12 19.75ZM16.7435 8.75C16.6357 6.66996 15.1897 4.9439 13.25 4.41619V8.75H16.7435Z" fill="black"/>
</svg>
