<svg width="24" height="24" viewBox="0 0 24 24" fill="none" xmlns="http://www.w3.org/2000/svg">
<path fill-rule="evenodd" clip-rule="evenodd" d="M13.5 12C13.5 11.4477 13.9477 11 14.5 11H21C21.5523 11 22 11.4477 22 12C22 12.5523 21.5523 13 21 13H14.5C13.9477 13 13.5 12.5523 13.5 12Z" fill="black"/>
<path fill-rule="evenodd" clip-rule="evenodd" d="M9 6C9.55228 6 10 6.44772 10 7V17C10 17.5523 9.55228 18 9 18C8.44772 18 8 17.5523 8 17V7C8 6.44772 8.44772 6 9 6Z" fill="black"/>
<path fill-rule="evenodd" clip-rule="evenodd" d="M16.7071 8.29289C17.0976 8.68342 17.0976 9.31658 16.7071 9.70711L14.4142 12L16.7071 14.2929C17.0976 14.6834 17.0976 15.3166 16.7071 15.7071C16.3166 16.0976 15.6834 16.0976 15.2929 15.7071L12.2929 12.7071C11.9024 12.3166 11.9024 11.6834 12.2929 11.2929L15.2929 8.29289C15.6834 7.90237 16.3166 7.90237 16.7071 8.29289Z" fill="black"/>
<path fill-rule="evenodd" clip-rule="evenodd" d="M2 7C2 4.23858 4.23858 2 7 2H17C19.7614 2 22 4.23858 22 7V8C22 8.55228 21.5523 9 21 9C20.4477 9 20 8.55228 20 8V7C20 5.34315 18.6569 4 17 4H7C5.34315 4 4 5.34315 4 7V17C4 18.6569 5.34315 20 7 20H17C18.6569 20 20 18.6569 20 17V16C20 15.4477 20.4477 15 21 15C21.5523 15 22 15.4477 22 16V17C22 19.7614 19.7614 22 17 22H7C4.23858 22 2 19.7614 2 17V7Z" fill="black"/>
</svg>
