<svg width="24" height="24" viewBox="0 0 24 24" fill="none" xmlns="http://www.w3.org/2000/svg">
<path fill-rule="evenodd" clip-rule="evenodd" d="M5 0C2.79086 0 1 1.79086 1 4C1 6.20914 2.79086 8 5 8C3.34315 8 2 9.34315 2 11V19C2 20.6569 3.34315 22 5 22H16C17.6569 22 19 20.6569 19 19V18.618L21.5528 19.8944C21.8628 20.0494 22.2309 20.0329 22.5257 19.8507C22.8205 19.6684 23 19.3466 23 19V11C23 10.6534 22.8205 10.3316 22.5257 10.1494C22.2309 9.96714 21.8628 9.95058 21.5528 10.1056L19 11.382V11C19 9.34315 17.6569 8 16 8H14C16.2091 8 18 6.20914 18 4C18 1.79086 16.2091 0 14 0C11.7909 0 10 1.79086 10 4C10 6.20914 11.7909 8 14 8H5C7.20914 8 9 6.20914 9 4C9 1.79086 7.20914 0 5 0ZM3 4C3 2.89543 3.89543 2 5 2C6.10457 2 7 2.89543 7 4C7 5.10457 6.10457 6 5 6C3.89543 6 3 5.10457 3 4ZM19 13.618L21 12.618V17.382L19 16.382V13.618ZM12 4C12 2.89543 12.8954 2 14 2C15.1046 2 16 2.89543 16 4C16 5.10457 15.1046 6 14 6C12.8954 6 12 5.10457 12 4ZM7 12C6.44772 12 6 12.4477 6 13C6 13.5523 6.44772 14 7 14H9C9.55228 14 10 13.5523 10 13C10 12.4477 9.55228 12 9 12H7ZM12 13C12 12.4477 12.4477 12 13 12C13.5523 12 14.0001 12.4477 14.0001 13C14.0001 13.5523 13.5524 14 13.0001 14C12.4478 14 12 13.5523 12 13Z" fill="black"/>
</svg>
