<svg width="24" height="24" viewBox="0 0 24 24" fill="none" xmlns="http://www.w3.org/2000/svg">
<path fill-rule="evenodd" clip-rule="evenodd" d="M11 6C10.4477 6 10 6.44772 10 7V12.1707C9.68722 12.0602 9.35064 12 9 12C7.34315 12 6 13.3431 6 15C6 16.6569 7.34315 18 9 18C10.6569 18 12 16.6569 12 15V11H15C16.6569 11 18 9.65685 18 8V7C18 6.44772 17.5523 6 17 6H11ZM16 8C16 8.55228 15.5523 9 15 9H12V8H16ZM10 15C10 14.4477 9.55229 14 9 14C8.44772 14 8 14.4477 8 15C8 15.5523 8.44772 16 9 16C9.55229 16 10 15.5523 10 15Z" fill="black"/>
<path fill-rule="evenodd" clip-rule="evenodd" d="M7 2C4.23858 2 2 4.23858 2 7V17C2 19.7614 4.23858 22 7 22H17C19.7614 22 22 19.7614 22 17V7C22 4.23858 19.7614 2 17 2H7ZM4 7C4 5.34315 5.34315 4 7 4H17C18.6569 4 20 5.34315 20 7V17C20 18.6569 18.6569 20 17 20H7C5.34315 20 4 18.6569 4 17V7Z" fill="black"/>
</svg>
