<svg width="24" height="24" viewBox="0 0 24 24" fill="none" xmlns="http://www.w3.org/2000/svg">
<path fill-rule="evenodd" clip-rule="evenodd" d="M6.0004 15.9992C4.89561 15.9992 4 16.8948 4 17.9996C4 19.1044 4.89561 20 6.0004 20C7.10519 20 8.0008 19.1044 8.0008 17.9996C8.0008 16.8948 7.10519 15.9992 6.0004 15.9992ZM2 17.9996C2 15.7903 3.79104 13.9992 6.0004 13.9992C8.20976 13.9992 10.0008 15.7903 10.0008 17.9996C10.0008 20.209 8.20976 22 6.0004 22C3.79104 22 2 20.209 2 17.9996Z" fill="black"/>
<path fill-rule="evenodd" clip-rule="evenodd" d="M18.0024 13.9988C16.8976 13.9988 16.002 14.8944 16.002 15.9992C16.002 17.104 16.8976 17.9996 18.0024 17.9996C19.1071 17.9996 20.0028 17.104 20.0028 15.9992C20.0028 14.8944 19.1071 13.9988 18.0024 13.9988ZM14.002 15.9992C14.002 13.7898 15.793 11.9988 18.0024 11.9988C20.2117 11.9988 22.0028 13.7898 22.0028 15.9992C22.0028 18.2086 20.2117 19.9996 18.0024 19.9996C15.793 19.9996 14.002 18.2086 14.002 15.9992Z" fill="black"/>
<path fill-rule="evenodd" clip-rule="evenodd" d="M21.6393 2.23109C21.8678 2.42108 22 2.70285 22 3.00001V16.0349C22 16.5872 21.5523 17.0349 21 17.0349C20.4477 17.0349 20 16.5872 20 16.0349V4.20267L10 6.05857L10.0008 17.9996C10.0008 18.5519 9.55228 19 9 19C8.44772 19 8.0008 18.5519 8.0008 17.9996L8 5.22708C8 4.74517 8.34371 4.33181 8.81753 4.24387L20.8175 2.0168C21.1097 1.96257 21.4109 2.0411 21.6393 2.23109Z" fill="black"/>
</svg>
