<svg width="24" height="24" viewBox="0 0 24 24" fill="none" xmlns="http://www.w3.org/2000/svg">
<path fill-rule="evenodd" clip-rule="evenodd" d="M2 7C2 4.23858 4.23858 2 7 2H17C19.7614 2 22 4.23858 22 7V17C22 19.7614 19.7614 22 17 22H7C4.23858 22 2 19.7614 2 17V7ZM15 10.5C16.3807 10.5 17.5 9.38071 17.5 8V7C17.5 6.72386 17.2761 6.5 17 6.5H11C10.7239 6.5 10.5 6.72386 10.5 7V12.9998C10.0822 12.686 9.5628 12.5 9 12.5C7.61929 12.5 6.5 13.6193 6.5 15C6.5 16.3807 7.61929 17.5 9 17.5C10.3807 17.5 11.5 16.3807 11.5 15V10.5H15Z" fill="black"/>
</svg>
