<svg width="24" height="24" viewBox="0 0 24 24" fill="none" xmlns="http://www.w3.org/2000/svg">
<path fill-rule="evenodd" clip-rule="evenodd" d="M5 3C2.23858 3 0 5.23858 0 8V16C0 18.7614 2.23858 21 5 21H19C21.7614 21 24 18.7614 24 16V8C24 5.23858 21.7614 3 19 3H14.8293C14.4175 1.83481 13.3062 1 12 1C10.6938 1 9.58254 1.83481 9.17071 3H5ZM11 4C11 3.44772 11.4477 3 12 3C12.5523 3 13 3.44772 13 4C13 4.55228 12.5523 5 12 5C11.4477 5 11 4.55228 11 4ZM12 10C12 9.44771 12.4477 9 13 9H17C17.5523 9 18 9.44771 18 10C18 10.5523 17.5523 11 17 11H13C12.4477 11 12 10.5523 12 10ZM12 14C12 13.4477 12.4477 13 13 13H19C19.5523 13 20 13.4477 20 14C20 14.5523 19.5523 15 19 15H13C12.4477 15 12 14.5523 12 14ZM7 11.5C8.10457 11.5 9 10.6046 9 9.5C9 8.39543 8.10457 7.5 7 7.5C5.89543 7.5 5 8.39543 5 9.5C5 10.6046 5.89543 11.5 7 11.5ZM7.00035 12C5.11121 12 4.33734 13.6522 4.09348 15.0059C3.99556 15.5494 4.44806 16 5.00035 16H9.00035C9.55263 16 10.0051 15.5494 9.90721 15.0059C9.66335 13.6522 8.88948 12 7.00035 12Z" fill="black"/>
</svg>
