<svg width="24" height="24" viewBox="0 0 24 24" fill="none" xmlns="http://www.w3.org/2000/svg">
<path d="M10.7071 7.70711C11.0976 7.31658 11.0976 6.68342 10.7071 6.29289C10.3166 5.90237 9.68342 5.90237 9.29289 6.29289L6.29289 9.29289C5.90237 9.68342 5.90237 10.3166 6.29289 10.7071L9.29289 13.7071C9.68342 14.0976 10.3166 14.0976 10.7071 13.7071C11.0976 13.3166 11.0976 12.6834 10.7071 12.2929L9.41421 11H13.5C14.3284 11 15 11.6716 15 12.5C15 13.3284 14.3284 14 13.5 14H13C12.4477 14 12 14.4477 12 15C12 15.5523 12.4477 16 13 16H13.5C15.433 16 17 14.433 17 12.5C17 10.567 15.433 9 13.5 9H9.41421L10.7071 7.70711Z" fill="black"/>
<path fill-rule="evenodd" clip-rule="evenodd" d="M12 2C6.47715 2 2 6.47715 2 12C2 17.5228 6.47715 22 12 22C17.5228 22 22 17.5228 22 12C22 6.47715 17.5228 2 12 2ZM4 12C4 7.58172 7.58172 4 12 4C16.4183 4 20 7.58172 20 12C20 16.4183 16.4183 20 12 20C7.58172 20 4 16.4183 4 12Z" fill="black"/>
</svg>
