<svg width="24" height="24" viewBox="0 0 24 24" fill="none" xmlns="http://www.w3.org/2000/svg">
<path d="M6.93649 7.35141C7.65922 5.42593 9.62935 4 12.0003 4C14.3664 4 16.3415 5.42637 17.064 7.35141C17.2581 7.86847 17.8346 8.1303 18.3517 7.93622C18.8687 7.74214 19.1306 7.16565 18.9365 6.64859C17.9099 3.91363 15.1678 2 12.0003 2C8.82699 2 6.09045 3.91407 5.06405 6.64859C4.86997 7.16565 5.1318 7.74214 5.64886 7.93622C6.16592 8.1303 6.74241 7.86847 6.93649 7.35141Z" fill="black"/>
<path d="M10.8251 8.5651C11.0389 8.25305 11.4643 8 12.0001 8C12.3204 8 12.6028 8.0905 12.8285 8.23373C12.9713 8.3258 13.0907 8.44284 13.1771 8.56812C13.4909 9.02262 14.1137 9.13671 14.5682 8.82295C15.0227 8.50918 15.1368 7.88638 14.823 7.43188C14.5824 7.08337 14.2688 6.78185 13.9079 6.54998L13.9043 6.54772C13.3605 6.2015 12.7055 6 12.0001 6C10.8456 6 9.78434 6.54539 9.17507 7.4349C8.86298 7.89055 8.97935 8.51293 9.435 8.82503C9.89065 9.13712 10.513 9.02074 10.8251 8.5651Z" fill="black"/>
<path fill-rule="evenodd" clip-rule="evenodd" d="M7 10C4.23858 10 2 12.2386 2 15V17C2 19.7614 4.23858 22 7 22H17C19.7614 22 22 19.7614 22 17V15C22 12.2386 19.7614 10 17 10H7ZM11 16C10.4477 16 10 16.4477 10 17C10 17.5523 10.4477 18 11 18H17C17.5523 18 18 17.5523 18 17C18 16.4477 17.5523 16 17 16H11ZM6 17C6 16.4477 6.44772 16 7 16C7.55228 16 8.0001 16.4477 8.0001 17C8.0001 17.5523 7.55238 18 7.0001 18C6.44782 18 6 17.5523 6 17Z" fill="black"/>
</svg>
