<svg width="24" height="24" viewBox="0 0 24 24" fill="none" xmlns="http://www.w3.org/2000/svg">
<path fill-rule="evenodd" clip-rule="evenodd" d="M9.82717 3.29292C10.1137 3.5795 10.199 4.01072 10.0431 4.38481C9.68251 5.24971 9.48291 6.19956 9.48291 7.19855C9.48291 11.2405 12.7595 14.5171 16.8015 14.5171C17.8005 14.5171 18.7503 14.3175 19.6152 13.957C19.9893 13.801 20.4205 13.8863 20.7071 14.1729C20.9937 14.4595 21.0789 14.8907 20.923 15.2648C19.5197 18.6309 16.197 21.0001 12.3186 21.0001C7.17206 21.0001 3 16.828 3 11.6815C3 7.80304 5.36914 4.48028 8.73528 3.07702C9.10936 2.92107 9.54058 3.00634 9.82717 3.29292ZM7.543 6.13529C5.98519 7.47796 5 9.46529 5 11.6815C5 15.7234 8.27664 19.0001 12.3186 19.0001C14.5347 19.0001 16.5221 18.0149 17.8647 16.4571C17.5156 16.4968 17.1608 16.5171 16.8015 16.5171C11.655 16.5171 7.48291 12.3451 7.48291 7.19855C7.48291 6.8392 7.5033 6.48439 7.543 6.13529Z" fill="black"/>
</svg>
