<svg width="24" height="24" viewBox="0 0 24 24" fill="none" xmlns="http://www.w3.org/2000/svg">
<path fill-rule="evenodd" clip-rule="evenodd" d="M11.5427 20.8915L11.6002 20.9166C11.9502 21.0693 12.2589 21.0269 12.493 20.8759C13.3204 20.515 14.3294 20.0799 15.7496 19.8277C17.2225 19.5662 19.1773 19.4963 21.8203 19.9791C22.1121 20.0324 22.4126 19.9534 22.6404 19.7634C22.8683 19.5734 23 19.292 23 18.9954V5.93497C23 5.60021 22.8442 5.36647 22.7551 5.25716C22.6604 5.14083 22.5581 5.0622 22.4908 5.01549C22.3538 4.92042 22.2023 4.84945 22.0769 4.79737C21.8144 4.68835 21.4754 4.58498 21.0995 4.49206C20.3388 4.304 19.3141 4.13113 18.1983 4.04949C17.0839 3.96795 15.8462 3.97494 14.67 4.16374C13.7462 4.31202 12.8121 4.58004 12 5.04284C11.1879 4.58004 10.2538 4.31202 9.33002 4.16374C8.15376 3.97494 6.91608 3.96795 5.80173 4.04949C4.68593 4.13113 3.66123 4.304 2.90052 4.49206C2.52464 4.58498 2.1856 4.68835 1.92308 4.79737C1.79767 4.84945 1.64623 4.92042 1.50923 5.01549C1.44192 5.0622 1.33963 5.14083 1.24487 5.25716C1.15582 5.36647 1 5.60021 1 5.93497C1 5.93497 1 18.6987 1 18.9954C1 19.292 1.13173 19.5734 1.35957 19.7634C1.58742 19.9534 1.88787 20.0324 2.17971 19.9791C4.82266 19.4963 6.77748 19.5662 8.2504 19.8277C9.69106 20.0835 10.7087 20.5276 11.5427 20.8915ZM9.01307 6.13847C8.033 5.98116 6.95823 5.97021 5.94768 6.04415C4.93857 6.11799 4.02592 6.27405 3.38051 6.43361C3.23445 6.46972 3.10752 6.50468 3 6.53719V17.8234C5.2921 17.5124 7.11832 17.5954 8.60005 17.8585C9.54437 18.0262 10.3369 18.2654 11.001 18.5088V6.77553C11.001 6.77553 9.79644 6.2642 9.01307 6.13847ZM14.9869 6.13847C15.967 5.98116 17.0418 5.97021 18.0523 6.04415C19.0614 6.11799 19.9741 6.27405 20.6195 6.43361C20.7655 6.46972 20.8925 6.50468 21 6.53719V17.8234C18.7079 17.5124 16.8817 17.5954 15.4 17.8585C14.4566 18.026 13.6646 18.265 13.001 18.508V6.77442C13.5298 6.47539 14.2045 6.26405 14.9869 6.13847Z" fill="black"/>
<path fill-rule="evenodd" clip-rule="evenodd" d="M4 9C4 8.44772 4.44772 8 5 8H9C9.55228 8 10 8.44772 10 9C10 9.55228 9.55228 10 9 10H5C4.44772 10 4 9.55228 4 9Z" fill="black"/>
<path fill-rule="evenodd" clip-rule="evenodd" d="M20 9C20 8.44772 19.5523 8 19 8H15C14.4477 8 14 8.44772 14 9C14 9.55228 14.4477 10 15 10H19C19.5523 10 20 9.55228 20 9Z" fill="black"/>
<path fill-rule="evenodd" clip-rule="evenodd" d="M4 13C4 12.4477 4.44772 12 5 12H8C8.55228 12 9 12.4477 9 13C9 13.5523 8.55228 14 8 14H5C4.44772 14 4 13.5523 4 13Z" fill="black"/>
<path fill-rule="evenodd" clip-rule="evenodd" d="M20 13C20 12.4477 19.5523 12 19 12H16C15.4477 12 15 12.4477 15 13C15 13.5523 15.4477 14 16 14H19C19.5523 14 20 13.5523 20 13Z" fill="black"/>
</svg>
