<svg width="24" height="24" viewBox="0 0 24 24" fill="none" xmlns="http://www.w3.org/2000/svg">
<path fill-rule="evenodd" clip-rule="evenodd" d="M11.6002 20.9166L11.5427 20.8915C10.7087 20.5276 9.69106 20.0835 8.2504 19.8277C6.77748 19.5662 4.82266 19.4963 2.17971 19.9791C1.88787 20.0324 1.58742 19.9534 1.35957 19.7634C1.13173 19.5734 1 19.292 1 18.9954V5.93497C1 5.60021 1.15582 5.36647 1.24487 5.25716C1.33963 5.14083 1.44192 5.0622 1.50923 5.01549C1.64623 4.92042 1.79767 4.84945 1.92308 4.79737C2.1856 4.68835 2.52464 4.58498 2.90052 4.49206C3.66123 4.304 4.68593 4.13113 5.80173 4.04949C6.91608 3.96795 8.15376 3.97494 9.33002 4.16374C10.2538 4.31202 11.1879 4.58004 12 5.04284C12.8121 4.58004 13.7462 4.31202 14.67 4.16374C15.8462 3.97494 17.0839 3.96795 18.1983 4.04949C19.3141 4.13113 20.3388 4.304 21.0995 4.49206C21.4754 4.58498 21.8144 4.68835 22.0769 4.79737C22.2023 4.84945 22.3538 4.92042 22.4908 5.01549C22.5581 5.0622 22.6604 5.14083 22.7551 5.25716C22.8442 5.36647 23 5.60021 23 5.93497V18.9954C23 19.292 22.8683 19.5734 22.6404 19.7634C22.4126 19.9534 22.1121 20.0324 21.8203 19.9791C19.1773 19.4963 17.2225 19.5662 15.7496 19.8277C14.3294 20.0799 13.3204 20.515 12.493 20.8759C12.2589 21.0269 11.9502 21.0693 11.6002 20.9166ZM5.94768 6.04415C6.95823 5.97021 8.033 5.98116 9.01307 6.13847C9.79644 6.2642 11.001 6.77553 11.001 6.77553V18.5088C10.3369 18.2654 9.54437 18.0262 8.60005 17.8585C7.11832 17.5954 5.2921 17.5124 3 17.8234V6.53719C3.10752 6.50468 3.23445 6.46972 3.38051 6.43361C4.02592 6.27405 4.93857 6.11799 5.94768 6.04415ZM18.0523 6.04415C17.0418 5.97021 15.967 5.98116 14.9869 6.13847C14.2045 6.26405 13.5298 6.47539 13.001 6.77442V18.508C13.6646 18.265 14.4566 18.026 15.4 17.8585C16.8817 17.5954 18.7079 17.5124 21 17.8234V6.53719C20.8925 6.50468 20.7655 6.46972 20.6195 6.43361C19.9741 6.27405 19.0614 6.11799 18.0523 6.04415Z" fill="black"/>
</svg>
