<svg width="24" height="24" viewBox="0 0 24 24" fill="none" xmlns="http://www.w3.org/2000/svg">
<path fill-rule="evenodd" clip-rule="evenodd" d="M3.21693 2.02382C2.92083 1.95802 2.61087 2.03017 2.37427 2.21997C2.13767 2.40976 2 2.69669 2 3.00001V19C2 19.4687 2.32553 19.8745 2.78307 19.9762L11.7831 21.9762C11.9259 22.0079 12.0741 22.0079 12.2169 21.9762L21.2169 19.9762C21.6745 19.8745 22 19.4687 22 19V3.00001C22 2.69669 21.8623 2.40976 21.6257 2.21997C21.3891 2.03017 21.0792 1.95802 20.7831 2.02382L12 3.97562L3.21693 2.02382ZM11 19.7534L4 18.1978V4.24662L11 5.80218V19.7534ZM13 19.7534L20 18.1978V4.24662L13 5.80218V19.7534Z" fill="black"/>
</svg>
