<svg width="24" height="24" viewBox="0 0 24 24" fill="none" xmlns="http://www.w3.org/2000/svg">
<path fill-rule="evenodd" clip-rule="evenodd" d="M14 3C14 3.0964 13.9932 3.19121 13.98 3.28396C16.8818 4.13809 19 6.82168 19 10V14.5324L19.7881 16.103C20.4554 17.433 19.4885 19 18.0005 19H6.0038C4.51749 19 3.55047 17.4362 4.21448 16.1065L4.99998 14.5334V10C4.99998 6.82167 7.11823 4.13808 10.02 3.28396C10.0068 3.1912 10 3.0964 10 3C10 1.89543 10.8954 1 12 1C13.1046 1 14 1.89543 14 3ZM6.99998 10C6.99998 7.23858 9.23856 5 12 5C14.7614 5 17 7.23858 17 10V14.7692C17 14.925 17.0364 15.0785 17.1062 15.2177L18.0005 17H6.0038L6.89464 15.216C6.96392 15.0772 6.99998 14.9243 6.99998 14.7692V10Z" fill="black"/>
<path d="M12 22C13.1046 22 14 21.1046 14 20H10C10 21.1046 10.8954 22 12 22Z" fill="black"/>
<path d="M19.5328 4.11581C20.0211 3.85778 20.6261 4.04445 20.8841 4.53275C21.5988 5.88524 22 7.39993 22 8.99996C22 9.55224 21.5523 9.99996 21 9.99996C20.4477 9.99996 20 9.55224 20 8.99996C20 7.73999 19.6852 6.54467 19.1158 5.46717C18.8578 4.97887 19.0445 4.37384 19.5328 4.11581Z" fill="black"/>
<path d="M4.88415 5.46717C5.14218 4.97887 4.95551 4.37384 4.46721 4.11581C3.97891 3.85778 3.37389 4.04445 3.11585 4.53275C2.40116 5.88524 2 7.39993 2 8.99996C2 9.55224 2.44772 9.99996 3 9.99996C3.55228 9.99996 4 9.55224 4 8.99996C4 7.73999 4.31476 6.54467 4.88415 5.46717Z" fill="black"/>
</svg>
