<svg width="24" height="24" viewBox="0 0 24 24" fill="none" xmlns="http://www.w3.org/2000/svg">
<path d="M13.98 3.28396C13.9932 3.1912 14 3.0964 14 3C14 1.89543 13.1046 1 12 1C10.8954 1 10 1.89543 10 3C10 3.0964 10.0068 3.1912 10.02 3.28396C9.24074 3.51333 8.51798 3.87464 7.87758 4.34204L9.31615 5.78061C10.0915 5.28637 11.0123 5 12 5C14.7614 5 17 7.23858 17 10V13.4645L19.8965 16.3609C19.8668 16.2743 19.8308 16.1882 19.7881 16.103L19 14.5324V10C19 6.82167 16.8818 4.13809 13.98 3.28396Z" fill="black"/>
<path d="M12 22C13.1046 22 14 21.1046 14 20H10C10 21.1046 10.8954 22 12 22Z" fill="black"/>
<path fill-rule="evenodd" clip-rule="evenodd" d="M4.70711 3.29289C4.31658 2.90237 3.68342 2.90237 3.29289 3.29289C2.90237 3.68342 2.90237 4.31658 3.29289 4.70711L5.64557 7.05979C5.23123 7.95375 4.99999 8.94987 4.99999 10V14.5334L4.21449 16.1065C3.55048 17.4362 4.5175 19 6.00381 19H17.5858L19.2929 20.7071C19.6834 21.0976 20.3166 21.0976 20.7071 20.7071C21.0976 20.3166 21.0976 19.6834 20.7071 19.2929L19.6065 18.1922L17.5838 16.1696L8.18365 6.76944L6.76598 5.35176L4.70711 3.29289ZM7 10C7 9.51766 7.0683 9.05126 7.19575 8.60997L15.5858 17H6.00381L6.89466 15.216C6.96393 15.0772 7 14.9243 7 14.7692V10Z" fill="black"/>
</svg>
