<svg width="24" height="24" viewBox="0 0 24 24" fill="none" xmlns="http://www.w3.org/2000/svg">
<path fill-rule="evenodd" clip-rule="evenodd" d="M14 3C14 3.0964 13.9932 3.1912 13.98 3.28396C16.8817 4.13809 19 6.82167 19 10V14.5324L19.7881 16.103C20.4554 17.433 19.4885 19 18.0005 19H6.0038C4.51749 19 3.55047 17.4362 4.21448 16.1065L4.99998 14.5334V10C4.99998 6.82167 7.11822 4.13809 10.02 3.28396C10.0068 3.1912 9.99998 3.0964 9.99998 3C9.99998 1.89543 10.8954 1 12 1C13.1046 1 14 1.89543 14 3ZM6.99998 10C6.99998 7.23858 9.23856 5 12 5C14.7614 5 17 7.23858 17 10V14.7692C17 14.925 17.0364 15.0785 17.1062 15.2177L18.0005 17H6.0038L6.89464 15.216C6.96392 15.0772 6.99998 14.9243 6.99998 14.7692V10Z" fill="black"/>
<path d="M12 22C13.1046 22 14 21.1046 14 20H9.99998C9.99998 21.1046 10.8954 22 12 22Z" fill="black"/>
</svg>
