<svg width="24" height="24" viewBox="0 0 24 24" fill="none" xmlns="http://www.w3.org/2000/svg">
<path d="M13.98 3.28396C13.9932 3.19121 14 3.0964 14 3C14 1.89543 13.1046 1 12 1C10.8954 1 10 1.89543 10 3C10 3.0964 10.0068 3.1912 10.02 3.28395C7.11823 4.13808 4.99998 6.82167 4.99998 10V14.5334L4.21448 16.1065C3.55047 17.4362 4.51749 19 6.0038 19H18.0005C19.4885 19 20.4554 17.433 19.7881 16.103L19 14.5324V10C19 6.82168 16.8818 4.13809 13.98 3.28396Z" fill="black"/>
<path d="M14 20C14 21.1046 13.1046 22 12 22C10.8954 22 10 21.1046 10 20H14Z" fill="black"/>
<path d="M20.8841 4.53275C20.6261 4.04445 20.0211 3.85778 19.5328 4.11581C19.0445 4.37384 18.8578 4.97887 19.1158 5.46717C19.6852 6.54467 20 7.73999 20 8.99996C20 9.55224 20.4477 9.99996 21 9.99996C21.5523 9.99996 22 9.55224 22 8.99996C22 7.39993 21.5988 5.88524 20.8841 4.53275Z" fill="black"/>
<path d="M4.88415 5.46717C5.14218 4.97887 4.95551 4.37384 4.46721 4.11581C3.97891 3.85778 3.37389 4.04445 3.11585 4.53275C2.40116 5.88524 2 7.39993 2 8.99996C2 9.55224 2.44772 9.99996 3 9.99996C3.55228 9.99996 4 9.55224 4 8.99996C4 7.73999 4.31476 6.54467 4.88415 5.46717Z" fill="black"/>
</svg>
