<svg width="24" height="24" viewBox="0 0 24 24" fill="none" xmlns="http://www.w3.org/2000/svg">
<path d="M14 15C14.5523 15 15 15.4477 15 16C15 16.5523 14.5523 17.0001 14 17.0001C13.4477 17.0001 13 16.5524 13 16.0001C13 15.4478 13.4477 15 14 15Z" fill="black"/>
<path fill-rule="evenodd" clip-rule="evenodd" d="M11.7071 1.29289C11.3166 0.902369 10.6834 0.902369 10.2929 1.29289C9.90572 1.68007 9.9024 2.30574 10.2829 2.697L10.2904 2.70538C10.3022 2.7189 10.3253 2.7463 10.3562 2.7875C10.4182 2.87004 10.5103 3.00672 10.6056 3.19721C10.7072 3.40054 10.8137 3.66765 10.8904 4H9C6.23772 4 4 6.23772 4 9V10C4 10.5523 4.44772 11 5 11V16C5 18.1358 5.98348 19.7052 7.32107 20.8139C8.62804 21.8971 10.2802 22.5527 11.7278 22.9622C11.9058 23.0126 12.0942 23.0126 12.2722 22.9622C13.7198 22.5527 15.372 21.8971 16.6789 20.8139C18.0165 19.7052 19 18.1358 19 16V11C19.5523 11 20 10.5523 20 10V9C20 6.23772 17.7623 4 15 4H12.9253C12.8183 3.30149 12.6104 2.73472 12.3944 2.30279C12.2397 1.99328 12.0818 1.75496 11.9563 1.5875C11.8934 1.5037 11.8384 1.43735 11.7955 1.38837C11.7741 1.36387 11.7557 1.34367 11.7408 1.32778L11.7211 1.30713L11.7134 1.29922L11.7101 1.29585L11.7085 1.29432L11.7071 1.29289ZM18 9C18 7.34228 16.6577 6 15 6H9C7.34228 6 6 7.34228 6 9H18ZM15.4027 19.274C16.3712 18.4713 17 17.4333 17 16V11H7V16C7 17.4333 7.62879 18.4713 8.59735 19.274C9.52828 20.0456 10.7619 20.5843 12 20.9582C13.2381 20.5843 14.4717 20.0456 15.4027 19.274Z" fill="black"/>
</svg>
