<svg width="24" height="24" viewBox="0 0 24 24" fill="none" xmlns="http://www.w3.org/2000/svg">
<path fill-rule="evenodd" clip-rule="evenodd" d="M2 7C2 4.23858 4.23858 2 7 2H17C19.7614 2 22 4.23858 22 7V13C22 15.7614 19.7614 18 17 18H15C14.4477 18 14 17.5523 14 17C14 16.4477 14.4477 16 15 16H17C18.6569 16 20 14.6569 20 13V7C20 5.34315 18.6569 4 17 4H7C5.34315 4 4 5.34315 4 7V13C4 14.6569 5.34315 16 7 16H9C9.55228 16 10 16.4477 10 17C10 17.5523 9.55228 18 9 18H7C4.23858 18 2 15.7614 2 13V7Z" fill="black"/>
<path fill-rule="evenodd" clip-rule="evenodd" d="M8.4 16.2C8.84183 15.8686 9.46863 15.9582 9.8 16.4L12 19.3333L14.2 16.4C14.5314 15.9582 15.1582 15.8686 15.6 16.2C16.0418 16.5314 16.1314 17.1582 15.8 17.6L12.8 21.6C12.6111 21.8518 12.3148 22 12 22C11.6852 22 11.3889 21.8518 11.2 21.6L8.2 17.6C7.86863 17.1582 7.95817 16.5314 8.4 16.2Z" fill="black"/>
<path fill-rule="evenodd" clip-rule="evenodd" d="M6 8C6 7.44772 6.44772 7 7 7H17C17.5523 7 18 7.44772 18 8C18 8.55228 17.5523 9 17 9H7C6.44772 9 6 8.55228 6 8Z" fill="black"/>
<path fill-rule="evenodd" clip-rule="evenodd" d="M8 12C8 11.4477 8.44772 11 9 11H15C15.5523 11 16 11.4477 16 12C16 12.5523 15.5523 13 15 13H9C8.44772 13 8 12.5523 8 12Z" fill="black"/>
</svg>
