<svg width="24" height="24" viewBox="0 0 24 24" fill="none" xmlns="http://www.w3.org/2000/svg">
<path d="M12 14C14.905 12.1287 15.895 10.6376 16 9.42672V9.00644H15.99C15.88 7.74554 14.975 7.08508 14.19 7.01503C14.065 7.00502 13.945 7 13.83 7C12.925 7 12.49 7.45533 11.995 8.00072C11.5 7.45533 11.065 7 10.16 7C10.05 7 9.93 7.00502 9.8 7.01503C9.015 7.08508 8.11 7.74053 8 9.00644V9.42672C8.105 10.6376 9.095 12.1287 12 14Z" fill="black"/>
<path fill-rule="evenodd" clip-rule="evenodd" d="M7 2C4.23858 2 2 4.23858 2 7V13C2 15.7614 4.23858 18 7 18H8.5L11.2 21.6C11.3889 21.8518 11.6852 22 12 22C12.3148 22 12.6111 21.8518 12.8 21.6L15.5 18H17C19.7614 18 22 15.7614 22 13V7C22 4.23858 19.7614 2 17 2H7ZM4 7C4 5.34315 5.34315 4 7 4H17C18.6569 4 20 5.34315 20 7V13C20 14.6569 18.6569 16 17 16H15C14.6852 16 14.3889 16.1482 14.2 16.4L12 19.3333L9.8 16.4C9.61115 16.1482 9.31476 16 9 16H7C5.34315 16 4 14.6569 4 13V7Z" fill="black"/>
</svg>
