<svg width="24" height="24" viewBox="0 0 24 24" fill="none" xmlns="http://www.w3.org/2000/svg">
<path d="M8 6C7.44772 6 7 6.44772 7 7C7 7.55228 7.44772 8 8 8H13.5C14.0523 8 14.5 7.55228 14.5 7C14.5 6.44772 14.0523 6 13.5 6H8Z" fill="black"/>
<path d="M8 10C7.44772 10 7 10.4477 7 11C7 11.5523 7.44772 12 8 12H16C16.5523 12 17 11.5523 17 11C17 10.4477 16.5523 10 16 10H8Z" fill="black"/>
<path d="M7 15C7 14.4477 7.44772 14 8 14H13.5C14.0523 14 14.5 14.4477 14.5 15C14.5 15.5523 14.0523 16 13.5 16H8C7.44772 16 7 15.5523 7 15Z" fill="black"/>
<path fill-rule="evenodd" clip-rule="evenodd" d="M6 2C4.34315 2 3 3.34315 3 5V20C3 20.3038 3.13809 20.5911 3.3753 20.7809L5.8753 22.7809C6.21536 23.0529 6.69236 23.0736 7.0547 22.8321L9.44629 21.2377L11.3753 22.7809C11.7405 23.073 12.2595 23.073 12.6247 22.7809L14.5537 21.2377L16.9453 22.8321C17.3076 23.0736 17.7846 23.0529 18.1247 22.7809L20.6247 20.7809C20.8619 20.5911 21 20.3038 21 20V5C21 3.34315 19.6569 2 18 2H6ZM5 5C5 4.44772 5.44772 4 6 4H18C18.5523 4 19 4.44772 19 5V19.5194L17.4463 20.7623L15.0547 19.1679C14.6924 18.9264 14.2154 18.9471 13.8753 19.2191L12 20.7194L10.1247 19.2191C9.78464 18.9471 9.30764 18.9264 8.9453 19.1679L6.55371 20.7623L5 19.5194V5Z" fill="black"/>
</svg>
