<svg width="24" height="24" viewBox="0 0 24 24" fill="none" xmlns="http://www.w3.org/2000/svg">
<g clip-path="url(#clip0_30_22010)">
<path fill-rule="evenodd" clip-rule="evenodd" d="M7 2C4.79086 2 3 3.79086 3 6V18C3 20.2091 4.79086 22 7 22H14.2491C13.9784 21.4935 13.8074 20.9258 13.7621 20.3229C13.6107 20.2211 13.4613 20.1135 13.315 20C11.8919 18.897 10.75 17.2435 10.75 15C10.75 14.2607 10.8384 13.5303 11.0491 12.8359C10.8915 12.9396 10.7028 13 10.5 13H8.5C7.94772 13 7.5 12.5523 7.5 12C7.5 11.4477 7.94772 11 8.5 11H10.5C10.9809 11 11.3825 11.3395 11.4783 11.7919C11.6104 11.5437 11.7629 11.3028 11.9376 11.0706C12.6985 10.0596 13.7349 9.40942 14.8778 9H8.5C7.94772 9 7.5 8.55228 7.5 8C7.5 7.44772 7.94772 7 8.5 7H15.5C16.0523 7 16.5 7.44772 16.5 8C16.5 8.30161 16.3665 8.57202 16.1553 8.75537C16.5083 8.77981 16.8544 8.88741 17.1637 9.07431C17.5233 9.29163 17.8112 9.60285 18 9.96921C18.1888 9.60285 18.4767 9.29163 18.8363 9.07431C18.8898 9.04197 18.9444 9.012 19 8.98443C19.5056 8.73357 20.0895 8.68092 20.6353 8.84155C20.7578 8.87762 20.8795 8.91615 21 8.95727V6C21 3.79086 19.2091 2 17 2H7ZM8.5 15C7.94772 15 7.5 15.4477 7.5 16C7.5 16.5523 7.94772 17 8.5 17H9.5C10.0523 17 10.5 16.5523 10.5 16C10.5 15.4477 10.0523 15 9.5 15H8.5Z" fill="black"/>
<path fill-rule="evenodd" clip-rule="evenodd" d="M19 10.901L18.2155 14.8233C18.195 14.926 18.1048 15 18 15C17.8952 15 17.805 14.926 17.7845 14.8233L16.9806 10.8039C16.9255 10.5287 16.7574 10.2893 16.5172 10.1441C16.277 9.99899 15.9869 9.96145 15.7177 10.0407C14.5583 10.3819 13.597 10.9446 12.9364 11.8223C12.2752 12.7008 12 13.7823 12 15C12 17.1829 13.3651 18.7095 15 19.6162V20C15 20.7684 15.2889 21.4692 15.7639 22C16.3132 22.6138 17.1115 23 18 23C19.6569 23 21 21.6569 21 20V19.6162C22.6349 18.7095 24 17.1829 24 15C24 13.7823 23.7248 12.7008 23.0636 11.8223C22.5447 11.1328 21.8402 10.6378 21 10.2917C20.7706 10.1973 20.531 10.1139 20.2823 10.0407C20.0131 9.96145 19.723 9.99899 19.4828 10.1441C19.2426 10.2893 19.0745 10.5287 19.0194 10.8039L19 10.901ZM14.5343 13.025C14.2053 13.4622 14 14.0806 14 15C14 16.347 14.9156 17.4124 16.4119 18.0888C16.7699 18.2506 17 18.6071 17 19V20C17 20.5523 17.4477 21 18 21C18.5523 21 19 20.5523 19 20V19C19 18.6071 19.2301 18.2506 19.5881 18.0888C21.0844 17.4124 22 16.347 22 15C22 14.0806 21.7947 13.4622 21.4657 13.025C21.2902 12.7918 21.0555 12.5783 20.7417 12.3905L20.1767 15.2155C19.9692 16.2531 19.0581 17 18 17C16.9419 17 16.0308 16.2531 15.8233 15.2155L15.2583 12.3905C14.9445 12.5783 14.7098 12.7918 14.5343 13.025Z" fill="black"/>
</g>
<defs>
<clipPath id="clip0_30_22010">
<rect width="24" height="24" fill="white"/>
</clipPath>
</defs>
</svg>
