<svg width="24" height="24" viewBox="0 0 24 24" fill="none" xmlns="http://www.w3.org/2000/svg">
<path fill-rule="evenodd" clip-rule="evenodd" d="M17 10.101C18.2372 11.3636 19 13.0927 19 15C19 18.866 15.866 22 12 22C8.13401 22 5 18.866 5 15C5 13.0927 5.76281 11.3636 7 10.101V7C7 4.23858 9.23858 2 12 2C14.7614 2 17 4.23858 17 7V10.101ZM9 8.67363C9.90926 8.24169 10.9264 8 12 8C13.0736 8 14.0907 8.24169 15 8.67363V7C15 5.34315 13.6569 4 12 4C10.3431 4 9 5.34315 9 7V8.67363ZM11 15C11 14.4477 11.4477 14 12 14C12.5523 14 13.0001 14.4477 13.0001 15C13.0001 15.5523 12.5524 16 12.0001 16C11.4478 16 11 15.5523 11 15Z" fill="black"/>
</svg>
