<svg width="24" height="24" viewBox="0 0 24 24" fill="none" xmlns="http://www.w3.org/2000/svg">
<path d="M12 14C11.4477 14 11 14.4477 11 15C11 15.5523 11.4478 16 12.0001 16C12.5524 16 13.0001 15.5523 13.0001 15C13.0001 14.4477 12.5523 14 12 14Z" fill="black"/>
<path fill-rule="evenodd" clip-rule="evenodd" d="M7 7.2C7 4.32382 9.34208 2 12.2204 2C14.2676 2 16.042 3.17796 16.8948 4.88681C17.1414 5.38098 16.9407 5.9815 16.4465 6.22811C15.9524 6.47471 15.3518 6.27402 15.1052 5.77985C14.5793 4.72604 13.4838 4 12.2204 4C10.4375 4 9 5.43751 9 7.2V8.67363C9.90926 8.24169 10.9264 8 12 8C15.866 8 19 11.134 19 15C19 18.866 15.866 22 12 22C8.13401 22 5 18.866 5 15C5 13.0903 5.7647 11.3593 7.00458 10.0963C7.00155 10.0646 7 10.0325 7 10V7.2ZM12 10C9.23858 10 7 12.2386 7 15C7 17.7614 9.23858 20 12 20C14.7614 20 17 17.7614 17 15C17 12.2386 14.7614 10 12 10Z" fill="black"/>
</svg>
