<svg width="24" height="24" viewBox="0 0 24 24" fill="none" xmlns="http://www.w3.org/2000/svg">
<path fill-rule="evenodd" clip-rule="evenodd" d="M12.2204 2C9.34208 2 7 4.32382 7 7.2V10C7 10.0325 7.00155 10.0646 7.00458 10.0963C5.7647 11.3593 5 13.0903 5 15C5 18.866 8.13401 22 12 22C15.866 22 19 18.866 19 15C19 11.134 15.866 8 12 8C10.9264 8 9.90926 8.24169 9 8.67363V7.2C9 5.43751 10.4375 4 12.2204 4C13.4838 4 14.5793 4.72604 15.1052 5.77985C15.3518 6.27402 15.9524 6.47471 16.4465 6.22811C16.9407 5.9815 17.1414 5.38098 16.8948 4.88681C16.042 3.17796 14.2676 2 12.2204 2ZM11 15C11 14.4477 11.4477 14 12 14C12.5523 14 13.0001 14.4477 13.0001 15C13.0001 15.5523 12.5524 16 12.0001 16C11.4478 16 11 15.5523 11 15Z" fill="black"/>
</svg>
