<svg width="24" height="24" viewBox="0 0 24 24" fill="none" xmlns="http://www.w3.org/2000/svg">
<path fill-rule="evenodd" clip-rule="evenodd" d="M4 10C4 8.34315 5.34315 7 7 7H19C20.6569 7 22 8.34315 22 10V13C22 13.5523 21.5523 14 21 14H5C4.44772 14 4 13.5523 4 13V10ZM7 9C6.44772 9 6 9.44772 6 10V12H20V10C20 9.44772 19.5523 9 19 9H7Z" fill="black"/>
<path fill-rule="evenodd" clip-rule="evenodd" d="M10 3C10 1.34315 11.3431 0 13 0C14.6569 0 16 1.34315 16 3V8C16 8.55228 15.5523 9 15 9H11C10.4477 9 10 8.55228 10 8V3ZM13 2C12.4477 2 12 2.44772 12 3V7H14V3C14 2.44772 13.5523 2 13 2Z" fill="black"/>
<path fill-rule="evenodd" clip-rule="evenodd" d="M4 13C4 12.4477 4.44772 12 5 12H20.995C21.5473 12 21.995 12.4477 21.995 13C21.995 15.7701 21.8429 18.552 20.9515 21.3078C20.818 21.7204 20.4337 22 20 22H3C2.65342 22 2.33156 21.8205 2.14935 21.5257C1.96714 21.2309 1.95058 20.8628 2.10557 20.5528C3.05458 18.6548 4 15.5405 4 13ZM5.9617 14C5.80938 16.0557 5.22129 18.2481 4.53363 20H8.77559H11.3591H19.2553C19.7849 18.071 19.9514 16.0885 19.987 14H5.9617Z" fill="black"/>
<path d="M7 9C6.44772 9 6 9.44772 6 10V12H20V10C20 9.44772 19.5523 9 19 9H15H11H7Z" fill="black"/>
<path d="M12 7H14V3C14 2.44772 13.5523 2 13 2C12.4477 2 12 2.44772 12 3V7Z" fill="black"/>
<path d="M8.77559 20H11.3591C11.737 19.2581 12 18.2779 12 17C12 16.4477 11.5523 16 11 16C10.4477 16 10 16.4477 10 17C10 18.4507 9.5717 19.2139 9.24086 19.5997C9.06814 19.8011 8.90213 19.9229 8.79148 19.9904C8.78605 19.9938 8.78074 19.9969 8.77559 20Z" fill="black"/>
</svg>
