<svg width="24" height="24" viewBox="0 0 24 24" fill="none" xmlns="http://www.w3.org/2000/svg">
<path fill-rule="evenodd" clip-rule="evenodd" d="M2 5C2 3.34315 3.34315 2 5 2H15C16.6569 2 18 3.34315 18 5V6H19C20.6569 6 22 7.34315 22 9V11C22 12.6569 20.6569 14 19 14H13C12.4477 14 12 14.4477 12 15H13C13.5523 15 14 15.4477 14 16V21C14 21.5523 13.5523 22 13 22H9C8.44772 22 8 21.5523 8 21V16C8 15.4477 8.44772 15 9 15H10C10 13.3431 11.3431 12 13 12H19C19.5523 12 20 11.5523 20 11V9C20 8.44772 19.5523 8 19 8H18C18 9.65685 16.6569 11 15 11H5C3.34315 11 2 9.65685 2 8V5ZM15 4C15.5523 4 16 4.44772 16 5V8C16 8.55228 15.5523 9 15 9H5C4.44772 9 4 8.55228 4 8V5C4 4.44772 4.44772 4 5 4H15ZM10 17V20H12V17H10Z" fill="black"/>
</svg>
