<svg width="24" height="24" viewBox="0 0 24 24" fill="none" xmlns="http://www.w3.org/2000/svg">
<path d="M10.25 19.75V17.25H11.75V19.75H10.25Z" fill="black"/>
<path fill-rule="evenodd" clip-rule="evenodd" d="M5 1.75C3.20507 1.75 1.75 3.20507 1.75 5V8C1.75 9.79493 3.20507 11.25 5 11.25H15C16.7108 11.25 18.1129 9.92811 18.2405 8.25H19C19.4142 8.25 19.75 8.58579 19.75 9V11C19.75 11.4142 19.4142 11.75 19 11.75H13C11.2892 11.75 9.88713 13.0719 9.75947 14.75H9C8.30964 14.75 7.75 15.3096 7.75 16V21C7.75 21.6904 8.30964 22.25 9 22.25H13C13.6904 22.25 14.25 21.6904 14.25 21V16C14.25 15.3096 13.6904 14.75 13 14.75H12.2927C12.3956 14.4587 12.6734 14.25 13 14.25H19C20.7949 14.25 22.25 12.7949 22.25 11V9C22.25 7.20507 20.7949 5.75 19 5.75H18.25V5C18.25 3.20507 16.7949 1.75 15 1.75H5ZM15 4.25C15.4142 4.25 15.75 4.58579 15.75 5V8C15.75 8.41421 15.4142 8.75 15 8.75H5C4.58579 8.75 4.25 8.41421 4.25 8V5C4.25 4.58579 4.58579 4.25 5 4.25H15ZM10.25 17.25V19.75H11.75V17.25H10.25Z" fill="black"/>
</svg>
