<svg width="24" height="24" viewBox="0 0 24 24" fill="none" xmlns="http://www.w3.org/2000/svg">
<path fill-rule="evenodd" clip-rule="evenodd" d="M12 1C11.9833 1 11.9667 1.00042 11.9501 1.00125C10.1325 1.09213 7.43202 1.73743 5.15829 3.40635C2.83975 5.10816 1 7.85589 1 12C1 16.1595 2.93677 18.9446 5.2857 20.6579C7.58906 22.338 10.2973 23 12 23C12.4165 23 12.9002 22.9563 13.3719 22.8394C13.8333 22.7252 14.3548 22.5234 14.7795 22.1586C15.2337 21.7686 15.5559 21.205 15.5605 20.4876C15.5647 19.8173 15.2906 19.1331 14.8321 18.4453C13.9072 17.058 14.2024 16.5977 14.2809 16.4997C14.3691 16.3894 14.548 16.2582 14.8685 16.1552C15.1839 16.0538 15.5763 16 16 16C16.1447 16 16.3425 16.0125 16.6154 16.0325L16.729 16.0409C16.9647 16.0583 17.2365 16.0785 17.521 16.0925C18.1797 16.1251 18.9764 16.1296 19.7496 15.9823C20.5227 15.8351 21.3572 15.52 21.9984 14.845C22.6572 14.1515 23 13.1972 23 12C23 9.7439 22.028 7.01958 20.2018 4.85513C18.3548 2.66616 15.589 1 12 1ZM8 10C8 9.17157 7.32843 8.5 6.5 8.5C5.67157 8.5 5 9.17167 5 10.0001C5 10.8285 5.67157 11.5001 6.5 11.5001C7.32843 11.5001 8 10.8284 8 10ZM11 7C11 6.17157 10.3284 5.5 9.5 5.5C8.67157 5.5 8 6.17167 8 7.0001C8 7.82853 8.67157 8.5001 9.5 8.5001C10.3284 8.5001 11 7.82843 11 7ZM16 7C16 6.17157 15.3284 5.5 14.5 5.5C13.6716 5.5 13 6.17167 13 7.0001C13 7.82853 13.6716 8.5001 14.5 8.5001C15.3284 8.5001 16 7.82843 16 7ZM19 10C19 9.17157 18.3284 8.5 17.5 8.5C16.6716 8.5 16 9.17167 16 10.0001C16 10.8285 16.6716 11.5001 17.5 11.5001C18.3284 11.5001 19 10.8284 19 10Z" fill="black"/>
</svg>
