<svg width="24" height="24" viewBox="0 0 24 24" fill="none" xmlns="http://www.w3.org/2000/svg">
<path fill-rule="evenodd" clip-rule="evenodd" d="M6.5 8.5C7.32843 8.5 8 9.17157 8 10C8 10.8284 7.32843 11.5001 6.5 11.5001C5.67157 11.5001 5 10.8285 5 10.0001C5 9.17167 5.67157 8.5 6.5 8.5Z" fill="black"/>
<path fill-rule="evenodd" clip-rule="evenodd" d="M9.5 5.5C10.3284 5.5 11 6.17157 11 7C11 7.82843 10.3284 8.5001 9.5 8.5001C8.67157 8.5001 8 7.82853 8 7.0001C8 6.17167 8.67157 5.5 9.5 5.5Z" fill="black"/>
<path fill-rule="evenodd" clip-rule="evenodd" d="M14.5 5.5C15.3284 5.5 16 6.17157 16 7C16 7.82843 15.3284 8.5001 14.5 8.5001C13.6716 8.5001 13 7.82853 13 7.0001C13 6.17167 13.6716 5.5 14.5 5.5Z" fill="black"/>
<path fill-rule="evenodd" clip-rule="evenodd" d="M17.5 8.5C18.3284 8.5 19 9.17157 19 10C19 10.8284 18.3284 11.5001 17.5 11.5001C16.6716 11.5001 16 10.8285 16 10.0001C16 9.17167 16.6716 8.5 17.5 8.5Z" fill="black"/>
<path fill-rule="evenodd" clip-rule="evenodd" d="M11.9501 1.00125C11.9667 1.00042 11.9833 1 12 1C15.589 1 18.3548 2.66616 20.2018 4.85513C22.028 7.01958 23 9.7439 23 12C23 13.1972 22.6572 14.1515 21.9984 14.845C21.3572 15.52 20.5227 15.8351 19.7496 15.9823C18.9764 16.1296 18.1797 16.1251 17.521 16.0925C17.2365 16.0785 16.9647 16.0583 16.729 16.0409C16.6901 16.038 16.6522 16.0352 16.6154 16.0325C16.3425 16.0125 16.1447 16 16 16C15.5763 16 15.1839 16.0538 14.8685 16.1552C14.548 16.2582 14.3691 16.3894 14.2809 16.4997C14.2024 16.5977 13.9072 17.058 14.8321 18.4453C15.2906 19.1331 15.5647 19.8173 15.5605 20.4876C15.5559 21.205 15.2337 21.7686 14.7795 22.1586C14.3548 22.5234 13.8333 22.7252 13.3719 22.8394C12.9002 22.9563 12.4165 23 12 23C10.2973 23 7.58906 22.338 5.2857 20.6579C2.93677 18.9446 1 16.1595 1 12C1 7.85589 2.83975 5.10816 5.15829 3.40635C7.43202 1.73743 10.1325 1.09213 11.9501 1.00125ZM12.0251 3.00003C10.5091 3.08061 8.22434 3.6368 6.34171 5.01865C4.49359 6.37517 3 8.54411 3 12C3 15.4405 4.56323 17.6554 6.4643 19.0421C8.41094 20.462 10.7027 21 12 21C12.2875 21 12.6058 20.9687 12.8911 20.8981C13.1868 20.8249 13.3772 20.7266 13.4765 20.6414C13.5464 20.5814 13.5601 20.545 13.5605 20.4749C13.5613 20.3577 13.5094 20.0669 13.1679 19.5547C12.0928 17.942 11.7976 16.4023 12.7191 15.2503C13.1309 14.7356 13.702 14.4293 14.2565 14.2511C14.8161 14.0712 15.4237 14 16 14C16.2303 14 16.5013 14.0188 16.7615 14.0378C16.8009 14.0407 16.8405 14.0436 16.8803 14.0466C17.1168 14.0641 17.3617 14.0822 17.6196 14.095C18.2265 14.1249 18.8361 14.1204 19.3754 14.0177C19.9148 13.9149 20.2991 13.73 20.5484 13.4675C20.7803 13.2235 21 12.8028 21 12C21 10.2561 20.222 7.98042 18.6732 6.14487C17.1496 4.33905 14.9239 3.00768 12.0251 3.00003Z" fill="black"/>
</svg>
