<svg width="24" height="24" viewBox="0 0 24 24" fill="none" xmlns="http://www.w3.org/2000/svg">
<path fill-rule="evenodd" clip-rule="evenodd" d="M15.6987 1.0406C17.3171 0.777576 18.856 1.81923 19.1691 3.38973L21.9438 17.3041C22.2618 18.8989 21.1988 20.4446 19.565 20.7633L8.39302 22.9421C6.74092 23.2643 5.13679 22.2097 4.8236 20.5954L2.05337 6.31723C1.73766 4.69 2.85579 3.12781 4.53104 2.85555L15.6987 1.0406ZM8.83483 6.12588L8.23337 8.12463L6.19448 8.77729L7.96888 9.94965L7.97891 12.0317L9.677 10.7575L11.7221 11.3917L10.9972 9.43184L12.2511 7.74167L10.105 7.80461L8.83483 6.12588ZM13.9844 17.9141C14.5287 17.7962 14.8718 17.2704 14.7509 16.7397C14.6299 16.2091 14.0907 15.8745 13.5465 15.9924L9.00402 16.9767C8.4598 17.0946 8.11666 17.6204 8.2376 18.1511C8.35854 18.6818 8.89775 19.0164 9.44197 18.8984L13.9844 17.9141ZM15.7585 12.7947C15.8838 13.3244 15.5451 13.8529 15.0019 13.9751L8.44055 15.4516C7.89733 15.5738 7.35534 15.2435 7.22999 14.7138C7.10463 14.1841 7.44337 13.6556 7.98659 13.5334L14.5479 12.0569C15.0911 11.9347 15.6331 12.265 15.7585 12.7947Z" fill="black"/>
</svg>
