<svg width="24" height="24" viewBox="0 0 24 24" fill="none" xmlns="http://www.w3.org/2000/svg">
<path fill-rule="evenodd" clip-rule="evenodd" d="M22.25 7C22.25 4.10051 19.8995 1.75 17 1.75H7C4.10051 1.75 1.75 4.1005 1.75 7V17C1.75 19.8995 4.1005 22.25 7 22.25H17C19.8995 22.25 22.25 19.8995 22.25 17V7ZM10.25 19.75L10.25 9.25L19.75 9.25V17C19.75 18.5188 18.5188 19.75 17 19.75H10.25ZM4.25 17C4.25 18.5188 5.48122 19.75 7 19.75H7.75L7.75 4.25H7C5.48122 4.25 4.25 5.48122 4.25 7L4.25 17Z" fill="black"/>
</svg>
