<svg width="24" height="24" viewBox="0 0 24 24" fill="none" xmlns="http://www.w3.org/2000/svg">
<path fill-rule="evenodd" clip-rule="evenodd" d="M4 3C4 2.44772 4.44772 2 5 2H19C19.5523 2 20 2.44772 20 3V21C20 21.5523 19.5523 22 19 22H15C14.5233 22 14.1129 21.6635 14.0194 21.1961L12.2155 12.1767C12.195 12.074 12.1048 12 12 12C11.8952 12 11.805 12.074 11.7845 12.1767L9.98058 21.1961C9.8871 21.6635 9.47668 22 9 22H5C4.44772 22 4 21.5523 4 21V3ZM14.1767 11.7845L15.8198 20H18V8H6V20H8.1802L9.8233 11.7845C10.0308 10.7469 10.9419 10 12 10C13.0581 10 13.9692 10.7469 14.1767 11.7845ZM10 4H6V6H10V4ZM14 6V4H18V6H14Z" fill="black"/>
</svg>
