<svg width="24" height="24" viewBox="0 0 24 24" fill="none" xmlns="http://www.w3.org/2000/svg">
<path fill-rule="evenodd" clip-rule="evenodd" d="M14.7071 1.29289C14.5196 1.10536 14.2652 1 14 1C13.7348 1 13.4805 1.10536 13.2929 1.29289L12.167 2.41886C11.3635 3.22236 11.0829 4.41086 11.4422 5.48886L11.6605 6.14357C11.7802 6.50291 11.6867 6.89909 11.4189 7.16692L11.3511 7.23469C11.0618 7.52395 10.5348 7.64323 9.95071 7.44632C7.87232 6.74572 6.10893 7.0595 4.75704 7.80899C3.44015 8.53908 2.55305 9.65783 2.1056 10.5527C1.91311 10.9377 1.98856 11.4027 2.29292 11.7071L6.51346 15.9276L2.28071 20.3102C1.89703 20.7074 1.90804 21.3405 2.3053 21.7242C2.70255 22.1079 3.33562 22.0968 3.7193 21.6996L7.92789 17.342L12.293 21.7071C12.5973 22.0115 13.0623 22.0869 13.4473 21.8944C14.3422 21.447 15.4609 20.5599 16.191 19.243C16.9405 17.8911 17.2543 16.1277 16.5537 14.0493C16.3568 13.4652 16.4761 12.9382 16.7653 12.6489L16.8331 12.5812C17.1009 12.3133 17.4971 12.2198 17.8565 12.3396L18.5112 12.5578C19.5892 12.9171 20.7777 12.6366 21.5812 11.8331L22.7071 10.7071C22.8947 10.5196 23 10.2652 23 10C23 9.73478 22.8947 9.48043 22.7071 9.29289L14.7071 1.29289ZM13.5812 3.83307L14 3.41421L20.5858 10L20.167 10.4189C19.8991 10.6867 19.503 10.7802 19.1436 10.6604L18.4889 10.4422C17.4109 10.0829 16.2224 10.3634 15.4189 11.167L15.3511 11.2347C14.3857 12.2002 14.2886 13.5909 14.6585 14.6882C15.1736 16.2164 14.9277 17.397 14.4419 18.2732C14.094 18.9008 13.61 19.3927 13.1491 19.7348L4.26525 10.851C4.60733 10.3901 5.09924 9.90608 5.72679 9.55816C6.60306 9.07235 7.78366 8.82641 9.31186 9.34155C10.4092 9.71144 11.7998 9.61435 12.7653 8.64892L12.8331 8.58115C13.6366 7.77765 13.9172 6.58914 13.5578 5.51112L13.3396 4.85641C13.2198 4.49707 13.3133 4.10091 13.5812 3.83307Z" fill="black"/>
</svg>
