<svg width="24" height="24" viewBox="0 0 24 24" fill="none" xmlns="http://www.w3.org/2000/svg">
<path fill-rule="evenodd" clip-rule="evenodd" d="M21.5257 2.14935C21.8205 2.33156 22 2.65342 22 3V19C22 19.4304 21.7246 19.8126 21.3162 19.9487L15.3383 21.9413C15.2361 21.9781 15.1261 21.9986 15.0115 21.9999L15 22L14.9885 21.9999C14.8739 21.9986 14.7639 21.9781 14.6617 21.9413L9 20.0541L3.31623 21.9487C3.01128 22.0503 2.67606 21.9992 2.41529 21.8112C2.15452 21.6233 2 21.3214 2 21V6C2 5.62123 2.214 5.27497 2.55279 5.10557L8.53475 2.11459C8.67373 2.04141 8.83203 2 9 2C9.16797 2 9.32627 2.04141 9.46525 2.11459L15 4.88197L20.5528 2.10557C20.8628 1.95058 21.2309 1.96714 21.5257 2.14935ZM10 4.61804L14 6.61803V19.6126L10 18.2792V4.61804Z" fill="black"/>
</svg>
