<svg width="24" height="24" viewBox="0 0 24 24" fill="none" xmlns="http://www.w3.org/2000/svg">
<path fill-rule="evenodd" clip-rule="evenodd" d="M12 3C8.75015 3 6 5.84405 6 9.5C6 13.156 8.75015 16 12 16C15.2498 16 18 13.156 18 9.5C18 5.84405 15.2498 3 12 3ZM4 9.5C4 4.87168 7.51786 1 12 1C16.4821 1 20 4.87168 20 9.5C20 14.1283 16.4821 18 12 18C7.51786 18 4 14.1283 4 9.5Z" fill="black"/>
<path fill-rule="evenodd" clip-rule="evenodd" d="M14 5C14.5523 5 15 5.44772 15 6C15 6.55228 14.5523 7.0001 14 7.0001C13.4477 7.0001 13 6.55238 13 6.0001C13 5.44782 13.4477 5 14 5Z" fill="black"/>
<path fill-rule="evenodd" clip-rule="evenodd" d="M12.5547 16.1679C13.0142 16.4743 13.1384 17.0952 12.8321 17.5547L11.7415 19.1905C11.4771 19.5871 11.5294 20.1152 11.8665 20.4523L12.1213 20.7071C12.6839 21.2697 13 22.0328 13 22.8284V23C13 23.5523 12.5523 24 12 24C11.4477 24 11 23.5523 11 23V22.8284C11 22.5632 10.8946 22.3089 10.7071 22.1213L10.4523 21.8665C9.44108 20.8553 9.28419 19.2709 10.0774 18.0811L11.1679 16.4453C11.4743 15.9858 12.0952 15.8616 12.5547 16.1679Z" fill="black"/>
</svg>
