<svg width="24" height="24" viewBox="0 0 24 24" fill="none" xmlns="http://www.w3.org/2000/svg">
<path d="M10 2C10.5523 2 11 2.44772 11 3V5C11 5.55228 10.5523 6 10 6C9.44771 6 9 5.55228 9 5V3C9 2.44772 9.44771 2 10 2Z" fill="black"/>
<path d="M16 4C16 3.44772 15.5523 3 15 3C14.4477 3 14 3.44772 14 4V6C14 6.55228 14.4477 7 15 7C15.5523 7 16 6.55228 16 6V4Z" fill="black"/>
<path d="M20 6C20.5523 6 21 6.44772 21 7V9C21 9.55228 20.5523 10 20 10C19.4477 10 19 9.55228 19 9V7C19 6.44772 19.4477 6 20 6Z" fill="black"/>
<path fill-rule="evenodd" clip-rule="evenodd" d="M7.61337 10.0372C7.63801 9.99014 7.66673 9.94442 7.6996 9.90053C8.79116 8.44312 10.5381 7.5 12.5 7.5C14.9626 7.5 17.0726 8.98435 18.0006 11.098L18.0017 11.1003C19.9606 11.4983 21.5027 13.0409 21.9001 15H22C22.5523 15 23 15.4477 23 16C23 16.5523 22.5523 17 22 17H21.8198L21.6237 17.9806C21.1563 20.3177 19.1042 22 16.7208 22H7.27922C4.89581 22 2.84374 20.3177 2.37631 17.9806L2.1802 17H2C1.44772 17 1 16.5523 1 16C1 15.4477 1.44772 15 2 15C2 12.2377 4.23772 10 7 10C7.20771 10 7.4124 10.0126 7.61337 10.0372ZM9.61017 10.7338C10.3377 9.97263 11.3642 9.5 12.5 9.5C13.8324 9.5 15.0143 10.1527 15.7435 11.1591C13.9066 11.6342 12.4799 13.1266 12.0999 15H4C4 13.3423 5.34228 12 7 12C7.94865 12 8.79172 12.437 9.34538 13.1263C9.69125 13.5568 10.3207 13.6255 10.7513 13.2796C11.1818 12.9338 11.2505 12.3043 10.9046 11.8737C10.543 11.4236 10.1051 11.037 9.61017 10.7338ZM17 13C18.307 13 19.418 13.8344 19.8295 15H14.1705C14.582 13.8344 15.693 13 17 13Z" fill="black"/>
<path d="M6 6C6 5.44772 5.55228 5 5 5C4.44772 5 4 5.44772 4 6V8C4 8.55228 4.44772 9 5 9C5.55228 9 6 8.55228 6 8V6Z" fill="black"/>
</svg>
