<svg width="24" height="24" viewBox="0 0 24 24" fill="none" xmlns="http://www.w3.org/2000/svg">
<path d="M10 17.0004C10 16.4481 9.55228 16.0004 9 16.0004C8.44772 16.0004 8 16.4482 8 17.0005C8 17.5528 8.44772 18.0005 9 18.0005C9.55228 18.0005 10 17.5527 10 17.0004Z" fill="black"/>
<path d="M8 13.0004C8.55228 13.0004 9 13.4481 9 14.0004C9 14.5527 8.55228 15.0005 8 15.0005C7.44772 15.0005 7 14.5528 7 14.0005C7 13.4482 7.44772 13.0004 8 13.0004Z" fill="black"/>
<path d="M10 8.00037C10 7.44808 9.55228 7.00037 9 7.00037C8.44772 7.00037 8 7.44818 8 8.00047C8 8.55275 8.44772 9.00047 9 9.00047C9.55228 9.00047 10 8.55265 10 8.00037Z" fill="black"/>
<path fill-rule="evenodd" clip-rule="evenodd" d="M10.4732 2.46528C9.03065 1.89507 7.42677 1.86067 5.96792 2.31572L5.96472 2.31673C2.55959 3.3914 1.03171 7.15967 2.66479 10.1987L2.66578 10.2005C3.28056 11.3388 3.28025 12.6655 2.66206 13.8028C2.64456 13.835 2.62889 13.8681 2.61509 13.9018C1.13667 16.764 2.40708 20.3025 5.52833 21.5354C6.97083 22.1056 8.57468 22.14 10.0336 21.685L10.0368 21.684C10.809 21.4402 11.4846 21.058 12.0488 20.5772C12.8777 21.4116 14.0599 21.8199 15.1706 21.9502C16.5546 22.1125 18.0777 21.8796 19.2382 21.2569C20.5865 20.5336 21.7113 19.2955 22.3656 18.0024C22.9951 16.7584 23.328 15.1571 22.5397 13.8883C21.7708 12.6507 20.1748 12.1387 18.7384 12.0263C17.2416 11.9091 15.546 12.1873 14.2011 12.9089C13.8567 13.0936 13.5292 13.3207 13.2249 13.5787C12.7235 12.4923 12.7609 11.2622 13.3394 10.1979C13.3569 10.1657 13.3726 10.1326 13.3864 10.0989C14.8648 7.23673 13.5942 3.69825 10.4732 2.46528ZM6.56508 4.22449C4.33167 4.93036 3.40012 7.34074 4.4261 9.25116C5.34549 10.9543 5.36062 12.9589 4.46466 14.6728C4.45176 14.7039 4.43726 14.7345 4.42119 14.7644C3.43979 16.5875 4.22543 18.8704 6.26307 19.6752C7.26219 20.0702 8.39521 20.1005 9.43627 19.7762C11.6697 19.0704 12.6014 16.6601 11.5754 14.7496C10.656 13.0464 10.6409 11.0418 11.5368 9.32792C11.5497 9.29675 11.5642 9.26617 11.5803 9.23631C12.5617 7.41317 11.7761 5.13028 9.73842 4.32543C8.73926 3.93042 7.60615 3.90015 6.56508 4.22449ZM16.3448 16.1489L13.885 17.4686C14.003 16.887 14.0265 16.2843 13.9472 15.6831C13.9588 15.6706 13.9702 15.6578 13.9813 15.6446C14.334 15.2259 14.7405 14.8891 15.1466 14.6712C16.1001 14.1597 17.4012 13.9277 18.5823 14.0202C19.8238 14.1174 20.5869 14.535 20.8409 14.9438C21.0755 15.3214 21.0952 16.0834 20.5811 17.0994C20.0918 18.0663 19.2428 18.9848 18.2927 19.4946C17.5487 19.8938 16.4489 20.0864 15.4036 19.9638C14.9046 19.9053 14.4719 19.7829 14.1182 19.6132L17.2903 17.9113C17.777 17.6502 17.9598 17.044 17.6987 16.5573C17.4376 16.0706 16.8314 15.8878 16.3448 16.1489Z" fill="black"/>
</svg>
