<svg width="24" height="24" viewBox="0 0 24 24" fill="none" xmlns="http://www.w3.org/2000/svg">
<path d="M8 3C8 2.44772 8.44772 2 9 2H15C15.5523 2 16 2.44772 16 3V4C16 4.55228 15.5523 5 15 5H9C8.44772 5 8 4.55228 8 4V3Z" fill="black"/>
<path fill-rule="evenodd" clip-rule="evenodd" d="M8.10558 6.55279C8.27497 6.214 8.62123 6 9.00001 6H15C15.3788 6 15.725 6.214 15.8944 6.55279L18.8944 12.5528C19.0638 12.8916 19.0273 13.297 18.8 13.6L12.8 21.6C12.6112 21.8518 12.3148 22 12 22C11.6852 22 11.3889 21.8518 11.2 21.6L5.20001 13.6C4.97274 13.297 4.93619 12.8916 5.10558 12.5528L8.10558 6.55279ZM12 12C12.5523 12 13 12.4477 13 13C13 13.5523 12.5523 14.0001 12 14.0001C11.4477 14.0001 11 13.5524 11 13.0001C11 12.4478 11.4477 12 12 12Z" fill="black"/>
</svg>
