<svg width="24" height="24" viewBox="0 0 24 24" fill="none" xmlns="http://www.w3.org/2000/svg">
<path fill-rule="evenodd" clip-rule="evenodd" d="M12 1C12.3086 1 12.5999 1.14247 12.7894 1.38606L19.7894 10.3861C19.9259 10.5616 20 10.7776 20 11V21C20 21.5523 19.5523 22 19 22C18.4477 22 18 21.5523 18 21V15.402C17.3413 15.7748 16.5129 16 15.4998 16C14.4869 16 13.6586 15.7749 13 15.4021V21C13 21.5523 12.5523 22 12 22C11.4477 22 11 21.5523 11 21V15.402C10.3413 15.7748 9.51287 16 8.49982 16C7.48692 16 6.65858 15.7749 6 15.4021V21C6 21.5523 5.55228 22 5 22C4.44772 22 4 21.5523 4 21V11C4 10.7776 4.07412 10.5616 4.21065 10.3861L11.2106 1.38606C11.4001 1.14247 11.6914 1 12 1ZM13 12C13 12.3054 13.1162 12.8158 13.4656 13.2318C13.7823 13.6089 14.3656 14 15.4998 14C16.6341 14 17.2175 13.6088 17.5342 13.2318C17.8837 12.8158 17.9999 12.3053 17.9999 12.0001L18 11.983V11.3431L15.3998 8H8.60019L6 11.3431V12C6 12.3054 6.11624 12.8158 6.46564 13.2318C6.78231 13.6089 7.36558 14 8.49982 14C9.63407 14 10.2175 13.6088 10.5342 13.2318C10.8836 12.8159 11 12.3056 11 12.0003C11 11.4481 11.4477 11 12 11C12.5523 11 13 11.4477 13 12ZM13.8442 6L12 3.62882L10.1558 6H13.8442Z" fill="black"/>
</svg>
