<svg width="24" height="24" viewBox="0 0 24 24" fill="none" xmlns="http://www.w3.org/2000/svg">
<path fill-rule="evenodd" clip-rule="evenodd" d="M14.7079 3.20747C16.3964 1.57715 19.0799 1.60068 20.7396 3.26037C22.3993 4.92006 22.4229 7.60359 20.7925 9.29213L10.0198 20.4496C9.06317 21.4404 7.74501 22 6.36774 22H3.01531C2.45457 22 2 21.5454 2 20.9847V17.6323C2 16.255 2.55959 14.9368 3.5504 13.9802L14.7079 3.20747ZM19.3038 4.69623C18.4273 3.81973 17.0101 3.8073 16.1183 4.66829L4.96086 15.441C4.36637 16.015 4.03061 16.8059 4.03061 17.6323V19.9694H6.36774C7.1941 19.9694 7.985 19.6336 8.55898 19.0391L19.3317 7.88168C20.1927 6.98994 20.1803 5.57273 19.3038 4.69623Z" fill="black"/>
<path fill-rule="evenodd" clip-rule="evenodd" d="M18.5423 10.5342L13.4658 5.45771L14.9016 4.02185L19.9781 9.09839L18.5423 10.5342ZM8.38922 20.6873L3.31268 15.6108L4.74854 14.1749L9.82508 19.2515L8.38922 20.6873Z" fill="black"/>
</svg>
