<svg width="24" height="24" viewBox="0 0 24 24" fill="none" xmlns="http://www.w3.org/2000/svg">
<path d="M11 7C11 6.44772 10.5523 6 10 6C9.44772 6 9 6.44772 9 7V8C9 8.55228 9.44772 9 10 9C10.5523 9 11 8.55228 11 8V7Z" fill="black"/>
<path fill-rule="evenodd" clip-rule="evenodd" d="M6 7C6 3.68629 8.68629 1 12 1C15.3137 1 18 3.68629 18 7V17C18 20.3137 15.3137 23 12 23C8.68629 23 6 20.3137 6 17V7ZM12 3C14.2091 3 16 4.79086 16 7V11H8V7C8 4.79086 9.79086 3 12 3ZM12 21C9.79086 21 8 19.2091 8 17V13H16V17C16 19.2091 14.2091 21 12 21Z" fill="black"/>
</svg>
