<svg width="24" height="24" viewBox="0 0 24 24" fill="none" xmlns="http://www.w3.org/2000/svg">
<path fill-rule="evenodd" clip-rule="evenodd" d="M12 6.91669C9.79086 6.91669 8 8.70755 8 10.9167C8 13.1258 9.79086 14.9167 12 14.9167C14.2091 14.9167 16 13.1258 16 10.9167C16 8.70755 14.2091 6.91669 12 6.91669ZM10 10.9167C10 9.81212 10.8954 8.91669 12 8.91669C13.1046 8.91669 14 9.81212 14 10.9167C14 12.0213 13.1046 12.9167 12 12.9167C10.8954 12.9167 10 12.0213 10 10.9167Z" fill="black"/>
<path fill-rule="evenodd" clip-rule="evenodd" d="M12 2C7.03357 2 3 6.00968 3 10.9651C3 15.0329 5.71788 18.4621 9.43675 19.561C10.0266 20.2676 10.658 21.1414 11.0517 22.3175C11.1927 22.7387 11.5947 23.0164 12.0385 22.9993C12.4824 22.9821 12.8617 22.6743 12.9699 22.2435C13.268 21.0562 14.0528 20.0407 14.5069 19.5775C18.2546 18.4966 21 15.0534 21 10.9651C21 6.00968 16.9664 2 12 2ZM5 10.9651C5 7.12249 8.12988 4 12 4C15.8701 4 19 7.12249 19 10.9651C19 14.2061 16.7733 16.9362 13.7518 17.7105C13.5979 17.75 13.4556 17.8255 13.3367 17.9309C12.9984 18.2307 12.4534 18.8242 11.9599 19.6172C11.5516 18.9725 11.1213 18.4493 10.7581 18.0271C10.6246 17.8719 10.4466 17.7613 10.2482 17.7105C7.22673 16.9362 5 14.2061 5 10.9651Z" fill="black"/>
</svg>
