<svg width="24" height="24" viewBox="0 0 24 24" fill="none" xmlns="http://www.w3.org/2000/svg">
<path fill-rule="evenodd" clip-rule="evenodd" d="M3 10.9651C3 6.00968 7.03357 2 12 2C16.9664 2 21 6.00968 21 10.9651C21 15.0534 18.2546 18.4966 14.5069 19.5775C14.0528 20.0407 13.268 21.0562 12.9699 22.2435C12.8617 22.6743 12.4824 22.9821 12.0385 22.9993C11.5947 23.0164 11.1927 22.7387 11.0517 22.3175C10.658 21.1414 10.0266 20.2676 9.43675 19.561C5.71788 18.4621 3 15.0329 3 10.9651ZM8 10.9167C8 8.70755 9.79086 6.91669 12 6.91669C14.2091 6.91669 16 8.70755 16 10.9167C16 13.1258 14.2091 14.9167 12 14.9167C9.79086 14.9167 8 13.1258 8 10.9167Z" fill="black"/>
</svg>
