<svg width="24" height="24" viewBox="0 0 24 24" fill="none" xmlns="http://www.w3.org/2000/svg">
<path fill-rule="evenodd" clip-rule="evenodd" d="M13.4886 3.6166C12.6665 2.79446 11.3335 2.79447 10.5114 3.61661L3.61661 10.5114C2.79447 11.3335 2.79446 12.6665 3.6166 13.4886L10.5114 20.3834C11.3335 21.2055 12.6665 21.2055 13.4886 20.3834L20.3834 13.4886C21.2055 12.6665 21.2055 11.3335 20.3834 10.5114L13.4886 3.6166ZM9.09718 2.2024C10.7004 0.599218 13.2996 0.599188 14.9028 2.20238L21.7976 9.09717C23.4008 10.7004 23.4008 13.2996 21.7976 14.9028L14.9028 21.7976C13.2996 23.4008 10.7004 23.4008 9.09717 21.7976L2.20238 14.9028C0.59919 13.2996 0.599215 10.7004 2.2024 9.09718L9.09718 2.2024Z" fill="black"/>
<path fill-rule="evenodd" clip-rule="evenodd" d="M4.5 16.5C4.5 17.0523 4.94772 17.5 5.5 17.5H7C7.86548 17.5 8.70761 17.2193 9.4 16.7L12 14.75L14.6 16.7C15.2924 17.2193 16.1345 17.5 17 17.5H18.5C19.0523 17.5 19.5 17.0523 19.5 16.5C19.5 15.9477 19.0523 15.5 18.5 15.5H17C16.5673 15.5 16.1462 15.3596 15.8 15.1L13.2 13.15C12.4889 12.6167 11.5111 12.6167 10.8 13.15L8.2 15.1C7.85381 15.3596 7.43274 15.5 7 15.5H5.5C4.94772 15.5 4.5 15.9477 4.5 16.5Z" fill="black"/>
<path fill-rule="evenodd" clip-rule="evenodd" d="M4.5 7.5C4.5 6.94772 4.94772 6.5 5.5 6.5H7C7.86548 6.5 8.70761 6.78071 9.4 7.3L12 9.25L14.6 7.3C15.2924 6.78071 16.1345 6.5 17 6.5H18.5C19.0523 6.5 19.5 6.94772 19.5 7.5C19.5 8.05228 19.0523 8.5 18.5 8.5H17C16.5673 8.5 16.1462 8.64036 15.8 8.9L13.2 10.85C12.4889 11.3833 11.5111 11.3833 10.8 10.85L8.2 8.9C7.85381 8.64036 7.43274 8.5 7 8.5H5.5C4.94772 8.5 4.5 8.05228 4.5 7.5Z" fill="black"/>
</svg>
