<svg width="24" height="24" viewBox="0 0 24 24" fill="none" xmlns="http://www.w3.org/2000/svg">
<path fill-rule="evenodd" clip-rule="evenodd" d="M19 8C19 9.96439 18.1908 11.7398 16.8876 13.0111C18.1035 13.1384 18.9425 14.3413 18.5973 15.5494L17.376 19.8242C17.008 21.1121 15.8308 22 14.4914 22H9.5086C8.16916 22 6.992 21.1121 6.62403 19.8242L5.40268 15.5494C5.0575 14.3413 5.89654 13.1384 7.11235 13.0111C5.80916 11.7398 5 9.96439 5 8C5 4.13401 8.13401 1 12 1C15.866 1 19 4.13401 19 8ZM7 8C7 5.23858 9.23858 3 12 3C14.7614 3 17 5.23858 17 8C17 10.419 15.2822 12.4367 13 12.9V8C13 7.44772 12.5523 7 12 7C11.4477 7 11 7.44772 11 8V12.9C8.71776 12.4367 7 10.419 7 8Z" fill="black"/>
</svg>
