<svg width="24" height="24" viewBox="0 0 24 24" fill="none" xmlns="http://www.w3.org/2000/svg">
<path fill-rule="evenodd" clip-rule="evenodd" d="M12.0858 8.15761C10.755 7.29732 9 8.25258 9 9.83721V14.0999C9 15.7099 10.8053 16.66 12.1324 15.7485L15.3294 13.5526C16.506 12.7444 16.4816 10.9993 15.2828 10.2244L12.0858 8.15761ZM14.197 11.904L11 14.0999V9.83721L14.197 11.904Z" fill="black"/>
<path fill-rule="evenodd" clip-rule="evenodd" d="M12 2C6.47715 2 2 6.47715 2 12C2 17.5228 6.47715 22 12 22C17.5228 22 22 17.5228 22 12C22 6.47715 17.5228 2 12 2ZM4 12C4 7.58172 7.58172 4 12 4C16.4183 4 20 7.58172 20 12C20 16.4183 16.4183 20 12 20C7.58172 20 4 16.4183 4 12Z" fill="black"/>
</svg>
