<svg width="24" height="24" viewBox="0 0 24 24" fill="none" xmlns="http://www.w3.org/2000/svg">
<path d="M4.52632 20.0386L6.00508 18.4367L11.9468 11.9998L6 5.55746L4.48146 3.91238C4.17985 4.3734 4 4.93037 4 5.55057V18.3331C4 18.9848 4.19789 19.5655 4.52632 20.0386Z" fill="black"/>
<path d="M8.44381 5.25629L6.07885 2.69424C6.85957 2.43934 7.75209 2.49842 8.55491 2.98498L16.0661 7.53722L14.6818 9.03688L13.3077 10.5255L8.44381 5.25629Z" fill="black"/>
<path d="M17.8707 8.63092L16.4272 10.0947L14.6686 11.9998L16.165 13.6209L17.5421 15.1128L18.8503 14.2705C20.7145 13.07 20.6772 10.3318 18.781 9.18259L17.8707 8.63092Z" fill="black"/>
<path d="M14.4579 14.7201L15.835 16.2121L8.6242 20.8554C7.83504 21.3636 6.94722 21.4469 6.16205 21.2152L8.78637 18.3722L13.3077 13.4741L14.4579 14.7201Z" fill="black"/>
</svg>
