<svg width="24" height="24" viewBox="0 0 24 24" fill="none" xmlns="http://www.w3.org/2000/svg">
<path d="M2.29289 2.29289C2.68342 1.90237 3.31658 1.90237 3.70711 2.29289L6.11656 4.70235C7.13818 4.06931 8.37063 3.89677 9.57339 4.0857C11.0734 4.32131 12.5889 5.12039 13.805 6.38557C14.1878 6.78373 14.1753 7.41677 13.7771 7.79951L7.60673 13.7308C7.20857 14.1135 6.57553 14.101 6.19279 13.7029C4.97663 12.4377 4.23803 10.8918 4.06185 9.38369C3.92838 8.24129 4.1183 7.08518 4.70701 6.12123L2.29289 3.70711C1.90237 3.31658 1.90237 2.68342 2.29289 2.29289Z" fill="black"/>
<path d="M14.7071 10.2929C14.3166 9.90237 13.6834 9.90237 13.2929 10.2929C12.9024 10.6834 12.9024 11.3166 13.2929 11.7071L14.1368 12.551L12.5197 14.1055L11.7071 13.2929C11.3166 12.9024 10.6834 12.9024 10.2929 13.2929C9.90237 13.6834 9.90237 14.3166 10.2929 14.7071L11.0775 15.4917L10.3147 16.225C9.91652 16.6078 9.90402 17.2408 10.2868 17.639C11.5029 18.9041 13.0184 19.7032 14.5184 19.9388C15.7048 20.1252 16.9202 19.9598 17.9335 19.3477L20.2929 21.7071C20.6834 22.0976 21.3166 22.0976 21.7071 21.7071C22.0976 21.3166 22.0976 20.6834 21.7071 20.2929L19.3591 17.9449C19.968 16.9727 20.1653 15.7997 20.03 14.6408C19.8538 13.1327 19.1152 11.5868 17.899 10.3217C17.5163 9.9235 16.8832 9.91099 16.4851 10.2937L15.5789 11.1647L14.7071 10.2929Z" fill="black"/>
</svg>
