<svg width="24" height="24" viewBox="0 0 24 24" fill="none" xmlns="http://www.w3.org/2000/svg">
<path d="M8 2C8.55228 2 9 2.44772 9 3V7.10002C9.32311 7.03443 9.65753 7 10 7H14C14.3425 7 14.6769 7.03443 15 7.10002V3C15 2.44772 15.4477 2 16 2C16.5523 2 17 2.44772 17 3V7.99963C18.2144 8.91184 19 10.3642 19 12V14C19 16.7614 16.7614 19 14 19H13V21C13 21.5523 12.5523 22 12 22C11.4477 22 11 21.5523 11 21V19H10C7.23858 19 5 16.7614 5 14V12C5 10.3642 5.78555 8.91184 7 7.99963V3C7 2.44772 7.44772 2 8 2Z" fill="black"/>
</svg>
