<svg width="24" height="24" viewBox="0 0 24 24" fill="none" xmlns="http://www.w3.org/2000/svg">
<path fill-rule="evenodd" clip-rule="evenodd" d="M12 22C17.5228 22 22 17.5228 22 12C22 6.47715 17.5228 2 12 2C6.47715 2 2 6.47715 2 12C2 17.5228 6.47715 22 12 22ZM15.3225 10.2922C15.5835 10.78 15.5549 11.3718 15.2481 11.8321L13.2481 14.8321C12.9699 15.2493 12.5015 15.5 12 15.5C11.4985 15.5 11.0301 15.2493 10.7519 14.8321L8.75192 11.8321C8.44507 11.3718 8.41646 10.78 8.67749 10.2922C8.93852 9.80448 9.44681 9.5 10 9.5L14 9.5C14.5532 9.5 15.0615 9.80448 15.3225 10.2922Z" fill="black"/>
</svg>
