<svg width="24" height="24" viewBox="0 0 24 24" fill="none" xmlns="http://www.w3.org/2000/svg">
<path d="M12.1679 8.75193C12.6282 8.44507 13.22 8.41646 13.7078 8.67749C14.1955 8.93852 14.5 9.44681 14.5 10V14C14.5 14.5532 14.1955 15.0615 13.7078 15.3225C13.22 15.5835 12.6282 15.5549 12.1679 15.2481L9.16795 13.2481C8.75065 12.9699 8.5 12.5015 8.5 12C8.5 11.4985 8.75065 11.0301 9.16795 10.7519L12.1679 8.75193Z" fill="black"/>
<path fill-rule="evenodd" clip-rule="evenodd" d="M12 2C6.47715 2 2 6.47715 2 12C2 17.5228 6.47715 22 12 22C17.5228 22 22 17.5228 22 12C22 6.47715 17.5228 2 12 2ZM4 12C4 7.58172 7.58172 4 12 4C16.4183 4 20 7.58172 20 12C20 16.4183 16.4183 20 12 20C7.58172 20 4 16.4183 4 12Z" fill="black"/>
</svg>
