<svg width="24" height="24" viewBox="0 0 24 24" fill="none" xmlns="http://www.w3.org/2000/svg">
<path fill-rule="evenodd" clip-rule="evenodd" d="M12 2C17.5228 2 22 6.47715 22 12C22 17.5228 17.5228 22 12 22C6.47715 22 2 17.5228 2 12C2 6.47715 6.47715 2 12 2ZM15.3225 13.7078C15.5835 13.22 15.5549 12.6282 15.2481 12.1679L13.2481 9.16795C12.9699 8.75065 12.5015 8.5 12 8.5C11.4985 8.5 11.0301 8.75065 10.7519 9.16795L8.75192 12.1679C8.44507 12.6282 8.41646 13.22 8.67749 13.7078C8.93852 14.1955 9.44681 14.5 10 14.5L14 14.5C14.5532 14.5 15.0615 14.1955 15.3225 13.7078Z" fill="black"/>
</svg>
