<svg width="24" height="24" viewBox="0 0 24 24" fill="none" xmlns="http://www.w3.org/2000/svg">
<path d="M15.2481 12.1679C15.5549 12.6282 15.5835 13.22 15.3225 13.7078C15.0615 14.1955 14.5532 14.5 14 14.5L10 14.5C9.44681 14.5 8.93852 14.1955 8.67749 13.7078C8.41646 13.22 8.44507 12.6282 8.75192 12.1679L10.7519 9.16795C11.0301 8.75065 11.4985 8.5 12 8.5C12.5015 8.5 12.9699 8.75065 13.2481 9.16795L15.2481 12.1679Z" fill="black"/>
<path fill-rule="evenodd" clip-rule="evenodd" d="M22 12C22 6.47715 17.5228 2 12 2C6.47715 2 2 6.47715 2 12C2 17.5228 6.47715 22 12 22C17.5228 22 22 17.5228 22 12ZM12 4C16.4183 4 20 7.58172 20 12C20 16.4183 16.4183 20 12 20C7.58172 20 4 16.4183 4 12C4 7.58172 7.58172 4 12 4Z" fill="black"/>
</svg>
