<svg width="24" height="24" viewBox="0 0 24 24" fill="none" xmlns="http://www.w3.org/2000/svg">
<path d="M7 6C6.44772 6 6 6.44772 6 7V8C6 8.55228 6.44772 9 7 9H13C13.5523 9 14 8.55228 14 8V7C14 6.44772 13.5523 6 13 6H7Z" fill="black"/>
<path d="M9 11C9 10.4477 9.44772 10 10 10C10.5523 10 11.0001 10.4477 11.0001 11C11.0001 11.5523 10.5524 12 10.0001 12C9.44782 12 9 11.5523 9 11Z" fill="black"/>
<path d="M10 13C9.44772 13 9 13.4477 9 14C9 14.5523 9.44782 15 10.0001 15C10.5524 15 11.0001 14.5523 11.0001 14C11.0001 13.4477 10.5523 13 10 13Z" fill="black"/>
<path d="M9 17C9 16.4477 9.44772 16 10 16C10.5523 16 11.0001 16.4477 11.0001 17C11.0001 17.5523 10.5524 18 10.0001 18C9.44782 18 9 17.5523 9 17Z" fill="black"/>
<path d="M13 10C12.4477 10 12 10.4477 12 11C12 11.5523 12.4478 12 13.0001 12C13.5524 12 14.0001 11.5523 14.0001 11C14.0001 10.4477 13.5523 10 13 10Z" fill="black"/>
<path d="M12 14C12 13.4477 12.4477 13 13 13C13.5523 13 14.0001 13.4477 14.0001 14C14.0001 14.5523 13.5524 15 13.0001 15C12.4478 15 12 14.5523 12 14Z" fill="black"/>
<path d="M13 16C12.4477 16 12 16.4477 12 17C12 17.5523 12.4478 18 13.0001 18C13.5524 18 14.0001 17.5523 14.0001 17C14.0001 16.4477 13.5523 16 13 16Z" fill="black"/>
<path d="M6 11C6 10.4477 6.44772 10 7 10C7.55228 10 8.0001 10.4477 8.0001 11C8.0001 11.5523 7.55238 12 7.0001 12C6.44782 12 6 11.5523 6 11Z" fill="black"/>
<path d="M7 13C6.44772 13 6 13.4477 6 14C6 14.5523 6.44782 15 7.0001 15C7.55238 15 8.0001 14.5523 8.0001 14C8.0001 13.4477 7.55228 13 7 13Z" fill="black"/>
<path d="M6 17C6 16.4477 6.44772 16 7 16C7.55228 16 8.0001 16.4477 8.0001 17C8.0001 17.5523 7.55238 18 7.0001 18C6.44782 18 6 17.5523 6 17Z" fill="black"/>
<path fill-rule="evenodd" clip-rule="evenodd" d="M2 5C2 3.34315 3.34315 2 5 2H15C16.6569 2 18 3.34315 18 5V7H21C22.6569 7 24 8.34315 24 10V16C24 17.6569 22.6569 19 21 19H18C18 20.6569 16.6569 22 15 22H5C3.34315 22 2 20.6569 2 19V5ZM22 16C22 16.5523 21.5523 17 21 17H18V13H22V16ZM21 9C21.5523 9 22 9.44772 22 10V11H18V9H21ZM15 4C15.5523 4 16 4.44772 16 5V19C16 19.5523 15.5523 20 15 20H5C4.44772 20 4 19.5523 4 19V5C4 4.44772 4.44772 4 5 4H15Z" fill="black"/>
</svg>
