<svg width="24" height="24" viewBox="0 0 24 24" fill="none" xmlns="http://www.w3.org/2000/svg">
<path fill-rule="evenodd" clip-rule="evenodd" d="M21 19C21 17.8954 20.1046 17 19 17H15V16H18C19.6569 16 21 14.6569 21 13V4C21 2.34315 19.6569 1 18 1H6C4.34315 1 3 2.34315 3 4V13C3 14.6569 4.34315 16 6 16H9V17H5C3.89543 17 3 17.8954 3 19V21C3 22.1046 3.89543 23 5 23H19C20.1046 23 21 22.1046 21 21V19ZM6 3C5.44772 3 5 3.44772 5 4V13C5 13.5523 5.44772 14 6 14H18C18.5523 14 19 13.5523 19 13V4C19 3.44772 18.5523 3 18 3H6ZM13.0001 20C13.0001 19.4477 12.5523 19 12 19H19V21H12.0001C12.5524 21 13.0001 20.5523 13.0001 20ZM12.0001 21H5V19H12C11.4477 19 11 19.4477 11 20C11 20.5523 11.4478 21 12.0001 21ZM13 17H11V16H13V17Z" fill="black"/>
</svg>
