<svg width="24" height="24" viewBox="0 0 24 24" fill="none" xmlns="http://www.w3.org/2000/svg">
<path d="M17.7071 13.2929L15.7071 11.2929C15.3166 10.9024 14.6834 10.9024 14.2929 11.2929L12.2929 13.2929C11.9024 13.6834 11.9024 14.3166 12.2929 14.7071C12.6834 15.0976 13.3166 15.0976 13.7071 14.7071L14 14.4142V17C14 17.5523 14.4477 18 15 18C15.5523 18 16 17.5523 16 17V14.4142L16.2929 14.7071C16.6834 15.0976 17.3166 15.0976 17.7071 14.7071C18.0976 14.3166 18.0976 13.6834 17.7071 13.2929Z" fill="black"/>
<path fill-rule="evenodd" clip-rule="evenodd" d="M2 7C2 4.23858 4.23858 2 7 2H17C19.7614 2 22 4.23858 22 7V17C22 19.7614 19.7614 22 17 22H7C4.23858 22 2 19.7614 2 17V7ZM4 7C4 5.34315 5.34315 4 7 4H8V9C8 9.55228 8.44772 10 9 10H15C15.5523 10 16 9.55228 16 9V4H17C18.6569 4 20 5.34315 20 7V17C20 18.6569 18.6569 20 17 20H7C5.34315 20 4 18.6569 4 17V7ZM14 4H10V8H14V4Z" fill="black"/>
</svg>
