<svg width="24" height="24" viewBox="0 0 24 24" fill="none" xmlns="http://www.w3.org/2000/svg">
<path fill-rule="evenodd" clip-rule="evenodd" d="M2 12C2 6.47715 6.47715 2 12 2C17.5228 2 22 6.47715 22 12C22 17.5228 17.5228 22 12 22C6.47715 22 2 17.5228 2 12ZM7 12C7 11.4477 7.44772 11 8 11V10C8 7.79272 9.79272 6 12 6C14.2073 6 16 7.79272 16 10V10.5C16 11.0523 15.5523 11.5 15 11.5C14.4477 11.5 14 11.0523 14 10.5V10C14 8.89728 13.1027 8 12 8C10.8973 8 10 8.89728 10 10V11H11C11.5523 11 12 11.4477 12 12C12 12.5523 11.5523 13 11 13H10V15H15C15.5523 15 16 15.4477 16 16C16 16.5523 15.5523 17 15 17H8C7.44772 17 7 16.5523 7 16C7 15.4477 7.44772 15 8 15V13C7.44772 13 7 12.5523 7 12Z" fill="black"/>
</svg>
