<svg width="24" height="24" viewBox="0 0 24 24" fill="none" xmlns="http://www.w3.org/2000/svg">
<path d="M13 3C13 2.44772 12.5523 2 12 2C11.4477 2 11 2.44772 11 3V9C11 9.55228 11.4477 10 12 10C12.5523 10 13 9.55228 13 9V3Z" fill="black"/>
<path d="M8.44503 4.83104C8.93961 4.58525 9.1413 3.98507 8.89551 3.49049C8.64973 2.99591 8.04955 2.79422 7.55497 3.04001C4.26468 4.67514 2 8.07218 2 12C2 17.5229 6.47715 22 12 22C17.5228 22 22 17.5229 22 12C22 8.12074 19.7909 4.75915 16.5667 3.1015C16.0755 2.84897 15.4726 3.04244 15.2201 3.53361C14.9676 4.02478 15.161 4.62767 15.6522 4.88019C18.236 6.20861 20 8.89916 20 12C20 16.4183 16.4183 20 12 20C7.58172 20 4 16.4183 4 12C4 8.86038 5.80844 6.14131 8.44503 4.83104Z" fill="black"/>
</svg>
