<svg width="24" height="24" viewBox="0 0 24 24" fill="none" xmlns="http://www.w3.org/2000/svg">
<path d="M7 14C7 13.4477 7.44772 13 8 13C8.55228 13 9.0001 13.4477 9.0001 14C9.0001 14.5523 8.55238 15 8.0001 15C7.44782 15 7 14.5523 7 14Z" fill="black"/>
<path d="M13 16C12.4477 16 12 16.4477 12 17C12 17.5523 12.4477 18 13 18H16C16.5523 18 17 17.5523 17 17C17 16.4477 16.5523 16 16 16H13Z" fill="black"/>
<path d="M8 4C8 3.44772 8.44772 3 9 3H15C15.5523 3 16 3.44772 16 4C16 4.55228 15.5523 5 15 5H9C8.44772 5 8 4.55228 8 4Z" fill="black"/>
<path d="M9 6C8.44772 6 8 6.44772 8 7C8 7.55228 8.44772 8 9 8H12C12.5523 8 13 7.55228 13 7C13 6.44772 12.5523 6 12 6H9Z" fill="black"/>
<path fill-rule="evenodd" clip-rule="evenodd" d="M6 0C5.44772 0 5 0.447715 5 1V9.17071C3.83481 9.58254 3 10.6938 3 12V19C3 20.6569 4.34315 22 6 22H18C19.6569 22 21 20.6569 21 19V12C21 10.6938 20.1652 9.58254 19 9.17071V1C19 0.447715 18.5523 0 18 0H6ZM6 11C5.44772 11 5 11.4477 5 12V19C5 19.5523 5.44772 20 6 20H18C18.5523 20 19 19.5523 19 19V12C19 11.4477 18.5523 11 18 11H6ZM17 9V2H7V9H17Z" fill="black"/>
</svg>
