<svg width="24" height="24" viewBox="0 0 24 24" fill="none" xmlns="http://www.w3.org/2000/svg">
<path d="M3 13C2.44772 13 2 12.5523 2 12C2 6.47772 6.47771 2 12 2C17.5223 2 22 6.47772 22 12C22 17.5223 17.5223 22 12 22C11.4477 22 11 21.5523 11 21C11 20.4477 11.4477 20 12 20C16.4177 20 20 16.4177 20 12C20 7.58228 16.4177 4 12 4C7.92094 4 4.55413 7.05411 4.06192 11H12.5587L11.2851 9.7264C10.8946 9.33587 10.8946 8.70271 11.2851 8.31218C11.6756 7.92166 12.3088 7.92166 12.6993 8.31218L15.6993 11.3122C16.0898 11.7027 16.0898 12.3359 15.6993 12.7264L12.6993 15.7264C12.3088 16.1169 11.6756 16.1169 11.2851 15.7264C10.8946 15.3359 10.8946 14.7027 11.2851 14.3122L12.5973 13H3Z" fill="black"/>
<path d="M8 20C7.44772 20 7 20.4477 7 21C7 21.5523 7.44782 22 8.0001 22C8.55238 22 9.0001 21.5523 9.0001 21C9.0001 20.4477 8.55228 20 8 20Z" fill="black"/>
<path d="M4 19C4 18.4477 4.44772 18 5 18C5.55228 18 6.0001 18.4477 6.0001 19C6.0001 19.5523 5.55238 20 5.0001 20C4.44782 20 4 19.5523 4 19Z" fill="black"/>
<path d="M3 15C2.44772 15 2 15.4477 2 16C2 16.5523 2.44782 17 3.0001 17C3.55238 17 4.0001 16.5523 4.0001 16C4.0001 15.4477 3.55228 15 3 15Z" fill="black"/>
</svg>
