<svg width="24" height="24" viewBox="0 0 24 24" fill="none" xmlns="http://www.w3.org/2000/svg">
<path fill-rule="evenodd" clip-rule="evenodd" d="M12 13.75C12.6904 13.75 13.25 14.3096 13.25 15V21C13.25 21.6904 12.6904 22.25 12 22.25C11.3096 22.25 10.75 21.6904 10.75 21V15C10.75 14.3096 11.3096 13.75 12 13.75Z" fill="black"/>
<path fill-rule="evenodd" clip-rule="evenodd" d="M12.8839 14.1161C13.372 14.6043 13.372 15.3957 12.8839 15.8839L7.88388 20.8839C7.39573 21.372 6.60427 21.372 6.11612 20.8839C5.62796 20.3957 5.62796 19.6043 6.11612 19.1161L11.1161 14.1161C11.6043 13.628 12.3957 13.628 12.8839 14.1161Z" fill="black"/>
<path fill-rule="evenodd" clip-rule="evenodd" d="M11.1161 14.1161C11.6043 13.628 12.3957 13.628 12.8839 14.1161L17.8839 19.1161C18.372 19.6043 18.372 20.3957 17.8839 20.8839C17.3957 21.372 16.6043 21.372 16.1161 20.8839L11.1161 15.8839C10.628 15.3957 10.628 14.6043 11.1161 14.1161Z" fill="black"/>
<path fill-rule="evenodd" clip-rule="evenodd" d="M12 0.75C12.6904 0.75 13.25 1.30964 13.25 2V3C13.25 3.69036 12.6904 4.25 12 4.25C11.3096 4.25 10.75 3.69036 10.75 3V2C10.75 1.30964 11.3096 0.75 12 0.75Z" fill="black"/>
<path fill-rule="evenodd" clip-rule="evenodd" d="M1.75 4C1.75 2.75736 2.75736 1.75 4 1.75H20C21.2426 1.75 22.25 2.75736 22.25 4V14C22.25 15.2426 21.2426 16.25 20 16.25H4C2.75736 16.25 1.75 15.2426 1.75 14V4ZM4.25 4.25V13.75H19.75V4.25H4.25Z" fill="black"/>
</svg>
