<svg width="24" height="24" viewBox="0 0 24 24" fill="none" xmlns="http://www.w3.org/2000/svg">
<path fill-rule="evenodd" clip-rule="evenodd" d="M12 1C12.5523 1 13 1.44772 13 2H19C20.6569 2 22 3.34315 22 5V13C22 14.6569 20.6569 16 19 16H14.4142L17.7071 19.2929C18.0976 19.6834 18.0976 20.3166 17.7071 20.7071C17.3166 21.0976 16.6834 21.0976 16.2929 20.7071L13 17.4142V21C13 21.5523 12.5523 22 12 22C11.4477 22 11 21.5523 11 21V17.4142L7.70711 20.7071C7.31658 21.0976 6.68342 21.0976 6.29289 20.7071C5.90237 20.3166 5.90237 19.6834 6.29289 19.2929L9.58579 16H5C3.34315 16 2 14.6569 2 13V5C2 3.34315 3.34315 2 5 2H11C11 1.44772 11.4477 1 12 1ZM16.7476 7.66414C17.1144 7.25124 17.077 6.61918 16.6641 6.25239C16.2512 5.8856 15.6192 5.92298 15.2524 6.33588L13.1983 8.64818L11.2645 7.19965C10.8483 6.88791 10.2627 6.94714 9.91737 7.33588L7.25239 10.3359C6.8856 10.7488 6.92298 11.3808 7.33588 11.7476C7.74878 12.1144 8.38084 12.077 8.74763 11.6641L10.8017 9.35185L12.7355 10.8004C13.1517 11.1121 13.7373 11.0529 14.0827 10.6641L16.7476 7.66414Z" fill="black"/>
</svg>
