<svg width="24" height="24" viewBox="0 0 24 24" fill="none" xmlns="http://www.w3.org/2000/svg">
<path fill-rule="evenodd" clip-rule="evenodd" d="M8 7C8 7.55229 8.44772 8 9 8H15C15.5523 8 16 7.55229 16 7C16 6.44771 15.5523 6 15 6H9C8.44772 6 8 6.44771 8 7Z" fill="black"/>
<path fill-rule="evenodd" clip-rule="evenodd" d="M12 10C11.4477 10 11 10.4477 11 11V17C11 17.5523 11.4477 18 12 18C12.5523 18 13 17.5523 13 17V11C13 10.4477 12.5523 10 12 10Z" fill="black"/>
<path d="M11.2796 9.31357C11.6342 8.89548 12.3658 8.89548 12.7204 9.31357L14.8304 11.8016C15.2544 12.3016 14.8346 13 14.1101 13H9.88994C9.16538 13 8.74556 12.3016 9.16958 11.8016L11.2796 9.31357Z" fill="black"/>
<path fill-rule="evenodd" clip-rule="evenodd" d="M12 20C7.58172 20 4 16.4183 4 12C4 7.58172 7.58172 4 12 4C16.4183 4 20 7.58172 20 12C20 16.4183 16.4183 20 12 20ZM2 12C2 17.5228 6.47715 22 12 22C17.5228 22 22 17.5228 22 12C22 6.47715 17.5228 2 12 2C6.47715 2 2 6.47715 2 12Z" fill="black"/>
</svg>
