<svg width="24" height="24" viewBox="0 0 24 24" fill="none" xmlns="http://www.w3.org/2000/svg">
<path d="M10.75 12.0178L10.75 21C10.75 21.6904 11.3096 22.25 12 22.25C12.6904 22.25 13.25 21.6904 13.25 21L13.25 12.0178L15.1161 13.8839C15.6043 14.372 16.3957 14.372 16.8839 13.8839C17.372 13.3957 17.372 12.6043 16.8839 12.1161L12.8839 8.11612C12.6495 7.88169 12.3315 7.75 12 7.75C11.6685 7.75 11.3505 7.88169 11.1161 8.11612L7.11612 12.1161C6.62796 12.6043 6.62796 13.3957 7.11612 13.8839C7.60427 14.372 8.39573 14.372 8.88388 13.8839L10.75 12.0178Z" fill="black"/>
<path d="M4 6.25C4.69036 6.25 5.25 5.69036 5.25 5C5.25 4.58579 5.58579 4.25 6 4.25H18C18.4142 4.25 18.75 4.58579 18.75 5C18.75 5.69036 19.3096 6.25 20 6.25C20.6904 6.25 21.25 5.69036 21.25 5C21.25 3.20507 19.7949 1.75 18 1.75H6C4.20507 1.75 2.75 3.20507 2.75 5C2.75 5.69036 3.30964 6.25 4 6.25Z" fill="black"/>
</svg>
