<svg width="24" height="24" viewBox="0 0 24 24" fill="none" xmlns="http://www.w3.org/2000/svg">
<path d="M13 11.4142L15.2929 13.7071C15.6834 14.0976 16.3166 14.0976 16.7071 13.7071C17.0976 13.3166 17.0976 12.6834 16.7071 12.2929L12.7071 8.29289C12.5196 8.10536 12.2652 8 12 8C11.7348 8 11.4804 8.10536 11.2929 8.29289L7.29289 12.2929C6.90237 12.6834 6.90237 13.3166 7.29289 13.7071C7.68342 14.0976 8.31658 14.0976 8.70711 13.7071L11 11.4142L11 21C11 21.5523 11.4477 22 12 22C12.5523 22 13 21.5523 13 21L13 11.4142Z" fill="black"/>
<path d="M4 6C4.55228 6 5 5.55228 5 5C5 4.44772 5.44772 4 6 4H18C18.5523 4 19 4.44772 19 5C19 5.55228 19.4477 6 20 6C20.5523 6 21 5.55228 21 5C21 3.34315 19.6569 2 18 2H6C4.34315 2 3 3.34315 3 5C3 5.55228 3.44772 6 4 6Z" fill="black"/>
</svg>
