<svg width="24" height="24" viewBox="0 0 24 24" fill="none" xmlns="http://www.w3.org/2000/svg">
<path fill-rule="evenodd" clip-rule="evenodd" d="M12 22C6.47715 22 2 17.5228 2 12C2 6.47715 6.47715 2 12 2C17.5228 2 22 6.47715 22 12C22 17.5228 17.5228 22 12 22ZM9 8C8.44772 8 8 7.55229 8 7C8 6.44771 8.44772 6 9 6H15C15.5523 6 16 6.44771 16 7C16 7.55229 15.5523 8 15 8H9ZM12 18C11.4477 18 11 17.5523 11 17V13H9.88994C9.16538 13 8.74556 12.3016 9.16958 11.8016L11.2796 9.31357C11.6342 8.89548 12.3658 8.89548 12.7204 9.31357L14.8304 11.8016C15.2544 12.3016 14.8346 13 14.1101 13H13V17C13 17.5523 12.5523 18 12 18Z" fill="black"/>
</svg>
