<svg width="24" height="24" viewBox="0 0 24 24" fill="none" xmlns="http://www.w3.org/2000/svg">
<g clip-path="url(#clip0_30_21911)">
<path fill-rule="evenodd" clip-rule="evenodd" d="M14 7.9843C14.5761 8.2704 15.0188 8.79821 15.1828 9.45429L15.2567 9.75H16V5C16 3.34315 14.6569 2 13 2H4C2.34315 2 1 3.34315 1 5V19C1 20.6569 2.34315 22 4 22H12.9839C12.8342 21.6988 12.75 21.3592 12.75 21C12.75 20.6408 12.8342 20.3012 12.9839 20C13.0317 19.9038 13.0862 19.8115 13.1467 19.7238C12.3322 19.1927 11.7676 18.3046 11.6814 17.2699L11.2729 12.3687L11.2074 12.1064C10.6841 11.9094 10.2537 11.5231 9.99953 11.0309C9.98321 11.5689 9.54195 12 9 12H6C5.44772 12 5 11.5523 5 11C5 10.4477 5.44772 10 6 10H9C9.31612 10 9.59797 10.1467 9.78123 10.3757C9.76069 10.2535 9.75 10.128 9.75 10C9.75 8.75736 10.7574 7.75 12 7.75H13C13.3562 7.75 13.6966 7.83363 14 7.9843ZM6 6C5.44772 6 5 6.44772 5 7C5 7.55228 5.44772 8 6 8H8C8.55228 8 9 7.55228 9 7C9 6.44772 8.55228 6 8 6H6ZM6 14C5.44772 14 5 14.4477 5 15C5 15.5523 5.44772 16 6 16H10C10.5523 16 11 15.5523 11 15C11 14.4477 10.5523 14 10 14H6Z" fill="black"/>
<path d="M15.7076 20.2934C15.5266 20.1121 15.2764 20 15 20C14.4477 20 14 20.4477 14 21C14 21.2764 14.1122 21.5266 14.2934 21.7076C14.4744 21.8883 14.7242 22 15.0001 22C15.5524 22 16.0001 21.5523 16.0001 21C16.0001 20.7241 15.8883 20.4743 15.7076 20.2934Z" fill="black"/>
<path d="M20 20C19.4477 20 19 20.4477 19 21C19 21.5523 19.4478 22 20.0001 22C20.5524 22 21.0001 21.5523 21.0001 21C21.0001 20.4477 20.5523 20 20 20Z" fill="black"/>
<path fill-rule="evenodd" clip-rule="evenodd" d="M11 10C11 9.44772 11.4477 9 12 9H13C13.4589 9 13.8589 9.3123 13.9701 9.75746L14.2808 11H22C22.294 11 22.573 11.1293 22.763 11.3536C22.953 11.5779 23.0347 11.8744 22.9864 12.1644L22.1257 17.3288C21.9649 18.2932 21.1306 19 20.1529 19H14.9201C13.88 19 13.0134 18.2027 12.927 17.1661L12.5102 12.1639L12.2192 11H12C11.4477 11 11 10.5523 11 10ZM14.5868 13L14.9201 17H20.1529L20.8195 13H14.5868Z" fill="black"/>
<path fill-rule="evenodd" clip-rule="evenodd" d="M14 18.7761C13.4077 18.4687 12.986 17.873 12.927 17.1661L12.5102 12.1639L12.2192 11H12C11.4477 11 11 10.5523 11 10C11 9.44772 11.4477 9 12 9H13C13.4589 9 13.8589 9.3123 13.9701 9.75746L14 9.87689L14.2808 11H16H22C22.294 11 22.573 11.1293 22.763 11.3536C22.953 11.5779 23.0347 11.8744 22.9864 12.1644L22.1257 17.3288C21.9649 18.2932 21.1306 19 20.1529 19H16H14.9201C14.5894 19 14.2761 18.9194 14 18.7761ZM14.5868 13L14.9201 17H20.1529L20.8195 13H14.5868Z" fill="black"/>
</g>
<defs>
<clipPath id="clip0_30_21911">
<rect width="24" height="24" fill="white"/>
</clipPath>
</defs>
</svg>
