<svg width="24" height="24" viewBox="0 0 24 24" fill="none" xmlns="http://www.w3.org/2000/svg">
<g clip-path="url(#clip0_30_22961)">
<path fill-rule="evenodd" clip-rule="evenodd" d="M10.4623 0.0261581C8.04739 -0.246598 6 1.64007 6 3.99985C6 4.34511 6.04388 4.68023 6.12649 4.99988H4C2.34315 4.99988 1 6.34302 1 7.99988V19C1 20.6569 2.34314 22 4 22H7.77C8.16467 22 8.52243 21.7679 8.68323 21.4075C8.84404 21.0471 8.77781 20.6258 8.51417 20.3321C8.13255 19.9069 7.93007 19.327 8.02421 18.6916C8.15252 17.823 8.89038 17.1128 9.7628 17.0136C9.90021 16.9982 10.0352 16.9965 10.1664 17.0074C11.1959 17.0932 12.0001 17.9535 12.0001 19C12.0001 19.5132 11.8082 19.9761 11.4889 20.3288C11.2234 20.6219 11.1556 21.0439 11.3159 21.4055C11.4763 21.767 11.8346 22 12.2301 22H16C17.6569 22 19.0001 20.6568 19 18.9999L18.9999 16.8718C19.5028 17.0023 20.0439 17.0368 20.6013 16.9543C22.3725 16.6925 23.7727 15.2297 23.9735 13.4623C24.2463 11.0474 22.3596 9.00005 19.9998 9.00005C19.6546 9.00005 19.3195 9.04392 18.9999 9.12652L19 8.00008C19.0001 6.34314 17.6569 4.99988 16 4.99988H13.8718C14.0022 4.49694 14.0368 3.95578 13.9543 3.39835C13.6924 1.62716 12.2297 0.227001 10.4623 0.0261581ZM10.2376 2.0135C9.02255 1.87637 8 2.81966 8 3.99985C8 4.51306 8.19183 4.97595 8.5112 5.3286C8.77668 5.62173 8.84446 6.04377 8.68413 6.40529C8.5238 6.76681 8.16547 6.99988 7.77 6.99988H4C3.44771 6.99988 3 7.44759 3 7.99988V19C3 19.5523 3.44771 20 4 20H6.12831C5.99779 19.497 5.9632 18.9561 6.0458 18.3985C6.28972 16.7486 7.57519 15.4206 9.17881 15.0842C9.29662 15.0595 9.41615 15.0402 9.53712 15.0264C11.1886 14.8399 12.6685 15.6632 13.4392 16.9572C13.7954 17.5553 14.0001 18.254 14.0001 19C14.0001 19.3453 13.9562 19.6804 13.8736 20H16C16.5523 20 17 19.5523 17 19L16.9998 15.2302C16.9998 14.8355 17.2319 14.4777 17.5923 14.3169C17.9528 14.1561 18.3741 14.2223 18.6678 14.486C19.0929 14.8676 19.6728 15.0701 20.3082 14.9759C21.1768 14.8476 21.887 14.1097 21.9862 13.2373C22.123 12.0225 21.1799 11.0001 19.9998 11.0001C19.4866 11.0001 19.0237 11.1919 18.6711 11.5113C18.3779 11.7767 17.9559 11.8445 17.5944 11.6842C17.2328 11.5238 16.9998 11.1655 16.9998 10.77L17 7.99994C17 7.44764 16.5523 6.99988 16 6.99988H12.2301C11.8354 6.99988 11.4776 6.76774 11.3168 6.40731C11.156 6.04688 11.2223 5.62559 11.4859 5.33189C11.8675 4.90675 12.0699 4.32647 11.9758 3.69104C11.8475 2.82261 11.1098 2.11293 10.2376 2.0135Z" fill="black"/>
</g>
<defs>
<clipPath id="clip0_30_22961">
<rect width="24" height="24" fill="white"/>
</clipPath>
</defs>
</svg>
