<svg width="24" height="24" viewBox="0 0 24 24" fill="none" xmlns="http://www.w3.org/2000/svg">
<path d="M20.7791 14.69C19.2923 16.7442 16.5944 18.2281 13.9049 17.971C13.3551 17.9185 12.9521 17.4302 13.0046 16.8804C13.0571 16.3307 13.5454 15.9276 14.0952 15.9801C15.9697 16.1593 18.0193 15.0918 19.159 13.5174C19.5353 12.9975 19.7923 12.4487 19.9158 11.9021C19.1566 12.5975 18.0871 12.9999 17.0001 12.9999C14.9694 12.9999 13.0001 11.5958 13.0001 9.49988C13.0001 7.40391 14.9694 5.99988 17.0001 5.99988C18.1585 5.99988 19.4442 6.465 20.2777 7.28848C21.4295 8.4264 21.977 9.74284 21.9993 11.0809C22.0214 12.3982 21.5341 13.647 20.7791 14.69Z" fill="black"/>
<path d="M9.77911 14.69C8.29226 16.7442 5.59437 18.2281 2.90492 17.971C2.35514 17.9185 1.95205 17.4302 2.00459 16.8804C2.05713 16.3307 2.54541 15.9276 3.09519 15.9801C4.96968 16.1593 7.01934 15.0918 8.15899 13.5174C8.53529 12.9975 8.7923 12.4487 8.91578 11.9021C8.15658 12.5975 7.08711 12.9999 6.00006 12.9999C3.96938 12.9999 2.00006 11.5958 2.00006 9.49988C2.00006 7.40391 3.96938 5.99988 6.00006 5.99988C7.15847 5.99988 8.44419 6.465 9.27769 7.28848C10.4295 8.4264 10.977 9.74284 10.9993 11.0809C11.0214 12.3982 10.5341 13.647 9.77911 14.69Z" fill="black"/>
</svg>
