<svg width="24" height="24" viewBox="0 0 24 24" fill="none" xmlns="http://www.w3.org/2000/svg">
<path fill-rule="evenodd" clip-rule="evenodd" d="M1 17C1 18.6569 2.34315 20 4 20H8C9.65685 20 11 18.6569 11 17V13C11 11.3431 9.65685 10 8 10H2C1.44772 10 1 10.4477 1 11V17ZM4 18C3.44772 18 3 17.5523 3 17V12H8C8.55228 12 9 12.4477 9 13V17C9 17.5523 8.55228 18 8 18H4Z" fill="black"/>
<path fill-rule="evenodd" clip-rule="evenodd" d="M13 17C13 18.6569 14.3431 20 16 20H20C21.6569 20 23 18.6569 23 17V13C23 11.3431 21.6569 10 20 10H14C13.4477 10 13 10.4477 13 11V17ZM16 18C15.4477 18 15 17.5523 15 17V12H20C20.5523 12 21 12.4477 21 13V17C21 17.5523 20.5523 18 20 18H16Z" fill="black"/>
<path fill-rule="evenodd" clip-rule="evenodd" d="M2 12C2.55228 12 3 11.5523 3 11C3 9.27161 3.29668 8.07379 3.95926 7.30079C4.59332 6.56105 5.75049 6 8 6C8.55228 6 9 5.55228 9 5C9 4.44771 8.55228 4 8 4C5.44951 4 3.60668 4.63895 2.44074 5.99921C1.30332 7.32621 1 9.12839 1 11C1 11.5523 1.44772 12 2 12Z" fill="black"/>
<path fill-rule="evenodd" clip-rule="evenodd" d="M14 12C14.5523 12 15 11.5523 15 11C15 9.27161 15.2967 8.07379 15.9593 7.30079C16.5933 6.56105 17.7505 6 20 6C20.5523 6 21 5.55228 21 5C21 4.44771 20.5523 4 20 4C17.4495 4 15.6067 4.63895 14.4407 5.99921C13.3033 7.32621 13 9.12839 13 11C13 11.5523 13.4477 12 14 12Z" fill="black"/>
</svg>
