<svg width="24" height="24" viewBox="0 0 24 24" fill="none" xmlns="http://www.w3.org/2000/svg">
<path fill-rule="evenodd" clip-rule="evenodd" d="M10.0647 6.02901C7.38256 5.7715 4.69484 7.2581 3.21491 9.31204C2.46329 10.3552 1.97881 11.6032 2.00071 12.919C2.02296 14.2552 2.56719 15.5711 3.7142 16.7095C4.54796 17.537 5.82535 18 6.9868 18C9.01927 18 10.9903 16.596 10.9903 14.5001C10.9903 12.4041 9.01927 11.0001 6.9868 11.0001C5.90898 11.0001 4.84842 11.395 4.08993 12.0785C4.21456 11.5372 4.4691 10.9946 4.83949 10.4805C5.9741 8.90583 8.01231 7.84113 9.87327 8.0198C10.4235 8.07262 10.9124 7.66979 10.9653 7.12005C11.0182 6.57031 10.615 6.08183 10.0647 6.02901ZM6.9868 13.0001C5.70265 13.0001 4.98505 13.8346 4.98505 14.5001C4.98505 15.257 5.66873 16 6.9868 16C8.27096 16 8.98856 15.1655 8.98856 14.5001C8.98856 13.8346 8.27096 13.0001 6.9868 13.0001Z" fill="black"/>
<path fill-rule="evenodd" clip-rule="evenodd" d="M21.0744 6.02901C18.3922 5.7715 15.7045 7.2581 14.2246 9.31204C13.473 10.3552 12.9885 11.6032 13.0104 12.919C13.0326 14.2552 13.5769 15.5711 14.7239 16.7095C15.5576 17.537 16.835 18 17.9965 18C20.0289 18 22 16.596 22 14.5001C22 12.4041 20.0289 11.0001 17.9965 11.0001C16.9187 11.0001 15.8581 11.395 15.0996 12.0785C15.2242 11.5372 15.4788 10.9946 15.8492 10.4805C16.9838 8.90583 19.022 7.84113 20.8829 8.0198C21.4332 8.07262 21.9221 7.66979 21.975 7.12005C22.0278 6.57031 21.6247 6.08183 21.0744 6.02901ZM15.9947 14.5001C15.9947 13.8346 16.7123 13.0001 17.9965 13.0001C19.2806 13.0001 19.9982 13.8346 19.9982 14.5001C19.9982 15.1655 19.2806 16 17.9965 16C16.6784 16 15.9947 15.257 15.9947 14.5001Z" fill="black"/>
</svg>
