<svg width="24" height="24" viewBox="0 0 24 24" fill="none" xmlns="http://www.w3.org/2000/svg">
<path fill-rule="evenodd" clip-rule="evenodd" d="M23 7C23 5.34315 21.6569 4 20 4H16C14.3431 4 13 5.34315 13 7V11C13 12.6569 14.3431 14 16 14H22C22.5523 14 23 13.5523 23 13V7ZM20 6C20.5523 6 21 6.44772 21 7V12H16C15.4477 12 15 11.5523 15 11V7C15 6.44772 15.4477 6 16 6H20Z" fill="black"/>
<path fill-rule="evenodd" clip-rule="evenodd" d="M11 7C11 5.34315 9.65685 4 8 4H4C2.34315 4 1 5.34315 1 7V11C1 12.6569 2.34315 14 4 14H10C10.5523 14 11 13.5523 11 13V7ZM8 6C8.55228 6 9 6.44772 9 7V12H4C3.44772 12 3 11.5523 3 11V7C3 6.44772 3.44772 6 4 6H8Z" fill="black"/>
<path fill-rule="evenodd" clip-rule="evenodd" d="M22 12C21.4477 12 21 12.4477 21 13C21 14.7284 20.7033 15.9262 20.0407 16.6992C19.4067 17.439 18.2495 18 16 18C15.4477 18 15 18.4477 15 19C15 19.5523 15.4477 20 16 20C18.5505 20 20.3933 19.361 21.5593 18.0008C22.6967 16.6738 23 14.8716 23 13C23 12.4477 22.5523 12 22 12Z" fill="black"/>
<path fill-rule="evenodd" clip-rule="evenodd" d="M10 12C9.44771 12 9 12.4477 9 13C9 14.7284 8.70331 15.9262 8.04074 16.6992C7.40668 17.439 6.24951 18 4 18C3.44772 18 3 18.4477 3 19C3 19.5523 3.44772 20 4 20C6.55049 20 8.39332 19.361 9.55926 18.0008C10.6967 16.6738 11 14.8716 11 13C11 12.4477 10.5523 12 10 12Z" fill="black"/>
</svg>
