<svg width="24" height="24" viewBox="0 0 24 24" fill="none" xmlns="http://www.w3.org/2000/svg">
<path fill-rule="evenodd" clip-rule="evenodd" d="M13.9353 17.971C16.6174 18.2285 19.3052 16.7419 20.7851 14.688C21.5367 13.6448 22.0212 12.3968 21.9993 11.081C21.977 9.74477 21.4328 8.42887 20.2858 7.29049C19.452 6.463 18.1747 6 17.0132 6C14.9807 6 13.0097 7.404 13.0097 9.49993C13.0097 11.5959 14.9807 12.9999 17.0132 12.9999C18.091 12.9999 19.1516 12.605 19.9101 11.9215C19.7854 12.4628 19.5309 13.0054 19.1605 13.5195C18.0259 15.0942 15.9877 16.1589 14.1267 15.9802C13.5765 15.9274 13.0876 16.3302 13.0347 16.8799C12.9818 17.4297 13.385 17.9182 13.9353 17.971ZM17.0132 10.9999C18.2974 10.9999 19.015 10.1654 19.015 9.49993C19.015 8.74297 18.3313 7.99996 17.0132 7.99996C15.729 7.99996 15.0114 8.83449 15.0114 9.49993C15.0114 10.1654 15.729 10.9999 17.0132 10.9999Z" fill="black"/>
<path fill-rule="evenodd" clip-rule="evenodd" d="M2.92558 17.971C5.60777 18.2285 8.29549 16.7419 9.77542 14.688C10.527 13.6448 11.0115 12.3968 10.9896 11.081C10.9674 9.74477 10.4231 8.42887 9.27612 7.29049C8.44236 6.463 7.16498 6 6.00352 6C3.97105 6 2 7.404 2 9.49993C2 11.5959 3.97105 12.9999 6.00352 12.9999C7.08135 12.9999 8.1419 12.605 8.90039 11.9215C8.77577 12.4628 8.52122 13.0054 8.15083 13.5195C7.01623 15.0942 4.97802 16.1589 3.11705 15.9802C2.56682 15.9274 2.0779 16.3302 2.02503 16.8799C1.97215 17.4297 2.37534 17.9182 2.92558 17.971ZM8.00528 9.49993C8.00528 10.1654 7.28768 10.9999 6.00352 10.9999C4.71936 10.9999 4.00176 10.1654 4.00176 9.49993C4.00176 8.83449 4.71936 7.99996 6.00352 7.99996C7.32159 7.99996 8.00528 8.74297 8.00528 9.49993Z" fill="black"/>
</svg>
