<svg width="24" height="24" viewBox="0 0 24 24" fill="none" xmlns="http://www.w3.org/2000/svg">
<path fill-rule="evenodd" clip-rule="evenodd" d="M5.225 2.75C5.10918 2.17944 4.60474 1.75 4 1.75C3.30964 1.75 2.75 2.30964 2.75 3V21C2.75 21.6904 3.30964 22.25 4 22.25C4.69036 22.25 5.25 21.6904 5.25 21V17.25H20C20.6904 17.25 21.25 16.6904 21.25 16V4C21.25 3.30964 20.6904 2.75 20 2.75H5.225ZM5.25 5.25V6.75H6.75V5.25H5.25ZM5.25 9.25V10.75H6.75V9.25H5.25ZM5.25 13.25V14.75H6.75V13.25H5.25ZM10.75 14.75H9.2501V13.25H10.75V14.75ZM14.75 14.75H13.2501V13.25H14.75V14.75ZM18.75 14.75H17.2501V13.25H18.75V14.75ZM18.75 9.25V10.75H17.2501V9.25H18.75ZM18.75 5.25V6.75H17.2501V5.25H18.75ZM13.2501 5.25H14.75V6.75H13.2501V5.25ZM9.2501 5.25H10.75V6.75H9.2501V5.25ZM16.75 7.25H15.2501V8.75H16.75V7.25ZM16.75 11.25V12.75H15.2501V11.25H16.75ZM12.75 7.25H11.2501V8.75H12.75V7.25ZM13.2501 9.25V10.75H14.75V9.25H13.2501ZM12.75 11.25V12.75H11.2501V11.25H12.75ZM9.2501 9.25H10.75V10.75H9.2501V9.25ZM8.75 7.25V8.75H7.2501V7.25H8.75ZM8.75 11.25H7.2501V12.75H8.75V11.25Z" fill="black"/>
</svg>
