<svg width="24" height="24" viewBox="0 0 24 24" fill="none" xmlns="http://www.w3.org/2000/svg">
<path d="M9.0001 9V7H11V9H9.0001Z" fill="black"/>
<path fill-rule="evenodd" clip-rule="evenodd" d="M9.0001 11V13H11V11H13.0001V13H15V11H17.0001V9H15V7H13.0001V9H11V11H9.0001ZM13.0001 9V11H15V9H13.0001Z" fill="black"/>
<path d="M9.0001 11V9H7V11H9.0001Z" fill="black"/>
<path fill-rule="evenodd" clip-rule="evenodd" d="M5 3C5 2.44772 4.55228 2 4 2C3.44772 2 3 2.44772 3 3V21C3 21.5523 3.44772 22 4 22C4.55228 22 5 21.5523 5 21V17H20C20.5523 17 21 16.5523 21 16V4C21 3.44772 20.5523 3 20 3H5ZM5 5V7H7V9H5V11H7V13H5V15H7V13H9.0001V15H11V13H13.0001V15H15V13H17.0001V15H19V13H17.0001V11H19V9H17.0001V7H19V5H17.0001V7H15V5H13.0001V7H11V5H9.0001V7H7V5H5Z" fill="black"/>
</svg>
