<svg width="24" height="24" viewBox="0 0 24 24" fill="none" xmlns="http://www.w3.org/2000/svg">
<path fill-rule="evenodd" clip-rule="evenodd" d="M8 8.00012C5.79086 8.00012 4 9.79098 4 12.0001C4 14.2093 5.79086 16.0001 8 16.0001C10.2091 16.0001 12 14.2093 12 12.0001C12 9.79098 10.2091 8.00012 8 8.00012ZM6 12.0001C6 10.8956 6.89543 10.0001 8 10.0001C9.10457 10.0001 10 10.8956 10 12.0001C10 13.1047 9.10457 14.0001 8 14.0001C6.89543 14.0001 6 13.1047 6 12.0001Z" fill="black"/>
<path d="M15 8.00012C14.4477 8.00012 14 8.44784 14 9.00012C14 9.55241 14.4477 10.0001 15 10.0001H19C19.5523 10.0001 20 9.55241 20 9.00012C20 8.44784 19.5523 8.00012 19 8.00012H15Z" fill="black"/>
<path d="M14 12.0001C14 11.4478 14.4477 11.0001 15 11.0001H19C19.5523 11.0001 20 11.4478 20 12.0001C20 12.5524 19.5523 13.0001 19 13.0001H15C14.4477 13.0001 14 12.5524 14 12.0001Z" fill="black"/>
<path d="M15 14.0001C14.4477 14.0001 14 14.4478 14 15.0001C14 15.5524 14.4477 16.0001 15 16.0001H19C19.5523 16.0001 20 15.5524 20 15.0001C20 14.4478 19.5523 14.0001 19 14.0001H15Z" fill="black"/>
<path fill-rule="evenodd" clip-rule="evenodd" d="M12.1319 0.504032C12.4059 0.0245147 13.0168 -0.142082 13.4963 0.131928L20.2657 4.00012H21C22.6569 4.00012 24 5.34327 24 7.00012V17.0001C24 18.657 22.6569 20.0001 21 20.0001H3C1.34314 20.0001 0 18.657 0 17.0001V7.00012C0 5.34327 1.34315 4.00012 3 4.00012H16.2345L12.504 1.86841C12.0245 1.5944 11.8579 0.98355 12.1319 0.504032ZM20.0202 6.00012C20.0063 6.00042 19.9923 6.00042 19.9783 6.00012H3C2.44772 6.00012 2 6.44784 2 7.00012V17.0001C2 17.5524 2.44772 18.0001 3 18.0001H21C21.5523 18.0001 22 17.5524 22 17.0001V7.00012C22 6.44784 21.5523 6.00012 21 6.00012H20.0202Z" fill="black"/>
</svg>
