<svg width="24" height="24" viewBox="0 0 24 24" fill="none" xmlns="http://www.w3.org/2000/svg">
<path d="M11 7C10.4477 7 10 7.44772 10 8C10 8.55229 10.4477 9 11 9H13C13.5523 9 14 8.55229 14 8C14 7.44772 13.5523 7 13 7H11Z" fill="black"/>
<path fill-rule="evenodd" clip-rule="evenodd" d="M3 12.5C3 10.2909 4.79086 8.5 7 8.5C9.20914 8.5 11 10.2909 11 12.5C11 14.7091 9.20914 16.5 7 16.5C4.79086 16.5 3 14.7091 3 12.5ZM7 10.5C5.89543 10.5 5 11.3954 5 12.5C5 13.6046 5.89543 14.5 7 14.5C8.10457 14.5 9 13.6046 9 12.5C9 11.3954 8.10457 10.5 7 10.5Z" fill="black"/>
<path fill-rule="evenodd" clip-rule="evenodd" d="M13 12.5C13 10.2909 14.7909 8.5 17 8.5C19.2091 8.5 21 10.2909 21 12.5C21 14.7091 19.2091 16.5 17 16.5C14.7909 16.5 13 14.7091 13 12.5ZM17 10.5C15.8954 10.5 15 11.3954 15 12.5C15 13.6046 15.8954 14.5 17 14.5C18.1046 14.5 19 13.6046 19 12.5C19 11.3954 18.1046 10.5 17 10.5Z" fill="black"/>
<path fill-rule="evenodd" clip-rule="evenodd" d="M24 7C24 5.34315 22.6569 4 21 4H20V3C20 1.34315 18.6569 0 17 0H7C5.34315 0 4 1.34315 4 3V4H3C1.34315 4 0 5.34315 0 7V17C0 18.6569 1.34314 20 3 20H21C22.6569 20 24 18.6569 24 17V7ZM7 2C6.44772 2 6 2.44772 6 3V4H18V3C18 2.44772 17.5523 2 17 2H7ZM22 7C22 6.44771 21.5523 6 21 6H3C2.44772 6 2 6.44772 2 7V17C2 17.5523 2.44772 18 3 18H21C21.5523 18 22 17.5523 22 17V7Z" fill="black"/>
</svg>
