<svg width="24" height="24" viewBox="0 0 24 24" fill="none" xmlns="http://www.w3.org/2000/svg">
<path d="M5.54606 4.30913C5.68945 4.2708 5.84134 4.25 6 4.25H7C7.69036 4.25 8.25 3.69036 8.25 3C8.25 2.30964 7.69036 1.75 7 1.75H6C5.62142 1.75 5.25255 1.79981 4.90046 1.89393C4.23352 2.0722 3.83738 2.75739 4.01566 3.42433C4.19394 4.09127 4.87912 4.48741 5.54606 4.30913Z" fill="black"/>
<path d="M11 1.75C10.3096 1.75 9.75 2.30964 9.75 3C9.75 3.69036 10.3096 4.25 11 4.25H13C13.6904 4.25 14.25 3.69036 14.25 3C14.25 2.30964 13.6904 1.75 13 1.75H11Z" fill="black"/>
<path d="M17 1.75C16.3096 1.75 15.75 2.30964 15.75 3C15.75 3.69036 16.3096 4.25 17 4.25H18C18.1587 4.25 18.3105 4.2708 18.4539 4.30913C19.1209 4.48741 19.8061 4.09127 19.9843 3.42433C20.1626 2.75739 19.7665 2.0722 19.0995 1.89393C18.7474 1.79981 18.3786 1.75 18 1.75H17Z" fill="black"/>
<path d="M4.30913 5.54606C4.48741 4.87912 4.09127 4.19394 3.42433 4.01566C2.75739 3.83738 2.0722 4.23352 1.89393 4.90046C1.79981 5.25255 1.75 5.62142 1.75 6V7C1.75 7.69036 2.30964 8.25 3 8.25C3.69036 8.25 4.25 7.69036 4.25 7V6C4.25 5.84134 4.2708 5.68945 4.30913 5.54606Z" fill="black"/>
<path d="M22.1061 4.90046C21.9278 4.23352 21.2426 3.83738 20.5757 4.01566C19.9087 4.19394 19.5126 4.87912 19.6909 5.54606C19.7292 5.68945 19.75 5.84134 19.75 6V7C19.75 7.69036 20.3096 8.25 21 8.25C21.6904 8.25 22.25 7.69036 22.25 7V6C22.25 5.62142 22.2002 5.25255 22.1061 4.90046Z" fill="black"/>
<path d="M22.25 11C22.25 10.3096 21.6904 9.75 21 9.75C20.3096 9.75 19.75 10.3096 19.75 11V13C19.75 13.6904 20.3096 14.25 21 14.25C21.6904 14.25 22.25 13.6904 22.25 13V11Z" fill="black"/>
<path d="M4.25 11C4.25 10.3096 3.69036 9.75 3 9.75C2.30964 9.75 1.75 10.3096 1.75 11V13C1.75 13.6904 2.30964 14.25 3 14.25C3.69036 14.25 4.25 13.6904 4.25 13V11Z" fill="black"/>
<path d="M4.25 17C4.25 16.3096 3.69036 15.75 3 15.75C2.30964 15.75 1.75 16.3096 1.75 17V18C1.75 18.3786 1.79981 18.7474 1.89393 19.0995C2.0722 19.7665 2.75739 20.1626 3.42433 19.9843C4.09127 19.8061 4.48741 19.1209 4.30913 18.4539C4.2708 18.3105 4.25 18.1587 4.25 18V17Z" fill="black"/>
<path d="M22.25 17C22.25 16.3096 21.6904 15.75 21 15.75C20.3096 15.75 19.75 16.3096 19.75 17V18C19.75 18.1587 19.7292 18.3105 19.6909 18.4539C19.5126 19.1209 19.9087 19.8061 20.5757 19.9843C21.2426 20.1626 21.9278 19.7665 22.1061 19.0995C22.2002 18.7474 22.25 18.3786 22.25 18V17Z" fill="black"/>
<path d="M5.54606 19.6909C4.87912 19.5126 4.19394 19.9087 4.01566 20.5757C3.83738 21.2426 4.23352 21.9278 4.90046 22.1061C5.25255 22.2002 5.62142 22.25 6 22.25H7C7.69036 22.25 8.25 21.6904 8.25 21C8.25 20.3096 7.69036 19.75 7 19.75H6C5.84134 19.75 5.68945 19.7292 5.54606 19.6909Z" fill="black"/>
<path d="M19.0995 22.1061C19.7665 21.9278 20.1626 21.2426 19.9843 20.5757C19.8061 19.9087 19.1209 19.5126 18.4539 19.6909C18.3105 19.7292 18.1587 19.75 18 19.75H17C16.3096 19.75 15.75 20.3096 15.75 21C15.75 21.6904 16.3096 22.25 17 22.25H18C18.3786 22.25 18.7474 22.2002 19.0995 22.1061Z" fill="black"/>
<path d="M11 19.75C10.3096 19.75 9.75 20.3096 9.75 21C9.75 21.6904 10.3096 22.25 11 22.25H13C13.6904 22.25 14.25 21.6904 14.25 21C14.25 20.3096 13.6904 19.75 13 19.75H11Z" fill="black"/>
</svg>
