<svg width="24" height="24" viewBox="0 0 24 24" fill="none" xmlns="http://www.w3.org/2000/svg">
<path d="M5.4815 4.06761C5.64576 4.0237 5.81935 4 6 4H7C7.55228 4 8 3.55228 8 3C8 2.44772 7.55228 2 7 2H6C5.64341 2 5.29624 2.04691 4.96502 2.13545C4.43147 2.27807 4.11456 2.82621 4.25718 3.35977C4.3998 3.89332 4.94795 4.21023 5.4815 4.06761Z" fill="black"/>
<path d="M11 2C10.4477 2 10 2.44772 10 3C10 3.55228 10.4477 4 11 4H13C13.5523 4 14 3.55228 14 3C14 2.44772 13.5523 2 13 2H11Z" fill="black"/>
<path d="M17 2C16.4477 2 16 2.44772 16 3C16 3.55228 16.4477 4 17 4H18C18.1807 4 18.3542 4.0237 18.5185 4.06761C19.0521 4.21023 19.6002 3.89332 19.7428 3.35977C19.8854 2.82621 19.5685 2.27807 19.035 2.13545C18.7038 2.04691 18.3566 2 18 2H17Z" fill="black"/>
<path d="M4.06761 5.4815C4.21023 4.94795 3.89332 4.3998 3.35977 4.25718C2.82621 4.11456 2.27807 4.43147 2.13545 4.96502C2.04691 5.29624 2 5.64341 2 6V7C2 7.55228 2.44772 8 3 8C3.55228 8 4 7.55228 4 7V6C4 5.81935 4.0237 5.64576 4.06761 5.4815Z" fill="black"/>
<path d="M21.8646 4.96502C21.7219 4.43147 21.1738 4.11456 20.6402 4.25718C20.1067 4.3998 19.7898 4.94795 19.9324 5.4815C19.9763 5.64576 20 5.81935 20 6V7C20 7.55228 20.4477 8 21 8C21.5523 8 22 7.55228 22 7V6C22 5.64341 21.9531 5.29624 21.8646 4.96502Z" fill="black"/>
<path d="M22 11C22 10.4477 21.5523 10 21 10C20.4477 10 20 10.4477 20 11V13C20 13.5523 20.4477 14 21 14C21.5523 14 22 13.5523 22 13V11Z" fill="black"/>
<path d="M4 11C4 10.4477 3.55228 10 3 10C2.44772 10 2 10.4477 2 11V13C2 13.5523 2.44772 14 3 14C3.55228 14 4 13.5523 4 13V11Z" fill="black"/>
<path d="M4 17C4 16.4477 3.55228 16 3 16C2.44772 16 2 16.4477 2 17V18C2 18.3566 2.04691 18.7038 2.13545 19.035C2.27807 19.5685 2.82621 19.8854 3.35977 19.7428C3.89332 19.6002 4.21023 19.0521 4.06761 18.5185C4.0237 18.3542 4 18.1807 4 18V17Z" fill="black"/>
<path d="M22 17C22 16.4477 21.5523 16 21 16C20.4477 16 20 16.4477 20 17V18C20 18.1807 19.9763 18.3542 19.9324 18.5185C19.7898 19.0521 20.1067 19.6002 20.6402 19.7428C21.1738 19.8854 21.7219 19.5685 21.8646 19.035C21.9531 18.7038 22 18.3566 22 18V17Z" fill="black"/>
<path d="M5.4815 19.9324C4.94795 19.7898 4.3998 20.1067 4.25718 20.6402C4.11456 21.1738 4.43147 21.7219 4.96502 21.8646C5.29624 21.9531 5.64341 22 6 22H7C7.55228 22 8 21.5523 8 21C8 20.4477 7.55228 20 7 20H6C5.81935 20 5.64576 19.9763 5.4815 19.9324Z" fill="black"/>
<path d="M19.035 21.8646C19.5685 21.7219 19.8854 21.1738 19.7428 20.6402C19.6002 20.1067 19.0521 19.7898 18.5185 19.9324C18.3542 19.9763 18.1807 20 18 20H17C16.4477 20 16 20.4477 16 21C16 21.5523 16.4477 22 17 22H18C18.3566 22 18.7038 21.9531 19.035 21.8646Z" fill="black"/>
<path d="M11 20C10.4477 20 10 20.4477 10 21C10 21.5523 10.4477 22 11 22H13C13.5523 22 14 21.5523 14 21C14 20.4477 13.5523 20 13 20H11Z" fill="black"/>
</svg>
