<svg width="24" height="24" viewBox="0 0 24 24" fill="none" xmlns="http://www.w3.org/2000/svg">
<path fill-rule="evenodd" clip-rule="evenodd" d="M21 7C21.5523 7 22 7.44772 22 8V15H16C15.4477 15 15 14.5523 15 14C15 13.4477 15.4477 13 16 13H20V8C20 7.44772 20.4477 7 21 7Z" fill="black"/>
<path fill-rule="evenodd" clip-rule="evenodd" d="M11.5 8C7.29989 8 4 11.1903 4 15C4 15.5523 3.55228 16 3 16C2.44772 16 2 15.5523 2 15C2 9.97319 6.31127 6 11.5 6C16.2955 6 20.3317 9.38594 20.9256 13.8687C20.9981 14.4162 20.6131 14.9188 20.0656 14.9913C19.5181 15.0639 19.0154 14.6788 18.9429 14.1313C18.4911 10.7214 15.3737 8 11.5 8Z" fill="black"/>
</svg>
