<svg width="24" height="24" viewBox="0 0 24 24" fill="none" xmlns="http://www.w3.org/2000/svg">
<path fill-rule="evenodd" clip-rule="evenodd" d="M21 6.75C21.6904 6.75 22.25 7.30964 22.25 8V15.25H16C15.3096 15.25 14.75 14.6904 14.75 14C14.75 13.3096 15.3096 12.75 16 12.75H19.75V8C19.75 7.30964 20.3096 6.75 21 6.75Z" fill="black"/>
<path fill-rule="evenodd" clip-rule="evenodd" d="M11.5 8.25C7.42346 8.25 4.25 11.3424 4.25 15C4.25 15.6904 3.69036 16.25 3 16.25C2.30964 16.25 1.75 15.6904 1.75 15C1.75 9.82106 6.1877 5.75 11.5 5.75C16.4107 5.75 20.5617 9.21901 21.1734 13.8358C21.2641 14.5202 20.7828 15.1485 20.0984 15.2392C19.414 15.3298 18.7857 14.8486 18.6951 14.1642C18.2611 10.8884 15.2585 8.25 11.5 8.25Z" fill="black"/>
</svg>
