<svg width="24" height="24" viewBox="0 0 24 24" fill="none" xmlns="http://www.w3.org/2000/svg">
<path d="M7 6C6.44772 6 6 6.44772 6 7C6 7.55228 6.44772 8 7 8H14C14.5523 8 15 7.55228 15 7C15 6.44772 14.5523 6 14 6H7Z" fill="black"/>
<path d="M6 15C6 14.4477 6.44772 14 7 14H8C8.55228 14 9 14.4477 9 15C9 15.5523 8.55228 16 8 16H7C6.44772 16 6 15.5523 6 15Z" fill="black"/>
<path d="M11 14C10.4477 14 10 14.4477 10 15C10 15.5523 10.4477 16 11 16H14C14.5523 16 15 15.5523 15 15C15 14.4477 14.5523 14 14 14H11Z" fill="black"/>
<path d="M6 11C6 10.4477 6.44772 10 7 10H8C8.55228 10 9 10.4477 9 11C9 11.5523 8.55228 12 8 12H7C6.44772 12 6 11.5523 6 11Z" fill="black"/>
<path d="M11 10C10.4477 10 10 10.4477 10 11C10 11.5523 10.4477 12 11 12H14C14.5523 12 15 11.5523 15 11C15 10.4477 14.5523 10 14 10H11Z" fill="black"/>
<path fill-rule="evenodd" clip-rule="evenodd" d="M2 5C2 3.34315 3.34315 2 5 2H16C17.6569 2 19 3.34315 19 5V6C20.6569 6 22 7.34315 22 9V19C22 20.6569 20.6569 22 19 22H5C3.34315 22 2 20.6569 2 19V5ZM19 8C19.5523 8 20 8.44772 20 9V19C20 19.5523 19.5523 20 19 20V8ZM16 4C16.5523 4 17 4.44772 17 5V20H5C4.44772 20 4 19.5523 4 19V5C4 4.44772 4.44772 4 5 4H16Z" fill="black"/>
</svg>
