<svg width="24" height="24" viewBox="0 0 24 24" fill="none" xmlns="http://www.w3.org/2000/svg">
<path fill-rule="evenodd" clip-rule="evenodd" d="M5 2C3.34315 2 2 3.34315 2 5V19C2 20.6569 3.34315 22 5 22H19C20.6569 22 22 20.6569 22 19V9C22 7.34315 20.6569 6 19 6V5C19 3.34315 17.6569 2 16 2H5ZM20 9C20 8.44772 19.5523 8 19 8V20C19.5523 20 20 19.5523 20 19V9ZM6 7C6 6.44772 6.44772 6 7 6H14C14.5523 6 15 6.44772 15 7C15 7.55228 14.5523 8 14 8H7C6.44772 8 6 7.55228 6 7ZM7 14C6.44772 14 6 14.4477 6 15C6 15.5523 6.44772 16 7 16H8C8.55228 16 9 15.5523 9 15C9 14.4477 8.55228 14 8 14H7ZM10 15C10 14.4477 10.4477 14 11 14H14C14.5523 14 15 14.4477 15 15C15 15.5523 14.5523 16 14 16H11C10.4477 16 10 15.5523 10 15ZM7 10C6.44772 10 6 10.4477 6 11C6 11.5523 6.44772 12 7 12H8C8.55228 12 9 11.5523 9 11C9 10.4477 8.55228 10 8 10H7ZM10 11C10 10.4477 10.4477 10 11 10H14C14.5523 10 15 10.4477 15 11C15 11.5523 14.5523 12 14 12H11C10.4477 12 10 11.5523 10 11Z" fill="black"/>
</svg>
