<svg width="24" height="24" viewBox="0 0 24 24" fill="none" xmlns="http://www.w3.org/2000/svg">
<path fill-rule="evenodd" clip-rule="evenodd" d="M11 1.75C11.6904 1.75 12.25 2.30964 12.25 3V21C12.25 21.6904 11.6904 22.25 11 22.25C10.3096 22.25 9.75 21.6904 9.75 21V3C9.75 2.30964 10.3096 1.75 11 1.75Z" fill="black"/>
<path fill-rule="evenodd" clip-rule="evenodd" d="M1.75 9C1.75 6.65279 3.65279 4.75 6 4.75H12V7.25H6C5.0335 7.25 4.25 8.0335 4.25 9V15C4.25 15.9665 5.0335 16.75 6 16.75H12V19.25H6C3.65279 19.25 1.75 17.3472 1.75 15V9Z" fill="black"/>
<path fill-rule="evenodd" clip-rule="evenodd" d="M22.25 9C22.25 6.65279 20.3472 4.75 18 4.75H15C14.3096 4.75 13.75 5.30964 13.75 6C13.75 6.69036 14.3096 7.25 15 7.25H18C18.9665 7.25 19.75 8.0335 19.75 9V15C19.75 15.9665 18.9665 16.75 18 16.75H15C14.3096 16.75 13.75 17.3096 13.75 18C13.75 18.6904 14.3096 19.25 15 19.25H18C20.3472 19.25 22.25 17.3472 22.25 15V9Z" fill="black"/>
</svg>
