<svg width="24" height="24" viewBox="0 0 24 24" fill="none" xmlns="http://www.w3.org/2000/svg">
<path fill-rule="evenodd" clip-rule="evenodd" d="M11 2C11.5523 2 12 2.44772 12 3V21C12 21.5523 11.5523 22 11 22C10.4477 22 10 21.5523 10 21V3C10 2.44772 10.4477 2 11 2Z" fill="black"/>
<path fill-rule="evenodd" clip-rule="evenodd" d="M2 9C2 6.79086 3.79086 5 6 5H12V7H6C4.89543 7 4 7.89543 4 9V15C4 16.1046 4.89543 17 6 17H12V19H6C3.79086 19 2 17.2091 2 15V9Z" fill="black"/>
<path fill-rule="evenodd" clip-rule="evenodd" d="M22 9C22 6.79086 20.2091 5 18 5H15C14.4477 5 14 5.44772 14 6C14 6.55228 14.4477 7 15 7H18C19.1046 7 20 7.89543 20 9V15C20 16.1046 19.1046 17 18 17H15C14.4477 17 14 17.4477 14 18C14 18.5523 14.4477 19 15 19H18C20.2091 19 22 17.2091 22 15V9Z" fill="black"/>
</svg>
