<svg width="24" height="24" viewBox="0 0 24 24" fill="none" xmlns="http://www.w3.org/2000/svg">
<path d="M10.5216 1.84519C10.9887 1.65171 11.5264 1.75866 11.8839 2.11615L13.8839 4.11615C14.372 4.60431 14.372 5.39576 13.8839 5.88392L11.8839 7.88392C11.5264 8.24142 10.9887 8.34836 10.5216 8.15489C10.0546 7.96141 9.75 7.50561 9.75 7.00004V6.25006H7C6.0335 6.25006 5.25 7.03356 5.25 8.00006V16.0001C5.25 16.9666 6.0335 17.7501 7 17.7501C7.69036 17.7501 8.25 18.3097 8.25 19.0001C8.25 19.6904 7.69036 20.2501 7 20.2501C4.65279 20.2501 2.75 18.3473 2.75 16.0001V8.00006C2.75 5.65285 4.65279 3.75006 7 3.75006H9.75V3.00004C9.75 2.49446 10.0546 2.03866 10.5216 1.84519Z" fill="black"/>
<path d="M17 20.2501C19.3472 20.2501 21.25 18.3473 21.25 16.0001V8.00006C21.25 5.65285 19.3472 3.75006 17 3.75006C16.3096 3.75006 15.75 4.3097 15.75 5.00006C15.75 5.69042 16.3096 6.25006 17 6.25006C17.9665 6.25006 18.75 7.03356 18.75 8.00006V16.0001C18.75 16.9666 17.9665 17.7501 17 17.7501H14.25V17.0001C14.25 16.4945 13.9454 16.0387 13.4784 15.8452C13.0113 15.6518 12.4736 15.7587 12.1161 16.1162L10.1161 18.1162C9.62796 18.6044 9.62796 19.3958 10.1161 19.884L12.1161 21.884C12.4736 22.2415 13.0113 22.3484 13.4784 22.1549C13.9454 21.9615 14.25 21.5057 14.25 21.0001V20.2501H17Z" fill="black"/>
</svg>
