<svg width="24" height="24" viewBox="0 0 24 24" fill="none" xmlns="http://www.w3.org/2000/svg">
<path fill-rule="evenodd" clip-rule="evenodd" d="M7 2C4.23858 2 2 4.23858 2 7V17C2 19.7614 4.23858 22 7 22H17C19.7614 22 22 19.7614 22 17V7C22 4.23858 19.7614 2 17 2H7ZM13 8C13 7.44772 12.5523 7 12 7C11.4477 7 11 7.44772 11 8V16C11 16.5523 11.4477 17 12 17C12.5523 17 13 16.5523 13 16V8ZM9 11C9 10.4477 8.55228 10 8 10C7.44772 10 7 10.4477 7 11V16C7 16.5523 7.44772 17 8 17C8.55228 17 9 16.5523 9 16V11ZM17 13C17 12.4477 16.5523 12 16 12C15.4477 12 15 12.4477 15 13V16C15 16.5523 15.4477 17 16 17C16.5523 17 17 16.5523 17 16V13Z" fill="black"/>
</svg>
