<svg width="24" height="24" viewBox="0 0 24 24" fill="none" xmlns="http://www.w3.org/2000/svg">
<path d="M10 6C10.5523 6 11 6.44772 11 7V14C11 14.5523 10.5523 15 10 15C9.44771 15 9 14.5523 9 14V7C9 6.44772 9.44771 6 10 6Z" fill="black"/>
<path d="M7 10C7 9.44772 6.55228 9 6 9C5.44772 9 5 9.44772 5 10V14C5 14.5523 5.44772 15 6 15C6.55228 15 7 14.5523 7 14V10Z" fill="black"/>
<path d="M15 11C15 10.4477 14.5523 10 14 10C13.4477 10 13 10.4477 13 11V14C13 14.5523 13.4477 15 14 15C14.5523 15 15 14.5523 15 14V11Z" fill="black"/>
<path d="M18 7C18.5523 7 19 7.44772 19 8V14C19 14.5523 18.5523 15 18 15C17.4477 15 17 14.5523 17 14V8C17 7.44772 17.4477 7 18 7Z" fill="black"/>
<path fill-rule="evenodd" clip-rule="evenodd" d="M5 2C2.79086 2 1 3.79086 1 6V15C1 17.2091 2.79086 19 5 19H7.71946L7.03009 21.7575C6.89615 22.2933 7.22191 22.8362 7.7577 22.9701C8.2935 23.1041 8.83643 22.7783 8.97038 22.2425L9.78101 19H14.2195L15.0301 22.2425C15.164 22.7783 15.707 23.1041 16.2428 22.9701C16.7786 22.8362 17.1043 22.2933 16.9704 21.7575L16.281 19H19C21.2091 19 23 17.2091 23 15V6C23 3.79086 21.2091 2 19 2H5ZM14.979 17C14.9937 16.9997 15.0084 16.9997 15.023 17H19C20.1046 17 21 16.1046 21 15V6C21 4.89543 20.1046 4 19 4H5C3.89543 4 3 4.89543 3 6V15C3 16.1046 3.89543 17 5 17H8.97746C8.9921 16.9997 9.00678 16.9997 9.0215 17H14.979Z" fill="black"/>
</svg>
