<svg width="24" height="24" viewBox="0 0 24 24" fill="none" xmlns="http://www.w3.org/2000/svg">
<path fill-rule="evenodd" clip-rule="evenodd" d="M1 6C1 3.79086 2.79086 2 5 2H19C21.2091 2 23 3.79086 23 6V15C23 17.2091 21.2091 19 19 19H16.281L16.9704 21.7575C17.1043 22.2933 16.7786 22.8362 16.2428 22.9701C15.707 23.1041 15.164 22.7783 15.0301 22.2425L14.2195 19H9.78101L8.97038 22.2425C8.83643 22.7783 8.2935 23.1041 7.7577 22.9701C7.22191 22.8362 6.89615 22.2933 7.03009 21.7575L7.71946 19H5C2.79086 19 1 17.2091 1 15V6ZM11 7C11 6.44772 10.5523 6 10 6C9.44771 6 9 6.44772 9 7V14C9 14.5523 9.44771 15 10 15C10.5523 15 11 14.5523 11 14V7ZM6 9C6.55228 9 7 9.44772 7 10V14C7 14.5523 6.55228 15 6 15C5.44772 15 5 14.5523 5 14V10C5 9.44772 5.44772 9 6 9ZM14 10C14.5523 10 15 10.4477 15 11V14C15 14.5523 14.5523 15 14 15C13.4477 15 13 14.5523 13 14V11C13 10.4477 13.4477 10 14 10ZM19 8C19 7.44772 18.5523 7 18 7C17.4477 7 17 7.44772 17 8V14C17 14.5523 17.4477 15 18 15C18.5523 15 19 14.5523 19 14V8Z" fill="black"/>
</svg>
