<svg width="24" height="24" viewBox="0 0 24 24" fill="none" xmlns="http://www.w3.org/2000/svg">
<path d="M10.25 9C10.25 6.92893 11.9289 5.25 14 5.25C16.0711 5.25 17.75 6.92893 17.75 9V12C17.75 12.6904 18.3096 13.25 19 13.25C19.6904 13.25 20.25 12.6904 20.25 12V9C20.25 5.54822 17.4518 2.75 14 2.75C10.5482 2.75 7.75 5.54822 7.75 9V16.9822L5.88388 15.1161C5.39573 14.628 4.60427 14.628 4.11612 15.1161C3.62796 15.6043 3.62796 16.3957 4.11612 16.8839L8.11612 20.8839C8.60427 21.372 9.39573 21.372 9.88388 20.8839L13.8839 16.8839C14.372 16.3957 14.372 15.6043 13.8839 15.1161C13.3957 14.628 12.6043 14.628 12.1161 15.1161L10.25 16.9822V9Z" fill="black"/>
</svg>
