<svg width="24" height="24" viewBox="0 0 24 24" fill="none" xmlns="http://www.w3.org/2000/svg">
<path d="M13.75 15C13.75 17.0711 12.0711 18.75 10 18.75C7.92893 18.75 6.25 17.0711 6.25 15V12C6.25 11.3096 5.69036 10.75 5 10.75C4.30964 10.75 3.75 11.3096 3.75 12V15C3.75 18.4518 6.54822 21.25 10 21.25C13.4518 21.25 16.25 18.4518 16.25 15V7.01777L18.1161 8.88388C18.6043 9.37204 19.3957 9.37204 19.8839 8.88388C20.372 8.39573 20.372 7.60427 19.8839 7.11612L15.8839 3.11612C15.3957 2.62796 14.6043 2.62796 14.1161 3.11612L10.1161 7.11612C9.62796 7.60427 9.62796 8.39573 10.1161 8.88388C10.6043 9.37204 11.3957 9.37204 11.8839 8.88388L13.75 7.01777V15Z" fill="black"/>
</svg>
