<svg width="24" height="24" viewBox="0 0 24 24" fill="none" xmlns="http://www.w3.org/2000/svg">
<path d="M9 13.75C6.92893 13.75 5.25 12.0711 5.25 10C5.25 7.92893 6.92893 6.25 9 6.25L12 6.25C12.6904 6.25 13.25 5.69036 13.25 5C13.25 4.30964 12.6904 3.75 12 3.75L9 3.75C5.54822 3.75 2.75 6.54822 2.75 10C2.75 13.4518 5.54822 16.25 9 16.25L16.9822 16.25L15.1161 18.1161C14.628 18.6043 14.628 19.3957 15.1161 19.8839C15.6043 20.372 16.3957 20.372 16.8839 19.8839L20.8839 15.8839C21.372 15.3957 21.372 14.6043 20.8839 14.1161L16.8839 10.1161C16.3957 9.62796 15.6043 9.62796 15.1161 10.1161C14.628 10.6043 14.628 11.3957 15.1161 11.8839L16.9822 13.75L9 13.75Z" fill="black"/>
</svg>
