<svg width="24" height="24" viewBox="0 0 24 24" fill="none" xmlns="http://www.w3.org/2000/svg">
<path d="M15 10C17.2091 10 19 11.7909 19 14C19 16.2091 17.2091 18 15 18L12 18C11.4477 18 11 18.4477 11 19C11 19.5523 11.4477 20 12 20L15 20C18.3137 20 21 17.3137 21 14C21 10.6863 18.3137 8 15 8L6.41421 8L8.70711 5.70711C9.09763 5.31658 9.09763 4.68342 8.70711 4.29289C8.31658 3.90237 7.68342 3.90237 7.29289 4.29289L3.29289 8.29289C2.90237 8.68342 2.90237 9.31658 3.29289 9.70711L7.29289 13.7071C7.68342 14.0976 8.31658 14.0976 8.70711 13.7071C9.09763 13.3166 9.09763 12.6834 8.70711 12.2929L6.41421 10L15 10Z" fill="black"/>
</svg>
