<svg width="24" height="24" viewBox="0 0 24 24" fill="none" xmlns="http://www.w3.org/2000/svg">
<path fill-rule="evenodd" clip-rule="evenodd" d="M12 1C10.3427 1 9 2.34272 9 4V5H3C2.44772 5 2 5.44772 2 6V7C2 8.65685 3.34315 10 5 10H7V20H6C5.44772 20 5 20.4477 5 21C5 21.5523 5.44772 22 6 22H18C18.5523 22 19 21.5523 19 21C19 20.4477 18.5523 20 18 20H17V10H19C20.6569 10 22 8.65685 22 7V6C22 5.44772 21.5523 5 21 5H15.0103L15 4.99995V4C15 2.34272 13.6573 1 12 1ZM12 3C11.4473 3 11 3.44728 11 4V5H13V4C13 3.44728 12.5527 3 12 3ZM12.9554 7L9 12.0855V15.3431L15.4891 7H12.9554Z" fill="black"/>
</svg>
