<svg width="24" height="24" viewBox="0 0 24 24" fill="none" xmlns="http://www.w3.org/2000/svg">
<path fill-rule="evenodd" clip-rule="evenodd" d="M10 2C10 0.89543 10.8954 0 12 0C13.1046 0 14 0.89543 14 2C14 2.75668 13.5798 3.41521 12.96 3.75497C12.9797 3.83338 12.9902 3.91546 12.9902 4V6H17C19.7614 6 22 8.23858 22 11V13C22 12.4477 22.4477 12 23 12C23.5523 12 24 12.4477 24 13V17C24 17.5523 23.5523 18 23 18C22.4477 18 22 17.5523 22 17C22 19.7614 19.7614 22 17 22H7C4.23858 22 2 19.7614 2 17C2 17.5523 1.55228 18 1 18C0.447715 18 0 17.5523 0 17V13C0 12.4477 0.447715 12 1 12C1.55228 12 2 12.4477 2 13V11C2 8.23858 4.23858 6 7 6H10.9902V4C10.9902 3.91205 11.0016 3.82675 11.0229 3.74549C10.4125 3.40306 10 2.7497 10 2ZM14 13C14 11.8954 14.8954 11 16 11C17.1046 11 18 11.8954 18 13C18 14.1046 17.1046 15 16 15C14.8954 15 14 14.1046 14 13ZM8 11C6.89543 11 6 11.8954 6 13C6 14.1046 6.89543 15 8 15C9.10457 15 10 14.1046 10 13C10 11.8954 9.10457 11 8 11Z" fill="black"/>
</svg>
