<svg width="24" height="24" viewBox="0 0 24 24" fill="none" xmlns="http://www.w3.org/2000/svg">
<path fill-rule="evenodd" clip-rule="evenodd" d="M12.3668 4.25C7.83708 4.25 4.25 7.76695 4.25 12C4.25 16.233 7.83708 19.75 12.3668 19.75C15.2009 19.75 17.6821 18.3634 19.1317 16.2849C19.5266 15.7187 20.3058 15.5798 20.8721 15.9747C21.4383 16.3696 21.5772 17.1488 21.1823 17.7151C19.2702 20.4566 16.0271 22.25 12.3668 22.25C6.55145 22.25 1.75 17.707 1.75 12C1.75 6.29305 6.55145 1.75 12.3668 1.75C16.7402 1.75 20.5222 4.30893 22.1442 7.99674C22.4222 8.62868 22.1352 9.36628 21.5033 9.64422C20.8713 9.92216 20.1337 9.63519 19.8558 9.00326C18.6365 6.23107 15.7576 4.25 12.3668 4.25Z" fill="black"/>
<path fill-rule="evenodd" clip-rule="evenodd" d="M21 1.75C21.6904 1.75 22.25 2.30964 22.25 3V10.25H16C15.3096 10.25 14.75 9.69036 14.75 9C14.75 8.30964 15.3096 7.75 16 7.75H19.75V3C19.75 2.30964 20.3096 1.75 21 1.75Z" fill="black"/>
</svg>
