<svg width="24" height="24" viewBox="0 0 24 24" fill="none" xmlns="http://www.w3.org/2000/svg">
<path d="M14.7071 2.70711C15.0976 2.31658 15.0976 1.68342 14.7071 1.29289C14.3166 0.902369 13.6834 0.902369 13.2929 1.29289L10.2929 4.29289C9.94723 4.63855 9.90213 5.18345 10.1863 5.58124L12.6863 9.08124C13.0073 9.53065 13.6318 9.63474 14.0812 9.31373C14.5307 8.99272 14.6347 8.36817 14.3137 7.91876L12.9799 6.05133C17.0222 6.47876 20 9.51785 20 13C20 13.5523 20.4477 14 21 14C21.5523 14 22 13.5523 22 13C22 8.34594 18.1423 4.66232 13.334 4.08025L14.7071 2.70711Z" fill="black"/>
<path d="M4 14C4 11.7909 5.79086 10 8 10H12C14.2091 10 16 11.7909 16 14V18C16 20.2091 14.2091 22 12 22H8C5.79086 22 4 20.2091 4 18V14Z" fill="black"/>
</svg>
