<svg width="24" height="24" viewBox="0 0 24 24" fill="none" xmlns="http://www.w3.org/2000/svg">
<path fill-rule="evenodd" clip-rule="evenodd" d="M12.3668 4C7.70852 4 4 7.61956 4 12C4 16.3804 7.70852 20 12.3668 20C15.2835 20 17.8409 18.5727 19.3368 16.4279C19.6527 15.975 20.276 15.8638 20.729 16.1798C21.182 16.4957 21.2931 17.1191 20.9772 17.5721C19.1114 20.2473 15.9445 22 12.3668 22C6.68001 22 2 17.5596 2 12C2 6.44044 6.68001 2 12.3668 2C16.6419 2 20.3336 4.50114 21.9154 8.09739C22.1377 8.60294 21.9082 9.19302 21.4026 9.41537C20.8971 9.63773 20.307 9.40815 20.0846 8.90261C18.8251 6.03886 15.8558 4 12.3668 4Z" fill="black"/>
<path fill-rule="evenodd" clip-rule="evenodd" d="M21 2C21.5523 2 22 2.44772 22 3V10H16C15.4477 10 15 9.55228 15 9C15 8.44772 15.4477 8 16 8H20V3C20 2.44772 20.4477 2 21 2Z" fill="black"/>
</svg>
