<svg width="24" height="24" viewBox="0 0 24 24" fill="none" xmlns="http://www.w3.org/2000/svg">
<path d="M6.90909 13L13.5858 13L11.2929 15.2929C10.9024 15.6834 10.9024 16.3166 11.2929 16.7071C11.6834 17.0976 12.3166 17.0976 12.7071 16.7071L16.7071 12.7071C16.8946 12.5196 17 12.2652 17 12C17 11.7348 16.8946 11.4804 16.7071 11.2929L12.7071 7.29289C12.3166 6.90237 11.6834 6.90237 11.2929 7.29289C10.9024 7.68342 10.9024 8.31658 11.2929 8.70711L13.5858 11L6.90909 11C6.40701 11 6 11.4477 6 12C6 12.5523 6.40701 13 6.90909 13Z" fill="black"/>
<path fill-rule="evenodd" clip-rule="evenodd" d="M2 12C2 6.47715 6.47715 2 12 2C17.5228 2 22 6.47715 22 12C22 17.5228 17.5228 22 12 22C6.47715 22 2 17.5228 2 12ZM12 4C7.58172 4 4 7.58172 4 12C4 16.4183 7.58172 20 12 20C16.4183 20 20 16.4183 20 12C20 7.58172 16.4183 4 12 4Z" fill="black"/>
</svg>
