<svg width="24" height="24" viewBox="0 0 24 24" fill="none" xmlns="http://www.w3.org/2000/svg">
<path d="M6.06124 12.2894L7.19224 12.5979C9.24189 13.1569 10.8431 14.7581 11.4021 16.8078L11.7106 17.9388C11.791 18.2335 12.209 18.2335 12.2894 17.9388L12.5979 16.8078C13.1569 14.7581 14.7581 13.1569 16.8078 12.5979L17.9388 12.2894C18.2335 12.209 18.2335 11.791 17.9388 11.7106L16.8078 11.4021C14.7581 10.8431 13.1569 9.24189 12.5979 7.19224L12.2894 6.06124C12.209 5.76649 11.791 5.76649 11.7106 6.06124L11.4021 7.19224C10.8431 9.24189 9.24189 10.8431 7.19224 11.4021L6.06124 11.7106C5.76649 11.791 5.76649 12.209 6.06124 12.2894Z" fill="black"/>
<path fill-rule="evenodd" clip-rule="evenodd" d="M12 2C6.47715 2 2 6.47715 2 12C2 17.5228 6.47715 22 12 22C17.5228 22 22 17.5228 22 12C22 6.47715 17.5228 2 12 2ZM4 12C4 7.58172 7.58172 4 12 4C16.4183 4 20 7.58172 20 12C20 16.4183 16.4183 20 12 20C7.58172 20 4 16.4183 4 12Z" fill="black"/>
</svg>
