<svg width="24" height="24" viewBox="0 0 24 24" fill="none" xmlns="http://www.w3.org/2000/svg">
<path fill-rule="evenodd" clip-rule="evenodd" d="M2 12C2 17.5228 6.47715 22 12 22C17.5228 22 22 17.5228 22 12C22 6.47715 17.5228 2 12 2C6.47715 2 2 6.47715 2 12ZM8.29729 8.28846C8.39213 8.19478 8.50104 8.12392 8.61716 8.07588C8.73419 8.02734 8.86244 8.0004 8.99694 8L9.00063 8H14.9999C15.5522 8 15.9999 8.44771 15.9999 9C15.9999 9.55228 15.5522 10 14.9999 10L11.4142 10L15.707 14.2929C16.0976 14.6834 16.0976 15.3166 15.707 15.7071C15.3165 16.0976 14.6834 16.0976 14.2928 15.7071L9.99991 11.4142L9.99988 15C9.99987 15.5523 9.55215 16 8.99987 16C8.44758 16 7.99987 15.5523 7.99988 15L7.99994 8.99999C7.99994 8.72611 8.11004 8.47795 8.2884 8.29736L8.29729 8.28846Z" fill="black"/>
</svg>
