<svg width="24" height="24" viewBox="0 0 24 24" fill="none" xmlns="http://www.w3.org/2000/svg">
<path d="M15.3828 8.07588C15.499 8.12392 15.6079 8.19478 15.7027 8.28846L15.7116 8.29736C15.89 8.47795 16.0001 8.72611 16.0001 8.99999L16.0001 15C16.0001 15.5523 15.5524 16 15.0001 16C14.4478 16 14.0001 15.5523 14.0001 15L14.0001 11.4142L9.70717 15.7071C9.31664 16.0976 8.68348 16.0976 8.29295 15.7071C7.90243 15.3166 7.90243 14.6834 8.29295 14.2929L12.5858 10L9.00006 10C8.44777 10 8.00006 9.55228 8.00006 9C8.00006 8.44771 8.44777 8 9.00006 8H14.9994L15.0031 8C15.1376 8.0004 15.2658 8.02734 15.3828 8.07588Z" fill="black"/>
<path fill-rule="evenodd" clip-rule="evenodd" d="M12 22C17.5228 22 22 17.5228 22 12C22 6.47715 17.5228 2 12 2C6.47715 2 2 6.47715 2 12C2 17.5228 6.47715 22 12 22ZM20 12C20 16.4183 16.4183 20 12 20C7.58172 20 4 16.4183 4 12C4 7.58172 7.58172 4 12 4C16.4183 4 20 7.58172 20 12Z" fill="black"/>
</svg>
