<svg width="24" height="24" viewBox="0 0 24 24" fill="none" xmlns="http://www.w3.org/2000/svg">
<path fill-rule="evenodd" clip-rule="evenodd" d="M22 12C22 6.47715 17.5228 2 12 2C6.47715 2 2 6.47715 2 12C2 17.5228 6.47715 22 12 22C17.5228 22 22 17.5228 22 12ZM16.7071 12.7071C16.3166 13.0976 15.6834 13.0976 15.2929 12.7071L13 10.4142V17C13 17.5523 12.5523 18 12 18C11.4477 18 11 17.5523 11 17V10.4142L8.70711 12.7071C8.31658 13.0976 7.68342 13.0976 7.29289 12.7071C6.90237 12.3166 6.90237 11.6834 7.29289 11.2929L11.2922 7.29361C11.4732 7.11222 11.7235 7 12 7C12.2765 7 12.5268 7.11222 12.7078 7.29361L16.7071 11.2929C17.0976 11.6834 17.0976 12.3166 16.7071 12.7071Z" fill="black"/>
</svg>
