<svg width="24" height="24" viewBox="0 0 24 24" fill="none" xmlns="http://www.w3.org/2000/svg">
<path fill-rule="evenodd" clip-rule="evenodd" d="M12 1C9.23858 1 7 3.23858 7 6C7 7.33261 7.52265 8.5453 8.37215 9.44075C8.80343 9.89536 9 10.2904 9 10.6185V12C9 12.5523 8.55228 13 8 13H6.5C4.567 13 3 14.567 3 16.5C3 18.433 4.567 20 6.5 20H17.5C19.433 20 21 18.433 21 16.5C21 14.567 19.433 13 17.5 13H16C15.4477 13 15 12.5523 15 12V10.6185C15 10.2904 15.1966 9.89536 15.6279 9.44075C16.4773 8.5453 17 7.33261 17 6C17 3.23858 14.7614 1 12 1ZM9 6C9 4.34315 10.3431 3 12 3C13.6569 3 15 4.34315 15 6C15 6.80029 14.688 7.52555 14.1769 8.06426C13.6255 8.64554 13 9.51864 13 10.6185V12C13 13.6569 14.3431 15 16 15H17.5C18.3284 15 19 15.6716 19 16.5C19 17.3284 18.3284 18 17.5 18H6.5C5.67157 18 5 17.3284 5 16.5C5 15.6716 5.67157 15 6.5 15H8C9.65685 15 11 13.6569 11 12V10.6185C11 9.51864 10.3745 8.64554 9.8231 8.06426C9.31204 7.52555 9 6.80029 9 6Z" fill="black"/>
<path d="M5 21C4.44772 21 4 21.4477 4 22C4 22.5523 4.44772 23 5 23H19C19.5523 23 20 22.5523 20 22C20 21.4477 19.5523 21 19 21H5Z" fill="black"/>
</svg>
