<svg width="24" height="24" viewBox="0 0 24 24" fill="none" xmlns="http://www.w3.org/2000/svg">
<path fill-rule="evenodd" clip-rule="evenodd" d="M17.7863 2.19065C13.5147 1.47932 9.00631 2.76939 5.89212 5.87847C2.77856 8.98691 1.48139 13.4922 2.18786 17.7641L2.18938 17.7733L2.19108 17.7825C2.37273 18.7666 2.85667 19.6784 3.56816 20.3926L3.57106 20.3955C4.28469 21.106 5.1955 21.5894 6.17853 21.7715C10.4512 22.5866 15.0276 21.1875 18.0978 18.0886C21.2415 14.9943 22.538 10.4688 21.7961 6.1938L21.7941 6.18328C21.6125 5.19914 21.1285 4.28732 20.4171 3.57312L20.4142 3.57023C19.6998 2.85896 18.7877 2.37524 17.8035 2.19366L17.7949 2.19208L17.7863 2.19065ZM4.29276 18.2928L4.40937 18.1762L9.08566 13.4999L8.29277 12.707C7.90224 12.3165 7.90224 11.6833 8.29277 11.2928C8.68329 10.9022 9.31645 10.9022 9.70698 11.2928L10.4999 12.0857L12.0857 10.4999L11.2928 9.70698C10.9022 9.31645 10.9022 8.68329 11.2928 8.29276C11.6833 7.90224 12.3165 7.90224 12.707 8.29276L13.4999 9.08566L18.1815 4.40404L18.2928 4.29276C18.6833 3.90224 19.3165 3.90224 19.707 4.29276C20.0975 4.68329 20.0975 5.31645 19.707 5.70698L19.5917 5.82228L14.9141 10.4999L15.707 11.2928C16.0975 11.6833 16.0975 12.3165 15.707 12.707C15.3165 13.0975 14.6833 13.0975 14.2928 12.707L13.4999 11.9141L11.9141 13.4999L12.707 14.2928C13.0975 14.6833 13.0975 15.3165 12.707 15.707C12.3165 16.0975 11.6833 16.0975 11.2928 15.707L10.4999 14.9141L5.83661 19.5773L5.70698 19.707C5.31645 20.0975 4.68329 20.0975 4.29276 19.707C3.90224 19.3165 3.90224 18.6833 4.29276 18.2928Z" fill="black"/>
</svg>
