<svg width="24" height="24" viewBox="0 0 24 24" fill="none" xmlns="http://www.w3.org/2000/svg">
<path fill-rule="evenodd" clip-rule="evenodd" d="M5.41421 2.99995C4.15428 1.74002 2 2.63235 2 4.41417V20C2 21.1045 2.89543 22 4 22H19.5858C21.3676 22 22.2599 19.8457 21 18.5857L5.41421 2.99995ZM15.5001 15.9143L19.5858 20H4V4.41417L8.08601 8.50017L6.29289 10.2933C5.90237 10.6838 5.90237 11.317 6.29289 11.7075C6.68342 12.098 7.31658 12.098 7.70711 11.7075L9.50022 9.91439L11.0859 11.5001L8.79289 13.7931C8.40237 14.1837 8.40237 14.8168 8.79289 15.2074C9.18342 15.5979 9.81658 15.5979 10.2071 15.2074L12.5002 12.9143L14.0859 14.5001L12.2929 16.293C11.9024 16.6836 11.9024 17.3167 12.2929 17.7073C12.6834 18.0978 13.3166 18.0978 13.7071 17.7073L15.5001 15.9143Z" fill="black"/>
</svg>
