<svg width="24" height="24" viewBox="0 0 24 24" fill="none" xmlns="http://www.w3.org/2000/svg">
<path fill-rule="evenodd" clip-rule="evenodd" d="M16.7071 1.29289C16.3166 0.902369 15.6834 0.902369 15.2929 1.29289L1.29289 15.2929C0.902369 15.6834 0.902369 16.3166 1.29289 16.7071L7.29289 22.7071C7.68342 23.0976 8.31658 23.0976 8.70711 22.7071L22.7071 8.70711C23.0976 8.31658 23.0976 7.68342 22.7071 7.29289L16.7071 1.29289ZM12 7.41421L13.2929 8.70711C13.6834 9.09763 14.3166 9.09763 14.7071 8.70711C15.0976 8.31658 15.0976 7.68342 14.7071 7.29289L13.4142 6L16 3.41421L20.5858 8L8 20.5858L3.41421 16L6 13.4142L7.29289 14.7071C7.68342 15.0976 8.31658 15.0976 8.70711 14.7071C9.09763 14.3166 9.09763 13.6834 8.70711 13.2929L7.41421 12L9 10.4142L10.2929 11.7071C10.6834 12.0976 11.3166 12.0976 11.7071 11.7071C12.0976 11.3166 12.0976 10.6834 11.7071 10.2929L10.4142 9L12 7.41421Z" fill="black"/>
</svg>
