<svg width="24" height="24" viewBox="0 0 24 24" fill="none" xmlns="http://www.w3.org/2000/svg">
<path fill-rule="evenodd" clip-rule="evenodd" d="M12 2C6.47715 2 2 6.47715 2 12C2 17.5228 6.47715 22 12 22C17.5228 22 22 17.5228 22 12C22 6.47715 17.5228 2 12 2ZM15.9193 15.6064C16.1367 16.1141 15.9013 16.7019 15.3936 16.9193C14.8859 17.1367 14.2981 16.9013 14.0807 16.3936C13.7257 15.5644 12.9195 15 12 15C11.0821 15 10.2772 15.5632 9.91835 16.3958C9.69978 16.903 9.11143 17.1369 8.60424 16.9184C8.09704 16.6998 7.86307 16.1114 8.08165 15.6042C8.737 14.0835 10.2353 13 12 13C13.7632 13 15.2667 14.0822 15.9193 15.6064ZM8 8.5C7.17157 8.5 6.5 9.17157 6.5 10C6.5 10.8284 7.17167 11.5 8.0001 11.5C8.82853 11.5 9.5001 10.8284 9.5001 10C9.5001 9.17157 8.82843 8.5 8 8.5ZM16 8.5C15.1716 8.5 14.5 9.17157 14.5 10C14.5 10.8284 15.1717 11.5 16.0001 11.5C16.8285 11.5 17.5001 10.8284 17.5001 10C17.5001 9.17157 16.8284 8.5 16 8.5Z" fill="black"/>
</svg>
