<svg width="24" height="24" viewBox="0 0 24 24" fill="none" xmlns="http://www.w3.org/2000/svg">
<path fill-rule="evenodd" clip-rule="evenodd" d="M12 1C9.51472 1 7.5 3.01472 7.5 5.5C7.5 7.98528 9.51472 10 12 10C14.4853 10 16.5 7.98528 16.5 5.5C16.5 3.01472 14.4853 1 12 1ZM9.5 5.5C9.5 4.11929 10.6193 3 12 3C13.3807 3 14.5 4.11929 14.5 5.5C14.5 6.88071 13.3807 8 12 8C10.6193 8 9.5 6.88071 9.5 5.5Z" fill="black"/>
<path fill-rule="evenodd" clip-rule="evenodd" d="M11 11C7.13401 11 4 14.134 4 18V19C4 20.6569 5.34315 22 7 22H17C18.6569 22 20 20.6569 20 19V18C20 14.134 16.866 11 13 11H11ZM6 18C6 16.3642 6.78555 14.9118 8 13.9996V20H7C6.44772 20 6 19.5523 6 19V18ZM13 13C13.3425 13 13.6769 13.0344 14 13.1V15H10V13.1C10.3231 13.0344 10.6575 13 11 13H13ZM18 19C18 19.5523 17.5523 20 17 20H16V13.9996C17.2144 14.9118 18 16.3642 18 18V19Z" fill="black"/>
</svg>
