<svg width="24" height="24" viewBox="0 0 24 24" fill="none" xmlns="http://www.w3.org/2000/svg">
<path fill-rule="evenodd" clip-rule="evenodd" d="M2 5C2 2.79272 3.79272 1 6 1H17.5C17.6721 1 17.8341 1.04348 17.9755 1.12005C19.7121 1.55609 21 3.12913 21 5V8C21 8.55229 20.5523 9 20 9C19.4477 9 19 8.55229 19 8V5C19 3.98813 18.2445 3.14923 17.268 3.01788C16.5502 3.1296 16 3.75119 16 4.5V7C16 7.55229 15.5523 8 15 8L6 8V19C6 19.5527 6.44728 20 7 20H15C15.5523 20 16 20.4477 16 21C16 21.5523 15.5523 22 15 22H7C5.34272 22 4 20.6573 4 19V8L3 8C2.44772 8 2 7.55229 2 7V5ZM4 5C4 3.89729 4.89729 3 6 3H14.3371C14.121 3.45468 14 3.96328 14 4.5V6H4V5Z" fill="black"/>
<path d="M18.999 22C18.999 22.5523 19.4467 23 19.999 23C20.5513 23 20.999 22.5523 20.999 22V21.5846C22.1381 21.197 22.999 20.1648 22.999 18.875C22.999 17.2274 21.5941 16 19.999 16C19.385 16 18.999 15.5484 18.999 15.125C18.999 14.7016 19.385 14.25 19.999 14.25C20.4729 14.25 20.8285 14.5317 20.9495 14.8528C21.1443 15.3696 21.7212 15.6305 22.238 15.4357C22.7548 15.2409 23.0158 14.664 22.8209 14.1472C22.5103 13.3233 21.8322 12.6962 20.999 12.414V12C20.999 11.4477 20.5513 11 19.999 11C19.4467 11 18.999 11.4477 18.999 12V12.4154C17.8599 12.803 16.999 13.8352 16.999 15.125C16.999 16.7726 18.4039 18 19.999 18C20.6131 18 20.999 18.4516 20.999 18.875C20.999 19.2984 20.6131 19.75 19.999 19.75C19.5252 19.75 19.1696 19.4683 19.0485 19.1472C18.8537 18.6304 18.2768 18.3695 17.7601 18.5643C17.2433 18.7591 16.9823 19.336 17.1771 19.8528C17.4877 20.6767 18.1659 21.3038 18.999 21.586V22Z" fill="black"/>
<path d="M8 15C8 14.4477 8.44772 14 9 14H14C14.5523 14 15 14.4477 15 15C15 15.5523 14.5523 16 14 16H9C8.44772 16 8 15.5523 8 15Z" fill="black"/>
<path d="M9 10C8.44772 10 8 10.4477 8 11C8 11.5523 8.44772 12 9 12H16C16.5523 12 17 11.5523 17 11C17 10.4477 16.5523 10 16 10H9Z" fill="black"/>
</svg>
