<svg width="24" height="24" viewBox="0 0 24 24" fill="none" xmlns="http://www.w3.org/2000/svg">
<path d="M12 1C9.51472 1 7.5 3.01472 7.5 5.5C7.5 7.98528 9.51472 10 12 10C14.4853 10 16.5 7.98528 16.5 5.5C16.5 3.01472 14.4853 1 12 1Z" fill="black"/>
<path d="M11 11C10.6605 11 10.3266 11.0242 10 11.0709V13.1V15H14V13.1V11.0709C13.6734 11.0242 13.3395 11 13 11H11Z" fill="black"/>
<path d="M4 18C4 15.2076 5.63505 12.7971 8 11.6736V13.9996V20V22H7C5.34315 22 4 20.6569 4 19V18Z" fill="black"/>
<path d="M20 18C20 15.2076 18.3649 12.7971 16 11.6736V13.9996V20V22H17C18.6569 22 20 20.6569 20 19V18Z" fill="black"/>
</svg>
