<svg width="24" height="24" viewBox="0 0 24 24" fill="none" xmlns="http://www.w3.org/2000/svg">
<path d="M14 7C14.5523 7 15 7.44772 15 8C15 8.55228 14.5523 9.0001 14 9.0001C13.4477 9.0001 13 8.55238 13 8.0001C13 7.44782 13.4477 7 14 7Z" fill="black"/>
<path fill-rule="evenodd" clip-rule="evenodd" d="M22.9549 2.76887C23.185 1.79912 22.3811 0.894263 21.391 1.00974L21.377 1.01148C20.2241 1.16254 17.847 1.71442 15.4742 3.69752C14.4037 3.24825 13.2279 3 11.9941 3C7.02358 3 2.99414 7.02944 2.99414 12C2.99414 13.0335 3.16833 14.0262 3.48895 14.9506C3.44073 15.0308 3.38443 15.1261 3.32162 15.2356C3.11382 15.5975 2.83341 16.1156 2.53689 16.7494C1.94745 18.0094 1.27698 19.7635 1.00559 21.6789C0.963218 21.9777 1.03379 22.3301 1.29563 22.61C1.5188 22.8485 1.78735 22.932 1.94382 22.965C2.25207 23.03 2.58111 22.9922 2.83317 22.9478C3.38319 22.8507 4.11326 22.6154 4.94223 22.2749C6.00088 21.8402 7.29071 21.205 8.69165 20.3748C9.71413 20.7783 10.8282 21 11.9941 21C16.9647 21 20.9941 16.9706 20.9941 12C20.9941 10.9218 20.8046 9.88796 20.4569 8.92988C21.5417 7.06065 22.4135 5.00734 22.9539 2.77302L22.9549 2.76887ZM19.3395 6.79822C19.9225 5.64887 20.4128 4.43474 20.7829 3.15723C19.8898 3.3769 18.6476 3.8314 17.3526 4.76834C18.117 5.33567 18.7883 6.02133 19.3395 6.79822ZM18.2091 8.77597C15.9906 12.2557 12.9666 15.0438 10.0773 17.0916C9.56582 17.4541 9.06052 17.792 8.56707 18.1051C6.43461 16.9055 4.99414 14.621 4.99414 12C4.99414 8.13401 8.12815 5 11.9941 5C14.6975 5 17.0429 6.53242 18.2091 8.77597ZM10.9499 18.9226C11.0443 18.857 11.139 18.7905 11.2338 18.7233C13.8691 16.8555 16.6809 14.3527 18.9526 11.2333C18.9801 11.4851 18.9941 11.7409 18.9941 12C18.9941 15.866 15.8601 19 11.9941 19C11.6393 19 11.2906 18.9736 10.9499 18.9226ZM6.64475 19.2384C5.84662 18.6476 5.14964 17.9279 4.58457 17.1101C4.5082 17.2621 4.42902 17.4247 4.34845 17.5969C3.93741 18.4756 3.50035 19.5826 3.21128 20.7856C3.48766 20.6959 3.81277 20.5767 4.18245 20.4249C4.89094 20.1339 5.72755 19.7379 6.64475 19.2384Z" fill="black"/>
</svg>
