<svg width="24" height="24" viewBox="0 0 24 24" fill="none" xmlns="http://www.w3.org/2000/svg">
<path fill-rule="evenodd" clip-rule="evenodd" d="M21.391 1.00974C22.3811 0.894263 23.185 1.79912 22.9549 2.76887L22.9539 2.77302C22.4134 5.00742 21.5417 7.06081 20.4568 8.93009C20.8044 9.88811 20.9939 10.9219 20.9939 12C20.9939 16.9706 16.9645 21 11.9939 21C10.8281 21 9.71402 20.7783 8.69158 20.3748C7.29067 21.205 6.00087 21.8402 4.94223 22.2749C4.11326 22.6154 3.38319 22.8507 2.83317 22.9478C2.58111 22.9922 2.25207 23.03 1.94382 22.965C1.78735 22.932 1.5188 22.8485 1.29563 22.61C1.03379 22.3301 0.963218 21.9777 1.00559 21.6789C1.27698 19.7635 1.94745 18.0094 2.53689 16.7494C2.83341 16.1156 3.11382 15.5975 3.32162 15.2356C3.38438 15.1262 3.44062 15.0309 3.48882 14.9508C3.16815 14.0264 2.99393 13.0335 2.99393 12C2.99393 7.02942 7.02337 2.99999 11.9939 2.99999C13.2277 2.99999 14.4036 3.24826 15.4741 3.69757C17.8469 1.71443 20.2241 1.16254 21.377 1.01148L21.391 1.00974ZM20.7829 3.15723C20.4128 4.4348 19.9225 5.64899 19.3394 6.79838C18.7883 6.02145 18.1169 5.33576 17.3525 4.7684C18.6476 3.83142 19.8898 3.37691 20.7829 3.15723ZM11.2338 18.7233C11.139 18.7905 11.0443 18.857 10.9498 18.9226C11.2905 18.9736 11.6391 19 11.9939 19C15.8599 19 18.9939 15.866 18.9939 12C18.9939 11.741 18.9799 11.4853 18.9525 11.2336C16.6807 14.3528 13.869 16.8556 11.2338 18.7233ZM4.58448 17.1103C5.14956 17.928 5.84653 18.6477 6.64464 19.2385C5.72748 19.738 4.89091 20.1339 4.18245 20.4249C3.81277 20.5767 3.48766 20.6959 3.21128 20.7856C3.50035 19.5826 3.93741 18.4756 4.34845 17.5969C4.42899 17.4248 4.50814 17.2622 4.58448 17.1103ZM14.9998 7.99999C14.9998 7.4477 14.5521 6.99999 13.9998 6.99999C13.4475 6.99999 12.9998 7.4478 12.9998 8.00009C12.9998 8.55237 13.4475 9.00009 13.9998 9.00009C14.5521 9.00009 14.9998 8.55227 14.9998 7.99999Z" fill="black"/>
</svg>
