<svg width="24" height="24" viewBox="0 0 24 24" fill="none" xmlns="http://www.w3.org/2000/svg">
<path d="M18 13C17.4477 13 17 13.4477 17 14C17 14.5523 17.4478 15 18.0001 15C18.5524 15 19.0001 14.5523 19.0001 14C19.0001 13.4477 18.5523 13 18 13Z" fill="black"/>
<path fill-rule="evenodd" clip-rule="evenodd" d="M7 0C6.44772 0 6 0.447715 6 1V9H5C2.79086 9 1 10.7909 1 13V16C1 18.2091 2.79086 20 5 20H6C6 21.1046 6.89543 22 8 22H16C17.1046 22 18 21.1046 18 20H19C21.2091 20 23 18.2091 23 16V13C23 10.7909 21.2091 9 19 9H18V1C18 0.447715 17.5523 0 17 0H7ZM8 16C6.89543 16 6 16.8954 6 18H5C3.89543 18 3 17.1046 3 16V13C3 11.8954 3.89543 11 5 11H19C20.1046 11 21 11.8954 21 13V16C21 17.1046 20.1046 18 19 18H18C18 16.8954 17.1046 16 16 16H8ZM16 9V2H8V9H16ZM16 18H8V20H16V18Z" fill="black"/>
</svg>
