<svg width="24" height="24" viewBox="0 0 24 24" fill="none" xmlns="http://www.w3.org/2000/svg">
<path fill-rule="evenodd" clip-rule="evenodd" d="M9.09581 7.63691C9.57248 7.13753 10.3637 7.11913 10.8631 7.59581L21.8631 18.0958C22.3625 18.5725 22.3809 19.3637 21.9042 19.8631C21.4275 20.3625 20.6363 20.3809 20.1369 19.9042L9.13691 9.40419C8.63753 8.92752 8.61913 8.13628 9.09581 7.63691Z" fill="black"/>
<path fill-rule="evenodd" clip-rule="evenodd" d="M21.9291 4.16379C22.3909 4.67693 22.3493 5.46729 21.8362 5.92912L16.8362 10.4291C16.3231 10.8909 15.5327 10.8493 15.0709 10.3362C14.6091 9.82307 14.6507 9.03271 15.1638 8.57088L20.1638 4.07088C20.6769 3.60906 21.4673 3.65066 21.9291 4.16379Z" fill="black"/>
<path fill-rule="evenodd" clip-rule="evenodd" d="M13.8839 11.1161C14.372 11.6043 14.372 12.3957 13.8839 12.8839L10.3839 16.3839C9.89573 16.872 9.10427 16.872 8.61612 16.3839C8.12796 15.8957 8.12796 15.1043 8.61612 14.6161L12.1161 11.1161C12.6043 10.628 13.3957 10.628 13.8839 11.1161Z" fill="black"/>
<path fill-rule="evenodd" clip-rule="evenodd" d="M7 4.25C6.0335 4.25 5.25 5.0335 5.25 6C5.25 6.9665 6.0335 7.75 7 7.75C7.9665 7.75 8.75 6.9665 8.75 6C8.75 5.0335 7.9665 4.25 7 4.25ZM2.75 6C2.75 3.65279 4.65279 1.75 7 1.75C9.34721 1.75 11.25 3.65279 11.25 6C11.25 8.34721 9.34721 10.25 7 10.25C4.65279 10.25 2.75 8.34721 2.75 6Z" fill="black"/>
<path fill-rule="evenodd" clip-rule="evenodd" d="M7 16.25C6.0335 16.25 5.25 17.0335 5.25 18C5.25 18.9665 6.0335 19.75 7 19.75C7.9665 19.75 8.75 18.9665 8.75 18C8.75 17.0335 7.9665 16.25 7 16.25ZM2.75 18C2.75 15.6528 4.65279 13.75 7 13.75C9.34721 13.75 11.25 15.6528 11.25 18C11.25 20.3472 9.34721 22.25 7 22.25C4.65279 22.25 2.75 20.3472 2.75 18Z" fill="black"/>
</svg>
