<svg width="24" height="24" viewBox="0 0 24 24" fill="none" xmlns="http://www.w3.org/2000/svg">
<path fill-rule="evenodd" clip-rule="evenodd" d="M15.2148 18.3361C13.7436 19.3838 11.9437 20 10 20C5.02944 20 1 15.9706 1 11C1 6.02944 5.02944 2 10 2C14.9706 2 19 6.02944 19 11C19 12.9437 18.3838 14.7436 17.3361 16.2148L20.5607 19.4393C21.1464 20.0251 21.1464 20.9749 20.5607 21.5607C19.9749 22.1464 19.0251 22.1464 18.4393 21.5607L15.2148 18.3361ZM14.8125 16.0833C13.558 17.2714 11.8641 18 10 18C6.13401 18 3 14.866 3 11C3 7.13401 6.13401 4 10 4C13.866 4 17 7.13401 17 11C17 12.8641 16.2714 14.558 15.0833 15.8125C15.0333 15.8512 14.9852 15.8935 14.9393 15.9393C14.8935 15.9852 14.8512 16.0333 14.8125 16.0833Z" fill="black"/>
</svg>
