<svg width="24" height="24" viewBox="0 0 24 24" fill="none" xmlns="http://www.w3.org/2000/svg">
<path fill-rule="evenodd" clip-rule="evenodd" d="M15.1858 18.6607C13.7068 19.6639 11.9218 20.25 10 20.25C4.89137 20.25 0.75 16.1086 0.75 11C0.75 5.89137 4.89137 1.75 10 1.75C15.1086 1.75 19.25 5.89137 19.25 11C19.25 12.9218 18.6639 14.7068 17.6607 16.1858L20.7374 19.2626C21.4209 19.946 21.4209 21.054 20.7374 21.7374C20.054 22.4209 18.946 22.4209 18.2626 21.7374L15.1858 18.6607ZM3.25 11C3.25 7.27208 6.27208 4.25 10 4.25C13.7279 4.25 16.75 7.27208 16.75 11C16.75 12.7908 16.0526 14.4188 14.9145 15.6271C14.8619 15.6688 14.8112 15.7139 14.7626 15.7626C14.7139 15.8112 14.6688 15.8619 14.6271 15.9145C13.4188 17.0526 11.7908 17.75 10 17.75C6.27208 17.75 3.25 14.7279 3.25 11Z" fill="black"/>
</svg>
