<svg width="24" height="24" viewBox="0 0 24 24" fill="none" xmlns="http://www.w3.org/2000/svg">
<path fill-rule="evenodd" clip-rule="evenodd" d="M5 11.5C5 6.80558 8.80558 3 13.5 3C18.1944 3 22 6.80558 22 11.5C22 13.4869 21.3183 15.3145 20.176 16.7618L22.7071 19.2929C23.0976 19.6834 23.0976 20.3166 22.7071 20.7071C22.3166 21.0976 21.6834 21.0976 21.2929 20.7071L18.7618 18.176C17.3145 19.3183 15.4869 20 13.5 20C8.80558 20 5 16.1944 5 11.5ZM13.5 5C9.91015 5 7 7.91015 7 11.5C7 15.0899 9.91015 18 13.5 18C17.0899 18 20 15.0899 20 11.5C20 7.91015 17.0899 5 13.5 5Z" fill="black"/>
<path d="M1 11C0.447715 11 0 11.4477 0 12C0 12.5523 0.447715 13 1 13H2C2.55228 13 3 12.5523 3 12C3 11.4477 2.55228 11 2 11H1Z" fill="black"/>
<path d="M0 7C0 6.44772 0.447715 6 1 6H4C4.55228 6 5 6.44772 5 7C5 7.55228 4.55228 8 4 8H1C0.447715 8 0 7.55228 0 7Z" fill="black"/>
<path d="M1 16C0.447715 16 0 16.4477 0 17C0 17.5523 0.447715 18 1 18H4C4.55228 18 5 17.5523 5 17C5 16.4477 4.55228 16 4 16H1Z" fill="black"/>
</svg>
