<svg width="24" height="24" viewBox="0 0 24 24" fill="none" xmlns="http://www.w3.org/2000/svg">
<path fill-rule="evenodd" clip-rule="evenodd" d="M4.75 11.5C4.75 6.66751 8.66751 2.75 13.5 2.75C18.3325 2.75 22.25 6.66751 22.25 11.5C22.25 13.4654 21.602 15.2795 20.508 16.7402L22.8839 19.1161C23.372 19.6043 23.372 20.3957 22.8839 20.8839C22.3957 21.372 21.6043 21.372 21.1161 20.8839L18.7402 18.508C17.2795 19.602 15.4654 20.25 13.5 20.25C8.66751 20.25 4.75 16.3325 4.75 11.5ZM13.5 5.25C10.0482 5.25 7.25 8.04822 7.25 11.5C7.25 14.9518 10.0482 17.75 13.5 17.75C16.9518 17.75 19.75 14.9518 19.75 11.5C19.75 8.04822 16.9518 5.25 13.5 5.25Z" fill="black"/>
<path d="M1 11C0.447715 11 0 11.4477 0 12C0 12.5523 0.447715 13 1 13H2C2.55228 13 3 12.5523 3 12C3 11.4477 2.55228 11 2 11H1Z" fill="black"/>
<path d="M0 7C0 6.44772 0.447715 6 1 6H4C4.55228 6 5 6.44772 5 7C5 7.55228 4.55228 8 4 8H1C0.447715 8 0 7.55228 0 7Z" fill="black"/>
<path d="M1 16C0.447715 16 0 16.4477 0 17C0 17.5523 0.447715 18 1 18H4C4.55228 18 5 17.5523 5 17C5 16.4477 4.55228 16 4 16H1Z" fill="black"/>
</svg>
