<svg width="24" height="24" viewBox="0 0 24 24" fill="none" xmlns="http://www.w3.org/2000/svg">
<path d="M5 10.0878C5 6.72561 7.72561 4 11.0878 4C13.9838 4 16.4096 6.02309 17.0248 8.73403C17.147 9.27263 17.6827 9.61017 18.2213 9.48796C18.7599 9.36574 19.0974 8.83005 18.9752 8.29146C18.1579 4.68955 14.9381 2 11.0878 2C6.62104 2 3 5.62104 3 10.0878C3 13.9381 5.68955 17.1579 9.29146 17.9752C9.83005 18.0974 10.3657 17.7599 10.488 17.2213C10.6102 16.6827 10.2726 16.147 9.73403 16.0248C7.02309 15.4096 5 12.9838 5 10.0878Z" fill="black"/>
<path d="M12.3974 9.08236C12.0651 8.93846 11.681 8.98544 11.3932 9.20517C11.1054 9.4249 10.9588 9.78306 11.0101 10.1415L12.2515 18.8257C12.2986 19.1551 12.5064 19.4396 12.806 19.5844C13.1055 19.7293 13.4576 19.7157 13.745 19.5481L15.5279 18.5088L18.3973 21.6719C18.7486 22.0591 19.3389 22.1104 19.7517 21.7895L21.6137 20.3422C22.0322 20.0169 22.1242 19.4216 21.8234 18.9852L19.5938 15.7502L21.2629 14.5826C21.5598 14.3749 21.7211 14.0229 21.6846 13.6625C21.6481 13.302 21.4195 12.9895 21.0871 12.8455L12.3974 9.08236Z" fill="black"/>
</svg>
