<svg width="24" height="24" viewBox="0 0 24 24" fill="none" xmlns="http://www.w3.org/2000/svg">
<path fill-rule="evenodd" clip-rule="evenodd" d="M10.7586 13.5207C10.7048 13.3952 10.6048 13.2952 10.4793 13.2414L4.4488 10.6569C4.00831 10.4682 4.02283 9.83876 4.47155 9.67049L19.1492 4.16639C19.5765 4.00612 19.9939 4.42347 19.8336 4.85085L14.3295 19.5285C14.1612 19.9772 13.5318 19.9917 13.3431 19.5512L10.7586 13.5207ZM9.05525 14.9447L8.00266 14.4936L3.61111 12.6115C1.40869 11.6677 1.48127 8.52068 3.72487 7.67933L18.4025 2.17523C20.5394 1.3739 22.6261 3.46065 21.8248 5.59753L16.3207 20.2751C15.4793 22.5187 12.3323 22.5913 11.3885 20.3889L9.50636 15.9973L9.05525 14.9447Z" fill="black"/>
<path fill-rule="evenodd" clip-rule="evenodd" d="M14.6165 10.8872C15.0317 10.472 15.0317 9.79877 14.6165 9.38353C14.2012 8.96829 13.528 8.96829 13.1128 9.38353L8.00266 14.4936L9.05525 14.9447L9.50636 15.9973L14.6165 10.8872Z" fill="black"/>
</svg>
