<svg width="24" height="24" viewBox="0 0 24 24" fill="none" xmlns="http://www.w3.org/2000/svg">
<path fill-rule="evenodd" clip-rule="evenodd" d="M14.968 3.55386C15.2863 3.36575 15.6329 3.22049 16 3.12602V2H18V3.12602C18.367 3.22047 18.7135 3.36568 19.0318 3.55373L19.8282 2.75734L21.2424 4.17156L20.4461 4.96788C20.6342 5.28623 20.7795 5.63292 20.874 6H22V8H20.874C20.7795 8.36708 20.6342 8.71377 20.4461 9.03212L21.2424 9.82844L19.8282 11.2427L19.0318 10.4463C18.7135 10.6343 18.367 10.7795 18 10.874V12H16.1538H16V11.7696V10.874C15.9228 10.8541 15.8464 10.832 15.771 10.8077C15.4883 10.7165 15.2193 10.5947 14.968 10.4461L14.1715 11.2426L12.7572 9.82841L13.5538 9.03189C13.4049 8.77987 13.2828 8.5101 13.1916 8.22651C13.1676 8.15194 13.1457 8.07641 13.126 8H12.2428H12V7.84028V6H13.126C13.2205 5.63301 13.3657 5.2864 13.5538 4.96811L12.7572 4.17158L14.1715 2.75737L14.968 3.55386ZM17 5C15.8954 5 15 5.89543 15 7C15 7.32452 15.0773 7.63099 15.2145 7.902C15.407 8.28232 15.7174 8.59281 16.0977 8.78537C16.3688 8.92265 16.6754 9 17 9C18.1046 9 19 8.10457 19 7C19 5.89543 18.1046 5 17 5Z" fill="black"/>
<path fill-rule="evenodd" clip-rule="evenodd" d="M18 12H16.1538H16V11.7696V10.874C15.9228 10.8541 15.8464 10.832 15.771 10.8077C15.4883 10.7165 15.2193 10.5947 14.968 10.4461L14.1715 11.2426L12.7572 9.82841L13.5538 9.03189C13.4049 8.77987 13.2828 8.5101 13.1916 8.22651C13.1676 8.15194 13.1457 8.07641 13.126 8H12.2428H12V7.84028V6H13.126C13.2205 5.63301 13.3657 5.2864 13.5538 4.96811L12.7572 4.17158L14.1715 2.75737L14.968 3.55386C15.2863 3.36575 15.6329 3.22049 16 3.12602V2H18V3.12602C18.367 3.22047 18.7135 3.36568 19.0318 3.55373L19.8282 2.75734L21.2424 4.17156L20.4461 4.96788C20.6342 5.28623 20.7795 5.63292 20.874 6H22V8H20.874C20.7795 8.36708 20.6342 8.71377 20.4461 9.03212L21.2424 9.82844L19.8282 11.2427L19.0318 10.4463C18.7135 10.6343 18.367 10.7795 18 10.874V12ZM18 14.5784V13.5H14.5V13.0354L14.1715 13.3639L13.3185 12.511C13.5227 12.9655 13.6364 13.4695 13.6364 14C13.6364 16.0083 12.0083 17.6364 10 17.6364C7.99169 17.6364 6.36364 16.0083 6.36364 14C6.36364 11.9917 7.99169 10.3636 10 10.3636C10.5305 10.3636 11.0345 10.4773 11.489 10.6815L10.6359 9.82841L10.9643 9.5H10.5V6H9.41952C8.85645 6 8.4 6.45645 8.4 7.01952C8.4 7.48337 8.08326 7.8809 7.65221 8.05224C7.58757 8.07793 7.52335 8.10468 7.45957 8.13247C7.03259 8.3185 6.525 8.26226 6.19566 7.93292C5.79739 7.53464 5.15165 7.53464 4.75337 7.93292L3.9406 8.74569C3.53808 9.14821 3.53808 9.80082 3.9406 10.2033C4.27711 10.5398 4.33019 11.0592 4.13294 11.4923C4.10797 11.5471 4.08372 11.6024 4.06023 11.6584C3.88109 12.085 3.48426 12.4 3.02158 12.4C2.45738 12.4 2 12.8574 2 13.4216V14.5792C2 15.143 2.45703 15.6 3.02081 15.6C3.48519 15.6 3.88336 15.917 4.05397 16.3489C4.0799 16.4145 4.10688 16.4797 4.13492 16.5445C4.31926 16.9704 4.26168 17.4756 3.93355 17.8037C3.53493 18.2023 3.53493 18.8486 3.93355 19.2473L4.75474 20.0684C5.15226 20.466 5.79677 20.466 6.1943 20.0684C6.52107 19.7417 7.02393 19.684 7.44776 19.8682C7.51583 19.8978 7.58412 19.9261 7.65261 19.9531C8.08342 20.1232 8.4 20.5202 8.4 20.9833C8.4 21.5448 8.85517 22 9.41665 22H10.5805C11.1435 22 11.6 21.5435 11.6 20.9805C11.6 20.5166 11.9167 20.1191 12.3478 19.9478C12.4124 19.9221 12.4767 19.8953 12.5404 19.8675C12.9674 19.6815 13.475 19.7377 13.8043 20.0671C14.2026 20.4654 14.8484 20.4654 15.2466 20.0671L16.0594 19.2543C16.4619 18.8518 16.4619 18.1992 16.0594 17.7967C15.7229 17.4602 15.6698 16.9408 15.8671 16.5077C15.892 16.4529 15.9163 16.3976 15.9398 16.3416C16.1189 15.915 16.5157 15.6 16.9784 15.6C17.5426 15.6 18 15.1426 18 14.5784ZM17 9C16.6754 9 16.3688 8.92265 16.0977 8.78537C15.7174 8.59281 15.407 8.28232 15.2145 7.902C15.0773 7.63099 15 7.32452 15 7C15 5.89543 15.8954 5 17 5C18.1046 5 19 5.89543 19 7C19 8.10457 18.1046 9 17 9Z" fill="black"/>
</svg>
