<svg width="24" height="24" viewBox="0 0 24 24" fill="none" xmlns="http://www.w3.org/2000/svg">
<path d="M9.91761 9.84045C10.4572 9.32007 11.1912 9 12 9C12.8149 9 13.5539 9.32491 14.0946 9.85226L14.1477 9.90543C14.6751 10.4461 15 11.1851 15 12C15 12.8156 14.6745 13.5552 14.1463 14.096L14.096 14.1463C13.5552 14.6745 12.8156 15 12 15C11.1868 15 10.4491 14.6764 9.90877 14.151L9.84901 14.0912C9.32358 13.5509 9 12.8132 9 12C9 11.1912 9.32007 10.4572 9.84045 9.91761L9.91761 9.84045Z" fill="black"/>
<path fill-rule="evenodd" clip-rule="evenodd" d="M7 2C4.23858 2 2 4.23858 2 7V17C2 19.7614 4.23858 22 7 22H17C19.7614 22 22 19.7614 22 17V7C22 4.23858 19.7614 2 17 2H7ZM16.9 11C16.7704 10.3616 16.5191 9.76729 16.1715 9.24245L16.9494 8.4645L15.5352 7.05028L14.7572 7.82829C14.2325 7.48075 13.6383 7.22959 13 7.10002V6H11V7.10002C10.3615 7.22962 9.76724 7.48088 9.24237 7.82855L8.46462 7.0508L7.0504 8.46501L7.82824 9.24285C7.48073 9.76759 7.22958 10.3617 7.10002 11H6V13H7.10002C7.22962 13.6385 7.48087 14.2327 7.82853 14.7576L7.05063 15.5355L8.46484 16.9497L9.24281 16.1717C9.76757 16.5193 10.3617 16.7704 11 16.9V18H13V16.9C13.6382 16.7704 14.2322 16.5193 14.7569 16.1719L15.535 16.95L16.9492 15.5358L16.1713 14.7578C16.519 14.2329 16.7704 13.6386 16.9 13H18V11H16.9Z" fill="black"/>
</svg>
