<svg width="24" height="24" viewBox="0 0 24 24" fill="none" xmlns="http://www.w3.org/2000/svg">
<path fill-rule="evenodd" clip-rule="evenodd" d="M9 3.2744C9 2.01828 10.0183 1 11.2744 1H12.7292C13.9833 1 15 2.01668 15 3.27081C15 3.37176 15.0779 3.54019 15.3014 3.62843C15.3976 3.66638 15.4934 3.70609 15.5888 3.74758C15.8059 3.84189 15.9784 3.779 16.05 3.70733C16.9375 2.81991 18.3763 2.81991 19.2637 3.70733L20.2902 4.73382C21.179 5.62263 21.179 7.06367 20.2902 7.95247C20.2172 8.0254 20.1534 8.2011 20.2491 8.42214C20.2884 8.51298 20.3262 8.60446 20.3626 8.69652C20.4512 8.92078 20.6208 9 20.724 9C21.981 9 23 10.019 23 11.276V12.723C23 13.9806 21.9806 15 20.723 15C20.6213 15 20.4455 15.079 20.3467 15.3142C20.3134 15.3934 20.2791 15.4718 20.2439 15.5492C20.1396 15.7781 20.2047 15.962 20.2814 16.0387C21.175 16.9324 21.175 18.3813 20.2814 19.275L19.2654 20.291C18.377 21.1793 16.9367 21.1793 16.0483 20.291C15.9757 20.2184 15.7988 20.1537 15.575 20.2512C15.4853 20.2903 15.395 20.3279 15.3041 20.364C15.0786 20.4536 15 20.6235 15 20.7256C15 21.9817 13.9817 23 12.7256 23H11.2708C10.0167 23 9 21.9833 9 20.7292C9 20.6282 8.92208 20.4598 8.69856 20.3716C8.60243 20.3336 8.50662 20.2939 8.41116 20.2524C8.19412 20.1581 8.02164 20.221 7.94998 20.2927C7.06255 21.1801 5.62374 21.1801 4.73632 20.2927L3.70983 19.2662C2.82103 18.3774 2.82103 16.9363 3.70983 16.0475C3.78276 15.9746 3.84662 15.7989 3.75094 15.5779C3.71161 15.487 3.67376 15.3955 3.63739 15.3035C3.54881 15.0792 3.37924 15 3.27601 15C2.019 15 1 13.981 1 12.724V11.277C1 10.0194 2.01944 9 3.27698 9C3.3787 9 3.5545 8.92103 3.65329 8.68579C3.68656 8.60655 3.72086 8.52824 3.75611 8.45083C3.86039 8.22188 3.79534 8.03798 3.71864 7.96128C2.82497 7.06761 2.82497 5.61868 3.71864 4.72501L4.73461 3.70905C5.62298 2.82067 7.06332 2.82067 7.95169 3.70905C8.02427 3.78162 8.20125 3.84632 8.42504 3.74882C8.51471 3.70975 8.605 3.67215 8.69588 3.63602C8.92136 3.5464 9 3.37652 9 3.2744ZM11.2744 3C11.1229 3 11 3.12285 11 3.2744C11 4.33191 10.2868 5.15586 9.43464 5.49458C9.36393 5.52269 9.29367 5.55195 9.2239 5.58235C8.38022 5.94993 7.28824 5.87402 6.53747 5.12326C6.43015 5.01594 6.25614 5.01594 6.14882 5.12326L5.13286 6.13922C5.02023 6.25185 5.02023 6.43444 5.13286 6.54707C5.89742 7.31164 5.96508 8.42603 5.57623 9.2798C5.54906 9.33945 5.52274 9.39956 5.49729 9.46015C5.14822 10.2914 4.33196 11 3.27698 11C3.12401 11 3 11.124 3 11.277V12.724C3 12.8764 3.12357 13 3.27601 13C4.33374 13 5.15959 13.7132 5.49753 14.5687C5.52598 14.6407 5.55559 14.7123 5.58636 14.7834C5.95153 15.627 5.87145 16.7143 5.12405 17.4617C5.01629 17.5695 5.01629 17.7442 5.12405 17.852L6.15053 18.8785C6.25691 18.9848 6.42938 18.9848 6.53576 18.8785C7.28103 18.1332 8.3657 18.052 9.20825 18.4181C9.28296 18.4506 9.35787 18.4816 9.43295 18.5113C10.2865 18.8482 11 19.6722 11 20.7292C11 20.8788 11.1212 21 11.2708 21H12.7256C12.8771 21 13 20.8771 13 20.7256C13 19.6681 13.7132 18.8441 14.5654 18.5054C14.6361 18.4773 14.7063 18.4481 14.7761 18.4177C15.6198 18.0501 16.7118 18.126 17.4625 18.8767C17.5699 18.9841 17.7439 18.9841 17.8512 18.8767L18.8671 17.8608C18.9798 17.7482 18.9798 17.5656 18.8671 17.4529C18.1026 16.6884 18.0349 15.574 18.4238 14.7202C18.4509 14.6605 18.4773 14.6004 18.5027 14.5398C18.8518 13.7086 19.668 13 20.723 13C20.876 13 21 12.876 21 12.723V11.276C21 11.1236 20.8764 11 20.724 11C19.6663 11 18.8404 10.2868 18.5025 9.4313C18.474 9.35927 18.4444 9.2877 18.4136 9.21663C18.0485 8.37302 18.1286 7.28566 18.876 6.53826C18.9837 6.4305 18.9837 6.25579 18.876 6.14803L17.8495 5.12155C17.7431 5.01517 17.5706 5.01517 17.4642 5.12155C16.719 5.86681 15.6343 5.948 14.7918 5.58187C14.717 5.54941 14.6421 5.51836 14.567 5.48872C13.7135 5.15177 13 4.3278 13 3.27081C13 3.12125 12.8788 3 12.7292 3H11.2744Z" fill="black"/>
<path fill-rule="evenodd" clip-rule="evenodd" d="M12 9C10.3431 9 9 10.3431 9 12C9 13.6569 10.3431 15 12 15C13.6569 15 15 13.6569 15 12C15 10.3431 13.6569 9 12 9ZM7 12C7 9.23858 9.23858 7 12 7C14.7614 7 17 9.23858 17 12C17 14.7614 14.7614 17 12 17C9.23858 17 7 14.7614 7 12Z" fill="black"/>
</svg>
