<svg width="24" height="24" viewBox="0 0 24 24" fill="none" xmlns="http://www.w3.org/2000/svg">
<path fill-rule="evenodd" clip-rule="evenodd" d="M11.0828 16.8481L16.1958 13.5557C17.4386 12.7554 17.4138 10.9299 16.1496 10.1637L11.0366 7.06494C9.70373 6.25713 8 7.21677 8 8.77533V15.1666C8 16.7496 9.75186 17.7052 11.0828 16.8481ZM15.113 11.8741L10 15.1666V8.77533L15.113 11.8741Z" fill="black"/>
<path fill-rule="evenodd" clip-rule="evenodd" d="M11.2744 1C10.0183 1 9 2.01828 9 3.2744C9 3.37652 8.92136 3.5464 8.69588 3.63602C8.605 3.67215 8.51471 3.70975 8.42504 3.74882C8.20125 3.84632 8.02427 3.78162 7.95169 3.70905C7.06332 2.82067 5.62298 2.82067 4.73461 3.70905L3.71864 4.72501C2.82497 5.61868 2.82497 7.06761 3.71864 7.96128C3.79534 8.03798 3.86039 8.22188 3.75611 8.45083C3.72086 8.52824 3.68656 8.60655 3.65329 8.68579C3.5545 8.92103 3.3787 9 3.27698 9C2.01944 9 1 10.0194 1 11.277V12.724C1 13.981 2.019 15 3.27601 15C3.37924 15 3.54881 15.0792 3.63739 15.3035C3.67376 15.3955 3.71161 15.487 3.75094 15.5779C3.84662 15.7989 3.78276 15.9746 3.70983 16.0475C2.82103 16.9363 2.82103 18.3774 3.70983 19.2662L4.73632 20.2927C5.62374 21.1801 7.06255 21.1801 7.94998 20.2927C8.02164 20.221 8.19412 20.1581 8.41116 20.2524C8.50662 20.2939 8.60243 20.3336 8.69856 20.3716C8.92208 20.4598 9 20.6282 9 20.7292C9 21.9833 10.0167 23 11.2708 23H12.7256C13.9817 23 15 21.9817 15 20.7256C15 20.6235 15.0786 20.4536 15.3041 20.364C15.395 20.3279 15.4853 20.2903 15.575 20.2512C15.7988 20.1537 15.9757 20.2184 16.0483 20.291C16.9367 21.1793 18.377 21.1793 19.2654 20.291L20.2814 19.275C21.175 18.3813 21.175 16.9324 20.2814 16.0387C20.2047 15.962 20.1396 15.7781 20.2439 15.5492C20.2791 15.4718 20.3134 15.3934 20.3467 15.3142C20.4455 15.079 20.6213 15 20.723 15C21.9806 15 23 13.9806 23 12.723V11.276C23 10.019 21.981 9 20.724 9C20.6208 9 20.4512 8.92078 20.3626 8.69652C20.3262 8.60446 20.2884 8.51298 20.2491 8.42214C20.1534 8.2011 20.2172 8.0254 20.2902 7.95247C21.179 7.06367 21.179 5.62263 20.2902 4.73382L19.2637 3.70733C18.3763 2.81991 16.9375 2.81991 16.05 3.70733C15.9784 3.779 15.8059 3.84189 15.5888 3.74758C15.4934 3.70609 15.3976 3.66638 15.3014 3.62843C15.0779 3.54019 15 3.37176 15 3.27081C15 2.01668 13.9833 1 12.7292 1H11.2744ZM11 3.2744C11 3.12285 11.1229 3 11.2744 3H12.7292C12.8788 3 13 3.12125 13 3.27081C13 4.3278 13.7135 5.15177 14.567 5.48872C14.6421 5.51836 14.717 5.54941 14.7918 5.58187C15.6343 5.948 16.719 5.86681 17.4642 5.12155C17.5706 5.01517 17.7431 5.01517 17.8495 5.12155L18.876 6.14803C18.9837 6.25579 18.9837 6.4305 18.876 6.53826C18.1286 7.28566 18.0485 8.37302 18.4136 9.21663C18.4444 9.2877 18.474 9.35927 18.5025 9.4313C18.8404 10.2868 19.6663 11 20.724 11C20.8764 11 21 11.1236 21 11.276V12.723C21 12.876 20.876 13 20.723 13C19.668 13 18.8518 13.7086 18.5027 14.5398C18.4773 14.6004 18.4509 14.6605 18.4238 14.7202C18.0349 15.574 18.1026 16.6884 18.8671 17.4529C18.9798 17.5656 18.9798 17.7482 18.8671 17.8608L17.8512 18.8767C17.7439 18.9841 17.5699 18.9841 17.4625 18.8767C16.7118 18.126 15.6198 18.0501 14.7761 18.4177C14.7063 18.4481 14.6361 18.4773 14.5654 18.5054C13.7132 18.8441 13 19.6681 13 20.7256C13 20.8771 12.8771 21 12.7256 21H11.2708C11.1212 21 11 20.8788 11 20.7292C11 19.6722 10.2865 18.8482 9.43295 18.5113C9.35787 18.4816 9.28296 18.4506 9.20825 18.4181C8.3657 18.052 7.28103 18.1332 6.53576 18.8785C6.42938 18.9848 6.25691 18.9848 6.15053 18.8785L5.12405 17.852C5.01629 17.7442 5.01629 17.5695 5.12405 17.4617C5.87145 16.7143 5.95153 15.627 5.58636 14.7834C5.55559 14.7123 5.52598 14.6407 5.49753 14.5687C5.15959 13.7132 4.33374 13 3.27601 13C3.12357 13 3 12.8764 3 12.724V11.277C3 11.124 3.12401 11 3.27698 11C4.33196 11 5.14822 10.2914 5.49729 9.46015C5.52274 9.39956 5.54906 9.33945 5.57623 9.2798C5.96508 8.42603 5.89742 7.31164 5.13286 6.54707C5.02023 6.43444 5.02023 6.25185 5.13286 6.13922L6.14882 5.12326C6.25614 5.01594 6.43015 5.01594 6.53747 5.12326C7.28824 5.87402 8.38022 5.94993 9.2239 5.58235C9.29367 5.55195 9.36393 5.52269 9.43464 5.49458C10.2868 5.15586 11 4.33191 11 3.2744Z" fill="black"/>
</svg>
