<svg width="24" height="24" viewBox="0 0 24 24" fill="none" xmlns="http://www.w3.org/2000/svg">
<path fill-rule="evenodd" clip-rule="evenodd" d="M14.968 3.55385C15.2863 3.36575 15.633 3.22049 16 3.12602V2H18V3.12602C18.367 3.22047 18.7135 3.36568 19.0318 3.55372L19.8281 2.75739L21.2423 4.1716L20.4461 4.96786C20.6342 5.28622 20.7795 5.63291 20.874 6H22V8H20.874C20.7795 8.36707 20.6342 8.71375 20.4461 9.0321L21.2425 9.82849L19.8283 11.2427L19.0318 10.4463C18.7136 10.6343 18.367 10.7795 18 10.874V12H16V10.874C15.6329 10.7795 15.2863 10.6342 14.9679 10.4461L14.1714 11.2427L12.7572 9.82846L13.5538 9.03187C13.3657 8.71359 13.2205 8.36698 13.126 8H12V6H13.126C13.2205 5.633 13.3657 5.28639 13.5538 4.96809L12.7573 4.17163L14.1715 2.75742L14.968 3.55385ZM17 5C15.8954 5 15 5.89543 15 7C15 8.10457 15.8954 9 17 9C18.1046 9 19 8.10457 19 7C19 5.89543 18.1046 5 17 5Z" fill="black"/>
<path d="M10.9244 5C10.9244 4.44772 10.4767 4 9.92443 4C9.37214 4 8.92443 4.44772 8.92443 5V5.08306C8.92443 5.1752 8.85106 5.34476 8.61971 5.43906C8.58303 5.45401 8.54645 5.46924 8.51 5.48473C8.44124 5.51395 8.37421 5.52012 8.32353 5.51287C8.27621 5.5061 8.25107 5.48969 8.23651 5.47552C7.41415 4.67544 6.1043 4.67544 5.28195 5.47552L4.40255 6.33109C3.56689 7.14411 3.56689 8.48645 4.40255 9.29947C4.40973 9.30646 4.42224 9.32164 4.42748 9.3599C4.43326 9.40211 4.4273 9.46114 4.39897 9.5218C4.37159 9.58044 4.34485 9.63971 4.3188 9.69961C4.28658 9.7737 4.23926 9.82848 4.19556 9.86036C4.15492 9.89 4.12612 9.89474 4.10874 9.89474C2.94411 9.89474 2 10.8388 2 12.0035V13.1553C2 14.3194 2.94371 15.2632 4.10784 15.2632C4.12584 15.2632 4.15355 15.2681 4.19125 15.296C4.23181 15.3259 4.27505 15.3771 4.30328 15.4462C4.33222 15.5169 4.3622 15.5872 4.39322 15.6571C4.41883 15.7148 4.42366 15.7707 4.41776 15.8105C4.4124 15.8467 4.4006 15.8603 4.39497 15.8658C3.56346 16.6748 3.56346 18.0104 4.39497 18.8194L5.28344 19.6838C6.10497 20.4831 7.41348 20.4831 8.23501 19.6838C8.24925 19.67 8.27356 19.6541 8.31896 19.6475C8.36758 19.6405 8.43194 19.6462 8.49813 19.6743C8.59041 19.7134 8.68306 19.7507 8.77604 19.7861C8.8339 19.8082 8.87626 19.8433 8.90032 19.8753C8.9223 19.9046 8.92443 19.9235 8.92443 19.933C8.92443 21.0746 9.84985 22 10.9914 22H12.3167C13.4599 22 14.3866 21.0732 14.3866 19.93C14.3866 19.92 14.389 19.9004 14.4113 19.8706C14.4358 19.838 14.4788 19.8022 14.5376 19.7797C14.6261 19.7457 14.7139 19.7102 14.8011 19.6732C14.8698 19.6439 14.9369 19.6378 14.9875 19.645C15.0349 19.6518 15.06 19.6682 15.0746 19.6824C15.8969 20.4825 17.2068 20.4825 18.0291 19.6824L18.9085 18.8268C19.7442 18.0138 19.7442 16.6714 18.9085 15.8584C18.9013 15.8514 18.8888 15.8363 18.8836 15.798C18.8778 15.7558 18.8838 15.6968 18.9121 15.6361C19.0743 15.2887 19.2136 14.9201 19.3213 14.5279C19.4675 13.9953 19.1542 13.445 18.6217 13.2988C18.0891 13.1526 17.5388 13.4659 17.3926 13.9984C17.317 14.2738 17.2181 14.5367 17.0999 14.7899C16.7385 15.564 16.7958 16.5933 17.5139 17.2919C17.5424 17.3197 17.5424 17.3655 17.5139 17.3933L16.6345 18.2489C16.5885 18.2936 16.5152 18.2936 16.4692 18.2489C15.7745 17.573 14.7847 17.507 14.0189 17.8325C13.9534 17.8603 13.8874 17.887 13.8209 17.9125C13.0424 18.2113 12.3866 18.961 12.3866 19.93C12.3866 19.9687 12.3553 20 12.3167 20H10.9914C10.9544 20 10.9244 19.97 10.9244 19.933C10.9244 18.9644 10.2683 18.2146 9.48852 17.9173C9.41834 17.8906 9.34834 17.8624 9.27856 17.8328C8.51343 17.5086 7.53001 17.5794 6.84035 18.2503C6.79519 18.2943 6.72326 18.2943 6.67811 18.2503L5.78963 17.3859C5.76524 17.3622 5.76524 17.323 5.78963 17.2993C6.49179 16.6162 6.56107 15.6115 6.22129 14.8459C6.19822 14.7939 6.17593 14.7416 6.15443 14.689C5.83898 13.9178 5.08434 13.2632 4.10784 13.2632C4.04828 13.2632 4 13.2149 4 13.1553V12.0035C4 11.9434 4.04868 11.8947 4.10874 11.8947C5.08261 11.8947 5.8279 11.2445 6.15287 10.4972C6.17173 10.4539 6.19116 10.4108 6.21115 10.368C6.5726 9.5939 6.51529 8.56459 5.79722 7.86598C5.76867 7.83821 5.76867 7.79236 5.79722 7.76459L6.67661 6.90902C6.7226 6.86427 6.79585 6.86427 6.84184 6.90902C7.53659 7.58494 8.52641 7.65085 9.29221 7.32542C9.31959 7.31378 9.34707 7.30235 9.37463 7.29111C10.2075 6.95162 10.9244 6.14017 10.9244 5.08306V5Z" fill="black"/>
<path d="M11.5 10C10.1193 10 9 11.1193 9 12.5C9 13.8807 10.1193 15 11.5 15C12.8807 15 14 13.8807 14 12.5H16C16 14.9853 13.9853 17 11.5 17C9.01472 17 7 14.9853 7 12.5C7 10.0147 9.01472 8 11.5 8V10Z" fill="black"/>
</svg>
