<svg width="24" height="24" viewBox="0 0 24 24" fill="none" xmlns="http://www.w3.org/2000/svg">
<path d="M4 7C4 5.34315 5.34315 4 7 4H10C10.5523 4 11 3.55228 11 3C11 2.44772 10.5523 2 10 2H7C4.23858 2 2 4.23858 2 7V17C2 19.7614 4.23858 22 7 22H17C19.7614 22 22 19.7614 22 17V16C22 15.4477 21.5523 15 21 15C20.4477 15 20 15.4477 20 16V17C20 18.6569 18.6569 20 17 20H7C5.34315 20 4 18.6569 4 17V7Z" fill="black"/>
<path fill-rule="evenodd" clip-rule="evenodd" d="M15.707 2.29292C15.421 2.00692 14.9909 1.92137 14.6172 2.07615C14.2435 2.23093 13.9999 2.59557 13.9999 3.00003V6.04188C11.8514 6.22594 10.1983 7.00348 8.96677 8.10297C7.56828 9.35153 6.77803 10.9564 6.37258 12.4061C6.26202 12.8014 6.31995 13.2073 6.53128 13.5437C6.72846 13.8576 7.01815 14.0491 7.28751 14.1515C7.80094 14.3466 8.51502 14.3122 9.03963 13.8174C10.4391 12.4973 12.5041 12.0399 13.9999 11.9807V15C13.9999 15.4045 14.2435 15.7691 14.6172 15.9239C14.9909 16.0787 15.421 15.9931 15.707 15.7071L21.707 9.70714C22.0975 9.31661 22.0975 8.68345 21.707 8.29292L15.707 2.29292ZM14.9999 8.00003C15.5522 8.00003 15.9999 7.55231 15.9999 7.00003V5.41424L19.5857 9.00003L15.9999 12.5858V11C15.9999 10.4799 15.6012 10.0467 15.0829 10.0035C13.6589 9.88481 11.0579 10.0912 8.89528 11.4246C9.24213 10.759 9.70241 10.1273 10.2988 9.59488C11.3227 8.68072 12.8124 8.00003 14.9999 8.00003Z" fill="black"/>
</svg>
