<svg width="24" height="24" viewBox="0 0 24 24" fill="none" xmlns="http://www.w3.org/2000/svg">
<path d="M9 16C8.44772 16 8 15.5523 8 15V13H11V16H9Z" fill="black"/>
<path d="M8 9C8 8.44772 8.44772 8 9 8H11V11H8V9Z" fill="black"/>
<path d="M15 8C15.5523 8 16 8.44772 16 9V11H13V8H15Z" fill="black"/>
<path d="M15 16C15.5523 16 16 15.5523 16 15V13H13V16H15Z" fill="black"/>
<path fill-rule="evenodd" clip-rule="evenodd" d="M7 2C4.23858 2 2 4.23858 2 7V17C2 19.7614 4.23858 22 7 22H17C19.7614 22 22 19.7614 22 17V7C22 4.23858 19.7614 2 17 2H7ZM9 6C7.34315 6 6 7.34315 6 9V15C6 16.6569 7.34315 18 9 18H15C16.6569 18 18 16.6569 18 15V9C18 7.34315 16.6569 6 15 6H9Z" fill="black"/>
</svg>
