<svg width="24" height="24" viewBox="0 0 24 24" fill="none" xmlns="http://www.w3.org/2000/svg">
<path fill-rule="evenodd" clip-rule="evenodd" d="M11.4453 1.16795C11.7812 0.944017 12.2188 0.944017 12.5547 1.16795L21.5547 7.16795C21.8329 7.35342 22 7.66565 22 8C22 14.6018 19.639 18.3889 17.1485 20.5106C15.9202 21.557 14.6908 22.1725 13.7638 22.5274C13.2997 22.7051 12.909 22.8184 12.6282 22.8883C12.4257 22.9387 12 23 12 23C12 23 11.6293 22.9524 11.3718 22.8883C11.091 22.8184 10.7003 22.7051 10.2362 22.5274C9.30916 22.1725 8.07978 21.557 6.85149 20.5106C4.36104 18.3889 2 14.6018 2 8C2 7.66565 2.1671 7.35342 2.4453 7.16795L11.4453 1.16795ZM14.0004 9C14.0004 10.1046 13.105 11 12.0004 11C10.8958 11 10.0004 10.1046 10.0004 9C10.0004 7.89543 10.8958 7 12.0004 7C13.105 7 14.0004 7.89543 14.0004 9ZM8.12355 15.0102C8.44755 13.6557 9.4789 12 12.0004 12C14.5219 12 15.5533 13.6557 15.8773 15.0102C16.0057 15.5473 15.5527 16 15.0004 16H9.0004C8.44812 16 7.99507 15.5473 8.12355 15.0102Z" fill="black"/>
</svg>
