<svg width="24" height="24" viewBox="0 0 24 24" fill="none" xmlns="http://www.w3.org/2000/svg">
<path fill-rule="evenodd" clip-rule="evenodd" d="M11.4453 1.16795C11.7812 0.944017 12.2188 0.944017 12.5547 1.16795L21.5547 7.16795C21.8329 7.35342 22 7.66565 22 8C22 14.6018 19.639 18.3889 17.1485 20.5106C15.9202 21.557 14.6908 22.1725 13.7638 22.5274C13.2997 22.7051 12.909 22.8184 12.6282 22.8883C12.4877 22.9233 12.3743 22.9474 12.2927 22.9634C12.2519 22.9714 12.2189 22.9773 12.1944 22.9815L12.164 22.9865L12.1537 22.9881L12.1498 22.9887L12.1482 22.989C12.1474 22.9891 12.1467 22.9892 12 22C11.8533 22.9892 11.8526 22.9891 11.8518 22.989L11.8502 22.9887L11.8463 22.9881L11.836 22.9865L11.8056 22.9815C11.7811 22.9773 11.7481 22.9714 11.7073 22.9634C11.6257 22.9474 11.5123 22.9233 11.3718 22.8883C11.091 22.8184 10.7003 22.7051 10.2362 22.5274C9.30916 22.1725 8.07978 21.557 6.85149 20.5106C4.36104 18.3889 2 14.6018 2 8C2 7.66565 2.1671 7.35342 2.4453 7.16795L11.4453 1.16795ZM12 22L11.8533 22.9892C11.9506 23.0036 12.0494 23.0036 12.1467 22.9892L12 22ZM12 20.9816C12.0409 20.9726 12.0895 20.9614 12.1452 20.9475C12.3566 20.8949 12.669 20.805 13.0487 20.6596C13.8092 20.3685 14.8298 19.8586 15.8515 18.9882C17.8015 17.3269 19.8734 14.2523 19.9944 8.53147L12 3.20185L4.00557 8.53147C4.12664 14.2523 6.1985 17.3269 8.14851 18.9882C9.17022 19.8586 10.1908 20.3685 10.9513 20.6596C11.331 20.805 11.6434 20.8949 11.8548 20.9475C11.9105 20.9614 11.9591 20.9726 12 20.9816ZM12.1504 21.0114C12.1508 21.0114 12.1512 21.0115 12.1504 21.0114V21.0114ZM11.849 21.0115C11.8483 21.0116 11.8487 21.0115 11.849 21.0115V21.0115Z" fill="black"/>
</svg>
