<svg width="24" height="24" viewBox="0 0 24 24" fill="none" xmlns="http://www.w3.org/2000/svg">
<path d="M12.5547 1.16795C12.2188 0.944017 11.7812 0.944017 11.4453 1.16795L2.4453 7.16795C2.1671 7.35342 2 7.66565 2 8C2 14.6018 4.36104 18.3889 6.85149 20.5106C8.07978 21.557 9.30916 22.1725 10.2362 22.5274C10.7003 22.7051 11.091 22.8184 11.3718 22.8883C11.5123 22.9233 11.6257 22.9474 11.7073 22.9634C11.7481 22.9714 11.7811 22.9773 11.8056 22.9815L11.836 22.9865L11.8463 22.9881L11.8502 22.9887L11.8518 22.989C11.8518 22.989 11.8533 22.9892 12 22L11.8533 22.9892C11.9506 23.0036 12.0494 23.0036 12.1467 22.9892L12 22C12.1467 22.9892 12.1482 22.989 12.1482 22.989L12.1498 22.9887L12.1537 22.9881L12.164 22.9865L12.1944 22.9815C12.2189 22.9773 12.2519 22.9714 12.2927 22.9634C12.3743 22.9474 12.4877 22.9233 12.6282 22.8883C12.909 22.8184 13.2997 22.7051 13.7638 22.5274C14.6908 22.1725 15.9202 21.557 17.1485 20.5106C19.639 18.3889 22 14.6018 22 8C22 7.66565 21.8329 7.35342 21.5547 7.16795L12.5547 1.16795Z" fill="black"/>
</svg>
