<svg width="24" height="24" viewBox="0 0 24 24" fill="none" xmlns="http://www.w3.org/2000/svg">
<path fill-rule="evenodd" clip-rule="evenodd" d="M11.4453 1.16795C11.7812 0.944017 12.2188 0.944017 12.5547 1.16795L21.5547 7.16795C21.8329 7.35342 22 7.66565 22 8C22 14.6018 19.639 18.3889 17.1485 20.5106C15.9202 21.557 14.6908 22.1725 13.7638 22.5274C13.2997 22.7051 12.909 22.8184 12.6282 22.8883C12.4877 22.9233 12.3743 22.9474 12.2927 22.9634C12.2519 22.9714 12.2189 22.9773 12.1944 22.9815L12.164 22.9865L12.1537 22.9881L12.1498 22.9887L12.1482 22.989C12.1482 22.989 12.1467 22.9892 12 22C11.8533 22.9892 11.8518 22.989 11.8518 22.989L11.8502 22.9887L11.8463 22.9881L11.836 22.9865L11.8056 22.9815C11.7811 22.9773 11.7481 22.9714 11.7073 22.9634C11.6257 22.9474 11.5123 22.9233 11.3718 22.8883C11.091 22.8184 10.7003 22.7051 10.2362 22.5274C9.30916 22.1725 8.07978 21.557 6.85149 20.5106C4.36104 18.3889 2 14.6018 2 8C2 7.66565 2.1671 7.35342 2.4453 7.16795L11.4453 1.16795ZM12 22L12.1467 22.9892C12.0494 23.0036 11.9506 23.0036 11.8533 22.9892L12 22ZM8.29289 8.29289C8.68342 7.90237 9.31658 7.90237 9.70711 8.29289L12 10.5858L14.2929 8.29289C14.6834 7.90237 15.3166 7.90237 15.7071 8.29289C16.0976 8.68342 16.0976 9.31658 15.7071 9.70711L13.4142 12L15.7071 14.2929C16.0976 14.6834 16.0976 15.3166 15.7071 15.7071C15.3166 16.0976 14.6834 16.0976 14.2929 15.7071L12 13.4142L9.70711 15.7071C9.31658 16.0976 8.68342 16.0976 8.29289 15.7071C7.90237 15.3166 7.90237 14.6834 8.29289 14.2929L10.5858 12L8.29289 9.70711C7.90237 9.31658 7.90237 8.68342 8.29289 8.29289Z" fill="black"/>
</svg>
