<svg width="24" height="24" viewBox="0 0 24 24" fill="none" xmlns="http://www.w3.org/2000/svg">
<path fill-rule="evenodd" clip-rule="evenodd" d="M12.5547 1.16795C12.2188 0.944017 11.7812 0.944017 11.4453 1.16795L2.4453 7.16795C2.1671 7.35342 2 7.66565 2 8C2 14.6018 4.36104 18.3889 6.85149 20.5106C8.07978 21.557 9.30916 22.1725 10.2362 22.5274C10.7003 22.7051 11.091 22.8184 11.3718 22.8883C11.6293 22.9524 12 23 12 23C12 23 12.4257 22.9387 12.6282 22.8883C12.909 22.8184 13.2997 22.7051 13.7638 22.5274C14.6908 22.1725 15.9202 21.557 17.1485 20.5106C19.639 18.3889 22 14.6018 22 8C22 7.66565 21.8329 7.35342 21.5547 7.16795L12.5547 1.16795ZM12 20.9816C11.8042 20.9386 11.4311 20.8433 10.9513 20.6596C10.1908 20.3685 9.17022 19.8586 8.14851 18.9882C6.1985 17.3269 4.12664 14.2523 4.00557 8.53147L12 3.20185L19.9944 8.53147C19.8734 14.2523 17.8015 17.3269 15.8515 18.9882C14.8298 19.8586 13.8092 20.3685 13.0487 20.6596C12.5689 20.8433 12.1958 20.9386 12 20.9816Z" fill="black"/>
<path d="M12.0004 11C13.105 11 14.0004 10.1046 14.0004 9C14.0004 7.89543 13.105 7 12.0004 7C10.8958 7 10.0004 7.89543 10.0004 9C10.0004 10.1046 10.8958 11 12.0004 11Z" fill="black"/>
<path d="M12.0004 12C9.4789 12 8.44755 13.6557 8.12355 15.0102C7.99507 15.5473 8.44812 16 9.0004 16H15.0004C15.5527 16 16.0057 15.5473 15.8773 15.0102C15.5533 13.6557 14.5219 12 12.0004 12Z" fill="black"/>
</svg>
