<svg width="24" height="24" viewBox="0 0 24 24" fill="none" xmlns="http://www.w3.org/2000/svg">
<path fill-rule="evenodd" clip-rule="evenodd" d="M11.4453 1.16795C11.7812 0.944017 12.2188 0.944017 12.5547 1.16795L21.5547 7.16795C21.8329 7.35342 22 7.66565 22 8C22 14.6018 19.639 18.3889 17.1485 20.5106C15.9202 21.557 14.6908 22.1725 13.7638 22.5274C13.2997 22.7051 12.909 22.8184 12.6282 22.8883C12.4877 22.9233 12.3743 22.9474 12.2927 22.9634C12.2519 22.9714 12.2189 22.9773 12.1944 22.9815L12.164 22.9865L12.1537 22.9881L12.1498 22.9887L12.1482 22.989C12.1482 22.989 12.1467 22.9892 12 22C11.8533 22.9892 11.8518 22.989 11.8518 22.989L11.8502 22.9887L11.8463 22.9881L11.836 22.9865L11.8056 22.9815C11.7811 22.9773 11.7481 22.9714 11.7073 22.9634C11.6257 22.9474 11.5123 22.9233 11.3718 22.8883C11.091 22.8184 10.7003 22.7051 10.2362 22.5274C9.30916 22.1725 8.07978 21.557 6.85149 20.5106C4.36104 18.3889 2 14.6018 2 8C2 7.66565 2.1671 7.35342 2.4453 7.16795L11.4453 1.16795ZM12 22L12.1467 22.9892C12.0494 23.0036 11.9506 23.0036 11.8533 22.9892L12 22ZM16.669 9.25671C17.0795 9.62617 17.1128 10.2585 16.7433 10.669L12.2433 15.669C12.0452 15.8891 11.7597 16.0101 11.4637 15.9993C11.1678 15.9886 10.8918 15.8472 10.7102 15.6133L8.21017 12.3933C7.87147 11.9571 7.95054 11.3289 8.38678 10.9902C8.82302 10.6515 9.45123 10.7305 9.78992 11.1668L11.5566 13.4423L15.2568 9.33104C15.6262 8.92053 16.2585 8.88726 16.669 9.25671Z" fill="black"/>
</svg>
