<svg width="24" height="24" viewBox="0 0 24 24" fill="none" xmlns="http://www.w3.org/2000/svg">
<path d="M7 2C6.73478 2 6.48043 2.10536 6.29289 2.29289L2.29289 6.29289C2.10536 6.48043 2 6.73478 2 7H3H4.41421H11V4V3.5C11 2.94772 11.4477 2.5 12 2.5C12.5523 2.5 13 2.94772 13 3.5V4V7H19.5858H21H22C22 6.73478 21.8946 6.48043 21.7071 6.29289L17.7071 2.29289C17.5196 2.10536 17.2652 2 17 2H7Z" fill="black"/>
<path d="M7 22C4.23858 22 2 19.7614 2 17V9H3H4H12H20H21H22V17C22 19.7614 19.7614 22 17 22H7Z" fill="black"/>
</svg>
