<svg width="24" height="24" viewBox="0 0 24 24" fill="none" xmlns="http://www.w3.org/2000/svg">
<path fill-rule="evenodd" clip-rule="evenodd" d="M6.29289 2.29289C6.48043 2.10536 6.73478 2 7 2H17C17.2652 2 17.5196 2.10536 17.7071 2.29289L21.7071 6.29289C21.8946 6.48043 22 6.73478 22 7V17C22 19.7614 19.7614 22 17 22H7C4.23858 22 2 19.7614 2 17V7C2 6.73478 2.10536 6.48043 2.29289 6.29289L6.29289 2.29289ZM7.41421 4L4.41421 7H11V4H7.41421ZM17 20C18.6569 20 20 18.6569 20 17V9H4V17C4 18.6569 5.34315 20 7 20H17ZM19.5858 7L16.5858 4H13V7H19.5858Z" fill="black"/>
</svg>
