<svg width="24" height="24" viewBox="0 0 24 24" fill="none" xmlns="http://www.w3.org/2000/svg">
<path fill-rule="evenodd" clip-rule="evenodd" d="M19 21C19 20.966 18.9983 20.9325 18.995 20.8994V12.3874L20.6788 12.9487C21.1066 13.0913 21.5769 12.9299 21.8271 12.5547L23.8271 9.5547C24.0915 9.15808 24.0392 8.62996 23.7021 8.29289L18.5853 3.17605L18.5838 3.17453C17.8339 2.41875 16.8129 2 15.755 2H8.24002C7.17892 2 6.16482 2.42099 5.41291 3.1729L0.29291 8.29289C-0.0441542 8.62996 -0.0964486 9.15808 0.167967 9.5547L2.16797 12.5547C2.41811 12.9299 2.88843 13.0913 3.31624 12.9487L5.00002 12.3874V21C5.00002 21.5523 5.44773 22 6.00002 22H18C18.5523 22 19 21.5523 19 21ZM9.00002 4C9.00002 5.65685 10.3432 7 12 7C13.6569 7 15 5.65685 15 4H13C13 4.55228 12.5523 5 12 5C11.4477 5 11 4.55228 11 4H9.00002Z" fill="black"/>
</svg>
