<svg width="24" height="24" viewBox="0 0 24 24" fill="none" xmlns="http://www.w3.org/2000/svg">
<path d="M2 1C1.44772 1 1 1.44772 1 2C1 2.55228 1.44772 3 2 3H3.1327L4.76474 14.4243C4.97588 15.9022 6.24164 17 7.73459 17H18.3604C19.7904 17 21.0217 15.9906 21.3021 14.5883L22.9806 6.19612C23.0393 5.90234 22.9633 5.5977 22.7733 5.36601C22.5834 5.13432 22.2996 5 22 5H15.25V5.87813C16.0415 5.59899 16.9579 5.77595 17.591 6.40901C18.4697 7.28769 18.4697 8.71231 17.591 9.59099L14.591 12.591C13.7123 13.4697 12.2877 13.4697 11.409 12.591L8.40901 9.59099C7.53033 8.71231 7.53033 7.28769 8.40901 6.40901C9.04207 5.77595 9.95851 5.59899 10.75 5.87813V5H5.43872L4.98995 1.85858C4.91957 1.36593 4.49765 1 4 1H2Z" fill="black"/>
<path d="M13 2C13.5523 2 14 2.44772 14 3V5V8.58579L15.2929 7.29289C15.6834 6.90237 16.3166 6.90237 16.7071 7.29289C17.0976 7.68342 17.0976 8.31658 16.7071 8.70711L13.7071 11.7071C13.3166 12.0976 12.6834 12.0976 12.2929 11.7071L9.29289 8.70711C8.90237 8.31658 8.90237 7.68342 9.29289 7.29289C9.68342 6.90237 10.3166 6.90237 10.7071 7.29289L12 8.58579V5V3C12 2.44772 12.4477 2 13 2Z" fill="black"/>
<path d="M6 20C6 18.8954 6.89543 18 8 18C9.10457 18 10.0001 18.8954 10.0001 20C10.0001 21.1046 9.10467 22 8.0001 22C6.89553 22 6 21.1046 6 20Z" fill="black"/>
<path d="M16 20C16 18.8954 16.8954 18 18 18C19.1046 18 20.0001 18.8954 20.0001 20C20.0001 21.1046 19.1047 22 18.0001 22C16.8955 22 16 21.1046 16 20Z" fill="black"/>
</svg>
