<svg width="24" height="24" viewBox="0 0 24 24" fill="none" xmlns="http://www.w3.org/2000/svg">
<path d="M9 13.0002C9 12.448 8.55228 12.0002 8 12.0002C7.44772 12.0002 7 12.448 7 13.0002V17.0002C7 17.5525 7.44772 18.0002 8 18.0002C8.55228 18.0002 9 17.5525 9 17.0002V13.0002Z" fill="black"/>
<path d="M12 12.0002C12.5523 12.0002 13 12.448 13 13.0002V17.0002C13 17.5525 12.5523 18.0002 12 18.0002C11.4477 18.0002 11 17.5525 11 17.0002V13.0002C11 12.448 11.4477 12.0002 12 12.0002Z" fill="black"/>
<path d="M16 12.0002C16.5523 12.0002 17 12.448 17 13.0002V17.0002C17 17.5525 16.5523 18.0002 16 18.0002C15.4477 18.0002 15 17.5525 15 17.0002V13.0002C15 12.448 15.4477 12.0002 16 12.0002Z" fill="black"/>
<path fill-rule="evenodd" clip-rule="evenodd" d="M8.44743 2.10579C8.94141 2.35278 9.14164 2.95345 8.89465 3.44743L6.61824 8.00024H17.3822L15.1058 3.44743C14.8588 2.95345 15.059 2.35278 15.553 2.10579C16.047 1.8588 16.6477 2.05903 16.8946 2.55301L19.6183 8.00024H20.9798C20.9925 8 21.0053 8 21.0181 8.00024H22C22.5523 8.00024 23 8.44796 23 9.00024C23 9.55253 22.5523 10.0002 22 10.0002H21.8473L20.5436 17.8222C20.1418 20.2332 18.0558 22.0002 15.6116 22.0002H8.38866C5.94447 22.0002 3.85852 20.2332 3.45669 17.8222L2.15303 10.0002H2C1.44772 10.0002 1 9.55253 1 9.00024C1 8.44796 1.44772 8.00024 2 8.00024H2.98224C2.99502 8 3.00777 8 3.02047 8.00024H4.38217L7.10579 2.55301C7.35278 2.05903 7.95345 1.8588 8.44743 2.10579ZM4.18062 10.0002L5.42948 17.4934C5.67058 18.94 6.92215 20.0002 8.38866 20.0002H15.6116C17.0782 20.0002 18.3297 18.94 18.5708 17.4934L19.8197 10.0002H19.0207C19.0182 10.0003 19.0157 10.0003 19.0133 10.0004C19.0026 10.0005 18.992 10.0005 18.9813 10.0002H5.01911C5.00602 10.0005 4.99291 10.0005 4.97978 10.0002H4.18062Z" fill="black"/>
</svg>
