<svg width="24" height="24" viewBox="0 0 24 24" fill="none" xmlns="http://www.w3.org/2000/svg">
<path fill-rule="evenodd" clip-rule="evenodd" d="M7 6C7 3.23858 9.23858 1 12 1C14.7614 1 17 3.23858 17 6H18C19.6569 6 21 7.34315 21 9V20C21 21.6569 19.6569 23 18 23H6C4.34315 23 3 21.6569 3 20V9C3 7.34315 4.34315 6 6 6H7ZM9 6C9 4.34315 10.3431 3 12 3C13.6569 3 15 4.34315 15 6H9ZM15 10C15 10.5523 15.4477 11 16 11C16.5523 11 17 10.5523 17 10V8H15V10ZM8 11C7.44772 11 7 10.5523 7 10V8H9V10C9 10.5523 8.55228 11 8 11Z" fill="black"/>
</svg>
