<svg width="24" height="24" viewBox="0 0 24 24" fill="none" xmlns="http://www.w3.org/2000/svg">
<path fill-rule="evenodd" clip-rule="evenodd" d="M8.89465 3.44743C9.14164 2.95345 8.94141 2.35278 8.44743 2.10579C7.95345 1.8588 7.35278 2.05903 7.10579 2.55301L4.38217 8.00024H3.02047C3.00777 8 2.99502 8 2.98224 8.00024H2C1.44772 8.00024 1 8.44796 1 9.00024C1 9.55253 1.44772 10.0002 2 10.0002H2.15303L3.45669 17.8222C3.85852 20.2332 5.94447 22.0002 8.38866 22.0002H15.6116C18.0558 22.0002 20.1418 20.2332 20.5436 17.8222L21.8473 10.0002H22C22.5523 10.0002 23 9.55253 23 9.00024C23 8.44796 22.5523 8.00024 22 8.00024H21.0181C21.0157 8.0002 21.0133 8.00016 21.0109 8.00013C21.0005 8.00001 20.9902 8.00005 20.9798 8.00024H19.6183L16.8946 2.55301C16.6477 2.05903 16.047 1.8588 15.553 2.10579C15.059 2.35278 14.8588 2.95345 15.1058 3.44743L17.3822 8.00024H6.61824L8.89465 3.44743ZM8 12.0002C8.55228 12.0002 9 12.448 9 13.0002V17.0002C9 17.5525 8.55228 18.0002 8 18.0002C7.44772 18.0002 7 17.5525 7 17.0002V13.0002C7 12.448 7.44772 12.0002 8 12.0002ZM13 13.0002C13 12.448 12.5523 12.0002 12 12.0002C11.4477 12.0002 11 12.448 11 13.0002V17.0002C11 17.5525 11.4477 18.0002 12 18.0002C12.5523 18.0002 13 17.5525 13 17.0002V13.0002ZM17 13.0002C17 12.448 16.5523 12.0002 16 12.0002C15.4477 12.0002 15 12.448 15 13.0002V17.0002C15 17.5525 15.4477 18.0002 16 18.0002C16.5523 18.0002 17 17.5525 17 17.0002V13.0002Z" fill="black"/>
</svg>
