<svg width="24" height="24" viewBox="0 0 24 24" fill="none" xmlns="http://www.w3.org/2000/svg">
<path fill-rule="evenodd" clip-rule="evenodd" d="M1 2C1 1.44772 1.44772 1 2 1H4C4.49765 1 4.91957 1.36593 4.98995 1.85858L5.43872 5H22C22.2996 5 22.5834 5.13432 22.7733 5.36601C22.9633 5.5977 23.0393 5.90234 22.9806 6.19612L21.3021 14.5883C21.0217 15.9906 19.7904 17 18.3604 17H7.73459C6.24164 17 4.97588 15.9022 4.76474 14.4243L3.1327 3H2C1.44772 3 1 2.55228 1 2ZM5.72444 7L6.74464 14.1414C6.81502 14.6341 7.23694 15 7.73459 15H18.3604C18.8371 15 19.2475 14.6635 19.341 14.1961L20.7802 7H5.72444Z" fill="black"/>
<path d="M6 20C6 18.8954 6.89543 18 8 18C9.10457 18 10.0001 18.8954 10.0001 20C10.0001 21.1046 9.10467 22 8.0001 22C6.89553 22 6 21.1046 6 20Z" fill="black"/>
<path d="M18 18C16.8954 18 16 18.8954 16 20C16 21.1046 16.8955 22 18.0001 22C19.1047 22 20.0001 21.1046 20.0001 20C20.0001 18.8954 19.1046 18 18 18Z" fill="black"/>
</svg>
