<svg width="24" height="24" viewBox="0 0 24 24" fill="none" xmlns="http://www.w3.org/2000/svg">
<path d="M18.8839 4.11612C18.3957 3.62796 17.6043 3.62796 17.1161 4.11612C16.6702 4.562 16.6316 5.26094 17.0003 5.75065C15.3181 5.77696 13.7483 6.60837 12.7817 7.98933L8.17027 14.577C7.65566 15.3122 6.81474 15.75 5.91738 15.75H4C3.30964 15.75 2.75 16.3096 2.75 17C2.75 17.6904 3.30964 18.25 4 18.25H5.91738C7.63052 18.25 9.23592 17.4141 10.2183 16.0107L14.8297 9.42298C15.3283 8.71076 16.1331 8.2776 16.9988 8.25127C16.6317 8.74089 16.6708 9.43858 17.1161 9.88388C17.6043 10.372 18.3957 10.372 18.8839 9.88388L20.8839 7.88388C21.1183 7.64946 21.25 7.33152 21.25 7C21.25 6.66848 21.1183 6.35054 20.8839 6.11612L18.8839 4.11612Z" fill="black"/>
<path d="M18.8839 14.1161C18.3957 13.628 17.6043 13.628 17.1161 14.1161C16.6708 14.5614 16.6317 15.2591 16.9988 15.7487C16.1331 15.7224 15.3283 15.2892 14.8297 14.577C14.4338 14.0115 13.6544 13.8739 13.0889 14.2698C12.5233 14.6657 12.3858 15.4451 12.7817 16.0107C13.7483 17.3916 15.3181 18.223 17.0003 18.2494C16.6316 18.7391 16.6702 19.438 17.1161 19.8839C17.6043 20.372 18.3957 20.372 18.8839 19.8839L20.8839 17.8839C21.1183 17.6495 21.25 17.3315 21.25 17C21.25 16.6685 21.1183 16.3505 20.8839 16.1161L18.8839 14.1161Z" fill="black"/>
<path d="M4 5.75C3.30964 5.75 2.75 6.30964 2.75 7C2.75 7.69036 3.30964 8.25 4 8.25H5.91738C6.81474 8.25 7.65566 8.68783 8.17027 9.42298C8.56616 9.98854 9.34557 10.1261 9.91113 9.73019C10.4767 9.3343 10.6142 8.55488 10.2183 7.98932C9.23592 6.58586 7.63052 5.75 5.91738 5.75H4Z" fill="black"/>
</svg>
