<svg width="24" height="24" viewBox="0 0 24 24" fill="none" xmlns="http://www.w3.org/2000/svg">
<path d="M4 12C4 7.58228 7.58228 4 12 4C16.4177 4 20 7.58228 20 12C20 13.9079 19.3338 15.6576 18.2226 17.0311C17.8752 17.4604 17.9417 18.0901 18.371 18.4375C18.8004 18.7848 19.43 18.7184 19.7774 18.289C21.1662 16.5725 22 14.3821 22 12C22 6.47772 17.5223 2 12 2C6.47772 2 2 6.47772 2 12C2 14.3555 2.81763 16.5186 4.17841 18.2237C4.5229 18.6554 5.15211 18.7261 5.58379 18.3816C6.01546 18.0371 6.08613 17.4079 5.74164 16.9762C4.65242 15.6114 4 13.8845 4 12Z" fill="black"/>
<path d="M11.9996 5.72498C8.53235 5.72498 5.72461 8.53272 5.72461 12C5.72461 12.8426 5.891 13.6477 6.19589 14.383C6.40742 14.8932 6.99248 15.1353 7.50264 14.9237C8.01281 14.7122 8.2549 14.1272 8.04337 13.617C7.83826 13.1223 7.72461 12.5774 7.72461 12C7.72461 9.63728 9.63692 7.72498 11.9996 7.72498C14.3623 7.72498 16.2747 9.63728 16.2747 12C16.2747 12.5774 16.161 13.1223 15.9559 13.617C15.7444 14.1272 15.9865 14.7122 16.4966 14.9237C17.0068 15.1353 17.5918 14.8932 17.8034 14.383C18.1083 13.6477 18.2747 12.8426 18.2747 12C18.2747 8.53272 15.4669 5.72498 11.9996 5.72498Z" fill="black"/>
<path d="M10 12C10 10.8954 10.8954 10 12 10C13.1046 10 14 10.8954 14 12C14 12.7403 13.5978 13.3866 13 13.7324V21C13 21.5523 12.5523 22 12 22C11.4477 22 11 21.5523 11 21V13.7324C10.4022 13.3866 10 12.7403 10 12Z" fill="black"/>
</svg>
