<svg width="24" height="24" viewBox="0 0 24 24" fill="none" xmlns="http://www.w3.org/2000/svg">
<path d="M8.41018 8.89791C8.81662 8.68038 9.3098 8.70423 9.69338 8.95994L12.6934 10.9599C13.0411 11.1918 13.25 11.5821 13.25 12C13.25 12.4179 13.0411 12.8082 12.6934 13.0401L9.69338 15.0401C9.3098 15.2958 8.81662 15.3196 8.41018 15.1021C8.00373 14.8846 7.75 14.461 7.75 14V10C7.75 9.53901 8.00373 9.11543 8.41018 8.89791Z" fill="black"/>
<path d="M15 9C15.5523 9 16 9.44772 16 10V14C16 14.5523 15.5523 15 15 15C14.4477 15 14 14.5523 14 14V10C14 9.44772 14.4477 9 15 9Z" fill="black"/>
<path fill-rule="evenodd" clip-rule="evenodd" d="M12 2C6.47715 2 2 6.47715 2 12C2 17.5228 6.47715 22 12 22C17.5228 22 22 17.5228 22 12C22 6.47715 17.5228 2 12 2ZM4 12C4 7.58172 7.58172 4 12 4C16.4183 4 20 7.58172 20 12C20 16.4183 16.4183 20 12 20C7.58172 20 4 16.4183 4 12Z" fill="black"/>
</svg>
