<svg width="24" height="24" viewBox="0 0 24 24" fill="none" xmlns="http://www.w3.org/2000/svg">
<path fill-rule="evenodd" clip-rule="evenodd" d="M22 12C22 6.47715 17.5228 2 12 2C6.47715 2 2 6.47715 2 12C2 17.5228 6.47715 22 12 22C17.5228 22 22 17.5228 22 12ZM14.3066 8.95994C14.6902 8.70423 15.1834 8.68038 15.5898 8.89791C15.9963 9.11543 16.25 9.53901 16.25 10V14C16.25 14.461 15.9963 14.8846 15.5898 15.1021C15.1834 15.3196 14.6902 15.2958 14.3066 15.0401L11.3066 13.0401C10.9589 12.8082 10.75 12.4179 10.75 12C10.75 11.5821 10.9589 11.1918 11.3066 10.9599L14.3066 8.95994ZM8 10C8 9.44772 8.44771 9 9 9C9.55229 9 10 9.44772 10 10V14C10 14.5523 9.55229 15 9 15C8.44771 15 8 14.5523 8 14V10Z" fill="black"/>
</svg>
