<svg width="24" height="24" viewBox="0 0 24 24" fill="none" xmlns="http://www.w3.org/2000/svg">
<path d="M15.5898 8.89791C15.1834 8.68038 14.6902 8.70423 14.3066 8.95994L11.3066 10.9599C10.9589 11.1918 10.75 11.5821 10.75 12C10.75 12.4179 10.9589 12.8082 11.3066 13.0401L14.3066 15.0401C14.6902 15.2958 15.1834 15.3196 15.5898 15.1021C15.9963 14.8846 16.25 14.461 16.25 14V10C16.25 9.53901 15.9963 9.11543 15.5898 8.89791Z" fill="black"/>
<path d="M9 9C8.44771 9 8 9.44772 8 10V14C8 14.5523 8.44771 15 9 15C9.55229 15 10 14.5523 10 14V10C10 9.44772 9.55229 9 9 9Z" fill="black"/>
<path fill-rule="evenodd" clip-rule="evenodd" d="M12 2C17.5228 2 22 6.47715 22 12C22 17.5228 17.5228 22 12 22C6.47715 22 2 17.5228 2 12C2 6.47715 6.47715 2 12 2ZM20 12C20 7.58172 16.4183 4 12 4C7.58172 4 4 7.58172 4 12C4 16.4183 7.58172 20 12 20C16.4183 20 20 16.4183 20 12Z" fill="black"/>
</svg>
