<svg width="24" height="24" viewBox="0 0 24 24" fill="none" xmlns="http://www.w3.org/2000/svg">
<path fill-rule="evenodd" clip-rule="evenodd" d="M15.2355 5.50126C17.2184 4.05914 20 5.47561 20 7.92747V16.0724C20 18.5242 17.2184 19.9407 15.2355 18.4986L9.63585 14.4261C7.98854 13.2281 7.98854 10.7718 9.63585 9.57372L15.2355 5.50126ZM18 7.92747C18 7.11018 17.0728 6.63803 16.4118 7.11873L10.8122 11.1912C10.2631 11.5905 10.2631 12.4093 10.8122 12.8087L16.4118 16.8811C17.0728 17.3618 18 16.8897 18 16.0724V7.92747Z" fill="black"/>
<path d="M4 6.99994C4 6.44765 4.44771 5.99994 5 5.99994C5.55229 5.99994 6 6.44765 6 6.99994V16.9999C6 17.5522 5.55229 17.9999 5 17.9999C4.44771 17.9999 4 17.5522 4 16.9999V6.99994Z" fill="black"/>
</svg>
