<svg width="24" height="24" viewBox="0 0 24 24" fill="none" xmlns="http://www.w3.org/2000/svg">
<path fill-rule="evenodd" clip-rule="evenodd" d="M2 12C2 6.47772 6.47772 2 12 2C17.5223 2 22 6.47772 22 12V13C22 15.9716 19.8367 18.4405 17 18.9169V19C17 20.6569 15.6569 22 14 22H10C8.34315 22 7 20.6569 7 19V18.9169C4.16325 18.4405 2 15.9716 2 13V12ZM12 4C7.58228 4 4 7.58228 4 12V13C4 15.2077 5.79228 17 8 17H9V19C9 19.5523 9.44772 20 10 20H14C14.5523 20 15 19.5523 15 19V17H16C18.2077 17 20 15.2077 20 13V12C20 7.58228 16.4177 4 12 4Z" fill="black"/>
<path fill-rule="evenodd" clip-rule="evenodd" d="M12 14C12.5523 14 13 14.4477 13 15V16C13 16.5523 12.5523 17 12 17C11.4477 17 11 16.5523 11 16V15C11 14.4477 11.4477 14 12 14Z" fill="black"/>
<path fill-rule="evenodd" clip-rule="evenodd" d="M6 13C6 11.8954 6.89543 11 8 11C9.10457 11 10.0001 11.8954 10.0001 13C10.0001 14.1046 9.10467 15 8.0001 15C6.89553 15 6 14.1046 6 13Z" fill="black"/>
<path fill-rule="evenodd" clip-rule="evenodd" d="M14 13C14 11.8954 14.8954 11 16 11C17.1046 11 18.0001 11.8954 18.0001 13C18.0001 14.1046 17.1047 15 16.0001 15C14.8955 15 14 14.1046 14 13Z" fill="black"/>
</svg>
