<svg width="24" height="24" viewBox="0 0 24 24" fill="none" xmlns="http://www.w3.org/2000/svg">
<path fill-rule="evenodd" clip-rule="evenodd" d="M12 2C6.47772 2 2 6.47772 2 12V13C2 15.9716 4.16325 18.4405 7 18.9169V19C7 20.6569 8.34315 22 10 22H14C15.6569 22 17 20.6569 17 19V18.9169C19.8367 18.4405 22 15.9716 22 13V12C22 6.47772 17.5223 2 12 2ZM13 15C13 14.4477 12.5523 14 12 14C11.4477 14 11 14.4477 11 15V16C11 16.5523 11.4477 17 12 17C12.5523 17 13 16.5523 13 16V15ZM7.44721 12.1056C6.95324 11.8586 6.35256 12.0588 6.10557 12.5528C5.85858 13.0468 6.05881 13.6474 6.55279 13.8944L8.55279 14.8944C9.04677 15.1414 9.64744 14.9412 9.89443 14.4472C10.1414 13.9532 9.94119 13.3526 9.44721 13.1056L7.44721 12.1056ZM16.5528 12.1056C17.0468 11.8586 17.6474 12.0588 17.8944 12.5528C18.1414 13.0468 17.9412 13.6474 17.4472 13.8944L15.4472 14.8944C14.9532 15.1414 14.3526 14.9412 14.1056 14.4472C13.8586 13.9532 14.0588 13.3526 14.5528 13.1056L16.5528 12.1056Z" fill="black"/>
</svg>
