<svg width="24" height="24" viewBox="0 0 24 24" fill="none" xmlns="http://www.w3.org/2000/svg">
<path fill-rule="evenodd" clip-rule="evenodd" d="M16.7437 4.31251L15.426 2.33592C14.8696 1.50131 13.9329 1 12.9299 1H11.0706C10.0675 1 9.13085 1.5013 8.57445 2.3359L7.25685 4.3123C5.35492 5.01982 4 6.85171 4 9.00005V15C4 17.1484 5.35492 18.9803 7.25685 19.6878L8.57445 21.6642C9.13085 22.4988 10.0675 23.0001 11.0706 23.0001H12.9299C13.9329 23.0001 14.8696 22.4988 15.426 21.6642L16.7437 19.6876C18.6454 18.9799 20 17.1482 20 15V9.00005C20 6.85192 18.6454 5.02019 16.7437 4.31251ZM15 18C16.6569 18 18 16.6569 18 15V9.00005C18 7.34319 16.6569 6.00005 15 6.00005H9C7.34315 6.00005 6 7.34319 6 9.00005V15C6 16.6569 7.34315 18 9 18H15Z" fill="black"/>
</svg>
