<svg width="24" height="24" viewBox="0 0 24 24" fill="none" xmlns="http://www.w3.org/2000/svg">
<path fill-rule="evenodd" clip-rule="evenodd" d="M12 4C7.58172 4 4 7.58172 4 12C4 16.4183 7.58172 20 12 20C16.4183 20 20 16.4183 20 12C20 7.58172 16.4183 4 12 4ZM2 12C2 6.47715 6.47715 2 12 2C17.5228 2 22 6.47715 22 12C22 17.5228 17.5228 22 12 22C6.47715 22 2 17.5228 2 12Z" fill="black"/>
<path fill-rule="evenodd" clip-rule="evenodd" d="M4 12C4 7.58172 7.58172 4 12 4C16.4183 4 20 7.58172 20 12C20 16.4183 16.4183 20 12 20C7.58172 20 4 16.4183 4 12ZM7.5 8C7.5 7.17157 8.17157 6.5 9 6.5C9.82843 6.5 10.5001 7.17157 10.5001 8C10.5001 8.82843 9.82853 9.5 9.0001 9.5C8.17167 9.5 7.5 8.82843 7.5 8ZM13.5 8C13.5 7.17157 14.1716 6.5 15 6.5C15.8284 6.5 16.5001 7.17157 16.5001 8C16.5001 8.82843 15.8285 9.5 15.0001 9.5C14.1717 9.5 13.5 8.82843 13.5 8ZM6 12C6 11.4477 6.44772 11 7 11H17C17.5523 11 18 11.4477 18 12C18 15.3137 15.3137 18 12 18C8.68629 18 6 15.3137 6 12Z" fill="black"/>
</svg>
