<svg width="24" height="24" viewBox="0 0 24 24" fill="none" xmlns="http://www.w3.org/2000/svg">
<path d="M11.4454 8.16795C11.7813 7.94402 12.2189 7.94402 12.5548 8.16795L15.5548 10.1679C15.9064 10.4024 16.0727 10.8325 15.9702 11.2425L14.9702 15.2425C14.8589 15.6877 14.4589 16 14.0001 16H10.0001C9.54119 16 9.14121 15.6877 9.02992 15.2425L8.02992 11.2425C7.92742 10.8325 8.09373 10.4024 8.44536 10.1679L11.4454 8.16795Z" fill="black"/>
<path fill-rule="evenodd" clip-rule="evenodd" d="M8.52221 2.62134C4.71388 4.03408 2 7.70011 2 12C2 17.5228 6.47715 22 12 22C17.5228 22 22 17.5228 22 12C22 7.70036 19.2864 4.03451 15.4785 2.62159C15.3849 2.57076 15.2842 2.53542 15.1805 2.51638C14.1813 2.18146 13.1119 2 12 2C10.888 2 9.81847 2.18149 8.81929 2.51647C8.71586 2.53549 8.61546 2.57072 8.52221 2.62134ZM8.88869 4.62756C7.75945 5.10471 6.76259 5.83373 5.96853 6.74422L6.94839 9.68379C7.09099 10.1116 6.92962 10.5819 6.55441 10.8321L4.01687 12.5238C4.09841 13.7854 4.47241 14.9674 5.07177 16.0026C5.09454 16.0043 5.11741 16.0068 5.14036 16.01L8.64036 16.51C9.0153 16.5636 9.32781 16.8244 9.4476 17.1837L10.3282 19.8251C10.8674 19.9397 11.4267 20 12 20C12.5736 20 13.133 19.9396 13.6724 19.8249L14.5538 17.1835C14.6736 16.8243 14.9861 16.5636 15.3609 16.5101L18.8594 16.0101C18.8824 16.0068 18.9054 16.0043 18.9282 16.0026C19.5276 14.9674 19.9016 13.7854 19.9831 12.5238L17.4435 10.8323C17.068 10.5822 16.9065 10.1117 17.0491 9.68376L18.0297 6.74217C17.2359 5.83267 16.2398 5.1044 15.1114 4.62761L12.5548 6.33203C12.2189 6.55597 11.7813 6.55597 11.4454 6.33203L8.88869 4.62756Z" fill="black"/>
</svg>
