<svg width="24" height="24" viewBox="0 0 24 24" fill="none" xmlns="http://www.w3.org/2000/svg">
<path fill-rule="evenodd" clip-rule="evenodd" d="M12.5548 8.16795C12.2189 7.94402 11.7813 7.94402 11.4454 8.16795L8.44536 10.1679C8.09373 10.4024 7.92742 10.8325 8.02992 11.2425L9.02992 15.2425C9.14121 15.6877 9.54119 16 10.0001 16H14.0001C14.4589 16 14.8589 15.6877 14.9702 15.2425L15.9702 11.2425C16.0727 10.8325 15.9064 10.4024 15.5548 10.1679L12.5548 8.16795ZM10.7808 14L10.1411 11.4411L12.0001 10.2019L13.859 11.4411L13.2193 14H10.7808Z" fill="black"/>
<path fill-rule="evenodd" clip-rule="evenodd" d="M2 12C2 7.70011 4.71388 4.03408 8.52221 2.62134C8.61546 2.57072 8.71586 2.53549 8.81929 2.51647C9.81847 2.18149 10.888 2 12 2C13.1119 2 14.1813 2.18146 15.1805 2.51638C15.2842 2.53542 15.3849 2.57076 15.4785 2.62159C19.2864 4.03451 22 7.70036 22 12C22 17.5228 17.5228 22 12 22C6.47715 22 2 17.5228 2 12ZM5.96853 6.74422C6.76259 5.83373 7.75945 5.10471 8.88869 4.62756L11.4454 6.33203C11.7813 6.55597 12.2189 6.55597 12.5548 6.33203L15.1114 4.62761C16.2398 5.1044 17.2359 5.83267 18.0297 6.74217L17.0491 9.68376C16.9065 10.1117 17.068 10.5822 17.4435 10.8323L19.9831 12.5238C19.9016 13.7854 19.5276 14.9674 18.9282 16.0026C18.9054 16.0043 18.8824 16.0068 18.8594 16.0101L15.3609 16.5101C14.9861 16.5636 14.6736 16.8243 14.5538 17.1835L13.6724 19.8249C13.133 19.9396 12.5736 20 12 20C11.4267 20 10.8674 19.9397 10.3282 19.8251L9.4476 17.1837C9.32781 16.8244 9.0153 16.5636 8.64036 16.51L5.14036 16.01C5.11741 16.0068 5.09454 16.0043 5.07177 16.0026C4.47241 14.9674 4.09841 13.7854 4.01687 12.5238L6.55441 10.8321C6.92962 10.5819 7.09099 10.1116 6.94839 9.68379L5.96853 6.74422ZM7.07807 18.3072C7.34022 18.512 7.61547 18.7009 7.90236 18.8723L7.74573 18.4025L7.07807 18.3072ZM16.2554 18.4025L16.9217 18.3073C16.66 18.5118 16.3853 18.7004 16.0989 18.8716L16.2554 18.4025ZM4.59845 8.95851C4.46585 9.28084 4.3537 9.61373 4.26361 9.95557L4.80949 9.59165L4.59845 8.95851ZM19.1882 9.59129L19.4002 8.95519C19.5335 9.27888 19.6462 9.61323 19.7367 9.95661L19.1882 9.59129ZM12.0001 4.29813L11.5699 4.01136C11.7123 4.00382 11.8557 4 12 4C12.1443 4 12.2878 4.00382 12.4302 4.01137L12.0001 4.29813Z" fill="black"/>
</svg>
