<svg width="24" height="24" viewBox="0 0 24 24" fill="none" xmlns="http://www.w3.org/2000/svg">
<path fill-rule="evenodd" clip-rule="evenodd" d="M13 2C11.8954 2 11 2.89543 11 4V10C11 11.1046 10.1046 12 9 12H7C4.23772 12 2 14.2377 2 17C2 19.7623 4.23772 22 7 22H17C19.7614 22 22 19.7614 22 17V4C22 2.89543 21.1046 2 20 2H13ZM4 17C4 15.3423 5.34228 14 7 14H7.68822C8.50247 14.8459 8.99985 15.9964 8.99985 17.265C8.99985 18.2887 8.67856 19.2311 8.13039 20H7C5.34228 20 4 18.6577 4 17ZM19.5 16.5C17.8423 16.5 16.5 17.8423 16.5 19.5V20H17C18.6569 20 20 18.6569 20 17V16.5H19.5ZM20 6H13V8H20V6Z" fill="black"/>
</svg>
