<svg width="24" height="24" viewBox="0 0 24 24" fill="none" xmlns="http://www.w3.org/2000/svg">
<path fill-rule="evenodd" clip-rule="evenodd" d="M4 5C4 2.79086 5.79086 1 8 1H16C18.2091 1 20 2.79086 20 5V10.1707C21.1652 10.5825 22 11.6938 22 13V16C22 18.4207 20.2798 20.4396 17.9952 20.901C17.9984 20.9335 18 20.9666 18 21C18 21.5523 17.5523 22 17 22H15C14.4477 22 14 21.5523 14 21H10C10 21.5523 9.55228 22 9 22H7C6.44772 22 6 21.5523 6 21C6 20.9666 6.00164 20.9335 6.00485 20.901C3.72019 20.4396 2 18.4207 2 16V13C2 11.6938 2.83481 10.5825 4 10.1707V5ZM19 12C19.5523 12 20 12.4477 20 13V16C20 17.6569 18.6569 19 17 19H7C5.34315 19 4 17.6569 4 16V13C4 12.4477 4.44772 12 5 12H6C6.55228 12 7 12.4477 7 13V14C7 14.5523 7.44772 15 8 15H16C16.5523 15 17 14.5523 17 14V13C17 12.4477 17.4477 12 18 12H19Z" fill="black"/>
</svg>
