<svg width="24" height="24" viewBox="0 0 24 24" fill="none" xmlns="http://www.w3.org/2000/svg">
<path fill-rule="evenodd" clip-rule="evenodd" d="M8 15C6.89543 15 6 15.8954 6 17C6 18.1046 6.89543 19 8 19C9.10457 19 10 18.1046 10 17C10 15.8954 9.10457 15 8 15ZM4 17C4 14.7909 5.79086 13 8 13C10.2091 13 12 14.7909 12 17C12 19.2091 10.2091 21 8 21C5.79086 21 4 19.2091 4 17Z" fill="black"/>
<path fill-rule="evenodd" clip-rule="evenodd" d="M11 3C11.5523 3 12 3.44772 12 4V17C12 17.5523 11.5523 18 11 18C10.4477 18 10 17.5523 10 17V4C10 3.44772 10.4477 3 11 3Z" fill="black"/>
<path fill-rule="evenodd" clip-rule="evenodd" d="M10 4C10 3.44772 10.4477 3 11 3H21C21.5523 3 22 3.44772 22 4V5C22 7.76142 19.7614 10 17 10H11C10.4477 10 10 9.55228 10 9V4ZM12 5V8H17C18.6569 8 20 6.65685 20 5H12Z" fill="black"/>
</svg>
