<svg width="24" height="24" viewBox="0 0 24 24" fill="none" xmlns="http://www.w3.org/2000/svg">
<path fill-rule="evenodd" clip-rule="evenodd" d="M4.75 12C4.75 11.3096 5.30964 10.75 6 10.75H13C13.6904 10.75 14.25 11.3096 14.25 12C14.25 12.6904 13.6904 13.25 13 13.25H6C5.30964 13.25 4.75 12.6904 4.75 12Z" fill="black"/>
<path fill-rule="evenodd" clip-rule="evenodd" d="M4.75 7C4.75 6.30964 5.30964 5.75 6 5.75H11C11.6904 5.75 12.25 6.30964 12.25 7C12.25 7.69036 11.6904 8.25 11 8.25H6C5.30964 8.25 4.75 7.69036 4.75 7Z" fill="black"/>
<path fill-rule="evenodd" clip-rule="evenodd" d="M4.75 17C4.75 16.3096 5.30964 15.75 6 15.75H11C11.6904 15.75 12.25 16.3096 12.25 17C12.25 17.6904 11.6904 18.25 11 18.25H6C5.30964 18.25 4.75 17.6904 4.75 17Z" fill="black"/>
<path fill-rule="evenodd" clip-rule="evenodd" d="M0.75 12C0.75 11.3096 1.30964 10.75 2 10.75H3C3.69036 10.75 4.25 11.3096 4.25 12C4.25 12.6904 3.69036 13.25 3 13.25H2C1.30964 13.25 0.75 12.6904 0.75 12Z" fill="black"/>
<path fill-rule="evenodd" clip-rule="evenodd" d="M0.75 7.00061C0.75 6.31025 1.30964 5.75061 2 5.75061H3C3.69036 5.75061 4.25 6.31025 4.25 7.00061C4.25 7.69097 3.69036 8.25061 3 8.25061H2C1.30964 8.25061 0.75 7.69097 0.75 7.00061Z" fill="black"/>
<path fill-rule="evenodd" clip-rule="evenodd" d="M0.75 16.9993C0.75 16.3089 1.30964 15.7493 2 15.7493H3C3.69036 15.7493 4.25 16.3089 4.25 16.9993C4.25 17.6896 3.69036 18.2493 3 18.2493H2C1.30964 18.2493 0.75 17.6896 0.75 16.9993Z" fill="black"/>
<path fill-rule="evenodd" clip-rule="evenodd" d="M17.9978 4.25085C18.6882 4.25085 19.2478 4.8105 19.2478 5.50085V18.4991C19.2478 19.1894 18.6882 19.7491 17.9978 19.7491C17.3074 19.7491 16.7478 19.1894 16.7478 18.4991V5.50085C16.7478 4.8105 17.3074 4.25085 17.9978 4.25085Z" fill="black"/>
<path fill-rule="evenodd" clip-rule="evenodd" d="M17.2929 4.29289C17.6834 3.90237 18.3166 3.90237 18.7071 4.29289L20.7071 6.29289C20.9931 6.57889 21.0787 7.00901 20.9239 7.38268C20.7691 7.75636 20.4045 8 20 8H16C15.5955 8 15.2309 7.75636 15.0761 7.38268C14.9213 7.00901 15.0069 6.57889 15.2929 6.29289L17.2929 4.29289Z" fill="black"/>
<path fill-rule="evenodd" clip-rule="evenodd" d="M17.2929 19.7071C17.6834 20.0976 18.3166 20.0976 18.7071 19.7071L20.7071 17.7071C20.9931 17.4211 21.0787 16.991 20.9239 16.6173C20.7691 16.2436 20.4045 16 20 16H16C15.5955 16 15.2309 16.2436 15.0761 16.6173C14.9213 16.991 15.0069 17.4211 15.2929 17.7071L17.2929 19.7071Z" fill="black"/>
</svg>
