<svg width="24" height="24" viewBox="0 0 24 24" fill="none" xmlns="http://www.w3.org/2000/svg">
<path fill-rule="evenodd" clip-rule="evenodd" d="M18 3C18.3788 3 18.725 3.214 18.8944 3.55279L21.8944 9.55279C22.1414 10.0468 21.9412 10.6474 21.4472 10.8944C20.9532 11.1414 20.3526 10.9412 20.1056 10.4472L18 6.23607L15.8944 10.4472C15.6474 10.9412 15.0468 11.1414 14.5528 10.8944C14.0588 10.6474 13.8586 10.0468 14.1056 9.55279L17.1056 3.55279C17.275 3.214 17.6212 3 18 3Z" fill="black"/>
<path fill-rule="evenodd" clip-rule="evenodd" d="M15 9C15 8.44772 15.4477 8 16 8H20C20.5523 8 21 8.44772 21 9C21 9.55228 20.5523 10 20 10H16C15.4477 10 15 9.55228 15 9Z" fill="black"/>
<path fill-rule="evenodd" clip-rule="evenodd" d="M14.5 14C14.5 13.4477 14.9477 13 15.5 13H21C21.4045 13 21.7691 13.2436 21.9239 13.6173C22.0787 13.991 21.9931 14.4211 21.7071 14.7071L17.4142 19H21C21.5523 19 22 19.4477 22 20C22 20.5523 21.5523 21 21 21H15C14.5955 21 14.2309 20.7564 14.0761 20.3827C13.9213 20.009 14.0069 19.5789 14.2929 19.2929L18.5858 15H15.5C14.9477 15 14.5 14.5523 14.5 14Z" fill="black"/>
<path fill-rule="evenodd" clip-rule="evenodd" d="M8 4C7.44772 4 7 4.44771 7 5L7 17C7 17.5523 7.44772 18 8 18C8.55228 18 9 17.5523 9 17L9 5C9 4.44772 8.55229 4 8 4Z" fill="black"/>
<path fill-rule="evenodd" clip-rule="evenodd" d="M11.7071 15.2929C11.3166 14.9024 10.6834 14.9024 10.2929 15.2929L8 17.5858L5.70711 15.2929C5.31658 14.9024 4.68342 14.9024 4.29289 15.2929C3.90237 15.6834 3.90237 16.3166 4.29289 16.7071L7.29289 19.7071C7.68342 20.0976 8.31658 20.0976 8.70711 19.7071L11.7071 16.7071C12.0976 16.3166 12.0976 15.6834 11.7071 15.2929Z" fill="black"/>
</svg>
