<svg width="24" height="24" viewBox="0 0 24 24" fill="none" xmlns="http://www.w3.org/2000/svg">
<path fill-rule="evenodd" clip-rule="evenodd" d="M8 3.75C7.30964 3.75 6.75 4.30964 6.75 5L6.75 17C6.75 17.6904 7.30964 18.25 8 18.25C8.69035 18.25 9.25 17.6904 9.25 17L9.25 5C9.25 4.30964 8.69036 3.75 8 3.75Z" fill="black"/>
<path fill-rule="evenodd" clip-rule="evenodd" d="M11.8839 15.1161C11.3957 14.628 10.6043 14.628 10.1161 15.1161L8 17.2322L5.88388 15.1161C5.39573 14.628 4.60427 14.628 4.11612 15.1161C3.62796 15.6043 3.62796 16.3957 4.11612 16.8839L7.11612 19.8839C7.60427 20.372 8.39573 20.372 8.88388 19.8839L11.8839 16.8839C12.372 16.3957 12.372 15.6043 11.8839 15.1161Z" fill="black"/>
<path fill-rule="evenodd" clip-rule="evenodd" d="M18.6572 12.9367C19.0257 13.1644 19.25 13.5668 19.25 14V21C19.25 21.6904 18.6904 22.25 18 22.25C17.3096 22.25 16.75 21.6904 16.75 21V16.0225L16.559 16.118C15.9415 16.4268 15.1907 16.1765 14.882 15.559C14.5732 14.9415 14.8235 14.1907 15.441 13.882L17.441 12.882C17.8285 12.6882 18.2886 12.7089 18.6572 12.9367Z" fill="black"/>
<path fill-rule="evenodd" clip-rule="evenodd" d="M13.75 3C13.75 2.30964 14.3096 1.75 15 1.75H19C19.6904 1.75 20.25 2.30964 20.25 3V10C20.25 10.6904 19.6904 11.25 19 11.25H15C14.3096 11.25 13.75 10.6904 13.75 10C13.75 9.30964 14.3096 8.75 15 8.75H17.75V8.25H15C14.3096 8.25 13.75 7.69036 13.75 7V3ZM17.75 5.75V4.25H16.25V5.75H17.75Z" fill="black"/>
</svg>
