<svg width="24" height="24" viewBox="0 0 24 24" fill="none" xmlns="http://www.w3.org/2000/svg">
<path fill-rule="evenodd" clip-rule="evenodd" d="M5 12C5 11.4477 5.44772 11 6 11H13C13.5523 11 14 11.4477 14 12C14 12.5523 13.5523 13 13 13H6C5.44772 13 5 12.5523 5 12Z" fill="black"/>
<path fill-rule="evenodd" clip-rule="evenodd" d="M5 7C5 6.44772 5.44772 6 6 6H11C11.5523 6 12 6.44772 12 7C12 7.55228 11.5523 8 11 8H6C5.44772 8 5 7.55228 5 7Z" fill="black"/>
<path fill-rule="evenodd" clip-rule="evenodd" d="M5 17C5 16.4477 5.44772 16 6 16H11C11.5523 16 12 16.4477 12 17C12 17.5523 11.5523 18 11 18H6C5.44772 18 5 17.5523 5 17Z" fill="black"/>
<path fill-rule="evenodd" clip-rule="evenodd" d="M1 12C1 11.4477 1.44772 11 2 11H3C3.55228 11 4 11.4477 4 12C4 12.5523 3.55228 13 3 13H2C1.44772 13 1 12.5523 1 12Z" fill="black"/>
<path fill-rule="evenodd" clip-rule="evenodd" d="M1 7.00061C1 6.44833 1.44772 6.00061 2 6.00061H3C3.55228 6.00061 4 6.44833 4 7.00061C4 7.5529 3.55228 8.00061 3 8.00061H2C1.44772 8.00061 1 7.5529 1 7.00061Z" fill="black"/>
<path fill-rule="evenodd" clip-rule="evenodd" d="M1 16.9993C1 16.447 1.44772 15.9993 2 15.9993H3C3.55228 15.9993 4 16.447 4 16.9993C4 17.5516 3.55228 17.9993 3 17.9993H2C1.44772 17.9993 1 17.5516 1 16.9993Z" fill="black"/>
<path fill-rule="evenodd" clip-rule="evenodd" d="M17.9978 4.50085C18.5501 4.50085 18.9978 4.94857 18.9978 5.50085V18.4991C18.9978 19.0513 18.5501 19.4991 17.9978 19.4991C17.4455 19.4991 16.9978 19.0513 16.9978 18.4991V5.50085C16.9978 4.94857 17.4455 4.50085 17.9978 4.50085Z" fill="black"/>
<path fill-rule="evenodd" clip-rule="evenodd" d="M17.2929 4.29289C17.6834 3.90237 18.3166 3.90237 18.7071 4.29289L20.7071 6.29289C20.9931 6.57889 21.0787 7.00901 20.9239 7.38268C20.7691 7.75636 20.4045 8 20 8H16C15.5955 8 15.2309 7.75636 15.0761 7.38268C14.9213 7.00901 15.0069 6.57889 15.2929 6.29289L17.2929 4.29289Z" fill="black"/>
<path fill-rule="evenodd" clip-rule="evenodd" d="M17.2929 19.7071C17.6834 20.0976 18.3166 20.0976 18.7071 19.7071L20.7071 17.7071C20.9931 17.4211 21.0787 16.991 20.9239 16.6173C20.7691 16.2436 20.4045 16 20 16H16C15.5955 16 15.2309 16.2436 15.0761 16.6173C14.9213 16.991 15.0069 17.4211 15.2929 17.7071L17.2929 19.7071Z" fill="black"/>
</svg>
