<svg width="24" height="24" viewBox="0 0 24 24" fill="none" xmlns="http://www.w3.org/2000/svg">
<path fill-rule="evenodd" clip-rule="evenodd" d="M8 3.75C7.30964 3.75 6.75 4.30964 6.75 5L6.75 17C6.75 17.6904 7.30964 18.25 8 18.25C8.69035 18.25 9.25 17.6904 9.25 17L9.25 5C9.25 4.30964 8.69036 3.75 8 3.75Z" fill="black"/>
<path fill-rule="evenodd" clip-rule="evenodd" d="M11.8839 15.1161C11.3957 14.628 10.6043 14.628 10.1161 15.1161L8 17.2322L5.88388 15.1161C5.39573 14.628 4.60427 14.628 4.11612 15.1161C3.62796 15.6043 3.62796 16.3957 4.11612 16.8839L7.11612 19.8839C7.60427 20.372 8.39573 20.372 8.88388 19.8839L11.8839 16.8839C12.372 16.3957 12.372 15.6043 11.8839 15.1161Z" fill="black"/>
<path fill-rule="evenodd" clip-rule="evenodd" d="M18 12.75C18.4735 12.75 18.9063 13.0175 19.118 13.441L22.118 19.441C22.4268 20.0585 22.1765 20.8093 21.559 21.118C20.9415 21.4268 20.1907 21.1765 19.882 20.559L18 16.7951L16.118 20.559C15.8093 21.1765 15.0585 21.4268 14.441 21.118C13.8235 20.8093 13.5732 20.0585 13.882 19.441L16.882 13.441C17.0937 13.0175 17.5265 12.75 18 12.75Z" fill="black"/>
<path fill-rule="evenodd" clip-rule="evenodd" d="M14.75 19C14.75 18.3096 15.3096 17.75 16 17.75H20C20.6904 17.75 21.25 18.3096 21.25 19C21.25 19.6904 20.6904 20.25 20 20.25H16C15.3096 20.25 14.75 19.6904 14.75 19Z" fill="black"/>
<path fill-rule="evenodd" clip-rule="evenodd" d="M14.25 4C14.25 3.30964 14.8096 2.75 15.5 2.75H21C21.5056 2.75 21.9614 3.05455 22.1549 3.52165C22.3483 3.98874 22.2414 4.52639 21.8839 4.88388L18.0178 8.75H21C21.6904 8.75 22.25 9.30964 22.25 10C22.25 10.6904 21.6904 11.25 21 11.25H15C14.4944 11.25 14.0386 10.9454 13.8452 10.4784C13.6517 10.0113 13.7586 9.47361 14.1161 9.11612L17.9822 5.25H15.5C14.8096 5.25 14.25 4.69036 14.25 4Z" fill="black"/>
</svg>
