<svg width="24" height="24" viewBox="0 0 24 24" fill="none" xmlns="http://www.w3.org/2000/svg">
<path fill-rule="evenodd" clip-rule="evenodd" d="M17 19.25C16.3096 19.25 15.75 18.6904 15.75 18L15.75 5C15.75 4.30964 16.3096 3.75 17 3.75C17.6904 3.75 18.25 4.30964 18.25 5L18.25 18C18.25 18.6904 17.6904 19.25 17 19.25Z" fill="black"/>
<path fill-rule="evenodd" clip-rule="evenodd" d="M7 4.75C6.30964 4.75 5.75 5.30964 5.75 6L5.75 19C5.75 19.6904 6.30964 20.25 7 20.25C7.69036 20.25 8.25 19.6904 8.25 19L8.25 6C8.25 5.30964 7.69036 4.75 7 4.75Z" fill="black"/>
<path fill-rule="evenodd" clip-rule="evenodd" d="M12.1161 14.1161C12.6043 13.628 13.3957 13.628 13.8839 14.1161L17 17.2322L20.1161 14.1161C20.6043 13.628 21.3957 13.628 21.8839 14.1161C22.372 14.6043 22.372 15.3957 21.8839 15.8839L17.8839 19.8839C17.3957 20.372 16.6043 20.372 16.1161 19.8839L12.1161 15.8839C11.628 15.3957 11.628 14.6043 12.1161 14.1161Z" fill="black"/>
<path fill-rule="evenodd" clip-rule="evenodd" d="M2.11612 9.88388C2.60427 10.372 3.39573 10.372 3.88388 9.88388L7 6.76777L10.1161 9.88388C10.6043 10.372 11.3957 10.372 11.8839 9.88388C12.372 9.39573 12.372 8.60427 11.8839 8.11612L7.88388 4.11612C7.39573 3.62796 6.60427 3.62796 6.11612 4.11612L2.11612 8.11612C1.62796 8.60427 1.62796 9.39573 2.11612 9.88388Z" fill="black"/>
</svg>
