<svg width="24" height="24" viewBox="0 0 24 24" fill="none" xmlns="http://www.w3.org/2000/svg">
<path d="M8 1C8 0.447715 7.55228 0 7 0C6.44772 0 6 0.447715 6 1V4C6 4.55228 6.44772 5 7 5C7.55228 5 8 4.55228 8 4V1Z" fill="black"/>
<path fill-rule="evenodd" clip-rule="evenodd" d="M21 3C21 2.44772 20.5523 2 20 2C20.1509 2.0113 19.9986 2 19.9986 2L19.9972 2L19.9939 2.00002L19.9862 2.00008L19.9656 2.00041C19.9497 2.00075 19.9295 2.00137 19.9051 2.00244C19.8564 2.0046 19.7912 2.00863 19.7116 2.01615C19.5527 2.03117 19.3348 2.06025 19.0759 2.11673C18.56 2.2293 17.867 2.45386 17.1535 2.90451C15.8228 3.74498 14.5507 5.28948 14.1144 8H3.99721C2.88901 8 2 8.89907 2 10V15C2 18.866 5.13401 22 9 22H15C18.866 22 22 18.866 22 15V10C22 8.89924 21.1113 8 20.0029 8H18.9249C20.0498 6.93198 21 5.32696 21 3ZM18.2215 4.59549C18.4403 4.45727 18.6569 4.3508 18.8605 4.26884C18.5457 5.61639 17.7438 6.48366 16.9265 7.05577C16.7069 7.20951 16.4862 7.34137 16.274 7.45385C16.7124 5.85381 17.5257 5.03493 18.2215 4.59549ZM9 20C6.23858 20 4 17.7614 4 15V10H20V15C20 17.7614 17.7614 20 15 20H9Z" fill="black"/>
<path d="M11 2C11.5523 2 12 2.44772 12 3V6C12 6.55228 11.5523 7 11 7C10.4477 7 10 6.55228 10 6V3C10 2.44772 10.4477 2 11 2Z" fill="black"/>
</svg>
