<svg width="24" height="24" viewBox="0 0 24 24" fill="none" xmlns="http://www.w3.org/2000/svg">
<path d="M7 0C7.55228 0 8 0.447715 8 1V4C8 4.55228 7.55228 5 7 5C6.44772 5 6 4.55228 6 4V1C6 0.447715 6.44772 0 7 0Z" fill="black"/>
<path fill-rule="evenodd" clip-rule="evenodd" d="M20 2C20.5523 2 21 2.44772 21 3C21 5.32696 20.0498 6.93198 18.9249 8H20.0029C21.1113 8 22 8.89924 22 10V15C22 18.866 18.866 22 15 22H9C5.13401 22 2 18.866 2 15V10C2 8.89907 2.88901 8 3.99721 8H14.1144C14.5507 5.28948 15.8228 3.74498 17.1535 2.90451C17.867 2.45386 18.56 2.2293 19.0759 2.11673C19.3348 2.06025 19.5527 2.03117 19.7116 2.01615C19.7912 2.00863 19.8564 2.0046 19.9051 2.00244C19.9082 2.00231 19.9111 2.00218 19.9141 2.00206C19.9345 2.00122 19.9517 2.00071 19.9656 2.00041L19.9862 2.00008L19.9939 2.00002L19.9972 2L19.9986 2C19.9986 2 20.1148 2.00651 20 2ZM18.8605 4.26884C18.6569 4.3508 18.4403 4.45727 18.2215 4.59549C17.5257 5.03493 16.7124 5.85381 16.274 7.45385C16.4862 7.34137 16.7069 7.20951 16.9265 7.05577C17.7438 6.48366 18.5457 5.61639 18.8605 4.26884Z" fill="black"/>
<path d="M11 2C11.5523 2 12 2.44772 12 3V6C12 6.55228 11.5523 7 11 7C10.4477 7 10 6.55228 10 6V3C10 2.44772 10.4477 2 11 2Z" fill="black"/>
</svg>
