<svg width="24" height="24" viewBox="0 0 24 24" fill="none" xmlns="http://www.w3.org/2000/svg">
<path d="M2.2522 6.80783C3.00923 7.58142 3.38669 8.4712 3.5 9C3.74967 8.06374 4.2164 7.34662 4.74442 6.81097C4.76656 6.7885 4.78881 6.76636 4.81116 6.74453C5.58398 5.98968 6.47196 5.61315 7 5.5C6.47196 5.38685 5.58398 5.01032 4.81116 4.25547C4.78881 4.23364 4.76656 4.2115 4.74442 4.18903C4.2164 3.65338 3.74967 2.93626 3.5 2C3.38669 2.5288 3.00924 3.41858 2.25221 4.19218C2.23251 4.2123 2.21256 4.23235 2.19235 4.2523C1.65634 4.78167 0.938197 5.24981 0 5.5C0.938197 5.75019 1.65634 6.21833 2.19235 6.7477C2.21256 6.76765 2.23251 6.7877 2.2522 6.80783Z" fill="black"/>
<path d="M13.9662 3.74234C13.8471 3.29567 13.4374 2.98887 12.9752 3.00031C12.5131 3.01175 12.1191 3.33846 12.0222 3.79047C11.5748 5.87837 9.27249 10.5591 3.74234 12.0338C3.30458 12.1505 3 12.547 3 13C3 13.4531 3.30458 13.8495 3.74234 13.9662C9.27249 15.4409 11.5748 20.1216 12.0222 22.2095C12.1191 22.6615 12.5131 22.9883 12.9752 22.9997C13.4374 23.0111 13.8471 22.7043 13.9662 22.2577C15.4409 16.7275 20.1216 14.4252 22.2095 13.9778C22.6706 13.879 23 13.4715 23 13C23 12.5285 22.6706 12.121 22.2095 12.0222C20.1216 11.5748 15.4409 9.27249 13.9662 3.74234Z" fill="black"/>
<path d="M3.94541 21.8321C4.26551 22.2706 4.43804 22.7108 4.5 23C4.62346 22.537 4.82122 22.1491 5.05638 21.8272C5.28891 21.5089 5.55801 21.2553 5.82797 21.0576C6.2678 20.7356 6.70993 20.5622 7 20.5C6.70993 20.4378 6.2678 20.2644 5.82797 19.9424C5.55801 19.7447 5.28891 19.4911 5.05638 19.1728C4.82122 18.8509 4.62346 18.463 4.5 18C4.43804 18.2892 4.26551 18.7294 3.94542 19.1679C3.74646 19.4404 3.49049 19.7122 3.16862 19.9467C2.84758 20.1805 2.46098 20.3771 2 20.5C2.46098 20.6229 2.84758 20.8195 3.16862 21.0533C3.49049 21.2878 3.74645 21.5596 3.94541 21.8321Z" fill="black"/>
</svg>
