<svg width="24" height="24" viewBox="0 0 24 24" fill="none" xmlns="http://www.w3.org/2000/svg">
<path d="M12 11C11.4477 11 11 11.4477 11 12C11 12.5523 11.4477 13 12 13C12.5523 13 13 12.5523 13 12C13 11.4477 12.5523 11 12 11Z" fill="black"/>
<path fill-rule="evenodd" clip-rule="evenodd" d="M22 12C22 6.47715 17.5228 2 12 2C6.47715 2 2 6.47715 2 12C2 17.5228 6.47715 22 12 22C17.5228 22 22 17.5228 22 12ZM19.9381 11C19.979 11.3276 20 11.6613 20 12C20 12.3387 19.979 12.6724 19.9381 13H18C17.4477 13 17 12.5523 17 12C17 11.4477 17.4477 11 18 11H19.9381ZM18.5331 7.38163C18.1456 6.83452 17.6911 6.33821 17.1816 5.90465L16.0234 7.06291C15.6328 7.45344 15.6328 8.0866 16.0234 8.47713C16.4139 8.86765 17.0471 8.86765 17.4376 8.47713L18.5331 7.38163ZM13 4.06189C12.6724 4.02104 12.3387 4 12 4C11.6613 4 11.3276 4.02104 11 4.06189V6C11 6.55228 11.4477 7 12 7C12.5523 7 13 6.55228 13 6V4.06189ZM6.81864 5.90442C6.30911 6.33796 5.85462 6.83425 5.46713 7.38134L6.56291 8.47713C6.95344 8.86765 7.5866 8.86765 7.97713 8.47713C8.36765 8.0866 8.36765 7.45344 7.97713 7.06291L6.81864 5.90442ZM4.06189 11C4.02104 11.3276 4 11.6613 4 12C4 12.3387 4.02104 12.6724 4.06189 13H6C6.55229 13 7 12.5523 7 12C7 11.4477 6.55229 11 6 11H4.06189ZM12 18C12.5523 18 13 17.5523 13 17V14.8293C14.1652 14.4175 15 13.3062 15 12C15 10.3431 13.6569 9 12 9C10.3431 9 9 10.3431 9 12C9 13.3062 9.83481 14.4175 11 14.8293V17C11 17.5523 11.4477 18 12 18Z" fill="black"/>
</svg>
