<svg width="24" height="24" viewBox="0 0 24 24" fill="none" xmlns="http://www.w3.org/2000/svg">
<path fill-rule="evenodd" clip-rule="evenodd" d="M2.00217 11.7897C1.99797 11.7258 1.99986 11.6615 2.00795 11.5977C2.21909 6.26135 6.6119 2 12 2C17.3879 2 21.7806 6.26108 21.992 11.5972C22.0002 11.6613 22.0021 11.726 21.9978 11.7903C21.9993 11.86 22 11.9299 22 12C22 17.5228 17.5228 22 12 22C6.47715 22 2 17.5228 2 12C2 11.9297 2.00072 11.8596 2.00217 11.7897ZM12 20C15.7923 20 18.9683 17.3613 19.7921 13.8197C17.521 15.2029 14.8528 16 12 16C9.14721 16 6.47901 15.2029 4.20786 13.8196C5.03164 17.3612 8.20766 20 12 20Z" fill="black"/>
</svg>
