<svg width="24" height="24" viewBox="0 0 24 24" fill="none" xmlns="http://www.w3.org/2000/svg">
<path fill-rule="evenodd" clip-rule="evenodd" d="M2.00795 11.5977C1.99986 11.6615 1.99797 11.7258 2.00217 11.7897C2.00072 11.8596 2 11.9297 2 12C2 17.5228 6.47715 22 12 22C17.5228 22 22 17.5228 22 12C22 11.9299 21.9993 11.86 21.9978 11.7903C22.0021 11.726 22.0002 11.6613 21.992 11.5972C21.7806 6.26108 17.3879 2 12 2C6.6119 2 2.21909 6.26135 2.00795 11.5977ZM4.03257 11.2732C4.39982 7.19549 7.82673 4 12 4C16.1733 4 19.6002 7.19551 19.9674 11.2732C17.7665 12.9828 15.0032 14 12 14C8.9968 14 6.23349 12.9828 4.03257 11.2732ZM19.7921 13.8197C18.9683 17.3613 15.7923 20 12 20C8.20766 20 5.03164 17.3612 4.20786 13.8196C6.47901 15.2029 9.14721 16 12 16C14.8528 16 17.521 15.2029 19.7921 13.8197Z" fill="black"/>
</svg>
