<svg width="24" height="24" viewBox="0 0 24 24" fill="none" xmlns="http://www.w3.org/2000/svg">
<path d="M18 12C18 11.4477 17.5523 11 17 11L10.4142 11L12.7071 8.70711C13.0976 8.31658 13.0976 7.68342 12.7071 7.29289C12.3166 6.90237 11.6834 6.90237 11.2929 7.29289L7.29289 11.2929C7.10536 11.4804 7 11.7348 7 12C7 12.2652 7.10536 12.5196 7.29289 12.7071L11.2929 16.7071C11.6834 17.0976 12.3166 17.0976 12.7071 16.7071C13.0976 16.3166 13.0976 15.6834 12.7071 15.2929L10.4142 13L17 13C17.5523 13 18 12.5523 18 12Z" fill="black"/>
<path fill-rule="evenodd" clip-rule="evenodd" d="M22 7C22 4.23858 19.7614 2 17 2L7 2C4.23858 2 2 4.23858 2 7L2 17C2 19.7614 4.23858 22 7 22L17 22C19.7614 22 22 19.7614 22 17L22 7ZM17 4C18.6569 4 20 5.34315 20 7L20 17C20 18.6569 18.6569 20 17 20L7 20C5.34315 20 4 18.6569 4 17L4 7C4 5.34315 5.34315 4 7 4L17 4Z" fill="black"/>
</svg>
