<svg width="24" height="24" viewBox="0 0 24 24" fill="none" xmlns="http://www.w3.org/2000/svg">
<path d="M8.2928 15.7071C8.40807 15.8224 8.54448 15.9036 8.68955 15.9508C8.78728 15.9827 8.89163 16 9 16H15C15.5523 16 16 15.5523 16 15C16 14.4477 15.5523 14 15 14H11.4141L15.707 9.70711C16.0975 9.31658 16.0975 8.68342 15.707 8.29289C15.3165 7.90237 14.6833 7.90237 14.2928 8.29289L9.99997 12.5857L9.99994 8.99996C9.99993 8.44768 9.55221 7.99996 8.99993 7.99997C8.44764 7.99998 7.99993 8.4477 7.99994 8.99998L8 14.9863C7.99645 15.2468 8.09405 15.5084 8.2928 15.7071Z" fill="black"/>
<path fill-rule="evenodd" clip-rule="evenodd" d="M7 22C4.23858 22 2 19.7614 2 17V7C2 4.23858 4.23858 2 7 2H17C19.7614 2 22 4.23858 22 7V17C22 19.7614 19.7614 22 17 22H7ZM4 17C4 18.6569 5.34315 20 7 20H17C18.6569 20 20 18.6569 20 17V7C20 5.34315 18.6569 4 17 4H7C5.34315 4 4 5.34315 4 7V17Z" fill="black"/>
</svg>
