<svg width="24" height="24" viewBox="0 0 24 24" fill="none" xmlns="http://www.w3.org/2000/svg">
<path d="M8.2928 8.29289C8.40807 8.17762 8.54448 8.09638 8.68955 8.04916C8.78728 8.01727 8.89163 8.00003 9 8.00003H15C15.5523 8.00003 16 8.44774 16 9.00003C16 9.55231 15.5523 10 15 10H11.4141L15.707 14.2929C16.0975 14.6834 16.0975 15.3166 15.707 15.7071C15.3165 16.0976 14.6833 16.0976 14.2928 15.7071L9.99997 11.4143L9.99994 15C9.99993 15.5523 9.55221 16 8.99993 16C8.44764 16 7.99993 15.5523 7.99994 15L8 9.0137C7.99645 8.75323 8.09405 8.49164 8.2928 8.29289Z" fill="black"/>
<path fill-rule="evenodd" clip-rule="evenodd" d="M7 2C4.23858 2 2 4.23858 2 7V17C2 19.7614 4.23858 22 7 22H17C19.7614 22 22 19.7614 22 17V7C22 4.23858 19.7614 2 17 2H7ZM4 7C4 5.34315 5.34315 4 7 4H17C18.6569 4 20 5.34315 20 7V17C20 18.6569 18.6569 20 17 20H7C5.34315 20 4 18.6569 4 17V7Z" fill="black"/>
</svg>
