<svg width="24" height="24" viewBox="0 0 24 24" fill="none" xmlns="http://www.w3.org/2000/svg">
<path fill-rule="evenodd" clip-rule="evenodd" d="M7 2C4.23858 2 2 4.23858 2 7L2 17C2 19.7614 4.23858 22 7 22L17 22C19.7614 22 22 19.7614 22 17L22 7C22 4.23858 19.7614 2 17 2L7 2ZM7 11C6.44771 11 6 11.4477 6 12C6 12.5523 6.44771 13 7 13L13.5858 13L11.2929 15.2929C10.9024 15.6834 10.9024 16.3166 11.2929 16.7071C11.6834 17.0976 12.3166 17.0976 12.7071 16.7071L16.7071 12.7071C16.8946 12.5196 17 12.2652 17 12C17 11.7348 16.8946 11.4804 16.7071 11.2929L12.7071 7.29289C12.3166 6.90237 11.6834 6.90237 11.2929 7.29289C10.9024 7.68342 10.9024 8.31658 11.2929 8.70711L13.5858 11L7 11Z" fill="black"/>
</svg>
