<svg width="24" height="24" viewBox="0 0 24 24" fill="none" xmlns="http://www.w3.org/2000/svg">
<path fill-rule="evenodd" clip-rule="evenodd" d="M22 17C22 19.7614 19.7614 22 17 22H7C4.23858 22 2 19.7614 2 17V7C2 4.23858 4.23858 2 7 2H17C19.7614 2 22 4.23858 22 7V17ZM15.3104 15.9508C15.4555 15.9036 15.5919 15.8224 15.7072 15.7071C15.9059 15.5084 16.0035 15.2468 16 14.9863L16.0001 8.99998C16.0001 8.4477 15.5524 7.99998 15.0001 7.99997C14.4478 7.99996 14.0001 8.44768 14.0001 8.99996L14 12.5857L9.7072 8.29289C9.31667 7.90237 8.68351 7.90237 8.29298 8.29289C7.90246 8.68342 7.90246 9.31658 8.29298 9.70711L12.5859 14H9C8.44771 14 8 14.4477 8 15C8 15.5523 8.44771 16 9 16H15C15.1084 16 15.2127 15.9827 15.3104 15.9508Z" fill="black"/>
</svg>
