<svg width="24" height="24" viewBox="0 0 24 24" fill="none" xmlns="http://www.w3.org/2000/svg">
<path fill-rule="evenodd" clip-rule="evenodd" d="M11.9961 2C12.5484 2 12.9961 2.44772 12.9961 3V21C12.9961 21.5523 12.5484 22 11.9961 22C11.4438 22 10.9961 21.5523 10.9961 21V3C10.9961 2.44772 11.4438 2 11.9961 2Z" fill="black"/>
<path fill-rule="evenodd" clip-rule="evenodd" d="M12 1C12.3513 1 12.6768 1.1843 12.8575 1.4855L21.8575 16.4855C22.0049 16.7311 22.0398 17.0282 21.9535 17.3013C21.8672 17.5745 21.6679 17.7975 21.4061 17.9138L12.4061 21.9138C12.1476 22.0287 11.8524 22.0287 11.5939 21.9138L2.59386 17.9138C2.3321 17.7975 2.13279 17.5745 2.04648 17.3013C1.96017 17.0282 1.99513 16.7311 2.14251 16.4855L11.1425 1.4855C11.3232 1.1843 11.6487 1 12 1ZM4.43904 16.5453L12 19.9057L19.561 16.5453L12 3.94365L4.43904 16.5453Z" fill="black"/>
</svg>
