<svg width="24" height="24" viewBox="0 0 24 24" fill="none" xmlns="http://www.w3.org/2000/svg">
<path fill-rule="evenodd" clip-rule="evenodd" d="M12.7614 1.35163C12.5779 1.13645 12.3049 1 12 1C11.7495 1 11.5206 1.09209 11.3451 1.24425C11.3072 1.27714 11.2715 1.313 11.2387 1.35163C11.1991 1.39802 11.1637 1.44807 11.1331 1.50121L2.14251 16.4855C1.99513 16.7311 1.96017 17.0282 2.04648 17.3013C2.13279 17.5745 2.3321 17.7975 2.59386 17.9138L11.574 21.905C11.6959 21.9625 11.8312 21.996 11.974 21.9997C11.9827 21.9999 11.9914 22 12 22C12.0136 22 12.0272 21.9997 12.0408 21.9992C12.1782 21.9937 12.3084 21.9605 12.426 21.905L21.4061 17.9138C21.6679 17.7975 21.8672 17.5745 21.9535 17.3013C22.0398 17.0282 22.0049 16.7311 21.8575 16.4855L12.8669 1.50121C12.8363 1.44807 12.8009 1.39802 12.7614 1.35163ZM4.43904 16.5453L11 5.61032V19.4612L4.43904 16.5453Z" fill="black"/>
</svg>
