<svg width="24" height="24" viewBox="0 0 24 24" fill="none" xmlns="http://www.w3.org/2000/svg">
<path fill-rule="evenodd" clip-rule="evenodd" d="M22 7C22 4.23858 19.7614 2 17 2H7C4.23858 2 2 4.23858 2 7V17C2 19.7614 4.23858 22 7 22H17C19.7614 22 22 19.7614 22 17V7ZM15.3104 8.04916C15.4555 8.09638 15.5919 8.17762 15.7072 8.29289C15.9059 8.49164 16.0035 8.75323 16 9.0137L16.0001 15C16.0001 15.5523 15.5524 16 15.0001 16C14.4478 16 14.0001 15.5523 14.0001 15L14 11.4143L9.7072 15.7071C9.31667 16.0976 8.68351 16.0976 8.29298 15.7071C7.90246 15.3166 7.90246 14.6834 8.29298 14.2929L12.5859 10H9C8.44771 10 8 9.55231 8 9.00003C8 8.44774 8.44771 8.00003 9 8.00003H15C15.1084 8.00003 15.2127 8.01727 15.3104 8.04916Z" fill="black"/>
</svg>
