<svg width="24" height="24" viewBox="0 0 24 24" fill="none" xmlns="http://www.w3.org/2000/svg">
<path fill-rule="evenodd" clip-rule="evenodd" d="M2 7C2 4.23858 4.23858 2 7 2H17C19.7614 2 22 4.23858 22 7V17C22 19.7614 19.7614 22 17 22H7C4.23858 22 2 19.7614 2 17V7ZM8.68955 8.04916C8.54448 8.09638 8.40807 8.17762 8.2928 8.29289C8.09405 8.49164 7.99645 8.75323 8 9.0137L7.99994 15C7.99993 15.5523 8.44764 16 8.99993 16C9.55221 16 9.99993 15.5523 9.99994 15L9.99997 11.4143L14.2928 15.7071C14.6833 16.0976 15.3165 16.0976 15.707 15.7071C16.0975 15.3166 16.0975 14.6834 15.707 14.2929L11.4141 10H15C15.5523 10 16 9.55231 16 9.00003C16 8.44774 15.5523 8.00003 15 8.00003H9C8.89163 8.00003 8.78728 8.01727 8.68955 8.04916Z" fill="black"/>
</svg>
