<svg width="24" height="24" viewBox="0 0 24 24" fill="none" xmlns="http://www.w3.org/2000/svg">
<path d="M18 2C19.6569 2 21 3.34315 21 5V8H19H12H5H3V5C3 3.34315 4.34315 2 6 2H18Z" fill="black"/>
<path d="M12.0001 12C13.1047 12 14.0001 11.1046 14.0001 10H19H21V14H19H12H5H3V10H5H10C10 11.1046 10.8955 12 12.0001 12Z" fill="black"/>
<path d="M18 22C19.6569 22 21 20.6569 21 19V16H19H14.0001C14.0001 17.1046 13.1047 18 12.0001 18C10.8955 18 10 17.1046 10 16H5H3V19C3 20.6569 4.34315 22 6 22H18Z" fill="black"/>
</svg>
