<svg width="24" height="24" viewBox="0 0 24 24" fill="none" xmlns="http://www.w3.org/2000/svg">
<path fill-rule="evenodd" clip-rule="evenodd" d="M6 22C4.34315 22 3 20.6569 3 19V5C3 3.34315 4.34315 2 6 2H18C19.6569 2 21 3.34315 21 5V19C21 20.6569 19.6569 22 18 22H6ZM5 5C5 4.44772 5.44772 4 6 4H18C18.5523 4 19 4.44772 19 5V8H5V5ZM12.0001 12C13.1047 12 14.0001 11.1046 14.0001 10H19V14H5V10H10C10 11.1046 10.8955 12 12.0001 12ZM12.0001 18C10.8955 18 10 17.1046 10 16H5V19C5 19.5523 5.44772 20 6 20H18C18.5523 20 19 19.5523 19 19V16H14.0001C14.0001 17.1046 13.1047 18 12.0001 18Z" fill="black"/>
</svg>
