<svg width="24" height="24" viewBox="0 0 24 24" fill="none" xmlns="http://www.w3.org/2000/svg">
<path fill-rule="evenodd" clip-rule="evenodd" d="M12 2C12.3806 2 12.7283 2.2161 12.8967 2.55743L15.6064 8.04773L21.1556 8.92201C21.5194 8.97933 21.8223 9.23198 21.9439 9.5796C22.0655 9.92723 21.9862 10.3136 21.7375 10.5852L17.8237 14.859L18.8635 20.9211C18.9278 21.2963 18.7736 21.6755 18.4656 21.8992C18.1577 22.1229 17.7494 22.1524 17.4125 21.9753L12 19.1298L6.58749 21.9753C6.25057 22.1524 5.84231 22.1229 5.53436 21.8992C5.22642 21.6755 5.07219 21.2963 5.13654 20.9211L6.17627 14.859L2.26251 10.5852C2.01378 10.3136 1.93448 9.92723 2.0561 9.5796C2.17772 9.23198 2.48057 8.97933 2.84437 8.92201L8.39364 8.04773L11.1033 2.55743C11.2717 2.2161 11.6194 2 12 2ZM12 5.25955L9.95781 9.39748C9.81402 9.68883 9.53765 9.89217 9.2167 9.94273L4.99514 10.6078L7.98221 13.8697C8.19099 14.0977 8.28258 14.4094 8.23033 14.7141L7.45028 19.2622L11.5347 17.1149C11.826 16.9617 12.174 16.9617 12.4653 17.1149L16.5497 19.2622L15.7697 14.7141C15.7174 14.4094 15.809 14.0977 16.0178 13.8697L19.0049 10.6078L14.7833 9.94273C14.4624 9.89217 14.186 9.68883 14.0422 9.39748L12 5.25955Z" fill="black"/>
</svg>
