<svg width="24" height="24" viewBox="0 0 24 24" fill="none" xmlns="http://www.w3.org/2000/svg">
<path fill-rule="evenodd" clip-rule="evenodd" d="M12.8967 2.55743C12.7283 2.2161 12.3806 2 12 2C11.6194 2 11.2717 2.2161 11.1033 2.55743L8.39701 8.04091L2.34564 8.92022C1.96895 8.97496 1.65601 9.2388 1.53838 9.60081C1.42076 9.96283 1.51886 10.3602 1.79143 10.6259L6.17024 14.8942L5.13654 20.9211C5.0722 21.2963 5.22642 21.6755 5.53437 21.8992C5.84231 22.1229 6.25057 22.1524 6.58749 21.9753L12 19.1298L17.4125 21.9753C17.7494 22.1524 18.1577 22.1229 18.4656 21.8992C18.7736 21.6755 18.9278 21.2963 18.8635 20.9211L17.8298 14.8942L22.2086 10.6259C22.4812 10.3602 22.5793 9.96283 22.4616 9.60081C22.344 9.2388 22.0311 8.97496 21.6544 8.92022L15.603 8.04091L12.8967 2.55743ZM12 5.25955L12 17C12.1598 17 12.3197 17.0383 12.4653 17.1149L16.5497 19.2622L15.7697 14.7141C15.714 14.3897 15.8216 14.0587 16.0573 13.829L19.3616 10.6081L14.7951 9.94452C14.4694 9.89719 14.1879 9.69262 14.0422 9.39748L12 5.25955Z" fill="black"/>
</svg>
