<svg width="24" height="24" viewBox="0 0 24 24" fill="none" xmlns="http://www.w3.org/2000/svg">
<path d="M9.24902 3C9.24902 2.30964 8.68938 1.75 7.99902 1.75C7.30867 1.75 6.74902 2.30974 6.74902 3.0001C6.74902 3.69046 7.30867 4.2501 7.99902 4.2501C8.68938 4.2501 9.24902 3.69036 9.24902 3Z" fill="black"/>
<path d="M10.7632 3.02686C10.7632 2.3365 11.3228 1.77686 12.0132 1.77686C17.6735 1.77686 22.2632 6.3665 22.2632 12.0269C22.2632 17.6872 17.6735 22.2769 12.0132 22.2769C6.35283 22.2769 1.76318 17.6872 1.76318 12.0269C1.76318 11.3365 2.32283 10.7769 3.01318 10.7769C3.70354 10.7769 4.26318 11.3365 4.26318 12.0269C4.26318 16.3065 7.73354 19.7769 12.0132 19.7769C16.2928 19.7769 19.7632 16.3065 19.7632 12.0269C19.7632 7.74721 16.2928 4.27686 12.0132 4.27686C11.3228 4.27686 10.7632 3.71721 10.7632 3.02686Z" fill="black"/>
<path d="M16.8839 9.11599C17.372 9.60415 17.372 10.3956 16.8839 10.8838L11.8839 15.8838C11.3957 16.3719 10.6043 16.3719 10.1161 15.8838L7.11612 12.8838C6.62796 12.3956 6.62796 11.6041 7.11612 11.116C7.60427 10.6278 8.39573 10.6278 8.88388 11.116L11 13.2321L15.1161 9.11599C15.6043 8.62784 16.3957 8.62784 16.8839 9.11599Z" fill="black"/>
<path d="M4.24902 8C4.24902 7.30964 3.68938 6.75 2.99902 6.75C2.30867 6.75 1.74902 7.30974 1.74902 8.0001C1.74902 8.69046 2.30867 9.2501 2.99902 9.2501C3.68938 9.2501 4.24902 8.69036 4.24902 8Z" fill="black"/>
<path d="M4.99902 3.75C5.68938 3.75 6.24902 4.30964 6.24902 5C6.24902 5.69036 5.68938 6.2501 4.99902 6.2501C4.30867 6.2501 3.74902 5.69046 3.74902 5.0001C3.74902 4.30974 4.30867 3.75 4.99902 3.75Z" fill="black"/>
</svg>
