<svg width="24" height="24" viewBox="0 0 24 24" fill="none" xmlns="http://www.w3.org/2000/svg">
<path d="M10 16C9.44771 16 9 16.4477 9 17C9 17.5523 9.44771 18 10 18H14C14.5523 18 15 17.5523 15 17C15 16.4477 14.5523 16 14 16H10Z" fill="black"/>
<path fill-rule="evenodd" clip-rule="evenodd" d="M2 3C2 1.89772 2.89772 1 4 1H20C21.1023 1 22 1.89772 22 3V4.80742L22.9285 7.12861C22.9757 7.24673 23 7.37278 23 7.5V9C23 9.88881 22.6138 10.6872 22 11.2364V19C22 20.6569 20.6569 22 19 22H5C3.34315 22 2 20.6569 2 19V11.2364C1.3862 10.6871 1 9.88881 1 9V7.5C1 7.37278 1.02428 7.24673 1.07152 7.12861L2 4.80742V3ZM18 11.2364C18.5307 11.7113 19.2315 12 20 12V19C20 19.5523 19.5523 20 19 20H5C4.44772 20 4 19.5523 4 19V12C4.76847 12 5.46931 11.7113 6 11.2364C6.5307 11.7113 7.23153 12 8 12C8.76847 12 9.46931 11.7113 10 11.2364C10.5307 11.7113 11.2315 12 12 12C12.7685 12 13.4693 11.7113 14 11.2364C14.5307 11.7113 15.2315 12 16 12C16.7685 12 17.4693 11.7113 18 11.2364ZM11 9C11 9.55272 11.4473 10 12 10C12.5527 10 13 9.55272 13 9V6H11V9ZM15 9C15 9.55272 15.4473 10 16 10C16.5527 10 17 9.55272 17 9V6H15V9ZM20 10C19.4473 10 19 9.55272 19 9V6H20C20.106 6 20.2082 5.98349 20.3041 5.95291L21 7.69258V9C21 9.55272 20.5527 10 20 10ZM3 7.69258L3.69587 5.95291C3.79177 5.98349 3.89396 6 4 6H5V9C5 9.55272 4.55272 10 4 10C3.44728 10 3 9.55272 3 9V7.69258ZM8 10C7.44728 10 7 9.55272 7 9V6H9V9C9 9.55272 8.55272 10 8 10ZM20 3V4H4V3H20Z" fill="black"/>
</svg>
