<svg width="24" height="24" viewBox="0 0 24 24" fill="none" xmlns="http://www.w3.org/2000/svg">
<path d="M15 14C14.4477 14 14 14.4477 14 15V17C14 17.5523 14.4477 18 15 18H17C17.5523 18 18 17.5523 18 17V15C18 14.4477 17.5523 14 17 14H15Z" fill="black"/>
<path fill-rule="evenodd" clip-rule="evenodd" d="M5 1C3.34315 1 2 2.34315 2 4V5.37689L1.02986 9.25746C1.01003 9.33679 1 9.41824 1 9.5C1 10.3888 1.3862 11.1871 2 11.7364V19C2 20.6569 3.34315 22 5 22H7C7.55228 22 8 21.5523 8 21V16H10V21C10 21.5523 10.4477 22 11 22H19C20.6569 22 22 20.6569 22 19V11.7364C22.6138 11.1871 23 10.3888 23 9.5C23 9.41824 22.99 9.33679 22.9701 9.25746L22 5.37689V4C22 2.34315 20.6569 1 19 1H5ZM5 3C4.44772 3 4 3.44772 4 4V4.5H20V4C20 3.44772 19.5523 3 19 3H5ZM20 12.5C19.2315 12.5 18.5307 12.2113 18 11.7364C17.4693 12.2113 16.7685 12.5 16 12.5C15.2315 12.5 14.5307 12.2113 14 11.7364C13.4693 12.2113 12.7685 12.5 12 12.5C11.2315 12.5 10.5307 12.2113 10 11.7364C9.46931 12.2113 8.76847 12.5 8 12.5C7.23153 12.5 6.5307 12.2113 6 11.7364C5.46931 12.2113 4.76847 12.5 4 12.5V19C4 19.5523 4.44772 20 5 20H6V15C6 14.4477 6.44772 14 7 14H11C11.5523 14 12 14.4477 12 15V20H19C19.5523 20 20 19.5523 20 19V12.5ZM8 10.5C7.44728 10.5 7 10.0527 7 9.5V6.5H9V9.5C9 10.0527 8.55272 10.5 8 10.5ZM16 10.5C15.4473 10.5 15 10.0527 15 9.5V6.5H17V9.5C17 10.0527 16.5527 10.5 16 10.5ZM12 10.5C11.4473 10.5 11 10.0527 11 9.5V6.5H13V9.5C13 10.0527 12.5527 10.5 12 10.5ZM4 10.5C4.55272 10.5 5 10.0527 5 9.5V6.5H3.78078L3.00517 9.60243C3.05639 10.1069 3.48187 10.5 4 10.5ZM20.9948 9.60243L20.2192 6.5H19V9.5C19 10.0527 19.4473 10.5 20 10.5C20.5181 10.5 20.9436 10.1069 20.9948 9.60243Z" fill="black"/>
</svg>
