<svg width="24" height="24" viewBox="0 0 24 24" fill="none" xmlns="http://www.w3.org/2000/svg">
<path d="M10 16C9.44772 16 9 16.4477 9 17C9 17.5523 9.44772 18 10 18H14C14.5523 18 15 17.5523 15 17C15 16.4477 14.5523 16 14 16H10Z" fill="black"/>
<path fill-rule="evenodd" clip-rule="evenodd" d="M3.00027 4C3.00027 2.89543 3.8957 2 5.00027 2H19.0003C20.1048 2 21.0003 2.89543 21.0003 4V5.83772L21.9472 8.67843C21.9505 8.68821 21.9537 8.69806 21.9567 8.70797C21.9902 8.81771 22.004 8.929 21.9998 9.03789C21.9903 10.0615 21.5953 10.9938 20.9531 11.6966C20.9836 11.7923 21 11.8942 21 12V18C21 20.2091 19.2091 22 17 22H7C4.79086 22 3 20.2091 3 18V12C3 11.8942 3.01643 11.7923 3.04687 11.6966C2.39679 10.9851 2 10.0384 2 9C2 8.878 2.02185 8.7611 2.06185 8.653L3.00027 5.83772V4ZM19.2795 7L19.9947 9.1457C19.9199 10.1807 19.0537 11 18 11C16.8973 11 16 10.1027 16 9V7H19.2795ZM4.00535 9.14704L4.72103 7H8V9C8 10.1027 7.10272 11 6 11C4.94673 11 4.08088 10.1814 4.00535 9.14704ZM6 13C5.65477 13 5.31968 12.9561 5 12.8737V18C5 19.1046 5.89543 20 7 20H17C18.1046 20 19 19.1046 19 18V12.8737C18.6803 12.9561 18.3452 13 18 13C16.806 13 15.7332 12.4754 15 11.6444C14.2668 12.4754 13.194 13 12 13C10.806 13 9.73325 12.4754 9 11.6444C8.26675 12.4754 7.19403 13 6 13ZM12 11C10.8973 11 10 10.1027 10 9V7H14V9C14 10.1027 13.1027 11 12 11ZM19.0003 4V5H5.00027V4H19.0003Z" fill="black"/>
</svg>
