<svg width="24" height="24" viewBox="0 0 24 24" fill="none" xmlns="http://www.w3.org/2000/svg">
<path fill-rule="evenodd" clip-rule="evenodd" d="M4 1C2.89772 1 2 1.89772 2 3V4.80742L1.07152 7.12861C1.02428 7.24673 1 7.37278 1 7.5V9C1 9.88881 1.3862 10.6871 2 11.2364V19C2 20.6569 3.34315 22 5 22H19C20.6569 22 22 20.6569 22 19V11.2364C22.6138 10.6872 23 9.88881 23 9V7.5C23 7.37278 22.9757 7.24673 22.9285 7.12861L22 4.80742V3C22 1.89772 21.1023 1 20 1H4ZM12 10C11.4473 10 11 9.55272 11 9V6H13V9C13 9.55272 12.5527 10 12 10ZM16 10C15.4473 10 15 9.55272 15 9V6H17V9C17 9.55272 16.5527 10 16 10ZM19 9C19 9.55272 19.4473 10 20 10C20.5527 10 21 9.55272 21 9V7.69258L20.3041 5.95291C20.2082 5.98349 20.106 6 20 6H19V9ZM3.69587 5.95291L3 7.69258V9C3 9.55272 3.44728 10 4 10C4.55272 10 5 9.55272 5 9V6H4C3.89396 6 3.79177 5.98349 3.69587 5.95291ZM7 9C7 9.55272 7.44728 10 8 10C8.55272 10 9 9.55272 9 9V6H7V9ZM9 17C9 16.4477 9.44771 16 10 16H14C14.5523 16 15 16.4477 15 17C15 17.5523 14.5523 18 14 18H10C9.44771 18 9 17.5523 9 17Z" fill="black"/>
</svg>
