<svg width="24" height="24" viewBox="0 0 24 24" fill="none" xmlns="http://www.w3.org/2000/svg">
<path d="M9 1C6.51472 1 4.5 3.01472 4.5 5.5C4.5 7.98528 6.51472 10 9 10C11.4853 10 13.5 7.98528 13.5 5.5C13.5 3.01472 11.4853 1 9 1Z" fill="black"/>
<path fill-rule="evenodd" clip-rule="evenodd" d="M12 11C12 9.34315 13.3431 8 15 8H20C21.6569 8 23 9.34315 23 11V16C23 17.6569 21.6569 19 20 19H17C17 20.6569 15.6569 22 14 22H4C2.34315 22 1 20.6569 1 19V18C1 14.134 4.13401 11 8 11H12ZM12.1707 17C12.0602 16.6872 12 16.3506 12 16V15H10C9.44771 15 9 15.4477 9 16C9 16.5523 9.44771 17 10 17H12.1707ZM15 17C14.4477 17 14 16.5523 14 16V11C14 10.4477 14.4477 10 15 10H16V10.5C16 11.3284 16.6716 12 17.5 12C18.3284 12 19 11.3284 19 10.5V10H20C20.5523 10 21 10.4477 21 11V16C21 16.5523 20.5523 17 20 17H15Z" fill="black"/>
</svg>
