<svg width="24" height="24" viewBox="0 0 24 24" fill="none" xmlns="http://www.w3.org/2000/svg">
<path d="M8 8.5C7.17157 8.5 6.5 9.17157 6.5 10C6.5 10.8284 7.17167 11.5 8.0001 11.5C8.82853 11.5 9.5001 10.8284 9.5001 10C9.5001 9.17157 8.82843 8.5 8 8.5Z" fill="black"/>
<path d="M14.5 10C14.5 9.17157 15.1716 8.5 16 8.5C16.8284 8.5 17.5001 9.17157 17.5001 10C17.5001 10.8284 16.8285 11.5 16.0001 11.5C15.1717 11.5 14.5 10.8284 14.5 10Z" fill="black"/>
<path fill-rule="evenodd" clip-rule="evenodd" d="M12 11C11.0093 11 10.2349 11.6023 9.75374 12.324C9.26796 13.0526 9 14.0017 9 15C9 15.9983 9.26796 16.9474 9.75374 17.676C10.2349 18.3977 11.0093 19 12 19C12.9907 19 13.7651 18.3977 14.2463 17.676C14.732 16.9474 15 15.9983 15 15C15 14.0017 14.732 13.0526 14.2463 12.324C13.7651 11.6023 12.9907 11 12 11ZM11 15C11 14.3415 11.1798 13.7905 11.4178 13.4334C11.6606 13.0693 11.8861 13 12 13C12.1139 13 12.3394 13.0693 12.5822 13.4334C12.8202 13.7905 13 14.3415 13 15C13 15.6585 12.8202 16.2095 12.5822 16.5666C12.3394 16.9307 12.1139 17 12 17C11.8861 17 11.6606 16.9307 11.4178 16.5666C11.1798 16.2095 11 15.6585 11 15Z" fill="black"/>
<path fill-rule="evenodd" clip-rule="evenodd" d="M12 2C6.47715 2 2 6.47715 2 12C2 17.5228 6.47715 22 12 22C17.5228 22 22 17.5228 22 12C22 6.47715 17.5228 2 12 2ZM4 12C4 7.58172 7.58172 4 12 4C16.4183 4 20 7.58172 20 12C20 16.4183 16.4183 20 12 20C7.58172 20 4 16.4183 4 12Z" fill="black"/>
</svg>
