<svg width="24" height="24" viewBox="0 0 24 24" fill="none" xmlns="http://www.w3.org/2000/svg">
<path d="M19.7071 8.70711C20.0976 8.31658 20.0976 7.68342 19.7071 7.29289C19.3166 6.90237 18.6834 6.90237 18.2929 7.29289L16 9.58579L16 3C16 2.44772 15.5523 2 15 2C14.4477 2 14 2.44772 14 3L14 9.58579L11.7071 7.29289C11.3166 6.90237 10.6834 6.90237 10.2929 7.29289C9.90237 7.68342 9.90237 8.31658 10.2929 8.70711L14.2929 12.7071C14.6834 13.0976 15.3166 13.0976 15.7071 12.7071L19.7071 8.70711Z" fill="black"/>
<path d="M10 21C10 21.5523 9.55229 22 9 22C8.44771 22 8 21.5523 8 21L8 15.4142L5.70711 17.7071C5.31658 18.0976 4.68342 18.0976 4.29289 17.7071C3.90237 17.3166 3.90237 16.6834 4.29289 16.2929L8.29289 12.2929C8.68342 11.9024 9.31658 11.9024 9.70711 12.2929L13.7071 16.2929C14.0976 16.6834 14.0976 17.3166 13.7071 17.7071C13.3166 18.0976 12.6834 18.0976 12.2929 17.7071L10 15.4142L10 21Z" fill="black"/>
</svg>
