<svg width="24" height="24" viewBox="0 0 24 24" fill="none" xmlns="http://www.w3.org/2000/svg">
<path fill-rule="evenodd" clip-rule="evenodd" d="M17 14C15.3431 14 14 15.3431 14 17C14 18.6569 15.3431 20 17 20C18.6569 20 20 18.6569 20 17C20 15.3431 18.6569 14 17 14ZM12 17C12 14.2386 14.2386 12 17 12C19.7614 12 22 14.2386 22 17C22 19.7614 19.7614 22 17 22C14.2386 22 12 19.7614 12 17Z" fill="black"/>
<path fill-rule="evenodd" clip-rule="evenodd" d="M7 4C5.34315 4 4 5.34315 4 7C4 8.65685 5.34315 10 7 10C8.65685 10 10 8.65685 10 7C10 5.34315 8.65685 4 7 4ZM2 7C2 4.23858 4.23858 2 7 2C9.76142 2 12 4.23858 12 7C12 9.76142 9.76142 12 7 12C4.23858 12 2 9.76142 2 7Z" fill="black"/>
<path fill-rule="evenodd" clip-rule="evenodd" d="M6 17C6 15.3431 7.34315 14 9 14H13V16H9C8.44772 16 8 16.4477 8 17C8 17.5523 8.44772 18 9 18H13V20H9C7.34315 20 6 18.6569 6 17Z" fill="black"/>
<path fill-rule="evenodd" clip-rule="evenodd" d="M18 7C18 5.34315 16.6569 4 15 4H11V6H15C15.5523 6 16 6.44772 16 7C16 7.55228 15.5523 8 15 8H11V10H15C16.6569 10 18 8.65685 18 7Z" fill="black"/>
</svg>
