<svg width="24" height="24" viewBox="0 0 24 24" fill="none" xmlns="http://www.w3.org/2000/svg">
<path fill-rule="evenodd" clip-rule="evenodd" d="M2 7C2 4.23858 4.23858 2 7 2C8.63582 2 10.0882 2.78555 11.0004 4H15C16.6569 4 18 5.34315 18 7C18 8.65685 16.6569 10 15 10H11.0004C10.0882 11.2144 8.63582 12 7 12C4.23858 12 2 9.76142 2 7ZM7 4C5.34315 4 4 5.34315 4 7C4 8.65685 5.34315 10 7 10C8.65685 10 10 8.65685 10 7C10 5.34315 8.65685 4 7 4Z" fill="black"/>
<path fill-rule="evenodd" clip-rule="evenodd" d="M12.9996 20C13.9118 21.2144 15.3642 22 17 22C19.7614 22 22 19.7614 22 17C22 14.2386 19.7614 12 17 12C15.3642 12 13.9118 12.7856 12.9996 14H9C7.34315 14 6 15.3431 6 17C6 18.6569 7.34315 20 9 20H12.9996ZM17 14C15.3431 14 14 15.3431 14 17C14 18.6569 15.3431 20 17 20C18.6569 20 20 18.6569 20 17C20 15.3431 18.6569 14 17 14Z" fill="black"/>
</svg>
