<svg width="24" height="24" viewBox="0 0 24 24" fill="none" xmlns="http://www.w3.org/2000/svg">
<path d="M10.8837 2.11612C10.6493 1.8817 10.3313 1.75 9.99981 1.75H5.99981C5.30946 1.75 4.74981 2.30964 4.74981 3C4.74981 3.69036 5.30946 4.25 5.99981 4.25H6.35957C4.16457 5.9409 2.75 8.59528 2.75 11.5816C2.75 15.4655 5.14336 18.7874 8.53098 20.1587C9.1709 20.4177 9.89964 20.109 10.1587 19.4691C10.4177 18.8291 10.1089 18.1004 9.46902 17.8414C6.99298 16.8391 5.25 14.4124 5.25 11.5816C5.25 9.03293 6.66324 6.81231 8.74981 5.66373V7C8.74981 7.69036 9.30946 8.25 9.99981 8.25C10.6902 8.25 11.2498 7.69036 11.2498 7V3.86927C11.2505 3.84615 11.2505 3.82294 11.2498 3.79966V3C11.2498 2.66848 11.1181 2.35054 10.8837 2.11612Z" fill="black"/>
<path d="M13.1159 21.8839C13.3503 22.1183 13.6683 22.25 13.9998 22.25H17.9998C18.6902 22.25 19.2498 21.6904 19.2498 21C19.2498 20.3096 18.6902 19.75 17.9998 19.75H17.0507C19.5786 18.0993 21.2496 15.2457 21.2496 12C21.2496 8.11605 18.8563 4.79411 15.4686 3.42284C14.8287 3.1638 14.1 3.47257 13.841 4.11249C13.5819 4.75241 13.8907 5.48115 14.5306 5.74018C17.0066 6.74245 18.7496 9.16917 18.7496 12C18.7496 14.5486 17.3364 16.7692 15.2498 17.9178V17C15.2498 16.3096 14.6902 15.75 13.9998 15.75C13.3095 15.75 12.7498 16.3096 12.7498 17V19.7123C12.7492 19.7354 12.7492 19.7586 12.7498 19.7819V21C12.7498 21.3315 12.8815 21.6495 13.1159 21.8839Z" fill="black"/>
</svg>
