<svg width="24" height="24" viewBox="0 0 24 24" fill="none" xmlns="http://www.w3.org/2000/svg">
<path fill-rule="evenodd" clip-rule="evenodd" d="M9.70711 2.29289C9.31658 1.90237 8.68342 1.90237 8.29289 2.29289C7.90237 2.68342 7.90237 3.31658 8.29289 3.70711L9.53292 4.94713C8.01082 5.52047 6.74117 6.60893 5.93648 8H4C3.44772 8 3 8.44772 3 9C3 9.55228 3.44772 10 4 10H5.16109C5.05559 10.4832 5 10.9851 5 11.5V12H3C2.44772 12 2 12.4477 2 13C2 13.5523 2.44772 14 3 14H5V15C5 15.3395 5.02417 15.6734 5.07089 16H4C3.44772 16 3 16.4477 3 17C3 17.5523 3.44772 18 4 18H5.67363C6.79709 20.3649 9.2076 22 12 22C14.7924 22 17.2029 20.3649 18.3264 18H20C20.5523 18 21 17.5523 21 17C21 16.4477 20.5523 16 20 16H18.9291C18.9758 15.6734 19 15.3395 19 15V14H21C21.5523 14 22 13.5523 22 13C22 12.4477 21.5523 12 21 12H19V11.5C19 10.9851 18.9444 10.4832 18.8389 10H20C20.5523 10 21 9.55228 21 9C21 8.44772 20.5523 8 20 8H18.0635C17.2588 6.60893 15.9892 5.52047 14.4671 4.94713L15.7071 3.70711C16.0976 3.31658 16.0976 2.68342 15.7071 2.29289C15.3166 1.90237 14.6834 1.90237 14.2929 2.29289L12.0853 4.50051C12.0569 4.50017 12.0285 4.5 12 4.5C11.9964 4.5 11.9929 4.5 11.9893 4.50001C11.9644 4.50005 11.9396 4.50021 11.9147 4.50051L9.70711 2.29289ZM10.5 10C9.94772 10 9.5 10.4477 9.5 11C9.5 11.5523 9.94772 12 10.5 12H13.5C14.0523 12 14.5 11.5523 14.5 11C14.5 10.4477 14.0523 10 13.5 10H10.5ZM9.5 15C9.5 14.4477 9.94772 14 10.5 14H13.5C14.0523 14 14.5 14.4477 14.5 15C14.5 15.5523 14.0523 16 13.5 16H10.5C9.94772 16 9.5 15.5523 9.5 15Z" fill="black"/>
</svg>
