<svg width="24" height="24" viewBox="0 0 24 24" fill="none" xmlns="http://www.w3.org/2000/svg">
<path d="M9.5 11C9.5 10.4477 9.94772 10 10.5 10H13.5C14.0523 10 14.5 10.4477 14.5 11C14.5 11.5523 14.0523 12 13.5 12H10.5C9.94772 12 9.5 11.5523 9.5 11Z" fill="black"/>
<path d="M10.5 14C9.94772 14 9.5 14.4477 9.5 15C9.5 15.5523 9.94772 16 10.5 16H13.5C14.0523 16 14.5 15.5523 14.5 15C14.5 14.4477 14.0523 14 13.5 14H10.5Z" fill="black"/>
<path fill-rule="evenodd" clip-rule="evenodd" d="M8.29289 2.29289C8.68342 1.90237 9.31658 1.90237 9.70711 2.29289L11.9147 4.50051C11.9431 4.50017 11.9715 4.5 12 4.5C12.0285 4.5 12.0569 4.50017 12.0853 4.50051L14.2929 2.29289C14.6834 1.90237 15.3166 1.90237 15.7071 2.29289C16.0976 2.68342 16.0976 3.31658 15.7071 3.70711L14.4671 4.94713C15.9892 5.52047 17.2588 6.60893 18.0635 8H20C20.5523 8 21 8.44772 21 9C21 9.55228 20.5523 10 20 10H18.8389C18.9444 10.4832 19 10.9851 19 11.5V12H21C21.5523 12 22 12.4477 22 13C22 13.5523 21.5523 14 21 14H19V15C19 15.3395 18.9758 15.6734 18.9291 16H20C20.5523 16 21 16.4477 21 17C21 17.5523 20.5523 18 20 18H18.3264C17.2029 20.3649 14.7924 22 12 22C9.2076 22 6.79709 20.3649 5.67363 18H4C3.44772 18 3 17.5523 3 17C3 16.4477 3.44772 16 4 16H5.07089C5.02417 15.6734 5 15.3395 5 15V14H3C2.44772 14 2 13.5523 2 13C2 12.4477 2.44772 12 3 12H5V11.5C5 10.9851 5.05559 10.4832 5.16109 10H4C3.44772 10 3 9.55228 3 9C3 8.44772 3.44772 8 4 8H5.93648C6.74117 6.60893 8.01082 5.52047 9.53292 4.94713L8.29289 3.70711C7.90237 3.31658 7.90237 2.68342 8.29289 2.29289ZM12 20C9.23858 20 7 17.7614 7 15V11.5C7 8.73858 9.23858 6.5 12 6.5C14.7614 6.5 17 8.73858 17 11.5V15C17 17.7614 14.7614 20 12 20Z" fill="black"/>
</svg>
