<svg width="24" height="24" viewBox="0 0 24 24" fill="none" xmlns="http://www.w3.org/2000/svg">
<path fill-rule="evenodd" clip-rule="evenodd" d="M10.5 3C14.6421 3 18 6.35786 18 10.5C18 11.4185 17.8317 12.299 17.5283 13.1143L19.2061 14.793C20.425 16.0119 20.425 17.9881 19.2061 19.207C17.9871 20.4259 16.0109 20.426 14.792 19.207L13.1143 17.5293C12.448 17.7772 11.7379 17.9328 10.999 17.9814C10.9991 17.9876 11 17.9938 11 18C11 19.6569 9.65685 21 8 21C6.34315 21 5 19.6569 5 18C5 17.318 5.22871 16.6908 5.61133 16.1875C4.0137 14.8129 3 12.7753 3 10.5C3 6.35786 6.35786 3 10.5 3ZM8 17C7.86848 17 7.74516 17.0249 7.63281 17.0693C7.26054 17.2165 7 17.579 7 18C7 18.5523 7.44772 19 8 19C8.55228 19 9 18.5523 9 18C9 17.8062 8.94599 17.6281 8.85254 17.4766C8.76594 17.3361 8.64539 17.2179 8.50293 17.1348C8.35607 17.049 8.18521 17 8 17ZM10.6973 15.9941C11.4892 15.9663 12.2369 15.7741 12.9072 15.4473L13.0537 15.3896C13.4028 15.2832 13.7877 15.3748 14.0518 15.6387L16.2061 17.793C16.6439 18.2309 17.3541 18.2308 17.792 17.793C18.2299 17.3551 18.2299 16.6449 17.792 16.207L15.6387 14.0537C15.337 13.752 15.2594 13.2917 15.4463 12.9082C15.7734 12.2376 15.9663 11.4896 15.9941 10.6973L10.6973 15.9941Z" fill="black"/>
</svg>
