<svg width="24" height="24" viewBox="0 0 24 24" fill="none" xmlns="http://www.w3.org/2000/svg">
<path fill-rule="evenodd" clip-rule="evenodd" d="M20 3C21.6569 3 23 4.34315 23 6L23 18C23 19.6569 21.6569 21 20 21L4 21C2.34315 21 0.999999 19.6569 0.999999 18L1 6C1 4.34314 2.34315 3 4 3L20 3ZM21 6C21 5.44772 20.5523 5 20 5L4 5C3.44772 5 3 5.44771 3 6L3 18C3 18.5523 3.44772 19 4 19L20 19C20.5523 19 21 18.5523 21 18L21 6Z" fill="black"/>
<path fill-rule="evenodd" clip-rule="evenodd" d="M5 11C5.55228 11 6 11.4477 6 12C6 12.5523 5.55228 13.0001 5 13.0001C4.44772 13.0001 4 12.5524 4 12.0001C4 11.4478 4.44772 11 5 11Z" fill="black"/>
</svg>
