<svg width="24" height="24" viewBox="0 0 24 24" fill="none" xmlns="http://www.w3.org/2000/svg">
<path fill-rule="evenodd" clip-rule="evenodd" d="M11.4411 2C10.226 2 9.07672 2.55236 8.31763 3.50122L3.07197 10.0583C1.70264 11.77 1.96598 14.2649 3.66249 15.6529L10.0185 20.8533C11.7415 22.263 14.2841 21.9947 15.6749 20.2562L20.8824 13.7468C21.6392 12.8008 21.9265 11.5629 21.6637 10.3803L20.4975 5.13228C20.0908 3.30213 18.4675 2 16.5927 2H11.4411ZM15 6C13.8954 6 13 6.89543 13 8C13 9.10457 13.8954 10 15 10C16.1046 10 17 9.10457 17 8C17 6.89543 16.1046 6 15 6ZM12.5 18C12.5 18 12.8749 17.8418 13.3644 17.553C13.6269 17.4001 13.9253 17.2104 14.2248 16.9876C14.3711 16.8787 14.5181 16.7616 14.6608 16.6374C14.8397 16.4817 15.0126 16.3142 15.1713 16.1359C15.5422 15.7192 15.8359 15.2431 15.9493 14.7188C15.9823 14.5665 16 14.4102 16 14.25C16 13.2599 15.5211 12.5941 14.9025 12.2575C14.6571 12.1239 14.3898 12.0422 14.1216 12.0126C14.0653 12.0064 14.009 12.0025 13.9529 12.0009L13.9365 12.0005L13.9224 12.0002L13.9174 12.0001L13.8824 12C13.8621 12.0001 13.8419 12.0009 13.8217 12.0021C13.7907 12.0005 13.7597 11.9998 13.7288 12L13.7247 12.0001C13.6201 12.0012 13.5165 12.0225 13.4166 12.0572C13.3516 12.0798 13.288 12.1081 13.2267 12.1402C13.1863 12.1614 13.1469 12.1843 13.1086 12.2083C13.0658 12.2351 13.0245 12.2633 12.985 12.2922L12.9687 12.3042C12.9081 12.3494 12.8517 12.3959 12.8005 12.4411C12.6161 12.6042 12.5 12.75 12.5 12.75C12.5 12.75 12.3791 12.6058 12.1927 12.4439C12.1406 12.3988 12.0835 12.3522 12.0225 12.307C11.9959 12.2873 11.9687 12.2679 11.9407 12.249C11.9225 12.2366 11.904 12.2245 11.8853 12.2126C11.8224 12.1728 11.7568 12.136 11.6895 12.1046C11.6528 12.0874 11.6155 12.0719 11.578 12.0584C11.4769 12.022 11.3733 12 11.2706 12C11.2412 12 11.2118 12.0008 11.1823 12.0023C11.1605 12.0008 11.1387 12 11.1169 12L11.0894 12.0002L11.0769 12.0004L11.0593 12.0008L11.0462 12.0012C10.989 12.003 10.9318 12.0072 10.8747 12.0136C10.6061 12.0439 10.3405 12.1244 10.0974 12.2554C9.47501 12.5905 9 13.2554 9 14.25C9 14.4102 9.01773 14.5665 9.05066 14.7188C9.16407 15.2431 9.45776 15.7192 9.82871 16.1359C9.98741 16.3142 10.1603 16.4817 10.3392 16.6374C10.4819 16.7616 10.6284 16.8784 10.7747 16.9872C11.0742 17.21 11.3732 17.4001 11.6356 17.553C12.1251 17.8418 12.5 18 12.5 18Z" fill="black"/>
</svg>
