<svg width="24" height="24" viewBox="0 0 24 24" fill="none" xmlns="http://www.w3.org/2000/svg">
<path fill-rule="evenodd" clip-rule="evenodd" d="M11.4421 2C10.2269 2 9.0777 2.55236 8.31861 3.50122L3.07294 10.0583C1.70362 11.77 1.96696 14.2649 3.66347 15.6529L10.0194 20.8533C11.7425 22.263 14.2851 21.9947 15.6759 20.2562L20.8834 13.7468C21.6402 12.8008 21.9275 11.5629 21.6647 10.3803L20.4984 5.13228C20.0917 3.30213 18.4685 2 16.5937 2H11.4421ZM15 6C13.8954 6 13 6.89543 13 8C13 9.10457 13.8954 10 15 10C16.1046 10 17 9.10457 17 8C17 6.89543 16.1046 6 15 6Z" fill="black"/>
</svg>
