<svg width="24" height="24" viewBox="0 0 24 24" fill="none" xmlns="http://www.w3.org/2000/svg">
<path d="M13 8C13 6.89543 13.8954 6 15 6C16.1046 6 17 6.89543 17 8C17 9.10457 16.1046 10 15 10C13.8954 10 13 9.10457 13 8Z" fill="black"/>
<path fill-rule="evenodd" clip-rule="evenodd" d="M8.31861 3.50122C9.0777 2.55236 10.2269 2 11.4421 2H16.5937C18.4685 2 20.0917 3.30213 20.4984 5.13228L21.6647 10.3803C21.9275 11.5629 21.6402 12.8008 20.8834 13.7468L15.6759 20.2562C14.2851 21.9947 11.7425 22.263 10.0194 20.8533L3.66347 15.6529C1.96696 14.2649 1.70362 11.77 3.07294 10.0583L8.31861 3.50122ZM11.4421 4C10.8345 4 10.2599 4.27618 9.88034 4.75061L4.63468 11.3077C3.95002 12.1635 4.08169 13.411 4.92994 14.105L11.2859 19.3053C12.1475 20.0102 13.4187 19.876 14.1141 19.0068L19.3217 12.4974C19.7 12.0244 19.8437 11.4054 19.7123 10.8142L18.5461 5.56614C18.3427 4.65106 17.5311 4 16.5937 4H11.4421Z" fill="black"/>
</svg>
