<svg width="24" height="24" viewBox="0 0 24 24" fill="none" xmlns="http://www.w3.org/2000/svg">
<g clip-path="url(#clip0_30_21687)">
<path fill-rule="evenodd" clip-rule="evenodd" d="M14.5195 5.85385C14.6677 5.51598 14.75 5.1426 14.75 4.75C14.75 3.23122 13.5188 2 12 2C10.4812 2 9.25 3.23122 9.25 4.75C9.25 5.1426 9.33227 5.51598 9.48051 5.85385C7.09818 6.54008 5.12127 8.17503 4 10.322V9C4 7.34315 2.65685 6 1 6C0.447715 6 0 6.44772 0 7C0 7.55228 0.447715 8 1 8C1.55228 8 2 8.44772 2 9V11C2 11.7986 2.46802 12.4878 3.14472 12.8084C3.04966 13.3278 3 13.863 3 14.41C3 16.5292 3.7455 18.4741 4.99012 20H3C2.44772 20 2 20.4477 2 21C2 21.5523 2.44772 22 3 22H7.56386C7.57401 22.0002 7.58415 22.0002 7.59428 22H16.4057C16.4159 22.0002 16.426 22.0002 16.4361 22H21C21.5523 22 22 21.5523 22 21C22 20.4477 21.5523 20 21 20H19.0099C20.1365 18.6188 20.8542 16.8942 20.9801 15.0078C21.1184 14.9982 21.2569 14.9595 21.3867 14.8891C22.9418 14.046 24 12.3958 24 10.5C24 7.73772 21.7623 5.5 19 5.5C17.9006 5.5 16.8818 5.85876 16.0589 6.45521C15.5697 6.21015 15.0548 6.00805 14.5195 5.85385ZM11.25 4.75C11.25 4.33579 11.5858 4 12 4C12.4142 4 12.75 4.33579 12.75 4.75C12.75 5.16421 12.4142 5.5 12 5.5C11.5858 5.5 11.25 5.16421 11.25 4.75ZM22 10.5C22 11.4505 21.5564 12.2996 20.8624 12.848C20.4983 10.8059 19.4326 9.00675 17.9224 7.69988C18.2574 7.57105 18.621 7.5 19 7.5C20.6578 7.5 22 8.84228 22 10.5ZM12 7.5C9.38359 7.5 7.11159 8.91215 5.91004 11H18.09C16.8884 8.91215 14.6164 7.5 12 7.5Z" fill="black"/>
</g>
<defs>
<clipPath id="clip0_30_21687">
<rect width="24" height="24" fill="white"/>
</clipPath>
</defs>
</svg>
