<svg width="24" height="24" viewBox="0 0 24 24" fill="none" xmlns="http://www.w3.org/2000/svg">
<path d="M20 12C20 7.58172 16.4183 4 12 4C7.58172 4 4 7.58172 4 12C4 16.4183 7.58172 20 12 20C16.4183 20 20 16.4183 20 12ZM22 12C22 17.5228 17.5228 22 12 22C6.47715 22 2 17.5228 2 12C2 6.47715 6.47715 2 12 2C17.5228 2 22 6.47715 22 12Z" fill="black"/>
<path d="M6.52587 11.8945C9.44107 10.6244 11.385 9.78702 12.3576 9.38246C15.1347 8.22737 15.7118 8.02672 16.0879 8.02009C16.1706 8.01863 16.3556 8.03913 16.4754 8.13635C16.5766 8.21844 16.6044 8.32934 16.6177 8.40717C16.6311 8.485 16.6477 8.6623 16.6345 8.80083C16.484 10.3821 15.8328 14.2193 15.5015 15.9903C15.3613 16.7397 15.0853 16.991 14.8181 17.0156C14.3582 17.0579 13.986 16.7925 13.5717 16.4971C13.4628 16.4195 13.351 16.3398 13.234 16.2631C12.7745 15.9619 12.4194 15.7201 12.0634 15.4776C11.7374 15.2556 11.4106 15.0331 11.0023 14.764C10.1525 14.204 10.5083 13.8611 10.9826 13.4039C11.0594 13.3298 11.1393 13.2528 11.2177 13.1714C11.2527 13.135 11.4239 12.9759 11.6652 12.7515C12.4394 12.0318 13.9354 10.641 13.9731 10.48C13.9793 10.4536 13.9851 10.3552 13.9266 10.3032C13.8681 10.2513 13.7818 10.269 13.7195 10.2832C13.6313 10.3032 12.2253 11.2325 9.50149 13.0711C9.10239 13.3452 8.74091 13.4787 8.41703 13.4717C8.05998 13.464 7.37315 13.2698 6.86257 13.1039C6.78758 13.0795 6.71444 13.0565 6.64385 13.0343C6.12488 12.8711 5.74378 12.7513 5.78193 12.4469C5.8045 12.2669 6.05248 12.0827 6.52587 11.8945Z" fill="black"/>
</svg>
