<svg width="24" height="24" viewBox="0 0 24 24" fill="none" xmlns="http://www.w3.org/2000/svg">
<path fill-rule="evenodd" clip-rule="evenodd" d="M6 2C3.79086 2 2 3.79086 2 6V12C2 14.2091 3.79086 16 6 16H8.07089C8.55612 19.3923 11.4735 22 15 22C18.866 22 22 18.866 22 15C22 11.4735 19.3923 8.55612 16 8.07089V6C16 3.79086 14.2091 2 12 2H6ZM8.07089 14C8.5094 10.9343 10.9343 8.5094 14 8.07089V6C14 4.89543 13.1046 4 12 4H6C4.89543 4 4 4.89543 4 6V12C4 13.1046 4.89543 14 6 14H8.07089ZM10.1 14C10.4977 12.0409 12.0409 10.4977 14 10.1V12C14 13.1046 13.1046 14 12 14H10.1ZM15 20C12.581 20 10.5633 18.2822 10.1 16H12C14.2091 16 16 14.2091 16 12V10.1C18.2822 10.5633 20 12.581 20 15C20 17.7614 17.7614 20 15 20Z" fill="black"/>
</svg>
