<svg width="24" height="24" viewBox="0 0 24 24" fill="none" xmlns="http://www.w3.org/2000/svg">
<path fill-rule="evenodd" clip-rule="evenodd" d="M6 2C3.79086 2 2 3.79086 2 6V12C2 14.2091 3.79086 16 6 16H8.07089C8.55612 19.3923 11.4735 22 15 22C18.866 22 22 18.866 22 15C22 11.4735 19.3923 8.55612 16 8.07089V6C16 3.79086 14.2091 2 12 2H6ZM16 8.07089C15.6734 8.02417 15.3395 8 15 8C14.6605 8 14.3266 8.02417 14 8.07089C10.9343 8.5094 8.5094 10.9343 8.07089 14C8.02417 14.3266 8 14.6605 8 15C8 15.3395 8.02417 15.6734 8.07089 16H10.1H12C14.2091 16 16 14.2091 16 12V10.1V8.07089Z" fill="black"/>
</svg>
