<svg width="24" height="24" viewBox="0 0 24 24" fill="none" xmlns="http://www.w3.org/2000/svg">
<path fill-rule="evenodd" clip-rule="evenodd" d="M2 12C2 6.47715 6.47715 2 12 2C17.5228 2 22 6.47715 22 12C22 17.5228 17.5228 22 12 22C6.47715 22 2 17.5228 2 12ZM7.05629 5.70992C6.95813 5.58275 6.8561 5.45893 6.75016 5.33875C6.38496 4.92444 5.75305 4.88464 5.33875 5.24984C4.92444 5.61504 4.88464 6.24695 5.24984 6.66125C5.38562 6.8153 5.51408 6.97956 5.635 7.15299C6.51737 8.41845 6.99866 10.1714 7 11.9951C7.00134 13.8198 6.52212 15.5762 5.6351 16.8471C5.5142 17.0204 5.38571 17.1846 5.24984 17.3387C4.88464 17.7531 4.92444 18.385 5.33875 18.7502C5.75305 19.1154 6.38496 19.0756 6.75016 18.6613C6.85613 18.541 6.95817 18.4172 7.05633 18.2901C8.38516 16.5693 9.00165 14.2415 9 11.9936C8.99834 9.74669 8.37896 7.42361 7.05629 5.70992ZM17.2498 5.33875C17.1439 5.45893 17.0419 5.58275 16.9437 5.70992C15.621 7.42361 15.0017 9.74669 15 11.9936C14.9983 14.2415 15.6148 16.5693 16.9437 18.2901C17.0418 18.4172 17.1439 18.541 17.2498 18.6613C17.615 19.0756 18.247 19.1154 18.6613 18.7502C19.0756 18.385 19.1154 17.7531 18.7502 17.3387C18.6143 17.1846 18.4858 17.0204 18.3649 16.8471C17.4779 15.5762 16.9987 13.8198 17 11.9951C17.0013 10.1714 17.4826 8.41845 18.365 7.15299C18.4859 6.97956 18.6144 6.81529 18.7502 6.66125C19.1154 6.24695 19.0756 5.61504 18.6613 5.24984C18.247 4.88464 17.615 4.92444 17.2498 5.33875Z" fill="black"/>
</svg>
