<svg width="24" height="24" viewBox="0 0 24 24" fill="none" xmlns="http://www.w3.org/2000/svg">
<path fill-rule="evenodd" clip-rule="evenodd" d="M2 7C2 4.23858 4.23858 2 7 2H17C19.7614 2 22 4.23858 22 7V17C22 19.7614 19.7614 22 17 22H7C4.23858 22 2 19.7614 2 17V7ZM7.67829 10.2652C7.27246 9.8906 6.63981 9.9159 6.2652 10.3217C5.8906 10.7275 5.9159 11.3602 6.32172 11.7348L8.58474 13.8237L6.26721 16.3196C5.89141 16.7243 5.91484 17.357 6.31955 17.7328C6.72426 18.1086 7.357 18.0852 7.7328 17.6805L10.7328 14.4497C10.9136 14.255 11.0095 13.9963 10.9993 13.7307C10.989 13.4652 10.8735 13.2147 10.6783 13.0344L7.67829 10.2652ZM13 15C12.4477 15 12 15.4477 12 16C12 16.5523 12.4477 17 13 17H17C17.5523 17 18 16.5523 18 16C18 15.4477 17.5523 15 17 15H13Z" fill="black"/>
</svg>
