<svg width="24" height="24" viewBox="0 0 24 24" fill="none" xmlns="http://www.w3.org/2000/svg">
<path d="M6.2652 10.3217C6.63981 9.9159 7.27246 9.8906 7.67829 10.2652L10.6783 13.0344C10.8735 13.2147 10.989 13.4652 10.9993 13.7307C11.0095 13.9963 10.9136 14.255 10.7328 14.4497L7.7328 17.6805C7.357 18.0852 6.72426 18.1086 6.31955 17.7328C5.91484 17.357 5.89141 16.7243 6.26721 16.3196L8.58474 13.8237L6.32172 11.7348C5.9159 11.3602 5.8906 10.7275 6.2652 10.3217Z" fill="black"/>
<path d="M12 16C12 15.4477 12.4477 15 13 15H17C17.5523 15 18 15.4477 18 16C18 16.5523 17.5523 17 17 17H13C12.4477 17 12 16.5523 12 16Z" fill="black"/>
<path fill-rule="evenodd" clip-rule="evenodd" d="M7 2C4.23858 2 2 4.23858 2 7V17C2 19.7614 4.23858 22 7 22H17C19.7614 22 22 19.7614 22 17V7C22 4.23858 19.7614 2 17 2H7ZM4 7C4 5.34315 5.34315 4 7 4H17C18.6569 4 20 5.34315 20 7V17C20 18.6569 18.6569 20 17 20H7C5.34315 20 4 18.6569 4 17V7Z" fill="black"/>
</svg>
