<svg width="24" height="24" viewBox="0 0 24 24" fill="none" xmlns="http://www.w3.org/2000/svg">
<path d="M8.5 7C7.94772 7 7.5 7.44772 7.5 8C7.5 8.55228 7.94772 9 8.5 9H15.5C16.0523 9 16.5 8.55228 16.5 8C16.5 7.44772 16.0523 7 15.5 7H8.5Z" fill="black"/>
<path d="M7.5 12C7.5 11.4477 7.94772 11 8.5 11H15.5C16.0523 11 16.5 11.4477 16.5 12C16.5 12.5523 16.0523 13 15.5 13H8.5C7.94772 13 7.5 12.5523 7.5 12Z" fill="black"/>
<path d="M8.5 15C7.94772 15 7.5 15.4477 7.5 16C7.5 16.5523 7.94772 17 8.5 17H13C13.5523 17 14 16.5523 14 16C14 15.4477 13.5523 15 13 15H8.5Z" fill="black"/>
<path fill-rule="evenodd" clip-rule="evenodd" d="M7 2C4.79086 2 3 3.79086 3 6V18C3 20.2091 4.79086 22 7 22H17C19.2091 22 21 20.2091 21 18V6C21 3.79086 19.2091 2 17 2H7ZM5 6C5 4.89543 5.89543 4 7 4H17C18.1046 4 19 4.89543 19 6V18C19 19.1046 18.1046 20 17 20H7C5.89543 20 5 19.1046 5 18V6Z" fill="black"/>
</svg>
