<svg width="24" height="24" viewBox="0 0 24 24" fill="none" xmlns="http://www.w3.org/2000/svg">
<path d="M8 9C8 8.44772 8.44772 8 9 8H15C15.5523 8 16 8.44772 16 9C16 9.55228 15.5523 10 15 10H13V15C13 15.5523 12.5523 16 12 16C11.4477 16 11 15.5523 11 15V10H9C8.44772 10 8 9.55228 8 9Z" fill="black"/>
<path fill-rule="evenodd" clip-rule="evenodd" d="M2 4C2 2.89543 2.89543 2 4 2H6C7.10457 2 8 2.89543 8 4H16C16 2.89543 16.8954 2 18 2H20C21.1046 2 22 2.89543 22 4V6C22 7.10457 21.1046 8 20 8V16C21.1046 16 22 16.8954 22 18V20C22 21.1046 21.1046 22 20 22H18C16.8954 22 16 21.1046 16 20H8C8 21.1046 7.10457 22 6 22H4C2.89543 22 2 21.1046 2 20V18C2 16.8954 2.89543 16 4 16V8C2.89543 8 2 7.10457 2 6V4ZM6 16C7.10457 16 8 16.8954 8 18H16C16 16.8954 16.8954 16 18 16V8C16.8954 8 16 7.10457 16 6H8C8 7.10457 7.10457 8 6 8V16ZM6 18H4V20H6V18ZM18 20H20V18H18V20ZM18 6V4H20V6H18ZM6 4V6H4V4H6Z" fill="black"/>
</svg>
