<svg width="24" height="24" viewBox="0 0 24 24" fill="none" xmlns="http://www.w3.org/2000/svg">
<path d="M20 4.75C20.6904 4.75 21.25 5.30964 21.25 6C21.25 6.69036 20.6904 7.25 20 7.25H4C3.30964 7.25 2.75 6.69036 2.75 6C2.75 5.30964 3.30964 4.75 4 4.75H20Z" fill="black"/>
<path d="M19.25 10C19.25 9.30964 18.6904 8.75 18 8.75H7C6.30964 8.75 5.75 9.30964 5.75 10C5.75 10.6904 6.30964 11.25 7 11.25H18C18.6904 11.25 19.25 10.6904 19.25 10Z" fill="black"/>
<path d="M20 12.75C20.6904 12.75 21.25 13.3096 21.25 14C21.25 14.6904 20.6904 15.25 20 15.25H4C3.30964 15.25 2.75 14.6904 2.75 14C2.75 13.3096 3.30964 12.75 4 12.75H20Z" fill="black"/>
<path d="M18 16.75C18.6904 16.75 19.25 17.3096 19.25 18C19.25 18.6904 18.6904 19.25 18 19.25H7C6.30964 19.25 5.75 18.6904 5.75 18C5.75 17.3096 6.30964 16.75 7 16.75H18Z" fill="black"/>
</svg>
