<svg width="24" height="24" viewBox="0 0 24 24" fill="none" xmlns="http://www.w3.org/2000/svg">
<path d="M20 5C20.5523 5 21 5.44772 21 6C21 6.55228 20.5523 7 20 7H4C3.44772 7 3 6.55228 3 6C3 5.44772 3.44772 5 4 5H20Z" fill="black"/>
<path d="M21 10C21 9.44772 20.5523 9 20 9H9C8.44771 9 8 9.44772 8 10C8 10.5523 8.44771 11 9 11H20C20.5523 11 21 10.5523 21 10Z" fill="black"/>
<path d="M20 13C20.5523 13 21 13.4477 21 14C21 14.5523 20.5523 15 20 15H4C3.44772 15 3 14.5523 3 14C3 13.4477 3.44772 13 4 13H20Z" fill="black"/>
<path d="M20 17C20.5523 17 21 17.4477 21 18C21 18.5523 20.5523 19 20 19H9C8.44771 19 8 18.5523 8 18C8 17.4477 8.44771 17 9 17H20Z" fill="black"/>
</svg>
