<svg width="24" height="24" viewBox="0 0 24 24" fill="none" xmlns="http://www.w3.org/2000/svg">
<path d="M8 7C7.44772 7 7 7.44772 7 8V10C7 10.5523 7.44772 11 8 11C8.55228 11 9 10.5523 9 10V9H11.0028C11.0009 9.02474 11 9.04974 11 9.07495V15H10C9.44772 15 9 15.4477 9 16C9 16.5523 9.44772 17 10 17H14C14.5523 17 15 16.5523 15 16C15 15.4477 14.5523 15 14 15H13V9.07495C13 9.04974 12.9991 9.02474 12.9972 9H15V10C15 10.5523 15.4477 11 16 11C16.5523 11 17 10.5523 17 10V8C17 7.44772 16.5523 7 16 7H8Z" fill="black"/>
<path fill-rule="evenodd" clip-rule="evenodd" d="M7 2C4.23858 2 2 4.23858 2 7V17C2 19.7614 4.23858 22 7 22H17C19.7614 22 22 19.7614 22 17V7C22 4.23858 19.7614 2 17 2H7ZM4 7C4 5.34315 5.34315 4 7 4H17C18.6569 4 20 5.34315 20 7V17C20 18.6569 18.6569 20 17 20H7C5.34315 20 4 18.6569 4 17V7Z" fill="black"/>
</svg>
