<svg width="24" height="24" viewBox="0 0 24 24" fill="none" xmlns="http://www.w3.org/2000/svg">
<path d="M4 4.75C3.30964 4.75 2.75 5.30964 2.75 6C2.75 6.69036 3.30964 7.25 4 7.25H20C20.6904 7.25 21.25 6.69036 21.25 6C21.25 5.30964 20.6904 4.75 20 4.75H4Z" fill="black"/>
<path d="M2.75 10C2.75 9.30964 3.30964 8.75 4 8.75H15C15.6904 8.75 16.25 9.30964 16.25 10C16.25 10.6904 15.6904 11.25 15 11.25H4C3.30964 11.25 2.75 10.6904 2.75 10Z" fill="black"/>
<path d="M4 12.75C3.30964 12.75 2.75 13.3096 2.75 14C2.75 14.6904 3.30964 15.25 4 15.25H20C20.6904 15.25 21.25 14.6904 21.25 14C21.25 13.3096 20.6904 12.75 20 12.75H4Z" fill="black"/>
<path d="M4 16.75C3.30964 16.75 2.75 17.3096 2.75 18C2.75 18.6904 3.30964 19.25 4 19.25H15C15.6904 19.25 16.25 18.6904 16.25 18C16.25 17.3096 15.6904 16.75 15 16.75H4Z" fill="black"/>
</svg>
