<svg width="24" height="24" viewBox="0 0 24 24" fill="none" xmlns="http://www.w3.org/2000/svg">
<path d="M20 5C20.5523 5 21 5.44772 21 6C21 6.55228 20.5523 7 20 7H4C3.44772 7 3 6.55228 3 6C3 5.44772 3.44772 5 4 5H20Z" fill="black"/>
<path d="M19 10C19 9.44772 18.5523 9 18 9H7C6.44771 9 6 9.44772 6 10C6 10.5523 6.44771 11 7 11H18C18.5523 11 19 10.5523 19 10Z" fill="black"/>
<path d="M20 13C20.5523 13 21 13.4477 21 14C21 14.5523 20.5523 15 20 15H4C3.44772 15 3 14.5523 3 14C3 13.4477 3.44772 13 4 13H20Z" fill="black"/>
<path d="M18 17C18.5523 17 19 17.4477 19 18C19 18.5523 18.5523 19 18 19H7C6.44771 19 6 18.5523 6 18C6 17.4477 6.44771 17 7 17H18Z" fill="black"/>
</svg>
