<svg width="24" height="24" viewBox="0 0 24 24" fill="none" xmlns="http://www.w3.org/2000/svg">
<path d="M8.5 8.00049C8.5 7.4482 8.94771 7.00049 9.5 7.00049H16.5C17.0523 7.00049 17.5 7.4482 17.5 8.00049C17.5 8.55277 17.0523 9.00049 16.5 9.00049H9.5C8.94771 9.00049 8.5 8.55277 8.5 8.00049Z" fill="black"/>
<path d="M9.5 11.0005C8.94771 11.0005 8.5 11.4482 8.5 12.0005C8.5 12.5528 8.94771 13.0005 9.5 13.0005H16.5C17.0523 13.0005 17.5 12.5528 17.5 12.0005C17.5 11.4482 17.0523 11.0005 16.5 11.0005H9.5Z" fill="black"/>
<path d="M8.5 16.0005C8.5 15.4482 8.94771 15.0005 9.5 15.0005H14C14.5523 15.0005 15 15.4482 15 16.0005C15 16.5528 14.5523 17.0005 14 17.0005H9.5C8.94771 17.0005 8.5 16.5528 8.5 16.0005Z" fill="black"/>
<path fill-rule="evenodd" clip-rule="evenodd" d="M2.54087 18.8033C2.57937 18.9885 2.62995 19.1682 2.69161 19.3418L2.72339 19.5219C2.97637 20.9555 4.22202 22.0005 5.67774 22.0005H6.34132C6.38586 22.0013 6.43052 22.0013 6.4753 22.0005H7.00004C7.11579 22.0005 7.22695 21.9809 7.33036 21.9447C7.5481 21.9814 7.77181 22.0005 8 22.0005H18C20.2091 22.0005 22 20.2096 22 18.0005V6.00049C22 3.79135 20.2091 2.00049 18 2.00049H17.002C16.1705 0.548331 14.4871 -0.283446 12.7634 0.0884653L12.7613 0.088913L3.12561 2.18916C0.978099 2.6604 -0.361387 4.80582 0.0860564 6.95922L2.54087 18.8033ZM8 4.00049L16.3368 4.00079C16.3549 4.00129 16.3729 4.00129 16.391 4.0008L17.9991 4.00085C19.1035 4.00085 19.9989 4.89619 19.9989 6.00064V17.9998C19.9989 19.1042 19.1035 19.9996 17.9991 19.9996L8 20.0005C7.83597 20.0005 7.67656 19.9807 7.52401 19.9435C7.49215 19.9331 7.4597 19.9243 7.42674 19.9171C6.60154 19.6707 6 18.9058 6 18.0005V6.00049C6 4.89592 6.89543 4.00049 8 4.00049ZM4.40699 4.24052L3.0744 4.54804C2.55598 4.66768 2.22201 5.17228 2.31447 5.69622L4 15.2475V6.00049C4 5.36896 4.14635 4.77162 4.40699 4.24052Z" fill="black"/>
</svg>
