<svg width="24" height="24" viewBox="0 0 24 24" fill="none" xmlns="http://www.w3.org/2000/svg">
<path fill-rule="evenodd" clip-rule="evenodd" d="M10.8438 20.9923C11.1999 21.6154 11.8626 22 12.5803 22H14C15.1046 22 16 21.1046 16 20V15H19C20.6569 15 22 13.6569 22 12V5C22 3.34315 20.6569 2 19 2H12.6638C10.7295 2 8.83836 2.57258 7.22885 3.64558C6.46113 4.15739 6 5.01903 6 5.94172V13.3672C6 14.1938 6.61423 14.8769 7.41115 14.9851L10.8438 20.9923ZM14 20H12.5803L9.05043 13.8227C8.82181 13.4226 8.43836 13.143 8 13.0418V5.94172C8 5.68774 8.12693 5.45056 8.33825 5.30968C9.61922 4.4557 11.1243 4 12.6638 4H19C19.5523 4 20 4.44772 20 5V12C20 12.5523 19.5523 13 19 13H15C14.4477 13 14 13.4477 14 14V20Z" fill="black"/>
<path fill-rule="evenodd" clip-rule="evenodd" d="M2 14C2 15.1046 2.89543 16 4 16H6C7.10457 16 8 15.1046 8 14V4C8 2.89543 7.10457 2 6 2H4C2.89543 2 2 2.89543 2 4V14ZM6 14H4V4H6V14Z" fill="black"/>
</svg>
