<svg width="24" height="24" viewBox="0 0 24 24" fill="none" xmlns="http://www.w3.org/2000/svg">
<path fill-rule="evenodd" clip-rule="evenodd" d="M10.8438 3.00772C11.1999 2.38457 11.8626 2 12.5803 2H14C15.1046 2 16 2.89543 16 4V9H19C20.6569 9 22 10.3431 22 12V19C22 20.6569 20.6569 22 19 22H12.6638C10.7295 22 8.83836 21.4274 7.22885 20.3544C6.46113 19.8426 6 18.981 6 18.0583V10.6328C6 9.80619 6.61423 9.12306 7.41115 9.01491L10.8438 3.00772ZM14 4H12.5803L9.05043 10.1773C8.82181 10.5774 8.43836 10.857 8 10.9582V18.0583C8 18.3123 8.12693 18.5494 8.33825 18.6903C9.61922 19.5443 11.1243 20 12.6638 20H19C19.5523 20 20 19.5523 20 19V12C20 11.4477 19.5523 11 19 11H15C14.4477 11 14 10.5523 14 10V4Z" fill="black"/>
<path fill-rule="evenodd" clip-rule="evenodd" d="M2 10C2 8.89543 2.89543 8 4 8H6C7.10457 8 8 8.89543 8 10V20C8 21.1046 7.10457 22 6 22H4C2.89543 22 2 21.1046 2 20V10ZM6 10H4V20H6V10Z" fill="black"/>
</svg>
