<svg width="24" height="24" viewBox="0 0 24 24" fill="none" xmlns="http://www.w3.org/2000/svg">
<path fill-rule="evenodd" clip-rule="evenodd" d="M11 3C11 2.44772 11.4477 2 12 2C17.5228 2 22 6.47715 22 12C22 17.5228 17.5228 22 12 22C6.47715 22 2 17.5228 2 12C2 9.31672 3.05816 6.87848 4.77787 5.08327C5.15992 4.68445 5.79294 4.67085 6.19176 5.0529C6.59058 5.43495 6.60418 6.06797 6.22213 6.46679C4.84474 7.90464 4 9.85262 4 12C4 16.4183 7.58172 20 12 20C16.4183 20 20 16.4183 20 12C20 7.92038 16.9463 4.55399 13 4.06189V5.77503C13 6.32732 12.5523 6.77503 12 6.77503C11.4477 6.77503 11 6.32732 11 5.77503V3Z" fill="black"/>
<path fill-rule="evenodd" clip-rule="evenodd" d="M12 11C11.4477 11 11 11.4477 11 12C11 12.5523 11.4477 13 12 13C12.5523 13 13 12.5523 13 12C13 11.4477 12.5523 11 12 11ZM9 12C9 10.3431 10.3431 9 12 9C13.6569 9 15 10.3431 15 12C15 13.6569 13.6569 15 12 15C10.3431 15 9 13.6569 9 12Z" fill="black"/>
<path fill-rule="evenodd" clip-rule="evenodd" d="M7.79289 7.29289C8.18342 6.90237 8.81658 6.90237 9.20711 7.29289L11.2071 9.29289C11.5976 9.68342 11.5976 10.3166 11.2071 10.7071C10.8166 11.0976 10.1834 11.0976 9.79289 10.7071L7.79289 8.70711C7.40237 8.31658 7.40237 7.68342 7.79289 7.29289Z" fill="black"/>
</svg>
