<svg width="24" height="24" viewBox="0 0 24 24" fill="none" xmlns="http://www.w3.org/2000/svg">
<path d="M7 2C6.44772 2 6 2.44772 6 3C6 3.55228 6.44772 4 7 4H17C17.5523 4 18 3.55228 18 3C18 2.44772 17.5523 2 17 2H7Z" fill="black"/>
<path d="M12.7071 7.29289C12.3166 6.90237 11.6834 6.90237 11.2929 7.29289L4.29292 14.2929C4.03817 14.5476 3.94014 14.9197 4.03631 15.2669C4.13248 15.6141 4.40797 15.8828 4.75749 15.9701L8.14355 16.8167L8.69789 19.5883C8.97834 20.9906 10.2096 22 11.6396 22H12.3604C13.7905 22 15.0217 20.9906 15.3022 19.5883L15.8565 16.8167L19.2426 15.9701C19.5921 15.8828 19.8676 15.6141 19.9637 15.2669C20.0599 14.9197 19.9619 14.5476 19.7071 14.2929L12.7071 7.29289Z" fill="black"/>
</svg>
