<svg width="24" height="24" viewBox="0 0 24 24" fill="none" xmlns="http://www.w3.org/2000/svg">
<path d="M7 2C6.44772 2 6 2.44772 6 3C6 3.55228 6.44772 4 7 4H17C17.5523 4 18 3.55228 18 3C18 2.44772 17.5523 2 17 2H7Z" fill="black"/>
<path fill-rule="evenodd" clip-rule="evenodd" d="M12.7071 7.29289C12.3166 6.90237 11.6834 6.90237 11.2929 7.29289L4.29292 14.2929C4.03817 14.5476 3.94014 14.9197 4.03631 15.2669C4.13248 15.6141 4.40797 15.8828 4.75749 15.9701L8.14355 16.8167L8.69789 19.5883C8.97834 20.9906 10.2096 22 11.6396 22H12.3604C13.7905 22 15.0217 20.9906 15.3022 19.5883L15.8565 16.8167L19.2426 15.9701C19.5921 15.8828 19.8676 15.6141 19.9637 15.2669C20.0599 14.9197 19.9619 14.5476 19.7071 14.2929L12.7071 7.29289ZM9.24256 15.0299L6.95602 14.4582L12 9.41421L17.044 14.4582L14.7575 15.0299C14.3826 15.1236 14.0952 15.4249 14.0194 15.8039L13.341 19.1961C13.2475 19.6635 12.8371 20 12.3604 20H11.6396C11.163 20 10.7525 19.6635 10.6591 19.1961L9.9806 15.8039C9.90482 15.4249 9.61747 15.1236 9.24256 15.0299Z" fill="black"/>
</svg>
