<svg width="24" height="24" viewBox="0 0 24 24" fill="none" xmlns="http://www.w3.org/2000/svg">
<path fill-rule="evenodd" clip-rule="evenodd" d="M7 2C4.23858 2 2 4.23858 2 7V17C2 19.7614 4.23858 22 7 22H17C19.7614 22 22 19.7614 22 17V7C22 4.23858 19.7614 2 17 2H7ZM9 6C8.73479 6 8.48043 6.10536 8.29289 6.29289L6.29289 8.29289C5.90237 8.68342 5.90237 9.31658 6.29289 9.70711C6.68342 10.0976 7.31658 10.0976 7.70711 9.70711L8 9.41421L8 17C8 17.5523 8.44772 18 9 18C9.55229 18 10 17.5523 10 17L10 9.41422L10.2929 9.70711C10.6834 10.0976 11.3166 10.0976 11.7071 9.70711C12.0976 9.31658 12.0976 8.68342 11.7071 8.29289L9.7084 6.29419C9.52734 6.11246 9.2768 6 9 6ZM14.2929 17.7071L14.3104 17.7242C14.4898 17.8951 14.7326 18 15 18C15.2769 18 15.5275 17.8874 15.7086 17.7056L17.7071 15.7071C18.0976 15.3166 18.0976 14.6834 17.7071 14.2929C17.3166 13.9024 16.6834 13.9024 16.2929 14.2929L16 14.5858L16 7C16 6.44771 15.5523 6 15 6C14.4477 6 14 6.44772 14 7L14 14.5858L13.7071 14.2929C13.3166 13.9024 12.6834 13.9024 12.2929 14.2929C11.9024 14.6834 11.9024 15.3166 12.2929 15.7071L14.2929 17.7071Z" fill="black"/>
</svg>
