<svg width="24" height="24" viewBox="0 0 24 24" fill="none" xmlns="http://www.w3.org/2000/svg">
<path d="M8.29289 6.29289C8.48043 6.10536 8.73479 6 9 6C9.2768 6 9.52734 6.11246 9.7084 6.29419L11.7071 8.29289C12.0976 8.68342 12.0976 9.31658 11.7071 9.70711C11.3166 10.0976 10.6834 10.0976 10.2929 9.70711L10 9.41422L10 17C10 17.5523 9.55229 18 9 18C8.44772 18 8 17.5523 8 17L8 9.41421L7.70711 9.70711C7.31658 10.0976 6.68342 10.0976 6.29289 9.70711C5.90237 9.31658 5.90237 8.68342 6.29289 8.29289L8.29289 6.29289Z" fill="black"/>
<path d="M14.3104 17.7242L14.2929 17.7071L12.2929 15.7071C11.9024 15.3166 11.9024 14.6834 12.2929 14.2929C12.6834 13.9024 13.3166 13.9024 13.7071 14.2929L14 14.5858L14 7C14 6.44772 14.4477 6 15 6C15.5523 6 16 6.44771 16 7L16 14.5858L16.2929 14.2929C16.6834 13.9024 17.3166 13.9024 17.7071 14.2929C18.0976 14.6834 18.0976 15.3166 17.7071 15.7071L15.7086 17.7056C15.5275 17.8874 15.2769 18 15 18C14.7326 18 14.4898 17.8951 14.3104 17.7242Z" fill="black"/>
<path fill-rule="evenodd" clip-rule="evenodd" d="M2 7C2 4.23858 4.23858 2 7 2H17C19.7614 2 22 4.23858 22 7V17C22 19.7614 19.7614 22 17 22H7C4.23858 22 2 19.7614 2 17V7ZM7 4C5.34315 4 4 5.34315 4 7V17C4 18.6569 5.34315 20 7 20H17C18.6569 20 20 18.6569 20 17V7C20 5.34315 18.6569 4 17 4H7Z" fill="black"/>
</svg>
