<svg width="24" height="24" viewBox="0 0 24 24" fill="none" xmlns="http://www.w3.org/2000/svg">
<path fill-rule="evenodd" clip-rule="evenodd" d="M8 4C8 2.89543 8.89543 2 10 2H14C15.1046 2 16 2.89543 16 4H20C20.5523 4 21 4.44772 21 5C21 5.55228 20.5523 6 20 6V17C20 19.7614 17.7614 22 15 22H9C6.23858 22 4 19.7614 4 17V6C3.44772 6 3 5.55228 3 5C3 4.44772 3.44772 4 4 4H8ZM11 11C11 10.4477 10.5523 10 10 10C9.44772 10 9 10.4477 9 11V15C9 15.5523 9.44772 16 10 16C10.5523 16 11 15.5523 11 15V11ZM15 11C15 10.4477 14.5523 10 14 10C13.4477 10 13 10.4477 13 11V15C13 15.5523 13.4477 16 14 16C14.5523 16 15 15.5523 15 15V11Z" fill="black"/>
</svg>
