<svg width="24" height="24" viewBox="0 0 24 24" fill="none" xmlns="http://www.w3.org/2000/svg">
<path d="M10 10C10.5523 10 11 10.4477 11 11V15C11 15.5523 10.5523 16 10 16C9.44772 16 9 15.5523 9 15V11C9 10.4477 9.44772 10 10 10Z" fill="black"/>
<path d="M15 11C15 10.4477 14.5523 10 14 10C13.4477 10 13 10.4477 13 11V15C13 15.5523 13.4477 16 14 16C14.5523 16 15 15.5523 15 15V11Z" fill="black"/>
<path fill-rule="evenodd" clip-rule="evenodd" d="M8.01766 4C8.15816 2.87211 9.11962 2 10.2857 2H13.7143C14.8804 2 15.8418 2.87211 15.9823 4H20C20.5523 4 21 4.44772 21 5C21 5.55228 20.5523 6 20 6V17C20 19.7614 17.7614 22 15 22H9C6.23858 22 4 19.7614 4 17V6C3.44772 6 3 5.55228 3 5C3 4.44772 3.44772 4 4 4H8.01766ZM9 20C7.34315 20 6 18.6569 6 17V7H18V17C18 18.6569 16.6569 20 15 20H9Z" fill="black"/>
</svg>
