<svg width="24" height="24" viewBox="0 0 24 24" fill="none" xmlns="http://www.w3.org/2000/svg">
<path d="M14 9C14.5523 9 15 9.44771 15 10V13C15 13.5523 14.5523 14 14 14C13.4477 14 13 13.5523 13 13V10C13 9.44771 13.4477 9 14 9Z" fill="black"/>
<path d="M15 16C15 15.4477 14.5523 15 14 15C13.4477 15 13 15.4478 13 16.0001C13 16.5524 13.4477 17.0001 14 17.0001C14.5523 17.0001 15 16.5523 15 16Z" fill="black"/>
<path fill-rule="evenodd" clip-rule="evenodd" d="M8.5 2C8.5 1.44772 8.94772 1 9.5 1H14.5C15.0523 1 15.5 1.44772 15.5 2C15.5 2.55228 15.0523 3 14.5 3H13V5H15C17.2091 5 19 6.79086 19 9V17C19 18.8666 17.7215 20.4346 15.9924 20.8759C15.9974 20.9166 16 20.958 16 21C16 21.5523 15.5523 22 15 22H14C13.4477 22 13 21.5523 13 21H11C11 21.5523 10.5523 22 10 22H9C8.44772 22 8 21.5523 8 21C8 20.958 8.00259 20.9166 8.00763 20.8759C6.27853 20.4346 5 18.8666 5 17V9C5 6.79086 6.79086 5 9 5H11V3H9.5C8.94772 3 8.5 2.55228 8.5 2ZM17 9C17 7.89543 16.1046 7 15 7H9C7.89543 7 7 7.89543 7 9V17C7 18.1046 7.89543 19 9 19H15C16.1046 19 17 18.1046 17 17V9Z" fill="black"/>
</svg>
