<svg width="24" height="24" viewBox="0 0 24 24" fill="none" xmlns="http://www.w3.org/2000/svg">
<path d="M16.2929 9.29289C16.6834 8.90237 17.3166 8.90237 17.7071 9.29289C18.0976 9.68342 18.0976 10.3166 17.7071 10.7071L16.4142 12L17.7071 13.2929C18.0976 13.6834 18.0976 14.3166 17.7071 14.7071C17.3166 15.0976 16.6834 15.0976 16.2929 14.7071L15 13.4142L13.7071 14.7071C13.3166 15.0976 12.6834 15.0976 12.2929 14.7071C11.9024 14.3166 11.9024 13.6834 12.2929 13.2929L13.5858 12L12.2929 10.7071C11.9024 10.3166 11.9024 9.68342 12.2929 9.29289C12.6834 8.90237 13.3166 8.90237 13.7071 9.29289L15 10.5858L16.2929 9.29289Z" fill="black"/>
<path d="M7 15C7 14.4477 7.44772 14 8 14H9C9.55228 14 10 14.4477 10 15C10 15.5523 9.55228 16 9 16H8C7.44772 16 7 15.5523 7 15Z" fill="black"/>
<path d="M8 9C7.44772 9 7 9.44772 7 10C7 10.5523 7.44782 11 8.0001 11C8.55238 11 9.0001 10.5523 9.0001 10C9.0001 9.44772 8.55228 9 8 9Z" fill="black"/>
<path fill-rule="evenodd" clip-rule="evenodd" d="M21.5257 2.14935C21.8205 2.33156 22 2.65342 22 3V19C22 19.4304 21.7246 19.8126 21.3162 19.9487L15.3162 21.9487C15.111 22.0171 14.889 22.0171 14.6838 21.9487L9 20.0541L3.31623 21.9487C3.01128 22.0503 2.67606 21.9992 2.41529 21.8112C2.15452 21.6233 2 21.3214 2 21V6C2 5.62123 2.214 5.27497 2.55279 5.10557L8.55279 2.10557C8.83431 1.96481 9.16569 1.96481 9.44721 2.10557L15 4.88197L20.5528 2.10557C20.8628 1.95058 21.2309 1.96714 21.5257 2.14935ZM9 4.11804L4 6.61804V19.6126L8.68377 18.0513C8.88904 17.9829 9.11096 17.9829 9.31623 18.0513L15 19.9459L20 18.2792V4.61804L15.4472 6.89443C15.1657 7.03519 14.8343 7.03519 14.5528 6.89443L9 4.11804Z" fill="black"/>
</svg>
