<svg width="24" height="24" viewBox="0 0 24 24" fill="none" xmlns="http://www.w3.org/2000/svg">
<path fill-rule="evenodd" clip-rule="evenodd" d="M22 3C22 2.65342 21.8205 2.33156 21.5257 2.14935C21.2309 1.96714 20.8628 1.95058 20.5528 2.10557L15 4.88197L9.44721 2.10557C9.16569 1.96481 8.83431 1.96481 8.55279 2.10557L2.55279 5.10557C2.214 5.27497 2 5.62123 2 6V21C2 21.3214 2.15452 21.6233 2.41529 21.8112C2.67606 21.9992 3.01128 22.0503 3.31623 21.9487L9 20.0541L14.6838 21.9487C14.889 22.0171 15.111 22.0171 15.3162 21.9487L21.3162 19.9487C21.7246 19.8126 22 19.4304 22 19V3ZM17.7071 9.29289C17.3166 8.90237 16.6834 8.90237 16.2929 9.29289L15 10.5858L13.7071 9.29289C13.3166 8.90237 12.6834 8.90237 12.2929 9.29289C11.9024 9.68342 11.9024 10.3166 12.2929 10.7071L13.5858 12L12.2929 13.2929C11.9024 13.6834 11.9024 14.3166 12.2929 14.7071C12.6834 15.0976 13.3166 15.0976 13.7071 14.7071L15 13.4142L16.2929 14.7071C16.6834 15.0976 17.3166 15.0976 17.7071 14.7071C18.0976 14.3166 18.0976 13.6834 17.7071 13.2929L16.4142 12L17.7071 10.7071C18.0976 10.3166 18.0976 9.68342 17.7071 9.29289ZM8 14C7.44772 14 7 14.4477 7 15C7 15.5523 7.44772 16 8 16H9C9.55228 16 10 15.5523 10 15C10 14.4477 9.55228 14 9 14H8ZM7 10C7 9.44772 7.44772 9 8 9C8.55228 9 9.0001 9.44772 9.0001 10C9.0001 10.5523 8.55238 11 8.0001 11C7.44782 11 7 10.5523 7 10Z" fill="black"/>
</svg>
