<svg width="24" height="24" viewBox="0 0 24 24" fill="none" xmlns="http://www.w3.org/2000/svg">
<path fill-rule="evenodd" clip-rule="evenodd" d="M22 8.75C22.6904 8.75 23.25 9.30964 23.25 10V18C23.25 18.6904 22.6904 19.25 22 19.25H15C14.3096 19.25 13.75 18.6904 13.75 18C13.75 17.3096 14.3096 16.75 15 16.75H20.75V10C20.75 9.30964 21.3096 8.75 22 8.75Z" fill="black"/>
<path fill-rule="evenodd" clip-rule="evenodd" d="M1.11612 5.11612C1.60427 4.62796 2.39573 4.62796 2.88388 5.11612L8 10.2322L11.1161 7.11612C11.6043 6.62796 12.3957 6.62796 12.8839 7.11612L22.8839 17.1161C23.372 17.6043 23.372 18.3957 22.8839 18.8839C22.3957 19.372 21.6043 19.372 21.1161 18.8839L12 9.76777L8.88388 12.8839C8.39573 13.372 7.60427 13.372 7.11612 12.8839L1.11612 6.88388C0.627961 6.39573 0.627961 5.60427 1.11612 5.11612Z" fill="black"/>
</svg>
