<svg width="24" height="24" viewBox="0 0 24 24" fill="none" xmlns="http://www.w3.org/2000/svg">
<path fill-rule="evenodd" clip-rule="evenodd" d="M22 15C22.5523 15 23 14.5523 23 14V6C23 5.44771 22.5523 5 22 5H15C14.4477 5 14 5.44771 14 6C14 6.55228 14.4477 7 15 7H21V14C21 14.5523 21.4477 15 22 15Z" fill="black"/>
<path fill-rule="evenodd" clip-rule="evenodd" d="M1.29289 18.7071C1.68342 19.0976 2.31658 19.0976 2.70711 18.7071L8 13.4142L11.2929 16.7071C11.6834 17.0976 12.3166 17.0976 12.7071 16.7071L22.7071 6.70711C23.0976 6.31658 23.0976 5.68342 22.7071 5.29289C22.3166 4.90237 21.6834 4.90237 21.2929 5.29289L12 14.5858L8.70711 11.2929C8.31658 10.9024 7.68342 10.9024 7.29289 11.2929L1.29289 17.2929C0.902369 17.6834 0.902369 18.3166 1.29289 18.7071Z" fill="black"/>
</svg>
