<svg width="24" height="24" viewBox="0 0 24 24" fill="none" xmlns="http://www.w3.org/2000/svg">
<path fill-rule="evenodd" clip-rule="evenodd" d="M22 15.25C22.6904 15.25 23.25 14.6904 23.25 14V6C23.25 5.30964 22.6904 4.75 22 4.75H15C14.3096 4.75 13.75 5.30964 13.75 6C13.75 6.69036 14.3096 7.25 15 7.25H20.75V14C20.75 14.6904 21.3096 15.25 22 15.25Z" fill="black"/>
<path fill-rule="evenodd" clip-rule="evenodd" d="M1.11612 18.8839C1.60427 19.372 2.39573 19.372 2.88388 18.8839L8 13.7678L11.1161 16.8839C11.6043 17.372 12.3957 17.372 12.8839 16.8839L22.8839 6.88388C23.372 6.39573 23.372 5.60427 22.8839 5.11612C22.3957 4.62796 21.6043 4.62796 21.1161 5.11612L12 14.2322L8.88388 11.1161C8.39573 10.628 7.60427 10.628 7.11612 11.1161L1.11612 17.1161C0.627961 17.6043 0.627961 18.3957 1.11612 18.8839Z" fill="black"/>
</svg>
