<svg width="24" height="24" viewBox="0 0 24 24" fill="none" xmlns="http://www.w3.org/2000/svg">
<g clip-path="url(#clip0_30_21891)">
<path fill-rule="evenodd" clip-rule="evenodd" d="M12.3122 3.04999C12.1094 2.98334 11.8906 2.98334 11.6878 3.04999L0.687795 6.66498C0.288187 6.7963 0.0134795 7.16366 0.000481001 7.58409C-0.0125176 8.00452 0.238972 8.38814 0.629704 8.5439L1 8.69152V13C1 13.5523 1.44772 14 2 14C2.55228 14 3 13.5523 3 13V9.48879L4 9.88743V17C4 17.7523 4.36044 18.3852 4.83865 18.8696C5.31272 19.3497 5.94912 19.7364 6.6566 20.0397C8.07514 20.6479 9.9651 21 12 21C14.0349 21 15.9249 20.6479 17.3434 20.0397C18.0509 19.7364 18.6873 19.3497 19.1614 18.8696C19.6396 18.3852 20 17.7523 20 17V9.88743L23.3703 8.5439C23.761 8.38814 24.0125 8.00452 23.9995 7.58409C23.9865 7.16366 23.7118 6.7963 23.3122 6.66498L12.3122 3.04999ZM17.7382 17.4644C17.9686 17.231 18 17.0752 18 17V10.6847L12.3703 12.9289C12.1325 13.0237 11.8675 13.0237 11.6297 12.9289L6 10.6847V17C6 17.0752 6.03143 17.231 6.26182 17.4644C6.49634 17.7019 6.88526 17.9617 7.44465 18.2015C8.55986 18.6796 10.1699 19 12 19C13.8301 19 15.4401 18.6796 16.5553 18.2015C17.1147 17.9617 17.5037 17.7019 17.7382 17.4644Z" fill="black"/>
<path d="M3 16C3 15.4477 2.55228 15 2 15C1.44772 15 1 15.4477 1 16V17C1 17.5523 1.44772 18 2 18C2.55228 18 3 17.5523 3 17V16Z" fill="black"/>
</g>
<defs>
<clipPath id="clip0_30_21891">
<rect width="24" height="24" fill="white"/>
</clipPath>
</defs>
</svg>
