<svg width="24" height="24" viewBox="0 0 24 24" fill="none" xmlns="http://www.w3.org/2000/svg">
<path fill-rule="evenodd" clip-rule="evenodd" d="M13.8105 3.05651C13.0187 1.64783 10.9794 1.64783 10.1876 3.05651L1.26415 18.9315C0.481511 20.3238 1.51143 22 3.07563 22H20.9224C22.4866 22 23.5166 20.3238 22.7339 18.9315L13.8105 3.05651ZM11.931 4.03651C11.9408 4.01902 11.949 4.01346 11.955 4.01009C11.964 4.00508 11.9792 4 11.999 4C12.0188 4 12.034 4.00508 12.043 4.01009C12.0491 4.01346 12.0572 4.01902 12.0671 4.03651L20.9905 19.9115C20.9994 19.9273 20.9991 19.9344 20.999 19.9369C20.9989 19.9422 20.997 19.9525 20.9897 19.9648C20.9824 19.977 20.973 19.9858 20.9643 19.9909C20.958 19.9946 20.9466 20 20.9224 20H3.07563C3.05151 20 3.04004 19.9946 3.03376 19.9909C3.02508 19.9858 3.01562 19.977 3.00833 19.9648C3.00104 19.9525 2.9992 19.9422 2.99904 19.9369C2.99896 19.9344 2.99872 19.9273 3.00759 19.9115L11.931 4.03651Z" fill="black"/>
</svg>
