<svg width="24" height="24" viewBox="0 0 24 24" fill="none" xmlns="http://www.w3.org/2000/svg">
<path fill-rule="evenodd" clip-rule="evenodd" d="M3 3C1.34315 3 0 4.34315 0 6V16C0 17.6569 1.34315 19 3 19H3.17071C3.58254 20.1652 4.69378 21 6 21C7.30622 21 8.41746 20.1652 8.82929 19H15C15.0565 19 15.1119 18.9953 15.1659 18.9863C15.5738 20.1586 16.6887 21 18 21C19.3062 21 20.4175 20.1652 20.8293 19H21C22.6569 19 24 17.6569 24 16V15C24 14.9585 23.9974 14.9171 23.9923 14.876L23.4303 10.3798C23.1175 7.87768 20.9905 6 18.4689 6H16C16 4.34315 14.6569 3 13 3H3ZM20.8293 17C20.4175 15.8348 19.3062 15 18 15C17.2316 15 16.5308 15.2889 16 15.7639V8H18.4689C19.9818 8 21.258 9.12661 21.4457 10.6279L22 15.0623V16C22 16.5523 21.5523 17 21 17H20.8293ZM5 18C5 17.4477 5.44772 17 6 17C6.55228 17 7 17.4477 7 18C7 18.5523 6.55228 19 6 19C5.44772 19 5 18.5523 5 18ZM18 17C17.4477 17 17 17.4477 17 18C17 18.5523 17.4477 19 18 19C18.5523 19 19 18.5523 19 18C19 17.4477 18.5523 17 18 17Z" fill="black"/>
</svg>
