<svg width="24" height="24" viewBox="0 0 24 24" fill="none" xmlns="http://www.w3.org/2000/svg">
<path fill-rule="evenodd" clip-rule="evenodd" d="M9.70711 0.292893C9.31658 -0.0976311 8.68342 -0.0976311 8.29289 0.292893C7.90237 0.683417 7.90237 1.31658 8.29289 1.70711L9.58579 3H4C2.34315 3 1 4.34315 1 6V18C1 19.6569 2.34315 21 4 21H20C21.6569 21 23 19.6569 23 18V6C23 4.34315 21.6569 3 20 3H14.4142L15.7071 1.70711C16.0976 1.31658 16.0976 0.683417 15.7071 0.292893C15.3166 -0.0976311 14.6834 -0.0976311 14.2929 0.292893L12 2.58579L9.70711 0.292893ZM19 10C19.5523 10 20 10.4477 20 11V16C20 16.5523 19.5523 17 19 17C18.4477 17 18 16.5523 18 16V11C18 10.4477 18.4477 10 19 10ZM18 8C18 7.44772 18.4477 7 19 7C19.5523 7 20.0001 7.44772 20.0001 8C20.0001 8.55229 19.5524 9 19.0001 9C18.4478 9 18 8.55229 18 8ZM6 16V8H15V16H6Z" fill="black"/>
</svg>
