<svg width="24" height="24" viewBox="0 0 24 24" fill="none" xmlns="http://www.w3.org/2000/svg">
<path fill-rule="evenodd" clip-rule="evenodd" d="M12 11C12.5523 11 13 11.4477 13 12V18.5C13 20.433 11.433 22 9.5 22H9C7.34315 22 6 20.6569 6 19C6 18.4477 6.44772 18 7 18C7.55228 18 8 18.4477 8 19C8 19.5523 8.44772 20 9 20H9.5C10.3284 20 11 19.3284 11 18.5V12C11 11.4477 11.4477 11 12 11Z" fill="black"/>
<path fill-rule="evenodd" clip-rule="evenodd" d="M4.07106 11H19.9289C19.4429 7.61006 16.5232 5 13 5H11C7.47677 5 4.55706 7.61006 4.07106 11ZM2 12C2 7.03272 6.03272 3 11 3H13C17.9673 3 22 7.03272 22 12C22 12.5523 21.5523 13 21 13H3C2.44772 13 2 12.5523 2 12Z" fill="black"/>
<path fill-rule="evenodd" clip-rule="evenodd" d="M12 1C12.5523 1 13 1.44772 13 2V4C13 4.55228 12.5523 5 12 5C11.4477 5 11 4.55228 11 4V2C11 1.44772 11.4477 1 12 1Z" fill="black"/>
</svg>
