<svg width="24" height="24" viewBox="0 0 24 24" fill="none" xmlns="http://www.w3.org/2000/svg">
<path d="M8.25 5C8.25 4.30964 7.69036 3.75 7 3.75C6.30964 3.75 5.75 4.30964 5.75 5V12C5.75 14.8995 8.10051 17.25 11 17.25H13C15.8995 17.25 18.25 14.8995 18.25 12V5C18.25 4.30964 17.6904 3.75 17 3.75C16.3096 3.75 15.75 4.30964 15.75 5V12C15.75 13.5188 14.5188 14.75 13 14.75H11C9.48122 14.75 8.25 13.5188 8.25 12V5Z" fill="black"/>
<path d="M6 18.75C5.30964 18.75 4.75 19.3096 4.75 20C4.75 20.6904 5.30964 21.25 6 21.25H18C18.6904 21.25 19.25 20.6904 19.25 20C19.25 19.3096 18.6904 18.75 18 18.75H6Z" fill="black"/>
</svg>
