<svg width="24" height="24" viewBox="0 0 24 24" fill="none" xmlns="http://www.w3.org/2000/svg">
<path fill-rule="evenodd" clip-rule="evenodd" d="M12 2C6.47715 2 2 6.47715 2 12C2 17.5228 6.47715 22 12 22C17.5228 22 22 17.5228 22 12C22 6.47715 17.5228 2 12 2ZM9 16C8.44772 16 8 16.4477 8 17C8 17.5523 8.44772 18 9 18H15C15.5523 18 16 17.5523 16 17C16 16.4477 15.5523 16 15 16H9ZM9.16958 8.80163C8.74556 9.3016 9.16538 10 9.88994 10H11V14C11 14.5523 11.4477 15 12 15C12.5523 15 13 14.5523 13 14V10H14.1101C14.8346 10 15.2544 9.3016 14.8304 8.80163L12.7204 6.31357C12.3658 5.89548 11.6342 5.89548 11.2796 6.31357L9.16958 8.80163Z" fill="black"/>
</svg>
