<svg width="24" height="24" viewBox="0 0 24 24" fill="none" xmlns="http://www.w3.org/2000/svg">
<path d="M16.8839 7.88389C16.3957 8.37204 15.6043 8.37204 15.1161 7.88389L13.25 6.01777L13.25 15C13.25 15.6904 12.6904 16.25 12 16.25C11.3096 16.25 10.75 15.6904 10.75 15L10.75 6.01777L8.88388 7.88388C8.39573 8.37204 7.60427 8.37204 7.11612 7.88388C6.62796 7.39573 6.62796 6.60427 7.11612 6.11612L11.1161 2.11612C11.3505 1.8817 11.6685 1.75 12 1.75C12.3315 1.75 12.6495 1.8817 12.8839 2.11612L16.8839 6.11612C17.372 6.60428 17.372 7.39573 16.8839 7.88389Z" fill="black"/>
<path d="M4 17.75C4.69036 17.75 5.25 18.3096 5.25 19C5.25 19.4142 5.58579 19.75 6 19.75H18C18.4142 19.75 18.75 19.4142 18.75 19C18.75 18.3096 19.3096 17.75 20 17.75C20.6904 17.75 21.25 18.3096 21.25 19C21.25 20.7949 19.7949 22.25 18 22.25H6C4.20507 22.25 2.75 20.7949 2.75 19C2.75 18.3096 3.30964 17.75 4 17.75Z" fill="black"/>
</svg>
