<svg width="24" height="24" viewBox="0 0 24 24" fill="none" xmlns="http://www.w3.org/2000/svg">
<path fill-rule="evenodd" clip-rule="evenodd" d="M8 17C8 16.4477 8.44772 16 9 16H15C15.5523 16 16 16.4477 16 17C16 17.5523 15.5523 18 15 18H9C8.44772 18 8 17.5523 8 17Z" fill="black"/>
<path fill-rule="evenodd" clip-rule="evenodd" d="M12 7C11.4477 7 11 7.44772 11 8V14C11 14.5523 11.4477 15 12 15C12.5523 15 13 14.5523 13 14V8C13 7.44772 12.5523 7 12 7Z" fill="black"/>
<path d="M11.2796 6.31357C11.6342 5.89548 12.3658 5.89548 12.7204 6.31357L14.8304 8.80163C15.2544 9.3016 14.8346 10 14.1101 10H9.88994C9.16538 10 8.74556 9.3016 9.16958 8.80163L11.2796 6.31357Z" fill="black"/>
<path fill-rule="evenodd" clip-rule="evenodd" d="M12 4C7.58172 4 4 7.58172 4 12C4 16.4183 7.58172 20 12 20C16.4183 20 20 16.4183 20 12C20 7.58172 16.4183 4 12 4ZM2 12C2 6.47715 6.47715 2 12 2C17.5228 2 22 6.47715 22 12C22 17.5228 17.5228 22 12 22C6.47715 22 2 17.5228 2 12Z" fill="black"/>
</svg>
