<svg width="24" height="24" viewBox="0 0 24 24" fill="none" xmlns="http://www.w3.org/2000/svg">
<path fill-rule="evenodd" clip-rule="evenodd" d="M12 2C6.47715 2 2 6.47715 2 12C2 17.5228 6.47715 22 12 22C17.5228 22 22 17.5228 22 12C22 6.47715 17.5228 2 12 2ZM8 8.5C7.17157 8.5 6.5 9.17157 6.5 10C6.5 10.8284 7.17167 11.5 8.0001 11.5C8.82853 11.5 9.5001 10.8284 9.5001 10C9.5001 9.17157 8.82843 8.5 8 8.5ZM16 8.5C15.1716 8.5 14.5 9.17157 14.5 10C14.5 10.8284 15.1717 11.5 16.0001 11.5C16.8285 11.5 17.5001 10.8284 17.5001 10C17.5001 9.17157 16.8284 8.5 16 8.5ZM16.4472 14.8944C16.9412 14.6474 17.1414 14.0468 16.8944 13.5528C16.6474 13.0588 16.0468 12.8586 15.5528 13.1056L11.5528 15.1056C11.0588 15.3526 10.8586 15.9532 11.1056 16.4472C11.3526 16.9412 11.9532 17.1414 12.4472 16.8944L16.4472 14.8944Z" fill="black"/>
</svg>
