<svg width="24" height="24" viewBox="0 0 24 24" fill="none" xmlns="http://www.w3.org/2000/svg">
<path fill-rule="evenodd" clip-rule="evenodd" d="M3 7C3 4.23858 5.23858 2 8 2C10.7614 2 13 4.23858 13 7C13 9.76142 10.7614 12 8 12C5.23858 12 3 9.76142 3 7ZM8 4C6.34315 4 5 5.34315 5 7C5 8.65685 6.34315 10 8 10C9.65685 10 11 8.65685 11 7C11 5.34315 9.65685 4 8 4Z" fill="black"/>
<path d="M1.58829 15.5216C2.59425 14.5172 3.96237 14 5.42079 14H10.5792C13.7405 14 16 17.0197 16 20.334V21C16 21.5523 15.5523 22 15 22C14.4477 22 14 21.5523 14 21V20.334C14 17.7564 12.3009 16 10.5792 16H5.42079C4.43774 16 3.59546 16.3438 3.00139 16.9369C2.41159 17.5258 2 18.4272 2 19.668V21C2 21.5523 1.55228 22 1 22C0.447715 22 0 21.5523 0 21V19.668C0 17.9628 0.578067 16.5302 1.58829 15.5216Z" fill="black"/>
<path d="M23.7064 8.29285C24.0969 8.68339 24.0969 9.31659 23.7064 9.70713L21.4139 11.9998L23.7067 14.2928C24.0972 14.6834 24.0972 15.3166 23.7067 15.7071C23.3162 16.0976 22.6831 16.0976 22.2926 15.7071L19.9998 13.4141L17.707 15.7071C17.3165 16.0976 16.6834 16.0976 16.2929 15.7071C15.9024 15.3166 15.9024 14.6834 16.2929 14.2928L18.5857 11.9998L16.2932 9.70713C15.9027 9.31659 15.9027 8.68339 16.2932 8.29285C16.6837 7.9023 17.3169 7.9023 17.7074 8.29285L19.9998 10.5855L22.2922 8.29285C22.6827 7.9023 23.3159 7.9023 23.7064 8.29285Z" fill="black"/>
</svg>
