<svg width="24" height="24" viewBox="0 0 24 24" fill="none" xmlns="http://www.w3.org/2000/svg">
<path fill-rule="evenodd" clip-rule="evenodd" d="M10 4C8.34315 4 7 5.34315 7 7C7 8.65685 8.34315 10 10 10C11.6569 10 13 8.65685 13 7C13 5.34315 11.6569 4 10 4ZM5 7C5 4.23858 7.23858 2 10 2C12.7614 2 15 4.23858 15 7C15 9.76142 12.7614 12 10 12C7.23858 12 5 9.76142 5 7Z" fill="black"/>
<path fill-rule="evenodd" clip-rule="evenodd" d="M3.58829 15.5216C4.59425 14.5172 5.96237 14 7.42079 14H12.5792C15.7405 14 18 17.0197 18 20.334V21C18 21.5523 17.5523 22 17 22C16.4477 22 16 21.5523 16 21V20.334C16 17.7564 14.3009 16 12.5792 16H7.42079C6.43774 16 5.59546 16.3438 5.00139 16.9369C4.41159 17.5258 4 18.4272 4 19.668V21C4 21.5523 3.55228 22 3 22C2.44772 22 2 21.5523 2 21V19.668C2 17.9628 2.57807 16.5302 3.58829 15.5216Z" fill="black"/>
<path fill-rule="evenodd" clip-rule="evenodd" d="M20 7C20.5523 7 21 7.44772 21 8V14C21 14.5523 20.5523 15 20 15C19.4477 15 19 14.5523 19 14V8C19 7.44772 19.4477 7 20 7Z" fill="black"/>
<path fill-rule="evenodd" clip-rule="evenodd" d="M24 11C24 11.5523 23.5523 12 23 12H17C16.4477 12 16 11.5523 16 11C16 10.4477 16.4477 10 17 10H23C23.5523 10 24 10.4477 24 11Z" fill="black"/>
</svg>
