<svg width="24" height="24" viewBox="0 0 24 24" fill="none" xmlns="http://www.w3.org/2000/svg">
<path d="M8 2C5.23858 2 3 4.23858 3 7C3 9.76142 5.23858 12 8 12C10.7614 12 13 9.76142 13 7C13 4.23858 10.7614 2 8 2Z" fill="black"/>
<path d="M5.42079 14C3.96237 14 2.59425 14.5172 1.58829 15.5216C0.578067 16.5302 0 17.9628 0 19.668C0 20.9559 1.04407 22 2.332 22H14.334C15.2541 22 16 21.2541 16 20.334C16 17.0197 13.7405 14 10.5792 14H5.42079Z" fill="black"/>
<path d="M23.7064 8.29285C24.0969 8.68339 24.0969 9.31659 23.7064 9.70713L21.4139 11.9998L23.7067 14.2928C24.0972 14.6834 24.0972 15.3166 23.7067 15.7071C23.3162 16.0976 22.6831 16.0976 22.2926 15.7071L19.9998 13.4141L17.707 15.7071C17.3165 16.0976 16.6834 16.0976 16.2929 15.7071C15.9024 15.3166 15.9024 14.6834 16.2929 14.2928L18.5857 11.9998L16.2932 9.70713C15.9027 9.31659 15.9027 8.68339 16.2932 8.29285C16.6837 7.9023 17.3169 7.9023 17.7074 8.29285L19.9998 10.5855L22.2922 8.29285C22.6827 7.9023 23.3159 7.9023 23.7064 8.29285Z" fill="black"/>
</svg>
