<svg width="24" height="24" viewBox="0 0 24 24" fill="none" xmlns="http://www.w3.org/2000/svg">
<g clip-path="url(#clip0_30_22413)">
<path d="M7 7C7 4.23858 9.23858 2 12 2C14.7614 2 17 4.23858 17 7C17 9.76142 14.7614 12 12 12C9.23858 12 7 9.76142 7 7Z" fill="black"/>
<path fill-rule="evenodd" clip-rule="evenodd" d="M16.968 13.5539C17.2863 13.3657 17.633 13.2205 18 13.126V12H20V13.126C20.367 13.2205 20.7135 13.3657 21.0318 13.5537L21.8281 12.7574L23.2423 14.1716L22.4461 14.9679C22.6342 15.2862 22.7795 15.6329 22.874 16H24V18H22.874C22.7795 18.3671 22.6342 18.7138 22.4461 19.0321L23.2425 19.8285L21.8283 21.2427L21.0318 20.4463C20.7136 20.6343 20.367 20.7795 20 20.874V22H18V20.874C17.6329 20.7795 17.2863 20.6342 16.9679 20.4461L16.1714 21.2427L14.9287 20L14.7572 19.8285L15.5538 19.0319C15.3657 18.7136 15.2205 18.367 15.126 18H14V16H15.126C15.2205 15.633 15.3657 15.2864 15.5538 14.9681L14.7573 14.1716L14.8668 14.0622L16.1715 12.7574L16.968 13.5539ZM19 15C18.5621 15 18.1571 15.1407 17.8278 15.3794C17.3262 15.7428 17 16.3333 17 17C17 17.1371 17.0138 17.2709 17.0401 17.4003C17.1327 17.8562 17.3804 18.2559 17.7258 18.5417C18.0718 18.8279 18.5158 19 19 19C19.3155 19 19.6139 18.9269 19.8793 18.7968C20.543 18.4714 21 17.7891 21 17C21 15.8954 20.1046 15 19 15Z" fill="black"/>
<path d="M15.6822 22C14.9121 21.488 14.2671 20.8028 13.8027 20C13.2922 19.1175 13 18.0929 13 17C13 16.6593 13.0284 16.3252 13.083 16C13.2034 15.2821 13.4513 14.6074 13.8027 14H10C6.68629 14 4 16.6863 4 20C4 21.1046 4.89543 22 6 22H15.6822Z" fill="black"/>
</g>
<defs>
<clipPath id="clip0_30_22413">
<rect width="24" height="24" fill="white"/>
</clipPath>
</defs>
</svg>
