<svg width="24" height="24" viewBox="0 0 24 24" fill="none" xmlns="http://www.w3.org/2000/svg">
<g clip-path="url(#clip0_30_22795)">
<path fill-rule="evenodd" clip-rule="evenodd" d="M3 7C3 4.23858 5.23858 2 8 2C10.7614 2 13 4.23858 13 7C13 9.76142 10.7614 12 8 12C5.23858 12 3 9.76142 3 7ZM8 4C6.34315 4 5 5.34315 5 7C5 8.65685 6.34315 10 8 10C9.65685 10 11 8.65685 11 7C11 5.34315 9.65685 4 8 4Z" fill="black"/>
<path d="M1.58829 15.5216C2.59425 14.5172 3.96237 14 5.42079 14H10.5792C13.7405 14 16 17.0197 16 20.334V21C16 21.5523 15.5523 22 15 22C14.4477 22 14 21.5523 14 21V20.334C14 17.7564 12.3009 16 10.5792 16H5.42079C4.43774 16 3.59546 16.3438 3.00139 16.9369C2.41159 17.5258 2 18.4272 2 19.668V21C2 21.5523 1.55228 22 1 22C0.447715 22 0 21.5523 0 21V19.668C0 17.9628 0.578067 16.5302 1.58829 15.5216Z" fill="black"/>
<path d="M23.7682 9.64021C24.1218 9.21593 24.0645 8.58537 23.6402 8.2318C23.2159 7.87824 22.5853 7.93556 22.2318 8.35984L17.9328 13.5186L15.7071 11.2929C15.3166 10.9024 14.6834 10.9024 14.2929 11.2929C13.9024 11.6834 13.9024 12.3166 14.2929 12.7071L17.2929 15.7071C17.4916 15.9058 17.7646 16.0117 18.0453 15.999C18.326 15.9863 18.5884 15.856 18.7682 15.6402L23.7682 9.64021Z" fill="black"/>
</g>
<defs>
<clipPath id="clip0_30_22795">
<rect width="24" height="24" fill="white"/>
</clipPath>
</defs>
</svg>
