<svg width="24" height="24" viewBox="0 0 24 24" fill="none" xmlns="http://www.w3.org/2000/svg">
<path d="M10 2C7.23858 2 5 4.23858 5 7C5 9.76142 7.23858 12 10 12C12.7614 12 15 9.76142 15 7C15 4.23858 12.7614 2 10 2Z" fill="black"/>
<path d="M7.42079 14C5.96237 14 4.59425 14.5172 3.58829 15.5216C2.57807 16.5302 2 17.9628 2 19.668C2 20.9559 3.04407 22 4.332 22H16.334C17.2541 22 18 21.2541 18 20.334C18 17.0197 15.7405 14 12.5792 14H7.42079Z" fill="black"/>
<path fill-rule="evenodd" clip-rule="evenodd" d="M24 11C24 11.5523 23.5523 12 23 12H17C16.4477 12 16 11.5523 16 11C16 10.4477 16.4477 10 17 10H23C23.5523 10 24 10.4477 24 11Z" fill="black"/>
</svg>
