<svg width="24" height="24" viewBox="0 0 24 24" fill="none" xmlns="http://www.w3.org/2000/svg">
<path fill-rule="evenodd" clip-rule="evenodd" d="M11.3283 1.33657L11.3886 1.35494C11.5491 1.40379 11.6753 1.44221 11.7927 1.47157C11.8557 1.48733 11.9047 1.49746 11.9427 1.50349C11.9613 1.50643 11.9753 1.50809 11.9854 1.509C11.9955 1.5099 12 1.50991 12 1.50991C12 1.50991 12.0045 1.5099 12.0146 1.509C12.0247 1.50809 12.0387 1.50643 12.0573 1.50349C12.0953 1.49746 12.1443 1.48733 12.2073 1.47157C12.3247 1.44221 12.4509 1.4038 12.6113 1.35495L12.6717 1.33657L12.7242 1.31988C13.3323 1.12642 14.3438 0.804621 15.4088 1.16177L15.4138 1.16343C16.4887 1.53013 17.121 2.40178 17.508 2.93524L17.5539 2.99846C17.6671 3.15416 17.7567 3.27694 17.8395 3.37901C17.8794 3.42816 17.9115 3.46465 17.937 3.4912C17.9542 3.50922 17.9652 3.51917 17.9699 3.52335C17.9756 3.52709 17.9883 3.53514 18.0105 3.547C18.0422 3.56399 18.0849 3.58443 18.1416 3.60857C18.2592 3.65869 18.3984 3.70894 18.5756 3.77192L18.5789 3.77307L18.6365 3.79371C19.2513 4.01375 20.2464 4.3699 20.9055 5.31337C21.5578 6.24266 21.5774 7.31551 21.5896 7.98542L21.5907 8.04727L21.5919 8.09734C21.596 8.27486 21.5994 8.41571 21.6087 8.54233C21.6135 8.60858 21.6194 8.65946 21.6256 8.69815C21.6315 8.73524 21.6367 8.75282 21.6367 8.75282L21.6406 8.76456C21.6415 8.767 21.6466 8.7811 21.66 8.80852C21.6757 8.8407 21.6983 8.88231 21.7297 8.935C21.7946 9.04365 21.8772 9.16689 21.9808 9.31872L21.9835 9.32269L22.0179 9.37364C22.3795 9.90812 23 10.8254 23 12.0001C23 13.1748 22.3795 14.092 22.0179 14.6265L21.9835 14.6774L21.9808 14.6814C21.8772 14.8333 21.7946 14.9565 21.7297 15.0651C21.6983 15.1178 21.6757 15.1594 21.66 15.1916C21.6444 15.2236 21.6404 15.2358 21.6404 15.2358L21.6368 15.2473C21.6368 15.2473 21.6315 15.2649 21.6256 15.302C21.6194 15.3407 21.6135 15.3916 21.6087 15.4578C21.5994 15.5844 21.5961 15.7251 21.5919 15.9027L21.5907 15.9529L21.5896 16.0147C21.5774 16.6847 21.5579 17.7561 20.9117 18.6845L20.9083 18.6893C20.2449 19.6307 19.2516 19.9862 18.6357 20.2067L18.5789 20.2271L18.5756 20.2282C18.3984 20.2912 18.2592 20.3414 18.1416 20.3916C18.0849 20.4157 18.0422 20.4361 18.0105 20.4531C17.9883 20.465 17.9756 20.4731 17.9699 20.4768C17.9651 20.481 17.9542 20.4909 17.937 20.5089C17.9115 20.5355 17.8794 20.572 17.8395 20.6211C17.7567 20.7232 17.6671 20.846 17.5539 21.0017L17.508 21.0649C17.121 21.5983 16.4887 22.47 15.4138 22.8367L15.4016 22.8408C15.055 22.9541 14.7173 22.9993 14.3909 22.9993C13.722 22.9993 13.1056 22.8023 12.682 22.6669L12.6706 22.6632L12.6113 22.6452C12.4509 22.5963 12.3247 22.5579 12.2073 22.5286C12.1443 22.5128 12.0953 22.5027 12.0573 22.4967C12.0387 22.4937 12.0247 22.492 12.0146 22.4911C12.0045 22.4902 12 22.4902 12 22.4902C12 22.4902 11.9955 22.4902 11.9854 22.4911C11.9753 22.492 11.9613 22.4937 11.9427 22.4967C11.9047 22.5027 11.8557 22.5128 11.7927 22.5286C11.6753 22.5579 11.5491 22.5963 11.3887 22.6452L11.3283 22.6636L11.2758 22.6803C10.6677 22.8737 9.65618 23.1955 8.59116 22.8384L8.58622 22.8367C7.5113 22.47 6.87897 21.5983 6.492 21.0649L6.44583 21.0013C6.33258 20.8456 6.24334 20.7232 6.16049 20.6211C6.1206 20.572 6.08851 20.5355 6.06304 20.5089C6.04576 20.4909 6.03485 20.481 6.03009 20.4768C6.02444 20.473 6.01168 20.465 5.98952 20.4531C5.9578 20.4361 5.91506 20.4157 5.85843 20.3916C5.74085 20.3414 5.60164 20.2912 5.42436 20.2282L5.42111 20.2271L5.36352 20.2064C4.7488 19.9864 3.75381 19.6303 3.09462 18.687C2.44216 17.7576 2.42264 16.6847 2.41045 16.0147L2.40931 15.953L2.40812 15.9028C2.40395 15.7252 2.40064 15.5845 2.39133 15.4578C2.38645 15.3916 2.38064 15.3407 2.37443 15.302C2.36846 15.2648 2.36325 15.2473 2.36325 15.2473L2.35948 15.2356C2.35865 15.2333 2.3535 15.2192 2.34002 15.1916C2.3243 15.1594 2.3017 15.1178 2.27026 15.0651C2.20542 14.9565 2.12277 14.8333 2.01924 14.6814L2.01654 14.6774L1.9821 14.6265C1.62053 14.092 1 13.1748 1 12.0001C1 10.8254 1.62053 9.90812 1.9821 9.37364L2.01654 9.3227L2.01924 9.31872C2.12277 9.16689 2.20542 9.04364 2.27026 8.935C2.3017 8.88231 2.3243 8.8407 2.34002 8.80852C2.35484 8.77817 2.35961 8.76423 2.35961 8.76423L2.36327 8.75283C2.36327 8.75283 2.36846 8.73536 2.37443 8.69815C2.38064 8.65946 2.38645 8.60858 2.39133 8.54233C2.40064 8.41569 2.40395 8.27496 2.40812 8.09739L2.40931 8.04709L2.41045 7.98541C2.42264 7.31543 2.44215 6.24407 3.08832 5.31565L3.09169 5.31084C3.75514 4.36945 4.74841 4.0139 5.36429 3.79344L5.42111 3.77308L5.42436 3.77192C5.60164 3.70894 5.74085 3.65869 5.85843 3.60857C5.91505 3.58443 5.9578 3.56399 5.98952 3.547C6.01168 3.53514 6.02445 3.52709 6.03009 3.52335C6.03485 3.51917 6.04576 3.50922 6.06304 3.4912C6.08851 3.46465 6.1206 3.42816 6.16049 3.37901C6.24334 3.27694 6.33286 3.15416 6.44611 2.99846L6.492 2.93528C6.87897 2.40182 7.5113 1.53015 8.58622 1.16344L8.59116 1.16177C9.65619 0.804621 10.6677 1.12642 11.2758 1.31988L11.3283 1.33657ZM17.7071 8.29295C18.0976 8.68348 18.0976 9.31664 17.7071 9.70717L10.7071 16.7072C10.3166 17.0977 9.68342 17.0977 9.29289 16.7072L6.29289 13.7072C5.90237 13.3166 5.90237 12.6835 6.29289 12.293C6.68342 11.9024 7.31658 11.9024 7.70711 12.293L10 14.5858L16.2929 8.29295C16.6834 7.90243 17.3166 7.90243 17.7071 8.29295Z" fill="black"/>
</svg>
