<svg width="24" height="24" viewBox="0 0 24 24" fill="none" xmlns="http://www.w3.org/2000/svg">
<path fill-rule="evenodd" clip-rule="evenodd" d="M12 2C6.47715 2 2 6.47715 2 12C2 17.5228 6.47715 22 12 22C17.5228 22 22 17.5228 22 12C22 6.47715 17.5228 2 12 2ZM9 6.5C8.17157 6.5 7.5 7.17157 7.5 8C7.5 8.82843 8.17167 9.5 9.0001 9.5C9.82853 9.5 10.5001 8.82843 10.5001 8C10.5001 7.17157 9.82843 6.5 9 6.5ZM15 6.5C14.1716 6.5 13.5 7.17157 13.5 8C13.5 8.82843 14.1717 9.5 15.0001 9.5C15.8285 9.5 16.5001 8.82843 16.5001 8C16.5001 7.17157 15.8284 6.5 15 6.5ZM12 11C13.651 11 15.0684 12.2503 15.6792 14.0348C16.0369 15.0798 15.1046 16 14 16H10C8.89543 16 7.96309 15.0798 8.3208 14.0348C8.9316 12.2503 10.349 11 12 11Z" fill="black"/>
</svg>
