<svg width="24" height="24" viewBox="0 0 24 24" fill="none" xmlns="http://www.w3.org/2000/svg">
<path d="M9 6.5C8.17157 6.5 7.5 7.17157 7.5 8C7.5 8.82843 8.17167 9.5 9.0001 9.5C9.82853 9.5 10.5001 8.82843 10.5001 8C10.5001 7.17157 9.82843 6.5 9 6.5Z" fill="black"/>
<path d="M13.5 8C13.5 7.17157 14.1716 6.5 15 6.5C15.8284 6.5 16.5001 7.17157 16.5001 8C16.5001 8.82843 15.8285 9.5 15.0001 9.5C14.1717 9.5 13.5 8.82843 13.5 8Z" fill="black"/>
<path fill-rule="evenodd" clip-rule="evenodd" d="M8.9995 17C8.17817 17 7.38943 16.6572 6.8707 16.0693C6.3288 15.4551 6.08997 14.5654 6.47206 13.6627C7.38243 11.512 9.51324 10 11.9995 10C14.4858 10 16.6166 11.512 17.5269 13.6627C17.909 14.5654 17.6702 15.4551 17.1283 16.0693C16.6096 16.6572 15.8208 17 14.9995 17H8.9995ZM8.31386 14.4423C8.28101 14.5199 8.28342 14.5679 8.28913 14.5977C8.29586 14.6328 8.31628 14.6848 8.37041 14.7461C8.48645 14.8776 8.71627 15 8.9995 15H14.9995C15.2827 15 15.5126 14.8776 15.6286 14.7461C15.6827 14.6848 15.7032 14.6328 15.7099 14.5977C15.7156 14.5679 15.718 14.5199 15.6852 14.4423C15.0768 13.0052 13.6544 12 11.9995 12C10.3446 12 8.92217 13.0052 8.31386 14.4423Z" fill="black"/>
<path fill-rule="evenodd" clip-rule="evenodd" d="M12 2C6.47715 2 2 6.47715 2 12C2 17.5228 6.47715 22 12 22C17.5228 22 22 17.5228 22 12C22 6.47715 17.5228 2 12 2ZM4 12C4 7.58172 7.58172 4 12 4C16.4183 4 20 7.58172 20 12C20 16.4183 16.4183 20 12 20C7.58172 20 4 16.4183 4 12Z" fill="black"/>
</svg>
