<svg width="24" height="24" viewBox="0 0 24 24" fill="none" xmlns="http://www.w3.org/2000/svg">
<path fill-rule="evenodd" clip-rule="evenodd" d="M7 2C4.23858 2 2 4.23858 2 7V17C2 19.7614 4.23858 22 7 22H17C19.7614 22 22 19.7614 22 17V7C22 4.23858 19.7614 2 17 2H7ZM10.4847 8.82268C9.81817 8.45336 9 8.93538 9 9.69737V14.2508C9 15.0244 9.84072 15.505 10.5073 15.1126L14.4916 12.7668C15.1585 12.3742 15.1458 11.4055 14.4689 11.0304L10.4847 8.82268ZM9.0001 7V5H7V7H9.0001ZM9.0001 19V17H7V19H9.0001ZM13.0001 7V5H11V7H13.0001ZM13.0001 19V17H11V19H13.0001ZM17.0001 7V5H15V7H17.0001ZM17.0001 19V17H15V19H17.0001Z" fill="black"/>
</svg>
