<svg width="24" height="24" viewBox="0 0 24 24" fill="none" xmlns="http://www.w3.org/2000/svg">
<path fill-rule="evenodd" clip-rule="evenodd" d="M6 4C3.23858 4 1 6.23858 1 9V15C1 17.7614 3.23858 20 6 20H14C16.0146 20 17.7509 18.8085 18.5427 17.0918L21.4855 18.8575C21.7944 19.0429 22.1792 19.0477 22.4927 18.8702C22.8062 18.6927 23 18.3603 23 18V6C23 5.63973 22.8062 5.30731 22.4927 5.1298C22.1792 4.95229 21.7944 4.95715 21.4855 5.14251L18.5427 6.90817C17.7509 5.19146 16.0146 4 14 4H6ZM5.5 10C5.5 9.17157 6.17157 8.5 7 8.5C7.82843 8.5 8.5001 9.17157 8.5001 10C8.5001 10.8284 7.82853 11.5 7.0001 11.5C6.17167 11.5 5.5 10.8284 5.5 10Z" fill="black"/>
</svg>
