<svg width="24" height="24" viewBox="0 0 24 24" fill="none" xmlns="http://www.w3.org/2000/svg">
<path fill-rule="evenodd" clip-rule="evenodd" d="M15 0C15.5523 0 16 0.447715 16 1V1.5C16 2.88071 14.8807 4 13.5 4C13.2239 4 13 4.22386 13 4.5V5H17C20.3137 5 23 7.68629 23 11V13C23 16.3137 20.3137 19 17 19H7C3.68629 19 1 16.3137 1 13V11C1 7.68629 3.68629 5 7 5H11V4.5C11 3.11929 12.1193 2 13.5 2C13.7761 2 14 1.77614 14 1.5V1C14 0.447715 14.4477 0 15 0ZM8 9C8.55228 9 9 9.44771 9 10V11H10C10.5523 11 11 11.4477 11 12C11 12.5523 10.5523 13 10 13H9V14C9 14.5523 8.55228 15 8 15C7.44772 15 7 14.5523 7 14V13H6C5.44772 13 5 12.5523 5 12C5 11.4477 5.44772 11 6 11H7V10C7 9.44771 7.44772 9 8 9ZM14 11C13.4477 11 13 11.4477 13 12C13 12.5523 13.4478 13 14.0001 13C14.5524 13 15.0001 12.5523 15.0001 12C15.0001 11.4477 14.5523 11 14 11ZM16 9C16.5523 9 17 9.44771 17 10C17 10.5523 16.5523 11.0001 16 11.0001C15.4477 11.0001 15 10.5524 15 10.0001C15 9.44781 15.4477 9 16 9ZM18 11C17.4477 11 17 11.4477 17 12C17 12.5523 17.4478 13 18.0001 13C18.5524 13 19.0001 12.5523 19.0001 12C19.0001 11.4477 18.5523 11 18 11ZM16 13C16.5523 13 17 13.4477 17 14C17 14.5523 16.5523 15.0001 16 15.0001C15.4477 15.0001 15 14.5524 15 14.0001C15 13.4478 15.4477 13 16 13Z" fill="black"/>
</svg>
