<svg width="24" height="24" viewBox="0 0 24 24" fill="none" xmlns="http://www.w3.org/2000/svg">
<path d="M9 10C9 9.44771 8.55228 9 8 9C7.44772 9 7 9.44771 7 10V11H6C5.44772 11 5 11.4477 5 12C5 12.5523 5.44772 13 6 13H7V14C7 14.5523 7.44772 15 8 15C8.55228 15 9 14.5523 9 14V13H10C10.5523 13 11 12.5523 11 12C11 11.4477 10.5523 11 10 11H9V10Z" fill="black"/>
<path d="M13 12C13 11.4477 13.4477 11 14 11C14.5523 11 15.0001 11.4477 15.0001 12C15.0001 12.5523 14.5524 13 14.0001 13C13.4478 13 13 12.5523 13 12Z" fill="black"/>
<path d="M17 10C17 9.44771 16.5523 9 16 9C15.4477 9 15 9.44781 15 10.0001C15 10.5524 15.4477 11.0001 16 11.0001C16.5523 11.0001 17 10.5523 17 10Z" fill="black"/>
<path d="M17 12C17 11.4477 17.4477 11 18 11C18.5523 11 19.0001 11.4477 19.0001 12C19.0001 12.5523 18.5524 13 18.0001 13C17.4478 13 17 12.5523 17 12Z" fill="black"/>
<path d="M17 14C17 13.4477 16.5523 13 16 13C15.4477 13 15 13.4478 15 14.0001C15 14.5524 15.4477 15.0001 16 15.0001C16.5523 15.0001 17 14.5523 17 14Z" fill="black"/>
<path fill-rule="evenodd" clip-rule="evenodd" d="M16 1C16 0.447715 15.5523 0 15 0C14.4477 0 14 0.447715 14 1V1.5C14 1.77614 13.7761 2 13.5 2C12.1193 2 11 3.11929 11 4.5V5H7C3.68629 5 1 7.68629 1 11V13C1 16.3137 3.68629 19 7 19H17C20.3137 19 23 16.3137 23 13V11C23 7.68629 20.3137 5 17 5H13V4.5C13 4.22386 13.2239 4 13.5 4C14.8807 4 16 2.88071 16 1.5V1ZM21 11C21 8.79086 19.2091 7 17 7H7C4.79086 7 3 8.79086 3 11V13C3 15.2091 4.79086 17 7 17H17C19.2091 17 21 15.2091 21 13V11Z" fill="black"/>
</svg>
