<svg width="24" height="24" viewBox="0 0 24 24" fill="none" xmlns="http://www.w3.org/2000/svg">
<path fill-rule="evenodd" clip-rule="evenodd" d="M7 5H9.0001V7H7V5Z" fill="black"/>
<path fill-rule="evenodd" clip-rule="evenodd" d="M7 17H9.0001V19H7V17Z" fill="black"/>
<path d="M9 14.2508V9.69737C9 8.93538 9.81817 8.45336 10.4847 8.82268L14.4689 11.0304C15.1458 11.4055 15.1585 12.3742 14.4916 12.7668L10.5073 15.1126C9.84072 15.505 9 15.0244 9 14.2508Z" fill="black"/>
<path fill-rule="evenodd" clip-rule="evenodd" d="M11 5H13.0001V7H11V5Z" fill="black"/>
<path fill-rule="evenodd" clip-rule="evenodd" d="M11 17H13.0001V19H11V17Z" fill="black"/>
<path fill-rule="evenodd" clip-rule="evenodd" d="M15 5H17.0001V7H15V5Z" fill="black"/>
<path fill-rule="evenodd" clip-rule="evenodd" d="M15 17H17.0001V19H15V17Z" fill="black"/>
<path fill-rule="evenodd" clip-rule="evenodd" d="M2 7C2 4.23858 4.23858 2 7 2H17C19.7614 2 22 4.23858 22 7V17C22 19.7614 19.7614 22 17 22H7C4.23858 22 2 19.7614 2 17V7ZM7 4C5.34315 4 4 5.34315 4 7V17C4 18.6569 5.34315 20 7 20H17C18.6569 20 20 18.6569 20 17V7C20 5.34315 18.6569 4 17 4H7Z" fill="black"/>
</svg>
