<svg width="24" height="24" viewBox="0 0 24 24" fill="none" xmlns="http://www.w3.org/2000/svg">
<path fill-rule="evenodd" clip-rule="evenodd" d="M1 9C1 6.23858 3.23858 4 6 4H14C16.7614 4 19 6.23858 19 9V15C19 17.7614 16.7614 20 14 20H6C3.23858 20 1 17.7614 1 15V9ZM6 6C4.34315 6 3 7.34315 3 9V15C3 16.6569 4.34315 18 6 18H14C15.6569 18 17 16.6569 17 15V9C17 7.34315 15.6569 6 14 6H6Z" fill="black"/>
<path fill-rule="evenodd" clip-rule="evenodd" d="M22.4927 5.1298C22.8062 5.30731 23 5.63973 23 6V18C23 18.3603 22.8062 18.6927 22.4927 18.8702C22.1792 19.0477 21.7944 19.0429 21.4855 18.8575L17.4855 16.4575C17.1843 16.2768 17 15.9513 17 15.6V8.4C17 8.04874 17.1843 7.72323 17.4855 7.54251L21.4855 5.14251C21.7944 4.95715 22.1792 4.95229 22.4927 5.1298ZM19 8.96619V15.0338L21 16.2338V7.76619L19 8.96619Z" fill="black"/>
<path fill-rule="evenodd" clip-rule="evenodd" d="M5.5 10C5.5 9.17157 6.17157 8.5 7 8.5C7.82843 8.5 8.5001 9.17157 8.5001 10C8.5001 10.8284 7.82853 11.5 7.0001 11.5C6.17167 11.5 5.5 10.8284 5.5 10Z" fill="black"/>
</svg>
