<svg width="24" height="24" viewBox="0 0 24 24" fill="none" xmlns="http://www.w3.org/2000/svg">
<path fill-rule="evenodd" clip-rule="evenodd" d="M3.29289 3.29289C3.68342 2.90237 4.31658 2.90237 4.70711 3.29289L5.76493 4.35071L6.10888 4.69467L7.5725 6.15829L9.60388 8.18967L12.312 10.8978L13.101 11.6868L15.8091 14.3949L18.1184 16.7042L19.5395 18.1253L20.1493 18.7351L20.7071 19.2929C21.0976 19.6834 21.0976 20.3166 20.7071 20.7071C20.3166 21.0976 19.6834 21.0976 19.2929 20.7071L3.29289 4.70711C2.90237 4.31658 2.90237 3.68342 3.29289 3.29289Z" fill="black"/>
<path fill-rule="evenodd" clip-rule="evenodd" d="M5.356 16.2563C3.79993 14.8576 2.69862 13.2042 2.10327 12C2.69862 10.7958 3.79993 9.14243 5.356 7.74371C5.93768 7.22086 6.57615 6.73923 7.26962 6.33028L9.32192 8.38258C8.21581 9.20249 7.49878 10.5176 7.49878 12C7.49878 14.485 9.51378 16.5 11.9988 16.5C13.4812 16.5 14.7963 15.783 15.6162 14.6769L17.8523 16.913C16.2522 18.1332 14.2916 19 12 19C9.31519 19 7.08474 17.8102 5.356 16.2563ZM18.9924 15.9318C20.3653 14.6077 21.3468 13.1123 21.8967 12C21.3014 10.7958 20.2001 9.14243 18.644 7.74371C16.9153 6.18978 14.6848 5 12 5C10.8066 5 9.70303 5.23507 8.69335 5.63269L7.17554 4.11488C8.59063 3.43398 10.2029 3 12 3C15.3152 3 18.0014 4.47688 19.981 6.25629C21.9523 8.02823 23.2819 10.1496 23.9162 11.5992C24.0279 11.8547 24.0279 12.1453 23.9162 12.4008C23.3287 13.7435 22.1447 15.6624 20.4069 17.3462L18.9924 15.9318ZM20.1493 18.7351C19.9112 18.7832 19.6543 18.7149 19.4697 18.5303L19.2774 18.3381C17.3815 19.8403 14.9377 21 12 21C8.68481 21 5.99859 19.5231 4.019 17.7437C2.04771 15.9718 0.718055 13.8504 0.0838426 12.4008C-0.0279475 12.1453 -0.0279475 11.8547 0.0838426 11.5992C0.718055 10.1496 2.04771 8.02823 4.019 6.25629C4.57218 5.75904 5.18055 5.28542 5.8424 4.86105C5.75604 4.70393 5.73022 4.52242 5.76493 4.35071L6.10888 4.69467L7.5725 6.15829L9.60388 8.18967L12.312 10.8978C12.5045 11.2225 12.7763 11.4943 13.101 11.6868L15.8091 14.3949L18.1184 16.7042L19.5395 18.1253L20.1493 18.7351Z" fill="black"/>
<path d="M10.7393 7.67867C10.3344 7.79653 9.95296 7.96978 9.60388 8.18967L12.312 10.8978C12.1129 10.562 11.9988 10.1696 11.9988 9.75C11.9988 9.5049 12.038 9.26971 12.1105 9.04988L10.7393 7.67867Z" fill="black"/>
<path d="M13.3038 7.715C12.8888 7.59 12.4588 7.5 11.9988 7.5C11.5616 7.5 11.139 7.56236 10.7393 7.67867L12.1105 9.04988C12.3058 8.458 12.7423 7.9775 13.3038 7.715Z" fill="black"/>
<path d="M13.101 11.6868L15.8091 14.3949C16.029 14.0458 16.2023 13.6644 16.3201 13.2594L14.9489 11.8882C14.7291 11.9608 14.4939 12 14.2488 12C13.8292 12 13.4368 11.8858 13.101 11.6868Z" fill="black"/>
<path d="M16.4988 12C16.4988 11.545 16.4088 11.11 16.2838 10.695C16.0213 11.2565 15.5408 11.693 14.9489 11.8882L16.3201 13.2594C16.4364 12.8598 16.4988 12.4372 16.4988 12Z" fill="black"/>
</svg>
