<svg width="24" height="24" viewBox="0 0 24 24" fill="none" xmlns="http://www.w3.org/2000/svg">
<path fill-rule="evenodd" clip-rule="evenodd" d="M12 3C8.68481 3 5.99859 4.47688 4.019 6.25629C2.04771 8.02823 0.718055 10.1496 0.0838426 11.5992C-0.0279475 11.8547 -0.0279475 12.1453 0.0838426 12.4008C0.718055 13.8504 2.04771 15.9718 4.019 17.7437C5.99859 19.5231 8.68481 21 12 21C15.3152 21 18.0014 19.5231 19.981 17.7437C21.9523 15.9718 23.2819 13.8504 23.9162 12.4008C24.0279 12.1453 24.0279 11.8547 23.9162 11.5992C23.2819 10.1496 21.9523 8.02823 19.981 6.25629C18.0014 4.47688 15.3152 3 12 3ZM14.2488 12C13.0038 12 11.9988 10.995 11.9988 9.75C11.9988 8.845 12.5338 8.075 13.3038 7.715C12.8888 7.59 12.4588 7.5 11.9988 7.5C9.51378 7.5 7.49878 9.515 7.49878 12C7.49878 14.485 9.51378 16.5 11.9988 16.5C14.4838 16.5 16.4988 14.485 16.4988 12C16.4988 11.545 16.4088 11.11 16.2838 10.695C15.9238 11.465 15.1538 12 14.2488 12Z" fill="black"/>
</svg>
