<svg width="24" height="24" viewBox="0 0 24 24" fill="none" xmlns="http://www.w3.org/2000/svg">
<path d="M11.999 9.75C11.999 10.995 13.004 12 14.249 12C15.154 12 15.924 11.465 16.284 10.695C16.409 11.11 16.499 11.545 16.499 12C16.499 14.485 14.484 16.5 11.999 16.5C9.51402 16.5 7.49902 14.485 7.49902 12C7.49902 9.515 9.51402 7.5 11.999 7.5C12.459 7.5 12.889 7.59 13.304 7.715C12.534 8.075 11.999 8.845 11.999 9.75Z" fill="black"/>
<path fill-rule="evenodd" clip-rule="evenodd" d="M12 3C8.68481 3 5.99859 4.47688 4.019 6.25629C2.04771 8.02823 0.718055 10.1496 0.0838426 11.5992C-0.0279475 11.8547 -0.0279475 12.1453 0.0838426 12.4008C0.718055 13.8504 2.04771 15.9718 4.019 17.7437C5.99859 19.5231 8.68481 21 12 21C15.3152 21 18.0014 19.5231 19.981 17.7437C21.9523 15.9718 23.2819 13.8504 23.9162 12.4008C24.0279 12.1453 24.0279 11.8547 23.9162 11.5992C23.2819 10.1496 21.9523 8.02823 19.981 6.25629C18.0014 4.47688 15.3152 3 12 3ZM5.356 16.2563C3.79993 14.8576 2.69862 13.2042 2.10327 12C2.69862 10.7958 3.79993 9.14243 5.356 7.74371C7.08474 6.18978 9.31519 5 12 5C14.6848 5 16.9153 6.18978 18.644 7.74371C20.2001 9.14243 21.3014 10.7958 21.8967 12C21.3014 13.2042 20.2001 14.8576 18.644 16.2563C16.9153 17.8102 14.6848 19 12 19C9.31519 19 7.08474 17.8102 5.356 16.2563Z" fill="black"/>
</svg>
