<svg width="24" height="24" viewBox="0 0 24 24" fill="none" xmlns="http://www.w3.org/2000/svg">
<path d="M8 6C8 3.79086 9.79086 2 12 2C14.2091 2 16 3.79086 16 6V13C16 15.2091 14.2091 17 12 17C9.79086 17 8 15.2091 8 13V6Z" fill="black"/>
<path d="M5 13C5 16.5265 7.60771 19.4439 11 19.9291V21C11 21.5523 11.4477 22 12 22C12.5523 22 13 21.5523 13 21V19.9291C16.3923 19.4439 19 16.5265 19 13C19 12.4477 18.5523 12 18 12C17.4477 12 17 12.4477 17 13C17 15.7614 14.7614 18 12 18C9.23858 18 7 15.7614 7 13C7 12.4477 6.55228 12 6 12C5.44772 12 5 12.4477 5 13Z" fill="black"/>
</svg>
