<svg width="24" height="24" viewBox="0 0 24 24" fill="none" xmlns="http://www.w3.org/2000/svg">
<path d="M14.2597 4C13.8645 4 13.4811 4.13449 13.1725 4.38136L9.18643 7.57023C8.83868 7.84843 8.40659 8 7.96125 8C5.77351 8 4 9.77351 4 11.9612V12.0388C4 14.2265 5.77351 16 7.96125 16C8.40659 16 8.83868 16.1516 9.18643 16.4298L13.1725 19.6186C13.4811 19.8655 13.8645 20 14.2597 20C15.2208 20 16 19.2208 16 18.2597V5.74031C16 4.77916 15.2208 4 14.2597 4Z" fill="black"/>
<path d="M19.7162 13.9323C19.2888 15.2288 18 14.5903 18 13.2251V10.7749C18 9.40974 19.2888 8.77117 19.7162 10.0677C19.8895 10.5934 20 11.2323 20 12C20 12.7677 19.8895 13.4066 19.7162 13.9323Z" fill="black"/>
</svg>
