<svg width="24" height="24" viewBox="0 0 24 24" fill="none" xmlns="http://www.w3.org/2000/svg">
<path d="M18.5301 4.1522C18.0618 3.85943 17.4448 4.00173 17.1521 4.47003C16.8593 4.93832 17.0016 5.55529 17.4699 5.84806C19.6172 7.19051 21 9.45864 21 12.0001C21 14.5416 19.6172 16.8098 17.4699 18.1522C17.0016 18.445 16.8593 19.0619 17.1521 19.5302C17.4448 19.9985 18.0618 20.1408 18.5301 19.8481C21.2028 18.1771 23 15.2982 23 12.0001C23 8.70206 21.2028 5.82312 18.5301 4.1522Z" fill="black"/>
<path d="M12.2597 4.00013C11.8645 4.00013 11.4811 4.13463 11.1725 4.38149L7.18643 7.57036C6.83868 7.84857 6.40659 8.00013 5.96125 8.00013C3.77351 8.00013 2 9.77365 2 11.9614V12.0389C2 14.2266 3.77351 16.0001 5.96125 16.0001C6.40659 16.0001 6.83868 16.1517 7.18643 16.4299L11.1725 19.6188C11.4811 19.8656 11.8645 20.0001 12.2597 20.0001C13.2208 20.0001 14 19.221 14 18.2598V5.74045C14 4.7793 13.2208 4.00013 12.2597 4.00013Z" fill="black"/>
<path d="M17.7162 13.9325C17.2888 15.229 16 14.5904 16 13.2253V10.775C16 9.40987 17.2888 8.7713 17.7162 10.0678C17.8895 10.5936 18 11.2324 18 12.0001C18 12.7679 17.8895 13.4067 17.7162 13.9325Z" fill="black"/>
</svg>
