<svg width="24" height="24" viewBox="0 0 24 24" fill="none" xmlns="http://www.w3.org/2000/svg">
<path fill-rule="evenodd" clip-rule="evenodd" d="M13.1725 4.38136C13.4811 4.13449 13.8645 4 14.2597 4C15.2208 4 16 4.77916 16 5.74031V18.2597C16 19.2208 15.2208 20 14.2597 20C13.8645 20 13.4811 19.8655 13.1725 19.6186L9.18643 16.4298C8.83868 16.1516 8.40659 16 7.96125 16C5.77351 16 4 14.2265 4 12.0388V11.9612C4 9.77351 5.77351 8 7.96125 8C8.40659 8 8.83868 7.84843 9.18643 7.57023L13.1725 4.38136ZM14 6.28062L10.4358 9.13197C9.73344 9.69387 8.86074 10 7.96125 10C6.87808 10 6 10.8781 6 11.9612V12.0388C6 13.1219 6.87808 14 7.96125 14C8.86074 14 9.73344 14.3061 10.4358 14.868L14 17.7194V6.28062Z" fill="black"/>
<path d="M18 13.2251V10.7749C18 9.40974 19.2888 8.77117 19.7162 10.0677C19.8895 10.5934 20 11.2323 20 12C20 12.7677 19.8895 13.4066 19.7162 13.9323C19.2888 15.2288 18 14.5903 18 13.2251Z" fill="black"/>
</svg>
