<svg width="24" height="24" viewBox="0 0 24 24" fill="none" xmlns="http://www.w3.org/2000/svg">
<path fill-rule="evenodd" clip-rule="evenodd" d="M17.1521 4.47003C17.4448 4.00173 18.0618 3.85943 18.5301 4.1522C21.2028 5.82312 23 8.70206 23 12.0001C23 15.2982 21.2028 18.1771 18.5301 19.8481C18.0618 20.1408 17.4448 19.9985 17.1521 19.5302C16.8593 19.0619 17.0016 18.445 17.4699 18.1522C19.6172 16.8098 21 14.5416 21 12.0001C21 9.45864 19.6172 7.19051 17.4699 5.84806C17.0016 5.55529 16.8593 4.93832 17.1521 4.47003Z" fill="black"/>
<path fill-rule="evenodd" clip-rule="evenodd" d="M11.1725 4.38149C11.4811 4.13463 11.8645 4.00013 12.2597 4.00013C13.2208 4.00013 14 4.7793 14 5.74045V18.2598C14 19.221 13.2208 20.0001 12.2597 20.0001C11.8645 20.0001 11.4811 19.8656 11.1725 19.6188L7.18643 16.4299C6.83868 16.1517 6.40659 16.0001 5.96125 16.0001C3.77351 16.0001 2 14.2266 2 12.0389V11.9614C2 9.77365 3.77351 8.00013 5.96125 8.00013C6.40659 8.00013 6.83868 7.84857 7.18643 7.57036L11.1725 4.38149ZM12 6.28076L8.43582 9.1321C7.73344 9.69401 6.86074 10.0001 5.96125 10.0001C4.87808 10.0001 4 10.8782 4 11.9614V12.0389C4 13.1221 4.87808 14.0001 5.96125 14.0001C6.86074 14.0001 7.73344 14.3063 8.43582 14.8682L12 17.7195V6.28076Z" fill="black"/>
<path d="M16 13.2253V10.775C16 9.40987 17.2888 8.7713 17.7162 10.0678C17.8895 10.5936 18 11.2324 18 12.0001C18 12.7679 17.8895 13.4067 17.7162 13.9325C17.2888 15.229 16 14.5904 16 13.2253Z" fill="black"/>
</svg>
