<svg width="24" height="24" viewBox="0 0 24 24" fill="none" xmlns="http://www.w3.org/2000/svg">
<path fill-rule="evenodd" clip-rule="evenodd" d="M11.1725 4.38136C11.4811 4.13449 11.8645 4 12.2597 4C13.2208 4 14 4.77916 14 5.74031V18.2597C14 19.2208 13.2208 20 12.2597 20C11.8645 20 11.4811 19.8655 11.1725 19.6186L7.18643 16.4298C6.83868 16.1516 6.40659 16 5.96125 16C3.77351 16 2 14.2265 2 12.0388V11.9612C2 9.77351 3.77351 8 5.96125 8C6.40659 8 6.83868 7.84843 7.18643 7.57023L11.1725 4.38136ZM12 6.28062L8.43582 9.13197C7.73344 9.69387 6.86074 10 5.96125 10C4.87808 10 4 10.8781 4 11.9612V12.0388C4 13.1219 4.87808 14 5.96125 14C6.86074 14 7.73344 14.3061 8.43582 14.868L12 17.7194V6.28062Z" fill="black"/>
<path fill-rule="evenodd" clip-rule="evenodd" d="M23.7071 8.29302C24.0976 8.68354 24.0976 9.3167 23.7071 9.70723L17.7071 15.7072C17.3166 16.0978 16.6834 16.0978 16.2929 15.7072C15.9024 15.3167 15.9024 14.6835 16.2929 14.293L22.2929 8.29302C22.6834 7.90249 23.3166 7.90249 23.7071 8.29302Z" fill="black"/>
<path fill-rule="evenodd" clip-rule="evenodd" d="M23.7071 15.7072C23.3166 16.0978 22.6834 16.0978 22.2929 15.7072L16.2929 9.70723C15.9024 9.3167 15.9024 8.68354 16.2929 8.29302C16.6834 7.90249 17.3166 7.90249 17.7071 8.29302L23.7071 14.293C24.0976 14.6835 24.0976 15.3167 23.7071 15.7072Z" fill="black"/>
</svg>
