<svg width="24" height="24" viewBox="0 0 24 24" fill="none" xmlns="http://www.w3.org/2000/svg">
<path fill-rule="evenodd" clip-rule="evenodd" d="M12 20C16.4183 20 20 16.4183 20 12C20 7.58172 16.4183 4 12 4C7.58172 4 4 7.58172 4 12C4 16.4183 7.58172 20 12 20ZM22 12C22 17.5228 17.5228 22 12 22C6.47715 22 2 17.5228 2 12C2 6.47715 6.47715 2 12 2C17.5228 2 22 6.47715 22 12Z" fill="black"/>
<path fill-rule="evenodd" clip-rule="evenodd" d="M15.219 6.83827C15.5845 6.4242 16.2164 6.38479 16.6305 6.75026C17.5139 7.52998 18.1998 8.53028 18.6015 9.66677C18.7855 10.1875 18.5126 10.7588 17.9919 10.9429C17.4712 11.1269 16.8998 10.854 16.7158 10.3333C16.4297 9.52373 15.94 8.8084 15.307 8.24974C14.893 7.88428 14.8535 7.25234 15.219 6.83827Z" fill="black"/>
<path fill-rule="evenodd" clip-rule="evenodd" d="M12 11.5C11.7239 11.5 11.5 11.7239 11.5 12C11.5 12.2761 11.7239 12.5 12 12.5C12.2761 12.5 12.5 12.2761 12.5 12C12.5 11.7239 12.2761 11.5 12 11.5ZM8.5 12C8.5 10.067 10.067 8.5 12 8.5C13.933 8.5 15.5 10.067 15.5 12C15.5 13.933 13.933 15.5 12 15.5C10.067 15.5 8.5 13.933 8.5 12Z" fill="black"/>
</svg>
