<svg width="24" height="24" viewBox="0 0 24 24" fill="none" xmlns="http://www.w3.org/2000/svg">
<path d="M18 14C18 13.4477 18.4477 13 19 13C19.5523 13 20.0001 13.4477 20.0001 14C20.0001 14.5523 19.5524 15 19.0001 15C18.4478 15 18 14.5523 18 14Z" fill="black"/>
<path fill-rule="evenodd" clip-rule="evenodd" d="M2 5C2 3.34315 3.34315 2 5 2H15C16.6569 2 18 3.34315 18 5V6H19C20.6569 6 22 7.34315 22 9V10.7639C22.6137 11.3132 23 12.1115 23 13V15C23 15.8885 22.6137 16.6868 22 17.2361V19C22 20.6569 20.6569 22 19 22H5C3.34315 22 2 20.6569 2 19V5ZM4 5C4 4.44772 4.44772 4 5 4H15C15.5523 4 16 4.44772 16 5V6H5C4.44772 6 4 5.55228 4 5ZM15.45 12.4C15.6389 12.1482 15.9352 12 16.25 12H20C20.5523 12 21 12.4477 21 13V15C21 15.5523 20.5523 16 20 16H16.25C15.9352 16 15.6389 15.8518 15.45 15.6L14.7 14.6C14.4333 14.2444 14.4333 13.7556 14.7 13.4L15.45 12.4Z" fill="black"/>
</svg>
