<svg width="24" height="24" viewBox="0 0 24 24" fill="none" xmlns="http://www.w3.org/2000/svg">
<path fill-rule="evenodd" clip-rule="evenodd" d="M12 8C12.5523 8 13 8.41328 13 8.92308V13.0769C13 13.5867 12.5523 14 12 14C11.4477 14 11 13.5867 11 13.0769V8.92308C11 8.41328 11.4477 8 12 8Z" fill="black"/>
<path fill-rule="evenodd" clip-rule="evenodd" d="M12 16C12.5523 16 13 16.4477 13 17C13 17.5523 12.5523 18.0001 12 18.0001C11.4477 18.0001 11 17.5524 11 17.0001C11 16.4478 11.4477 16 12 16Z" fill="black"/>
<path fill-rule="evenodd" clip-rule="evenodd" d="M12.8801 4.50864C12.496 3.83525 11.5253 3.83472 11.1404 4.5077L3.13996 18.4979C2.7581 19.1656 3.24026 19.9967 4.00952 19.9967H19.9905C20.7593 19.9967 21.2415 19.1665 20.8606 18.4988L12.8801 4.50864ZM9.40131 3.51327C10.5559 1.49433 13.4679 1.49589 14.6203 3.51607L22.6008 17.5062C23.7435 19.5095 22.2968 22 19.9905 22H4.00952C1.70175 22 0.255248 19.5067 1.40084 17.5034L9.40131 3.51327Z" fill="black"/>
</svg>
