<svg width="24" height="24" viewBox="0 0 24 24" fill="none" xmlns="http://www.w3.org/2000/svg">
<path d="M13 9C13 8.44772 12.5523 8 12 8C11.4477 8 11 8.44772 11 9V12C11 12.2652 11.1054 12.5196 11.2929 12.7071L13.2929 14.7071C13.6834 15.0976 14.3166 15.0976 14.7071 14.7071C15.0976 14.3166 15.0976 13.6834 14.7071 13.2929L13 11.5858V9Z" fill="black"/>
<path fill-rule="evenodd" clip-rule="evenodd" d="M6.07168 6.62823L7.56864 2.88583C8.02423 1.74685 9.12735 1 10.3541 1H13.6459C14.8726 1 15.9758 1.74685 16.4314 2.88583L17.9283 6.62823C19.2157 8.04809 20 9.93245 20 12C20 14.0675 19.2157 15.9519 17.9283 17.3718L16.4314 21.1142C15.9758 22.2531 14.8726 23 13.6459 23H10.3541C9.12735 23 8.02423 22.2531 7.56864 21.1142L6.07168 17.3718C4.78433 15.9519 4 14.0675 4 12C4 9.93245 4.78433 8.04809 6.07168 6.62823ZM8.95383 6.82967C9.63394 6.5046 10.6328 6.2 12 6.2C13.3672 6.2 14.3661 6.5046 15.0462 6.82968C16.8141 7.87352 18 9.79827 18 12C18 14.2017 16.8141 16.1265 15.0462 17.1703C14.3661 17.4954 13.3672 17.8 12 17.8C10.6328 17.8 9.63393 17.4954 8.95382 17.1703C7.18591 16.1265 6 14.2017 6 12C6 9.79826 7.18592 7.87351 8.95383 6.82967Z" fill="black"/>
</svg>
