<svg width="24" height="24" viewBox="0 0 24 24" fill="none" xmlns="http://www.w3.org/2000/svg">
<path d="M11.3496 1.02213C10.326 1.0912 9.33979 1.32016 8.41653 1.68389C8.36163 1.69671 8.30612 1.71878 8.25007 1.75122C8.24805 1.7788 7.99154 4.12738 7.98717 4.15519C7.09036 9.86128 8.37686 12.7849 9.2148 14.0168C10.4117 12.6526 10.8612 11.4322 11.0299 10.7574C11.0446 10.6985 11.0643 10.6421 11.0884 10.5886C10.5016 9.18342 9.91993 6.65015 10.8546 3.08132C10.8929 2.93497 10.9558 2.66552 11.0292 2.35119C11.1284 1.92575 11.2469 1.41806 11.3496 1.02213Z" fill="black"/>
<path d="M3.55481 21.8321C3.09528 22.1384 2.47441 22.0142 2.16806 21.5547C1.8617 21.0952 1.98588 20.4743 2.44541 20.1679L5.44541 18.1679C5.78131 17.944 6.21891 17.944 6.55481 18.1679L9.00011 19.7981L11.4454 18.1679C11.7813 17.944 12.2189 17.944 12.5548 18.1679L15.0001 19.7981L17.4454 18.1679C17.7813 17.944 18.2189 17.944 18.5548 18.1679L21.5548 20.1679C22.0143 20.4743 22.1385 21.0952 21.8322 21.5547C21.5258 22.0142 20.9049 22.1384 20.4454 21.8321L18.0001 20.2018L15.5548 21.8321C15.2189 22.056 14.7813 22.056 14.4454 21.8321L12.0001 20.2018L9.55481 21.8321C9.21891 22.056 8.78131 22.056 8.44541 21.8321L6.00011 20.2018L3.55481 21.8321Z" fill="black"/>
<path d="M22 10.9999C22 10.67 21.984 10.3438 21.9528 10.0221C21.955 9.99441 21.9521 9.96472 21.9437 9.93277C21.9437 9.93277 19.6221 8.92827 19.5652 8.90088C15.883 7.12759 13.4534 7.56287 12.4384 7.90561C12.5549 8.81113 12.7859 9.48775 12.9833 9.93277C14.6056 9.766 17.0241 9.9576 19.9854 11.4866C20.0657 11.5281 20.2809 11.6362 20.5539 11.7734L20.5603 11.7766C20.9613 11.9782 21.486 12.2418 21.8955 12.4511C21.9643 11.9773 22 11.4928 22 10.9999Z" fill="black"/>
<path d="M18.4693 6.29285C15.7743 5.38264 13.7166 5.51601 12.3983 5.83741C12.4643 5.01543 12.629 4.08752 12.9395 3.05453C12.9668 2.96354 13.0437 2.67325 13.1328 2.33695C13.252 1.88682 13.3931 1.35411 13.4665 1.10671C17.11 1.64214 20.1146 4.14253 21.3693 7.49699C20.2752 7.01976 18.8809 6.43184 18.4693 6.29285Z" fill="black"/>
<path d="M7.75392 15.4122C7.30001 15.7801 6.7851 16.1487 6.20099 16.511C6.17808 16.5252 5.98903 16.6292 5.74132 16.7649C5.39449 16.805 5.05496 16.926 4.75217 17.1279L4.32599 17.412L4.28351 17.3609C4.20775 17.2691 4.13359 17.1759 4.06108 17.0814C2.76834 15.3963 2 13.2879 2 10.9999C2 7.74744 3.61883 4.82258 6.07756 2.98848C5.94173 4.14426 5.78949 5.56201 5.75525 5.99917C5.35278 11.1366 6.71008 14.0165 7.75392 15.4122Z" fill="black"/>
<path d="M8.06937 17.6753C10.9589 15.66 12.211 13.4747 12.7448 11.9823C13.3212 11.884 14.1284 11.8281 15.1346 11.9631C15.044 12.9416 14.6441 14.858 12.9992 16.9839C12.2851 16.6298 11.4273 16.6778 10.7522 17.1279L9.00024 18.2958L8.06937 17.6753Z" fill="black"/>
<path d="M14.6783 18.0812C16.381 15.8304 16.9325 13.7341 17.0959 12.4248C17.8591 12.6788 18.692 13.0399 19.587 13.5439C19.6253 13.5655 20.0177 13.7603 20.4375 13.9686L20.4392 13.9694C20.8108 14.1539 21.204 14.349 21.3912 14.4437C20.991 15.5348 20.406 16.5368 19.6742 17.4118L19.2483 17.1279C18.4925 16.624 17.5079 16.624 16.7522 17.1279L15.0002 18.2958L14.6783 18.0812Z" fill="black"/>
</svg>
