<svg width="24" height="24" viewBox="0 0 24 24" fill="none" xmlns="http://www.w3.org/2000/svg">
<path fill-rule="evenodd" clip-rule="evenodd" d="M7.77964 15.4475C6.73253 14.0654 5.34889 11.1807 5.75452 6.00043C4.65667 7.37001 4 9.10846 4 11.0003C4 12.6374 4.49066 14.1568 5.33273 15.4233C5.63852 15.8832 5.51358 16.5039 5.05367 16.8097C4.59377 17.1155 3.97305 16.9906 3.66727 16.5307C2.6138 14.9462 2 13.0434 2 11.0003C2 5.47745 6.47715 1.00029 12 1.00029C12.0582 1.00029 12.1162 1.00079 12.1741 1.00178C12.2299 0.998433 12.2865 0.999776 12.3431 1.00607C17.7071 1.18693 22 5.59228 22 11.0003C22 13.0434 21.3862 14.9462 20.3327 16.5307C20.0269 16.9906 19.4062 17.1155 18.9463 16.8097C18.4864 16.5039 18.3615 15.8832 18.6673 15.4233C19.0514 14.8456 19.3624 14.2151 19.5871 13.5449C18.691 13.0403 17.8572 12.6787 17.0932 12.4246C16.9701 13.4127 16.625 14.8588 15.7183 16.4868C15.4496 16.9693 14.8406 17.1426 14.3581 16.8739C13.8756 16.6052 13.7023 15.9962 13.971 15.5137C14.8104 14.0067 15.0622 12.7158 15.1319 11.9633C14.1279 11.8287 13.3222 11.8842 12.7462 11.9823C12.294 13.247 11.3225 15.0191 9.25897 16.7639C8.83723 17.1205 8.20628 17.0677 7.84968 16.646C7.55578 16.2984 7.53999 15.8086 7.77964 15.4475ZM11.0899 10.5883C10.5032 9.18301 9.92178 6.64987 10.8564 3.08141C9.82668 3.2288 8.86021 3.57229 7.99606 4.07283C7.99403 4.10028 7.99086 4.12787 7.98651 4.15554C7.08941 9.86351 8.37706 12.7872 9.21497 14.0184C10.4082 12.6586 10.8607 11.4394 11.0311 10.7578C11.0459 10.6986 11.0656 10.642 11.0899 10.5883ZM12.4401 7.90529C12.5565 8.81098 12.7875 9.48774 12.9849 9.93287C14.6074 9.76657 17.0252 9.95887 19.9854 11.4875C19.9951 11.3264 20 11.1639 20 11.0003C20 10.2974 19.9093 9.61563 19.7391 8.96611C19.6802 8.9502 19.6219 8.92865 19.5649 8.90121C15.885 7.12905 13.4563 7.56265 12.4401 7.90529ZM12.4001 5.83724C13.7185 5.51619 15.7756 5.38343 18.4694 6.29329C17.1889 4.5364 15.2102 3.32099 12.9412 3.05508C12.6308 4.08777 12.4661 5.01544 12.4001 5.83724Z" fill="black"/>
<path d="M3.55481 21.8324C3.09528 22.1387 2.47441 22.0145 2.16806 21.555C1.8617 21.0955 1.98588 20.4746 2.44541 20.1683L5.44541 18.1683C5.78131 17.9443 6.21891 17.9443 6.55481 18.1683L9.00011 19.7985L11.4454 18.1683C11.7813 17.9443 12.2189 17.9443 12.5548 18.1683L15.0001 19.7985L17.4454 18.1683C17.7813 17.9443 18.2189 17.9443 18.5548 18.1683L21.5548 20.1683C22.0143 20.4746 22.1385 21.0955 21.8322 21.555C21.5258 22.0145 20.9049 22.1387 20.4454 21.8324L18.0001 20.2022L15.5548 21.8324C15.2189 22.0563 14.7813 22.0563 14.4454 21.8324L12.0001 20.2022L9.55481 21.8324C9.21891 22.0563 8.78131 22.0563 8.44541 21.8324L6.00011 20.2022L3.55481 21.8324Z" fill="black"/>
</svg>
