<svg width="24" height="24" viewBox="0 0 24 24" fill="none" xmlns="http://www.w3.org/2000/svg">
<path d="M9.29308 7.94141C9.43063 7.94835 9.61495 7.89271 9.79601 8.3125C9.98345 8.74367 10.4307 9.80444 10.4874 9.91406C10.5437 10.0215 10.5813 10.1486 10.5069 10.292C10.4315 10.4359 10.3937 10.5255 10.2823 10.6514C10.1709 10.7774 10.0469 10.9335 9.9464 11.0293C9.83442 11.1366 9.71821 11.2535 9.84875 11.4688C9.97944 11.6854 10.4289 12.3916 11.0948 12.9629C11.9495 13.6979 12.6715 13.9252 12.8956 14.0332C13.1195 14.1405 13.2498 14.1233 13.381 13.9795C13.511 13.8361 13.9413 13.3498 14.09 13.1338C14.2391 12.9182 14.3881 12.955 14.5929 13.0264C14.7984 13.0989 15.9 13.6211 16.1241 13.7285C16.3481 13.837 16.4973 13.8915 16.5519 13.9814C16.6076 14.0716 16.6079 14.5035 16.421 15.0068C16.2351 15.5101 15.3399 15.969 14.9103 16.0312C14.5248 16.0864 14.0365 16.1105 13.5001 15.9463C13.1744 15.8464 12.757 15.7134 12.2228 15.4922C9.97629 14.5573 8.50866 12.3778 8.3966 12.2344L8.39562 12.2324C8.27709 12.0801 7.48254 11.0595 7.48254 10.0029C7.48262 8.94167 8.06176 8.42009 8.26672 8.2041C8.47221 7.98833 8.71539 7.93457 8.8634 7.93457L9.29308 7.94141Z" fill="black"/>
<path fill-rule="evenodd" clip-rule="evenodd" d="M12.0001 3C16.9707 3 21.0001 7.02944 21.0001 12C21.0001 16.9706 16.9707 21 12.0001 21C10.2539 21 8.62233 20.5006 7.24132 19.6387L4.41027 20.9121C4.06848 21.0658 3.66901 21.015 3.37609 20.7812C3.08351 20.5475 2.9458 20.1699 3.01965 19.8027L3.83117 15.7793C3.29822 14.629 3.00011 13.3482 3.00011 12C3.00011 7.02948 7.02961 3.00007 12.0001 3ZM12.0001 5C8.13418 5.00007 5.00011 8.13405 5.00011 12C5.00011 13.1508 5.27678 14.2341 5.76672 15.1895C5.87004 15.3909 5.90225 15.6218 5.85754 15.8438L5.36437 18.2891L6.92492 17.5879C7.25031 17.4416 7.62935 17.4802 7.91906 17.6885C9.06772 18.5142 10.4758 19 12.0001 19C15.8661 19 19.0001 15.866 19.0001 12C19.0001 8.13401 15.8661 5 12.0001 5Z" fill="black"/>
</svg>
