<svg width="24" height="24" viewBox="0 0 24 24" fill="none" xmlns="http://www.w3.org/2000/svg">
<path fill-rule="evenodd" clip-rule="evenodd" d="M12.0001 3C16.9707 3 21.0001 7.02944 21.0001 12C21.0001 16.9706 16.9707 21 12.0001 21C10.254 21 8.62229 20.5006 7.24131 19.6387L4.41026 20.9121C4.06849 21.0657 3.66897 21.015 3.37608 20.7812C3.08356 20.5475 2.9458 20.1698 3.01964 19.8027L3.83116 15.7793C3.29822 14.629 3.0001 13.3482 3.0001 12C3.0001 7.02952 7.02965 3.00013 12.0001 3ZM8.86339 7.93457C8.71537 7.9346 8.47215 7.98838 8.26671 8.2041C8.06171 8.42012 7.48261 8.94176 7.48253 10.0029C7.48253 11.0593 8.27693 12.08 8.39561 12.2324L8.39659 12.2344C8.50865 12.3778 9.97634 14.5573 12.2228 15.4922C12.7569 15.7134 13.1744 15.8464 13.5001 15.9463C14.0364 16.1105 14.5248 16.0864 14.9103 16.0312C15.3399 15.969 16.235 15.5101 16.421 15.0068C16.6079 14.5035 16.6076 14.0716 16.5519 13.9814C16.4973 13.8915 16.348 13.837 16.1241 13.7285C15.8998 13.621 14.7984 13.0989 14.5929 13.0264C14.3882 12.9551 14.239 12.9182 14.0899 13.1338C13.9413 13.3498 13.511 13.8361 13.381 13.9795C13.2499 14.1232 13.1195 14.1405 12.8956 14.0332C12.6714 13.9252 11.9494 13.6978 11.0948 12.9629C10.4289 12.3916 9.97943 11.6854 9.84874 11.4688C9.71827 11.2536 9.83444 11.1366 9.94639 11.0293C10.0468 10.9335 10.1709 10.7774 10.2823 10.6514C10.3937 10.5255 10.4315 10.4359 10.5069 10.292C10.5813 10.1486 10.5437 10.0215 10.4874 9.91406C10.4306 9.80419 9.98342 8.74361 9.796 8.3125C9.61494 7.89276 9.43062 7.94835 9.29307 7.94141L8.86339 7.93457Z" fill="black"/>
</svg>
