<svg width="24" height="24" viewBox="0 0 24 24" fill="none" xmlns="http://www.w3.org/2000/svg">
<path fill-rule="evenodd" clip-rule="evenodd" d="M5.05202 13.1853C6.84759 11.096 9.26855 9.75 12 9.75C14.7332 9.75 17.1531 11.1038 18.9467 13.1837C19.3975 13.7065 19.3392 14.4958 18.8163 14.9466C18.2935 15.3975 17.5042 15.3391 17.0534 14.8163C15.6282 13.1637 13.8573 12.25 12 12.25C10.141 12.25 8.37118 13.1588 6.94803 14.8147C6.49807 15.3383 5.70886 15.398 5.18529 14.948C4.66172 14.498 4.60205 13.7088 5.05202 13.1853Z" fill="black"/>
<path fill-rule="evenodd" clip-rule="evenodd" d="M1.05195 9.18535C3.91816 5.84971 7.73873 3.75 12 3.75C16.2623 3.75 20.0823 5.85662 22.9473 9.18444C23.3977 9.70761 23.3388 10.4969 22.8156 10.9473C22.2924 11.3977 21.5032 11.3387 21.0527 10.8156C18.5578 7.91765 15.3878 6.25 12 6.25C8.61131 6.25 5.44189 7.91242 2.9481 10.8147C2.49818 11.3383 1.70898 11.398 1.18537 10.9481C0.661765 10.4982 0.602029 9.70896 1.05195 9.18535Z" fill="black"/>
<path d="M10.4142 18.6931L11.2929 19.6733C11.6834 20.1089 12.3166 20.1089 12.7071 19.6733L13.5858 18.6931C13.851 18.3972 14 17.996 14 17.5776C14 16.7063 13.3669 16 12.5858 16H11.4142C10.6332 16 10 16.7063 10 17.5776C10 17.996 10.149 18.3972 10.4142 18.6931Z" fill="black"/>
</svg>
