<svg width="24" height="24" viewBox="0 0 24 24" fill="none" xmlns="http://www.w3.org/2000/svg">
<path fill-rule="evenodd" clip-rule="evenodd" d="M23 9H1V7H23V9Z" fill="black"/>
<path fill-rule="evenodd" clip-rule="evenodd" d="M1 6C1 4.34315 2.34315 3 4 3H20C21.6569 3 23 4.34315 23 6V18C23 19.6569 21.6569 21 20 21H4C2.34315 21 1 19.6569 1 18V6ZM4 5C3.44772 5 3 5.44772 3 6V18C3 18.5523 3.44772 19 4 19H20C20.5523 19 21 18.5523 21 18V6C21 5.44772 20.5523 5 20 5H4Z" fill="black"/>
<path fill-rule="evenodd" clip-rule="evenodd" d="M5 7V4.5H7V7H5Z" fill="black"/>
<path fill-rule="evenodd" clip-rule="evenodd" d="M9 7V4.5H11V7H9Z" fill="black"/>
<path fill-rule="evenodd" clip-rule="evenodd" d="M5.29289 11.2929C5.68342 10.9024 6.31658 10.9024 6.70711 11.2929L8.70711 13.2929C9.09763 13.6834 9.09763 14.3166 8.70711 14.7071L6.70711 16.7071C6.31658 17.0976 5.68342 17.0976 5.29289 16.7071C4.90237 16.3166 4.90237 15.6834 5.29289 15.2929L6.58579 14L5.29289 12.7071C4.90237 12.3166 4.90237 11.6834 5.29289 11.2929Z" fill="black"/>
<path fill-rule="evenodd" clip-rule="evenodd" d="M13 16C13 15.4477 13.4477 15 14 15H18C18.5523 15 19 15.4477 19 16C19 16.5523 18.5523 17 18 17H14C13.4477 17 13 16.5523 13 16Z" fill="black"/>
</svg>
