<svg width="24" height="24" viewBox="0 0 24 24" fill="none" xmlns="http://www.w3.org/2000/svg">
<path fill-rule="evenodd" clip-rule="evenodd" d="M1 6C1 4.34315 2.34315 3 4 3H20C21.6569 3 23 4.34315 23 6V18C23 19.6569 21.6569 21 20 21H4C2.34315 21 1 19.6569 1 18V6ZM20 5C20.5523 5 21 5.44772 21 6V7H11V5H20ZM3 6C3 5.44772 3.44772 5 4 5H5V7H3V6ZM6.70711 11.2929C6.31658 10.9024 5.68342 10.9024 5.29289 11.2929C4.90237 11.6834 4.90237 12.3166 5.29289 12.7071L6.58579 14L5.29289 15.2929C4.90237 15.6834 4.90237 16.3166 5.29289 16.7071C5.68342 17.0976 6.31658 17.0976 6.70711 16.7071L8.70711 14.7071C9.09763 14.3166 9.09763 13.6834 8.70711 13.2929L6.70711 11.2929ZM14 15C13.4477 15 13 15.4477 13 16C13 16.5523 13.4477 17 14 17H18C18.5523 17 19 16.5523 19 16C19 15.4477 18.5523 15 18 15H14ZM7 5H9V7H7V5Z" fill="black"/>
</svg>
