<svg width="24" height="24" viewBox="0 0 24 24" fill="none" xmlns="http://www.w3.org/2000/svg">
<path fill-rule="evenodd" clip-rule="evenodd" d="M8 2C7.44772 2 7 2.44772 7 3V8C7 10.419 8.71776 12.4367 11 12.9V20H9C8.44772 20 8 20.4477 8 21C8 21.5523 8.44772 22 9 22H15C15.5523 22 16 21.5523 16 21C16 20.4477 15.5523 20 15 20H13V12.9C15.2822 12.4367 17 10.419 17 8V3C17 2.44772 16.5523 2 16 2H8ZM9.17071 9C9.58254 10.1652 10.6938 11 12 11C13.3062 11 14.4175 10.1652 14.8293 9H9.17071ZM15 7H9V4H15V7Z" fill="black"/>
</svg>
