<svg width="24" height="24" viewBox="0 0 24 24" fill="none" xmlns="http://www.w3.org/2000/svg">
<path fill-rule="evenodd" clip-rule="evenodd" d="M12 1C10.3432 1 9 2.34314 9 4C9 5.65686 10.3432 7 12 7C10.7682 7 9.65978 7.74766 9.19835 8.88972L6.07283 16.6254C5.94829 16.9336 5.98507 17.2836 6.17096 17.5592C6.35686 17.8348 6.66757 18 7 18H9.19466L9.92011 21.325C10.1335 22.3028 10.9992 23 12 23C13.0009 23 13.8666 22.3028 14.0799 21.325L14.8053 18H17C17.3324 18 17.6431 17.8348 17.829 17.5592C18.0149 17.2836 18.0517 16.9336 17.9272 16.6254L14.8017 8.88972C14.3402 7.74766 13.2318 7 12 7C13.6568 7 15 5.65686 15 4C15 2.34314 13.6568 1 12 1ZM11 4C11 3.44772 11.4477 3 12 3C12.5523 3 13 3.44772 13 4C13 4.55228 12.5523 5 12 5C11.4477 5 11 4.55228 11 4ZM11.0527 9.63895C11.2087 9.2528 11.5835 9 12 9C12.4165 9 12.7913 9.2528 12.9473 9.63895L15.5174 16H14.8053C13.8651 16 13.0518 16.655 12.8513 17.5737L12.1259 20.8986C12.113 20.9578 12.0606 21 12 21C11.9394 21 11.8871 20.9578 11.8741 20.8986L11.1487 17.5737C10.9483 16.655 10.1349 16 9.19466 16H8.48258L11.0527 9.63895Z" fill="black"/>
</svg>
