<svg width="24" height="24" viewBox="0 0 24 24" fill="none" xmlns="http://www.w3.org/2000/svg">
<path d="M10.9994 3.00001C10.9994 2.68145 10.8476 2.38195 10.5907 2.19358C10.3338 2.00521 10.0026 1.9505 9.69873 2.04627C6.4467 3.07143 4 6.1436 4 9.80416C4 12.8059 5.60629 15.4258 7.99951 16.8317V17.9982C7.99951 20.2071 9.7902 21.9978 11.9991 21.9978C14.209 21.9978 16.0005 20.2063 16.0005 17.9964V16.8317C18.3937 15.4258 20 12.8059 20 9.80416C20 6.1436 17.5533 3.07143 14.3013 2.04627C13.9974 1.9505 13.6662 2.00521 13.4093 2.19358C13.1524 2.38195 13.0006 2.68145 13.0006 3.00001V9.27938C13.0006 9.29273 12.9929 9.37142 12.9227 9.51013C12.8557 9.64248 12.7516 9.78917 12.6197 9.92559C12.3194 10.2361 12.0623 10.3141 11.9991 10.3141C11.6741 10.3141 11.4327 10.2055 11.2786 10.0571C11.1317 9.91552 10.9994 9.67621 10.9994 9.27938V3.00001Z" fill="black"/>
</svg>
