<svg width="24" height="24" viewBox="0 0 24 24" fill="none" xmlns="http://www.w3.org/2000/svg">
<path fill-rule="evenodd" clip-rule="evenodd" d="M10.5907 2.19358C10.8476 2.38195 10.9994 2.68145 10.9994 3.00001V9.27938C10.9994 9.67621 11.1317 9.91552 11.2786 10.0571C11.4327 10.2055 11.6741 10.3141 11.9991 10.3141C12.0623 10.3141 12.3194 10.2361 12.6197 9.92559C12.7516 9.78917 12.8557 9.64248 12.9227 9.51013C12.9929 9.37142 13.0006 9.29273 13.0006 9.27938V3.00001C13.0006 2.68145 13.1524 2.38195 13.4093 2.19358C13.6662 2.00521 13.9974 1.9505 14.3013 2.04627C17.5533 3.07143 20 6.1436 20 9.80416C20 12.8059 18.3937 15.4258 16.0005 16.8317V17.9964C16.0005 20.2063 14.209 21.9978 11.9991 21.9978C9.7902 21.9978 7.99951 20.2071 7.99951 17.9982V16.8317C5.60629 15.4258 4 12.8059 4 9.80416C4 6.1436 6.4467 3.07143 9.69873 2.04627C10.0026 1.9505 10.3338 2.00521 10.5907 2.19358ZM8.99938 4.54054C7.22047 5.60951 6 7.56725 6 9.80416C6 12.2514 7.40744 14.3515 9.43527 15.3333C9.78033 15.5004 9.99951 15.85 9.99951 16.2334V17.9982C9.99951 19.1025 10.8948 19.9978 11.9991 19.9978C13.1045 19.9978 14.0005 19.1017 14.0005 17.9964V16.2334C14.0005 15.85 14.2197 15.5004 14.5647 15.3333C16.5926 14.3515 18 12.2514 18 9.80416C18 7.56725 16.7795 5.60951 15.0006 4.54054V9.27938C15.0006 10.0794 14.5322 10.825 14.0574 11.316C13.5827 11.8068 12.8391 12.3141 11.9991 12.3141C11.2193 12.3141 10.4608 12.0462 9.89124 11.4976C9.31456 10.9422 8.99938 10.1642 8.99938 9.27938V4.54054Z" fill="black"/>
</svg>
