<svg width="24" height="24" viewBox="0 0 24 24" fill="none" xmlns="http://www.w3.org/2000/svg">
<path d="M8.00002 2C8.32096 2 8.62254 2.15398 8.81057 2.41406L13.5742 9.00977L20.293 2.29297C20.6835 1.90245 21.3165 1.90247 21.7071 2.29297C22.0976 2.68349 22.0976 3.31651 21.7071 3.70703L14.7608 10.6533L21.8106 20.4141C22.0304 20.7184 22.0615 21.1208 21.8906 21.4551C21.7197 21.7894 21.3755 22 21 22H16C15.6791 22 15.3775 21.846 15.1895 21.5859L10.4248 14.9893L3.70705 21.707C3.31652 22.0975 2.6835 22.0975 2.29299 21.707C1.9025 21.3165 1.9025 20.6835 2.29299 20.293L9.2383 13.3457L2.18947 3.58594C1.96968 3.28159 1.93859 2.87921 2.10939 2.54492C2.28035 2.21058 2.62451 2.00002 3.00002 2H8.00002Z" fill="black"/>
</svg>
