<svg width="24" height="24" viewBox="0 0 24 24" fill="none" xmlns="http://www.w3.org/2000/svg">
<path d="M8.40006 7.2C8.84189 6.86863 9.46869 6.95817 9.80006 7.4L12.0001 10.3333L14.2001 7.4C14.5314 6.95817 15.1582 6.86863 15.6001 7.2C16.0419 7.53137 16.1314 8.15817 15.8001 8.6L14.0001 11H14.999C15.5513 11 15.999 11.4477 15.999 12C15.999 12.5523 15.5513 13 14.999 13H13V14.0001H14.999C15.5513 14.0001 15.999 14.4478 15.999 15.0001C15.999 15.5523 15.5513 16.0001 14.999 16.0001H13V17C13 17.5523 12.5523 18 12 18C11.4477 18 11 17.5523 11 17V16.0001H8.99902C8.44674 16.0001 7.99902 15.5523 7.99902 15.0001C7.99902 14.4478 8.44674 14.0001 8.99902 14.0001H11V13H8.99902C8.44674 13 7.99902 12.5523 7.99902 12C7.99902 11.4477 8.44674 11 8.99902 11H10.0001L8.20006 8.6C7.86869 8.15817 7.95823 7.53137 8.40006 7.2Z" fill="black"/>
<path fill-rule="evenodd" clip-rule="evenodd" d="M2 12C2 6.47715 6.47715 2 12 2C17.5228 2 22 6.47715 22 12C22 17.5228 17.5228 22 12 22C6.47715 22 2 17.5228 2 12ZM12 4C7.58172 4 4 7.58172 4 12C4 16.4183 7.58172 20 12 20C16.4183 20 20 16.4183 20 12C20 7.58172 16.4183 4 12 4Z" fill="black"/>
</svg>
