<svg width="24" height="24" viewBox="0 0 24 24" fill="none" xmlns="http://www.w3.org/2000/svg">
<path fill-rule="evenodd" clip-rule="evenodd" d="M2 7C2 4.23858 4.23858 2 7 2H17C19.7614 2 22 4.23858 22 7V17C22 19.7614 19.7614 22 17 22H7C4.23858 22 2 19.7614 2 17V7ZM9.80006 7.4C9.46869 6.95817 8.84189 6.86863 8.40006 7.2C7.95823 7.53137 7.86869 8.15817 8.20006 8.6L10.0001 11H8.99902C8.44674 11 7.99902 11.4477 7.99902 12C7.99902 12.5523 8.44674 13 8.99902 13H11V14.0001H8.99902C8.44674 14.0001 7.99902 14.4478 7.99902 15.0001C7.99902 15.5523 8.44674 16.0001 8.99902 16.0001H11V17C11 17.5523 11.4477 18 12 18C12.5523 18 13 17.5523 13 17V16.0001H14.999C15.5513 16.0001 15.999 15.5523 15.999 15.0001C15.999 14.4478 15.5513 14.0001 14.999 14.0001H13V13H14.999C15.5513 13 15.999 12.5523 15.999 12C15.999 11.4477 15.5513 11 14.999 11H14.0001L15.8001 8.6C16.1314 8.15817 16.0419 7.53137 15.6001 7.2C15.1582 6.86863 14.5314 6.95817 14.2001 7.4L12.0001 10.3333L9.80006 7.4Z" fill="black"/>
</svg>
