<svg width="24" height="24" viewBox="0 0 24 24" fill="none" xmlns="http://www.w3.org/2000/svg">
<path d="M8.40006 7.2C8.84189 6.86863 9.46869 6.95817 9.80006 7.4L12.0001 10.3333L14.2001 7.4C14.5314 6.95817 15.1582 6.86863 15.6001 7.2C16.0419 7.53137 16.1314 8.15817 15.8001 8.6L14.0001 11H14.999C15.5513 11 15.999 11.4477 15.999 12C15.999 12.5523 15.5513 13 14.999 13H13V14.0001H14.999C15.5513 14.0001 15.999 14.4478 15.999 15.0001C15.999 15.5523 15.5513 16.0001 14.999 16.0001H13V17C13 17.5523 12.5523 18 12 18C11.4477 18 11 17.5523 11 17V16.0001H8.99902C8.44674 16.0001 7.99902 15.5523 7.99902 15.0001C7.99902 14.4478 8.44674 14.0001 8.99902 14.0001H11V13H8.99902C8.44674 13 7.99902 12.5523 7.99902 12C7.99902 11.4477 8.44674 11 8.99902 11H10.0001L8.20006 8.6C7.86869 8.15817 7.95823 7.53137 8.40006 7.2Z" fill="black"/>
<path fill-rule="evenodd" clip-rule="evenodd" d="M7 2C4.23858 2 2 4.23858 2 7V17C2 19.7614 4.23858 22 7 22H17C19.7614 22 22 19.7614 22 17V7C22 4.23858 19.7614 2 17 2H7ZM4 7C4 5.34315 5.34315 4 7 4H17C18.6569 4 20 5.34315 20 7V17C20 18.6569 18.6569 20 17 20H7C5.34315 20 4 18.6569 4 17V7Z" fill="black"/>
</svg>
