<svg width="24" height="24" viewBox="0 0 24 24" fill="none" xmlns="http://www.w3.org/2000/svg">
<path fill-rule="evenodd" clip-rule="evenodd" d="M9.49805 8.12988C9.80778 7.95137 10.1897 7.95168 10.499 8.13086L15.6846 11.1348C15.9932 11.3135 16.1835 11.6433 16.1836 12C16.1836 12.3568 15.9933 12.6864 15.6846 12.8652L10.499 15.8691C10.1897 16.0483 9.80779 16.0487 9.49805 15.8701C9.18838 15.6916 8.99707 15.3614 8.99707 15.0039V8.99609C8.99716 8.63868 9.18838 8.30838 9.49805 8.12988ZM10.9971 13.2686L13.1885 12L10.9971 10.7305V13.2686Z" fill="black"/>
<path fill-rule="evenodd" clip-rule="evenodd" d="M12.0596 3.99121C12.1065 3.99132 12.1758 3.99177 12.2637 3.99219C12.4394 3.99302 12.6916 3.99471 12.999 3.99805C13.6135 4.00471 14.4502 4.0182 15.3369 4.04492C16.2222 4.0716 17.166 4.11175 17.9912 4.17285C18.7855 4.23167 19.5566 4.31611 20.0508 4.4502L20.0518 4.44922C21.2556 4.77273 22.2042 5.72129 22.5283 6.9248C22.7706 7.82042 22.8835 9.12027 22.9395 10.125C22.9683 10.642 22.9832 11.1078 22.9912 11.4443C22.9952 11.6128 22.9978 11.7496 22.999 11.8447C22.9996 11.8922 22.9998 11.9294 23 11.9551V12.041C22.9999 12.0668 22.9995 12.1046 22.999 12.1523C22.9982 12.2478 22.9966 12.3848 22.9932 12.5537C22.9864 12.8914 22.9725 13.3589 22.9453 13.877C22.8927 14.8807 22.7835 16.1801 22.541 17.0723L22.542 17.0732C22.2186 18.2768 21.2705 19.2253 20.0674 19.5498C19.5733 19.6845 18.8002 19.7692 18.0039 19.8281C17.1787 19.8892 16.2348 19.9294 15.3496 19.9561C14.4629 19.9828 13.6261 19.9963 13.0117 20.0029C12.7043 20.0063 12.4521 20.008 12.2764 20.0088H11.7236C11.5479 20.008 11.2957 20.0063 10.9883 20.0029C10.3739 19.9963 9.53709 19.9828 8.65039 19.9561C7.76516 19.9294 6.82132 19.8892 5.99609 19.8281C5.19956 19.7691 4.42567 19.6855 3.93164 19.5508C2.72926 19.2262 1.78249 18.2771 1.45898 17.0742C1.2164 16.1769 1.10747 14.8765 1.05469 13.8721C1.02751 13.3549 1.01361 12.8884 1.00684 12.5518C1.00345 12.3834 1.00183 12.2464 1.00098 12.1514C1.00055 12.104 1.00011 12.0666 1 12.041V11.959C1.00011 11.9334 1.00056 11.896 1.00098 11.8486C1.00181 11.7537 1.00356 11.6173 1.00684 11.4492C1.0134 11.1129 1.02639 10.647 1.05273 10.1309C1.10391 9.1284 1.20923 7.83235 1.44434 6.94336L1.44531 6.93945C1.76866 5.73632 2.71635 4.78853 3.91895 4.46387C4.41209 4.32937 5.18496 4.24377 5.98145 4.18359C6.80652 4.12126 7.75055 4.07908 8.63574 4.05078C9.52237 4.02245 10.3593 4.00787 10.9736 4C11.2809 3.99606 11.5333 3.99338 11.709 3.99219C11.7966 3.99159 11.8652 3.99141 11.9121 3.99121H12.0596ZM11.7227 5.99219C11.5504 5.99335 11.3019 5.99612 10.999 6C10.3928 6.00777 9.56944 6.02199 8.69922 6.0498C7.82751 6.07767 6.91668 6.11853 6.13281 6.17773C5.32037 6.23911 4.72874 6.31528 4.44531 6.39258L4.44141 6.39355C3.92607 6.53214 3.51542 6.9436 3.37695 7.45898C3.20196 8.12359 3.10123 9.22574 3.0498 10.2334C3.02481 10.7233 3.01213 11.1671 3.00586 11.4883C3.00273 11.6485 3.00175 11.7776 3.00098 11.8662C3.00059 11.9105 3.00009 11.9451 3 11.9678V12.0332C3.0001 12.0559 3.00058 12.0898 3.00098 12.1338C3.00177 12.2223 3.00361 12.3515 3.00684 12.5117C3.0133 12.8329 3.02599 13.2772 3.05176 13.7676C3.10487 14.7781 3.20783 15.884 3.38867 16.5527L3.38965 16.5547C3.51088 17.0057 3.84061 17.3772 4.2666 17.5557L4.4541 17.6201L4.45801 17.6211C4.74059 17.6982 5.33117 17.7728 6.14355 17.833C6.92729 17.891 7.8382 17.9308 8.70996 17.957C9.58014 17.9833 10.4036 17.9964 11.0098 18.0029C11.3127 18.0062 11.5612 18.008 11.7334 18.0088H12.2666C12.4388 18.008 12.6873 18.0062 12.9902 18.0029C13.5964 17.9964 14.4199 17.9833 15.29 17.957C16.1618 17.9308 17.0727 17.891 17.8564 17.833C18.6688 17.7728 19.2594 17.6982 19.542 17.6211L19.5459 17.6201C20.0612 17.4815 20.4719 17.07 20.6104 16.5547L20.6113 16.5508C20.7916 15.8899 20.8951 14.7855 20.9482 13.7725C20.974 13.2812 20.9867 12.8359 20.9932 12.5137C20.9964 12.3531 20.9982 12.2236 20.999 12.1348C20.9994 12.0905 20.9999 12.056 21 12.0332V11.9717C20.9998 11.949 20.9996 11.9144 20.999 11.8701C20.9979 11.7815 20.995 11.6524 20.9912 11.4922C20.9836 11.1709 20.9697 10.7269 20.9424 10.2363C20.8861 9.22566 20.78 8.11777 20.5986 7.44727L20.5977 7.44531C20.459 6.93004 20.0476 6.51931 19.5322 6.38086L19.5293 6.37988C19.2467 6.30282 18.6561 6.22715 17.8438 6.16699C17.0601 6.10896 16.1491 6.07022 15.2773 6.04395C14.4072 6.01772 13.5837 6.00462 12.9775 5.99805C12.6746 5.99476 12.4261 5.99301 12.2539 5.99219C12.168 5.99178 12.101 5.99131 12.0557 5.99121H11.9209C11.8756 5.9914 11.8086 5.99161 11.7227 5.99219Z" fill="black"/>
</svg>
