<svg width="24" height="24" viewBox="0 0 24 24" fill="none" xmlns="http://www.w3.org/2000/svg">
<path d="M12 8L12.0001 6H14.0001V8H12Z" fill="black"/>
<path d="M12 10V8H10V10H12Z" fill="black"/>
<path d="M12 12H14.0001V10H12V12Z" fill="black"/>
<path d="M12.0001 14H10V12H12L12.0001 14Z" fill="black"/>
<path d="M12.0001 14H14.0001V16H12L12.0001 14Z" fill="black"/>
<path fill-rule="evenodd" clip-rule="evenodd" d="M2 7C2 4.23858 4.23858 2 7 2H17C19.7614 2 22 4.23858 22 7V17C22 19.7614 19.7614 22 17 22H7C4.23858 22 2 19.7614 2 17V7ZM7 4C5.34315 4 4 5.34315 4 7V17C4 18.6569 5.34315 20 7 20H17C18.6569 20 20 18.6569 20 17V7C20 5.34315 18.6569 4 17 4H12.0001V6H10V4H7Z" fill="black"/>
</svg>
