<svg width="24" height="24" viewBox="0 0 24 24" fill="none" xmlns="http://www.w3.org/2000/svg">
<path fill-rule="evenodd" clip-rule="evenodd" d="M14.7626 15.7626C15.446 15.0791 16.554 15.0791 17.2374 15.7626L20.7374 19.2626C21.4209 19.946 21.4209 21.054 20.7374 21.7374C20.054 22.4209 18.946 22.4209 18.2626 21.7374L14.7626 18.2374C14.0791 17.554 14.0791 16.446 14.7626 15.7626Z" fill="black"/>
<path fill-rule="evenodd" clip-rule="evenodd" d="M10 4.25C6.27208 4.25 3.25 7.27208 3.25 11C3.25 14.7279 6.27208 17.75 10 17.75C13.7279 17.75 16.75 14.7279 16.75 11C16.75 7.27208 13.7279 4.25 10 4.25ZM0.75 11C0.75 5.89137 4.89137 1.75 10 1.75C15.1086 1.75 19.25 5.89137 19.25 11C19.25 16.1086 15.1086 20.25 10 20.25C4.89137 20.25 0.75 16.1086 0.75 11Z" fill="black"/>
<path fill-rule="evenodd" clip-rule="evenodd" d="M6 11C6 10.4477 6.44772 10 7 10H13C13.5523 10 14 10.4477 14 11C14 11.5523 13.5523 12 13 12H7C6.44772 12 6 11.5523 6 11Z" fill="black"/>
</svg>
