<svg width="24" height="24" viewBox="0 0 24 24" fill="none" xmlns="http://www.w3.org/2000/svg">
<path fill-rule="evenodd" clip-rule="evenodd" d="M14.9393 15.9393C15.5251 15.3536 16.4749 15.3536 17.0607 15.9393L20.5607 19.4393C21.1464 20.0251 21.1464 20.9749 20.5607 21.5607C19.9749 22.1464 19.0251 22.1464 18.4393 21.5607L14.9393 18.0607C14.3536 17.4749 14.3536 16.5251 14.9393 15.9393Z" fill="black"/>
<path fill-rule="evenodd" clip-rule="evenodd" d="M10 18C13.866 18 17 14.866 17 11C17 7.13401 13.866 4 10 4C6.13401 4 3 7.13401 3 11C3 14.866 6.13401 18 10 18ZM10 20C14.9706 20 19 15.9706 19 11C19 6.02944 14.9706 2 10 2C5.02944 2 1 6.02944 1 11C1 15.9706 5.02944 20 10 20Z" fill="black"/>
<path fill-rule="evenodd" clip-rule="evenodd" d="M6 11C6 10.4477 6.44772 10 7 10H13C13.5523 10 14 10.4477 14 11C14 11.5523 13.5523 12 13 12H7C6.44772 12 6 11.5523 6 11Z" fill="black"/>
<path fill-rule="evenodd" clip-rule="evenodd" d="M10 7C10.5523 7 11 7.44772 11 8V14C11 14.5523 10.5523 15 10 15C9.44771 15 9 14.5523 9 14L9 8C9 7.44772 9.44771 7 10 7Z" fill="black"/>
</svg>
