<svg width="24" height="24" viewBox="0 0 24 24" fill="none" xmlns="http://www.w3.org/2000/svg">
<rect width="24" height="24" rx="11.9998" fill="#9391F7"/>
<path d="M9.76376 12.5861C10.7968 12.4223 11.4897 11.4522 11.326 10.4191C11.1622 9.38606 10.1921 8.69314 9.15904 8.85692C8.12596 9.0207 7.43305 9.99078 7.59683 11.0239C7.77321 12.0569 8.74329 12.7498 9.76376 12.5861ZM14.7023 12.5861C15.7354 12.4223 16.4283 11.4522 16.2645 10.4191C16.1008 9.38606 15.1307 8.69314 14.0976 8.85692C13.0645 9.0207 12.3716 9.99078 12.5354 11.0239C12.6992 12.0569 13.6693 12.7498 14.7023 12.5861Z" fill="white"/>
<path d="M11.9308 2.93547C6.80327 2.93547 2.64579 7.16854 2.64579 12.3843H5.0143C5.0143 8.46618 8.08831 5.30398 11.9182 5.30398C15.7608 5.30398 18.8222 8.47878 18.8222 12.3843H21.1907C21.2159 7.16854 17.0584 2.93547 11.9308 2.93547Z" fill="white"/>
</svg>
