<svg width="24" height="24" viewBox="0 0 24 24" fill="none" xmlns="http://www.w3.org/2000/svg">
<path d="M0 12C0 5.37258 5.37258 0 12 0C18.6274 0 24 5.37258 24 12C24 18.6274 18.6274 24 12 24C5.37258 24 0 18.6274 0 12Z" fill="#213147"/>
<path d="M4.62726 8.47187V15.5279C4.62726 15.9815 4.86486 16.3919 5.26086 16.6223L11.3737 20.1503C11.7625 20.3735 12.2449 20.3735 12.6337 20.1503L18.7465 16.6223C19.1353 16.3991 19.3801 15.9815 19.3801 15.5279V8.47187C19.3801 8.01827 19.1425 7.60787 18.7465 7.37747L12.6337 3.84947C12.2449 3.62627 11.7625 3.62627 11.3737 3.84947L5.26086 7.37747C4.87206 7.60067 4.63446 8.01827 4.63446 8.47187H4.62726Z" fill="#213147"/>
<path d="M13.3317 13.3677L12.4605 15.7581C12.4389 15.8229 12.4389 15.8949 12.4605 15.9669L13.9581 20.0781L15.6933 19.0773L13.6125 13.3677C13.5621 13.2381 13.3821 13.2381 13.3317 13.3677Z" fill="#12AAFF"/>
<path d="M15.0815 9.35016C15.0311 9.22056 14.8511 9.22056 14.8007 9.35016L13.9295 11.7406C13.9079 11.8054 13.9079 11.8774 13.9295 11.9494L16.3847 18.6814L18.1199 17.6806L15.0815 9.35736V9.35016Z" fill="#12AAFF"/>
<path d="M12.0001 4.116C12.0433 4.116 12.0865 4.1304 12.1225 4.152L18.7321 7.968C18.8113 8.0112 18.8545 8.0976 18.8545 8.184V15.816C18.8545 15.9024 18.8041 15.9888 18.7321 16.032L12.1225 19.848C12.0865 19.8696 12.0433 19.884 12.0001 19.884C11.9569 19.884 11.9137 19.8696 11.8777 19.848L5.26806 16.032C5.18886 15.9888 5.14566 15.9024 5.14566 15.816V8.1768C5.14566 8.0904 5.19606 8.004 5.26806 7.9608L11.8777 4.1448C11.9137 4.1232 11.9569 4.1088 12.0001 4.1088V4.116ZM12.0001 3C11.7625 3 11.5321 3.0576 11.3161 3.18L4.70646 6.996C4.28166 7.2408 4.02246 7.6872 4.02246 8.1768V15.8088C4.02246 16.2984 4.28166 16.7448 4.70646 16.9896L11.3161 20.8056C11.5249 20.928 11.7625 20.9856 12.0001 20.9856C12.2377 20.9856 12.4681 20.928 12.6841 20.8056L19.2937 16.9896C19.7185 16.7448 19.9777 16.2984 19.9777 15.8088V8.1768C19.9777 7.6872 19.7185 7.2408 19.2937 6.996L12.6769 3.18C12.4681 3.0576 12.2305 3 11.9929 3H12.0001Z" fill="#9DCCED"/>
<path d="M7.6225 18.689L8.2345 17.0186L9.4585 18.0338L8.3137 19.085L7.6225 18.689Z" fill="#213147"/>
<path d="M11.4386 7.63684H9.76099C9.63859 7.63684 9.52339 7.71604 9.48019 7.83124L5.88739 17.6808L7.62259 18.6816L11.5826 7.83124C11.6186 7.73044 11.5466 7.62964 11.4458 7.62964L11.4386 7.63684Z" fill="white"/>
<path d="M14.3762 7.63714H12.6986C12.5762 7.63714 12.461 7.71634 12.4178 7.83154L8.31384 19.0779L10.049 20.0787L14.513 7.83154C14.549 7.73074 14.477 7.62994 14.3762 7.62994V7.63714Z" fill="white"/>
</svg>
