<svg width="24" height="24" viewBox="0 0 24 24" fill="none" xmlns="http://www.w3.org/2000/svg">
<rect width="24" height="24" rx="12" fill="black"/>
<path d="M15.5924 13.3302C17.8586 13.7484 19.4 14.5716 19.4 15.519C19.4 16.89 16.1762 18 12.2 18C8.2238 18 5 16.8894 5 15.519C5 14.5716 6.542 13.7484 8.8076 13.3302C9.7922 13.5858 10.955 13.7328 12.2 13.7328C13.445 13.7328 14.6078 13.5852 15.5924 13.3302ZM14.7248 9.312C16.6496 9.6324 17.9756 10.3062 17.9756 11.0868C17.9756 12.1758 15.3896 13.059 12.2 13.059C9.0104 13.059 6.4244 12.1758 6.4244 11.0868C6.4244 10.3068 7.7504 9.6324 9.6752 9.312C10.415 9.4998 11.2778 9.6072 12.2 9.6072C13.1222 9.6072 13.985 9.4992 14.7248 9.312ZM12.2264 6C14.615 6 16.5518 6.6684 16.5518 7.4934C16.5518 8.3178 14.615 8.9862 12.2264 8.9862C9.8378 8.9862 7.901 8.3178 7.901 7.4934C7.901 6.6684 9.8378 6 12.2264 6Z" fill="white"/>
</svg>
