<svg width="24" height="24" viewBox="0 0 24 24" fill="none" xmlns="http://www.w3.org/2000/svg">
<rect width="24" height="24" rx="12" fill="url(#paint0_linear_13226_16648)"/>
<path d="M17.2901 10.2903C17.5289 8.69333 16.3131 7.83492 14.6506 7.26227L15.1899 5.09908L13.8731 4.77096L13.3481 6.8772C13.0019 6.79086 12.6464 6.70951 12.2931 6.62886L12.8219 4.50872L11.5059 4.1806L10.9663 6.34309C10.6798 6.27787 10.3985 6.21341 10.1255 6.14548L10.127 6.13868L8.31111 5.68522L7.96083 7.09165C7.96083 7.09165 8.93778 7.31559 8.91719 7.32937C9.45043 7.46246 9.54685 7.81545 9.53084 8.09523L8.91649 10.5596C8.95321 10.5689 9.00084 10.5824 9.05339 10.6035C9.00946 10.5926 8.96271 10.5807 8.9142 10.5691L8.05309 14.0214C7.98792 14.1834 7.82252 14.4265 7.44971 14.3342C7.4629 14.3533 6.49264 14.0953 6.49264 14.0953L5.83887 15.6026L7.55247 16.0298C7.87126 16.1098 8.18366 16.1934 8.4913 16.2721L7.9464 18.4601L9.26167 18.7882L9.8013 16.6234C10.1606 16.721 10.5093 16.8109 10.8507 16.8958L10.3129 19.0503L11.6297 19.3784L12.1746 17.1945C14.42 17.6195 16.1084 17.4482 16.8191 15.4172C17.3917 13.782 16.7906 12.8388 15.6092 12.2238C16.4697 12.0253 17.1177 11.4594 17.2905 10.2904L17.2901 10.2902L17.2901 10.2903ZM14.2815 14.5091C13.8745 16.1443 11.1214 15.2603 10.2288 15.0387L10.9519 12.14C11.8444 12.3628 14.7068 12.8038 14.2815 14.5091H14.2815ZM14.6887 10.2666C14.3175 11.7539 12.026 10.9983 11.2827 10.813L11.9383 8.18403C12.6816 8.36933 15.0754 8.71515 14.6888 10.2666H14.6887Z" fill="white"/>
<defs>
<linearGradient id="paint0_linear_13226_16648" x1="9.7376e-07" y1="14.7692" x2="19.5223" y2="5.41962" gradientUnits="userSpaceOnUse">
<stop stop-color="#FF8802"/>
<stop offset="0.0001" stop-color="#FF8802"/>
<stop offset="1" stop-color="#FFB859"/>
</linearGradient>
</defs>
</svg>
