<svg width="24" height="24" viewBox="0 0 24 24" fill="none" xmlns="http://www.w3.org/2000/svg">
<rect width="24" height="24" rx="12" fill="#65D9FF"/>
<path fill-rule="evenodd" clip-rule="evenodd" d="M10.0066 18.24C9.20448 18.24 8.4948 17.7207 8.25234 16.9563L7.0056 13.0267H6.23916C5.43709 13.0267 4.72741 12.5074 4.48492 11.743L3.74414 9.40801H6.52272L5.05718 7.20001H18.9431L17.4776 9.40801H20.2561L19.5154 11.743C19.2729 12.5074 18.5632 13.0267 17.7611 13.0267H16.9946L15.748 16.9563C15.5055 17.7207 14.7958 18.24 13.9937 18.24H10.0066ZM9.06468 11.9533C9.06468 12.5461 9.50736 13.0267 10.0534 13.0267C10.5994 13.0267 11.0421 12.5461 11.0421 11.9533C11.0421 11.3605 10.5994 10.88 10.0534 10.88C9.50736 10.88 9.06468 11.3605 9.06468 11.9533ZM14.9356 11.9533C14.9356 12.5461 14.4929 13.0267 13.9469 13.0267C13.4009 13.0267 12.9582 12.5461 12.9582 11.9533C12.9582 11.3605 13.4009 10.88 13.9469 10.88C14.4929 10.88 14.9356 11.3605 14.9356 11.9533Z" fill="#012F7A"/>
</svg>
