<svg width="24" height="24" viewBox="0 0 24 24" fill="none" xmlns="http://www.w3.org/2000/svg">
<rect width="24" height="24" rx="11.9998" fill="#F5AC37"/>
<path d="M12.4413 12.8475H17.0011C17.0983 12.8475 17.1442 12.8475 17.1512 12.72C17.1885 12.2561 17.1885 11.7896 17.1512 11.3252C17.1512 11.235 17.1064 11.1977 17.0087 11.1977H7.93387C7.82155 11.1977 7.7913 11.235 7.7913 11.3403V12.6752C7.7913 12.8475 7.79131 12.8475 7.97113 12.8475H12.4413ZM16.642 9.63766C16.655 9.60364 16.655 9.56638 16.642 9.5329C16.5659 9.36712 16.4757 9.2089 16.3709 9.0604C16.2132 8.80659 16.0275 8.57277 15.8158 8.36271C15.7159 8.23581 15.6003 8.12187 15.4707 8.02521C14.8216 7.47278 14.05 7.08182 13.2205 6.88525C12.802 6.79129 12.3743 6.74647 11.9456 6.75025H7.91821C7.80588 6.75025 7.79076 6.79507 7.79076 6.89281V9.55504C7.79076 9.66736 7.79076 9.6976 7.93333 9.6976H16.588C16.588 9.6976 16.6631 9.68248 16.6782 9.63766H16.6415H16.642ZM16.642 14.4075C16.5146 14.3935 16.386 14.3935 16.2586 14.4075H7.94143C7.82911 14.4075 7.7913 14.4075 7.7913 14.5576V17.1605C7.7913 17.2804 7.7913 17.3106 7.94143 17.3106H11.7814C11.965 17.3246 12.1486 17.3117 12.3284 17.2733C12.8857 17.2334 13.4338 17.1124 13.9565 16.9132C14.1466 16.8473 14.3302 16.7614 14.5036 16.6583H14.556C15.4561 16.1901 16.1873 15.4546 16.6485 14.5517C16.6485 14.5517 16.7009 14.4383 16.642 14.4086V14.4075ZM6.28415 18.6601V18.6153V16.8678V16.2754V14.5128C6.28415 14.4151 6.28415 14.4005 6.16427 14.4005H4.53669C4.44651 14.4005 4.40925 14.4005 4.40925 14.2806V12.8556H6.14915C6.24635 12.8556 6.28415 12.8556 6.28415 12.7281V11.3182C6.28415 11.228 6.28415 11.2058 6.16427 11.2058H4.53669C4.44651 11.2058 4.40925 11.2058 4.40925 11.086V9.76618C4.40925 9.68356 4.40925 9.66142 4.52913 9.66142H6.14159C6.25391 9.66142 6.28415 9.66142 6.28415 9.51886V5.47638C6.28415 5.3565 6.28415 5.32626 6.43427 5.32626H12.059C12.4672 5.34246 12.8728 5.38728 13.274 5.46126C14.1007 5.61408 14.8951 5.90946 15.6214 6.33121C16.1031 6.61471 16.5464 6.95707 16.9412 7.35128C17.2382 7.65962 17.506 7.99335 17.7436 8.34867C17.9796 8.70885 18.1756 9.09388 18.3295 9.49618C18.3484 9.60094 18.4489 9.67168 18.5536 9.65386H19.8961C20.0683 9.65386 20.0683 9.65386 20.0759 9.8191V11.0492C20.0759 11.1691 20.0311 11.1994 19.9106 11.1994H18.8755C18.7707 11.1994 18.7405 11.1994 18.748 11.3344C18.7891 11.7912 18.7891 12.2497 18.748 12.7065C18.748 12.834 18.748 12.8491 18.8911 12.8491H20.0753C20.1277 12.9166 20.0753 12.9841 20.0753 13.0521C20.0829 13.1391 20.0829 13.2271 20.0753 13.314V14.2218C20.0753 14.3492 20.0381 14.387 19.9252 14.387H18.5077C18.4089 14.3681 18.3128 14.4313 18.2901 14.5296C17.9526 15.4071 17.4126 16.1939 16.7149 16.8246C16.46 17.0541 16.1922 17.2701 15.9124 17.4694C15.6122 17.6422 15.3201 17.822 15.0123 17.9645C14.4458 18.2194 13.8518 18.4073 13.2421 18.5267C12.6632 18.6304 12.0762 18.6774 11.4871 18.6693H6.28199V18.6617L6.28415 18.6601Z" fill="#FEFEFD"/>
</svg>
