<svg width="24" height="24" viewBox="0 0 24 24" fill="none" xmlns="http://www.w3.org/2000/svg">
<g clip-path="url(#clip0_13147_1914)">
<mask id="mask0_13147_1914" style="mask-type:alpha" maskUnits="userSpaceOnUse" x="0" y="0" width="24" height="24">
<circle cx="12" cy="12" r="12" fill="#FFF5E5"/>
</mask>
<g mask="url(#mask0_13147_1914)">
<circle cx="12" cy="12" r="12" fill="#0E121B"/>
</g>
<path d="M17.3266 8.70801C17.1188 8.74251 16.721 8.64633 16.2298 8.12964C15.7861 7.6628 15.682 7.20074 15.7341 7.03258L16.2933 6.52803C16.1892 6.78621 16.37 7.25227 16.7517 7.65384C17.1234 8.04486 17.6133 8.26379 17.8943 8.19539L17.3266 8.70801Z" fill="white"/>
<ellipse cx="1.16057" cy="0.566131" rx="1.16057" ry="0.566131" transform="matrix(0.688942 0.724817 -0.724837 0.688921 16.9529 5.88931)" fill="white"/>
<path d="M15.615 7.4689C15.6592 7.71844 15.8254 8.02829 16.0896 8.30631C16.3159 8.54423 16.5689 8.71165 16.7918 8.79093C15.7111 9.76805 15.8428 10.103 15.8918 10.3081C15.9717 10.57 15.6033 10.4925 15.5901 10.4897C15.6162 10.6698 15.4142 10.6472 15.4142 10.6472C16.8337 14.8669 9.42279 17.9148 9.42279 17.9148C9.1756 18.0234 8.85114 17.7765 8.77643 17.7021C7.87803 16.7396 6.24431 14.8943 5.98434 14.606C5.67961 14.2678 5.75798 13.9853 5.80601 13.9042C9.84488 6.7809 13.5749 8.63345 13.6168 8.65454C13.638 8.47664 13.7926 8.49701 13.7926 8.49701C13.7829 8.37709 13.7997 8.1495 13.97 8.17707C14.226 8.21895 14.9121 8.09995 15.6139 7.467L15.615 7.4689Z" fill="white"/>
<mask id="mask1_13147_1914" style="mask-type:alpha" maskUnits="userSpaceOnUse" x="6" y="9" width="9" height="9">
<path d="M13.3249 9.23176C13.3249 9.23176 9.89317 7.93561 6.53807 13.8641C6.49837 13.9313 6.43375 14.1653 6.68682 14.4459C6.9024 14.6849 8.25705 16.2146 9.00196 17.0127C9.06393 17.0745 9.33273 17.2794 9.53731 17.1895C9.53731 17.1895 15.9308 14.4009 14.8152 10.8841C14.599 10.1021 13.9748 9.46049 13.3249 9.23176Z" fill="#F2D556"/>
</mask>
<g mask="url(#mask1_13147_1914)">
<path d="M13.3249 9.23176C13.3249 9.23176 9.89317 7.93561 6.53807 13.8641C6.49837 13.9313 6.43375 14.1653 6.68682 14.4459C6.9024 14.6849 8.25705 16.2146 9.00196 17.0127C9.06393 17.0745 9.33273 17.2794 9.53731 17.1895C9.53731 17.1895 15.9308 14.4009 14.8152 10.8841C14.599 10.1021 13.9748 9.46049 13.3249 9.23176Z" fill="#FC7A4A"/>
<path d="M8.52631 15.3852C7.05263 15.7968 4.82687 15.9498 5.24004 15.0721L3.75802 17.3284L5.55476 20.2627L7.4068 21.7686L11.8476 18.6928L13.0034 15.7976C12.749 13.9851 9.66573 15.0669 8.52631 15.3852Z" fill="#FC7A4A"/>
</g>
</g>
<defs>
<clipPath id="clip0_13147_1914">
<rect width="24" height="24" rx="12" fill="white"/>
</clipPath>
</defs>
</svg>
