<svg preserveAspectRatio="none" width="100%" height="100%" overflow="visible" style="display: block;" viewBox="0 0 82 30" fill="none" xmlns="http://www.w3.org/2000/svg">
<g id="Logo">
<path id="Vector" d="M0.0608998 13.2026C3.66527 13.1002 12.2622 12.7155 14.1809 9.99284C15.6395 7.92388 12.4202 5.76941 10.8901 4.99088C9.36007 4.21009 7.23158 3.86133 7.23158 3.86133C11.5151 4.33272 18.2868 6.62107 16.1791 10.7815C14.2916 14.5054 4.45048 15.0117 0.0585938 15.0117V13.2015H0.0608998V13.2026Z" fill="var(--fill-0, #0E121B)"/>
<path id="Vector_2" d="M0.0585938 22.5478V20.7668C5.51011 20.5891 12.795 20.4349 16.5734 16.9102C16.676 20.0153 12.3176 21.416 8.98189 21.9999C6.0947 22.505 3.02072 22.6288 0.0597468 22.5478H0.0585938Z" fill="var(--fill-0, #0E121B)"/>
<path id="Vector_3" d="M16.5748 13.0547C13.5827 16.0698 7.57886 16.9069 0 16.9069V18.7126C7.96973 18.7126 16.5517 17.5718 16.5748 13.0547Z" fill="var(--fill-0, #0E121B)"/>
<path id="Vector_4" d="M69.3359 16.5755C69.3359 13.2161 71.476 10.4688 75.0354 10.4688C79.1067 10.4688 80.6183 13.4198 80.4327 16.3708H71.7781C71.8242 19.2306 73.4765 20.8878 75.6868 20.8878C77.4083 20.8878 78.6178 19.9574 79.2001 18.3002L80.5261 18.6636C79.968 21.0926 78.0367 22.7048 75.2452 22.7048C71.6155 22.7048 69.3359 19.9585 69.3359 16.5755ZM71.8484 15.2356H77.9433C77.8268 13.3061 76.803 11.6714 75.0354 11.6714C73.2678 11.6714 72.1274 13.215 71.8484 15.2356Z" fill="var(--fill-0, #0E121B)"/>
<path id="Vector_5" d="M68.053 21.232L68.867 22.2985V22.4797H64.8418V22.2985L65.6558 21.232V8.01716L64.8418 6.85949V6.67835L68.0518 6.11133V21.232H68.053Z" fill="var(--fill-0, #0E121B)"/>
<path id="Vector_6" d="M51.9556 26.7232V26.542L52.7696 25.3618V11.9906L51.9556 10.9826L51.9395 10.5843H55.1426V12.8547C55.794 11.4022 57.3068 10.4707 59.0041 10.4707C62.1449 10.4707 64.3783 12.9672 64.3783 16.6C64.3783 20.2328 61.912 22.7067 58.5152 22.7067C57.1892 22.7067 55.9555 22.1847 55.1414 21.2082V25.3618L56.2575 26.542V26.7232H51.9533H51.9556ZM58.2834 21.4107C60.4465 21.4107 61.8889 19.3451 61.8889 16.5988C61.8889 13.8526 60.5168 12.1268 58.446 12.1268C53.9849 12.1268 53.5721 21.4107 58.2834 21.4107Z" fill="var(--fill-0, #0E121B)"/>
<path id="Vector_7" d="M44.427 22.7048C41.2861 22.7048 39.0527 20.1847 39.0527 16.5755C39.0527 12.9664 41.5191 10.4688 44.9159 10.4688C46.4287 10.4688 47.8008 11.0819 48.5456 11.9212L49.4761 10.5824H50.6626V21.2062L51.4766 22.2953V22.4775H48.2896V20.3208C47.6382 21.7507 46.1254 22.7048 44.4282 22.7048H44.427ZM45.0081 21.0476C49.6952 21.0476 49.656 11.7637 45.1476 11.7637C42.9846 11.7637 41.5421 13.8293 41.5421 16.5766C41.5421 19.324 42.9142 21.0487 45.0081 21.0487V21.0476Z" fill="var(--fill-0, #0E121B)"/>
<path id="Vector_8" d="M19.4919 22.4794V22.2982L20.4927 21.1631L20.4962 7.49822L19.4492 6.29554V6.11441H23.2842L28.0531 16.6471C28.8441 18.3493 29.2396 19.7793 29.2396 19.7793C29.2396 19.7793 29.6351 18.3493 30.3799 16.6235L34.9632 6.11328H38.8247V6.29441L37.7778 7.49709V21.0944L38.8247 22.2971V22.4782H34.1722V22.2971L35.2192 21.0944V12.5823C35.2192 10.7204 35.3356 9.22292 35.3356 9.22292C35.3356 9.22292 34.8006 10.6304 34.0327 12.3551L29.4967 22.4794H28.0081L23.4249 12.4001C22.6339 10.6979 22.1219 9.29042 22.1219 9.29042C22.1219 9.29042 22.2384 10.789 22.2384 12.6498L22.2845 21.1619L23.2853 22.2971V22.4782H19.493L19.4919 22.4794Z" fill="var(--fill-0, #0E121B)"/>
</g>
</svg>
