<svg width="24" height="24" viewBox="0 0 24 24" fill="none" xmlns="http://www.w3.org/2000/svg">
<g clip-path="url(#clip0_13233_8027)">
<path d="M0 12C0 5.37258 5.37258 0 12 0C18.6274 0 24 5.37258 24 12C24 18.6274 18.6274 24 12 24C5.37258 24 0 18.6274 0 12Z" fill="white"/>
<path d="M21.0009 11.6104C20.8109 7.10875 17.3442 3.45883 12.9349 3.00443C12.4233 2.95141 12.0051 3.37551 12.0051 3.89223V6.38694C12.0051 6.90364 12.4261 7.31278 12.9305 7.41475C14.6618 7.76553 16.0454 9.08035 16.5017 10.7777C16.6863 10.7143 16.8965 10.6756 17.1394 10.6747C17.9774 10.6786 18.4296 11.1437 18.7819 11.5198C19.1113 11.8668 19.3742 12.1393 19.9254 12.1474C20.4386 12.1482 20.7013 11.9156 21.0009 11.6104Z" fill="#3F75FF"/>
<path d="M8.02258 3.88696C8.59057 3.60537 9.21054 4.0538 9.21054 4.68995V10.6994C8.37187 10.7053 7.92452 11.1613 7.571 11.5321L7.56357 11.5398C7.23349 11.8789 6.97128 12.1483 6.41903 12.1475C5.8679 12.1394 5.60502 11.8669 5.27553 11.5199C4.92325 11.1437 4.47109 10.6787 3.63304 10.6747C3.42908 10.6755 3.24819 10.7029 3.08612 10.7492C3.50205 7.72988 5.40205 5.18687 8.02258 3.88696Z" fill="#3F75FF"/>
<path d="M12.9342 20.9955C12.4226 21.0482 12.0043 20.6244 12.0043 20.1077V17.613C12.0043 17.0966 12.4253 16.6872 12.9298 16.5852C15.0585 16.1539 16.6616 14.2651 16.6616 11.9999C16.6616 11.9793 16.6615 11.9587 16.6612 11.9382C16.7964 11.8835 16.9512 11.8522 17.1398 11.8525C17.691 11.8606 17.9538 12.1331 18.2833 12.4801C18.6356 12.8562 19.0878 13.3213 19.9258 13.3253C20.3569 13.3236 20.6849 13.2032 20.9499 13.0362C20.4728 17.2366 17.1303 20.5631 12.9342 20.9955Z" fill="#003F99"/>
<path d="M3 12.0154C3.00594 15.5675 5.05081 18.6392 8.02187 20.113C8.58986 20.3946 9.20988 19.9462 9.20988 19.31V11.8772C8.6633 11.879 8.40208 12.1474 8.07366 12.4849L8.06624 12.4925C7.71168 12.8644 7.2628 13.3219 6.41954 13.3253C5.58147 13.3213 5.12932 12.8562 4.77704 12.4801C4.44755 12.1331 4.18466 11.8606 3.63353 11.8525C3.36888 11.8521 3.17083 11.9137 3 12.0154Z" fill="#003F99"/>
<path d="M24 12C24 18.6274 18.6274 24 12 24C5.37258 24 0 18.6274 0 12C0 5.37258 5.37258 0 12 0C18.6274 0 24 5.37258 24 12ZM0.72 12C0.72 18.2298 5.77023 23.28 12 23.28C18.2298 23.28 23.28 18.2298 23.28 12C23.28 5.77023 18.2298 0.72 12 0.72C5.77023 0.72 0.72 5.77023 0.72 12Z" fill="#E1E4EA"/>
</g>
<defs>
<clipPath id="clip0_13233_8027">
<path d="M0 12C0 5.37258 5.37258 0 12 0C18.6274 0 24 5.37258 24 12C24 18.6274 18.6274 24 12 24C5.37258 24 0 18.6274 0 12Z" fill="white"/>
</clipPath>
</defs>
</svg>
