<svg width="24" height="24" viewBox="0 0 24 24" fill="none" xmlns="http://www.w3.org/2000/svg">
<path d="M12 0H12C5.37257 0 0 5.37257 0 12V12C0 18.6274 5.37257 24 12 24H12C18.6274 24 24 18.6274 24 12V12C24 5.37257 18.6274 0 12 0Z" fill="url(#paint0_linear_13147_1641)"/>
<path d="M12 0H12C5.37257 0 0 5.37257 0 12V12C0 18.6274 5.37257 24 12 24H12C18.6274 24 24 18.6274 24 12V12C24 5.37257 18.6274 0 12 0Z" fill="url(#paint1_radial_13147_1641)" fill-opacity="0.46"/>
<mask id="mask0_13147_1641" style="mask-type:luminance" maskUnits="userSpaceOnUse" x="5" y="7" width="13" height="10">
<path d="M17.9997 7.28278H5.99976V16.6833H17.9997V7.28278Z" fill="white"/>
</mask>
<g mask="url(#mask0_13147_1641)">
<path d="M7.94264 14.469C8.01618 14.3954 8.11592 14.3542 8.21988 14.3542H17.8138C17.9885 14.3542 18.076 14.5655 17.9524 14.689L16.0566 16.5833C15.9831 16.6567 15.8834 16.698 15.7794 16.698H6.18553C6.01076 16.698 5.92328 16.4867 6.04691 16.3632L7.94264 14.469Z" fill="white"/>
<path d="M7.94264 7.39213C8.01618 7.31859 8.11592 7.27728 8.21988 7.27728H17.8138C17.9885 7.27728 18.076 7.48868 17.9524 7.61216L16.0566 9.50643C15.9831 9.5799 15.8834 9.6212 15.7794 9.6212H6.18553C6.01076 9.6212 5.92328 9.40988 6.04691 9.28633L7.94264 7.39213Z" fill="white"/>
<path d="M16.0566 10.9082C15.9831 10.8346 15.8834 10.7934 15.7794 10.7934H6.18553C6.01076 10.7934 5.92328 11.0047 6.04691 11.1282L7.94264 13.0225C8.01618 13.0959 8.11592 13.1372 8.21988 13.1372H17.8138C17.9885 13.1372 18.076 12.9258 17.9524 12.8024L16.0566 10.9082Z" fill="white"/>
</g>
<path d="M21.8569 11.9999C21.8569 17.4439 17.4437 21.8571 11.9997 21.8571C6.55577 21.8571 2.14258 17.4439 2.14258 11.9999C2.14258 6.55601 6.55577 2.14282 11.9997 2.14282C17.4437 2.14282 21.8569 6.55601 21.8569 11.9999Z" stroke="white" stroke-width="0.857141"/>
<defs>
<linearGradient id="paint0_linear_13147_1641" x1="6.85714" y1="7.28567" x2="16.2857" y2="16.7143" gradientUnits="userSpaceOnUse">
<stop stop-color="#4BC57C"/>
<stop offset="1" stop-color="#289279"/>
</linearGradient>
<radialGradient id="paint1_radial_13147_1641" cx="0" cy="0" r="1" gradientUnits="userSpaceOnUse" gradientTransform="translate(12 4.28571) rotate(90) scale(23.1428)">
<stop stop-color="#F1F2B3" stop-opacity="0.92"/>
<stop offset="1" stop-color="#F5E8A3" stop-opacity="0"/>
</radialGradient>
</defs>
</svg>
