<svg width="24" height="24" viewBox="0 0 24 24" fill="none" xmlns="http://www.w3.org/2000/svg">
<rect width="24" height="24" rx="11.9998" fill="#091326"/>
<path opacity="0.7" d="M20.16 17.8352C18.3409 20.3593 15.3725 22.0029 12.0195 22.0029C6.48636 22.0029 2.00003 17.5255 2.00003 12.0026C2.00003 6.47962 6.48636 2.00296 12.0195 2.00296C15.3657 2.00296 18.3288 3.63978 20.1479 6.15483" stroke="url(#paint0_radial_13147_1794)" stroke-width="0.999984" stroke-linecap="round" stroke-linejoin="round"/>
<path d="M11.711 10.7179C11.6001 10.5433 11.6578 10.3303 11.8221 10.2267L11.711 10.7179ZM11.711 10.7179L11.7145 10.7229L11.7867 10.8252C11.8963 10.9804 12.1265 11.0316 12.2925 10.9271L15.9282 8.63031C16.0906 8.52798 16.1537 8.30098 16.0359 8.13408L15.9637 8.03175C15.8541 7.87649 15.6239 7.8253 15.4579 7.92984L11.8221 10.2267L11.711 10.7179ZM15.9285 15.3546L9.7509 11.4686V8.29709C9.7509 8.06224 9.54366 7.87647 9.3129 7.87647C9.08215 7.87647 8.8749 8.06224 8.8749 8.29709V15.6878C8.8749 15.9227 9.08215 16.1084 9.3129 16.1084C9.54366 16.1084 9.7509 15.9227 9.7509 15.6878V12.469L15.4462 16.0551C15.6435 16.1793 15.9113 16.1358 16.0483 15.9418L16.0711 15.9094V15.8966C16.182 15.7116 16.1161 15.4728 15.9285 15.3546Z" fill="white"/>
<path d="M11.711 10.7179C11.6001 10.5433 11.6578 10.3303 11.8221 10.2267M11.711 10.7179L11.8221 10.2267M11.711 10.7179L11.7145 10.7229L11.7867 10.8252C11.8963 10.9804 12.1265 11.0316 12.2925 10.9271L15.9282 8.63031M11.8221 10.2267L15.4579 7.92984C15.6239 7.8253 15.8541 7.87649 15.9637 8.03175L16.0359 8.13408C16.1537 8.30098 16.0906 8.52798 15.9282 8.63031M15.9282 8.63031L15.8616 8.52454M15.9285 15.3546L9.7509 11.4686V8.29709C9.7509 8.06224 9.54366 7.87647 9.3129 7.87647C9.08215 7.87647 8.8749 8.06224 8.8749 8.29709V15.6878C8.8749 15.9227 9.08215 16.1084 9.3129 16.1084C9.54366 16.1084 9.7509 15.9227 9.7509 15.6878V12.469L15.4462 16.0551C15.6435 16.1793 15.9113 16.1358 16.0483 15.9418L16.0711 15.9094V15.8966C16.182 15.7116 16.1161 15.4728 15.9285 15.3546Z" stroke="white" stroke-width="0.249996"/>
<defs>
<radialGradient id="paint0_radial_13147_1794" cx="0" cy="0" r="1" gradientUnits="userSpaceOnUse" gradientTransform="translate(21.5902 7.04764) rotate(108.872) scale(11.3311 27.4786)">
<stop offset="0.139194" stop-color="white" stop-opacity="0.5"/>
<stop offset="0.620501" stop-color="white" stop-opacity="0.8"/>
<stop offset="1" stop-color="white"/>
</radialGradient>
</defs>
</svg>
