<svg width="24" height="24" viewBox="0 0 24 24" fill="none" xmlns="http://www.w3.org/2000/svg">
<g clip-path="url(#clip0_13147_1603)">
<rect width="24" height="24" rx="12" fill="#162E2F"/>
<path d="M-4.5 3.75H14.1V7.47L15.96 9.795L14.1 12.12L17.355 14.2125L14.1 16.305V20.49H-4.5V3.75Z" fill="url(#paint0_linear_13147_1603)"/>
<path d="M9 7.5H0V9.75H9V7.5Z" fill="url(#paint1_linear_13147_1603)"/>
<path d="M0 16.5H9V14.25H0V16.5Z" fill="url(#paint2_linear_13147_1603)"/>
<path d="M17.8285 8.89311C17.6498 7.06592 16.0725 6.45597 14.0822 6.28485L14.0779 3.75L12.536 3.75281L12.5403 6.2209C12.135 6.22155 11.7207 6.23029 11.309 6.23919L11.3052 3.75472L9.76421 3.75731L9.76799 6.29147C9.4343 6.29888 9.10644 6.30571 8.78681 6.30639L8.78664 6.29847L6.66016 6.30127L6.66334 7.94924C6.66334 7.94924 7.80183 7.92566 7.78296 7.94655C8.40737 7.94566 8.61127 8.30822 8.6711 8.62123C8.67504 10.9376 8.6789 13.2488 8.6825 15.5655C8.6555 15.7623 8.54055 16.0762 8.10419 16.0776C8.12403 16.0951 6.98349 16.0792 6.98349 16.0792L6.68018 17.9225L8.68661 17.9191C9.06007 17.919 9.42744 17.9247 9.78821 17.9262L9.79318 20.49L11.3333 20.4876L11.3289 17.9509C11.7518 17.959 12.161 17.9617 12.5606 17.9607L12.5642 20.4855L14.1061 20.4827L14.1021 17.9235C16.694 17.7704 18.5071 17.1139 18.7281 14.6774C18.9067 12.7155 17.9833 11.8419 16.5114 11.4908C17.4046 11.0337 17.9615 10.2301 17.8285 8.89311ZM15.6806 14.3787C15.6847 16.2945 12.4064 16.0822 11.3614 16.085L11.3562 12.6881C12.4013 12.6867 15.6774 12.3803 15.6806 14.3787ZM14.9555 9.58731C14.958 11.3304 12.2239 11.1316 11.3535 11.1332L11.3485 8.05244C12.2188 8.05094 14.9522 7.7694 14.9555 9.58731Z" fill="#C4FDF2"/>
</g>
<defs>
<linearGradient id="paint0_linear_13147_1603" x1="17.355" y1="12.12" x2="-4.5" y2="12.12" gradientUnits="userSpaceOnUse">
<stop stop-color="#4E988D"/>
<stop offset="1" stop-color="#264C4A"/>
</linearGradient>
<linearGradient id="paint1_linear_13147_1603" x1="4.5" y1="7.5" x2="4.5" y2="9.75" gradientUnits="userSpaceOnUse">
<stop stop-opacity="0.1"/>
<stop offset="1" stop-opacity="0"/>
</linearGradient>
<linearGradient id="paint2_linear_13147_1603" x1="4.5" y1="16.5" x2="4.5" y2="14.25" gradientUnits="userSpaceOnUse">
<stop stop-opacity="0.1"/>
<stop offset="1" stop-opacity="0"/>
</linearGradient>
<clipPath id="clip0_13147_1603">
<rect width="24" height="24" rx="12" fill="white"/>
</clipPath>
</defs>
</svg>
