<svg width="331" height="97" viewBox="0 0 331 97" fill="none" xmlns="http://www.w3.org/2000/svg">
<path d="M1.00946 39.2654C15.7885 38.8351 51.039 37.2177 58.906 25.7734C64.8867 17.0767 51.6867 8.02049 45.4129 4.74798C39.1391 1.46601 30.4116 0 30.4116 0C47.9754 1.98148 75.7417 11.6004 67.0993 29.0885C59.3599 44.7417 19.0082 46.8698 1 46.8698V39.2607H1.00946V39.2654Z" fill="#141414"/>
<path d="M1 78.5499V71.0638C23.353 70.3166 53.2232 69.6687 68.7162 54.8525C69.137 67.9048 51.2659 73.7924 37.5884 76.2468C25.75 78.3702 13.1457 78.8904 1.00473 78.5499H1Z" fill="#141414"/>
<path d="M68.7257 38.6411C56.4571 51.315 31.8395 54.8334 0.763672 54.8334V62.4236C33.4422 62.4236 68.6312 57.6283 68.7257 38.6411Z" fill="#141414"/>
<path d="M285.056 53.4526C285.056 39.3316 293.83 27.7832 308.425 27.7832C325.119 27.7832 331.317 40.1875 330.556 52.5919H295.069C295.258 64.6132 302.033 71.5791 311.096 71.5791C318.155 71.5791 323.114 67.6681 325.502 60.7022L330.939 62.2297C328.651 72.4398 320.732 79.2165 309.286 79.2165C294.403 79.2165 285.056 67.6729 285.056 53.4526ZM295.358 47.8203H320.349C319.871 39.7099 315.673 32.8386 308.425 32.8386C301.177 32.8386 296.502 39.3269 295.358 47.8203Z" fill="#141414"/>
<path d="M279.803 73.0121L283.141 77.4953V78.2566H266.636V77.4953L269.974 73.0121V17.4645L266.636 12.5983V11.8369L279.798 9.45349V73.0121H279.803Z" fill="#141414"/>
<path d="M213.793 96.1039V95.3425L217.131 90.3817V34.1768L213.793 29.9396L213.727 28.2655H226.86V37.8087C229.532 31.7035 235.734 27.7878 242.694 27.7878C255.572 27.7878 264.73 38.2816 264.73 53.5518C264.73 68.8219 254.617 79.2211 240.689 79.2211C235.252 79.2211 230.193 77.0269 226.856 72.922V90.3817L231.432 95.3425V96.1039H213.783H213.793ZM239.739 73.7733C248.608 73.7733 254.523 65.0907 254.523 53.5471C254.523 42.0034 248.897 34.749 240.406 34.749C222.114 34.749 220.421 73.7733 239.739 73.7733Z" fill="#141414"/>
<path d="M182.93 79.212C170.051 79.212 160.894 68.6189 160.894 53.448C160.894 38.2772 171.006 27.7787 184.934 27.7787C191.137 27.7787 196.763 30.356 199.817 33.8839L203.633 28.2563H208.498V72.9129L211.836 77.4906V78.2567H198.768V69.1911C196.097 75.2017 189.894 79.212 182.935 79.212H182.93ZM185.313 72.2461C204.531 72.2461 204.37 33.2218 185.885 33.2218C177.015 33.2218 171.101 41.9044 171.101 53.4528C171.101 65.0011 176.727 72.2508 185.313 72.2508V72.2461Z" fill="#141414"/>
<path d="M80.673 78.2611V77.4997L84.7767 72.7281L84.7909 15.2889L80.498 10.2335V9.47214H96.2227L115.777 53.7456C119.02 60.9007 120.642 66.9114 120.642 66.9114C120.642 66.9114 122.263 60.9007 125.318 53.6463L144.111 9.46741H159.944V10.2288L155.651 15.2842V72.4396L159.944 77.495V78.2564H140.867V77.495L145.16 72.4396V36.6595C145.16 28.8329 145.638 22.5385 145.638 22.5385C145.638 22.5385 143.444 28.4546 140.295 35.7043L121.696 78.2611H115.592L96.7995 35.8934C93.5562 28.7383 91.4571 22.8223 91.4571 22.8223C91.4571 22.8223 91.9346 29.1214 91.9346 36.9433L92.1237 72.7234L96.2274 77.495V78.2564H80.6777L80.673 78.2611Z" fill="#141414"/>
</svg>
