<svg width="24" height="24" viewBox="0 0 24 24" fill="none" xmlns="http://www.w3.org/2000/svg">
<rect width="24" height="24" rx="12" fill="#FC7A4A"/>
<path d="M6.12127 10.6422C8.68792 10.5673 14.8098 10.2856 16.176 8.29214C17.2147 6.77724 14.9222 5.1998 13.8327 4.62977C12.7432 4.05809 11.2274 3.80273 11.2274 3.80273C14.2777 4.14788 19.0998 5.82338 17.5989 8.8696C16.2548 11.5962 9.24706 11.9669 6.11963 11.9669V10.6414H6.12127V10.6422Z" fill="white"/>
<path d="M6.12183 17.4271V16.1319C10.0024 16.0026 15.1908 15.876 17.8805 13.3125C17.9535 15.5708 14.851 16.5894 12.4765 17.0141C10.4213 17.3815 8.23037 17.486 6.12265 17.4271H6.12183Z" fill="white"/>
<path d="M17.7604 10.5469C15.6303 12.7289 11.5151 13.374 6.11963 13.374V14.6808C11.7934 14.6808 17.744 13.8159 17.7604 10.5469Z" fill="white"/>
</svg>
