<svg width="24" height="24" viewBox="0 0 24 24" fill="none" xmlns="http://www.w3.org/2000/svg">
<rect width="24" height="24" rx="12" fill="white"/>
<path fill-rule="evenodd" clip-rule="evenodd" d="M9.35198 14.9551V17.8067C9.35198 17.9549 9.19508 18.0478 9.06895 17.9743L4.24629 15.1627C4.12843 15.094 4.05566 14.9661 4.05566 14.8276V8.82288C4.05566 8.6747 4.21256 8.58182 4.33865 8.65531L6.70382 10.0341V13.3148L9.35198 14.9551Z" fill="#3864FF" fill-opacity="0.25"/>
<path fill-rule="evenodd" clip-rule="evenodd" d="M14.6483 14.9551V17.8067C14.6483 17.9549 14.8052 18.0478 14.9313 17.9743L19.754 15.1627C19.8719 15.094 19.9446 14.9661 19.9446 14.8276V8.82288C19.9446 8.6747 19.7877 8.58182 19.6616 8.65531L17.2965 10.0341V13.3148L14.6483 14.9551Z" fill="#3864FF" fill-opacity="0.25"/>
<path d="M6.50014 7.19107C6.50014 7.04457 6.66306 6.95274 6.79405 7.02542L11.9027 9.86119C11.9631 9.89472 12.0372 9.89472 12.0977 9.86119L17.2063 7.02542C17.3373 6.95274 17.5002 7.04457 17.5002 7.19107V13.159L12.1021 16.3427C12.0394 16.3796 11.9609 16.3796 11.8982 16.3427L6.50014 13.159V7.19107Z" fill="url(#paint0_linear_13233_8016)"/>
<path d="M24 12C24 18.6274 18.6274 24 12 24C5.37258 24 0 18.6274 0 12C0 5.37258 5.37258 0 12 0C18.6274 0 24 5.37258 24 12ZM0.72 12C0.72 18.2298 5.77023 23.28 12 23.28C18.2298 23.28 23.28 18.2298 23.28 12C23.28 5.77023 18.2298 0.72 12 0.72C5.77023 0.72 0.72 5.77023 0.72 12Z" fill="#E1E4EA"/>
<defs>
<linearGradient id="paint0_linear_13233_8016" x1="7.28591" y1="14.2391" x2="17.2851" y2="6.51881" gradientUnits="userSpaceOnUse">
<stop offset="0.16" stop-color="#3864FF"/>
<stop offset="0.56" stop-color="#6083FF"/>
<stop offset="1" stop-color="#3864FF"/>
</linearGradient>
</defs>
</svg>
