<svg width="24" height="24" viewBox="0 0 24 24" fill="none" xmlns="http://www.w3.org/2000/svg">
<rect width="24" height="24" rx="11.9998" fill="#2470FF"/>
<path opacity="0.8" d="M6.9945 14.184V17.758C6.9945 17.978 7.1807 18.0693 7.23863 18.09C7.29655 18.115 7.49103 18.1689 7.66482 18.0071L10.3686 15.4088C10.5988 15.1875 10.821 14.9549 10.9881 14.6828C11.0666 14.5549 11.0992 14.4828 11.0992 14.4828C11.2648 14.1466 11.2648 13.8228 11.1034 13.499C10.8634 13.0175 10.251 12.5276 9.32823 12.0628L7.75171 12.9428C7.28415 13.2084 6.9945 13.6776 6.9945 14.184Z" fill="white"/>
<path d="M5.44003 6.23478V9.9832C5.44003 10.4522 5.75451 10.8674 6.2014 11.0002C7.72412 11.4402 10.3764 12.3866 11.0179 13.7772C11.1005 13.9598 11.1502 14.1384 11.1668 14.3251C11.5931 13.5489 11.7875 12.6564 11.6965 11.7515C11.5723 10.4688 10.8936 9.3024 9.83443 8.55936L6.05657 5.91515C5.99036 5.86533 5.91174 5.84043 5.83312 5.84043C5.76692 5.84043 5.70899 5.85288 5.64692 5.88609C5.52278 5.95666 5.44003 6.08534 5.44003 6.23478Z" fill="white"/>
<path opacity="0.8" d="M17.0509 14.184V17.758C17.0509 17.978 16.8647 18.0693 16.8067 18.09C16.7489 18.115 16.5543 18.1689 16.3806 18.0071L13.6139 15.3484C13.4255 15.1673 13.2457 14.9759 13.1039 14.7565C12.9915 14.5828 12.9462 14.4828 12.9462 14.4828C12.7807 14.1466 12.7807 13.8228 12.9419 13.499C13.182 13.0175 13.7944 12.5276 14.7171 12.0628L16.2936 12.9428C16.7654 13.2084 17.0509 13.6776 17.0509 14.184Z" fill="white"/>
<path d="M18.608 6.23447V9.98284C18.608 10.452 18.2934 10.867 17.8466 10.9999C16.3238 11.4399 13.6716 12.3864 13.0302 13.7769C12.9474 13.9596 12.8977 14.138 12.8812 14.3248C12.455 13.5486 12.2606 12.6561 12.3515 11.7512C12.4756 10.4685 13.1542 9.30212 14.2136 8.55908L17.9914 5.91484C18.0577 5.86502 18.1362 5.84012 18.2149 5.84012C18.281 5.84012 18.339 5.85258 18.401 5.88579C18.5252 5.95635 18.608 6.08503 18.608 6.23447Z" fill="white"/>
</svg>
