<svg width="24" height="24" viewBox="0 0 24 24" fill="none" xmlns="http://www.w3.org/2000/svg">
<g clip-path="url(#clip0_13147_1903)">
<path d="M0 0H24V24H0V0Z" fill="#FFD15C"/>
<path d="M24 12C24 18.6274 18.6274 24 12 24C5.37264 24 0 18.6274 0 12C0 5.37264 5.37264 0 12 0C18.6274 0 24 5.37264 24 12Z" fill="#FFD15C"/>
<path d="M20.8314 10.1622C20.2243 9.31213 19.58 8.86657 19.1767 8.65009C19.0329 8.38621 18.8759 8.1298 18.7061 7.88185C18.2096 7.15609 17.6923 6.52681 17.1688 6.01141C16.6792 5.52937 16.1683 5.13169 15.6504 4.82929C14.7493 4.30297 13.8146 4.04617 12.7931 4.04425H12.7814C11.8462 4.04425 10.992 4.25701 10.2794 4.46545C10.0744 4.52601 9.86992 4.58841 9.666 4.65265C9.15156 4.81273 8.66568 4.96417 8.25564 5.03161C7.97628 5.07769 7.75728 5.18305 7.605 5.34481C7.461 5.49757 7.37544 5.70181 7.35036 5.95189C7.30356 6.41953 7.4694 7.04605 7.83 7.76377C8.55132 9.19945 9.933 10.78 11.35 11.7906C11.4954 11.8947 11.6334 12.0088 11.7629 12.1321L11.7571 12.1333C10.6552 12.2908 10.0811 13.4749 9.84864 14.1148C9.78804 14.2817 9.95304 14.4312 10.1214 14.3743C10.7891 14.1493 12.1348 13.7891 12.9226 14.2183C13.0697 14.9222 13.0076 15.6124 12.7421 16.1517C12.5791 16.4824 12.347 16.7469 12.0521 16.9375C11.7341 17.1433 11.3501 17.2584 10.9102 17.2796C10.4338 17.3026 9.89352 17.215 9.30468 17.0189C8.66412 16.8057 7.96068 16.4622 7.2138 15.9981L7.2 15.9895L7.1856 15.9819C7.17672 15.9771 7.16795 15.9721 7.15932 15.9669C8.22828 14.6787 7.57644 12.7332 7.31568 12.0918C7.28088 12.0063 7.16292 12.007 7.11588 12.0865C6.50508 13.1206 5.25228 13.0439 5.2746 14.2754L5.27304 14.2727C4.31544 13.4939 3.60444 14.53 2.41272 14.3743C2.32104 14.3625 2.24796 14.4551 2.29392 14.5351C2.63772 15.1337 3.76332 16.8361 5.42796 16.798C5.49396 16.8701 5.5704 16.9535 5.62956 17.0189L5.83044 17.2407C6.6462 18.1408 7.5396 18.8551 8.48592 19.3638C9.36744 19.8376 10.2952 20.1341 11.2435 20.2453C11.5277 20.2786 11.8122 20.2952 12.097 20.2951C13.7482 20.2951 15.3895 19.74 16.7956 18.6927C17.5794 18.1104 18.2572 17.3976 18.7992 16.5855C19.3526 15.7558 19.7401 14.8578 19.9507 13.9165C20.0902 13.2966 20.149 12.6613 20.1254 12.0263C20.6476 11.8709 21.2242 12.3313 21.5063 12.6016C21.5752 12.6675 21.6888 12.6265 21.6857 12.5313C21.671 12.099 21.5471 11.1647 20.8314 10.1622ZM16.0733 18.0231C14.6543 19.029 12.986 19.4767 11.3561 19.2856C10.529 19.1886 9.71736 18.9286 8.94348 18.5125C8.20476 18.1154 7.4982 17.5745 6.83868 16.9017C8.31252 17.7967 9.62952 18.2494 10.7586 18.2494C10.8253 18.2494 10.8914 18.2478 10.9567 18.2447C11.569 18.2152 12.114 18.0484 12.577 17.7487C13.0204 17.4619 13.3675 17.0681 13.6087 16.5786C13.8235 16.1427 13.943 15.6523 13.9639 15.1209C13.9834 14.6248 13.9165 14.1178 13.765 13.6139C13.4468 12.5566 12.7884 11.6296 11.9112 11.0039C11.2614 10.5403 10.6096 9.93949 10.0266 9.26653C9.55488 8.72209 9.15372 8.16157 8.85276 7.62805V7.62733C8.85276 7.62733 8.85036 7.62373 8.84664 7.61713L8.83752 7.60069C8.7876 7.50745 8.65632 7.19785 9.06996 7.13869C12.9785 6.58057 20.9311 14.0058 16.0733 18.0231Z" fill="black"/>
<path d="M9.06844 7.14047C8.65468 7.19951 8.78608 7.50887 8.836 7.60235L8.84512 7.61879L8.85136 7.62899V7.62971C9.1522 8.16323 9.55336 8.72375 10.0251 9.26819C10.6083 9.94127 11.2599 10.542 11.9097 11.0054C12.7871 11.6312 13.4454 12.5582 13.7634 13.6155C13.915 14.1194 13.9818 14.6264 13.9624 15.1225C13.9415 15.6539 13.8221 16.1443 13.6073 16.5803C13.366 17.0697 13.019 17.4636 12.5754 17.7504C12.1125 18.0499 11.5674 18.2168 10.9552 18.2463C10.8892 18.2496 10.8231 18.2512 10.7571 18.2511C9.628 18.2511 8.31112 17.7984 6.83716 16.9033C7.49668 17.5761 8.20324 18.1171 8.94196 18.5142C9.71584 18.9302 10.5275 19.1903 11.3546 19.2872C12.9846 19.4783 14.6529 19.0305 16.0719 18.0247C20.9297 14.0075 12.977 6.58223 9.06844 7.14047Z" fill="white"/>
<path d="M6.32813 16.0195C6.32821 16.0198 6.33005 16.0201 6.33365 16.0205C6.32981 16.0197 6.32813 16.0195 6.32813 16.0195Z" fill="black"/>
<path d="M13.1363 6.86975C13.0007 6.67967 12.7291 6.16403 13.5705 6.16403C14.412 6.16403 15.6978 7.11683 15.9593 7.46927C15.8778 7.68407 15.3349 7.73207 15.0636 7.71131C14.792 7.69043 14.3306 7.64579 13.9778 7.46927C13.6248 7.29275 13.272 7.05971 13.1363 6.86975Z" fill="white"/>
</g>
<defs>
<clipPath id="clip0_13147_1903">
<rect width="24" height="24" rx="12" fill="white"/>
</clipPath>
</defs>
</svg>
