<svg width="24" height="24" viewBox="0 0 24 24" fill="none" xmlns="http://www.w3.org/2000/svg">
<path d="M12.0001 0C18.6275 0 24.0001 5.37257 24.0001 12C24.0001 18.2297 19.2532 23.3503 13.1795 23.9426C13.2147 23.5123 13.2069 23.0794 13.1581 22.65C12.8092 19.602 10.4067 17.196 7.35952 16.8437V0.947143L7.35352 0.933429C8.78237 0.332571 10.3527 0 12.0001 0Z" fill="#DEDEDE"/>
<path d="M5.85845 16.842V1.70141L5.85245 1.69198C6.33417 1.40398 6.83559 1.15027 7.35245 0.933411L7.35845 0.947125V16.8437C10.4056 17.196 12.809 19.602 13.157 22.65C13.2067 23.0794 13.2136 23.5123 13.1785 23.9426C12.791 23.9803 12.3976 23.9991 11.9999 24C7.83416 24 4.16388 21.8777 2.01245 18.6548C3.05559 17.6434 4.40559 17.0057 5.84988 16.8428H5.85845V16.842Z" fill="#152E51"/>
<path d="M13.1794 23.9425C12.9291 27.0196 10.5342 29.5928 7.35082 29.9571C3.72939 30.3711 0.457676 27.7714 0.0436765 24.1499C-0.198895 22.0311 0.590533 20.0314 2.01339 18.6548C4.16482 21.8776 7.8351 23.9999 12.0008 23.9999C12.3985 23.9991 12.7911 23.9802 13.1794 23.9425Z" fill="#1E4480"/>
<path d="M5.85845 1.70145V16.842H5.84988C4.40559 17.0049 3.05645 17.6417 2.01245 18.654C0.741304 16.7494 0.000732422 14.4617 0.000732422 12C0.000732422 7.62002 2.34759 3.78687 5.8533 1.69202L5.85845 1.70145Z" fill="#DEDEDE"/>
</svg>
