<svg width="24" height="24" viewBox="0 0 24 24" fill="none" xmlns="http://www.w3.org/2000/svg">
<g clip-path="url(#clip0_13147_1896)">
<path d="M24 0H0V24H24V0Z" fill="#162F29"/>
<path d="M19.2288 12.0387C19.2288 12.112 19.2278 12.1853 19.2256 12.2586H15.7096V12.0984H12.3255C12.3255 12.0649 12.3266 12.0314 12.3266 11.999C12.3266 11.9665 12.3266 11.932 12.3255 11.8995H15.7096V11.7403H19.2226C19.2268 11.8398 19.2288 11.9393 19.2288 12.0387ZM12.2659 11.3173L15.5778 10.91L15.5976 11.0692L19.0948 10.6388C19.0613 10.4671 19.0215 10.2975 18.9765 10.131L15.5337 10.5551L15.5536 10.7142L12.2261 11.1236C12.2407 11.1885 12.2543 11.2534 12.2659 11.3194V11.3173ZM12.0931 10.6765L15.2584 9.88598L15.2972 10.041L18.6562 9.20225C18.587 9.03996 18.5126 8.87976 18.4331 8.72374L15.1725 9.53836L15.2113 9.69333L12.0198 10.4912C12.046 10.553 12.0701 10.6147 12.0931 10.6776V10.6765ZM11.8125 10.0765L14.7715 8.95933L14.828 9.10906L17.9587 7.92693C17.8572 7.77824 17.7504 7.63375 17.6373 7.49345L14.6448 8.62323L14.7014 8.77296L11.7067 9.90379C11.7434 9.96032 11.779 10.0179 11.8125 10.0765ZM11.424 9.52161L14.0375 8.15938L14.1108 8.30178L17.0007 6.79505C16.8677 6.66626 16.7295 6.54376 16.5871 6.42544L13.871 7.84108L13.9443 7.98347L11.2869 9.36874C11.3329 9.41899 11.379 9.46926 11.423 9.52161H11.424ZM10.7937 8.92268L13.1601 7.41806L13.2459 7.55314L15.8573 5.8925C15.6929 5.78779 15.5253 5.6904 15.3525 5.59932L12.9684 7.11545L13.0543 7.25053L10.6199 8.79809C10.6796 8.83787 10.7372 8.87976 10.7947 8.92268H10.7937ZM10.2346 8.57296L12.2177 6.94688L12.3193 7.07043L14.5526 5.23808C14.3631 5.16583 14.1684 5.10091 13.9715 5.04437L11.9905 6.66942L12.0921 6.79296L10.0367 8.47874C10.1037 8.50805 10.1697 8.53946 10.2346 8.57296ZM9.4943 8.28503L11.0607 6.72595L11.1727 6.83903L13.1632 4.86113C12.9475 4.82554 12.7287 4.79935 12.5067 4.78261L10.8094 6.47152L10.9214 6.58461L9.26708 8.23059C9.34352 8.24629 9.4189 8.26408 9.4943 8.28503ZM8.62837 8.15415L9.87752 6.64009L10.0011 6.74166L11.6272 4.77109C11.38 4.78261 11.1361 4.80668 10.8963 4.84229L9.6011 6.41183L9.72464 6.5134L8.37183 8.15309C8.40954 8.15205 8.44827 8.151 8.48597 8.151C8.53414 8.151 8.58126 8.15101 8.62837 8.15309V8.15415ZM7.87972 8.19917L8.84197 6.71024L8.976 6.79715L10.1393 4.99621C9.87332 5.06532 9.61366 5.14907 9.36027 5.24645L8.54147 6.51444L8.67549 6.60135L7.60957 8.25152C7.69858 8.23059 7.78863 8.21277 7.87972 8.19811V8.19917ZM7.04835 8.43057L7.74046 7.13327L7.88077 7.20865L8.79695 5.49252C8.50272 5.63595 8.22001 5.79826 7.94988 5.97835L7.4232 6.96469L7.56455 7.04007L6.74994 8.56669C6.84627 8.51747 6.94574 8.47245 7.04731 8.43162L7.04835 8.43057ZM6.45153 8.73527L6.74575 7.8997L6.89653 7.95311L7.46823 6.33016C7.1782 6.56052 6.90596 6.81181 6.65361 7.083L6.40755 7.7814L6.55833 7.83479L6.17302 8.92793C6.26306 8.85986 6.3552 8.79599 6.45049 8.73631L6.45153 8.73527ZM5.71754 9.33314L5.84738 8.72584L6.00338 8.75935L6.26515 7.53638C5.98978 7.8861 5.74582 8.26199 5.53745 8.65883L5.65368 8.68395L5.41493 9.68914C5.50813 9.56454 5.6097 9.44517 5.71754 9.33314ZM5.1783 10.043V9.2389C4.98356 9.75301 4.84534 10.3928 4.771 11.0199C4.86209 10.6723 5.0003 10.3446 5.1783 10.043ZM4.77623 12.9989C4.85267 13.5339 4.98669 14.0502 5.17307 14.5413V13.9475C5.00135 13.6544 4.86627 13.3361 4.77623 12.9989ZM5.44008 14.3444L5.64843 15.3161L5.53222 15.3412C5.74058 15.7391 5.98454 16.114 6.25992 16.4636L5.99815 15.2407L5.84213 15.2741L5.71021 14.6595C5.61493 14.559 5.52383 14.4543 5.44008 14.3433V14.3444ZM6.16569 15.0668L6.5531 16.1663L6.40232 16.2197L6.64837 16.9181C6.90072 17.1892 7.17296 17.4405 7.46299 17.6709L6.89129 16.0479L6.74051 16.1014L6.44524 15.2615C6.34996 15.2008 6.25678 15.1371 6.16673 15.069L6.16569 15.0668ZM6.74367 15.4301L7.56037 16.9609L7.41902 17.0364L7.94569 18.0227C8.21583 18.2028 8.49854 18.3651 8.79276 18.5085L7.87658 16.7923L7.73523 16.8678L7.04102 15.5673C6.93945 15.5266 6.83998 15.4804 6.74261 15.4313L6.74367 15.4301ZM7.6033 15.7465L8.67026 17.3987L8.53623 17.4856L9.35504 18.7535C9.60843 18.851 9.86809 18.9347 10.134 19.0038L8.97076 17.2028L8.83674 17.2897L7.87344 15.7988C7.78235 15.7841 7.69125 15.7663 7.60224 15.7453L7.6033 15.7465ZM8.36556 15.8469L9.71836 17.4866L9.59481 17.5882L10.89 19.1578C11.1298 19.1934 11.3738 19.2174 11.6209 19.2289L9.99478 17.2573L9.87123 17.3588L8.62209 15.8448C8.57706 15.8469 8.531 15.8469 8.48492 15.8469C8.44514 15.8469 8.40431 15.8469 8.36452 15.8448L8.36556 15.8469ZM9.26289 15.7694L10.9162 17.4143L10.8042 17.5274L12.5015 19.2163C12.7234 19.1996 12.9423 19.1734 13.158 19.1378L11.1685 17.1588L11.0555 17.2731L9.4901 15.7149C9.41576 15.7349 9.33932 15.7537 9.26289 15.7694ZM10.0335 15.5234L12.0868 17.2081L11.9853 17.3316L13.9663 18.9567C14.1631 18.9001 14.3579 18.8352 14.5474 18.7629L12.313 16.9306L12.2114 17.0542L10.2304 15.4291C10.1655 15.4627 10.0995 15.494 10.0325 15.5234H10.0335ZM10.6157 15.203L13.047 16.7495L12.9611 16.8846L15.3453 18.4006C15.5181 18.3095 15.6867 18.2112 15.8499 18.1076L13.2386 16.4469L13.1527 16.582L10.7895 15.0794C10.7319 15.1223 10.6743 15.1642 10.6146 15.204L10.6157 15.203ZM11.2858 14.6334L13.9401 16.0165L13.8668 16.1589L16.5829 17.5745C16.7253 17.4562 16.8635 17.3338 16.9965 17.205L14.1066 15.6982L14.0333 15.8406L11.423 14.4805C11.379 14.5329 11.334 14.5842 11.2869 14.6334H11.2858ZM11.7057 14.0973L14.6962 15.227L14.6396 15.3768L17.6321 16.5065C17.7442 16.3663 17.8509 16.2217 17.9535 16.0731L14.8228 14.891L14.7663 15.0406L11.8114 13.9245C11.7779 13.9831 11.7423 14.0407 11.7057 14.0973ZM12.0188 13.5109L15.2049 14.3067L15.1662 14.4616L18.4267 15.2763C18.5074 15.1203 18.5817 14.9601 18.6508 14.7977L15.2918 13.9591L15.2531 14.114L12.0921 13.3245C12.069 13.3874 12.0439 13.4491 12.0188 13.5109ZM12.2261 12.8785L15.5484 13.2868L15.5285 13.446L18.9712 13.8701C19.0163 13.7025 19.0561 13.5329 19.0896 13.3622L15.5924 12.9319L15.5724 13.091L12.2659 12.6837C12.2543 12.7497 12.2407 12.8146 12.2261 12.8795V12.8785Z" fill="white"/>
</g>
<defs>
<clipPath id="clip0_13147_1896">
<rect width="24" height="24" rx="12" fill="white"/>
</clipPath>
</defs>
</svg>
