<svg width="24" height="24" viewBox="0 0 24 24" fill="none" xmlns="http://www.w3.org/2000/svg">
<rect width="24" height="24" rx="12" fill="#232323"/>
<path d="M16.6804 9.03211C16.6422 9.07512 16.5944 9.10857 16.5418 9.12769C16.4893 9.15158 16.4319 9.16114 16.3746 9.16114H5.5502C5.16788 9.16114 4.97194 8.68324 5.23956 8.3965L7.01734 6.50881C7.05557 6.4658 7.10336 6.43235 7.16071 6.40845C7.21328 6.38456 7.27063 6.375 7.32797 6.375H18.1954C18.5825 6.375 18.7736 6.85768 18.5012 7.14441L16.6804 9.03211ZM16.6804 17.4718C16.5992 17.553 16.4893 17.6008 16.3746 17.6008H5.5502C5.16788 17.6008 4.97194 17.1325 5.23956 16.8553L7.01734 15.0106C7.05557 14.9676 7.10814 14.9341 7.16071 14.915C7.21328 14.8911 7.27063 14.8816 7.32797 14.8816H18.1954C18.5825 14.8816 18.7736 15.3547 18.5012 15.6319L16.6804 17.4718ZM16.6804 10.7573C16.5992 10.6761 16.4893 10.6283 16.3746 10.6283H5.5502C5.16788 10.6283 4.97194 11.0966 5.23956 11.3738L7.01734 13.2185C7.05557 13.2615 7.10814 13.295 7.16071 13.3141C7.21328 13.338 7.27063 13.3475 7.32797 13.3475H18.1954C18.5825 13.3475 18.7736 12.8744 18.5012 12.5972L16.6804 10.7573Z" fill="url(#paint0_linear_13147_1782)"/>
<defs>
<linearGradient id="paint0_linear_13147_1782" x1="5.94227" y1="17.7409" x2="17.7671" y2="6.22845" gradientUnits="userSpaceOnUse">
<stop stop-color="#CF41E8"/>
<stop offset="1" stop-color="#10F2B0"/>
</linearGradient>
</defs>
</svg>
