<svg width="25" height="24" viewBox="0 0 25 24" fill="none" xmlns="http://www.w3.org/2000/svg">
<rect width="24.0563" height="24" rx="12" fill="url(#paint0_linear_13147_1801)"/>
<path d="M14.5072 13.1792H21.3439C21.6068 13.1792 21.6599 12.8211 21.4207 12.7118L14.5076 9.5632V2.69982C14.5076 2.44364 14.165 2.35957 14.0468 2.58685L11.2048 8.05897L8.05547 6.61255C7.75417 6.49086 7.5691 6.73621 7.67141 6.94703L9.54938 10.8209H2.71272C2.44977 10.8209 2.39678 11.179 2.63591 11.2883L9.54899 14.4369V21.3003C9.54899 21.5564 9.89163 21.6405 10.0098 21.4133L12.8519 15.9411L16.0012 17.3875C16.3025 17.5092 16.4875 17.2639 16.3852 17.0531L14.5072 13.1792Z" fill="white"/>
<defs>
<linearGradient id="paint0_linear_13147_1801" x1="21.6295" y1="1.81818" x2="1.64241" y2="21.3341" gradientUnits="userSpaceOnUse">
<stop stop-color="#FA43BD"/>
<stop offset="1" stop-color="#FFA930"/>
</linearGradient>
</defs>
</svg>
