<svg width="24" height="24" viewBox="0 0 24 24" fill="none" xmlns="http://www.w3.org/2000/svg">
<rect width="24" height="24" rx="12" fill="#9CE500"/>
<path d="M16.6949 11.8192C17.7415 11.1588 18.4337 9.99122 18.4221 8.66274C18.4042 6.62384 16.6945 5 14.6483 5H9.75168C7.7055 5 5.99576 6.62378 5.97793 8.66274C5.96626 9.99122 6.65851 11.1588 7.70509 11.8192C7.83918 11.9039 7.83918 12.0962 7.70509 12.1808C6.65851 12.8412 5.96626 14.0088 5.97793 15.3373C5.99576 17.3761 7.7055 19 9.75168 19H14.6483C16.6944 19 18.4042 17.3762 18.4221 15.3373C18.4337 14.0088 17.7415 12.8412 16.6949 12.1807C16.5608 12.0961 16.5608 11.9039 16.6949 11.8192ZM14.7136 5.78272C16.3254 5.78272 17.6367 7.08948 17.6367 8.69566C17.6367 10.3018 16.3254 11.6086 14.7136 11.6086C13.1018 11.6086 11.7905 10.3018 11.7905 8.69566C11.7905 7.08948 13.1018 5.78272 14.7136 5.78272ZM11.8105 6.23856C11.8597 6.2073 11.9148 6.27042 11.8772 6.31488C11.333 6.95798 11.005 7.78868 11.005 8.69572C11.005 9.60276 11.333 10.4335 11.8772 11.0766C11.9148 11.121 11.8598 11.1841 11.8105 11.1529C10.9963 10.6353 10.4552 9.72746 10.4552 8.69572C10.4552 7.66398 10.9963 6.75622 11.8105 6.23856ZM10.7948 5.91084C10.8468 5.89494 10.8839 5.96068 10.8442 5.99776C10.1214 6.6721 9.6697 7.63122 9.6697 8.69566C9.6697 9.76006 10.1215 10.7192 10.8442 11.3935C10.8839 11.4305 10.8468 11.4963 10.7948 11.4805C9.59907 11.1151 8.72706 10.0053 8.72706 8.69566C8.72706 7.386 9.59917 6.27618 10.7948 5.91084ZM6.76327 8.69572C6.76327 7.26872 7.79852 6.07878 9.15979 5.83098C9.21099 5.82164 9.24211 5.88576 9.20306 5.92002C8.42995 6.59724 7.94154 7.58938 7.94154 8.69572C7.94154 9.80206 8.42995 10.7943 9.20306 11.4714C9.24217 11.5056 9.21099 11.5698 9.15979 11.5605C7.79852 11.3126 6.76327 10.1227 6.76327 8.69572ZM9.6864 18.2172C8.07457 18.2172 6.76333 16.9105 6.76333 15.3043C6.76333 13.6982 8.07463 12.3914 9.6864 12.3914C11.2981 12.3914 12.6095 13.6982 12.6095 15.3043C12.6095 16.9105 11.2981 18.2172 9.6864 18.2172ZM12.5895 17.7614C12.5403 17.7927 12.4852 17.7296 12.5228 17.6851C13.067 17.042 13.395 16.2113 13.395 15.3043C13.395 14.3972 13.067 13.5665 12.5228 12.9234C12.4852 12.879 12.5402 12.8159 12.5895 12.8471C13.4037 13.3647 13.9448 14.2725 13.9448 15.3043C13.9448 16.336 13.4037 17.2438 12.5895 17.7614ZM13.6052 18.0892C13.5531 18.1051 13.5161 18.0393 13.5558 18.0022C14.2786 17.3279 14.7303 16.3688 14.7303 15.3043C14.7303 14.2399 14.2785 13.2808 13.5558 12.6065C13.5161 12.5695 13.5532 12.5037 13.6052 12.5195C14.8009 12.8849 15.6729 13.9947 15.6729 15.3043C15.6729 16.614 14.8008 17.7238 13.6052 18.0892ZM15.2402 18.1691C15.189 18.1784 15.1579 18.1143 15.1969 18.08C15.97 17.4028 16.4585 16.4107 16.4585 15.3043C16.4585 14.198 15.97 13.2058 15.1969 12.5286C15.1578 12.4944 15.189 12.4303 15.2402 12.4396C16.6015 12.6875 17.6367 13.8773 17.6367 15.3043C17.6367 16.7314 16.6015 17.9213 15.2402 18.1691Z" fill="#254544" stroke="#254544" stroke-width="0.2"/>
</svg>
