<svg width="24" height="24" viewBox="0 0 24 24" fill="none" xmlns="http://www.w3.org/2000/svg">
<g clip-path="url(#clip0_13147_1824)">
<mask id="path-1-outside-1_13147_1824" maskUnits="userSpaceOnUse" x="-1" y="-1" width="26" height="26" fill="black">
<rect fill="white" x="-1" y="-1" width="26" height="26"/>
<path d="M0 12C0 5.37258 5.37258 0 12 0C18.6274 0 24 5.37258 24 12C24 18.6274 18.6274 24 12 24C5.37258 24 0 18.6274 0 12Z"/>
</mask>
<path d="M12.0003 0H11.9998C5.37249 0 0 5.37249 0 11.9998V12.0002C0 18.6275 5.37249 24 11.9998 24H12.0003C18.6275 24 24 18.6275 24 12.0002V11.9998C24 5.37249 18.6275 0 12.0003 0Z" fill="url(#paint0_radial_13147_1824)" fill-opacity="0.7"/>
<path fill-rule="evenodd" clip-rule="evenodd" d="M10.1184 2.3252C5.57727 3.19991 2.14697 7.19519 2.14697 11.9917C2.14697 16.7882 5.57727 20.7835 10.1184 21.6582V20.7356C6.07999 19.8747 3.05105 16.287 3.05105 11.9917C3.05105 7.69647 6.07999 4.1087 10.1184 3.24783V2.3252ZM13.8813 3.25145V2.32846C18.4141 3.20982 21.8359 7.20116 21.8359 11.9917C21.8359 16.7823 18.4141 20.7736 13.8813 21.6549V20.732C17.9113 19.8647 20.9318 16.2809 20.9318 11.9917C20.9318 7.70244 17.9113 4.11871 13.8813 3.25145Z" fill="black"/>
<path d="M13.3941 11.6627C14.1452 11.8059 14.7279 12.0819 15.1419 12.491C15.556 12.8897 15.7631 13.401 15.7631 14.0247V15.0064C15.7631 15.7528 15.4934 16.3561 14.9542 16.8162C14.4149 17.2661 13.7071 17.4911 12.8308 17.4911H12.5274V19.0556H11.4874V17.4911H11.1696C10.5918 17.4911 10.0814 17.3633 9.63847 17.1077C9.1955 16.8418 8.84882 16.4737 8.59845 16.0033C8.35767 15.5228 8.2373 14.9706 8.2373 14.3468H9.27732C9.27732 14.9808 9.45069 15.4972 9.79737 15.896C10.1536 16.2845 10.6207 16.4788 11.1985 16.4788H12.8019C13.37 16.4788 13.8274 16.3459 14.1741 16.08C14.5208 15.8039 14.6941 15.446 14.6941 15.0064V14.0247C14.6941 13.6771 14.5641 13.3805 14.3041 13.1352C14.0537 12.8897 13.7071 12.7313 13.2641 12.6597L10.664 12.1995C9.93214 12.0666 9.36398 11.7905 8.95954 11.3713C8.55509 10.9521 8.35284 10.4255 8.35284 9.79152V8.96327C8.35284 8.2168 8.61286 7.6238 9.1329 7.18408C9.66253 6.73417 10.3607 6.50924 11.2274 6.50924H11.4874V4.94476H12.5274V6.50924H12.8597C13.6782 6.50924 14.3378 6.77505 14.8386 7.30679C15.3393 7.82828 15.5897 8.51849 15.5897 9.37736H14.5497C14.5497 8.81499 14.3956 8.36508 14.0875 8.02764C13.7793 7.69025 13.37 7.52153 12.8597 7.52153H11.2274C10.6785 7.52153 10.2403 7.65443 9.9129 7.9203C9.58547 8.17592 9.42181 8.52362 9.42181 8.96327V9.79152C9.42181 10.1494 9.54217 10.451 9.78289 10.6965C10.0333 10.9418 10.3751 11.1054 10.8085 11.1873L13.3941 11.6627Z" fill="black"/>
</g>
<path d="M12 24V23.25C5.7868 23.25 0.75 18.2132 0.75 12H0H-0.75C-0.75 19.0416 4.95837 24.75 12 24.75V24ZM24 12H23.25C23.25 18.2132 18.2132 23.25 12 23.25V24V24.75C19.0416 24.75 24.75 19.0416 24.75 12H24ZM12 0V0.75C18.2132 0.75 23.25 5.7868 23.25 12H24H24.75C24.75 4.95837 19.0416 -0.75 12 -0.75V0ZM12 0V-0.75C4.95837 -0.75 -0.75 4.95837 -0.75 12H0H0.75C0.75 5.7868 5.7868 0.75 12 0.75V0Z" fill="#E1E4EA" mask="url(#path-1-outside-1_13147_1824)"/>
<defs>
<radialGradient id="paint0_radial_13147_1824" cx="0" cy="0" r="1" gradientUnits="userSpaceOnUse" gradientTransform="translate(12.0258 3.50431) rotate(90) scale(25.3012 17.8095)">
<stop offset="0.03125" stop-color="#FAFAFA"/>
<stop offset="1" stop-color="#E3E3E3"/>
</radialGradient>
<clipPath id="clip0_13147_1824">
<path d="M0 12C0 5.37258 5.37258 0 12 0C18.6274 0 24 5.37258 24 12C24 18.6274 18.6274 24 12 24C5.37258 24 0 18.6274 0 12Z" fill="white"/>
</clipPath>
</defs>
</svg>
