<svg width="24" height="24" viewBox="0 0 24 24" fill="none" xmlns="http://www.w3.org/2000/svg">
<rect width="24" height="24" rx="11.9998" fill="#FC7A4A"/>
<path d="M15.3 13.9C15.3 12.15 14.25 11.55 12.15 11.3001C10.65 11.1 10.35 10.7001 10.35 9.99998C10.35 9.2999 10.8501 8.85002 11.85 8.85002C12.75 8.85002 13.2501 9.15002 13.5 9.90002C13.5501 10.05 13.7001 10.15 13.8501 10.15H14.65C14.85 10.15 15 9.99998 15 9.80006V9.75002C14.8 8.64998 13.9 7.80002 12.75 7.70006V6.50006C12.75 6.30002 12.6 6.15002 12.3501 6.09998H11.6001C11.4 6.09998 11.25 6.24997 11.2 6.50006V7.65002C9.70001 7.85006 8.75009 8.85002 8.75009 10.1001C8.75009 11.7501 9.75005 12.4 11.85 12.6501C13.2501 12.9 13.7001 13.2 13.7001 14.0001C13.7001 14.8001 13 15.3501 12.0501 15.3501C10.75 15.3501 10.3 14.8 10.15 14.05C10.1001 13.8501 9.95009 13.75 9.80009 13.75H8.95001C8.75009 13.75 8.60009 13.9 8.60009 14.1V14.1501C8.80001 15.4 9.60005 16.3 11.25 16.5501V17.7501C11.25 17.95 11.4 18.1 11.65 18.15H12.4C12.6 18.15 12.75 18 12.8001 17.7501V16.5501C14.3001 16.3 15.3 15.25 15.3 13.9Z" fill="white"/>
<path d="M9.45005 19.15C5.55005 17.7501 3.55001 13.4001 5.00009 9.54998C5.75009 7.44998 7.40009 5.85002 9.45005 5.10002C9.65009 5.00006 9.75005 4.85006 9.75005 4.59998V3.90002C9.75005 3.69998 9.65009 3.54998 9.45005 3.50006C9.40001 3.50006 9.30005 3.50006 9.25001 3.54998C4.50005 5.04998 1.90001 10.1001 3.40001 14.85C4.30001 17.65 6.45005 19.8 9.25001 20.7C9.45005 20.8 9.65009 20.7 9.70001 20.5C9.75005 20.4501 9.75005 20.4 9.75005 20.3001V19.6C9.75005 19.45 9.60005 19.2501 9.45005 19.15ZM14.7501 3.54998C14.55 3.45002 14.35 3.54998 14.3001 3.75002C14.25 3.80006 14.25 3.84998 14.25 3.95006V4.65002C14.25 4.85006 14.4 5.04998 14.55 5.15006C18.45 6.54998 20.4501 10.9 19 14.7501C18.25 16.8501 16.6 18.45 14.55 19.2C14.35 19.3 14.25 19.45 14.25 19.7001V20.4C14.25 20.6001 14.35 20.7501 14.55 20.8C14.6001 20.8 14.7 20.8 14.7501 20.7501C19.5 19.2501 22.1001 14.2 20.6001 9.45002C19.7001 6.60002 17.5 4.44998 14.7501 3.54998Z" fill="white"/>
</svg>
