<svg width="24" height="24" viewBox="0 0 24 24" fill="none" xmlns="http://www.w3.org/2000/svg">
<rect width="24" height="24" rx="11.9998" fill="#FF007A"/>
<path d="M9.64106 5.2147C9.44068 5.18376 9.43225 5.17955 9.52646 5.16548C9.70715 5.13736 10.1346 5.17603 10.4292 5.24564C11.1161 5.40945 11.7412 5.82779 12.4091 6.57096L12.5863 6.76782L12.8394 6.72774C13.9081 6.55549 14.9958 6.69259 15.9049 7.11233C16.1552 7.22764 16.5496 7.45755 16.5988 7.51731C16.615 7.53559 16.6438 7.65723 16.6628 7.78659C16.7303 8.23446 16.6965 8.57757 16.5601 8.83419C16.4856 8.97341 16.4814 9.017 16.5313 9.13652C16.555 9.18589 16.5921 9.22762 16.6383 9.25695C16.6846 9.28629 16.7381 9.30205 16.7929 9.30245C17.0193 9.30245 17.2625 8.93685 17.375 8.42851L17.42 8.22673L17.5086 8.32727C17.9952 8.87849 18.3769 9.63009 18.4423 10.1644L18.4599 10.3044L18.3776 10.1778C18.237 9.95984 18.0964 9.81078 17.915 9.69056C17.5888 9.47471 17.2436 9.40159 16.3295 9.35307C15.5041 9.30948 15.0366 9.23917 14.5739 9.08801C13.7858 8.83138 13.3885 8.48898 12.452 7.26068C12.0365 6.71509 11.7792 6.41346 11.5239 6.1709C10.9425 5.61827 10.3716 5.3286 9.64106 5.2147Z" fill="white"/>
<path d="M16.8349 6.84505C16.856 6.47945 16.9052 6.23829 17.005 6.01822C17.0444 5.93104 17.0817 5.85932 17.0873 5.85932C17.081 5.90868 17.068 5.95694 17.0486 6.00275C16.9762 6.21649 16.9642 6.50898 17.0142 6.84857C17.0774 7.28026 17.114 7.34214 17.5696 7.80828C17.784 8.02694 18.0329 8.30255 18.1229 8.42137L18.2868 8.63652L18.1229 8.48254C17.9226 8.29482 17.4613 7.9271 17.3594 7.87508C17.2912 7.83992 17.2806 7.84062 17.2385 7.88211C17.1998 7.92148 17.1913 7.97913 17.1864 8.25404C17.178 8.68152 17.1196 8.95713 16.9783 9.23133C16.9024 9.37898 16.8904 9.34804 16.9593 9.18001C17.0107 9.05486 17.0156 9.00002 17.0156 8.5859C17.0156 7.75344 16.9164 7.55376 16.3364 7.21066C16.1619 7.10938 15.9826 7.01647 15.7992 6.93224C15.7086 6.89589 15.6208 6.85313 15.5363 6.80427C15.5524 6.7881 16.1177 6.95262 16.3448 7.04051C16.6837 7.17058 16.7393 7.18746 16.7807 7.17128C16.8082 7.16074 16.8215 7.08059 16.8349 6.84505ZM10.0803 8.2688C9.67323 7.70844 9.42152 6.84857 9.47566 6.20595L9.49254 6.00697L9.58534 6.02385C9.75971 6.05548 10.0599 6.16728 10.2005 6.25305C10.5858 6.48718 10.7532 6.79584 10.9226 7.58751C10.9725 7.81953 11.0379 8.08178 11.0682 8.17108C11.116 8.3138 11.2988 8.64777 11.4478 8.86502C11.5547 9.02111 11.483 9.09493 11.2467 9.07384C10.8854 9.0408 10.396 8.70331 10.0803 8.2688ZM16.3413 12.4416C14.4381 11.6753 13.768 11.0101 13.768 9.88802C13.768 9.72279 13.7736 9.5878 13.78 9.5878C13.787 9.5878 13.8608 9.64193 13.9438 9.70873C14.3298 10.0181 14.7622 10.1503 15.9581 10.3246C16.6619 10.428 17.0585 10.511 17.4241 10.6319C18.5856 11.0172 19.3041 11.799 19.4757 12.8635C19.5249 13.1728 19.4961 13.7529 19.4152 14.0587C19.3519 14.3006 19.1572 14.7358 19.1059 14.7527C19.0918 14.7569 19.0777 14.7028 19.0735 14.6275C19.0538 14.2282 18.852 13.8387 18.5124 13.5469C18.1265 13.2157 17.609 12.9514 16.3413 12.4416ZM15.0054 12.7594C14.983 12.6236 14.9522 12.4893 14.9133 12.3573L14.8641 12.2124L14.9548 12.3137C15.0793 12.4543 15.1784 12.6329 15.2614 12.8719C15.3254 13.054 15.3324 13.1082 15.3317 13.4042C15.3317 13.6952 15.3239 13.7557 15.2649 13.9202C15.1828 14.1615 15.0453 14.3801 14.8634 14.5586C14.5154 14.913 14.0689 15.1084 13.4235 15.19C13.311 15.2041 12.9848 15.228 12.6972 15.2427C11.973 15.2807 11.497 15.358 11.0689 15.5085C11.0302 15.5258 10.9888 15.5358 10.9465 15.538C10.9296 15.5205 11.2207 15.3468 11.4619 15.2308C11.8015 15.067 12.139 14.9777 12.8962 14.8518C13.2702 14.7892 13.6569 14.714 13.7547 14.6838C14.6813 14.3997 15.158 13.6671 15.0054 12.7594Z" fill="white"/>
<path d="M15.4207 14.5432C15.1676 13.9997 15.1099 13.4745 15.2484 12.9851C15.2632 12.9331 15.2871 12.8902 15.3012 12.8902C15.3488 12.9074 15.3935 12.9316 15.4341 12.9619C15.5508 13.0407 15.7842 13.1728 16.4064 13.5117C17.1833 13.9357 17.6263 14.264 17.9279 14.6381C18.1916 14.9664 18.3547 15.3405 18.4334 15.7961C18.4777 16.0541 18.4517 16.6749 18.3856 16.9351C18.1768 17.7549 17.691 18.3989 16.9991 18.7743C16.9338 18.8121 16.8662 18.8457 16.7966 18.8749C16.7868 18.8749 16.8234 18.7814 16.8789 18.6661C17.1109 18.1795 17.1383 17.7056 16.9619 17.1783C16.8543 16.8556 16.6342 16.4612 16.1906 15.7961C15.6745 15.0227 15.548 14.816 15.4207 14.5432ZM8.27241 17.4757C8.97902 16.8795 9.85717 16.4563 10.658 16.3262C11.0025 16.2699 11.5776 16.2924 11.8968 16.374C12.4087 16.5048 12.8671 16.7987 13.1054 17.1481C13.3375 17.4898 13.438 17.7879 13.5414 18.4502C13.5835 18.7118 13.6278 18.974 13.6412 19.0338C13.7185 19.3769 13.8711 19.6518 14.0595 19.7896C14.3583 20.0083 14.8737 20.0216 15.3799 19.8248C15.4328 19.8005 15.4886 19.783 15.5459 19.7727C15.5641 19.791 15.3096 19.9619 15.1296 20.0519C14.9172 20.1655 14.6794 20.2231 14.4385 20.2192C13.9745 20.2192 13.5892 19.9837 13.2679 19.502C13.2046 19.4071 13.0625 19.1238 12.9515 18.8714C12.6126 18.098 12.4452 17.8617 12.0515 17.6037C11.7077 17.3787 11.2655 17.3386 10.9329 17.5018C10.4956 17.7162 10.3739 18.2751 10.6868 18.6288C10.8113 18.7694 11.0433 18.8911 11.2331 18.9143C11.3159 18.9252 11.4001 18.9183 11.48 18.8939C11.5599 18.8696 11.6337 18.8283 11.6963 18.773C11.7588 18.7177 11.8088 18.6495 11.8428 18.5732C11.8768 18.4969 11.894 18.4142 11.8933 18.3307C11.8933 18.0973 11.8033 17.9651 11.5783 17.8631C11.2711 17.7246 10.9406 17.8863 10.942 18.1753C10.9427 18.2983 10.9962 18.3757 11.1199 18.4319C11.1994 18.4671 11.2008 18.4706 11.1361 18.4572C10.8542 18.3982 10.7881 18.0586 11.0152 17.8329C11.2873 17.5615 11.8504 17.681 12.0438 18.0509C12.1253 18.2062 12.1345 18.5163 12.0635 18.7033C11.9053 19.1217 11.4426 19.341 10.9737 19.2215C10.6545 19.1399 10.5244 19.0521 10.1398 18.6555C9.47118 17.9665 9.21174 17.8329 8.2471 17.6824L8.06219 17.6536L8.27241 17.4757Z" fill="white"/>
<path fill-rule="evenodd" clip-rule="evenodd" d="M5.24984 3.86537L5.31734 3.94763C7.92439 7.13965 9.2715 8.79612 9.35728 8.91424C9.4979 9.1097 9.44516 9.28477 9.2033 9.42257C9.06901 9.49921 8.792 9.57655 8.65419 9.57655C8.4974 9.57655 8.32093 9.50132 8.19226 9.37968C8.10156 9.2932 7.73525 8.7462 6.88944 7.43354C6.49336 6.81313 6.09212 6.19603 5.68575 5.58231C5.6513 5.54996 5.65201 5.55067 6.82335 7.64657C7.55878 8.96275 7.80767 9.42749 7.80767 9.49007C7.80767 9.61662 7.77252 9.68271 7.61643 9.85708C7.35629 10.1475 7.24028 10.4737 7.15591 11.1487C7.0617 11.9059 6.79734 12.4402 6.06331 13.3549C5.63443 13.8907 5.56412 13.9891 5.45514 14.205C5.31874 14.4764 5.28148 14.6289 5.26601 14.972C5.24984 15.3348 5.28148 15.5697 5.39257 15.9163C5.48959 16.22 5.59084 16.4211 5.84957 16.8219C6.07316 17.1685 6.20182 17.4258 6.20182 17.5264C6.20182 17.6065 6.21729 17.6065 6.56391 17.5285C7.39285 17.3414 8.06571 17.0117 8.44467 16.6081C8.6788 16.3585 8.73364 16.2207 8.73575 15.8783C8.73645 15.6547 8.72872 15.6076 8.66825 15.479C8.56982 15.2694 8.39053 15.0951 7.9954 14.8251C7.47722 14.4707 7.25645 14.1853 7.19528 13.7937C7.14466 13.4724 7.20302 13.2453 7.48988 12.6448C7.78588 12.0233 7.8597 11.7589 7.90962 11.1325C7.94126 10.7275 7.98555 10.5679 8.10227 10.4399C8.2232 10.3064 8.33288 10.2607 8.6331 10.2199C9.12245 10.1531 9.43391 10.0265 9.68984 9.79099C9.91201 9.58569 10.0048 9.38812 10.0189 9.09142L10.0301 8.86643L9.90569 8.72159C9.7271 8.51348 8.24992 6.88372 5.47342 3.83092L5.3989 3.75006L5.24984 3.86537ZM6.45493 15.3833C6.50398 15.2965 6.51863 15.1944 6.49598 15.0973C6.47332 15.0001 6.41501 14.915 6.3326 14.8588C6.17229 14.752 5.9227 14.8026 5.9227 14.9418C5.9227 14.984 5.9459 15.0149 5.99863 15.0424C6.08792 15.0881 6.09425 15.1401 6.02464 15.2448C5.95363 15.3517 5.95926 15.4459 6.04081 15.5099C6.17159 15.6126 6.3565 15.5556 6.45493 15.3833ZM10.3388 10.338C10.1089 10.4083 9.886 10.6523 9.81639 10.9075C9.77421 11.0629 9.79811 11.3364 9.86139 11.4207C9.96334 11.5571 10.0625 11.593 10.3296 11.5909C10.8527 11.5874 11.3069 11.3631 11.3604 11.0826C11.404 10.8527 11.2036 10.5342 10.9287 10.3935C10.7867 10.3218 10.485 10.293 10.3388 10.338ZM10.9505 10.8161C11.0313 10.7015 10.9955 10.577 10.8591 10.4941C10.5975 10.3345 10.2024 10.466 10.2024 10.7134C10.2024 10.8358 10.4084 10.9701 10.5968 10.9701C10.7234 10.9701 10.8949 10.8948 10.9505 10.8161Z" fill="white"/>
</svg>
