<svg width="24" height="24" viewBox="0 0 24 24" fill="none" xmlns="http://www.w3.org/2000/svg">
<g clip-path="url(#clip0_13147_1833)">
<rect width="24" height="24" rx="12" fill="#111111"/>
<path d="M12.0002 0.241211H11.9997C5.50555 0.241211 0.240967 5.50579 0.240967 12V12.0004C0.240967 18.4946 5.50555 23.7592 11.9997 23.7592H12.0002C18.4944 23.7592 23.7589 18.4946 23.7589 12.0004V12C23.7589 5.50579 18.4944 0.241211 12.0002 0.241211Z" stroke="url(#paint0_linear_13147_1833)" stroke-width="0.430728"/>
<path fill-rule="evenodd" clip-rule="evenodd" d="M10.1187 2.3252C5.57751 3.1999 2.14722 7.1952 2.14722 11.9917C2.14722 16.7882 5.57751 20.7835 10.1187 21.6582V20.7356C6.08024 19.8747 3.0513 16.2869 3.0513 11.9917C3.0513 7.69649 6.08024 4.1087 10.1187 3.24783V2.3252ZM13.8816 3.25144V2.32846C18.4144 3.20982 21.8362 7.20117 21.8362 11.9917C21.8362 16.7822 18.4144 20.7736 13.8816 21.655V20.732C17.9116 19.8647 20.9321 16.2809 20.9321 11.9917C20.9321 7.70246 17.9116 4.1187 13.8816 3.25144Z" fill="white"/>
<path d="M13.394 11.6627C14.1452 11.8059 14.7278 12.0819 15.1419 12.491C15.556 12.8897 15.7631 13.401 15.7631 14.0247V15.0064C15.7631 15.7528 15.4934 16.3561 14.9541 16.8162C14.4148 17.2661 13.7071 17.4911 12.8307 17.4911H12.5274V19.0556H11.4874V17.4911H11.1696C10.5918 17.4911 10.0814 17.3633 9.63841 17.1077C9.19544 16.8418 8.84876 16.4737 8.59839 16.0033C8.35767 15.5228 8.2373 14.9706 8.2373 14.3468H9.27733C9.27733 14.9808 9.45063 15.4972 9.79731 15.896C10.1536 16.2845 10.6207 16.4788 11.1985 16.4788H12.8018C13.37 16.4788 13.8274 16.3459 14.1741 16.08C14.5208 15.8039 14.6941 15.446 14.6941 15.0064V14.0247C14.6941 13.6771 14.5641 13.3805 14.3041 13.1352C14.0537 12.8897 13.7071 12.7313 13.2641 12.6597L10.664 12.1995C9.93214 12.0666 9.36398 11.7905 8.95954 11.3713C8.55503 10.9521 8.35284 10.4255 8.35284 9.79152V8.96327C8.35284 8.2168 8.61286 7.6238 9.13284 7.18408C9.66247 6.73417 10.3606 6.50924 11.2274 6.50924H11.4874V4.94476H12.5274V6.50924H12.8596C13.6781 6.50924 14.3378 6.77505 14.8386 7.30679C15.3393 7.82828 15.5897 8.51849 15.5897 9.37736H14.5497C14.5497 8.81499 14.3956 8.36508 14.0875 8.02764C13.7793 7.69025 13.37 7.52153 12.8596 7.52153H11.2274C10.6784 7.52153 10.2403 7.65443 9.9129 7.9203C9.58547 8.17592 9.42175 8.52362 9.42175 8.96327V9.79152C9.42175 10.1494 9.54211 10.451 9.78289 10.6965C10.0333 10.9418 10.3751 11.1054 10.8084 11.1873L13.394 11.6627Z" fill="white"/>
</g>
<defs>
<linearGradient id="paint0_linear_13147_1833" x1="12" y1="0.0193412" x2="12" y2="23.9811" gradientUnits="userSpaceOnUse">
<stop stop-color="white"/>
<stop offset="1" stop-color="#111111"/>
</linearGradient>
<clipPath id="clip0_13147_1833">
<rect width="24" height="24" rx="12" fill="white"/>
</clipPath>
</defs>
</svg>
