<svg width="24" height="24" viewBox="0 0 24 24" fill="none" xmlns="http://www.w3.org/2000/svg">
<rect width="24" height="24" rx="12" fill="url(#paint0_radial_13147_1788)"/>
<path d="M7.41516 15.1614H5.7124C5.85141 17.8198 8.07541 20.1308 12.0196 20.1308C15.9464 20.1308 18.4485 17.9762 18.4485 15.1962C18.4485 9.91409 10.4732 10.2095 10.4732 7.15146C10.4732 6.30007 11.1161 5.2923 12.6104 5.2923C14.2784 5.2923 16.2418 6.59545 16.3808 8.26348H18.0662C17.8924 5.57031 15.2688 3.69379 11.9328 3.69379C8.47504 3.69379 5.86878 5.70931 5.86878 8.55888C5.86878 13.9973 13.844 13.2849 13.844 16.6383C13.844 17.6808 13.2011 18.5496 11.5852 18.5496C9.5697 18.5496 7.53682 17.1422 7.41516 15.1614ZM8.83995 7.55109C8.83995 11.6864 16.7457 10.8697 16.7457 15.283C16.7457 16.6036 15.8769 17.7677 14.8344 18.0631C15.1993 17.7156 15.4773 16.9511 15.4773 16.2213C15.4773 12.1381 7.55418 12.6941 7.55418 8.50673C7.55418 7.09931 8.45768 5.96994 9.58706 5.62243C9.15271 6.1437 8.83995 6.82133 8.83995 7.55109Z" fill="white"/>
<defs>
<radialGradient id="paint0_radial_13147_1788" cx="0" cy="0" r="1" gradientUnits="userSpaceOnUse" gradientTransform="translate(12.02 27.8177) rotate(-90) scale(38.4641)">
<stop stop-color="#FFD232"/>
<stop offset="1" stop-color="#FF6D6D"/>
</radialGradient>
</defs>
</svg>
