<svg width="24" height="24" viewBox="0 0 24 24" fill="none" xmlns="http://www.w3.org/2000/svg">
<rect width="24" height="24" rx="11.9998" fill="#26A17B"/>
<path fill-rule="evenodd" clip-rule="evenodd" d="M13.4414 13.0376V13.0361C13.3589 13.0421 12.9337 13.0676 11.9849 13.0676C11.2274 13.0676 10.6942 13.0451 10.5067 13.0361V13.0383C7.59068 12.9101 5.41418 12.4023 5.41418 11.7948C5.41418 11.1881 7.59068 10.6803 10.5067 10.5498V12.5328C10.6972 12.5463 11.2432 12.5786 11.9977 12.5786C12.9029 12.5786 13.3567 12.5411 13.4414 12.5336V10.5513C16.3514 10.6811 18.5227 11.1888 18.5227 11.7948C18.5227 12.4023 16.3514 12.9086 13.4414 13.0376ZM13.4414 10.3451V8.5706H17.5019V5.8646H6.44618V8.5706H10.5067V10.3443C7.20668 10.4958 4.72493 11.1498 4.72493 11.9328C4.72493 12.7158 7.20668 13.3691 10.5067 13.5213V19.2078H13.4414V13.5198C16.7362 13.3683 19.2119 12.7151 19.2119 11.9328C19.2119 11.1506 16.7362 10.4973 13.4414 10.3451Z" fill="white"/>
</svg>
