<svg width="24" height="24" viewBox="0 0 24 24" fill="none" xmlns="http://www.w3.org/2000/svg">
<g clip-path="url(#clip0_13147_1807)">
<rect width="24" height="24" rx="12" fill="#4281A4"/>
<g opacity="0.2">
<path d="M3.20016 20.0839C3.0049 20.2792 3.0049 20.5958 3.20016 20.7911C3.39542 20.9863 3.712 20.9863 3.90726 20.7911L3.55371 20.4375L3.20016 20.0839ZM20.9698 3.72855L21.3233 3.375L20.6162 2.66789L20.2627 3.02145L20.6162 3.375L20.9698 3.72855ZM3.55371 20.4375L3.90726 20.7911L20.9698 3.72855L20.6162 3.375L20.2627 3.02145L3.20016 20.0839L3.55371 20.4375Z" fill="#F6E8D7"/>
<path d="M3.62601 2.9277C3.43075 2.73243 3.11417 2.73243 2.91891 2.9277C2.72365 3.12296 2.72365 3.43954 2.91891 3.6348L3.27246 3.28125L3.62601 2.9277ZM20.2959 21.0118L20.6494 21.3653L21.3565 20.6582L21.003 20.3046L20.6494 20.6582L20.2959 21.0118ZM3.27246 3.28125L2.91891 3.6348L20.2959 21.0118L20.6494 20.6582L21.003 20.3046L3.62601 2.9277L3.27246 3.28125Z" fill="#F6E8D7"/>
<path d="M11.9912 0L11.9912 24" stroke="#F6E8D7" stroke-linecap="square" stroke-linejoin="round"/>
<path d="M0.562503 8.25L15.6562 23.3437" stroke="#F6E8D7" stroke-linecap="square" stroke-linejoin="round"/>
<path d="M-0.00878906 12L23.9912 12" stroke="#F6E8D7" stroke-linecap="square" stroke-linejoin="round"/>
<path d="M11.9912 19.6875C16.2369 19.6875 19.6787 16.2457 19.6787 12C19.6787 7.75431 16.2369 4.3125 11.9912 4.3125C7.74552 4.3125 4.30371 7.75431 4.30371 12C4.30371 16.2457 7.74552 19.6875 11.9912 19.6875Z" stroke="#F6E8D7" stroke-linecap="round" stroke-linejoin="round"/>
</g>
<path d="M19.6787 12C19.6787 7.75431 16.2369 4.3125 11.9912 4.3125V12L17.4287 17.4343C18.8189 16.0432 19.6787 14.122 19.6787 12Z" stroke="#F6E8D7" stroke-linecap="round" stroke-linejoin="round"/>
<path d="M11.9912 4.3125C7.74552 4.3125 4.30371 7.75431 4.30371 12H11.9912V4.3125Z" stroke="#F6E8D7" stroke-linecap="round" stroke-linejoin="round"/>
<path d="M11.9912 12H4.30371L11.9912 19.6875H19.6787L11.9912 12Z" stroke="#F6E8D7" stroke-linecap="round" stroke-linejoin="round"/>
<path d="M4.30371 19.6875H11.9912L8.14746 15.8438L4.30371 19.6875Z" stroke="#F6E8D7" stroke-linecap="round" stroke-linejoin="round"/>
</g>
<rect x="0.25" y="0.25" width="23.5" height="23.5" rx="11.75" stroke="url(#paint0_linear_13147_1807)" stroke-width="0.5"/>
<defs>
<linearGradient id="paint0_linear_13147_1807" x1="12" y1="0" x2="12" y2="24" gradientUnits="userSpaceOnUse">
<stop stop-color="white" stop-opacity="0.3"/>
<stop offset="1" stop-opacity="0.1"/>
</linearGradient>
<clipPath id="clip0_13147_1807">
<rect width="24" height="24" rx="12" fill="white"/>
</clipPath>
</defs>
</svg>
