<svg width="24" height="24" viewBox="0 0 24 24" fill="none" xmlns="http://www.w3.org/2000/svg">
<rect width="24" height="24" rx="12" fill="#152920"/>
<path d="M7.85162 13.3974V10.6553C7.85162 10.4714 7.97418 10.3489 8.158 10.3489H10.6336V7.54242H8.08446C6.33196 7.54242 4.80005 8.90276 4.80005 10.7043V13.4464C4.80005 15.2357 6.12362 16.4576 7.88839 16.4576C9.00363 16.4576 10.0208 15.9465 11.087 14.9171L15.4254 10.689C15.6092 10.5051 15.744 10.3489 15.9034 10.3489C16.0504 10.3489 16.1485 10.4684 16.1485 10.6154V13.3447C16.1485 13.5285 16.0259 13.6511 15.8421 13.6511H13.3665V16.4576H15.9279C17.6681 16.4576 19.2 15.0972 19.2 13.2834V10.5664C19.2 8.77714 17.8765 7.54242 16.1117 7.54242C15.0087 7.54242 13.9793 8.06633 12.9131 9.09578L8.57467 13.3239C8.39086 13.5077 8.25605 13.6511 8.09672 13.6511C7.94966 13.6511 7.85162 13.5445 7.85162 13.3974Z" fill="#C9A364"/>
</svg>
