<svg width="24" height="24" viewBox="0 0 24 24" fill="none" xmlns="http://www.w3.org/2000/svg">
<g clip-path="url(#clip0_13147_1618)">
<rect width="24" height="24" rx="12" fill="white"/>
<path d="M19.5694 5.03686L18.9104 5.69584C20.4828 7.4154 21.3548 9.66117 21.3548 11.9913C21.3548 14.3214 20.4828 16.5672 18.9104 18.2867L19.5694 18.9457C21.3181 17.0489 22.289 14.5635 22.289 11.9836C22.289 9.4037 21.3181 6.91829 19.5694 5.02148V5.03686Z" fill="#5A5564"/>
<path d="M5.71122 5.09389C7.43078 3.52146 9.67655 2.64946 12.0067 2.64946C14.3368 2.64946 16.5825 3.52146 18.3021 5.09389L18.9611 4.43491C17.0643 2.6862 14.5789 1.71533 11.999 1.71533C9.41908 1.71533 6.93367 2.6862 5.03687 4.43491L5.71122 5.09389Z" fill="#5A5564"/>
<path d="M5.09389 18.2932C3.52332 16.574 2.65247 14.3296 2.65247 12.0011C2.65247 9.67248 3.52332 7.42808 5.09389 5.70891L4.43491 5.04993C2.6862 6.94673 1.71533 9.43214 1.71533 12.012C1.71533 14.5919 2.6862 17.0773 4.43491 18.9741L5.09389 18.2932Z" fill="#5A5564"/>
<path d="M18.2933 18.9017C16.5738 20.4742 14.328 21.3462 11.9979 21.3462C9.66776 21.3462 7.422 20.4742 5.70244 18.9017L5.04346 19.5607C6.94026 21.3094 9.42567 22.2803 12.0056 22.2803C14.5855 22.2803 17.0709 21.3094 18.9677 19.5607L18.2933 18.9017Z" fill="#5A5564"/>
<path d="M16.1603 9.80125C16.0285 8.42618 14.8423 7.96489 13.342 7.82431V5.93085H12.1822V7.78917C11.8769 7.78917 11.565 7.78917 11.2553 7.78917V5.93085H10.1043V7.83749H7.75171V9.07857C7.75171 9.07857 8.60838 9.06319 8.5952 9.07857C8.74967 9.06158 8.9047 9.10521 9.02762 9.20027C9.15055 9.29534 9.23177 9.43441 9.25418 9.58818V14.8073C9.25088 14.8615 9.23674 14.9145 9.21259 14.9632C9.18844 15.0119 9.15478 15.0552 9.1136 15.0906C9.07319 15.1268 9.02589 15.1543 8.97455 15.1717C8.92321 15.1891 8.8689 15.1959 8.81486 15.1917C8.83024 15.2049 7.97137 15.1917 7.97137 15.1917L7.75171 16.5777H10.0823V18.5151H11.2421V16.6063H12.1691V18.5064H13.3311V16.5909C15.2904 16.4723 16.6567 15.9891 16.828 14.1549C16.9664 12.6788 16.2723 12.0198 15.163 11.754C15.8374 11.4223 16.2547 10.8073 16.1603 9.80125ZM14.5348 13.9265C14.5348 15.3674 12.0658 15.2027 11.2794 15.2027V12.6458C12.0658 12.648 14.5348 12.4218 14.5348 13.9265ZM13.9966 10.324C13.9966 11.642 11.9362 11.4816 11.2816 11.4816V9.15765C11.9362 9.15765 13.9966 8.95117 13.9966 10.324Z" fill="#F09242"/>
<path d="M11.9978 24C9.62462 23.9996 7.30484 23.2955 5.33179 21.9767C3.35874 20.658 1.82101 18.7838 0.913031 16.5912C0.00505138 14.3986 -0.232403 11.9859 0.230689 9.65838C0.693782 7.33081 1.83663 5.19282 3.51472 3.51472C5.19282 1.83663 7.33081 0.693782 9.65838 0.230689C11.9859 -0.232403 14.3986 0.00505138 16.5912 0.913031C18.7838 1.82101 20.658 3.35874 21.9767 5.33179C23.2955 7.30484 23.9996 9.62462 24 11.9978C24.0003 13.574 23.69 15.1349 23.087 16.5912C22.4839 18.0475 21.5998 19.3707 20.4853 20.4853C19.3707 21.5998 18.0475 22.4839 16.5912 23.087C15.1349 23.69 13.574 24.0003 11.9978 24ZM11.9978 0.935755C9.81137 0.937492 7.67452 1.58738 5.85735 2.80327C4.04018 4.01916 2.62426 5.74648 1.78855 7.7669C0.952839 9.78732 0.734857 12.0101 1.16216 14.1544C1.58945 16.2987 2.64285 18.2682 4.1892 19.8139C5.73555 21.3596 7.70544 22.4123 9.84989 22.8387C11.9943 23.2652 14.2171 23.0463 16.2372 22.2098C18.2572 21.3733 19.984 19.9567 21.1992 18.139C22.4143 16.3214 23.0634 14.1842 23.0643 11.9978C23.0648 10.5446 22.7789 9.1055 22.223 7.76284C21.667 6.42019 20.8518 5.20029 19.824 4.17291C18.7962 3.14553 17.576 2.33082 16.2331 1.77537C14.8902 1.21991 13.451 0.9346 11.9978 0.935755Z" fill="#282138"/>
</g>
<defs>
<clipPath id="clip0_13147_1618">
<rect width="24" height="24" rx="12" fill="white"/>
</clipPath>
</defs>
</svg>
