<svg width="24" height="24" viewBox="0 0 24 24" fill="none" xmlns="http://www.w3.org/2000/svg">
<path d="M0 12C0 5.37258 5.37258 0 12 0C18.6274 0 24 5.37258 24 12C24 18.6274 18.6274 24 12 24C5.37258 24 0 18.6274 0 12Z" fill="white"/>
<path d="M11.9995 3.99994V9.91466L16.9986 12.1485L11.9995 3.99994Z" fill="#343434"/>
<path d="M11.9981 3.99994L6.99829 12.1485L11.9981 9.91466V3.99994Z" fill="#8C8C8C"/>
<path d="M11.9995 15.981V19.9999L17.002 13.079L11.9995 15.981Z" fill="#3C3C3B"/>
<path d="M11.9984 19.9999V15.9803L6.99854 13.079L11.9984 19.9999Z" fill="#8C8C8C"/>
<path d="M11.9995 15.042L16.9986 12.1393L11.9995 9.9068V15.042Z" fill="#141414"/>
<path d="M6.99854 12.1393L11.9984 15.042V9.9068L6.99854 12.1393Z" fill="#393939"/>
<path d="M24 12C24 18.6274 18.6274 24 12 24C5.37258 24 0 18.6274 0 12C0 5.37258 5.37258 0 12 0C18.6274 0 24 5.37258 24 12ZM0.72 12C0.72 18.2298 5.77023 23.28 12 23.28C18.2298 23.28 23.28 18.2298 23.28 12C23.28 5.77023 18.2298 0.72 12 0.72C5.77023 0.72 0.72 5.77023 0.72 12Z" fill="#E1E4EA"/>
</svg>
