<svg width="24" height="24" viewBox="0 0 24 24" fill="none" xmlns="http://www.w3.org/2000/svg">
<g clip-path="url(#clip0_13147_1656)">
<rect width="24" height="24" rx="12" fill="url(#paint0_linear_13147_1656)"/>
<path fill-rule="evenodd" clip-rule="evenodd" d="M17.7879 17.786C17.7942 17.831 17.7873 17.8768 17.7679 17.9178C17.7486 17.9589 17.7178 17.9934 17.6791 18.0172L12.1207 21.4452C12.084 21.468 12.0417 21.48 11.9985 21.48C11.9554 21.48 11.913 21.468 11.8763 21.4452L6.36233 18.06C6.32502 18.0373 6.2949 18.0044 6.27544 17.9653C6.25598 17.9261 6.24797 17.8823 6.25233 17.8388L6.25113 17.8164V13.5724C6.24837 13.5302 6.25713 13.488 6.27649 13.4504C6.29585 13.4128 6.32508 13.3812 6.36103 13.3589C6.39699 13.3367 6.43833 13.3246 6.48063 13.324C6.52292 13.3234 6.56458 13.3343 6.60113 13.3556L12.0191 16.4996L17.3871 13.3856C17.3962 13.3807 17.4054 13.3762 17.4147 13.372C17.4493 13.3456 17.4906 13.3293 17.5339 13.325C17.5772 13.3208 17.6208 13.3287 17.6599 13.3479C17.6989 13.3671 17.7318 13.3969 17.7549 13.4338C17.7779 13.4707 17.7902 13.5133 17.7903 13.5568V17.7528C17.7901 17.7638 17.7894 17.7747 17.7883 17.7856M6.71793 17.4472L8.31953 16.4796L6.71793 14.2752V17.4472ZM8.59473 16.8592L6.93353 17.8624L11.2487 20.512L8.59473 16.8592ZM12.8239 20.4632L17.1091 17.8204L15.4531 16.8248L12.8239 20.4632ZM15.7275 16.4452L17.3243 17.4052V14.2364L15.7275 16.4452ZM11.9027 16.9716L7.32193 14.3128L12.0195 20.7792L16.6727 14.34L12.1367 16.972C12.1012 16.9928 12.0607 17.0038 12.0195 17.0038C11.9783 17.0038 11.9379 16.9928 11.9023 16.972M6.47593 12.4528C6.41538 12.4507 6.35799 12.4252 6.3159 12.3816C6.27381 12.3381 6.2503 12.2798 6.25033 12.2192L6.24993 6.72242C6.24993 6.70855 6.251 6.69522 6.25313 6.68242C6.24522 6.63644 6.25128 6.58914 6.27054 6.54664C6.28979 6.50414 6.32135 6.46839 6.36113 6.44402L11.9203 3.03442C11.9569 3.01192 11.999 3 12.0419 3C12.0849 3 12.127 3.01192 12.1635 3.03442L17.6779 6.40002C17.7475 6.44282 17.7899 6.51842 17.7899 6.60002L17.7895 6.61002V6.62082L17.7903 12.1904C17.7904 12.2373 17.7764 12.2831 17.7499 12.3218C17.7235 12.3605 17.686 12.3903 17.6423 12.4072L12.1319 15.4392C12.0974 15.4579 12.0588 15.4677 12.0195 15.4677C11.9803 15.4677 11.9416 15.4579 11.9071 15.4392L6.47593 12.4528ZM6.71633 7.05522L6.71673 11.4784L8.69913 8.24722L6.71633 7.05522ZM17.3227 7.01322L15.3215 8.22242L17.3231 11.484L17.3227 7.01322ZM15.0775 7.82442L17.1063 6.59882L12.6599 3.88362L15.0775 7.82442ZM11.3451 3.93442L6.93273 6.64082L8.94313 7.84962L11.3451 3.93442ZM6.86313 12.1332L12.0191 14.9684L17.1739 12.1328L12.0179 3.73042L6.86313 12.1332Z" fill="url(#paint1_linear_13147_1656)"/>
<path fill-rule="evenodd" clip-rule="evenodd" d="M17.7879 17.786C17.7942 17.831 17.7873 17.8768 17.7679 17.9178C17.7486 17.9589 17.7178 17.9934 17.6791 18.0172L12.1207 21.4452C12.084 21.468 12.0417 21.48 11.9985 21.48C11.9554 21.48 11.913 21.468 11.8763 21.4452L6.36233 18.06C6.32502 18.0373 6.2949 18.0044 6.27544 17.9653C6.25598 17.9261 6.24797 17.8823 6.25233 17.8388L6.25113 17.8164V13.5724C6.24837 13.5302 6.25713 13.488 6.27649 13.4504C6.29585 13.4128 6.32508 13.3812 6.36103 13.3589C6.39699 13.3367 6.43833 13.3246 6.48063 13.324C6.52292 13.3234 6.56458 13.3343 6.60113 13.3556L12.0191 16.4996L17.3871 13.3856C17.3962 13.3807 17.4054 13.3762 17.4147 13.372C17.4493 13.3456 17.4906 13.3293 17.5339 13.325C17.5772 13.3208 17.6208 13.3287 17.6599 13.3479C17.6989 13.3671 17.7318 13.3969 17.7549 13.4338C17.7779 13.4707 17.7902 13.5133 17.7903 13.5568V17.7528C17.7901 17.7638 17.7894 17.7747 17.7883 17.7856M6.71793 17.4472L8.31953 16.4796L6.71793 14.2752V17.4472ZM8.59473 16.8592L6.93353 17.8624L11.2487 20.512L8.59473 16.8592ZM12.8239 20.4632L17.1091 17.8204L15.4531 16.8248L12.8239 20.4632ZM15.7275 16.4452L17.3243 17.4052V14.2364L15.7275 16.4452ZM11.9027 16.9716L7.32193 14.3128L12.0195 20.7792L16.6727 14.34L12.1367 16.972C12.1012 16.9928 12.0607 17.0038 12.0195 17.0038C11.9783 17.0038 11.9379 16.9928 11.9023 16.972M6.47593 12.4528C6.41538 12.4507 6.35799 12.4252 6.3159 12.3816C6.27381 12.3381 6.2503 12.2798 6.25033 12.2192L6.24993 6.72242C6.24993 6.70855 6.251 6.69522 6.25313 6.68242C6.24522 6.63644 6.25128 6.58914 6.27054 6.54664C6.28979 6.50414 6.32135 6.46839 6.36113 6.44402L11.9203 3.03442C11.9569 3.01192 11.999 3 12.0419 3C12.0849 3 12.127 3.01192 12.1635 3.03442L17.6779 6.40002C17.7475 6.44282 17.7899 6.51842 17.7899 6.60002L17.7895 6.61002V6.62082L17.7903 12.1904C17.7904 12.2373 17.7764 12.2831 17.7499 12.3218C17.7235 12.3605 17.686 12.3903 17.6423 12.4072L12.1319 15.4392C12.0974 15.4579 12.0588 15.4677 12.0195 15.4677C11.9803 15.4677 11.9416 15.4579 11.9071 15.4392L6.47593 12.4528ZM6.71633 7.05522L6.71673 11.4784L8.69913 8.24722L6.71633 7.05522ZM17.3227 7.01322L15.3215 8.22242L17.3231 11.484L17.3227 7.01322ZM15.0775 7.82442L17.1063 6.59882L12.6599 3.88362L15.0775 7.82442ZM11.3451 3.93442L6.93273 6.64082L8.94313 7.84962L11.3451 3.93442ZM6.86313 12.1332L12.0191 14.9684L17.1739 12.1328L12.0179 3.73042L6.86313 12.1332Z" fill="#120370"/>
<path d="M12 23.29C18.2353 23.29 23.29 18.2353 23.29 12C23.29 5.76467 18.2353 0.709961 12 0.709961C5.76467 0.709961 0.709961 5.76467 0.709961 12C0.709961 18.2353 5.76467 23.29 12 23.29Z" stroke="#120370" stroke-width="0.42"/>
</g>
<defs>
<linearGradient id="paint0_linear_13147_1656" x1="1.6628" y1="15.7672" x2="22.4496" y2="8.2084" gradientUnits="userSpaceOnUse">
<stop stop-color="#29BCFA"/>
<stop offset="0.43" stop-color="#6464E4"/>
<stop offset="1" stop-color="#B45AFA"/>
</linearGradient>
<linearGradient id="paint1_linear_13147_1656" x1="11.9343" y1="21.1576" x2="17.6843" y2="6.71842" gradientUnits="userSpaceOnUse">
<stop stop-color="#29BCFA"/>
<stop offset="0.43" stop-color="#6464E4"/>
<stop offset="1" stop-color="#B45AFA"/>
</linearGradient>
<clipPath id="clip0_13147_1656">
<rect width="24" height="24" rx="12" fill="white"/>
</clipPath>
</defs>
</svg>
